<svg width="150" height="161" viewBox="0 0 150 161" fill="none" xmlns="http://www.w3.org/2000/svg">
<path d="M83.2752 127.383C116.256 127.383 142.993 100.645 142.993 67.5472C142.993 34.4491 116.138 7.71155 83.2752 7.71155C50.295 7.71155 23.5574 34.4491 23.5574 67.5472C23.5574 100.645 50.295 127.383 83.2752 127.383Z" fill="#EAEEF9"/>
<path d="M138.635 28.4417C141.302 28.4417 143.464 26.2796 143.464 23.6125C143.464 20.9453 141.302 18.7832 138.635 18.7832C135.968 18.7832 133.806 20.9453 133.806 23.6125C133.806 26.2796 135.968 28.4417 138.635 28.4417Z" fill="#EAEEF9"/>
<path d="M145.702 9.59605C147.523 9.59605 149 8.11948 149 6.29803C149 4.47658 147.523 3 145.702 3C143.88 3 142.404 4.47658 142.404 6.29803C142.404 8.11948 143.88 9.59605 145.702 9.59605Z" fill="#EAEEF9"/>
<path d="M26.2665 28.324C28.088 28.324 29.5646 26.8474 29.5646 25.026C29.5646 23.2045 28.088 21.728 26.2665 21.728C24.4451 21.728 22.9685 23.2045 22.9685 25.026C22.9685 26.8474 24.4451 28.324 26.2665 28.324Z" fill="#EAEEF9"/>
<path d="M6.12491 91.9292C9.5076 91.9292 12.2498 89.187 12.2498 85.8043C12.2498 82.4216 9.5076 79.6794 6.12491 79.6794C2.74221 79.6794 0 82.4216 0 85.8043C0 89.187 2.74221 91.9292 6.12491 91.9292Z" fill="#F1F3F9"/>
<g filter="url(#filter0_d_567_19620)">
<path d="M127.66 108.404C116.748 120.255 101.114 127.667 83.7486 127.667C69.8898 127.667 57.1334 122.946 47 115.015V17.3592C47 14.1288 49.6011 11.4928 52.8461 11.4928H110.843L127.66 28.3684V108.404Z" fill="url(#paint0_linear_567_19620)"/>
</g>
<path d="M70.5926 107.186H62.1468C61.8317 107.186 61.5796 106.369 61.5796 105.39C61.5796 104.41 61.8317 103.593 62.1468 103.593H70.5926C70.9078 103.593 71.1599 104.41 71.1599 105.39C71.1599 106.533 70.9078 107.186 70.5926 107.186Z" fill="#D5DDEA"/>
<path d="M89.1779 31.7409H62.7222C62.1069 31.7409 61.5796 30.9119 61.5796 29.9446C61.5796 28.9774 62.1069 28.1483 62.7222 28.1483H89.1779C89.7932 28.1483 90.3205 28.9774 90.3205 29.9446C90.3205 30.9119 89.7932 31.7409 89.1779 31.7409Z" fill="#D5DDEA"/>
<path d="M69.2489 40.1237H62.3525C61.9363 40.1237 61.5796 39.2947 61.5796 38.3274C61.5796 37.3602 61.9363 36.5311 62.3525 36.5311H69.1895C69.6056 36.5311 69.9624 37.3602 69.9624 38.3274C69.9624 39.2947 69.6056 40.1237 69.2489 40.1237Z" fill="#D5DDEA"/>
<path d="M110.995 86.8277H78.2032H74.5891H63.6586C63.2178 86.8277 62.7771 87.5762 62.7771 88.624C62.7771 89.5222 63.1297 90.4203 63.6586 90.4203H74.5891H78.2032H110.995C111.435 90.4203 111.876 89.6718 111.876 88.624C111.788 87.5762 111.435 86.8277 110.995 86.8277Z" fill="#D5DDEA"/>
<path d="M110.993 77.2474H98.8067H94.6562H63.6602C63.2186 77.2474 62.7771 77.9959 62.7771 79.0437C62.7771 79.9419 63.1303 80.8401 63.6602 80.8401H94.6562H98.8067H110.993C111.435 80.8401 111.876 80.0916 111.876 79.0437C111.788 77.9959 111.435 77.2474 110.993 77.2474Z" fill="#D5DDEA"/>
<path d="M112.251 68.8646H109.007H105.763H63.6783C63.2277 68.8646 62.7771 69.6131 62.7771 70.6609C62.7771 71.5591 63.1376 72.4572 63.6783 72.4572H105.763H109.367H112.161C112.612 72.4572 113.062 71.7088 113.062 70.6609C113.152 69.7628 112.702 68.8646 112.251 68.8646Z" fill="#D5DDEA"/>
<path d="M112.18 59.2844H101.728H99.1372H63.6705C63.2238 59.2844 62.7771 60.0328 62.7771 61.0807C62.7771 61.9788 63.1344 62.877 63.6705 62.877H99.1372H101.728H112.091C112.716 62.877 113.074 62.1285 113.074 61.0807C113.074 60.1825 112.716 59.2844 112.18 59.2844Z" fill="#D5DDEA"/>
<path d="M110.37 11.9117V24.7872C110.37 26.9964 112.16 28.7872 114.37 28.7872H128.187" fill="#D5DDEA"/>
<path d="M69.8988 45.4288V82.5311C69.8988 86.8729 66.3447 90.0305 62.3956 90.0305H60.421V99.8981C60.421 102.266 57.6567 103.056 56.077 101.477L46.2043 90.0305H7.50327C3.15928 90.0305 0 86.4782 0 82.5311V45.4288C0 41.0871 3.55418 37.9294 7.50327 37.9294H62.3956C66.3447 37.9294 69.8988 41.4818 69.8988 45.4288Z" fill="url(#paint1_linear_567_19620)"/>
<path d="M18.5605 64.7695V56.8754C18.5605 55.6913 19.3504 54.9019 20.5351 54.9019H29.2231C30.4078 54.9019 31.1976 55.6913 31.1976 56.8754V65.9536C31.1976 68.3218 31.1976 70.2954 30.8027 71.8742C30.4157 73.4216 29.6493 74.2107 28.5035 75.3563C28.457 75.4028 28.4061 75.4451 28.3504 75.4803C27.3636 76.1039 25.8665 76.4756 24.0679 76.8037C23.46 76.9146 22.9046 76.4429 22.9046 75.825V74.3204C22.9046 73.8227 23.274 73.4097 23.7555 73.2839C25.9907 72.7001 27.2485 71.1396 27.2485 68.3218C27.2485 68.3218 26.8951 67.5324 26.4591 67.5324H21.2327C21.0353 67.5324 20.8422 67.4743 20.6783 67.3643C19.5832 66.629 18.5605 65.8696 18.5605 64.7695ZM37.9111 64.7695V56.8754C37.9111 55.6913 38.7009 54.9019 39.8856 54.9019H48.5736C49.7583 54.9019 50.5481 55.6913 50.5481 56.8754V65.9536C50.5481 68.3218 50.5481 70.2954 50.1532 71.8742C49.7662 73.4216 48.9998 74.2107 47.8541 75.3563C47.8075 75.4028 47.7566 75.4451 47.7009 75.4803C46.7141 76.1039 45.217 76.4756 43.4184 76.8037C42.8105 76.9146 42.255 76.4429 42.255 75.825V74.3204C42.255 73.8227 42.6244 73.4097 43.106 73.2839C45.3411 72.7001 46.5991 71.1396 46.5991 68.3218C46.5991 68.3218 46.2456 67.5324 45.8097 67.5324H40.5832C40.3858 67.5324 40.1927 67.4743 40.0288 67.3643C38.9337 66.629 37.9111 65.8696 37.9111 64.7695Z" fill="white"/>
<defs>
<filter id="filter0_d_567_19620" x="25" y="0.492798" width="124.66" height="160.175" filterUnits="userSpaceOnUse" color-interpolation-filters="sRGB">
<feFlood flood-opacity="0" result="BackgroundImageFix"/>
<feColorMatrix in="SourceAlpha" type="matrix" values="0 0 0 0 0 0 0 0 0 0 0 0 0 0 0 0 0 0 127 0" result="hardAlpha"/>
<feOffset dy="11"/>
<feGaussianBlur stdDeviation="11"/>
<feColorMatrix type="matrix" values="0 0 0 0 0.397708 0 0 0 0 0.47749 0 0 0 0 0.575 0 0 0 0.27 0"/>
<feBlend mode="normal" in2="BackgroundImageFix" result="effect1_dropShadow_567_19620"/>
<feBlend mode="normal" in="SourceGraphic" in2="effect1_dropShadow_567_19620" result="shape"/>
</filter>
<linearGradient id="paint0_linear_567_19620" x1="87.3039" y1="8.80557" x2="87.3039" y2="128.92" gradientUnits="userSpaceOnUse">
<stop stop-color="#FDFEFF"/>
<stop offset="0.9964" stop-color="#ECF0F5"/>
</linearGradient>
<linearGradient id="paint1_linear_567_19620" x1="-0.0320125" y1="70.1209" x2="69.9116" y2="70.1209" gradientUnits="userSpaceOnUse">
<stop stop-color="#B0BACC"/>
<stop offset="1" stop-color="#969EAE"/>
</linearGradient>
</defs>
</svg>
