<svg width="115" height="118" viewBox="0 0 115 118" fill="none" xmlns="http://www.w3.org/2000/svg">
<path d="M103.634 67.6908C103.634 79.2049 99.5304 89.6779 92.6709 97.8848C84.0353 108.235 71.0513 114.788 56.4749 114.788C42.511 114.788 30.0169 108.725 21.3813 99.1097C13.9706 90.7803 9.43848 79.7561 9.43848 67.6908C9.43848 41.6615 30.5069 20.5931 56.5361 20.5931C82.5654 20.5931 103.634 41.6615 103.634 67.6908Z" fill="white"/>
<path fill-rule="evenodd" clip-rule="evenodd" d="M54.4152 19.1385C55.1185 19.1084 55.8256 19.0931 56.5361 19.0931C57.2467 19.0931 57.9538 19.1084 58.6571 19.1385L58.5286 22.1358C57.8681 22.1074 57.2038 22.0931 56.5361 22.0931C55.8684 22.0931 55.2042 22.1074 54.5437 22.1358L54.4152 19.1385ZM62.882 19.5031C64.294 19.687 65.6871 19.9314 67.0586 20.2336L66.4128 23.1633C65.1265 22.8798 63.8196 22.6505 62.4946 22.478L62.882 19.5031ZM46.0137 20.2336C47.3851 19.9314 48.7782 19.687 50.1903 19.5031L50.5777 22.478C49.2527 22.6505 47.9458 22.8798 46.6594 23.1633L46.0137 20.2336ZM37.9306 22.7768C39.2318 22.2378 40.5615 21.7537 41.917 21.3272L42.8173 24.1889C41.5461 24.5889 40.2991 25.0429 39.0787 25.5484L37.9306 22.7768ZM71.1553 21.3272C72.5107 21.7537 73.8405 22.2378 75.1417 22.7768L73.9935 25.5484C72.7732 25.0429 71.5261 24.5889 70.255 24.1889L71.1553 21.3272ZM78.9853 24.5705C80.2424 25.2257 81.4671 25.9342 82.6564 26.6931L81.0428 29.2221C79.9269 28.5102 78.7779 27.8454 77.5987 27.2308L78.9853 24.5705ZM30.4158 26.6931C31.6052 25.9342 32.8299 25.2257 34.087 24.5705L35.4736 27.2308C34.2944 27.8454 33.1454 28.5102 32.0295 29.2221L30.4158 26.6931ZM86.1281 29.1273C87.2502 29.9892 88.3335 30.8991 89.375 31.8538L87.3478 34.0653C86.3703 33.1692 85.3536 32.3153 84.3006 31.5063L86.1281 29.1273ZM23.6973 31.8539C24.7387 30.8991 25.822 29.9893 26.9441 29.1273L28.7717 31.5063C27.7187 32.3153 26.702 33.1692 25.7245 34.0653L23.6973 31.8539ZM92.3731 34.8519C93.3278 35.8934 94.2377 36.9767 95.0997 38.0988L92.7206 39.9264C91.9117 38.8733 91.0577 37.8566 90.1617 36.8792L92.3731 34.8519ZM17.9726 38.0988C18.8346 36.9767 19.7445 35.8934 20.6992 34.8519L22.9106 36.8792C22.0145 37.8566 21.1606 38.8733 20.3517 39.9264L17.9726 38.0988ZM97.5339 41.5705C98.2927 42.7599 99.0012 43.9846 99.6565 45.2417L96.9961 46.6283C96.3815 45.449 95.7168 44.3001 95.0048 43.1841L97.5339 41.5705ZM13.4158 45.2417C14.071 43.9846 14.7796 42.7599 15.5384 41.5705L18.0675 43.1841C17.3555 44.3001 16.6908 45.449 16.0762 46.6283L13.4158 45.2417ZM101.45 49.0853C101.989 50.3864 102.473 51.7162 102.9 53.0717L100.038 53.972C99.6381 52.7008 99.184 51.4537 98.6785 50.2334L101.45 49.0853ZM10.1726 53.0717C10.599 51.7162 11.0832 50.3864 11.6222 49.0853L14.3938 50.2334C13.8883 51.4537 13.4342 52.7008 13.0343 53.972L10.1726 53.0717ZM8.34842 61.345C8.53229 59.9329 8.7767 58.5398 9.07899 57.1684L12.0087 57.8141C11.7251 59.1004 11.4958 60.4073 11.3233 61.7324L8.34842 61.345ZM103.993 57.1684C104.296 58.5398 104.54 59.9329 104.724 61.345L101.749 61.7324C101.576 60.4073 101.347 59.1004 101.064 57.8141L103.993 57.1684ZM7.93848 67.6908C7.93848 66.9802 7.9537 66.2732 7.98386 65.5699L10.9811 65.6984C10.9528 66.3589 10.9385 67.0231 10.9385 67.6908C10.9385 68.388 10.9541 69.0816 10.985 69.7711L7.988 69.9054C7.9551 69.1712 7.93848 68.4329 7.93848 67.6908ZM105.088 65.5699C105.119 66.2732 105.134 66.9802 105.134 67.6908C105.134 68.3988 105.119 69.1031 105.089 69.8034L102.092 69.6758C102.12 69.018 102.134 68.3563 102.134 67.6908C102.134 67.0231 102.119 66.3589 102.091 65.6984L105.088 65.5699ZM104.728 74.0147C104.545 75.4235 104.302 76.8128 104.001 78.1803L101.071 77.536C101.353 76.2538 101.581 74.9508 101.752 73.6291L104.728 74.0147ZM9.18236 78.6766C8.853 77.2465 8.58643 75.7925 8.3858 74.3177L11.3584 73.9133C11.5467 75.2973 11.7968 76.6616 12.1058 78.0033L9.18236 78.6766ZM102.912 82.2667C102.487 83.6181 102.005 84.9439 101.468 86.2414L98.6959 85.0936C99.1997 83.877 99.652 82.6341 100.05 81.3672L102.912 82.2667ZM11.9482 87.0868C11.3631 85.737 10.8369 84.3552 10.3731 82.9449L13.2229 82.0077C13.658 83.3307 14.1517 84.6271 14.7007 85.8936L11.9482 87.0868ZM99.6797 90.0734C99.0271 91.326 98.3211 92.5471 97.5648 93.7339L95.0349 92.1217C95.7447 91.0078 96.407 89.8621 97.0192 88.6872L99.6797 90.0734ZM16.1929 94.855C15.3718 93.6313 14.6043 92.3676 13.8939 91.0676L16.5265 89.629C17.1931 90.849 17.9135 92.0349 18.6841 93.1835L16.1929 94.855ZM95.1421 97.1968C94.7138 97.7561 94.2736 98.3062 93.8218 98.8467L92.6709 97.8848L93.8227 98.8457C93.8224 98.846 93.8221 98.8464 93.8218 98.8467M20.2607 100.107C19.77 99.5552 19.2915 98.9922 18.8257 98.4183L21.1552 96.5279C21.5917 97.0657 22.04 97.5933 22.4997 98.1101C22.9262 98.5848 23.3623 99.0506 23.8078 99.5071L21.6608 101.602C21.1855 101.115 20.7202 100.618 20.2653 100.112L20.2607 100.107ZM89.4225 103.467C88.3792 104.428 87.2937 105.344 86.169 106.211L84.3371 103.836C85.3924 103.022 86.4109 102.163 87.3899 101.261L89.4225 103.467ZM27.8246 106.949C26.7243 106.144 25.659 105.295 24.6313 104.404L26.5971 102.137C27.562 102.974 28.5621 103.772 29.5949 104.527L27.8246 106.949ZM82.6876 108.66C81.4947 109.423 80.266 110.135 79.0044 110.794L77.6161 108.135C78.7994 107.517 79.9519 106.849 81.071 106.133L82.6876 108.66ZM34.7935 111.196C33.5719 110.586 32.3797 109.926 31.2195 109.218L32.781 106.657C33.8697 107.32 34.9881 107.94 36.1341 108.512L34.7935 111.196ZM75.1472 112.596C73.8417 113.137 72.5071 113.623 71.1464 114.051L70.2466 111.189C71.5227 110.787 72.7743 110.332 73.9987 109.824L75.1472 112.596ZM42.3788 114.213C41.0688 113.817 39.7824 113.367 38.5222 112.865L39.6312 110.078C40.8131 110.548 42.0194 110.97 43.2478 111.342L42.3788 114.213ZM67.0335 115.147C65.6572 115.45 64.2588 115.695 62.8411 115.879L62.4549 112.904C63.7856 112.731 65.0978 112.501 66.3889 112.217L67.0335 115.147ZM50.3635 115.908C49.0023 115.738 47.6589 115.511 46.3356 115.23L46.9582 112.295C48.1993 112.559 49.4595 112.771 50.7367 112.932L50.3635 115.908ZM58.6024 116.243C57.897 116.273 57.1878 116.288 56.4749 116.288C55.7908 116.288 55.11 116.274 54.4328 116.246L54.5566 113.249C55.1925 113.275 55.8321 113.288 56.4749 113.288C57.1451 113.288 57.8117 113.274 58.4744 113.246L58.6024 116.243Z" fill="#D6DCE8"/>
<path d="M73.8781 70.78C73.5226 72.2909 72.9893 73.8907 72.3671 75.2239C70.6785 78.5124 68.0121 81.0899 64.7236 82.7785C61.3462 84.4672 57.3467 85.1783 53.3471 84.2895C43.926 82.3342 37.8823 73.0908 39.8376 63.6697C41.7929 54.2485 50.9474 48.1159 60.3685 50.1601C63.7459 50.8712 66.6789 52.5599 69.1675 54.8707C73.3448 59.048 75.1224 65.0917 73.8781 70.78Z" fill="url(#paint0_linear_986_7)"/>
<path d="M62.4127 65.7137H58.4132V61.7142C58.4132 60.9142 57.791 60.2032 56.9023 60.2032C56.1024 60.2032 55.3913 60.8254 55.3913 61.7142V65.7137H51.3918C50.5919 65.7137 49.8809 66.3358 49.8809 67.2246C49.8809 68.1134 50.503 68.7356 51.3918 68.7356H55.3913V72.7351C55.3913 73.535 56.0135 74.246 56.9023 74.246C57.7022 74.246 58.4132 73.6239 58.4132 72.7351V68.7356H62.4127C63.2126 68.7356 63.9237 68.1134 63.9237 67.2246C63.9237 66.3358 63.2126 65.7137 62.4127 65.7137Z" fill="white"/>
<path d="M77.3516 20.6135C77.3516 26.1681 75.1318 31.1054 71.6787 34.8085C71.4321 35.1788 71.0621 35.4256 70.6921 35.6725C66.9924 39.1287 62.0594 41.2271 56.6332 41.2271C52.3169 41.2271 48.2472 39.8693 44.9174 37.524C43.9308 36.9069 43.0675 36.0428 42.2043 35.3022C38.3812 31.5992 36.0381 26.4149 36.0381 20.6135C36.0381 9.25757 45.2874 0 56.6332 0C68.1023 0 77.3516 9.25757 77.3516 20.6135Z" fill="#E9F0F8"/>
<path d="M77.3516 20.6124C77.3516 26.6607 74.7618 31.9684 70.6921 35.7948C66.9924 39.251 62.0594 41.3494 56.6332 41.3494C52.3169 41.3494 48.2472 39.9916 44.9174 37.6463C39.4912 33.9433 36.0381 27.7716 36.0381 20.7358C36.0381 9.37988 45.2874 0.122314 56.6332 0.122314C67.979 0.122314 77.3516 9.25645 77.3516 20.6124Z" fill="#F1F3F9"/>
<path d="M71.679 34.8085C71.4324 35.1788 71.0624 35.4257 70.6924 35.6726C66.9927 39.1287 62.0597 41.2271 56.6335 41.2271C52.3172 41.2271 48.2475 39.8693 44.9177 37.5241C43.9311 36.9069 43.0679 36.0429 42.2046 35.3023C42.6979 34.6851 43.4378 34.3148 45.041 33.6976L45.6577 33.4507C46.8909 32.957 48.6174 32.3398 50.8373 31.3524C51.2072 31.2289 51.4539 30.9821 51.7005 30.7352C51.8239 30.6118 51.9472 30.4883 51.9472 30.2415C52.0705 29.9946 52.1938 29.6243 52.1938 29.3774V25.1806C52.0705 25.0572 52.0705 25.0572 51.9472 24.9338C51.5772 24.44 51.3306 23.8229 51.3306 23.0823L51.0839 22.9588C49.974 23.2057 50.0973 22.0948 49.8507 19.873C49.7274 19.0089 49.8507 18.7621 50.344 18.6386L50.7139 18.1449C49.974 16.4168 49.604 14.8122 49.604 13.5778C49.604 11.4794 50.4673 10.1217 51.7005 9.50449C50.9606 8.02328 50.9606 7.52954 50.9606 7.52954C50.9606 7.52954 55.2769 8.27015 56.7568 8.02328C58.6067 7.65298 61.5664 8.14671 62.6764 10.6154C64.5262 11.356 65.1428 12.4669 65.3895 13.7013C65.6361 15.6762 64.5262 17.7746 64.2796 18.6386V18.7621C64.5262 18.8855 64.6495 19.1324 64.5262 19.9964C64.2796 22.0948 64.2796 23.3291 63.293 23.0823L62.3064 24.8103C62.3064 25.0572 62.3064 25.0572 62.1831 25.1806C62.1831 25.5509 62.1831 26.1681 62.1831 29.5008C62.1831 29.8711 62.3064 30.3649 62.553 30.6117C62.6764 30.7352 62.6764 30.8586 62.7997 30.8586C63.0463 31.1055 63.293 31.3524 63.5396 31.3524C66.0061 32.3398 67.7326 33.0804 69.0892 33.5742C70.3224 34.0679 71.1857 34.4382 71.679 34.8085Z" fill="white"/>
<path d="M71.679 34.8084C71.4324 35.1787 71.0624 35.4256 70.6924 35.6725C66.9927 39.1286 62.0597 41.227 56.6335 41.227C52.3172 41.227 48.2475 39.8692 44.9177 37.524C43.9311 36.9068 43.0679 36.0428 42.2046 35.3022C42.6979 34.685 43.4378 34.3147 45.041 33.6975L45.6577 33.4507C46.8909 32.9569 48.6174 32.3398 50.8373 31.3523C51.2072 31.2288 51.4539 30.982 51.7005 30.7351C52.9338 32.4632 54.907 33.5741 57.2501 33.5741C59.4699 33.5741 61.4431 32.4632 62.6764 30.8585C62.923 31.1054 63.1697 31.3523 63.4163 31.3523C65.8828 32.3398 67.6093 33.0804 68.9659 33.5741C70.3224 34.0678 71.1857 34.4381 71.679 34.8084Z" fill="#D6DCE8"/>
<path d="M64.1564 18.5152C64.2797 18.0215 64.0331 17.2808 63.7864 16.9105C63.7864 16.7871 63.6631 16.7871 63.6631 16.6637C62.7999 14.9356 60.95 14.3184 59.2235 14.195C54.6605 13.9481 54.2905 14.8122 52.9339 13.5778C53.4272 14.195 53.4272 15.3059 52.6873 16.5402C52.194 17.4043 51.3307 17.898 50.4675 18.1449C48.371 13.4544 49.4809 10.492 51.454 9.50449C50.7141 8.02328 50.7141 7.52954 50.7141 7.52954C50.7141 7.52954 55.0304 8.27015 56.5103 8.02328C58.3602 7.65298 61.32 8.14671 62.4299 10.6154C64.2797 11.356 64.8964 12.4669 65.143 13.7013C65.513 15.5528 64.4031 17.6512 64.1564 18.5152Z" fill="#AAB2C5"/>
<path d="M52.317 29.3773V25.1805C52.1936 25.0571 52.1936 25.0571 52.0703 24.9336V24.6868C52.317 25.0571 52.5636 25.4274 52.9336 25.6742L56.2633 28.0195C57.0033 28.6367 58.1132 28.6367 58.8531 28.0195L61.9362 25.3039C62.0596 25.1805 62.1829 25.1805 62.3062 25.0571C62.3062 25.4274 62.3062 26.0445 62.3062 29.3773C62.3062 29.6241 62.3062 29.7476 62.4295 29.9944H52.317C52.1936 29.7476 52.317 29.6241 52.317 29.3773Z" fill="url(#paint1_linear_986_7)"/>
<path d="M114.285 96.8155C114.285 102.37 112.065 107.307 108.612 111.01C108.365 111.381 107.995 111.628 107.625 111.874C103.925 115.331 98.9925 117.429 93.5663 117.429C89.25 117.429 85.1803 116.071 81.8505 113.726C80.8639 113.109 80.0007 112.245 79.1374 111.504C75.3143 107.801 72.9712 102.617 72.9712 96.8155C72.9712 85.4595 82.2205 76.2019 93.5663 76.2019C105.035 76.2019 114.285 85.4595 114.285 96.8155Z" fill="#E9F0F8"/>
<path d="M114.285 96.8143C114.285 102.863 111.695 108.17 107.625 111.997C103.925 115.453 98.9925 117.551 93.5663 117.551C89.25 117.551 85.1803 116.194 81.8505 113.848C76.4243 110.145 72.9712 103.974 72.9712 96.9378C72.9712 85.5818 82.2205 76.3242 93.5663 76.3242C104.912 76.3242 114.285 85.4584 114.285 96.8143Z" fill="#F1F3F9"/>
<path d="M108.613 111.01C108.366 111.381 107.996 111.628 107.626 111.874C103.927 115.331 98.9938 117.429 93.5676 117.429C89.2512 117.429 85.1815 116.071 81.8518 113.726C80.8652 113.109 80.0019 112.245 79.1387 111.504C79.632 110.887 80.3719 110.517 81.9751 109.9L82.5917 109.653C83.825 109.159 85.5515 108.542 87.7713 107.554C88.1413 107.431 88.388 107.184 88.6346 106.937C88.7579 106.814 88.8813 106.69 88.8813 106.443C89.0046 106.197 89.1279 105.826 89.1279 105.579V101.383C89.0046 101.259 89.0046 101.259 88.8813 101.136C88.5113 100.642 88.2646 100.025 88.2646 99.2842L88.018 99.1608C86.9081 99.4076 87.0314 98.2967 86.7848 96.0749C86.6614 95.2109 86.7848 94.964 87.278 94.8406L87.648 94.3468C86.9081 92.6187 86.5381 91.0141 86.5381 89.7798C86.5381 87.6814 87.4014 86.3236 88.6346 85.7064C87.8947 84.2252 87.8947 83.7315 87.8947 83.7315C87.8947 83.7315 92.211 84.4721 93.6909 84.2252C95.5408 83.8549 98.5005 84.3486 99.6104 86.8173C101.46 87.5579 102.077 88.6688 102.324 89.9032C102.57 91.8781 101.46 93.9765 101.214 94.8406V94.964C101.46 95.0874 101.584 95.3343 101.46 96.1983C101.214 98.2967 101.214 99.5311 100.227 99.2842L99.2405 101.012C99.2405 101.259 99.2405 101.259 99.1171 101.383C99.1171 101.753 99.1171 102.37 99.1171 105.703C99.1171 106.073 99.2405 106.567 99.4871 106.814C99.6104 106.937 99.6104 107.061 99.7338 107.061C99.9804 107.307 100.227 107.554 100.474 107.554C102.94 108.542 104.667 109.282 106.023 109.776C107.257 110.27 108.12 110.64 108.613 111.01Z" fill="white"/>
<path d="M108.612 111.01C108.365 111.381 107.995 111.628 107.626 111.874C103.926 115.331 98.9928 117.429 93.5666 117.429C89.2503 117.429 85.1806 116.071 81.8508 113.726C80.8642 113.109 80.001 112.245 79.1377 111.504C79.631 110.887 80.3709 110.517 81.9741 109.899L82.5908 109.653C83.824 109.159 85.5505 108.542 87.7704 107.554C88.1403 107.431 88.387 107.184 88.6336 106.937C89.8669 108.665 91.8401 109.776 94.1832 109.776C96.403 109.776 98.3762 108.665 99.6095 107.06C99.8561 107.307 100.103 107.554 100.349 107.554C102.816 108.542 104.542 109.282 105.899 109.776C107.256 110.27 108.119 110.64 108.612 111.01Z" fill="#D6DCE8"/>
<path d="M101.09 94.7171C101.213 94.2234 100.966 93.4828 100.72 93.1125C100.72 92.989 100.596 92.989 100.596 92.8656C99.733 91.1375 97.8831 90.5204 96.1566 90.3969C91.5936 90.1501 91.2236 91.0141 89.867 89.7798C90.3603 90.3969 90.3603 91.5078 89.6204 92.7422C89.1271 93.6062 88.2638 94.1 87.4006 94.3468C85.3041 89.6563 86.414 86.6939 88.3872 85.7064C87.6472 84.2252 87.6472 83.7315 87.6472 83.7315C87.6472 83.7315 91.9635 84.4721 93.4434 84.2252C95.2933 83.8549 98.2531 84.3486 99.363 86.8173C101.213 87.5579 101.829 88.6688 102.076 89.9032C102.446 91.7547 101.336 93.8531 101.09 94.7171Z" fill="#AAB2C5"/>
<path d="M89.2501 105.579V101.382C89.1267 101.259 89.1267 101.259 89.0034 101.136V100.889C89.2501 101.259 89.4967 101.629 89.8667 101.876L93.1964 104.221C93.9364 104.839 95.0463 104.839 95.7862 104.221L98.8693 101.506C98.9927 101.382 99.116 101.382 99.2393 101.259C99.2393 101.629 99.2393 102.246 99.2393 105.579C99.2393 105.826 99.2393 105.95 99.3626 106.196H89.2501C89.1267 105.95 89.2501 105.826 89.2501 105.579Z" fill="url(#paint2_linear_986_7)"/>
<path d="M40.2036 97.1248C40.2036 102.926 37.7371 108.11 33.7908 111.813C32.6808 112.801 31.5709 113.665 30.2144 114.406C27.2546 116.134 23.8015 117.121 20.1018 117.121C16.4021 117.121 12.949 116.134 9.98924 114.406C9.49594 114.159 9.12597 113.912 8.63268 113.542C3.45307 109.962 0 103.914 0 97.1248C0 86.0157 9.00265 77.1285 19.9785 77.1285C31.201 77.005 40.2036 86.0157 40.2036 97.1248Z" fill="#F1F3F9"/>
<path d="M16.0323 101.568C16.279 101.815 16.5256 102.185 16.8956 102.432C17.1422 102.679 17.3889 102.802 17.6355 103.049C17.7589 103.172 18.0055 103.296 18.1288 103.419C18.1288 103.419 18.2522 103.419 18.2522 103.543L18.3755 103.666V105.394C18.3755 105.394 18.3755 105.394 18.2522 105.271C18.1288 105.147 17.8822 105.024 17.7589 104.901C17.5122 104.777 17.2656 104.53 17.0189 104.407C16.8956 104.407 16.8956 104.283 16.7723 104.283C15.909 103.79 15.1691 103.296 15.1691 102.679C15.2924 102.432 15.539 102.062 16.0323 101.568ZM33.1878 111.115C32.4478 109.511 31.4478 107.986 29.7213 107.122C28.858 106.752 27.8714 106.382 26.8848 106.382C26.6382 106.382 26.2682 106.382 26.0216 106.382C25.8982 106.382 25.7749 106.382 25.6516 106.382C24.295 106.258 24.1717 106.011 24.1717 106.011V103.172C25.035 102.432 25.8982 101.568 26.6382 100.704C27.2548 99.8397 27.7481 98.8523 27.9947 97.6179C29.1047 97.3711 29.8446 96.3836 29.7213 95.1492C29.7213 94.6555 29.3513 94.1618 29.3513 93.668C29.3513 93.4212 29.3513 93.1743 29.3513 92.9274C29.3513 92.804 29.3513 92.5571 29.3513 92.4337C29.3513 92.3102 29.3513 92.0634 29.3513 91.9399C29.228 91.0759 28.9813 90.2119 28.488 89.2244C27.0082 86.5088 24.295 84.7808 21.0886 84.7808C20.472 84.7808 19.8554 84.9042 19.2387 85.0276C18.1288 85.2745 17.0189 85.7682 16.1556 86.5088C16.0323 86.6323 15.7857 86.7557 15.6624 87.0026L15.539 87.126C14.5524 88.1135 13.6892 89.2244 13.3192 90.5822C12.8259 91.9399 12.8259 93.2977 12.9492 94.6555C12.9492 94.6555 12.9492 94.6555 12.9492 94.7789V94.9024C12.9492 95.1492 13.0726 95.1492 12.9492 95.2727C12.9492 95.3961 12.8259 95.3961 12.8259 95.5195C12.5793 95.8898 12.4559 96.3836 12.7026 97.1242C13.1959 98.3585 13.9358 98.2351 14.7991 98.8523C14.7991 98.8523 14.6758 98.8523 14.6758 98.9757L13.8125 99.2226C9.86613 100.457 8.50957 103.79 10.2361 105.888C10.8527 106.629 11.8393 107.246 13.3192 107.616C12.9492 107.616 12.5793 107.863 12.3326 108.11C10.6061 109.468 9.49616 111.566 9.24951 113.541C9.24951 113.664 9.24951 113.788 9.24951 113.911C9.74281 114.158 10.1128 114.528 10.6061 114.775L29.9175 114.324C31.1507 113.583 31.6963 113.011 32.8062 112.024C32.6829 111.407 33.3111 111.239 33.1878 111.115Z" fill="white"/>
<path d="M33.7909 111.813C32.681 112.801 31.5711 113.665 30.2145 114.405C27.2547 116.133 23.8017 117.121 20.1019 117.121C16.4022 117.121 12.9491 116.133 9.98937 114.405C9.49608 114.158 9.12611 113.912 8.63281 113.541C8.63281 113.418 8.63281 113.294 8.63281 113.171C8.87946 111.196 9.98938 109.098 11.7159 107.74C11.9626 107.493 12.3325 107.37 12.7025 107.246C11.2226 106.999 10.236 106.382 9.6194 105.518H14.3057C15.6623 107.37 17.7588 108.48 20.2253 108.48C22.3218 108.48 24.1716 107.616 25.5282 106.259C25.6515 106.259 25.7748 106.259 25.8982 106.259C26.1448 106.259 26.3915 106.259 26.7614 106.259C27.748 106.259 28.7346 106.506 29.5979 106.999C31.3244 107.863 32.5577 109.345 33.4209 111.073C33.6676 111.319 33.6676 111.566 33.7909 111.813Z" fill="#D6DCE8"/>
<path d="M24.2953 103.173V105.765L16.5259 106.012L16.8958 104.284C17.0192 104.284 17.0192 104.407 17.1425 104.407C17.3891 104.531 17.6358 104.777 17.8824 104.901C18.0058 105.024 18.1291 105.148 18.3757 105.271C18.3757 105.271 18.4991 105.271 18.4991 105.395V103.667L18.3757 103.543C19.7323 104.284 21.5822 104.777 24.2953 103.173Z" fill="url(#paint3_linear_986_7)"/>
<path d="M29.351 92.4341C27.8711 92.9279 26.1446 93.1747 24.5414 93.0513C21.9516 92.8044 19.4851 91.8169 17.5119 90.0889C16.8953 91.9404 15.2921 93.2982 13.4422 94.1622C13.1956 94.2856 12.949 94.4091 12.7023 94.4091C12.7023 94.4091 12.7023 94.4091 12.7023 94.2856C12.579 92.9279 12.579 91.5701 13.0723 90.2123C13.4422 88.8545 14.3055 87.7436 15.2921 86.7561L15.4154 86.6327C15.5388 86.5093 15.7854 86.3858 15.9087 86.139C16.772 85.3984 17.8819 84.9046 18.9918 84.6578C19.6084 84.5343 20.2251 84.4109 20.8417 84.4109C24.0481 84.4109 26.8846 86.139 28.2411 88.8545C28.7344 89.842 28.9811 90.8295 29.1044 91.5701C29.351 92.0638 29.351 92.3107 29.351 92.4341Z" fill="#AAB2C5"/>
<path d="M19.4853 110.703C18.7453 111.567 17.5121 111.567 16.4022 111.567C17.5121 110.456 16.8955 106.876 12.9491 107.246C7.52286 106.259 8.01616 100.581 13.4424 98.8528L14.3057 98.606L14.429 98.7294C14.799 99.8403 15.4156 100.828 16.0322 101.568C13.8124 103.42 16.8955 103.914 18.3754 105.395C19.6086 106.135 20.7185 109.221 19.4853 110.703Z" fill="#AAB2C5"/>
<defs>
<linearGradient id="paint0_linear_986_7" x1="39.4543" y1="67.2243" x2="74.2743" y2="67.2243" gradientUnits="userSpaceOnUse">
<stop stop-color="#B0BACC"/>
<stop offset="1" stop-color="#969EAE"/>
</linearGradient>
<linearGradient id="paint1_linear_986_7" x1="57.2299" y1="29.8292" x2="57.2299" y2="27.049" gradientUnits="userSpaceOnUse">
<stop stop-color="white"/>
<stop offset="0.9913" stop-color="#D6DEEA"/>
</linearGradient>
<linearGradient id="paint2_linear_986_7" x1="94.163" y1="106.031" x2="94.163" y2="103.251" gradientUnits="userSpaceOnUse">
<stop stop-color="white"/>
<stop offset="0.9913" stop-color="#D6DEEA"/>
</linearGradient>
<linearGradient id="paint3_linear_986_7" x1="20.3956" y1="105.923" x2="20.3956" y2="104.436" gradientUnits="userSpaceOnUse">
<stop stop-color="white"/>
<stop offset="0.9913" stop-color="#D6DEEA"/>
</linearGradient>
</defs>
</svg>
