<svg width="36" height="36" viewBox="0 0 36 36" fill="none" xmlns="http://www.w3.org/2000/svg">
<mask id="path-1-inside-1_1900_962" fill="white">
<path d="M0 18C0 8.05888 8.05888 0 18 0C27.9411 0 36 8.05888 36 18C36 27.9411 27.9411 36 18 36C8.05888 36 0 27.9411 0 18Z"/>
</mask>
<path d="M0 18C0 8.05888 8.05888 0 18 0C27.9411 0 36 8.05888 36 18C36 27.9411 27.9411 36 18 36C8.05888 36 0 27.9411 0 18Z" fill="#F3F4F6"/>
<g clip-path="url(#paint0_angular_1900_962_clip_path)" data-figma-skip-parse="true" mask="url(#path-1-inside-1_1900_962)"><g transform="matrix(-0.01 -0.027 0.027 -0.01 20 18.5)"><foreignObject x="-951.749" y="-951.749" width="1903.5" height="1903.5"><div xmlns="http://www.w3.org/1999/xhtml" style="background:conic-gradient(from 90deg,rgba(107, 72, 217, 1) 0deg,rgba(80, 70, 213, 1) 15.5439deg,rgba(79, 70, 213, 1) 113.081deg,rgba(149, 88, 203, 1) 152.748deg,rgba(224, 83, 237, 1) 196.221deg,rgba(224, 83, 237, 1) 293.125deg,rgba(152, 76, 225, 1) 334.044deg,rgba(107, 72, 217, 1) 360deg);height:100%;width:100%;opacity:1"></div></foreignObject></g></g><path d="M18 36V34C9.16344 34 2 26.8366 2 18H0H-2C-2 29.0457 6.95431 38 18 38V36ZM36 18H34C34 26.8366 26.8366 34 18 34V36V38C29.0457 38 38 29.0457 38 18H36ZM18 0V2C26.8366 2 34 9.16344 34 18H36H38C38 6.95431 29.0457 -2 18 -2V0ZM18 0V-2C6.95431 -2 -2 6.95431 -2 18H0H2C2 9.16344 9.16344 2 18 2V0Z" data-figma-gradient-fill="{&#34;type&#34;:&#34;GRADIENT_ANGULAR&#34;,&#34;stops&#34;:[{&#34;color&#34;:{&#34;r&#34;:0.31372550129890442,&#34;g&#34;:0.27450981736183167,&#34;b&#34;:0.83529412746429443,&#34;a&#34;:1.0},&#34;position&#34;:0.043177500367164612},{&#34;color&#34;:{&#34;r&#34;:0.31280744075775146,&#34;g&#34;:0.27539864182472229,&#34;b&#34;:0.83653044700622559,&#34;a&#34;:1.0},&#34;position&#34;:0.31411352753639221},{&#34;color&#34;:{&#34;r&#34;:0.58750849962234497,&#34;g&#34;:0.34574118256568909,&#34;b&#34;:0.79905486106872559,&#34;a&#34;:1.0},&#34;position&#34;:0.42430126667022705},{&#34;color&#34;:{&#34;r&#34;:0.88170492649078369,&#34;g&#34;:0.32765489816665649,&#34;b&#34;:0.93207317590713501,&#34;a&#34;:1.0},&#34;position&#34;:0.54505771398544312},{&#34;color&#34;:{&#34;r&#34;:0.88170492649078369,&#34;g&#34;:0.32765489816665649,&#34;b&#34;:0.93207317590713501,&#34;a&#34;:1.0},&#34;position&#34;:0.81423717737197876},{&#34;color&#34;:{&#34;r&#34;:0.59971523284912109,&#34;g&#34;:0.30126950144767761,&#34;b&#34;:0.88402444124221802,&#34;a&#34;:1.0},&#34;position&#34;:0.92790114879608154}],&#34;stopsVar&#34;:[{&#34;color&#34;:{&#34;r&#34;:0.31372550129890442,&#34;g&#34;:0.27450981736183167,&#34;b&#34;:0.83529412746429443,&#34;a&#34;:1.0},&#34;position&#34;:0.043177500367164612},{&#34;color&#34;:{&#34;r&#34;:0.31280744075775146,&#34;g&#34;:0.27539864182472229,&#34;b&#34;:0.83653044700622559,&#34;a&#34;:1.0},&#34;position&#34;:0.31411352753639221},{&#34;color&#34;:{&#34;r&#34;:0.58750849962234497,&#34;g&#34;:0.34574118256568909,&#34;b&#34;:0.79905486106872559,&#34;a&#34;:1.0},&#34;position&#34;:0.42430126667022705},{&#34;color&#34;:{&#34;r&#34;:0.88170492649078369,&#34;g&#34;:0.32765489816665649,&#34;b&#34;:0.93207317590713501,&#34;a&#34;:1.0},&#34;position&#34;:0.54505771398544312},{&#34;color&#34;:{&#34;r&#34;:0.88170492649078369,&#34;g&#34;:0.32765489816665649,&#34;b&#34;:0.93207317590713501,&#34;a&#34;:1.0},&#34;position&#34;:0.81423717737197876},{&#34;color&#34;:{&#34;r&#34;:0.59971523284912109,&#34;g&#34;:0.30126950144767761,&#34;b&#34;:0.88402444124221802,&#34;a&#34;:1.0},&#34;position&#34;:0.92790114879608154}],&#34;transform&#34;:{&#34;m00&#34;:-19.999996185302734,&#34;m01&#34;:53.999992370605469,&#34;m02&#34;:3.0000002384185791,&#34;m10&#34;:-53.999992370605469,&#34;m11&#34;:-19.999996185302734,&#34;m12&#34;:55.499992370605469},&#34;opacity&#34;:1.0,&#34;blendMode&#34;:&#34;NORMAL&#34;,&#34;visible&#34;:true}" mask="url(#path-1-inside-1_1900_962)"/>
<path d="M15.3576 12.2712C14.6913 11.8611 13.8335 12.3405 13.8335 13.1228V22.877C13.8335 23.6593 14.6913 24.1387 15.3576 23.7287L23.2829 18.8516C23.9174 18.4611 23.9174 17.5387 23.2829 17.1483L15.3576 12.2712Z" fill="url(#paint1_linear_1900_962)"/>
<defs>
<clipPath id="paint0_angular_1900_962_clip_path"><path d="M18 36V34C9.16344 34 2 26.8366 2 18H0H-2C-2 29.0457 6.95431 38 18 38V36ZM36 18H34C34 26.8366 26.8366 34 18 34V36V38C29.0457 38 38 29.0457 38 18H36ZM18 0V2C26.8366 2 34 9.16344 34 18H36H38C38 6.95431 29.0457 -2 18 -2V0ZM18 0V-2C6.95431 -2 -2 6.95431 -2 18H0H2C2 9.16344 9.16344 2 18 2V0Z" mask="url(#path-1-inside-1_1900_962)"/></clipPath><linearGradient id="paint1_linear_1900_962" x1="5.70303" y1="4.70312" x2="28.2973" y2="27.2974" gradientUnits="userSpaceOnUse">
<stop offset="0.0670026" stop-color="#666666"/>
<stop offset="0.303816" stop-color="#746475"/>
<stop offset="0.454942" stop-color="#E154EE"/>
<stop offset="0.575699" stop-color="#9658CC"/>
<stop offset="0.685887" stop-color="#5046D5"/>
<stop offset="0.779647" stop-color="#61666D"/>
</linearGradient>
</defs>
</svg>
