<svg width="146" height="108" viewBox="0 0 146 108" fill="none" xmlns="http://www.w3.org/2000/svg">
<path d="M75.5151 107.3C105.081 107.3 129.05 83.3313 129.05 53.6602C129.05 23.9892 104.975 0.0200195 75.5151 0.0200195C45.9496 0.0200195 21.9805 23.9892 21.9805 53.6602C21.9805 83.3313 45.9496 107.3 75.5151 107.3Z" fill="#EAEEF9"/>
<path d="M135.846 36.6648C138.237 36.6648 140.175 34.7265 140.175 32.3356C140.175 29.9446 138.237 28.0063 135.846 28.0063C133.455 28.0063 131.517 29.9446 131.517 32.3356C131.517 34.7265 133.455 36.6648 135.846 36.6648Z" fill="#F1F3F9"/>
<path d="M142.181 19.7705C143.814 19.7705 145.138 18.4468 145.138 16.814C145.138 15.1811 143.814 13.8574 142.181 13.8574C140.548 13.8574 139.225 15.1811 139.225 16.814C139.225 18.4468 140.548 19.7705 142.181 19.7705Z" fill="#F1F3F9"/>
<path d="M24.4089 18.4981C26.0418 18.4981 27.3655 17.1744 27.3655 15.5415C27.3655 13.9087 26.0418 12.585 24.4089 12.585C22.7761 12.585 21.4524 13.9087 21.4524 15.5415C21.4524 17.1744 22.7761 18.4981 24.4089 18.4981Z" fill="#EAEEF9"/>
<path d="M6.35303 75.5176C9.38548 75.5176 11.8438 73.0593 11.8438 70.0269C11.8438 66.9944 9.38548 64.5361 6.35303 64.5361C3.32059 64.5361 0.862305 66.9944 0.862305 70.0269C0.862305 73.0593 3.32059 75.5176 6.35303 75.5176Z" fill="#EAEEF9"/>
<path d="M86.3885 68.2126V88.5243C86.3885 90.2905 85.3608 92.0567 83.8927 92.9399L68.3302 101.918C67.4493 102.507 66.2748 102.801 65.2471 102.801V77.4853L85.6544 65.7104C86.0949 66.4464 86.3885 67.3295 86.3885 68.2126Z" fill="#F2F5FE"/>
<path d="M65.2469 77.4853V102.801C64.2192 102.801 63.1915 102.507 62.1638 101.918L46.6013 92.9399C44.9864 92.0567 44.1055 90.4377 44.1055 88.5243V68.2126C44.1055 67.3295 44.3991 66.4464 44.8395 65.7104L65.2469 77.4853Z" fill="#D5DDEA"/>
<path d="M85.6544 65.7106L65.2471 77.4855L44.6929 65.5634C45.1333 64.8275 45.7206 64.0916 46.6015 63.65L62.6044 54.3773C64.0725 53.4942 65.9811 53.4942 67.5961 54.2301L84.0395 63.7972C84.0395 63.7972 84.0395 63.7972 84.1863 63.7972C84.7735 64.3859 85.3608 64.9747 85.6544 65.7106Z" fill="white"/>
<path d="M128.671 68.2126V88.5243C128.671 90.2905 127.644 92.0567 126.175 92.9399L110.613 101.918C109.732 102.507 108.557 102.801 107.53 102.801V77.4853L127.937 65.7104C128.378 66.4464 128.671 67.3295 128.671 68.2126Z" fill="#F2F5FE"/>
<path d="M107.53 77.4853V102.801C106.502 102.801 105.474 102.507 104.447 101.918L88.8843 92.9399C87.2693 92.0567 86.3884 90.4377 86.3884 88.5243V68.2126C86.3884 67.3295 86.6821 66.4464 87.1225 65.7104L107.53 77.4853Z" fill="#D5DDEA"/>
<path d="M127.937 65.7106L107.53 77.4855L86.9756 65.5634C87.416 64.8275 88.0033 64.0916 88.8842 63.65L104.887 54.3773C106.355 53.4942 108.264 53.4942 109.879 54.2301L126.322 63.7972C126.322 63.7972 126.322 63.7972 126.469 63.7972C127.056 64.3859 127.644 64.9747 127.937 65.7106Z" fill="white"/>
<path d="M65.1004 29.7976V50.1092C65.1004 51.8755 64.0727 53.6417 62.6046 54.5248L47.0421 63.5031C46.1612 64.0919 44.9867 64.3863 43.959 64.3863V39.0703L64.3664 27.2954C64.9536 28.0313 65.1004 28.9145 65.1004 29.7976Z" fill="#F2F5FE"/>
<path d="M43.9588 39.0703V64.3863C42.9311 64.3863 41.9034 64.0919 40.8757 63.5031L25.3132 54.5248C23.6983 53.6417 22.8174 52.0226 22.8174 50.1092V29.7976C22.8174 28.9145 23.111 28.0313 23.5515 27.2954L43.9588 39.0703Z" fill="#D5DDEA"/>
<path d="M64.5128 27.2951L44.1055 39.07L23.5513 27.1479C23.9917 26.412 24.579 25.676 25.4599 25.2345L41.4628 15.9618C42.9309 15.0787 44.8395 15.0787 46.4545 15.8146L62.7511 25.5289C62.7511 25.5289 62.751 25.5289 62.8979 25.5289C63.4851 25.9704 64.0724 26.5592 64.5128 27.2951Z" fill="white"/>
<path d="M110.173 29.3558V52.0225C110.173 54.0831 109.145 55.9965 107.236 57.0268L89.7652 67.1826C88.7375 67.7714 87.563 68.0657 86.3884 68.0657V39.6588L109.438 26.4121C109.879 27.2952 110.173 28.3255 110.173 29.3558Z" fill="#F2F5FE"/>
<path d="M86.3885 39.6586V57.6153V68.0655C85.2139 68.0655 84.0394 67.7711 83.0117 67.1823L75.3773 62.7668L65.3938 57.0265C63.632 55.9962 62.6043 54.0828 62.4575 52.1694V29.2084C62.4575 28.1781 62.7512 27.1478 63.1916 26.2646L86.3885 39.6586Z" fill="#D5DDEA"/>
<path d="M109.292 26.4121L86.2415 39.6588L63.1914 26.2649C63.6319 25.3818 64.3659 24.6459 65.2468 24.2043L83.1583 13.7541C84.9201 12.7238 86.9755 12.7238 88.7373 13.6069L107.236 24.3515C107.236 24.3515 107.383 24.3515 107.383 24.4987C108.264 25.0874 108.851 25.6762 109.292 26.4121Z" fill="white"/>
<path fill-rule="evenodd" clip-rule="evenodd" d="M109.069 11.7856C109.718 11.7856 110.245 12.3122 110.245 12.9618V20.0187C110.245 20.6683 109.718 21.1949 109.069 21.1949C108.419 21.1949 107.893 20.6683 107.893 20.0187V12.9618C107.893 12.3122 108.419 11.7856 109.069 11.7856Z" fill="#989FB0"/>
<path fill-rule="evenodd" clip-rule="evenodd" d="M124.799 12.1301C125.258 12.5895 125.258 13.3342 124.799 13.7935L116.173 22.4186C115.714 22.8779 114.969 22.8779 114.51 22.4186C114.051 21.9593 114.051 21.2146 114.51 20.7553L123.135 12.1301C123.594 11.6708 124.339 11.6708 124.799 12.1301Z" fill="#989FB0"/>
<path fill-rule="evenodd" clip-rule="evenodd" d="M114.95 28.6439C114.95 27.9944 115.476 27.4678 116.126 27.4678H123.967C124.616 27.4678 125.143 27.9944 125.143 28.6439C125.143 29.2935 124.616 29.8201 123.967 29.8201H116.126C115.476 29.8201 114.95 29.2935 114.95 28.6439Z" fill="#989FB0"/>
<path d="M97.8277 42.8042C97.5874 43.8224 97.2269 44.9004 96.8063 45.7988C95.6648 48.0148 93.8623 49.7517 91.6393 50.8897C89.3562 52.0276 86.6525 52.5068 83.9489 51.9078C77.5802 50.5902 73.4947 44.3614 74.8165 38.0128C76.1383 31.6642 82.3267 27.5316 88.6953 28.9092C90.9784 29.3883 92.9611 30.5262 94.6434 32.0834C97.4672 34.8984 98.6688 38.9711 97.8277 42.8042Z" fill="url(#paint0_linear_1557_48460)"/>
<path d="M90.0219 39.3934H87.342V36.7136C87.342 36.1776 86.9252 35.7012 86.3296 35.7012C85.7937 35.7012 85.3172 36.118 85.3172 36.7136V39.3934H82.6374C82.1014 39.3934 81.625 39.8103 81.625 40.4058C81.625 41.0013 82.0419 41.4182 82.6374 41.4182H85.3172V44.098C85.3172 44.634 85.7341 45.1104 86.3296 45.1104C86.8656 45.1104 87.342 44.6936 87.342 44.098V41.4182H90.0219C90.5578 41.4182 91.0343 41.0013 91.0343 40.4058C91.0343 39.8103 90.5578 39.3934 90.0219 39.3934Z" fill="white"/>
<defs>
<linearGradient id="paint0_linear_1557_48460" x1="74.5573" y1="40.4082" x2="98.0956" y2="40.4082" gradientUnits="userSpaceOnUse">
<stop stop-color="#B0BACC"/>
<stop offset="1" stop-color="#969EAE"/>
</linearGradient>
</defs>
</svg>
