<svg width="47" height="47" viewBox="0 0 47 47" fill="none" xmlns="http://www.w3.org/2000/svg">
<path d="M23.7755 0.21875C23.8248 0.21875 23.8741 0.28045 23.9481 0.391511C24.0097 0.490232 29.1985 6.72199 35.4841 14.2371C41.7698 21.7523 46.8969 27.9347 46.8723 27.9717C46.8599 28.0087 41.8561 32.118 35.7553 37.091C29.6545 42.0641 24.4657 46.2968 24.2316 46.4942C23.8248 46.8274 23.8002 46.8397 23.6523 46.6916C23.566 46.6053 18.3649 42.3479 12.0916 37.2268C5.81827 32.1056 0.703466 27.8853 0.728116 27.8236C0.752766 27.7619 5.90454 21.6042 12.2025 14.1261C18.5005 6.64795 23.6523 0.465552 23.6769 0.366831C23.7016 0.26811 23.7386 0.21875 23.7755 0.21875Z" fill="#00BEF2"/>
<path d="M22.9244 39.3743C22.2095 39.1151 21.3468 38.3747 20.9894 37.6837C20.5457 36.8322 20.5827 35.4995 21.0756 34.4382C21.4577 33.6485 21.4577 33.6238 21.2112 33.4387C21.0756 33.34 19.4364 32.4268 17.5877 31.4272C15.739 30.4277 14.1244 29.5515 14.0135 29.4898C13.8656 29.4035 13.6191 29.4898 13.1754 29.7737C11.7334 30.6868 10.2298 30.5881 9.04662 29.4898C8.1962 28.7001 7.94971 28.1448 7.94971 27.0095C7.94971 25.9112 8.17155 25.3436 8.87407 24.6402C9.82308 23.69 11.0925 23.3691 12.3127 23.7764C12.9782 23.9985 12.9906 23.9985 13.4096 23.6776C13.9026 23.3074 17.8589 19.6918 19.7692 17.8778L21.088 16.6191L20.6936 15.7923C19.8925 14.1264 20.2992 12.2754 21.7042 11.1648C22.4684 10.5601 23.0353 10.375 24.1322 10.375C26.6958 10.375 28.4829 13.0651 27.5215 15.4715C27.2627 16.1378 27.2627 16.1502 27.5092 16.5574C27.7187 16.9153 31.2806 21.222 33.1663 23.4185C33.4991 23.801 33.8688 24.1096 33.9921 24.1096C34.1153 24.1096 34.5344 23.9862 34.9287 23.8381C36.7651 23.11 38.7001 23.9245 39.4643 25.7508C39.9573 26.9231 39.5259 28.5026 38.4783 29.4528C37.7388 30.1192 37.1965 30.329 36.2105 30.329C35.5203 30.329 35.2615 30.2549 34.5344 29.86C33.9921 29.5639 33.573 29.4158 33.4005 29.4652C33.1047 29.5392 28.5568 32.6613 27.5462 33.4757C26.9299 33.9816 26.8806 34.1667 27.2011 34.9195C27.5092 35.6599 27.4722 36.8199 27.1271 37.5479C26.7451 38.3501 25.7961 39.1522 24.9703 39.399C24.1322 39.6334 23.6269 39.6334 22.9244 39.3743ZM23.1339 25.7755V18.7416L22.7395 18.1986C22.5177 17.9025 22.3081 17.6557 22.2712 17.6557C22.1109 17.6557 14.1491 24.8993 14.1491 25.0474C14.1491 25.0844 14.2723 25.4546 14.4202 25.8495C14.5681 26.2567 14.6791 26.8367 14.6667 27.1699C14.6544 27.5031 14.6544 27.8733 14.6544 27.9967C14.6667 28.2805 17.3289 29.9835 21.3221 32.2911C22.4191 32.9327 22.8011 33.0932 22.9367 32.9821C23.0969 32.8464 23.1339 31.4766 23.1339 25.7755ZM26.5109 31.9949C31.7859 28.6754 32.7719 28.009 32.8335 27.7622C32.8705 27.6141 32.9198 27.0342 32.9321 26.4542L32.9691 25.4176L30.2823 22.2215C27.3983 18.8033 26.3383 17.6433 26.0918 17.6433C26.0056 17.6433 25.5742 17.8901 25.1305 18.1863L24.3171 18.7293L24.3541 25.7508C24.391 32.0443 24.4403 33.1055 24.6745 33.1055C24.6991 33.1178 25.5372 32.6119 26.5109 31.9949Z" fill="white"/>
</svg>
