<svg width="142" height="154" viewBox="0 0 142 154" fill="none" xmlns="http://www.w3.org/2000/svg">
<path d="M77.7448 120.122C108.535 120.122 133.497 95.1605 133.497 64.2605C133.497 33.3606 108.425 8.39868 77.7448 8.39868C46.9548 8.39868 21.9929 33.3606 21.9929 64.2605C21.9929 95.1605 46.9548 120.122 77.7448 120.122Z" fill="#EAEEF9"/>
<path d="M129.428 27.7521C131.918 27.7521 133.937 25.7335 133.937 23.2435C133.937 20.7535 131.918 18.735 129.428 18.735C126.938 18.735 124.919 20.7535 124.919 23.2435C124.919 25.7335 126.938 27.7521 129.428 27.7521Z" fill="#EAEEF9"/>
<path d="M136.026 10.1581C137.726 10.1581 139.105 8.7796 139.105 7.07912C139.105 5.37864 137.726 4.00012 136.026 4.00012C134.325 4.00012 132.947 5.37864 132.947 7.07912C132.947 8.7796 134.325 10.1581 136.026 10.1581Z" fill="#EAEEF9"/>
<path d="M24.5221 27.6422C26.2226 27.6422 27.6011 26.2637 27.6011 24.5633C27.6011 22.8628 26.2226 21.4843 24.5221 21.4843C22.8216 21.4843 21.4431 22.8628 21.4431 24.5633C21.4431 26.2637 22.8216 27.6422 24.5221 27.6422Z" fill="#EAEEF9"/>
<path d="M5.71814 87.0233C8.87618 87.0233 11.4363 84.4632 11.4363 81.3052C11.4363 78.1471 8.87618 75.587 5.71814 75.587C2.5601 75.587 0 78.1471 0 81.3052C0 84.4632 2.5601 87.0233 5.71814 87.0233Z" fill="#EAEEF9"/>
<g filter="url(#filter0_d_567_19929)">
<path d="M119.214 102.423C109.027 113.487 94.4304 120.407 78.2185 120.407C65.2801 120.407 53.3708 115.999 43.9104 108.595V17.4245C43.9104 14.4087 46.3388 11.9478 49.3682 11.9478H103.514L119.214 27.7026V102.423Z" fill="url(#paint0_linear_567_19929)"/>
</g>
<path d="M65.9045 101.267H58.0196C57.7254 101.267 57.49 100.505 57.49 99.5898C57.49 98.6751 57.7254 97.9128 58.0196 97.9128H65.9045C66.1987 97.9128 66.4341 98.6751 66.4341 99.5898C66.4341 100.657 66.1987 101.267 65.9045 101.267Z" fill="#D5DDEA"/>
<path d="M83.2555 30.8323H58.5567C57.9823 30.8323 57.49 30.0583 57.49 29.1553C57.49 28.2523 57.9823 27.4783 58.5567 27.4783H83.2555C83.8298 27.4783 84.3222 28.2523 84.3222 29.1553C84.3222 30.0583 83.8298 30.8323 83.2555 30.8323Z" fill="#D6DCE8"/>
<path d="M64.65 38.6583H58.2115C57.823 38.6583 57.49 37.8843 57.49 36.9813C57.49 36.0783 57.823 35.3043 58.2115 35.3043H64.5945C64.983 35.3043 65.316 36.0783 65.316 36.9813C65.316 37.8843 64.983 38.6583 64.65 38.6583Z" fill="#D6DCE8"/>
<path d="M103.624 82.2606H73.0098H69.6357H59.4311C59.0196 82.2606 58.6082 82.9594 58.6082 83.9376C58.6082 84.7761 58.9373 85.6146 59.4311 85.6146H69.6357H73.0098H103.624C104.035 85.6146 104.446 84.9159 104.446 83.9376C104.364 82.9594 104.035 82.2606 103.624 82.2606Z" fill="#D6DCE8"/>
<path d="M103.622 73.3165H92.2449H88.3701H59.4326C59.0204 73.3165 58.6082 74.0152 58.6082 74.9935C58.6082 75.832 58.9379 76.6705 59.4326 76.6705H88.3701H92.2449H103.622C104.034 76.6705 104.446 75.9717 104.446 74.9935C104.364 74.0152 104.034 73.3165 103.622 73.3165Z" fill="#D6DCE8"/>
<path d="M104.796 65.4905H101.768H98.739H59.4495C59.0288 65.4905 58.6082 66.1892 58.6082 67.1675C58.6082 68.006 58.9447 68.8445 59.4495 68.8445H98.739H102.104H104.712C105.133 68.8445 105.554 68.1457 105.554 67.1675C105.638 66.329 105.217 65.4905 104.796 65.4905Z" fill="#D6DCE8"/>
<path d="M104.73 56.5464H94.9722H92.5535H59.4422C59.0252 56.5464 58.6082 57.2451 58.6082 58.2234C58.6082 59.0619 58.9418 59.9004 59.4422 59.9004H92.5535H94.9722H104.647C105.231 59.9004 105.564 59.2017 105.564 58.2234C105.564 57.3849 105.231 56.5464 104.73 56.5464Z" fill="#D6DCE8"/>
<path d="M103.04 12.3199V25.0748C103.04 26.7316 104.383 28.0748 106.04 28.0748H119.74" fill="#D5DDEA"/>
<path d="M49.3032 91.5302L43.4607 102.387L37.6182 91.5302V39.368V31.8163C37.6182 30.7547 38.4837 29.8861 39.5416 29.8861H47.3797C48.4376 29.8861 49.3032 30.7547 49.3032 31.8163V91.5302Z" fill="url(#paint1_linear_567_19929)"/>
<path fill-rule="evenodd" clip-rule="evenodd" d="M37.6182 37.8611H49.3032V39.8611H37.6182V37.8611Z" fill="#AAB2C5"/>
<path fill-rule="evenodd" clip-rule="evenodd" d="M37.6182 90.5297H49.3032V92.5297H37.6182V90.5297Z" fill="#AAB2C5"/>
<defs>
<filter id="filter0_d_567_19929" x="21.9104" y="0.947754" width="119.303" height="152.459" filterUnits="userSpaceOnUse" color-interpolation-filters="sRGB">
<feFlood flood-opacity="0" result="BackgroundImageFix"/>
<feColorMatrix in="SourceAlpha" type="matrix" values="0 0 0 0 0 0 0 0 0 0 0 0 0 0 0 0 0 0 127 0" result="hardAlpha"/>
<feOffset dy="11"/>
<feGaussianBlur stdDeviation="11"/>
<feColorMatrix type="matrix" values="0 0 0 0 0.397708 0 0 0 0 0.47749 0 0 0 0 0.575 0 0 0 0.27 0"/>
<feBlend mode="normal" in2="BackgroundImageFix" result="effect1_dropShadow_567_19929"/>
<feBlend mode="normal" in="SourceGraphic" in2="effect1_dropShadow_567_19929" result="shape"/>
</filter>
<linearGradient id="paint0_linear_567_19929" x1="81.5376" y1="9.43899" x2="81.5376" y2="121.576" gradientUnits="userSpaceOnUse">
<stop stop-color="#FDFEFF"/>
<stop offset="0.9964" stop-color="#ECF0F5"/>
</linearGradient>
<linearGradient id="paint1_linear_567_19929" x1="43" y1="30" x2="43" y2="91.5" gradientUnits="userSpaceOnUse">
<stop stop-color="#B0BACC"/>
<stop offset="1" stop-color="#969EAE"/>
</linearGradient>
</defs>
</svg>
