<svg width="82" height="57" viewBox="0 0 82 57" fill="none" xmlns="http://www.w3.org/2000/svg">
<path d="M64.1879 12.903H23.9302C23.1463 12.903 22.5107 13.5372 22.5107 14.3196V43.6966C22.5107 44.4789 23.1463 45.1131 23.9302 45.1131H64.1879C64.9719 45.1131 65.6074 44.4789 65.6074 43.6966V14.3196C65.6074 13.5372 64.9719 12.903 64.1879 12.903Z" fill="#0A090F"/>
<path d="M63.3739 17.3273H24.7448C24.0988 17.3273 23.5752 17.8499 23.5752 18.4945V42.7076C23.5752 43.3522 24.0988 43.8747 24.7448 43.8747H63.3739C64.0198 43.8747 64.5435 43.3522 64.5435 42.7076V18.4945C64.5435 17.8499 64.0198 17.3273 63.3739 17.3273Z" fill="white"/>
<path fill-rule="evenodd" clip-rule="evenodd" d="M23.6242 12.903H64.4939C64.789 12.9039 65.0717 13.0213 65.2803 13.2295C65.4889 13.4377 65.6065 13.7198 65.6074 14.0142V15.1254H22.5107V14.0142C22.5116 13.7198 22.6292 13.4377 22.8379 13.2295C23.0465 13.0213 23.3292 12.9039 23.6242 12.903Z" fill="#070838"/>
<path d="M25.1426 15.7649C25.4938 15.7649 25.7784 15.4808 25.7784 15.1304C25.7784 14.78 25.4938 14.496 25.1426 14.496C24.7915 14.496 24.5068 14.78 24.5068 15.1304C24.5068 15.4808 24.7915 15.7649 25.1426 15.7649Z" fill="#FF5722"/>
<path d="M27.0772 15.7649C27.4283 15.7649 27.713 15.4808 27.713 15.1304C27.713 14.78 27.4283 14.496 27.0772 14.496C26.7261 14.496 26.4414 14.78 26.4414 15.1304C26.4414 15.4808 26.7261 15.7649 27.0772 15.7649Z" fill="#FDD501"/>
<path d="M29.0137 15.7649C29.3649 15.7649 29.6495 15.4808 29.6495 15.1304C29.6495 14.78 29.3649 14.496 29.0137 14.496C28.6626 14.496 28.3779 14.78 28.3779 15.1304C28.3779 15.4808 28.6626 15.7649 29.0137 15.7649Z" fill="#55B459"/>
<path d="M61.1726 19.0967H49.5327C48.6107 19.0967 47.8633 19.8426 47.8633 20.7626V31.143C47.8633 32.0631 48.6107 32.8089 49.5327 32.8089H61.1726C62.0946 32.8089 62.842 32.0631 62.842 31.143V20.7626C62.842 19.8426 62.0946 19.0967 61.1726 19.0967Z" stroke="#070838" stroke-width="0.5" stroke-linejoin="round" stroke-dasharray="2.31 3.47"/>
<path d="M61.9254 34.8141H26.2186C25.6966 34.8141 25.2734 35.2364 25.2734 35.7573V41.6304C25.2734 42.1513 25.6966 42.5736 26.2186 42.5736H61.9254C62.4475 42.5736 62.8706 42.1513 62.8706 41.6304V35.7573C62.8706 35.2364 62.4475 34.8141 61.9254 34.8141Z" stroke="#070838" stroke-width="0.5" stroke-linecap="round" stroke-linejoin="round" stroke-dasharray="10.28 15.42"/>
<path d="M44.0907 19.0967H26.9411C26.0201 19.0967 25.2734 19.8418 25.2734 20.7609V31.1329C25.2734 32.052 26.0201 32.7971 26.9411 32.7971H44.0907C45.0118 32.7971 45.7584 32.052 45.7584 31.1329V20.7609C45.7584 19.8418 45.0118 19.0967 44.0907 19.0967Z" stroke="#070838" stroke-width="0.5" stroke-linejoin="round" stroke-dasharray="3.17 4.75"/>
<path fill-rule="evenodd" clip-rule="evenodd" d="M35.5161 27.606C35.8449 27.606 36.1664 27.5087 36.4398 27.3264C36.7132 27.1441 36.9263 26.885 37.0522 26.5818C37.178 26.2786 37.2109 25.945 37.1468 25.6232C37.0826 25.3014 36.9243 25.0058 36.6918 24.7737C36.4592 24.5417 36.163 24.3837 35.8405 24.3197C35.518 24.2556 35.1837 24.2885 34.8799 24.4141C34.5761 24.5396 34.3164 24.7523 34.1337 25.0251C33.951 25.298 33.8535 25.6187 33.8535 25.9469C33.8544 26.3866 34.0299 26.8081 34.3415 27.1191C34.6531 27.43 35.0754 27.6051 35.5161 27.606Z" fill="#014A84"/>
<path fill-rule="evenodd" clip-rule="evenodd" d="M34.4736 25.7959H35.3644V24.9053H35.667V25.7959H36.5595V26.0979H35.667V26.9885H35.3644V26.0979H34.4736V25.7959Z" fill="white"/>
<path fill-rule="evenodd" clip-rule="evenodd" d="M31.6132 37.0941L47.4232 36.1645C47.8308 36.1413 48.231 36.2801 48.5362 36.5507C48.8414 36.8213 49.0268 37.2015 49.0518 37.6081L49.6162 47.1692C49.639 47.5758 49.4996 47.9749 49.2286 48.2794C48.9575 48.5839 48.5768 48.769 48.1695 48.7944L32.3595 49.724C31.952 49.7468 31.552 49.6077 31.2469 49.3372C30.9418 49.0668 30.7563 48.6868 30.7309 48.2804L30.1665 38.7193C30.1437 38.3127 30.283 37.9135 30.5541 37.6091C30.8251 37.3046 31.2058 37.1195 31.6132 37.0941Z" fill="#FF5722"/>
<path fill-rule="evenodd" clip-rule="evenodd" d="M37.4762 44.4227L38.5863 47.8579L37.7074 42.1495C37.8417 40.2003 40.2013 40.4225 40.5787 41.6778L41.852 47.4796L41.172 41.5727C40.985 40.453 43.5282 39.4046 44.232 41.3793L45.0922 48.9453L48.0213 48.7961L45.6498 53.5359L45.6396 56.9287L35.9122 56.9661L35.8663 50.2228L34.6508 45.5135C34.0694 43.1028 37.0648 43.0316 37.4762 44.4227Z" fill="#FCCD57"/>
<path d="M45.2211 49.5595L44.2487 41.5438C44.0243 39.6862 40.9779 39.9679 41.1887 41.7729L41.9435 48.0276L40.6192 41.8729C40.2214 40.0238 37.4521 40.4836 37.7462 42.3819L38.6931 48.4687L37.5456 44.6313C36.9795 42.7381 34.1456 43.4167 34.6097 45.2387L35.866 50.2143L36.002 56.9881M45.6036 56.257L45.6359 53.5715L48.0159 48.8215" stroke="#0A0910" stroke-width="0.5" stroke-linecap="round" stroke-linejoin="round"/>
<path d="M35.8039 44.0461C36.0413 43.9839 36.2937 44.0181 36.5058 44.1411C36.718 44.2642 36.8727 44.466 36.9361 44.7026L37.2336 45.8188C37.2415 45.849 37.2371 45.881 37.2215 45.9079C37.206 45.9349 37.1804 45.9547 37.1503 45.963L35.5948 46.3753C35.579 46.3796 35.5624 46.3808 35.5461 46.3787C35.5298 46.3766 35.5141 46.3713 35.4999 46.3631C35.4856 46.3549 35.4732 46.3439 35.4632 46.3309C35.4532 46.3178 35.446 46.3029 35.4418 46.287L35.146 45.1776C35.0833 44.9405 35.1173 44.6882 35.2406 44.4761C35.3639 44.264 35.5665 44.1093 35.8039 44.0461ZM38.9608 41.1655C39.2024 41.123 39.451 41.1777 39.6524 41.3175C39.8537 41.4574 39.9913 41.6711 40.0352 41.912L40.2392 43.0486C40.2447 43.0794 40.2378 43.1111 40.2199 43.1368C40.2021 43.1625 40.1748 43.1802 40.144 43.186L38.5613 43.4693C38.5453 43.4722 38.5288 43.4719 38.5128 43.4685C38.4968 43.465 38.4817 43.4585 38.4682 43.4492C38.4548 43.4399 38.4434 43.428 38.4345 43.4143C38.4257 43.4006 38.4197 43.3852 38.4168 43.3692L38.2128 42.2394C38.1697 41.998 38.2243 41.7495 38.3645 41.5482C38.5047 41.3469 38.7191 41.2093 38.9608 41.1655ZM42.6158 40.8839C42.8607 40.869 43.1016 40.9515 43.2857 41.1133C43.4698 41.2751 43.5823 41.5031 43.5984 41.7474L43.6715 42.8993C43.6734 42.9305 43.6628 42.9612 43.6422 42.9847C43.6215 43.0082 43.5923 43.0226 43.561 43.0248L41.9562 43.1266C41.9399 43.1277 41.9236 43.1257 41.9081 43.1205C41.8926 43.1153 41.8782 43.1071 41.8659 43.0964C41.8536 43.0857 41.8435 43.0727 41.8363 43.058C41.829 43.0434 41.8247 43.0275 41.8236 43.0112L41.7505 41.8645C41.7356 41.6201 41.8183 41.3797 41.9804 41.196C42.1426 41.0123 42.371 40.9001 42.6158 40.8839Z" stroke="#0A0910" stroke-width="0.3" stroke-miterlimit="22.93"/>
<path fill-rule="evenodd" clip-rule="evenodd" d="M57.7656 11.5357L68.2223 13.9769C68.6194 14.0705 68.9632 14.3172 69.1786 14.6631C69.3939 15.0089 69.4633 15.4258 69.3715 15.8226L67.1853 25.153C67.0904 25.5487 66.8424 25.8908 66.4955 26.1048C66.1487 26.3187 65.7311 26.3869 65.334 26.2946L54.8773 23.8535C54.4801 23.7599 54.1363 23.5132 53.921 23.1673C53.7056 22.8214 53.6362 22.4045 53.7281 22.0078L55.9143 12.6774C56.0092 12.2817 56.2571 11.9395 56.604 11.7256C56.9509 11.5117 57.3684 11.4434 57.7656 11.5357Z" fill="#0A090F"/>
<path d="M62.7861 19.0628C62.6486 18.8597 62.5973 18.6106 62.6435 18.3699C62.6897 18.1292 62.8297 17.9165 63.0326 17.7786L63.9897 17.1305C64.0029 17.1211 64.0178 17.1144 64.0336 17.1108C64.0494 17.1073 64.0658 17.1071 64.0817 17.1101C64.0976 17.1131 64.1127 17.1193 64.1262 17.1284C64.1396 17.1374 64.151 17.1491 64.1597 17.1628L65.0641 18.4911C65.0819 18.518 65.0885 18.5508 65.0825 18.5824C65.0765 18.6141 65.0583 18.6422 65.0318 18.6607L64.0798 19.3054C63.979 19.3745 63.8655 19.4231 63.7459 19.4484C63.6262 19.4736 63.5027 19.475 63.3824 19.4525C63.2622 19.4299 63.1476 19.3839 63.0453 19.317C62.943 19.2501 62.8549 19.1637 62.7861 19.0628ZM61.0402 15.8514C60.927 15.6342 60.9046 15.3811 60.9779 15.1475C61.0512 14.9138 61.2142 14.7186 61.4312 14.6045L62.4512 14.0702C62.479 14.0558 62.5113 14.0528 62.5413 14.062C62.5712 14.0712 62.5962 14.0918 62.611 14.1194L63.3573 15.5427C63.3653 15.5572 63.3702 15.5732 63.3719 15.5897C63.3735 15.6062 63.3718 15.6228 63.3669 15.6386C63.362 15.6544 63.3539 15.6691 63.3433 15.6818C63.3326 15.6944 63.3194 15.7048 63.3046 15.7123L62.2846 16.245C62.0671 16.3561 61.8144 16.3771 61.5814 16.3034C61.3484 16.2297 61.154 16.0673 61.0402 15.8514Z" stroke="#0A0910" stroke-width="0.71" stroke-miterlimit="22.93"/>
<path fill-rule="evenodd" clip-rule="evenodd" d="M57.5807 10.277L68.0306 12.7232C68.4277 12.8168 68.7715 13.0635 68.9869 13.4094C69.2022 13.7553 69.2716 14.1722 69.1798 14.5689L66.9936 23.8993C66.8975 24.2945 66.6489 24.6359 66.3019 24.8491C65.9548 25.0623 65.5374 25.13 65.1406 25.0376L54.6924 22.5964C54.2955 22.5024 53.9519 22.2556 53.7366 21.9099C53.5214 21.5641 53.4518 21.1474 53.5432 20.7507L55.7294 11.4204C55.8243 11.0246 56.0722 10.6823 56.419 10.4681C56.7658 10.2539 57.1833 10.1852 57.5807 10.277Z" fill="white" stroke="#0A090F" stroke-width="0.5" stroke-miterlimit="22.93"/>
<path fill-rule="evenodd" clip-rule="evenodd" d="M67.8041 21.9603C65.6298 21.2342 65.5601 17.994 67.4641 17.7514C63.9808 16.3943 65.3357 12.92 69.3188 13.831C69.3698 12.5366 71.199 11.6036 72.5386 12.4484L79.0207 16.5351L81.7849 18.4911L81.5146 33.859L72.3006 26.9342C71.1378 26.2794 69.6588 26.5949 68.1441 26.0453C65.9528 24.7119 66.5359 22.744 67.8041 21.9603Z" fill="#FCCD57"/>
<path d="M79.0596 16.4961L72.2698 12.3534C71.3977 11.8207 69.3441 12.4246 69.3611 13.8632M71.124 18.1755C70.0581 17.8634 69.0687 17.7989 67.9858 17.7311C65.1995 17.5614 65.4579 21.9721 68.6658 22.0061M71.4657 22.4336C70.8129 22.2843 69.0857 21.9026 68.1014 22.0027C66.3283 22.1825 65.616 26.0605 69.6229 26.393C70.563 26.4711 71.6476 26.4745 72.4517 27.0716L81.3376 33.6571M81.5076 18.3469L79.1157 16.5266C74.9847 14.803 71.4657 14.2619 69.3696 13.8785C63.7307 12.8487 65.1978 18.0262 67.9467 17.7209" stroke="#0A0910" stroke-width="0.5" stroke-miterlimit="22.93"/>
<path fill-rule="evenodd" clip-rule="evenodd" d="M58.6546 19.1917L62.4541 20.0789C62.8148 20.1644 63.127 20.3888 63.3225 20.7031C63.5181 21.0174 63.5811 21.3962 63.4979 21.7567C63.4122 22.1166 63.1874 22.4281 62.8724 22.6233C62.5574 22.8184 62.1779 22.8813 61.8166 22.7983L58.0171 21.9111C57.6564 21.8256 57.3443 21.6012 57.1487 21.2869C56.9532 20.9725 56.8901 20.5938 56.9733 20.2333C57.059 19.8734 57.2839 19.5618 57.5989 19.3667C57.9138 19.1716 58.2933 19.1087 58.6546 19.1917Z" fill="#FF5722"/>
<path fill-rule="evenodd" clip-rule="evenodd" d="M58.1699 21.297L58.5099 19.8296L59.0454 19.9551C59.1357 19.9723 59.2214 20.0081 59.297 20.0603C59.3547 20.1026 59.3975 20.1619 59.4194 20.2299C59.4421 20.2966 59.4457 20.3683 59.4296 20.4369C59.4159 20.5007 59.3847 20.5594 59.3395 20.6065C59.2903 20.6564 59.2277 20.6911 59.1593 20.7066C59.2346 20.7459 59.2944 20.8092 59.3293 20.8864C59.3608 20.9616 59.3668 21.045 59.3463 21.1239C59.3314 21.1902 59.3018 21.2522 59.2596 21.3055C59.2236 21.3528 59.1771 21.3912 59.1236 21.4174C59.0698 21.4403 59.0121 21.4524 58.9536 21.453C58.8739 21.4534 58.7946 21.4437 58.7173 21.4242L58.1733 21.297H58.1699ZM58.5575 20.4912L58.8652 20.5624C58.925 20.5792 58.9867 20.5878 59.0488 20.5879C59.0949 20.5867 59.1393 20.5699 59.1746 20.5404C59.2089 20.5082 59.2321 20.466 59.2409 20.4199C59.254 20.375 59.254 20.3274 59.2409 20.2825C59.2284 20.24 59.1997 20.2041 59.161 20.1824C59.0938 20.149 59.0223 20.125 58.9485 20.1112L58.6629 20.045L58.5592 20.4895L58.5575 20.4912ZM58.3977 21.1697L58.753 21.2529C58.796 21.2638 58.8398 21.2712 58.8839 21.2749C58.9242 21.2777 58.9647 21.2725 59.0029 21.2596C59.0386 21.2465 59.0702 21.2243 59.0947 21.1952C59.1233 21.1615 59.1431 21.1213 59.1525 21.0781C59.1681 21.0284 59.1681 20.9752 59.1525 20.9255C59.135 20.8786 59.102 20.8392 59.059 20.8135C58.9958 20.7788 58.9275 20.7542 58.8567 20.7405L58.5099 20.6625L58.3909 21.1714L58.3977 21.1697ZM60.7777 20.3588L60.9664 20.403L60.7675 21.2512C60.7437 21.3709 60.6994 21.4857 60.6366 21.5905C60.5824 21.67 60.5036 21.7296 60.4122 21.7601C60.2974 21.794 60.1752 21.794 60.0603 21.7601C59.9462 21.7381 59.8397 21.6873 59.7509 21.6125C59.6789 21.5481 59.632 21.4604 59.6183 21.3648C59.6055 21.2373 59.6165 21.1084 59.6506 20.9848L59.8495 20.1366L60.0399 20.1875L59.841 21.0357C59.8141 21.1299 59.8032 21.228 59.8087 21.3258C59.8158 21.3907 59.846 21.4509 59.8937 21.4955C59.9484 21.5445 60.0154 21.5779 60.0875 21.5921C60.1396 21.6097 60.1948 21.6162 60.2495 21.6113C60.3043 21.6063 60.3574 21.59 60.4054 21.5633C60.5005 21.4683 60.5605 21.3439 60.5754 21.2105L60.7743 20.3622L60.7777 20.3588ZM61.3387 22.0383L61.4849 21.4157L61.1347 20.442L61.3608 20.4946L61.5308 21.0035C61.5631 21.0985 61.5937 21.1918 61.6192 21.2851C61.6804 21.2184 61.753 21.1443 61.8368 21.0629L62.2142 20.6947L62.4335 20.7456L61.6668 21.4581L61.5206 22.0807L61.3387 22.0383Z" fill="white"/>
<path fill-rule="evenodd" clip-rule="evenodd" d="M56.6064 16.6895L65.4005 18.7422C65.4693 18.7587 65.5288 18.8016 65.5661 18.8617C65.6033 18.9217 65.6153 18.994 65.5994 19.0628C65.5829 19.1314 65.5398 19.1908 65.4797 19.2279C65.4195 19.2651 65.3471 19.2771 65.2781 19.2613L56.484 17.2086C56.4153 17.1921 56.3558 17.1491 56.3185 17.0891C56.2813 17.029 56.2693 16.9568 56.2851 16.888C56.3017 16.8193 56.3447 16.76 56.4049 16.7228C56.4651 16.6856 56.5375 16.6737 56.6064 16.6895ZM56.858 15.6072L65.6504 17.6666C65.7192 17.6831 65.7787 17.7261 65.816 17.7861C65.8532 17.8462 65.8652 17.9184 65.8493 17.9872C65.8328 18.0559 65.7897 18.1152 65.7296 18.1524C65.6694 18.1896 65.597 18.2015 65.528 18.1857L56.7339 16.133C56.6652 16.1165 56.6057 16.0736 56.5684 16.0135C56.5312 15.9535 56.5192 15.8812 56.535 15.8124C56.5425 15.7776 56.5568 15.7447 56.5771 15.7155C56.5974 15.6862 56.6234 15.6614 56.6535 15.6423C56.6835 15.6232 56.7171 15.6102 56.7522 15.6042C56.7873 15.5982 56.8233 15.5992 56.858 15.6072ZM57.1385 14.4197L63.3214 15.8633C63.3902 15.8798 63.4497 15.9228 63.487 15.9828C63.5242 16.0429 63.5362 16.1151 63.5203 16.1839C63.5038 16.2526 63.4607 16.3119 63.4006 16.3491C63.3404 16.3863 63.268 16.3982 63.199 16.3824L57.0161 14.9388C56.9816 14.9313 56.949 14.9172 56.9199 14.8971C56.8909 14.877 56.8662 14.8515 56.8471 14.8218C56.8279 14.7922 56.8149 14.7591 56.8086 14.7245C56.8023 14.6898 56.8029 14.6542 56.8104 14.6198C56.8184 14.585 56.8333 14.552 56.8542 14.523C56.8751 14.494 56.9016 14.4694 56.9322 14.4507C56.9628 14.4321 56.9968 14.4197 57.0322 14.4144C57.0677 14.409 57.1038 14.4108 57.1385 14.4197Z" fill="#CBC6B8"/>
<path fill-rule="evenodd" clip-rule="evenodd" d="M58.0088 12.4043L62.0429 13.3458C62.2117 13.3857 62.3579 13.4908 62.4493 13.638C62.5408 13.7852 62.5701 13.9625 62.5308 14.1312C62.511 14.2151 62.4748 14.2941 62.4244 14.364C62.3739 14.4338 62.3101 14.4931 62.2367 14.5383C62.1633 14.5835 62.0816 14.6138 61.9964 14.6275C61.9113 14.6412 61.8242 14.638 61.7403 14.6181L57.7113 13.6766C57.5424 13.637 57.3962 13.5324 57.3044 13.3855C57.2127 13.2387 57.1829 13.0615 57.2217 12.8928C57.2613 12.724 57.3664 12.5777 57.514 12.4862C57.6615 12.3946 57.8395 12.3651 58.0088 12.4043Z" fill="#999999"/>
<path d="M17.6719 3.65208L8.13535 16.2717C7.62319 16.9494 7.75858 17.9132 8.43774 18.4242L16.1012 24.1911C16.7804 24.7022 17.7461 24.5671 18.2583 23.8894L27.7948 11.2697C28.3069 10.592 28.1715 9.62828 27.4924 9.1172L19.8289 3.35032C19.1498 2.83924 18.184 2.97434 17.6719 3.65208Z" fill="#014A84"/>
<path fill-rule="evenodd" clip-rule="evenodd" d="M17.8804 10.6349L14.4634 9.44741L19.5634 12.1837C21.0424 13.4646 19.4427 15.2102 18.2034 14.7555L12.7923 12.2821L17.9246 15.3018C18.9327 15.8277 18.2408 18.4843 16.2365 17.8583L9.83766 14.1771L8.13766 16.4757L5.65395 11.6714L0.831055 7.99527L6.64846 0.296875L14.1914 5.86625L18.6913 7.73232C20.9795 8.71455 19.2404 11.1438 17.8804 10.6349Z" fill="#FCCD57"/>
<path d="M9.09809 13.7139L16.097 17.765C17.7188 18.7031 19.327 16.1093 17.7511 15.1949L12.2924 12.0294L18.0146 14.6792C19.7333 15.4748 21.0338 12.9913 19.3389 12.0854L13.8989 9.17599L17.661 10.5721C19.5174 11.2609 20.6751 8.6009 18.9428 7.86804L14.2083 5.86456L7.10229 0.714203M1.5127 8.39054L5.64029 11.629L8.01179 16.3909" stroke="#0A0910" stroke-width="0.5" stroke-linecap="round" stroke-linejoin="round"/>
<path d="M19.1804 9.52883C19.0876 9.75576 18.9085 9.93673 18.6823 10.0321C18.4561 10.1275 18.2012 10.1295 17.9734 10.0378L16.9024 9.60348C16.8734 9.59146 16.8504 9.56849 16.8383 9.53957C16.8262 9.51065 16.826 9.47813 16.8378 9.4491L17.4447 7.96133C17.4508 7.94525 17.4602 7.93061 17.4722 7.91834C17.4843 7.90607 17.4988 7.89644 17.5148 7.89005C17.5307 7.88367 17.5479 7.88068 17.5651 7.88127C17.5823 7.88186 17.5992 7.88602 17.6147 7.89348L18.6806 8.32607C18.9058 8.4206 19.0845 8.59987 19.178 8.82503C19.2716 9.05018 19.2725 9.30306 19.1804 9.52883ZM19.5799 13.7818C19.4686 14 19.2751 14.1654 19.0419 14.2417C18.8087 14.318 18.5547 14.299 18.3355 14.1889L17.3036 13.6681C17.2754 13.6539 17.2541 13.6292 17.2442 13.5993C17.2343 13.5694 17.2367 13.5368 17.2509 13.5087L17.9768 12.0769C17.9842 12.062 17.9945 12.0487 18.0071 12.0379C18.0197 12.027 18.0344 12.0188 18.0503 12.0137C18.0661 12.0087 18.0829 12.0068 18.0995 12.0084C18.116 12.0099 18.1322 12.0147 18.1468 12.0226L19.1668 12.5417C19.386 12.6519 19.5525 12.8443 19.6299 13.0766C19.7073 13.309 19.6893 13.5626 19.5799 13.7818ZM17.613 16.8625C17.4775 17.0664 17.2666 17.2085 17.0265 17.2577C16.7863 17.307 16.5364 17.2594 16.3312 17.1254L15.3656 16.491C15.3518 16.4824 15.34 16.4711 15.3307 16.4578C15.3215 16.4445 15.3151 16.4294 15.3119 16.4135C15.3087 16.3976 15.3088 16.3812 15.3122 16.3654C15.3156 16.3495 15.3222 16.3345 15.3316 16.3213L16.2173 14.9812C16.2354 14.9542 16.2633 14.9354 16.295 14.9287C16.3268 14.9221 16.36 14.9281 16.3873 14.9455L17.3478 15.5783C17.4498 15.6452 17.5376 15.7314 17.6062 15.8322C17.6747 15.933 17.7227 16.0462 17.7473 16.1655C17.7719 16.2848 17.7728 16.4078 17.7497 16.5273C17.7267 16.6469 17.6802 16.7608 17.613 16.8625Z" stroke="#0A0910" stroke-width="0.3" stroke-miterlimit="22.93"/>
<path fill-rule="evenodd" clip-rule="evenodd" d="M13.8629 53.9464C15.2195 53.9458 16.5455 53.5437 17.6731 52.7911C18.8007 52.0384 19.6794 50.969 20.198 49.7181C20.7166 48.4672 20.8519 47.0909 20.5867 45.7632C20.3215 44.4356 19.6677 43.2162 18.7081 42.2593C17.7485 41.3024 16.5261 40.651 15.1954 40.3873C13.8648 40.1237 12.4857 40.2597 11.2325 40.7781C9.97934 41.2966 8.90835 42.1742 8.15497 43.3C7.4016 44.4258 6.99966 45.7493 7 47.103C7.00405 48.9177 7.72856 50.6567 9.01487 51.9394C10.3012 53.2221 12.0445 53.9437 13.8629 53.9464Z" fill="white" stroke="black" stroke-width="0.5" stroke-miterlimit="22.93"/>
<path fill-rule="evenodd" clip-rule="evenodd" d="M14.9526 42.7992L15.3079 43.9256C15.4246 43.9864 15.5381 44.0532 15.6479 44.1258L16.8022 43.8696C17.4857 44.5078 17.9633 45.3346 18.1741 46.2446L17.37 47.1081C17.37 47.1737 17.37 47.2399 17.37 47.3066C17.37 47.3733 17.37 47.4395 17.37 47.5051L18.1707 48.3753C17.9599 49.2854 17.4823 50.1122 16.7988 50.7503L15.6445 50.4942C15.5347 50.5667 15.4212 50.6336 15.3045 50.6944L14.9492 51.8208C14.0557 52.0901 13.1023 52.0901 12.2088 51.8208L11.8535 50.6944C11.7368 50.6336 11.6233 50.5668 11.5135 50.4942L10.3592 50.7503C9.67568 50.1122 9.19809 49.2854 8.9873 48.3753L9.788 47.5C9.788 47.4344 9.788 47.3682 9.788 47.3015C9.788 47.2348 9.788 47.1686 9.788 47.103L8.9873 46.2328C9.19809 45.3227 9.67568 44.4959 10.3592 43.8578L11.5135 44.1139C11.6233 44.0414 11.7368 43.9746 11.8535 43.9137L12.2088 42.7873C13.1023 42.518 14.0557 42.518 14.9492 42.7873L14.9526 42.7992ZM13.5824 45.3438C13.1941 45.3438 12.8144 45.4587 12.4915 45.674C12.1686 45.8893 11.917 46.1954 11.7684 46.5534C11.6198 46.9114 11.5809 47.3054 11.6566 47.6855C11.7324 48.0655 11.9194 48.4147 12.194 48.6887C12.4686 48.9627 12.8185 49.1493 13.1993 49.2249C13.5802 49.3005 13.975 49.2617 14.3338 49.1134C14.6926 48.9651 14.9992 48.714 15.215 48.3918C15.4307 48.0696 15.5459 47.6907 15.5459 47.3032C15.5455 46.7838 15.3384 46.2859 14.9702 45.9188C14.602 45.5517 14.1029 45.3455 13.5824 45.3455V45.3438Z" fill="#0A090F"/>
<path fill-rule="evenodd" clip-rule="evenodd" d="M15.5144 42.392L15.8697 43.5185C15.9864 43.5793 16.0999 43.6461 16.2097 43.7187L17.3708 43.4625C18.0543 44.1006 18.5319 44.9274 18.7427 45.8375L17.942 46.7078C17.942 46.7734 17.942 46.8395 17.942 46.9062C17.942 46.973 17.942 47.0391 17.942 47.1047L18.7427 47.975C18.5319 48.8851 18.0543 49.7119 17.3708 50.35L16.2165 50.0938C16.1067 50.1664 15.9932 50.2332 15.8765 50.294L15.5144 51.4018C14.623 51.6697 13.6722 51.6697 12.7808 51.4018L12.4255 50.2754C12.3087 50.2146 12.1953 50.1477 12.0855 50.0752L10.9312 50.3313C10.2477 49.6932 9.77006 48.8664 9.55928 47.9563L10.36 47.0861C10.36 47.0205 10.36 46.9543 10.36 46.8876C10.36 46.8209 10.36 46.7547 10.36 46.6891L9.55078 45.829C9.76156 44.919 10.2392 44.0921 10.9227 43.454L12.077 43.7102C12.1868 43.6376 12.3003 43.5708 12.417 43.51L12.7723 42.3836C13.6658 42.1143 14.6191 42.1143 15.5127 42.3836L15.5144 42.392ZM14.1442 44.9367C13.7558 44.9367 13.3762 45.0516 13.0533 45.2669C12.7304 45.4822 12.4788 45.7882 12.3301 46.1462C12.1815 46.5043 12.1426 46.8982 12.2184 47.2783C12.2942 47.6584 12.4812 48.0075 12.7558 48.2816C13.0304 48.5556 13.3802 48.7422 13.7611 48.8178C14.142 48.8934 14.5368 48.8546 14.8956 48.7063C15.2544 48.558 15.561 48.3069 15.7768 47.9846C15.9925 47.6624 16.1077 47.2836 16.1077 46.8961C16.1075 46.6386 16.0564 46.3837 15.9574 46.146C15.8584 45.9082 15.7134 45.6923 15.5308 45.5105C15.3481 45.3287 15.1313 45.1846 14.8928 45.0864C14.6543 44.9882 14.3988 44.9379 14.1408 44.9384L14.1442 44.9367Z" fill="#999999"/>
<path fill-rule="evenodd" clip-rule="evenodd" d="M55.353 27.6128C55.6819 27.6128 56.0033 27.5155 56.2767 27.3332C56.5501 27.1509 56.7632 26.8917 56.8891 26.5886C57.0149 26.2854 57.0478 25.9518 56.9837 25.63C56.9195 25.3082 56.7612 25.0125 56.5287 24.7805C56.2961 24.5485 55.9999 24.3905 55.6774 24.3264C55.3549 24.2624 55.0206 24.2953 54.7168 24.4208C54.413 24.5464 54.1533 24.7591 53.9706 25.0319C53.7879 25.3048 53.6904 25.6255 53.6904 25.9537C53.6913 26.3934 53.8668 26.8149 54.1784 27.1258C54.49 27.4368 54.9124 27.6119 55.353 27.6128Z" fill="#014A84"/>
<path fill-rule="evenodd" clip-rule="evenodd" d="M54.3115 25.801H55.2023V24.912H55.5049V25.801H56.3974V26.1029H55.5049V26.9936H55.2023V26.1029H54.3115V25.801Z" fill="white"/>
<path d="M15.4678 34.3537C13.8273 33.4919 13.2289 34.3893 12.6322 35.0866C11.8859 35.9585 11.0257 35.9636 10.1655 35.0866C9.5909 34.4996 8.6083 33.3443 7.2755 34.9339C6.06 36.3894 4.8309 33.5547 3.0578 34.8593L3 34.9916" stroke="#FFA100" stroke-width="2.13" stroke-linecap="round" stroke-linejoin="round"/>
<path d="M7.80117 33.25C8.17943 33.25 8.54919 33.1381 8.8637 32.9284C9.17821 32.7187 9.42334 32.4206 9.56809 32.0719C9.71284 31.7231 9.75072 31.3394 9.67692 30.9692C9.60313 30.599 9.42098 30.2589 9.15351 29.992C8.88605 29.7251 8.54527 29.5434 8.17428 29.4697C7.80329 29.3961 7.41875 29.4339 7.06929 29.5783C6.71983 29.7228 6.42113 29.9674 6.21099 30.2812C6.00084 30.5951 5.88867 30.9641 5.88867 31.3415C5.88957 31.8474 6.09135 32.3323 6.44982 32.69C6.80829 33.0478 7.29422 33.2491 7.80117 33.25ZM76.3605 38.6209C76.5387 38.6209 76.7129 38.5682 76.861 38.4694C77.0092 38.3706 77.1247 38.2302 77.1929 38.0659C77.2611 37.9016 77.2789 37.7208 77.2442 37.5464C77.2094 37.372 77.1236 37.2118 76.9976 37.086C76.8716 36.9603 76.711 36.8747 76.5363 36.84C76.3615 36.8053 76.1803 36.8231 76.0157 36.8911C75.851 36.9592 75.7103 37.0744 75.6113 37.2223C75.5123 37.3701 75.4595 37.544 75.4595 37.7218C75.4599 37.9601 75.555 38.1885 75.7239 38.3571C75.8927 38.5256 76.1217 38.6205 76.3605 38.6209Z" stroke="#014A84" stroke-width="1.42" stroke-miterlimit="22.93"/>
<path d="M3.22615 30.534C3.49936 30.534 3.72085 30.313 3.72085 30.0404C3.72085 29.7677 3.49936 29.5467 3.22615 29.5467C2.95293 29.5467 2.73145 29.7677 2.73145 30.0404C2.73145 30.313 2.95293 30.534 3.22615 30.534Z" stroke="#0A0910" stroke-width="1.42" stroke-miterlimit="22.93"/>
<path d="M43.1744 6.15124C43.3526 6.15124 43.5268 6.09851 43.675 5.99972C43.8232 5.90092 43.9387 5.7605 44.0069 5.59621C44.075 5.43192 44.0929 5.25114 44.0581 5.07673C44.0234 4.90232 43.9375 4.74211 43.8115 4.61637C43.6855 4.49063 43.525 4.405 43.3502 4.3703C43.1754 4.33561 42.9943 4.35342 42.8296 4.42147C42.665 4.48952 42.5243 4.60476 42.4253 4.75262C42.3263 4.90048 42.2734 5.07431 42.2734 5.25213C42.2739 5.49045 42.369 5.71889 42.5378 5.8874C42.7067 6.05592 42.9356 6.15079 43.1744 6.15124Z" stroke="#014A84" stroke-width="1.42" stroke-miterlimit="22.93"/>
<path d="M44.6011 10.1769C44.8744 10.1769 45.0958 9.95585 45.0958 9.68321C45.0958 9.41056 44.8744 9.18954 44.6011 9.18954C44.3279 9.18954 44.1064 9.41056 44.1064 9.68321C44.1064 9.95585 44.3279 10.1769 44.6011 10.1769Z" stroke="#014A84" stroke-width="1.42" stroke-miterlimit="22.93"/>
<path d="M64.6766 4.87722C63.0361 4.01543 62.4377 4.91284 61.841 5.61008C61.0947 6.48204 60.2345 6.48713 59.3743 5.61008C58.7997 5.02311 57.8171 3.86784 56.4843 5.4574C55.2807 6.90954 54.0448 4.07141 52.2717 5.38106L52.2139 5.51338" stroke="#FF5722" stroke-width="2.13" stroke-linecap="round" stroke-linejoin="round"/>
<path d="M64.2823 49.0013C62.6418 48.1395 62.0434 49.037 61.4467 49.7342C60.7004 50.6062 59.8402 50.6112 58.98 49.7342C58.4054 49.1472 57.4228 47.992 56.09 49.5815C54.8745 51.037 53.6454 48.2023 51.8723 49.5069L51.8145 49.6392" stroke="#1A237E" stroke-width="2.13" stroke-linecap="round" stroke-linejoin="round"/>
<path fill-rule="evenodd" clip-rule="evenodd" d="M65.6865 44.192H74.246C75.3722 44.1951 76.4514 44.6429 77.2478 45.4376C78.0441 46.2323 78.4929 47.3092 78.496 48.433C78.4929 49.5569 78.0441 50.6338 77.2478 51.4285C76.4514 52.2231 75.3722 52.671 74.246 52.6741H61.4365V48.433C61.4397 47.3092 61.8884 46.2323 62.6848 45.4376C63.4811 44.6429 64.5603 44.1951 65.6865 44.192Z" fill="white"/>
<path fill-rule="evenodd" clip-rule="evenodd" d="M65.8866 49.3237C66.0632 49.3237 66.2357 49.2714 66.3825 49.1736C66.5293 49.0757 66.6436 48.9366 66.7112 48.7739C66.7787 48.6111 66.7964 48.4321 66.762 48.2593C66.7276 48.0865 66.6426 47.9278 66.5177 47.8033C66.3929 47.6787 66.2339 47.5939 66.0608 47.5595C65.8876 47.5252 65.7082 47.5428 65.5451 47.6102C65.382 47.6776 65.2426 47.7918 65.1446 47.9382C65.0465 48.0847 64.9941 48.2569 64.9941 48.433C64.9946 48.6691 65.0888 48.8954 65.256 49.0623C65.4233 49.2292 65.6501 49.3232 65.8866 49.3237ZM69.9666 49.3237C70.1432 49.3237 70.3157 49.2714 70.4625 49.1736C70.6093 49.0757 70.7236 48.9366 70.7912 48.7739C70.8587 48.6111 70.8764 48.4321 70.842 48.2593C70.8076 48.0865 70.7226 47.9278 70.5977 47.8033C70.4729 47.6787 70.3139 47.5939 70.1408 47.5595C69.9676 47.5252 69.7882 47.5428 69.6251 47.6102C69.462 47.6776 69.3226 47.7918 69.2246 47.9382C69.1265 48.0847 69.0741 48.2569 69.0741 48.433C69.0746 48.6691 69.1688 48.8954 69.336 49.0623C69.5033 49.2292 69.7301 49.3232 69.9666 49.3237ZM74.0466 49.3237C74.2232 49.3237 74.3957 49.2714 74.5425 49.1736C74.6893 49.0757 74.8036 48.9366 74.8712 48.7739C74.9387 48.6111 74.9564 48.4321 74.922 48.2593C74.8876 48.0865 74.8026 47.9278 74.6777 47.8033C74.5529 47.6787 74.3939 47.5939 74.2208 47.5595C74.0476 47.5252 73.8682 47.5428 73.7051 47.6102C73.542 47.6776 73.4026 47.7918 73.3046 47.9382C73.2065 48.0847 73.1541 48.2569 73.1541 48.433C73.1546 48.6691 73.2488 48.8954 73.416 49.0623C73.5833 49.2292 73.8101 49.3232 74.0466 49.3237Z" fill="#FF5722"/>
</svg>
