<svg width="49" height="48" viewBox="0 0 49 48" fill="none" xmlns="http://www.w3.org/2000/svg">
<rect x="0.0864258" width="48" height="48" rx="11" fill="#8779FE"/>
<g clip-path="url(#clip0_1856_79386)">
<path fill-rule="evenodd" clip-rule="evenodd" d="M24.0864 10C31.8184 10 38.0864 16.268 38.0864 24C38.0864 31.732 31.8184 38 24.0864 38C16.3544 38 10.0864 31.732 10.0864 24C10.0864 16.268 16.3544 10 24.0864 10ZM32.306 30.477C32.506 30.2759 32.6183 30.0038 32.6183 29.7201C32.6183 29.4365 32.506 29.1644 32.306 28.9633L29.5655 26.2235C29.3643 26.0233 29.0921 25.911 28.8084 25.911C28.5246 25.911 28.2524 26.0233 28.0512 26.2235L27.3065 26.9685C27.0593 27.2179 26.738 27.3807 26.3907 27.4327C26.0434 27.4847 25.6886 27.4232 25.3791 27.2572C23.4411 26.2307 21.8561 24.6459 20.8295 22.7081C20.6634 22.3986 20.6018 22.0437 20.6537 21.6963C20.7057 21.3488 20.8684 21.0275 21.1177 20.78L21.8638 20.0352C22.0638 19.834 22.1761 19.5618 22.1761 19.2781C22.1761 18.9945 22.0638 18.7223 21.8638 18.5211L19.1233 15.7816C18.9222 15.5814 18.6499 15.469 18.3661 15.469C18.0824 15.469 17.8101 15.5814 17.609 15.7816C17.4957 15.8945 17.3524 16.0309 17.1992 16.1753C16.816 16.5375 16.3379 16.9883 16.1447 17.2717C15.1268 18.7613 15.6149 20.7542 16.2013 22.164C16.976 24.0221 18.4036 26.0468 20.2228 27.8647C22.0403 29.6824 24.0644 31.1103 25.9235 31.8849C27.3329 32.4721 29.3251 32.9591 30.8147 31.9414C31.0979 31.748 31.5494 31.271 31.9108 30.8873C32.0558 30.7344 32.1924 30.5898 32.306 30.477Z" fill="white"/>
</g>
<defs>
<clipPath id="clip0_1856_79386">
<rect width="28" height="28" fill="white" transform="translate(10.0864 10)"/>
</clipPath>
</defs>
</svg>
