<svg width="49" height="48" viewBox="0 0 49 48" fill="none" xmlns="http://www.w3.org/2000/svg">
<rect x="0.333496" width="48" height="48" rx="11" fill="#906CF9"/>
<path d="M11.3335 30.0337C11.3335 32.5461 13.3891 34.6018 15.9016 34.6018H32.7654C35.2779 34.6018 37.3335 32.5461 37.3335 30.0337V21.4685C37.3335 18.9561 35.2779 16.9005 32.7654 16.9005H27.5121V15.3016C27.5121 14.2357 26.6746 13.3983 25.6088 13.3983H23.0202C21.9543 13.3983 21.1168 14.2357 21.1168 15.3016V16.9005H15.9016C13.3891 16.9005 11.3335 18.9561 11.3335 21.4685V30.0337ZM32.2325 28.9678H26.2559C25.8372 28.9678 25.4945 28.6252 25.4945 28.2065C25.4945 27.7877 25.8372 27.4451 26.2559 27.4451H32.2705C32.6893 27.4451 33.0319 27.7877 33.0319 28.2065C33.0319 28.6252 32.6512 28.9678 32.2325 28.9678ZM32.2325 23.6384C32.6512 23.6384 32.9938 23.981 32.9938 24.3997C32.9938 24.8185 32.6512 25.1611 32.2325 25.1611H26.2559C25.8372 25.1611 25.4945 24.8185 25.4945 24.3997C25.4945 23.981 25.8372 23.6384 26.2559 23.6384H32.2325ZM22.6395 15.2636C22.6395 15.0352 22.7918 14.8829 23.0202 14.8829H25.6088C25.8372 14.8829 25.9894 15.0352 25.9894 15.2636V19.3748H22.6395V15.2636ZM19.4038 22.9151C21.3071 22.9151 22.8298 24.4378 22.8298 26.3412C22.8298 28.2445 21.3071 29.7672 19.4038 29.7672C17.5004 29.7672 15.9777 28.2445 15.9777 26.3412C15.9777 24.4759 17.5004 22.9151 19.4038 22.9151Z" fill="white"/>
</svg>
