<svg width="49" height="48" viewBox="0 0 49 48" fill="none" xmlns="http://www.w3.org/2000/svg">
<rect x="0.666748" width="48" height="48" rx="11" fill="#F96CB0"/>
<path d="M18.2836 13C15.5497 13 13.3335 15.2162 13.3335 17.9501C13.3335 20.6839 15.5497 22.9001 18.2836 22.9001H22.1336C22.7411 22.9001 23.2336 22.4076 23.2336 21.8001V17.9501C23.2336 15.2162 21.0174 13 18.2836 13Z" fill="white"/>
<path d="M30.3834 13C27.6495 13 25.4333 15.2162 25.4333 17.9501V21.8001C25.4333 22.4076 25.9258 22.9001 26.5334 22.9001H30.3834C33.1173 22.9001 35.3335 20.6839 35.3335 17.9501C35.3335 15.2162 33.1173 13 30.3834 13Z" fill="white"/>
<path d="M18.2836 25.0999C15.5497 25.0999 13.3335 27.3161 13.3335 30.05C13.3335 32.7839 15.5497 35.0001 18.2836 35.0001C21.0174 35.0001 23.2336 32.7839 23.2336 30.05V26.2C23.2336 25.5924 22.7411 25.0999 22.1336 25.0999H18.2836Z" fill="white"/>
<path d="M26.5334 25.0999C25.9258 25.0999 25.4333 25.5924 25.4333 26.2V30.05C25.4333 32.7839 27.6495 35.0001 30.3834 35.0001C33.1173 35.0001 35.3335 32.7839 35.3335 30.05C35.3335 27.3161 33.1173 25.0999 30.3834 25.0999H26.5334Z" fill="white"/>
</svg>
