<svg width="21" height="20" viewBox="0 0 21 20" fill="none" xmlns="http://www.w3.org/2000/svg">
<path d="M15.5 1.33989C17.0083 2.21075 18.2629 3.46042 19.1398 4.96519C20.0167 6.46997 20.4854 8.17766 20.4994 9.91923C20.5135 11.6608 20.0725 13.3758 19.22 14.8946C18.3676 16.4133 17.1332 17.6831 15.6392 18.5782C14.1452 19.4733 12.4434 19.9627 10.7021 19.998C8.96083 20.0332 7.24055 19.6131 5.71155 18.7791C4.18256 17.9452 2.89787 16.7264 1.98467 15.2434C1.07146 13.7604 0.561409 12.0646 0.505 10.3239L0.5 9.99989L0.505 9.67589C0.561003 7.94888 1.06355 6.26585 1.96364 4.79089C2.86373 3.31592 4.13065 2.09934 5.64089 1.25977C7.15113 0.420205 8.85315 -0.0137108 10.581 0.000330246C12.3089 0.0143713 14.0036 0.47589 15.5 1.33989ZM9.011 7.13989C8.80148 7.01517 8.55361 6.9713 8.31401 7.01652C8.07441 7.06175 7.85959 7.19296 7.70995 7.38547C7.56031 7.57799 7.48617 7.81854 7.50146 8.0619C7.51675 8.30525 7.62043 8.53463 7.793 8.70689L9.085 9.99989L7.793 11.2929L7.71 11.3869C7.55459 11.5879 7.48151 11.8405 7.5056 12.0934C7.52969 12.3463 7.64916 12.5806 7.83972 12.7486C8.03029 12.9167 8.27767 13.0059 8.53162 12.9981C8.78557 12.9904 9.02704 12.8862 9.207 12.7069L10.5 11.4149L11.793 12.7069L11.887 12.7899C12.088 12.9453 12.3406 13.0184 12.5935 12.9943C12.8464 12.9702 13.0807 12.8507 13.2488 12.6602C13.4168 12.4696 13.506 12.2222 13.4982 11.9683C13.4905 11.7143 13.3863 11.4728 13.207 11.2929L11.915 9.99989L13.207 8.70689L13.29 8.61289C13.4454 8.4119 13.5185 8.15929 13.4944 7.90637C13.4703 7.65344 13.3508 7.41917 13.1603 7.25114C12.9697 7.08311 12.7223 6.99391 12.4684 7.00166C12.2144 7.00942 11.973 7.11354 11.793 7.29289L10.5 8.58489L9.207 7.29289L9.113 7.20989L9.011 7.13989Z" fill="#EF4444"/>
</svg>
