<svg width="128" height="147" viewBox="0 0 128 147" fill="none" xmlns="http://www.w3.org/2000/svg">
<path d="M63.85 116.02C93.55 116.02 117.75 91.92 117.75 62.32C117.65 32.62 93.55 8.52002 63.85 8.52002C34.05 8.52002 9.94995 32.62 9.94995 62.22C9.94995 91.92 34.05 116.02 63.85 116.02Z" fill="#EAEEF9"/>
<path d="M119.05 43.5203C121.314 43.5203 123.15 41.6847 123.15 39.4203C123.15 37.1559 121.314 35.3203 119.05 35.3203C116.786 35.3203 114.95 37.1559 114.95 39.4203C114.95 41.6847 116.786 43.5203 119.05 43.5203Z" fill="#EAEEF9"/>
<path d="M125.05 27.5199C126.596 27.5199 127.85 26.2663 127.85 24.7199C127.85 23.1735 126.596 21.9199 125.05 21.9199C123.504 21.9199 122.25 23.1735 122.25 24.7199C122.25 26.2663 123.504 27.5199 125.05 27.5199Z" fill="#EAEEF9"/>
<path d="M5.3499 98.3199C8.22178 98.3199 10.5499 95.9918 10.5499 93.1199C10.5499 90.248 8.22178 87.9199 5.3499 87.9199C2.47802 87.9199 0.149902 90.248 0.149902 93.1199C0.149902 95.9918 2.47802 98.3199 5.3499 98.3199Z" fill="#EAEEF9"/>
<g filter="url(#filter0_d_1557_48301)">
<path d="M101.661 39.6898V104.821C101.661 109.567 97.8976 113.331 93.1518 113.331H34.5665C29.8207 113.331 26.0569 109.567 26.0569 104.821V19.5614C26.0569 14.8156 29.8207 11.0518 34.5665 11.0518H73.187C75.3144 11.0518 77.2782 11.87 78.751 13.3428L99.3704 33.9622C100.843 35.5987 101.661 37.5625 101.661 39.6898Z" fill="url(#paint0_linear_1557_48301)"/>
</g>
<g filter="url(#filter1_d_1557_48301)">
<path d="M77.0681 12.061V30.0009C77.0681 33.4717 80.0072 36.2483 83.3471 36.2483H100.897C100.519 35.4343 100.005 34.6679 99.3704 33.9625L78.751 13.343C78.2438 12.8359 77.6784 12.4063 77.0681 12.061Z" fill="#D5DDEA"/>
</g>
<path d="M51.3368 95.5944H37.6902C37.181 95.5944 36.7737 95.0531 36.7737 94.4036C36.7737 93.7541 37.181 93.2129 37.6902 93.2129H51.3368C51.846 93.2129 52.2533 93.7541 52.2533 94.4036C52.2533 95.1614 51.846 95.5944 51.3368 95.5944Z" fill="#D5DDEA"/>
<path d="M68.789 28.9127H38.0992C37.3854 28.9127 36.7737 28.3632 36.7737 27.722C36.7737 27.0808 37.3854 26.5312 38.0992 26.5312H68.789C69.5027 26.5312 70.1145 27.0808 70.1145 27.722C70.1145 28.3632 69.5027 28.9127 68.789 28.9127Z" fill="#D6DCE8"/>
<path d="M49.8465 36.0573H38.0911C37.3817 36.0573 36.7737 35.5077 36.7737 34.8665C36.7737 34.2254 37.3817 33.6758 38.0911 33.6758H49.7452C50.4545 33.6758 51.0626 34.2254 51.0626 34.8665C51.0626 35.5077 50.4545 36.0573 49.8465 36.0573Z" fill="#D6DCE8"/>
<path d="M90.5857 77.7334H54.7994H50.8552H38.9264C38.4454 77.7334 37.9644 78.2295 37.9644 78.9241C37.9644 79.5195 38.3492 80.1149 38.9264 80.1149H50.8552H54.7994H90.5857C91.0667 80.1149 91.5477 79.6187 91.5477 78.9241C91.4515 78.2295 91.0667 77.7334 90.5857 77.7334Z" fill="#D6DCE8"/>
<path d="M90.584 69.3979H77.2845H72.755H38.9281C38.4462 69.3979 37.9644 69.8941 37.9644 70.5887C37.9644 71.1841 38.3498 71.7794 38.9281 71.7794H72.755H77.2845H90.584C91.0659 71.7794 91.5477 71.2833 91.5477 70.5887C91.4514 69.8941 91.0659 69.3979 90.584 69.3979Z" fill="#D6DCE8"/>
<path d="M90.6713 61.063H87.2151H83.7589H38.9244C38.4444 61.063 37.9644 61.5591 37.9644 62.2537C37.9644 62.8491 38.3484 63.4445 38.9244 63.4445H83.7589H87.5992H90.5753C91.0554 63.4445 91.5354 62.9483 91.5354 62.2537C91.6314 61.6584 91.1514 61.063 90.6713 61.063Z" fill="#D6DCE8"/>
<path d="M90.596 52.7275H79.4605H76.7005H38.9161C38.4402 52.7275 37.9644 53.2237 37.9644 53.9183C37.9644 54.5137 38.3451 55.109 38.9161 55.109H76.7005H79.4605H90.5008C91.167 55.109 91.5477 54.6129 91.5477 53.9183C91.5477 53.3229 91.167 52.7275 90.596 52.7275Z" fill="#D6DCE8"/>
<path d="M91.1975 113.52C102.821 113.52 112.243 104.098 112.243 92.4746C112.243 80.8515 102.821 71.4292 91.1975 71.4292C79.5744 71.4292 70.1521 80.8515 70.1521 92.4746C70.1521 104.098 79.5744 113.52 91.1975 113.52Z" fill="url(#paint1_linear_1557_48301)"/>
<path d="M92.4765 84.0312L97.7475 89.6278C98.3677 90.2862 98.3677 91.4385 97.7475 92.0969C97.1274 92.7553 96.0422 92.7553 95.3446 92.0969L92.9416 89.6278V98.6812C92.9416 99.6688 92.1664 100.492 91.2363 100.492C90.3061 100.492 89.5309 99.6688 89.5309 98.6812V89.6278L87.128 92.0969C86.5078 92.7553 85.4226 92.7553 84.725 92.0969C84.3374 91.6854 84.1824 91.2739 84.1824 90.8624C84.1824 90.4508 84.3374 89.8747 84.725 89.6278L89.996 84.0312C90.2286 83.7843 90.7712 83.4551 91.1587 83.4551C91.5463 83.4551 92.244 83.6197 92.4765 84.0312Z" fill="white"/>
<path d="M109.989 96.2703C109.596 97.9385 109.007 99.7048 108.32 101.177C106.456 104.807 103.512 107.653 99.8814 109.518C96.1526 111.382 91.7368 112.167 87.3211 111.186C76.9195 109.027 70.2468 98.8216 72.4056 88.4201C74.5644 78.0185 84.6716 71.2477 95.0731 73.5047C98.802 74.2897 102.04 76.1541 104.788 78.7054C109.4 83.3174 111.362 89.9901 109.989 96.2703Z" fill="url(#paint2_linear_1557_48301)"/>
<path d="M97.3302 90.6767H92.9144V86.261C92.9144 85.3778 92.2275 84.5928 91.2462 84.5928C90.3631 84.5928 89.5781 85.2797 89.5781 86.261V90.6767H85.1623C84.2792 90.6767 83.4941 91.3636 83.4941 92.3449C83.4941 93.3261 84.181 94.013 85.1623 94.013H89.5781V98.4288C89.5781 99.3119 90.265 100.097 91.2462 100.097C92.1294 100.097 92.9144 99.4101 92.9144 98.4288V94.013H97.3302C98.2133 94.013 98.9983 93.3261 98.9983 92.3449C98.9983 91.3636 98.2133 90.6767 97.3302 90.6767Z" fill="white"/>
<defs>
<filter id="filter0_d_1557_48301" x="4.05688" y="0.0517578" width="119.604" height="146.279" filterUnits="userSpaceOnUse" color-interpolation-filters="sRGB">
<feFlood flood-opacity="0" result="BackgroundImageFix"/>
<feColorMatrix in="SourceAlpha" type="matrix" values="0 0 0 0 0 0 0 0 0 0 0 0 0 0 0 0 0 0 127 0" result="hardAlpha"/>
<feOffset dy="11"/>
<feGaussianBlur stdDeviation="11"/>
<feColorMatrix type="matrix" values="0 0 0 0 0.397708 0 0 0 0 0.47749 0 0 0 0 0.575 0 0 0 0.27 0"/>
<feBlend mode="normal" in2="BackgroundImageFix" result="effect1_dropShadow_1557_48301"/>
<feBlend mode="normal" in="SourceGraphic" in2="effect1_dropShadow_1557_48301" result="shape"/>
</filter>
<filter id="filter1_d_1557_48301" x="55.0681" y="1.06104" width="67.8291" height="68.187" filterUnits="userSpaceOnUse" color-interpolation-filters="sRGB">
<feFlood flood-opacity="0" result="BackgroundImageFix"/>
<feColorMatrix in="SourceAlpha" type="matrix" values="0 0 0 0 0 0 0 0 0 0 0 0 0 0 0 0 0 0 127 0" result="hardAlpha"/>
<feOffset dy="11"/>
<feGaussianBlur stdDeviation="11"/>
<feColorMatrix type="matrix" values="0 0 0 0 0.397708 0 0 0 0 0.47749 0 0 0 0 0.575 0 0 0 0.27 0"/>
<feBlend mode="normal" in2="BackgroundImageFix" result="effect1_dropShadow_1557_48301"/>
<feBlend mode="normal" in="SourceGraphic" in2="effect1_dropShadow_1557_48301" result="shape"/>
</filter>
<linearGradient id="paint0_linear_1557_48301" x1="63.8345" y1="8.68595" x2="63.8345" y2="114.433" gradientUnits="userSpaceOnUse">
<stop stop-color="#FDFEFF"/>
<stop offset="0.9964" stop-color="#ECF0F5"/>
</linearGradient>
<linearGradient id="paint1_linear_1557_48301" x1="70.1328" y1="92.4792" x2="112.251" y2="92.4792" gradientUnits="userSpaceOnUse">
<stop stop-color="#B0BACC"/>
<stop offset="1" stop-color="#969EAE"/>
</linearGradient>
<linearGradient id="paint2_linear_1557_48301" x1="71.9824" y1="92.3447" x2="110.426" y2="92.3447" gradientUnits="userSpaceOnUse">
<stop stop-color="#B0BACC"/>
<stop offset="1" stop-color="#969EAE"/>
</linearGradient>
</defs>
</svg>
