<svg width="49" height="48" viewBox="0 0 49 48" fill="none" xmlns="http://www.w3.org/2000/svg">
<rect x="0.0864258" width="48" height="48" rx="11" fill="#3AB0FF"/>
<path d="M18.5446 18.1667C18.5446 15.1112 21.0308 12.625 24.0863 12.625C27.1418 12.625 29.6279 15.1112 29.6279 18.1667C29.6279 21.2222 27.1418 23.7083 24.0863 23.7083C21.0308 23.7083 18.5446 21.2222 18.5446 18.1667ZM27.5863 25.4583H20.5863C16.8879 25.4583 13.8779 28.4683 13.8779 32.1667C13.8779 33.9365 15.3164 35.375 17.0863 35.375H31.0863C32.8561 35.375 34.2946 33.9365 34.2946 32.1667C34.2946 28.4683 31.2846 25.4583 27.5863 25.4583Z" fill="white"/>
</svg>
