<svg width="14" height="15" viewBox="0 0 14 15" fill="none" xmlns="http://www.w3.org/2000/svg">
    <g clip-path="url(#clip0_3184_8701)">
    <path d="M4.08337 6.13778C4.08337 5.72517 4.24728 5.32946 4.53904 5.0377C4.8308 4.74594 5.22651 4.58203 5.63912 4.58203H10.6943C10.8986 4.58203 11.1009 4.62227 11.2897 4.70046C11.4784 4.77864 11.6499 4.89324 11.7944 5.0377C11.9388 5.18216 12.0534 5.35367 12.1316 5.54242C12.2098 5.73117 12.25 5.93348 12.25 6.13778V11.1929C12.25 11.3973 12.2098 11.5996 12.1316 11.7883C12.0534 11.9771 11.9388 12.1486 11.7944 12.293C11.6499 12.4375 11.4784 12.5521 11.2897 12.6303C11.1009 12.7085 10.8986 12.7487 10.6943 12.7487H5.63912C5.43482 12.7487 5.23252 12.7085 5.04376 12.6303C4.85501 12.5521 4.68351 12.4375 4.53904 12.293C4.39458 12.1486 4.27998 11.9771 4.2018 11.7883C4.12361 11.5996 4.08337 11.3973 4.08337 11.1929V6.13778Z" stroke="#0172CB" stroke-width="1.5" stroke-linecap="round" stroke-linejoin="round"/>
    <path d="M2.34033 10.2632C2.16145 10.1613 2.01266 10.0139 1.909 9.83595C1.80535 9.65804 1.7505 9.45591 1.75 9.25V3.41667C1.75 2.775 2.275 2.25 2.91667 2.25H8.75C9.1875 2.25 9.4255 2.47458 9.625 2.83333" stroke="#0172CB" stroke-width="1.5" stroke-linecap="round" stroke-linejoin="round"/>
    </g>
    <defs>
    <clipPath id="clip0_3184_8701">
    <rect width="14" height="14" fill="white" transform="translate(0 0.5)"/>
    </clipPath>
    </defs>
</svg>