<svg width="224" height="240" viewBox="0 0 224 240" fill="none" xmlns="http://www.w3.org/2000/svg">
<rect width="224" height="240" rx="6" fill="#D0ACFF"/>
<path d="M113.442 184.958C147.716 184.958 175.57 156.951 175.57 122.396C175.57 87.8416 147.716 59.7129 113.442 59.7129C79.1691 59.7129 51.3145 87.7203 51.3145 122.275C51.3145 156.83 79.1691 184.958 113.442 184.958Z" fill="#9060CF"/>
<path d="M159.22 70.0684L181.382 104.138L181.745 104.502L114.168 187.797L46.9531 104.502L47.5587 104.138L69.358 70.0684H159.22Z" fill="white"/>
<path d="M137.422 104.331L114.169 187.99L92.3696 104.331L114.169 70.2617L137.422 104.331Z" fill="#FCDDFB"/>
<path d="M181.625 104.695L114.168 187.99L137.421 104.331L159.22 70.2617L181.625 104.695Z" fill="#ECDAFF"/>
<path d="M47.5591 104.015L69.3584 69.9453L92.3688 104.015H47.5591Z" fill="#FFEAFF"/>
<path d="M86.4344 95.7227L92.3686 93.904C92.8531 93.7828 92.8531 93.1766 92.3686 93.0553L86.4344 91.2366C86.3133 91.2366 86.1922 91.1154 86.071 90.8729L84.3756 85.0532C84.2544 84.5682 83.6489 84.5682 83.5278 85.0532L81.7112 90.9942C81.7112 91.1154 81.5901 91.2366 81.3479 91.3579L75.4136 93.1765C74.9292 93.2978 74.9292 93.904 75.4136 94.0253L81.3479 95.8439C81.469 95.8439 81.5901 95.9652 81.7112 96.2077L83.5278 102.149C83.6489 102.634 84.2544 102.634 84.3756 102.149L86.1922 96.2077C86.1922 95.8439 86.3133 95.7227 86.4344 95.7227Z" fill="#FBF3FF"/>
<path d="M44.5319 118.275L48.6495 114.88C48.8917 114.637 48.7706 114.152 48.4073 114.152L43.0786 114.637C42.9575 114.637 42.8364 114.637 42.7153 114.516L39.3243 110.394C39.0821 110.151 38.5976 110.272 38.5976 110.636L39.0821 115.971C39.0821 116.092 39.0821 116.213 38.9609 116.335L34.8433 119.73C34.6011 119.972 34.7222 120.457 35.0855 120.457L40.4142 119.972C40.5353 119.972 40.6564 119.972 40.7776 120.093L44.1686 124.216C44.4108 124.458 44.8952 124.337 44.8952 123.973L44.4108 118.638C44.2897 118.517 44.4108 118.396 44.5319 118.275Z" fill="#FBF3FF"/>
<path d="M85.1033 57.41L87.8888 55.2276C88.131 55.1063 88.0099 54.7426 87.6465 54.7426L84.1344 55.1063C84.0537 55.1063 83.973 55.0659 83.8922 54.9851L81.7123 52.1965C81.5912 51.954 81.2279 52.0752 81.2279 52.439L81.5912 55.955C81.5912 56.0359 81.5508 56.1167 81.4701 56.1975L78.6846 58.3799C78.4424 58.5012 78.5635 58.8649 78.9268 58.8649L82.4389 58.5012C82.5197 58.5012 82.6004 58.5416 82.6811 58.6224L84.8611 61.411C84.9822 61.6535 85.3455 61.5323 85.3455 61.1685L84.9822 57.6525C84.9822 57.5312 84.9822 57.41 85.1033 57.41Z" fill="#FBF3FF"/>
<path d="M175.206 164.638H175.558L180.414 167.184C180.777 167.427 181.141 166.942 180.899 166.578L178.234 161.728C178.113 161.607 178.113 161.486 178.234 161.364L180.777 156.515C181.02 156.151 180.535 155.787 180.172 156.03L175.328 158.697C175.206 158.818 175.085 158.818 174.964 158.697L170.12 156.151C169.757 155.908 169.393 156.393 169.636 156.757L172.3 161.607C172.421 161.728 172.421 161.849 172.3 161.971L169.757 166.82C169.514 167.184 169.999 167.548 170.362 167.305L175.206 164.638Z" fill="#FBF3FF"/>
<path d="M74.0828 158.576L77.8371 160.104C78.0794 160.225 78.4427 159.983 78.2005 159.74L76.178 156.103V155.86L78.0793 152.102C78.2005 151.859 77.9582 151.496 77.716 151.738L74.0828 153.727H73.8406L70.0863 151.859C69.8441 151.738 69.4807 151.981 69.7229 152.223L71.3337 155.86V156.103L69.8441 159.862C69.723 160.104 69.9652 160.468 70.2074 160.225L73.8406 158.576H74.0828Z" fill="#FBF3FF"/>
<path d="M71.5389 185.443L75.1721 187.262C75.4143 187.383 75.7776 187.141 75.5354 186.898L73.7551 183.382V183.14L75.2932 179.502C75.4143 179.26 75.1721 178.896 74.9299 179.139L71.4178 181.612H71.1755L67.5423 179.26C67.3001 179.139 66.9368 179.381 67.179 179.624L68.9108 183.14V183.382L67.4212 187.019C67.3001 187.262 67.5423 187.626 67.7845 187.383L71.2966 185.322C71.4178 185.443 71.5389 185.443 71.5389 185.443Z" fill="#FBF3FF"/>
<path d="M140.558 57.3369L144.481 59.1556C144.748 59.2769 145.002 59.0344 144.869 58.7919L142.774 55.2758V55.0333L144.736 51.5172C144.869 51.2747 144.603 51.0322 144.348 51.1535L140.545 53.0934H140.279L136.222 51.0322C135.956 50.911 135.701 51.1535 135.834 51.396L137.93 54.9121V55.1546L135.968 58.7919C135.834 59.0344 136.101 59.2769 136.355 59.1556L140.158 57.3369C140.291 57.2157 140.424 57.2157 140.545 57.3369H140.558Z" fill="#FBF3FF"/>
<path d="M181.625 105.228L137.421 104.865L159.22 70.7949L181.625 105.228Z" fill="#FFEAFF"/>
<path d="M137.422 104.015H92.3696L114.169 69.9453L137.422 104.015Z" fill="#FFEAFF"/>
<path d="M117.68 72.5645L124.462 70.5033C124.947 70.3821 124.947 69.6546 124.462 69.5334L117.68 67.4722C117.559 67.4722 117.317 67.351 117.317 67.1085L115.258 60.3188C115.137 59.8338 114.41 59.8338 114.289 60.3188L112.23 67.1085C112.23 67.2297 112.109 67.4722 111.867 67.4722L104.964 69.5334C104.479 69.6546 104.479 70.3821 104.964 70.5033L111.746 72.5645C111.867 72.5645 112.109 72.6857 112.109 72.9282L114.168 79.7179C114.289 80.2029 115.016 80.2029 115.137 79.7179L117.196 72.9282C117.317 72.807 117.438 72.6857 117.68 72.5645Z" fill="#FBF3FF"/>
<path d="M183.683 105.665L189.012 104.089C189.375 103.968 189.375 103.362 189.012 103.362L183.683 101.786C183.562 101.786 183.441 101.664 183.441 101.543L181.867 96.2083C181.746 95.8446 181.14 95.8446 181.14 96.2083L179.566 101.543C179.566 101.664 179.444 101.786 179.323 101.786L173.995 103.362C173.631 103.483 173.631 104.089 173.995 104.089L179.323 105.665C179.444 105.665 179.566 105.787 179.566 105.908L181.14 111.243C181.261 111.606 181.867 111.606 181.867 111.243L183.441 105.908C183.441 105.787 183.562 105.665 183.683 105.665Z" fill="#FBF3FF"/>
</svg>
