<svg width="259" height="157" viewBox="0 0 259 157" fill="none" xmlns="http://www.w3.org/2000/svg">
<g clip-path="url(#clip0_2343_41537)">
<rect width="258" height="157" transform="translate(0.981445)" fill="#FEF2F2"/>
<g opacity="0.5">
<rect x="31.4751" y="54.8281" width="196.848" height="93.3245" rx="8.60097" fill="#FEE5E2"/>
<path d="M31.4751 59.743C31.4751 57.0286 33.6755 54.8281 36.3899 54.8281H223.408C226.123 54.8281 228.323 57.0286 228.323 59.743V78.0573H31.4751V59.743Z" fill="#FF988D"/>
<rect x="39.8096" y="65.0457" width="34.0474" height="5.12559" rx="2.56279" fill="white"/>
<rect x="39.8096" y="87.4319" width="34.0474" height="5.12559" rx="2.56279" fill="#FDCFCA"/>
<rect x="39.8096" y="111.712" width="34.0474" height="5.12559" rx="2.56279" fill="#FDCFCA"/>
<rect x="39.8096" y="134.418" width="34.0474" height="5.12559" rx="2.56279" fill="#FDCFCA"/>
<rect x="88.1558" y="65.0457" width="27.1005" height="5.12559" rx="2.56279" fill="white"/>
<rect x="88.1558" y="87.4319" width="31.3424" height="5.12559" rx="2.56279" fill="#FDCFCA"/>
<rect x="88.1558" y="111.712" width="31.3424" height="5.12559" rx="2.56279" fill="#FDCFCA"/>
<rect x="88.1558" y="134.418" width="31.3424" height="5.12559" rx="2.56279" fill="#FDCFCA"/>
<rect x="136.066" y="65.0457" width="33.0505" height="5.12559" rx="2.56279" fill="white"/>
<rect x="136.066" y="87.4319" width="33.0505" height="5.12559" rx="2.56279" fill="#FDCFCA"/>
<rect x="136.066" y="111.712" width="33.0505" height="5.12559" rx="2.56279" fill="#FDCFCA"/>
<rect x="136.066" y="134.418" width="33.0505" height="5.12559" rx="2.56279" fill="#FDCFCA"/>
<rect x="187.613" y="65.0457" width="20.3681" height="5.12559" rx="2.56279" fill="white"/>
<rect x="187.613" y="87.4319" width="29.8265" height="5.12559" rx="2.56279" fill="#FDCFCA"/>
<rect x="187.613" y="111.712" width="29.8265" height="5.12559" rx="2.56279" fill="#FDCFCA"/>
<rect x="187.613" y="134.418" width="29.8265" height="5.12559" rx="2.56279" fill="#FDCFCA"/>
<rect x="31.5073" y="114.53" width="197.008" height="44" fill="url(#paint0_linear_2343_41537)"/>
</g>
<g filter="url(#filter0_d_2343_41537)">
<rect x="97.9814" y="33" width="64" height="64" rx="12" fill="white" shape-rendering="crispEdges"/>
<path d="M117.481 55.625C117.481 53.8016 118.206 52.053 119.495 50.7636C120.784 49.4743 122.533 48.75 124.356 48.75C126.18 48.75 127.928 49.4743 129.218 50.7636C130.507 52.053 131.231 53.8016 131.231 55.625C131.231 57.4484 130.507 59.1971 129.218 60.4864C127.928 61.7757 126.18 62.5 124.356 62.5C122.533 62.5 120.784 61.7757 119.495 60.4864C118.206 59.1971 117.481 57.4484 117.481 55.625ZM133.731 59.375C133.731 58.6363 133.877 57.9049 134.16 57.2224C134.442 56.54 134.857 55.9199 135.379 55.3975C135.901 54.8752 136.521 54.4609 137.204 54.1782C137.886 53.8955 138.618 53.75 139.356 53.75C140.095 53.75 140.827 53.8955 141.509 54.1782C142.191 54.4609 142.812 54.8752 143.334 55.3975C143.856 55.9199 144.271 56.54 144.553 57.2224C144.836 57.9049 144.981 58.6363 144.981 59.375C144.981 60.8668 144.389 62.2976 143.334 63.3525C142.279 64.4074 140.848 65 139.356 65C137.865 65 136.434 64.4074 135.379 63.3525C134.324 62.2976 133.731 60.8668 133.731 59.375ZM112.481 76.875C112.481 73.7256 113.733 70.7051 115.96 68.4781C118.187 66.2511 121.207 65 124.356 65C127.506 65 130.526 66.2511 132.753 68.4781C134.98 70.7051 136.231 73.7256 136.231 76.875V76.88L136.23 77.0783C136.226 77.2903 136.169 77.4979 136.063 77.6816C135.957 77.8652 135.806 78.019 135.625 78.1283C132.223 80.1766 128.327 81.2561 124.356 81.25C120.236 81.25 116.38 80.11 113.09 78.1283C112.908 78.0192 112.757 77.8655 112.651 77.6818C112.544 77.4981 112.487 77.2905 112.483 77.0783L112.481 76.875ZM138.731 76.88L138.73 77.12C138.72 77.6755 138.588 78.222 138.341 78.72C141.251 78.8995 144.157 78.3194 146.775 77.0367C146.977 76.9377 147.149 76.7859 147.272 76.5972C147.396 76.4086 147.466 76.1901 147.475 75.965C147.534 74.5671 147.23 73.1776 146.595 71.9313C145.959 70.6849 145.012 69.6238 143.846 68.8508C142.679 68.0779 141.333 67.6191 139.938 67.5191C138.542 67.4191 137.144 67.6812 135.88 68.28C137.735 70.761 138.735 73.777 138.73 76.875L138.731 76.88Z" fill="#FF7941"/>
</g>
</g>
<defs>
<filter id="filter0_d_2343_41537" x="93.9814" y="33" width="72" height="72" filterUnits="userSpaceOnUse" color-interpolation-filters="sRGB">
<feFlood flood-opacity="0" result="BackgroundImageFix"/>
<feColorMatrix in="SourceAlpha" type="matrix" values="0 0 0 0 0 0 0 0 0 0 0 0 0 0 0 0 0 0 127 0" result="hardAlpha"/>
<feOffset dy="4"/>
<feGaussianBlur stdDeviation="2"/>
<feComposite in2="hardAlpha" operator="out"/>
<feColorMatrix type="matrix" values="0 0 0 0 1 0 0 0 0 0.47451 0 0 0 0 0.254902 0 0 0 0.1 0"/>
<feBlend mode="normal" in2="BackgroundImageFix" result="effect1_dropShadow_2343_41537"/>
<feBlend mode="normal" in="SourceGraphic" in2="effect1_dropShadow_2343_41537" result="shape"/>
</filter>
<linearGradient id="paint0_linear_2343_41537" x1="130.103" y1="176.195" x2="135.052" y2="114.67" gradientUnits="userSpaceOnUse">
<stop offset="0.215" stop-color="#FFF7ED"/>
<stop offset="1" stop-color="white" stop-opacity="0"/>
</linearGradient>
<clipPath id="clip0_2343_41537">
<rect width="258" height="157" fill="white" transform="translate(0.981445)"/>
</clipPath>
</defs>
</svg>
