<svg width="49" height="48" viewBox="0 0 49 48" fill="none" xmlns="http://www.w3.org/2000/svg">
<rect x="0.666748" width="48" height="48" rx="11" fill="#F09375"/>
<path fill-rule="evenodd" clip-rule="evenodd" d="M16.9395 11.2727H21.0304C22.2359 11.2727 23.3921 11.7516 24.2445 12.604C25.0969 13.4565 25.5758 14.6126 25.5758 15.8182V18.0909C25.5758 19.3466 26.594 20.3636 27.8486 20.3636H30.1213C31.3268 20.3636 32.483 20.8425 33.3354 21.6949C34.1879 22.5474 34.6667 23.7035 34.6667 24.9091V34.4545C34.6667 35.7091 33.6486 36.7273 32.394 36.7273H16.9395C16.3367 36.7273 15.7586 36.4878 15.3324 36.0616C14.9062 35.6354 14.6667 35.0573 14.6667 34.4545V13.5454C14.6667 12.2897 15.6849 11.2727 16.9395 11.2727ZM25.5758 24C25.5758 23.7589 25.4801 23.5276 25.3096 23.3572C25.1391 23.1867 24.9079 23.0909 24.6667 23.0909C24.4256 23.0909 24.1944 23.1867 24.0239 23.3572C23.8534 23.5276 23.7577 23.7589 23.7577 24V26.7273H21.0304C20.7893 26.7273 20.558 26.823 20.3876 26.9935C20.2171 27.164 20.1213 27.3952 20.1213 27.6363C20.1213 27.8774 20.2171 28.1087 20.3876 28.2792C20.558 28.4497 20.7893 28.5454 21.0304 28.5454H23.7577V31.2727C23.7577 31.5138 23.8534 31.745 24.0239 31.9155C24.1944 32.086 24.4256 32.1818 24.6667 32.1818C24.9079 32.1818 25.1391 32.086 25.3096 31.9155C25.4801 31.745 25.5758 31.5138 25.5758 31.2727V28.5454H28.3031C28.5442 28.5454 28.7754 28.4497 28.9459 28.2792C29.1164 28.1087 29.2122 27.8774 29.2122 27.6363C29.2122 27.3952 29.1164 27.164 28.9459 26.9935C28.7754 26.823 28.5442 26.7273 28.3031 26.7273H25.5758V24Z" fill="white"/>
<path d="M27.3941 15.8174C27.3962 14.2884 26.8456 12.8101 25.8438 11.655C27.872 12.1883 29.7222 13.2507 31.2051 14.7336C32.688 16.2165 33.7505 18.0667 34.2838 20.095C33.1286 19.0931 31.6504 18.5425 30.1213 18.5447H27.8486C27.728 18.5447 27.6124 18.4968 27.5272 18.4115C27.4419 18.3263 27.3941 18.2107 27.3941 18.0901V15.8174Z" fill="white"/>
</svg>
