<svg width="110" height="116" viewBox="0 0 110 116" fill="none" xmlns="http://www.w3.org/2000/svg">
<path d="M108.68 54.493C108.68 68.9158 102.885 81.7361 93.87 91.3516C93.2264 92.3128 92.2604 92.9538 91.2945 93.5949C81.6362 102.57 68.7583 108.018 54.5926 108.018C43.3246 108.018 32.7003 104.493 24.0078 98.4027C21.4322 96.7999 19.1786 94.5566 16.925 92.6334C6.94463 83.0182 0.827637 69.557 0.827637 54.493C0.827637 25.0058 24.9736 0.967651 54.5926 0.967651C84.5336 0.967651 108.68 25.0058 108.68 54.493Z" fill="#E9F0F8"/>
<path d="M108.68 54.4895C108.68 70.1945 101.919 83.9763 91.2945 93.912C81.6362 102.887 68.7583 108.336 54.5926 108.336C43.3246 108.336 32.7003 104.81 24.0078 98.7198C9.84218 89.1046 0.827637 73.079 0.827637 54.8101C0.827637 25.3231 24.9736 1.28485 54.5926 1.28485C84.2118 1.28485 108.68 25.0026 108.68 54.4895Z" fill="#F1F3F9"/>
<path d="M93.8682 91.3512C93.2241 92.3128 92.2586 92.9539 91.2926 93.595C81.634 102.569 68.7565 108.018 54.5908 108.018C43.3225 108.018 32.6983 104.493 24.0057 98.4028C21.4301 96.8001 19.1765 94.5567 16.9229 92.6334C18.2107 91.0311 20.1423 90.0695 24.3276 88.4667L25.9374 87.8256C29.1568 86.5439 33.6641 84.9411 39.4591 82.3772C40.425 82.0566 41.0689 81.4155 41.7128 80.7744C42.0347 80.4539 42.3567 80.1338 42.3567 79.4927C42.6786 78.8516 43.0005 77.89 43.0005 77.2489V66.3516C42.6786 66.031 42.6786 66.031 42.3567 65.7105C41.3908 64.4287 40.7469 62.826 40.7469 60.9031L40.103 60.5826C37.2055 61.2237 37.5275 58.3388 36.8836 52.5698C36.5616 50.3259 36.8836 49.6853 38.1713 49.3647L39.1372 48.0825C37.2055 43.5954 36.2397 39.4288 36.2397 36.2237C36.2397 30.775 38.4933 27.2494 41.7128 25.6469C39.7811 21.8007 39.7811 20.5187 39.7811 20.5187C39.7811 20.5187 51.0492 22.4418 54.9126 21.8008C59.7419 20.8392 67.4687 22.1213 70.3661 28.5315C75.195 30.4545 76.8051 33.3391 77.4487 36.5442C78.0929 41.6724 75.1954 47.1209 74.5513 49.3647V49.6853C75.1954 50.0058 75.5173 50.6465 75.195 52.8903C74.5513 58.3387 74.5513 61.5438 71.9757 60.9031L69.4002 65.3899C69.4002 66.031 69.4002 66.031 69.0783 66.3516C69.0783 67.3132 69.0783 68.9159 69.0783 77.5694C69.0783 78.5311 69.4002 79.8132 70.0443 80.4539C70.3661 80.7744 70.3661 81.095 70.6879 81.095C71.3321 81.7361 71.9757 82.3772 72.6199 82.3772C79.0583 84.9411 83.5659 86.8644 87.1074 88.1462C90.3267 89.4284 92.5804 90.39 93.8682 91.3512Z" fill="white"/>
<path d="M93.8682 91.3511C93.2241 92.3123 92.2586 92.9534 91.2926 93.5945C81.634 102.569 68.7565 108.018 54.5908 108.018C43.3225 108.018 32.6983 104.492 24.0057 98.4022C21.4301 96.7995 19.1765 94.5561 16.9229 92.6328C18.2107 91.0305 20.1423 90.0689 24.3276 88.4661L25.9374 87.8255C29.1568 86.5433 33.6641 84.9406 39.4591 82.3766C40.425 82.0561 41.0689 81.415 41.7128 80.7739C44.9321 85.2611 50.0832 88.1456 56.2003 88.1456C61.9951 88.1456 67.1464 85.2611 70.3661 81.0944C71.0098 81.7355 71.6539 82.3766 72.2976 82.3766C78.7365 84.9406 83.244 86.8638 86.7851 88.1456C90.3267 89.4278 92.5804 90.3894 93.8682 91.3511Z" fill="#D6DCE8"/>
<path d="M74.2314 49.0442C74.5533 47.762 73.9091 45.8391 73.2655 44.8775C73.2655 44.5569 72.9436 44.5569 72.9436 44.2364C70.6899 39.7493 65.8606 38.1468 61.3535 37.8263C49.4415 37.1852 48.4756 39.4288 44.934 36.2237C46.2218 37.8263 46.2218 40.7109 44.2904 43.9159C43.0024 46.1597 40.7488 47.4414 38.4952 48.0825C33.0221 35.9032 35.9196 28.2109 41.0707 25.6469C39.1391 21.8007 39.1391 20.5187 39.1391 20.5187C39.1391 20.5187 50.407 22.4418 54.2704 21.8008C59.0998 20.8392 66.8265 22.1213 69.7239 28.5315C74.5533 30.4545 76.1629 33.3391 76.807 36.5442C77.7725 41.3519 74.8751 46.8003 74.2314 49.0442Z" fill="#AAB2C5"/>
<path d="M43.3182 77.2488V66.3515C42.9963 66.031 42.9963 66.031 42.6743 65.7104V65.0693C43.3182 66.031 43.9621 66.9926 44.928 67.6333L53.6207 73.7232C55.5522 75.3255 58.4496 75.3255 60.3815 73.7232L68.4301 66.6721C68.7519 66.3515 69.0738 66.3515 69.396 66.031C69.396 66.9926 69.396 68.5949 69.396 77.2488C69.396 77.8899 69.396 78.2105 69.7179 78.8511H43.3182C42.9963 78.2105 43.3182 77.8899 43.3182 77.2488Z" fill="url(#paint0_linear_1857_3001)"/>
<path d="M108.742 100.2C108.35 101.868 107.761 103.634 107.074 105.106C105.21 108.737 102.266 111.583 98.6353 113.447C94.9065 115.312 90.4907 116.097 86.075 115.115C75.6734 112.957 69.0007 102.751 71.1595 92.3498C73.3183 81.9482 83.4255 75.1774 93.8271 77.4344C97.5559 78.2194 100.794 80.0838 103.542 82.6351C108.154 87.2471 110.116 93.9198 108.742 100.2Z" fill="url(#paint1_linear_1857_3001)"/>
<path d="M96.0841 94.6066H91.6683V90.1909C91.6683 89.3077 90.9814 88.5227 90.0001 88.5227C89.117 88.5227 88.332 89.2096 88.332 90.1909V94.6066H83.9162C83.0331 94.6066 82.248 95.2935 82.248 96.2748C82.248 97.2561 82.9349 97.943 83.9162 97.943H88.332V102.359C88.332 103.242 89.0189 104.027 90.0001 104.027C90.8833 104.027 91.6683 103.34 91.6683 102.359V97.943H96.0841C96.9672 97.943 97.7522 97.2561 97.7522 96.2748C97.7522 95.2935 96.9672 94.6066 96.0841 94.6066Z" fill="white"/>
<defs>
<linearGradient id="paint0_linear_1857_3001" x1="56.144" y1="78.4223" x2="56.144" y2="71.2031" gradientUnits="userSpaceOnUse">
<stop stop-color="white"/>
<stop offset="0.9913" stop-color="#D6DEEA"/>
</linearGradient>
<linearGradient id="paint1_linear_1857_3001" x1="70.7363" y1="96.2744" x2="109.18" y2="96.2744" gradientUnits="userSpaceOnUse">
<stop stop-color="#B0BACC"/>
<stop offset="1" stop-color="#969EAE"/>
</linearGradient>
</defs>
</svg>
