<svg width="31" height="41" viewBox="0 0 31 41" fill="none" xmlns="http://www.w3.org/2000/svg">
<g filter="url(#filter0_d_1_4292)">
<circle cx="15.6953" cy="16.9678" r="12.25" fill="#704385" stroke="white" stroke-width="1.5"/>
<path d="M15.6606 33.7837C15.5806 33.8914 15.4194 33.8914 15.3394 33.7837L11.8398 29.0692C11.7419 28.9372 11.8361 28.75 12.0004 28.75L18.9996 28.75C19.1639 28.75 19.2581 28.9372 19.1602 29.0692L15.6606 33.7837Z" fill="white"/>
</g>
<path d="M10.95 15.9943C11.667 15.9943 12.25 15.3972 12.25 14.6628C12.25 13.9285 11.667 13.3314 10.95 13.3314C10.233 13.3314 9.65 13.9285 9.65 14.6628C9.65 15.3972 10.233 15.9943 10.95 15.9943ZM20.05 15.9943C20.767 15.9943 21.35 15.3972 21.35 14.6628C21.35 13.9285 20.767 13.3314 20.05 13.3314C19.333 13.3314 18.75 13.9285 18.75 14.6628C18.75 15.3972 19.333 15.9943 20.05 15.9943ZM20.7 16.66H19.4C19.0425 16.66 18.7195 16.8077 18.4839 17.0469C19.3025 17.5067 19.8834 18.3367 20.0094 19.3228H21.35C21.7095 19.3228 22 19.0253 22 18.6571V17.9914C22 17.257 21.417 16.66 20.7 16.66ZM15.5 16.66C16.7573 16.66 17.775 15.6177 17.775 14.33C17.775 13.0422 16.7573 12 15.5 12C14.2427 12 13.225 13.0422 13.225 14.33C13.225 15.6177 14.2427 16.66 15.5 16.66ZM17.06 17.3257H16.8914C16.4689 17.5337 15.9997 17.6585 15.5 17.6585C15.0003 17.6585 14.5331 17.5337 14.1086 17.3257H13.94C12.6481 17.3257 11.6 18.3991 11.6 19.7222V20.3214C11.6 20.8726 12.0367 21.3199 12.575 21.3199H18.425C18.9633 21.3199 19.4 20.8726 19.4 20.3214V19.7222C19.4 18.3991 18.3519 17.3257 17.06 17.3257ZM12.5161 17.0469C12.2805 16.8077 11.9575 16.66 11.6 16.66H10.3C9.58297 16.66 9 17.257 9 17.9914V18.6571C9 19.0253 9.29047 19.3228 9.65 19.3228H10.9886C11.1166 18.3367 11.6975 17.5067 12.5161 17.0469Z" fill="white"/>
<defs>
<filter id="filter0_d_1_4292" x="0.695312" y="2.96777" width="30" height="33.8965" filterUnits="userSpaceOnUse" color-interpolation-filters="sRGB">
<feFlood flood-opacity="0" result="BackgroundImageFix"/>
<feColorMatrix in="SourceAlpha" type="matrix" values="0 0 0 0 0 0 0 0 0 0 0 0 0 0 0 0 0 0 127 0" result="hardAlpha"/>
<feOffset dy="1"/>
<feGaussianBlur stdDeviation="1"/>
<feComposite in2="hardAlpha" operator="out"/>
<feColorMatrix type="matrix" values="0 0 0 0 0 0 0 0 0 0 0 0 0 0 0 0 0 0 0.25 0"/>
<feBlend mode="normal" in2="BackgroundImageFix" result="effect1_dropShadow_1_4292"/>
<feBlend mode="normal" in="SourceGraphic" in2="effect1_dropShadow_1_4292" result="shape"/>
</filter>
</defs>
</svg>
