<svg width="300" height="214" viewBox="0 0 300 214" fill="none" xmlns="http://www.w3.org/2000/svg">
<g filter="url(#filter0_d_3_21710)">
<path d="M133.319 57.9435L102.033 98.4016C101.05 99.8758 99.0848 100.04 97.6106 98.893L58.6267 68.2628C57.1525 67.28 56.9887 65.3144 58.1353 63.8402L98.7572 12.2438C99.74 10.7697 101.706 10.6059 103.18 11.7524L131.517 34.029L133.319 57.9435Z" fill="url(#paint0_linear_3_21710)"/>
</g>
<path d="M120.05 38.4515L101.213 23.7097C100.886 23.3821 100.722 22.8907 101.05 22.2355C101.377 21.9079 101.869 21.7441 102.524 22.0717L121.361 36.8135C121.688 37.1411 121.852 37.6325 121.524 38.2877C121.033 38.7791 120.542 38.7791 120.05 38.4515Z" fill="#D5D5D5"/>
<path d="M104.98 33.8655L97.9371 28.1325C97.6095 27.8049 97.4457 27.3135 97.7733 26.6584C98.1009 26.167 98.5923 26.167 99.2475 26.4945L106.291 32.2275C106.618 32.5551 106.782 33.0465 106.455 33.7017C105.963 34.1931 105.308 34.1931 104.98 33.8655Z" fill="#D5D5D5"/>
<path d="M131.517 34.0297L122.835 45.0041C121.525 46.6421 122.016 48.9353 123.49 50.0819L133.482 57.9442" fill="#D5D5D5"/>
<path d="M121.197 60.4002L111.369 52.8655L101.214 44.8394L91.877 37.4685C90.8942 36.6495 89.2563 36.8133 88.4373 37.9599L75.0058 54.9949C74.1868 55.9777 74.3506 57.6156 75.3334 58.4346L104.817 81.694C105.8 82.5129 107.438 82.3491 108.257 81.2026L121.688 64.1676C122.507 62.6934 122.343 61.383 121.197 60.4002ZM90.0752 60.2364L93.0236 56.3053L102.033 63.3486L99.0841 67.2797L90.0752 60.2364ZM98.2652 68.4263L95.4806 72.0299L86.4717 64.9866L89.2563 61.383L98.2652 68.4263ZM105.964 58.4346L103.015 62.3658L94.0064 55.3225L96.9548 51.3913L105.964 58.4346ZM97.7738 50.2447L101.05 46.3136L110.059 53.3569L107.11 57.288L97.7738 50.2447ZM114.154 71.0471L104.162 63.1848L107.11 59.2536L117.102 67.1159L114.154 71.0471ZM92.8598 54.3397L83.1957 46.805L86.1441 42.8738L95.8082 50.4085L92.8598 54.3397ZM82.2129 47.9516L91.877 55.4863L88.9287 59.4174L79.2646 51.8827L82.2129 47.9516ZM103.343 64.3314L113.335 72.1937L110.386 76.1248L100.395 68.2625L103.343 64.3314ZM120.542 63.021L118.085 66.1331L108.093 58.2708L111.041 54.3397L120.214 61.5468C120.869 61.8744 120.869 62.5296 120.542 63.021ZM90.8942 38.2875L99.7393 45.3308L96.791 49.2619L87.1269 41.7272L89.5838 38.6151C89.9114 38.1237 90.5666 38.1237 90.8942 38.2875ZM76.1524 55.6501L78.2818 53.0293L87.9459 60.564L85.1613 64.1676L76.1524 57.1242C75.8248 56.7966 75.8248 55.9777 76.1524 55.6501ZM105.8 80.056L96.6272 72.8489L99.4117 69.2453L109.403 77.1076L107.11 79.8922C106.783 80.5474 106.127 80.5474 105.8 80.056Z" fill="#D5D5D5"/>
<path d="M209.559 83.7913H33.1378C29.5096 83.7913 26.335 86.967 26.335 90.5963V204.468C26.335 208.097 29.5096 206.736 33.1378 206.736H209.106C212.734 206.736 215.909 208.097 215.909 204.468V90.5963C216.362 86.967 213.188 83.7913 209.559 83.7913Z" fill="#DCDCDC"/>
<path d="M203.631 90.4086H39.4481C36.0716 90.4086 33.1172 93.2516 33.1172 96.5008V198.443C33.1172 201.693 36.0716 200.474 39.4481 200.474H203.209C206.585 200.474 209.54 201.693 209.54 198.443V96.5008C209.962 93.2516 207.007 90.4086 203.631 90.4086Z" fill="white"/>
<path d="M242.668 200.385V204.014C242.668 208.097 239.039 211.727 234.958 211.727H7.74119C3.65946 211.727 0.03125 208.097 0.03125 204.014V200.385H242.668Z" fill="#DCDCDC"/>
<path d="M142.437 200.385V201.746C142.437 204.014 140.623 206.283 137.902 206.283H104.341C102.073 206.283 99.8057 204.468 99.8057 201.746V200.385H142.437Z" fill="#EEEEEE"/>
<path d="M139.262 143.223H124.296V128.252C124.296 126.437 122.935 125.076 121.121 125.076C119.307 125.076 117.947 126.437 117.947 128.252V143.223H102.98C101.166 143.223 99.8057 144.584 99.8057 146.399C99.8057 148.213 101.166 149.574 102.98 149.574H117.947V164.545C117.947 166.36 119.307 167.721 121.121 167.721C122.935 167.721 124.296 166.36 124.296 164.545V149.574H139.262C141.077 149.574 142.437 148.213 142.437 146.399C142.437 144.584 141.077 143.223 139.262 143.223Z" fill="#9F9F9F"/>
<g filter="url(#filter1_d_3_21710)">
<path d="M242.223 141.646L192.051 168.806C189.151 170.359 185.553 169.309 183.968 166.402L158.04 118.361C156.489 115.458 157.539 111.855 160.443 110.269L210.615 83.1088C213.515 81.5556 217.113 82.6056 218.697 85.5124L244.66 133.557C246.211 136.46 245.124 140.093 242.223 141.646Z" fill="url(#paint1_linear_3_21710)"/>
</g>
<path d="M235.564 135.955L191.451 159.832C190.216 160.514 188.667 160.034 187.987 158.798L166.55 119.072C165.87 117.836 166.349 116.286 167.584 115.605L211.698 91.7272C212.933 91.0461 214.481 91.526 215.161 92.7622L236.599 132.487C237.279 133.723 236.799 135.274 235.564 135.955Z" fill="white"/>
<path d="M206.275 132.379L190.169 141.091L193.275 127.617L206.275 132.379Z" fill="#B6B6B6"/>
<path d="M219.592 125.163L196.408 137.727L200.891 118.332L219.592 125.163Z" fill="#D5D5D5"/>
<path d="M187.485 125.742C189.381 125.954 191.091 124.587 191.303 122.688C191.515 120.789 190.149 119.078 188.252 118.867C186.356 118.655 184.647 120.023 184.435 121.921C184.223 123.82 185.588 125.531 187.485 125.742Z" fill="#B6B6B6"/>
<g filter="url(#filter2_d_3_21710)">
<path d="M247.721 151.989L190.68 153.118C187.391 153.168 184.675 150.585 184.6 147.275L183.588 92.693C183.541 89.4021 186.126 86.6821 189.434 86.6036L246.475 85.4754C249.764 85.4251 252.481 88.0082 252.556 91.3179L253.595 145.919C253.642 149.21 251.01 151.939 247.721 151.989Z" fill="url(#paint2_linear_3_21710)"/>
</g>
<path d="M244.414 143.877L194.262 144.867C192.853 144.906 191.697 143.77 191.659 142.359L190.826 97.2267C190.788 95.8163 191.925 94.6586 193.335 94.6196L243.487 93.6298C244.896 93.5908 246.052 94.7274 246.09 96.1378L246.923 141.27C246.961 142.681 245.824 143.838 244.414 143.877Z" fill="white"/>
<path d="M248.305 154.016L236.205 157.747L245.842 171.998L237.989 177.308L228.353 163.057L220.383 172.896L213.498 132.626L248.305 154.016Z" fill="url(#paint3_linear_3_21710)"/>
<path d="M212.204 137.05H204.789C204.107 137.05 203.554 137.603 203.554 138.285C203.554 138.968 204.107 139.521 204.789 139.521H212.204C212.887 139.521 213.44 138.968 213.44 138.285C213.44 137.603 212.887 137.05 212.204 137.05Z" fill="#DCDCDC"/>
<path opacity="0.7" d="M225.923 117.094L223.444 115.885C222.356 117.154 220.723 117.94 218.97 117.94C215.705 117.94 213.045 115.28 213.045 112.015C213.045 111.592 213.105 111.229 213.166 110.806L210.687 109.597L205.367 106.997C204.762 108.69 204.399 110.564 204.52 112.559C204.823 120.117 210.989 126.223 218.486 126.465C223.867 126.646 228.643 123.865 231.243 119.693L225.923 117.094ZM218.909 97.505C213.71 97.505 209.115 100.226 206.576 104.397L211.896 106.997L214.375 108.206C215.342 107.118 216.672 106.332 218.184 106.151L218.547 103.43L219.272 97.5654C219.151 97.505 219.03 97.505 218.909 97.505ZM222.174 97.8677L221.449 103.732L221.086 106.453C223.263 107.299 224.834 109.476 224.834 111.955C224.834 112.378 224.774 112.801 224.714 113.164L227.192 114.373L232.513 116.973C233.117 115.401 233.42 113.708 233.42 111.955V111.894C233.359 105.123 228.583 99.3792 222.174 97.8677Z" fill="#DCDCDC"/>
<path d="M218.91 97.5048C213.71 97.5048 209.115 100.225 206.576 104.397L211.897 106.997L214.375 108.206C215.343 107.118 216.673 106.332 218.184 106.15L218.547 103.43L219.273 97.5653C219.152 97.5048 219.031 97.5048 218.91 97.5048Z" fill="#F3F3F3"/>
<path d="M222.175 97.8677L221.45 103.732L221.087 106.453C223.263 107.299 224.835 109.476 224.835 111.955C224.835 112.378 224.775 112.801 224.714 113.164L227.193 114.373L232.514 116.973C233.118 115.401 233.421 113.708 233.421 111.955V111.894C233.36 105.123 228.584 99.3792 222.175 97.8677Z" fill="#B2B2B2"/>
<path opacity="0.1" d="M214.374 108.206L211.896 106.997C213.407 104.941 215.765 103.551 218.486 103.43L218.123 106.151C216.672 106.332 215.342 107.057 214.374 108.206Z" fill="#4E4E4E"/>
<path opacity="0.1" d="M223.444 115.884L225.923 117.094C224.351 119.27 221.811 120.661 218.909 120.661C214.133 120.661 210.264 116.791 210.264 112.015C210.264 111.169 210.385 110.383 210.626 109.597L213.105 110.806C213.045 111.169 212.984 111.592 212.984 112.015C212.984 115.28 215.645 117.94 218.909 117.94C220.723 117.94 222.355 117.154 223.444 115.884Z" fill="#4E4E4E"/>
<path opacity="0.1" d="M227.556 112.015C227.556 112.862 227.435 113.708 227.193 114.434L224.714 113.224C224.775 112.801 224.835 112.438 224.835 112.015C224.835 109.536 223.263 107.36 221.087 106.513L221.45 103.793C224.956 104.821 227.556 108.146 227.556 112.015Z" fill="#4E4E4E"/>
<path d="M232.203 130.939H204.776C204.101 130.939 203.554 131.487 203.554 132.161C203.554 132.836 204.101 133.384 204.776 133.384H232.203C232.878 133.384 233.425 132.836 233.425 132.161C233.425 131.487 232.878 130.939 232.203 130.939Z" fill="#DCDCDC"/>
<path d="M76.6802 99.1409V139.533C76.6802 140.437 75.9527 141.169 75.0539 141.169H42.057C41.1582 141.169 40.4307 140.437 40.4307 139.533V99.1409C40.4307 98.2367 41.1582 97.5046 42.057 97.5046H75.0539C75.9527 97.5046 76.6802 98.2367 76.6802 99.1409Z" fill="url(#paint4_linear_3_21710)"/>
<path d="M76.6802 99.2167V103.272H40.4307V99.2167C40.4307 98.2705 41.1582 97.5046 42.057 97.5046H75.0539C75.9527 97.5046 76.6802 98.2705 76.6802 99.2167Z" fill="#DCDCDC"/>
<path d="M42.902 100.8C43.357 100.8 43.7258 100.431 43.7258 99.9762C43.7258 99.5212 43.357 99.1523 42.902 99.1523C42.447 99.1523 42.0781 99.5212 42.0781 99.9762C42.0781 100.431 42.447 100.8 42.902 100.8Z" fill="#ADADAD"/>
<path d="M45.3737 100.8C45.8287 100.8 46.1975 100.431 46.1975 99.9762C46.1975 99.5212 45.8287 99.1523 45.3737 99.1523C44.9187 99.1523 44.5498 99.5212 44.5498 99.9762C44.5498 100.431 44.9187 100.8 45.3737 100.8Z" fill="#ADADAD"/>
<path d="M47.8453 100.8C48.3003 100.8 48.6692 100.431 48.6692 99.9762C48.6692 99.5212 48.3003 99.1523 47.8453 99.1523C47.3903 99.1523 47.0215 99.5212 47.0215 99.9762C47.0215 100.431 47.3903 100.8 47.8453 100.8Z" fill="#ADADAD"/>
<path opacity="0.3" d="M72.4327 132.862H68.4754C68.0883 132.862 67.7441 132.561 67.7441 132.131V111.097C67.7441 110.71 68.0452 110.366 68.4754 110.366H72.4327C72.8198 110.366 73.1639 110.667 73.1639 111.097V132.131C73.1639 132.518 72.8628 132.862 72.4327 132.862Z" fill="#F3F3F3" stroke="#DCDCDC" stroke-width="2" stroke-miterlimit="10" stroke-linejoin="round"/>
<path opacity="0.3" d="M72.4327 132.862H68.4754C68.0883 132.862 67.7441 132.561 67.7441 132.131V118.667C67.7441 118.28 68.0452 117.936 68.4754 117.936H72.4327C72.8198 117.936 73.1639 118.237 73.1639 118.667V132.131C73.1639 132.518 72.8628 132.862 72.4327 132.862Z" fill="#F3F3F3" stroke="#DCDCDC" stroke-width="2" stroke-miterlimit="10" stroke-linejoin="round"/>
<path d="M64.5606 132.862H60.6033C60.2162 132.862 59.8721 132.561 59.8721 132.131V111.097C59.8721 110.71 60.1732 110.366 60.6033 110.366H64.5606C64.9477 110.366 65.2918 110.667 65.2918 111.097V132.131C65.2918 132.518 64.9477 132.862 64.5606 132.862Z" fill="#EEEEEE"/>
<path d="M64.5606 132.862H60.6033C60.2162 132.862 59.8721 132.561 59.8721 132.131V124.302C59.8721 123.915 60.1732 123.571 60.6033 123.571H64.5606C64.9477 123.571 65.2918 123.872 65.2918 124.302V132.131C65.2918 132.518 64.9477 132.862 64.5606 132.862Z" fill="#DCDCDC"/>
<path d="M56.6905 132.862H52.7332C52.3461 132.862 52.002 132.561 52.002 132.131V111.097C52.002 110.71 52.3031 110.366 52.7332 110.366H56.6905C57.0776 110.366 57.4217 110.667 57.4217 111.097V132.131C57.3787 132.518 57.0776 132.862 56.6905 132.862Z" fill="#EEEEEE"/>
<path d="M56.6905 132.862H52.7332C52.3461 132.862 52.002 132.561 52.002 132.131V115.871C52.002 115.484 52.3031 115.14 52.7332 115.14H56.6905C57.0776 115.14 57.4217 115.441 57.4217 115.871V132.131C57.3787 132.518 57.0776 132.862 56.6905 132.862Z" fill="#DCDCDC"/>
<path d="M48.7754 132.862H44.8182C44.431 132.862 44.0869 132.561 44.0869 132.131V111.097C44.0869 110.71 44.388 110.366 44.8182 110.366H48.7754C49.1626 110.366 49.5067 110.667 49.5067 111.097V132.131C49.5067 132.518 49.1626 132.862 48.7754 132.862Z" fill="#EEEEEE"/>
<path d="M48.7754 132.862H44.8182C44.431 132.862 44.0869 132.561 44.0869 132.13V124.818C44.0869 124.431 44.388 124.087 44.8182 124.087H48.7754C49.1626 124.087 49.5067 124.388 49.5067 124.818V132.13C49.5067 132.517 49.1626 132.862 48.7754 132.862Z" fill="#DCDCDC"/>
<defs>
<filter id="filter0_d_3_21710" x="35.3828" y="0" width="119.936" height="132.645" filterUnits="userSpaceOnUse" color-interpolation-filters="sRGB">
<feFlood flood-opacity="0" result="BackgroundImageFix"/>
<feColorMatrix in="SourceAlpha" type="matrix" values="0 0 0 0 0 0 0 0 0 0 0 0 0 0 0 0 0 0 127 0" result="hardAlpha"/>
<feOffset dy="11"/>
<feGaussianBlur stdDeviation="11"/>
<feColorMatrix type="matrix" values="0 0 0 0 0.467568 0 0 0 0 0.467568 0 0 0 0 0.467568 0 0 0 0.27 0"/>
<feBlend mode="normal" in2="BackgroundImageFix" result="effect1_dropShadow_3_21710"/>
<feBlend mode="normal" in="SourceGraphic" in2="effect1_dropShadow_3_21710" result="shape"/>
</filter>
<filter id="filter1_d_3_21710" x="135.325" y="71.3925" width="132.041" height="131.129" filterUnits="userSpaceOnUse" color-interpolation-filters="sRGB">
<feFlood flood-opacity="0" result="BackgroundImageFix"/>
<feColorMatrix in="SourceAlpha" type="matrix" values="0 0 0 0 0 0 0 0 0 0 0 0 0 0 0 0 0 0 127 0" result="hardAlpha"/>
<feOffset dy="11"/>
<feGaussianBlur stdDeviation="11"/>
<feColorMatrix type="matrix" values="0 0 0 0 0.467568 0 0 0 0 0.467568 0 0 0 0 0.467568 0 0 0 0.27 0"/>
<feBlend mode="normal" in2="BackgroundImageFix" result="effect1_dropShadow_3_21710"/>
<feBlend mode="normal" in="SourceGraphic" in2="effect1_dropShadow_3_21710" result="shape"/>
</filter>
<filter id="filter2_d_3_21710" x="161.587" y="74.4747" width="114.009" height="111.644" filterUnits="userSpaceOnUse" color-interpolation-filters="sRGB">
<feFlood flood-opacity="0" result="BackgroundImageFix"/>
<feColorMatrix in="SourceAlpha" type="matrix" values="0 0 0 0 0 0 0 0 0 0 0 0 0 0 0 0 0 0 127 0" result="hardAlpha"/>
<feOffset dy="11"/>
<feGaussianBlur stdDeviation="11"/>
<feColorMatrix type="matrix" values="0 0 0 0 0.467568 0 0 0 0 0.467568 0 0 0 0 0.467568 0 0 0 0.27 0"/>
<feBlend mode="normal" in2="BackgroundImageFix" result="effect1_dropShadow_3_21710"/>
<feBlend mode="normal" in="SourceGraphic" in2="effect1_dropShadow_3_21710" result="shape"/>
</filter>
<linearGradient id="paint0_linear_3_21710" x1="95.3259" y1="8.94955" x2="95.3259" y2="100.601" gradientUnits="userSpaceOnUse">
<stop stop-color="#FDFDFD"/>
<stop offset="0.9964" stop-color="#EFEFEF"/>
</linearGradient>
<linearGradient id="paint1_linear_3_21710" x1="206.5" y1="79.4997" x2="196.253" y2="171.314" gradientUnits="userSpaceOnUse">
<stop stop-color="#FDFDFD"/>
<stop offset="0.9964" stop-color="#EFEFEF"/>
</linearGradient>
<linearGradient id="paint2_linear_3_21710" x1="244.474" y1="80.3813" x2="193.263" y2="157.273" gradientUnits="userSpaceOnUse">
<stop stop-color="#FDFDFD"/>
<stop offset="0.9964" stop-color="#EFEFEF"/>
</linearGradient>
<linearGradient id="paint3_linear_3_21710" x1="213.736" y1="163.093" x2="241.675" y2="144.201" gradientUnits="userSpaceOnUse">
<stop stop-color="#B9B9B9"/>
<stop offset="1" stop-color="#9D9D9D"/>
</linearGradient>
<linearGradient id="paint4_linear_3_21710" x1="58.5436" y1="96.4946" x2="58.5436" y2="141.64" gradientUnits="userSpaceOnUse">
<stop stop-color="#FDFDFD"/>
<stop offset="0.9964" stop-color="#EFEFEF"/>
</linearGradient>
</defs>
</svg>
