<svg width="12" height="16" viewBox="0 0 12 16" fill="none" xmlns="http://www.w3.org/2000/svg">
<path d="M9.34568 10.2472H7.46106C6.92454 10.2515 6.40524 10.4371 5.98754 10.7739C5.56984 11.1106 5.27829 11.5787 5.16027 12.1021C-0.0893157 11.6859 -0.0893157 6.21638 5.16027 5.79427C5.28062 6.31547 5.57316 6.78087 5.99064 7.11529C6.40812 7.4497 6.92616 7.63361 7.46106 7.63728H9.34568C9.67249 7.63808 9.99595 7.57151 10.2959 7.44173C10.5958 7.31195 10.8658 7.12174 11.0889 6.88297C11.3121 6.6442 11.4836 6.36201 11.5928 6.05399C11.7021 5.74597 11.7466 5.41875 11.7237 5.09274C11.7237 4.46204 11.4732 3.85717 11.0272 3.41119C10.5813 2.96522 9.97638 2.71467 9.34568 2.71467H7.46106C6.92106 2.71854 6.39846 2.90608 5.97922 3.24645C5.55998 3.58681 5.26907 4.05972 5.15433 4.5874C3.67957 4.63503 2.27326 5.22082 1.20079 6.23422V1.46024C1.20079 1.30256 1.13815 1.15135 1.02666 1.03985C0.915163 0.928359 0.763946 0.865723 0.60627 0.865723C0.448594 0.865723 0.297376 0.928359 0.185882 1.03985C0.0743887 1.15135 0.0117523 1.30256 0.0117523 1.46024V8.59445C-0.184438 11.1211 2.09851 13.1722 5.15433 13.3506C5.28631 13.8617 5.58463 14.3145 6.00227 14.6374C6.41991 14.9603 6.93314 15.1351 7.46106 15.1341H9.34568C12.4847 15.0925 12.4847 10.3126 9.34568 10.2472Z" fill="#4F5E71"/>
</svg>
