<svg width="210" height="133" viewBox="0 0 210 133" fill="none" xmlns="http://www.w3.org/2000/svg">
<path d="M169.404 19.4951H25.2166C22.0445 19.4951 19.2568 22.2827 19.2568 25.4549V124.656C19.2568 127.828 22.0445 126.675 25.2166 126.675H169.02C172.192 126.675 174.98 127.828 174.98 124.656V25.4549C175.364 22.2827 172.576 19.4951 169.404 19.4951Z" fill="#F1F3F9" stroke="#D6DCE8" stroke-width="2" stroke-miterlimit="10" stroke-linejoin="round"/>
<path d="M193.531 121.099V124.271C193.531 127.828 190.359 131 186.803 131H7.91382C4.35719 131 1.18506 127.828 1.18506 124.271V121.099H193.531Z" fill="white" stroke="#D6DCE8" stroke-width="2.1011" stroke-miterlimit="10"/>
<path d="M115.766 121.099V122.253C115.766 124.271 114.228 126.194 111.825 126.194H82.507C80.4884 126.194 78.5659 124.656 78.5659 122.253V121.099H115.766Z" fill="#F1F3F9" stroke="#D6DCE8" stroke-width="2" stroke-miterlimit="10" stroke-linejoin="round"/>
<path d="M158.158 32.472V111.102C157.966 114.371 155.37 117.062 152.006 117.062H35.5021C32.0416 117.062 29.3501 114.371 29.3501 111.102V32.472C29.3501 29.2037 32.0416 26.5122 35.5021 26.5122H152.102C155.562 26.5122 158.158 29.2037 158.158 32.472Z" fill="#F1F3F9" stroke="#D6DCE8" stroke-width="2.1011" stroke-miterlimit="10"/>
<path d="M36.3672 35.5479C37.5207 35.5479 38.4819 34.5866 38.4819 33.4331C38.4819 32.2796 37.5207 31.3184 36.3672 31.3184C35.2137 31.3184 34.2524 32.2796 34.2524 33.4331C34.2524 34.5866 35.2137 35.5479 36.3672 35.5479Z" fill="#D6DCE8"/>
<path d="M42.6147 35.5479C43.7683 35.5479 44.7295 34.5866 44.7295 33.4331C44.7295 32.2796 43.7683 31.3184 42.6147 31.3184C41.4612 31.3184 40.5 32.2796 40.5 33.4331C40.5 34.5866 41.4612 35.5479 42.6147 35.5479Z" fill="#D6DCE8"/>
<path d="M49.0557 35.5479C50.2092 35.5479 51.1704 34.5866 51.1704 33.4331C51.1704 32.2796 50.2092 31.3184 49.0557 31.3184C47.9022 31.3184 46.9409 32.2796 46.9409 33.4331C46.9409 34.5866 47.9022 35.5479 49.0557 35.5479Z" fill="#F1F3F9"/>
<path opacity="0.4" d="M158.158 32.4725V108.796H43.7687C40.3082 108.796 37.6167 106.104 37.6167 102.836V26.5127H152.006C155.562 26.5127 158.158 29.2042 158.158 32.4725Z" fill="#D6DDE8"/>
<path d="M171.423 19.3035V97.9339C171.423 98.03 171.423 98.2222 171.423 98.3184C171.135 101.49 168.539 103.894 165.367 103.894H48.7672C45.3067 103.894 42.6152 101.202 42.6152 97.9339V19.3035C42.6152 16.0353 45.3067 13.3438 48.7672 13.3438H165.367C168.828 13.3438 171.423 15.9391 171.423 19.3035Z" fill="#F1F3F9" stroke="#D6DCE8" stroke-width="2.1011" stroke-miterlimit="10"/>
<path d="M49.6328 22.3794C50.7863 22.3794 51.7476 21.4182 51.7476 20.2647C51.7476 19.1112 50.7863 18.1499 49.6328 18.1499C48.4793 18.1499 47.5181 19.1112 47.5181 20.2647C47.5181 21.4182 48.4793 22.3794 49.6328 22.3794Z" fill="#D6DCE8"/>
<path d="M55.8809 22.3794C57.0344 22.3794 57.9956 21.4182 57.9956 20.2647C57.9956 19.1112 57.0344 18.1499 55.8809 18.1499C54.7274 18.1499 53.7661 19.1112 53.7661 20.2647C53.7661 21.4182 54.7274 22.3794 55.8809 22.3794Z" fill="#D6DCE8"/>
<path d="M62.3208 22.3794C63.4743 22.3794 64.4356 21.4182 64.4356 20.2647C64.4356 19.1112 63.4743 18.1499 62.3208 18.1499C61.1673 18.1499 60.2061 19.1112 60.2061 20.2647C60.2061 21.4182 61.1673 22.3794 62.3208 22.3794Z" fill="#F1F3F9"/>
<path opacity="0.4" d="M171.422 19.303V97.9333C171.422 98.0294 171.422 98.2217 171.422 98.3178H57.8986C54.4381 98.3178 51.7466 95.6263 51.7466 92.3581V13.6316C51.7466 13.5354 51.7466 13.3432 51.7466 13.2471H165.27C168.827 13.3432 171.422 15.9386 171.422 19.303Z" fill="#D6DDE8"/>
<path d="M185.072 86.5901C184.88 89.8584 182.284 92.5499 178.92 92.5499H62.4162C58.9557 92.5499 56.2642 89.8584 56.2642 86.5901V7.95976C56.2642 4.6915 58.9557 2 62.4162 2H179.016C182.476 2 185.168 4.6915 185.168 7.95976V86.5901H185.072Z" fill="white" stroke="#D6DCE8" stroke-width="2.1011" stroke-miterlimit="10"/>
<path d="M56.2642 15.7466H184.88" stroke="#D6DCE8" stroke-width="2.1011" stroke-miterlimit="10"/>
<path d="M63.2817 11.1318C64.4352 11.1318 65.3965 10.1705 65.3965 9.01703C65.3965 7.86353 64.4352 6.80615 63.2817 6.80615C62.1282 6.80615 61.167 7.7674 61.167 8.92091C61.167 10.0744 62.1282 11.1318 63.2817 11.1318Z" fill="#AAB2C5"/>
<path d="M69.5298 11.1318C70.6833 11.1318 71.6445 10.1705 71.6445 9.01703C71.6445 7.86353 70.6833 6.80615 69.5298 6.80615C68.3763 6.80615 67.415 7.7674 67.415 8.92091C67.415 10.0744 68.3763 11.1318 69.5298 11.1318Z" fill="#AAB2C5"/>
<path d="M75.9697 11.1318C77.1232 11.1318 78.0845 10.1705 78.0845 9.01703C78.0845 7.86353 77.1232 6.80615 75.9697 6.80615C74.8162 6.80615 73.855 7.7674 73.855 8.92091C73.855 10.0744 74.7201 11.1318 75.9697 11.1318Z" fill="#AAB2C5"/>
<path d="M107.98 33.0679C110.412 33.0679 112.383 35.0389 112.383 37.4702C112.383 39.9016 110.412 41.8726 107.98 41.8726C105.549 41.8725 103.578 39.9016 103.578 37.4702C103.578 35.0389 105.549 33.0679 107.98 33.0679Z" fill="#AAB2C5" stroke="white"/>
<path d="M131.435 33.0679C133.866 33.0679 135.837 35.0389 135.837 37.4702C135.837 39.9016 133.866 41.8726 131.435 41.8726C129.004 41.8725 127.033 39.9016 127.033 37.4702C127.033 35.0389 129.004 33.0679 131.435 33.0679Z" fill="#AAB2C5" stroke="white"/>
<path d="M129.993 62.6553H109.422C106.154 62.6553 104.327 59.0026 106.25 56.3111C107.692 54.2925 109.518 52.6583 111.633 51.4087C114.036 50.0629 116.823 49.2939 119.707 49.2939C123.168 49.2939 126.34 50.3513 129.031 52.1777C130.665 53.3312 132.107 54.677 133.261 56.3111C135.087 59.0026 133.261 62.6553 129.993 62.6553Z" fill="#D6DCE8" stroke="#D6DCE8" stroke-width="1.7035" stroke-miterlimit="10"/>
<path d="M126.917 62.6548H112.594C112.498 62.4625 112.498 62.2703 112.594 62.078C113.651 59.0982 116.439 56.9834 119.803 56.9834C123.168 56.9834 125.955 59.0982 127.013 62.078C127.013 62.2703 127.013 62.4625 126.917 62.6548Z" fill="#AAB2C5"/>
<path d="M129.031 53.1386V53.9076C129.031 54.4844 128.55 54.8689 128.07 54.8689H112.69C112.113 54.8689 111.729 54.3883 111.729 53.9076V52.3696C114.132 51.0239 116.919 50.2549 119.803 50.2549C123.167 50.2549 126.34 51.3123 129.031 53.1386Z" fill="white"/>
<path d="M83.8523 36.0228C83.8523 37.9485 82.357 39.4891 80.4879 39.4891C78.6188 39.4891 77.1235 37.9485 77.1235 36.0228C77.1235 34.5593 79.1422 30.1687 80.0393 28.243C80.1889 27.8578 80.7122 27.8578 80.9365 28.243C81.8337 30.0916 83.8523 34.4823 83.8523 36.0228Z" fill="#D6DCE8"/>
<path d="M203.144 18.0532C204.682 19.495 204.874 21.8982 203.433 23.5323C201.991 25.0703 199.588 25.2625 197.953 23.8207C196.704 22.7633 194.589 17.7648 193.724 15.5539C193.532 15.1694 193.916 14.6888 194.397 14.7849C196.704 15.3616 201.895 16.8997 203.144 18.0532Z" fill="#D6DCE8"/>
<path d="M202.567 35.0676C203.72 36.894 203.24 39.201 201.413 40.3545C199.587 41.508 197.28 41.0274 196.127 39.201C195.261 37.8552 194.492 32.4722 194.204 30.0691C194.108 29.5885 194.685 29.3001 195.069 29.4923C197.088 30.742 201.702 33.6257 202.567 35.0676Z" fill="#D6DCE8"/>
<path d="M76.1628 44.6737C76.1628 46.5994 74.6676 48.14 72.7985 48.14C70.9294 48.14 69.4341 46.5994 69.4341 44.6737C69.4341 43.2102 71.4527 38.8195 72.3499 36.8938C72.4994 36.5087 73.0228 36.5087 73.247 36.8938C74.1442 38.8195 76.1628 43.2102 76.1628 44.6737Z" fill="#D6DCE8"/>
<path d="M169.404 62.6553H189.782C191.032 62.6553 192.185 63.1359 193.051 64.001L207.469 78.4198C208.334 79.2849 208.815 80.4384 208.815 81.6881V101.97C208.815 103.22 208.334 104.374 207.469 105.239L193.243 119.465C192.378 120.33 191.224 120.811 189.975 120.811H169.404C168.154 120.811 167.001 120.33 166.135 119.465L151.524 104.854C150.659 103.989 150.179 102.836 150.179 101.586V81.6881C150.179 80.4384 150.659 79.2849 151.524 78.4198L166.039 64.001C167.001 63.1359 168.154 62.6553 169.404 62.6553Z" fill="#D6DCE8" stroke="#AAB2C5" stroke-width="2" stroke-miterlimit="10" stroke-linejoin="round"/>
<path d="M181.884 72.0366L181.962 72.0493C182.838 72.1889 183.958 72.9291 183.958 74.231V83.8774C183.958 84.5166 183.959 85.221 183.854 86.0288L183.853 86.0396L183.851 86.0503L182.793 92.9409L182.791 92.9507L182.79 92.9604C182.612 93.9816 181.723 94.7993 180.555 94.7993H178.44C177.893 94.7993 177.388 94.5858 177.008 94.2798C176.629 93.9746 176.303 93.5194 176.205 92.9604L176.204 92.9507L176.202 92.9409L175.145 86.0503V86.0464C175.036 85.3169 175.037 84.5979 175.037 83.8774V74.231C175.037 72.9934 176.105 72.0366 177.287 72.0366H181.884Z" fill="white" stroke="#AAB2C5" stroke-width="2"/>
<path d="M181.805 99.7207C183.126 99.7209 184.246 100.841 184.246 102.162V106.873C184.246 108.194 183.126 109.314 181.805 109.314H177.094C175.773 109.314 174.653 108.194 174.652 106.873V102.162C174.653 100.841 175.773 99.721 177.094 99.7207H181.805Z" fill="white" stroke="#AAB2C5" stroke-width="2"/>
</svg>
