<svg width="88" height="88" viewBox="0 0 88 88" fill="none" xmlns="http://www.w3.org/2000/svg">
<g clip-path="url(#clip0_2324_2884)">
<path fill-rule="evenodd" clip-rule="evenodd" d="M18.0088 101.531C27.8992 103.019 37.969 103.094 47.9415 102.554C51.8883 102.261 55.8471 102.208 59.7907 102.582C62.121 102.754 72.3381 103.528 73.1728 101.46C72.6474 90.4471 71.5833 79.3405 68.319 68.749C66.9765 64.9882 65.8235 61.8668 63.2034 58.7547C62.3776 57.905 60.5967 56.1229 59.5763 55.5416C58.6923 55.0382 58.3228 55.2178 57.8151 54.3674C57.3107 53.428 56.9386 51.8591 56.2224 51.1962C55.4931 50.5213 54.4123 50.7628 53.0728 50.9802C53.3189 47.6847 51.7837 46.8454 49.6688 46.2187C45.9514 44.8128 42.28 45.5191 41.3444 50.0033C39.6096 50.0033 38.6351 50.7431 37.5816 51.4539C37.1509 51.7445 37.4505 52.4848 36.9361 52.7132C35.9844 53.049 34.3025 52.9667 33.3862 53.38C29.2191 55.2591 25.5077 57.9841 23.0703 61.9638C17.606 70.4606 13.8524 88.3592 14.5019 98.4299C14.2173 98.8721 14.6109 99.5062 14.7109 99.9817C14.8372 100.395 15.2461 100.671 15.6728 100.623C16.2683 101.258 17.1893 101.399 18.0088 101.531Z" fill="white"/>
<path fill-rule="evenodd" clip-rule="evenodd" d="M58.9457 55.2924C58.885 55.2589 58.9385 55.1729 58.9995 55.2013C61.9326 56.5648 64.1828 58.957 65.7661 61.721C67.4055 64.583 68.3399 67.8324 69.1455 71.0083L69.1746 71.1231C70.0336 74.5206 70.764 77.9532 71.4216 81.3942C72.0875 84.8788 72.6221 88.385 73.0521 91.9056C73.2648 93.6464 73.4544 95.3902 73.6024 97.1376C73.6763 98.0107 73.7434 98.8846 73.8037 99.7589C73.8279 100.108 73.8506 100.458 73.87 100.808L73.884 101.071C73.896 101.309 73.9246 101.547 73.8652 101.782C73.814 101.985 73.7058 102.168 73.6106 102.354C73.4224 102.721 72.9065 102.661 72.7037 102.354L72.6448 102.265C72.5103 102.059 72.3986 101.867 72.3564 101.611C72.3156 101.363 72.314 101.103 72.2957 100.852C72.262 100.391 72.2333 99.9288 72.2006 99.4674C72.132 98.4961 72.0548 97.5254 71.9694 96.5554C71.8005 94.6406 71.6194 92.7274 71.3969 90.8178C71.0016 87.4241 70.5055 84.0393 69.9207 80.6726C69.3493 77.3837 68.6269 74.1282 67.8733 70.8768L67.7953 70.5405C66.4758 64.8637 64.4422 58.3261 58.9457 55.2924ZM27.7036 77.5214C27.7251 77.4646 27.8179 77.4516 27.8336 77.5214C28.0312 78.4029 28.0507 79.3109 28.0809 80.2134C28.1107 81.1037 28.1095 81.998 28.0964 82.8888C28.0481 86.1628 27.9574 89.4339 27.879 92.7073C27.8397 94.3447 27.803 95.9823 27.7747 97.6199C27.764 98.2342 27.7551 98.8483 27.7476 99.4626L27.7385 100.273C27.734 100.631 27.7245 100.985 27.6804 101.342C27.6513 101.578 27.5894 101.802 27.4583 102.004C27.3652 102.147 27.2326 102.22 27.1033 102.317L27.0791 102.336C26.9143 102.465 26.7406 102.466 26.5773 102.336L26.5299 102.298C26.3739 102.178 26.2391 102.083 26.1395 101.892C26.001 101.626 25.9788 101.337 25.9552 101.045C25.9195 100.6 25.9432 100.15 25.9478 99.7045C25.9571 98.8111 25.9695 97.9178 25.9854 97.0244C26.0434 93.7483 26.1582 90.4717 26.3674 87.2015C26.4659 85.6612 26.5995 84.1158 26.7788 82.5817L26.8129 82.2942C26.8673 81.8428 26.9168 81.3834 26.9727 80.9225C26.1387 80.3412 25.4056 79.6359 24.7804 78.8358C24.7344 78.7769 24.8101 78.6943 24.8657 78.7513C25.5045 79.4067 26.2369 79.9292 27.0478 80.3401C27.1807 79.3753 27.3633 78.4157 27.7036 77.5214ZM41.6371 48.3186C41.6485 48.3099 41.6664 48.306 41.6773 48.3186C41.8566 48.5257 41.8202 48.8424 41.826 49.1048L41.8267 49.1293C41.8395 49.513 41.842 49.8955 41.8407 50.2794L41.8367 51.5015C41.8361 51.6695 41.8224 51.8444 41.8311 52.0135L41.8356 52.0789C41.9298 52.1745 41.9735 52.3126 41.9416 52.4513C41.9358 52.6292 41.842 52.7777 41.705 52.871L41.9985 53.2836L42.2923 53.696C42.8979 54.5471 43.5101 55.3906 44.1481 56.2182C44.7987 57.0621 45.4928 57.8741 46.2191 58.6549C46.5739 59.0364 46.9348 59.4126 47.3041 59.7804C47.4542 59.9299 47.608 60.0757 47.7601 60.2231L47.9114 60.3713C48.0008 60.4599 48.1133 60.5475 48.1727 60.6598C48.2076 60.726 48.2155 60.8893 48.228 60.9163C48.34 61.1603 48.1489 61.5494 47.8312 61.4277L47.8456 61.4181C47.9035 61.3783 47.8664 61.3777 47.7344 61.4165C47.6511 61.4162 47.573 61.3972 47.5001 61.3596L47.4784 61.3478C47.3756 61.296 47.284 61.1959 47.2005 61.1159L47.1798 61.0963C46.9889 60.9191 46.807 60.7312 46.6241 60.546C46.2423 60.1596 45.8692 59.7649 45.5079 59.3597C44.7872 58.5512 44.104 57.7098 43.457 56.8424C42.7979 55.959 42.1853 55.0301 41.6585 54.0632C41.4585 53.6962 41.2752 53.3221 41.0995 52.9438C40.7575 52.835 40.6781 52.4745 40.7019 52.0685C40.5757 51.7773 40.462 51.48 40.3948 51.1764C40.3856 51.1347 40.4396 51.0955 40.4719 51.1319C40.5813 51.2551 40.6826 51.3862 40.78 51.5207C40.8387 51.236 40.9131 50.974 40.948 50.8069L41.0997 50.0697C40.2452 50.0255 39.3089 50.3734 38.7198 50.9824C38.6882 51.141 38.565 51.2545 38.445 51.4027C38.3078 51.5722 38.1881 51.7623 38.0988 51.9612C37.9009 52.402 38.0126 53.0516 37.6284 53.375C37.5884 53.4086 37.5436 53.432 37.4975 53.4465C37.6798 54.3323 37.597 55.3083 37.5931 56.2069L37.5929 56.286C37.5938 57.2918 37.5599 58.2983 37.5207 59.3033L37.4808 60.2978C37.4291 61.6243 37.3955 62.9513 37.5256 64.2705C38.1195 63.7493 38.7336 63.2518 39.3689 62.7779C39.7865 62.4663 40.2126 62.1657 40.6464 61.8764L40.9989 61.643C41.4212 61.3624 41.8539 61.0736 42.3163 60.8726C42.9212 60.6098 43.4964 60.7001 44.0804 60.9697C44.6619 61.2382 45.2262 61.55 45.7966 61.841C46.3768 62.1369 46.9582 62.4302 47.5392 62.7244C47.9241 62.9193 48.4881 63.0952 48.7704 63.4539C48.7884 63.3745 48.8094 63.2954 48.8339 63.2166C48.8059 63.0963 48.8167 62.9664 48.8848 62.8425C49.8334 61.1154 50.711 59.3471 51.5825 57.5809C52.0237 56.6871 52.4431 55.7827 52.885 54.8894L53.3147 54.0194C53.3864 53.8744 53.4585 53.7296 53.5308 53.585C53.6393 53.3685 53.7521 53.1541 53.8618 52.9381C53.9081 52.8469 53.9662 52.7563 54.0113 52.6641L54.0326 52.618C54.0336 52.6156 54.1377 52.2912 54.0573 52.3221L54.0504 52.3254C54.0094 52.3484 53.9765 52.2973 54.0031 52.2646C54.1168 52.1253 54.2752 52.2487 54.3401 52.3777C54.5188 52.7326 54.1913 53.2896 54.0653 53.6295L54.0584 53.6485C53.6673 54.7451 53.2246 55.8212 52.771 56.8936C51.9012 58.9496 50.9669 60.974 50.0346 63.0019L50.0235 63.0368C50.2223 62.8857 50.4346 62.7487 50.6164 62.6153C51.0749 62.2787 51.5469 61.9587 52.0181 61.6397C52.8821 61.0547 53.7697 60.5083 54.6719 59.9835L54.8525 59.8788C55.3032 59.6186 55.7496 59.4077 56.2845 59.4858C56.7815 59.5584 57.2435 59.8229 57.6925 60.0378L57.7389 60.0598L59.1261 60.7133C58.9778 60.1273 58.8173 59.5441 58.6497 58.9631C58.323 57.8299 57.9635 56.7061 57.5736 55.5924C57.2095 54.5519 56.8158 53.5227 56.3995 52.5017L56.2741 52.1953C56.1043 51.7749 55.9355 51.3165 55.4503 51.187C54.9654 51.0576 54.4092 51.2495 53.9661 50.9756C53.9258 50.9507 53.9308 50.8849 53.9796 50.8728L54.2531 50.8045C54.7665 50.6779 55.3685 50.5506 55.854 50.6737C56.3823 50.8078 56.8194 51.2472 57.0758 51.704C57.3608 52.2121 57.5617 52.7807 57.778 53.3226L57.8123 53.4079C58.0605 54.0211 58.2993 54.6379 58.5278 55.2587C58.9846 56.4995 59.4004 57.7552 59.7768 59.0222C59.9582 59.6328 60.1303 60.2464 60.2957 60.8614C60.3432 61.0383 60.4217 61.2528 60.486 61.4765C60.5598 61.5478 60.6296 61.6273 60.695 61.718C60.8037 61.8684 60.7257 62.0449 60.5906 62.135C60.5854 62.2889 60.5509 62.4337 60.4684 62.5578C60.1463 63.0423 59.2947 62.9175 59.3293 62.2661C59.3345 62.1664 59.3737 62.0712 59.4331 61.9908L59.4314 61.9777L59.4247 61.9539C59.2768 61.8837 59.1283 61.8054 58.9719 61.7288L57.5159 61.016C57.0942 60.8094 56.6269 60.4904 56.1579 60.4117C55.7208 60.3384 55.2596 60.6611 54.8839 60.8558L54.8595 60.8683C53.9515 61.3295 53.0501 61.806 52.1524 62.2864C51.7141 62.521 51.2815 62.7653 50.8449 63.0027C50.4799 63.2012 50.0859 63.4861 49.6756 63.5981C49.5004 63.7331 49.2922 63.715 49.1249 63.613C49.2013 64.0822 49.1966 64.5637 49.2201 65.0434C49.2517 65.6848 49.2565 66.3279 49.2669 66.9701L49.2711 67.2109C49.2987 68.6306 49.3134 70.0508 49.3189 71.4708C49.3383 76.5275 49.2819 81.5857 49.2687 86.6424C49.262 89.1831 49.2112 91.7259 49.1446 94.2656C49.1164 95.3417 49.0573 96.4166 48.9936 97.4912L48.9585 98.0772C48.8842 99.3139 48.8404 100.564 48.6093 101.784C48.5792 101.943 48.3074 101.947 48.2808 101.784C48.0681 100.477 48.0563 99.141 48.0154 97.8184L48.0068 97.5541C47.9577 96.134 47.9343 94.7149 47.9393 93.2941C47.9575 88.2353 48.0902 83.1798 48.1988 78.1225C48.2534 75.5815 48.2901 73.0394 48.3749 70.4993C48.4173 69.2283 48.4653 67.9581 48.5222 66.6876C48.5476 66.1204 48.5721 65.5537 48.6101 64.9873L48.6273 64.7446C48.6391 64.5862 48.6486 64.4298 48.6602 64.2748C48.1437 64.4618 47.6713 64.1156 47.2066 63.8788C46.6711 63.6058 46.1358 63.3324 45.6 63.0599L45.0638 62.7879L43.9908 62.2454C43.5076 62.0011 43.1354 61.7579 42.6201 62.0445C40.7636 63.0766 39.0576 64.4498 37.5115 65.8908C37.2151 66.1672 36.5886 66.0929 36.5135 65.6298C36.1927 63.6512 36.3878 61.6439 36.5516 59.6593L36.612 58.9225C36.6851 58.0425 36.7648 57.1625 36.871 56.286C36.9185 55.894 36.9658 55.5021 37.0181 55.1108L37.0584 54.8174C37.1238 54.3536 37.1665 53.8926 37.3059 53.4477C37.2619 53.4336 37.2196 53.4105 37.1818 53.375C36.7625 52.9808 36.9646 52.2969 37.1559 51.828C37.3448 51.3653 37.6329 50.9614 37.9936 50.6138C38.0723 50.5378 38.1832 50.489 38.2946 50.4864C39.1692 49.9123 40.1287 49.6257 41.1273 49.9391C41.1554 49.8062 41.184 49.6736 41.2141 49.5412L41.2447 49.409C41.3224 49.0806 41.3513 48.5383 41.6371 48.3186ZM50.6009 100.171C50.8723 100.097 51.1695 100.175 51.3683 100.372C51.5671 100.569 51.6459 100.864 51.5711 101.133C51.5337 101.265 51.4661 101.38 51.3683 101.478C51.277 101.568 51.1704 101.632 51.0486 101.67L51.0202 101.679L50.9759 101.697C50.8398 101.733 50.7037 101.733 50.5678 101.697C50.4377 101.661 50.3248 101.596 50.229 101.501C50.1338 101.406 50.068 101.295 50.0316 101.166C49.995 101.031 49.995 100.896 50.0316 100.761L50.0501 100.717C50.0875 100.585 50.1551 100.47 50.2528 100.372C50.3512 100.275 50.4673 100.208 50.6009 100.171ZM66.716 73.3726C66.7606 73.3219 66.8329 73.3868 66.8052 73.4408C66.3825 74.262 65.9113 75.0773 65.4482 75.8777C65.4853 76.0995 65.5221 76.3195 65.5644 76.534C65.7448 77.4481 65.9658 78.3458 66.1099 79.2686C66.6277 82.5858 66.8965 85.9389 67.1272 89.2859C67.3585 92.6448 67.3881 96.0052 67.4229 99.3708C67.4259 99.6624 67.1995 100.001 66.8961 100.056C66.7571 100.082 66.6532 100.077 66.5146 100.056C66.1988 100.01 66.0013 99.6519 65.9878 99.3708C65.8972 97.4898 65.7754 95.6112 65.6343 93.7332C65.3842 90.4037 65.2313 87.0655 65.0293 83.7325L64.9581 82.5676C64.8817 81.3054 64.8119 80.0423 64.7891 78.7782C64.774 77.9407 64.8192 77.1034 64.7914 76.2669C64.7657 75.4946 64.6867 74.6549 64.8585 73.8961C64.8649 73.8677 64.9103 73.8605 64.9234 73.8877C65.102 74.2604 65.2152 74.6655 65.3024 75.079C65.7628 74.5019 66.2317 73.9236 66.716 73.3726ZM36.5557 52.9722C36.6204 52.9675 36.6178 53.0637 36.5557 53.0708C35.6521 53.1747 34.7792 53.5391 33.926 53.8488L33.8529 53.8752C32.991 54.1851 32.1506 54.5454 31.3418 54.975C29.7606 55.8149 28.3086 56.8978 27.0248 58.1375C21.8992 63.0865 19.5634 70.2231 17.8518 76.9297C16.9008 80.6558 16.2245 84.445 15.7862 88.2632C15.5694 90.1515 15.4162 92.047 15.3269 93.9454C15.2812 94.9184 15.2523 95.8922 15.2403 96.8662C15.2341 97.365 15.2323 97.864 15.2329 98.3629C15.2332 98.5916 15.2744 98.8794 15.2127 99.1014C15.1554 99.307 14.994 99.4881 14.8746 99.6594C14.7331 99.8627 14.4789 99.852 14.3354 99.6594L14.2825 99.5893C14.1295 99.3882 13.9798 99.1959 13.9579 98.9331C13.9345 98.6513 13.951 98.3609 13.95 98.0778C13.9476 97.5076 13.9547 96.9374 13.9662 96.3673C13.9884 95.2746 14.0318 94.1824 14.0964 93.0914C14.2275 90.8773 14.4433 88.6676 14.7524 86.4709C15.3017 82.5663 16.125 78.699 17.2035 74.9044C18.221 71.3247 19.4264 67.7556 21.1435 64.4397C22.7378 61.361 24.8294 58.497 27.5892 56.3454C28.8726 55.3448 30.2698 54.5109 31.7761 53.883C32.5357 53.5662 33.3335 53.3077 34.1448 53.1603C34.9472 53.0145 35.746 53.0348 36.5557 52.9722ZM50.7565 93.844C50.8998 93.8429 51.0596 93.8741 51.1825 93.9526L51.3468 94.0785C51.3913 94.1351 51.4356 94.192 51.4797 94.249C51.5825 94.3816 51.5961 94.5962 51.5747 94.7543C51.5698 94.8598 51.5382 94.9579 51.4797 95.0489L51.3547 95.2094C51.2345 95.3065 51.1342 95.3759 50.9886 95.4226C50.9125 95.447 50.8393 95.4521 50.7662 95.4484L50.7419 95.4468L50.7565 95.4488L50.7309 95.4459C50.7071 95.4439 50.6833 95.4413 50.6593 95.4381C50.6431 95.4361 50.6267 95.4349 50.6104 95.4326C50.5948 95.4314 50.5796 95.4308 50.5638 95.4322C50.3788 95.4495 50.1928 95.3455 50.0614 95.2261C49.9431 95.1184 49.8369 94.8901 49.8534 94.7283L49.8604 94.6607C49.8729 94.5466 49.8831 94.5017 49.9319 94.3871C49.9793 94.2757 50.0455 94.1773 50.1357 94.0942C50.3083 93.9351 50.5196 93.8456 50.7565 93.844ZM50.1837 85.4959C50.4293 85.2307 50.8511 85.2112 51.1556 85.3716C51.2298 85.4108 51.298 85.4735 51.3634 85.5259C51.5282 85.6579 51.5929 85.8961 51.602 86.0968C51.611 86.2952 51.5054 86.5308 51.3634 86.6678L51.3289 86.7009C51.244 86.7827 51.1225 86.8538 51.0038 86.8754C50.8123 86.9103 50.6515 86.9092 50.4732 86.8346C50.32 86.7706 50.188 86.6677 50.0982 86.528L50.0837 86.5043C50.0775 86.4945 50.0717 86.4846 50.0662 86.4744L50.0583 86.459C49.8877 86.1338 49.9335 85.7658 50.1837 85.4959ZM50.3109 77.1039C50.4217 77.0694 50.5324 77.0646 50.6431 77.0892C50.7183 77.0893 50.7884 77.1081 50.8534 77.1454C50.9239 77.165 50.9852 77.2004 51.0372 77.2516C51.0997 77.2882 51.1496 77.3376 51.1866 77.3997C51.2603 77.4794 51.3099 77.5729 51.3357 77.6804L51.3654 77.8998L51.3357 78.1193L51.2517 78.3165C51.2286 78.3464 51.2054 78.3762 51.1819 78.4059C51.1448 78.4681 51.0949 78.5177 51.0321 78.5545C50.9913 78.5947 50.9445 78.6247 50.8922 78.6456C50.7067 78.7773 50.4596 78.8203 50.2398 78.7603C50.1093 78.7241 49.996 78.6586 49.8999 78.5641C49.8045 78.4688 49.7384 78.3565 49.7019 78.2272L49.6868 78.124C49.6674 77.9855 49.6644 77.9088 49.7039 77.7328C49.7213 77.6554 49.7716 77.5462 49.798 77.5002C49.9106 77.304 50.0947 77.1695 50.3109 77.1039ZM59.9278 71.0664C60.2459 71.0642 60.5639 71.0648 60.8819 71.0683L61.1203 71.0714C61.5197 71.0776 61.8617 71.0368 62.1757 71.3114C62.4035 71.5106 62.3031 71.8449 62.0868 71.995C61.7591 72.2223 61.3481 72.108 60.9713 72.0829C60.5741 72.0565 60.1765 72.0346 59.7787 72.0169C59.0086 71.9828 58.2381 71.961 57.4672 71.9577C56.698 71.9544 55.9276 71.9616 55.1585 71.9739C54.3758 71.9865 53.561 72.0588 52.7827 71.9785C52.6758 71.9675 52.6518 71.8282 52.7573 71.7919C53.4906 71.5406 54.3156 71.4591 55.0841 71.363C55.8768 71.2638 56.6695 71.1935 57.4672 71.148C58.2866 71.1014 59.1071 71.0721 59.9278 71.0664ZM50.3095 68.5973L50.3357 68.5978C50.4757 68.5982 50.6067 68.6308 50.7289 68.6957L50.7549 68.7101L50.923 68.8387C51.0258 68.9415 51.0971 69.0625 51.1364 69.2018L51.1661 69.4206C51.1705 69.5339 51.1466 69.6395 51.0947 69.7376C51.0611 69.8396 51.0039 69.9279 50.923 70.0024C50.8477 70.0826 50.7586 70.1393 50.6557 70.1726C50.5643 70.2201 50.4665 70.2439 50.362 70.2439L50.3357 70.2434C50.1859 70.2429 50.0462 70.2055 49.9167 70.1311L49.7486 70.0024C49.6457 69.8997 49.5744 69.7787 49.5351 69.6393L49.5053 69.4206C49.5011 69.3073 49.5249 69.2015 49.5769 69.1036C49.6104 69.0016 49.6676 68.9133 49.7486 68.8387C49.8238 68.7585 49.9128 68.7018 50.0159 68.6686C50.1072 68.6211 50.2051 68.5973 50.3095 68.5973ZM52.7713 49.2678C52.9502 49.011 53.2744 49.2394 53.228 49.4458C53.2403 50.0256 53.2702 50.5883 53.4033 51.1563C53.4643 51.4163 53.5442 51.6766 53.6673 51.9148L53.7191 52.0151C53.8785 52.3272 54.0023 52.6215 53.7875 52.964C53.6863 53.1254 53.5034 53.2466 53.3052 53.2381C52.4258 53.2006 52.305 51.9878 52.2516 51.3107C52.1965 50.6135 52.3679 49.8472 52.7713 49.2678Z" fill="black"/>
<path fill-rule="evenodd" clip-rule="evenodd" d="M47.6942 17.9067C51.0836 17.9067 55.1502 19.5349 55.496 19.5675L55.5053 19.568C55.6872 19.568 56.398 20.1046 57.6377 21.1778L56.295 23.7729L56.4037 23.8757C56.9237 24.3698 57.3676 24.82 57.718 25.175C60.5789 28.0732 61.0932 39.4524 60.4189 43.4207C59.7447 47.389 58.4959 51.272 52.6819 51.272C46.8679 51.272 40.3997 47.808 39.4034 46.7292C38.7391 46.0101 37.993 45.6655 37.165 45.6956C37.1309 45.653 37.0972 45.6106 37.0637 45.5683L36.9419 45.5512C35.7959 45.3868 34.9748 45.1654 34.4786 44.8872C33.5094 44.3439 32.444 41.4873 32.444 40.858C32.444 40.235 30.8533 35.7031 30.8215 35.2236L30.821 35.2103C30.821 34.8094 28.7428 32.9664 28.7428 32.3811C28.7428 31.7958 28.3239 31.8313 28.7428 29.7689L28.8645 29.163C29.3103 26.967 30.1828 23.3309 33.5094 21.7509C37.165 20.0146 44.2705 17.9067 47.6942 17.9067Z" fill="white"/>
<path fill-rule="evenodd" clip-rule="evenodd" d="M32.9463 21.6693C34.7695 19.7518 45.1199 16.7858 50.3564 17.4145L50.5135 17.4346C50.9314 17.4872 51.3433 17.5667 51.7497 17.6747C53.0635 17.9787 54.4206 18.4391 55.5061 19.2081C56.4123 19.8372 59.2711 20.8645 58.4286 22.5102C58.741 23.0968 58.8576 23.8215 58.6464 24.3992C58.6199 24.5987 58.5578 24.7825 58.4784 24.973C59.1459 25.9491 59.6743 27.0529 60.1022 28.1027C60.8497 30.7449 61.3149 33.4945 61.3831 36.1902C61.6097 41.3117 61.043 47.4294 56.5415 50.7412C53.8221 52.8398 49.5624 52.9103 46.5064 50.3083C46.333 50.1049 45.5174 49.5561 45.7896 49.4599C45.8706 49.5446 45.9539 49.6271 46.0387 49.7082C46.0348 49.6992 46.034 49.6902 46.0356 49.6804L45.9559 49.6088C45.8057 49.4712 45.6111 49.2715 45.8327 49.3106C45.8425 49.3218 45.8532 49.3316 45.8637 49.3428C45.9106 49.3707 45.9461 49.3949 45.9737 49.4162L45.9879 49.4275L45.9835 49.423C45.8558 49.2881 45.7793 49.1505 45.9702 49.2384L45.9954 49.2506C46.0803 49.3391 46.1665 49.4238 46.2543 49.5064C46.2529 49.4966 46.2543 49.4869 46.2597 49.4764L46.1778 49.398C46.0979 49.3204 46.1101 49.32 46.1492 49.2573C45.9793 49.0214 46.2964 49.1615 46.3187 49.2536C46.5171 49.2071 46.6913 49.5761 46.8191 49.6211C52.4211 53.8888 60.5508 50.1021 60.4191 38.2101L60.4171 37.9774C60.3786 34.1749 60.0557 30.2666 58.4685 26.8244C58.3141 26.4929 58.1414 26.1703 57.9515 25.8582C57.8205 25.6242 57.6805 25.3961 57.5298 25.1741C57.108 25.1403 56.6917 25.0638 56.2814 24.9453C56.1406 24.91 56.0013 24.871 55.862 24.8253C53.8271 24.9352 51.8375 25.0549 49.7969 25.1683L49.1595 25.2076C47.4309 25.3178 45.6431 25.4941 44.2482 26.5536C42.8794 27.5182 42.8732 29.4202 41.7016 30.4792C40.0308 31.6029 40.0186 32.6161 39.6968 34.2721C39.7207 35.5203 40.5942 37.334 38.9913 37.8593C39.2617 38.2414 38.8848 38.0578 38.8551 37.9238C38.8521 37.9246 38.849 37.9254 38.8468 37.9254C39.0877 38.3692 38.7335 38.0897 38.7022 37.9471C38.6832 37.9419 38.6643 37.9284 38.6454 37.9096C38.8882 38.2985 38.4957 38.0262 38.519 37.9554C38.0498 37.2408 37.0843 37.1299 36.4037 37.3192C36.3954 37.3447 36.3652 37.347 36.3462 37.3335C33.4523 37.9549 34.199 43.8914 37.1646 43.3175C37.2916 43.2919 37.2885 43.3523 37.3137 43.358C37.2452 43.1798 37.4384 43.2523 37.4363 43.2898L37.4481 43.2892C37.4574 43.2884 37.4536 43.2874 37.4605 43.2898C37.3943 42.9253 37.7671 43.4534 37.7376 43.4751C37.749 43.4683 37.7619 43.4646 37.7733 43.4631L37.7604 43.4285C37.6986 43.2651 37.7039 43.333 37.7043 43.2395C37.6578 43.1239 37.6544 43.1745 37.6653 43.0991C37.8287 42.9737 37.8769 43.3542 37.9314 43.382C37.838 43.253 37.9123 43.1476 38.0004 43.2177C38.6683 44.6098 39.5311 45.9179 40.6462 46.9483C40.7681 47.0436 40.8915 47.1374 41.0194 47.2259C41.4937 47.6352 42.2212 47.8985 42.6652 48.2611C42.6652 48.2671 42.6622 48.2746 42.6577 48.2821L42.6679 48.2912L42.6781 48.3009L42.8326 48.3744C42.878 48.4126 42.9189 48.4554 42.9551 48.5026C42.9938 48.5469 43.0278 48.5957 43.0567 48.6474C43.071 48.7104 43.0393 48.7367 42.9787 48.7097C42.9521 48.7007 42.9257 48.6902 42.8992 48.6804C42.9007 48.6827 42.9014 48.6842 42.903 48.6857C42.9117 48.6987 42.9705 48.8338 42.9027 48.8118L42.8947 48.8087C42.8575 48.7952 42.8205 48.7802 42.7841 48.766C42.8273 48.8192 42.8666 48.877 42.9014 48.9257C42.9386 48.964 42.9612 49.009 42.9704 49.06C42.9688 49.0885 42.953 49.1005 42.9242 49.0968C42.8803 49.0825 42.8371 49.0675 42.7939 49.0518L42.8062 49.075C42.8367 49.1345 42.8801 49.2344 42.8031 49.2011C42.7371 49.1808 42.6736 49.1575 42.61 49.132C42.6046 49.1425 42.5941 49.1463 42.5729 49.1365C42.3708 49.0653 42.1755 48.9783 41.9885 48.8755C41.8242 48.757 41.6583 48.6407 41.4934 48.5229C41.3381 48.4306 41.1882 48.3279 41.0452 48.2123C40.0878 47.5996 39.2497 46.8212 38.5848 45.9543C37.4728 46.9086 35.2494 45.997 33.8741 45.2499C32.6576 44.5823 32.1795 43.3478 32.0559 42.0169C31.7988 40.225 30.3211 39.6117 30.4239 35.6801C30.4216 35.6809 30.4193 35.6809 30.4163 35.6809C30.3625 35.6651 30.3103 35.6441 30.2611 35.6171C30.2104 35.5931 30.1627 35.5646 30.118 35.5301L30.0627 35.4543C30.034 35.4386 30.0083 35.4221 29.9886 35.4056L29.9784 35.4186C29.9461 35.4572 29.9678 35.3991 29.9697 35.3875L29.8737 35.2582C29.646 34.9502 29.3963 34.6047 29.1929 34.3283L29.1865 34.3395C29.1819 34.348 29.1794 34.3541 29.1816 34.3568C28.6975 33.6676 28.2422 32.835 28.1157 32.0291C27.9663 31.4082 28.0247 30.7685 28.155 30.1934C28.7136 28.1796 30.5435 23.6225 32.9463 21.6693ZM46.0846 49.5193L46.0543 49.4926L46.0809 49.5257C46.0949 49.5428 46.1092 49.5582 46.1325 49.5739C46.131 49.5686 46.131 49.5634 46.1317 49.5574C46.1162 49.5457 46.1004 49.5329 46.0846 49.5193ZM50.3333 18.4264C46.7821 18.1238 43.2894 18.899 39.9007 19.8374L39.6669 19.904C37.7401 20.4488 35.7027 20.939 34.0744 22.1052C31.7994 23.8318 30.6246 26.5786 29.5994 29.1147C28.7042 30.9989 29.1618 33.1236 30.5109 34.4393C30.6512 33.1319 30.8905 31.8627 31.2645 30.6037C31.3426 30.407 31.2835 30.3426 31.4517 30.3169C31.7058 33.7097 30.4545 36.2165 32.9308 40.2375C34.0052 42.1348 32.7614 43.5231 35.7956 44.5215L35.8778 44.5526C36.5099 44.7889 37.2002 44.9755 37.8194 44.8434L37.7639 44.754C37.7073 44.6619 37.6902 44.6172 37.7724 44.5778C37.7702 44.5733 37.7672 44.5688 37.7641 44.5635C37.6976 44.439 37.6332 44.313 37.5718 44.1855C37.5469 44.1937 37.5219 44.1997 37.4961 44.2065C37.5128 44.2372 37.515 44.268 37.4682 44.2785C37.3014 44.3352 37.1301 44.3579 36.9547 44.3473L36.9171 44.3445C36.7189 44.3325 36.5941 44.2967 36.4824 44.2635C36.4454 44.2575 36.4083 44.2515 36.3719 44.244C36.0127 44.1651 35.6324 43.9643 35.3863 43.7654C32.5809 42.1864 32.8708 36.8116 36.3288 36.3035C36.3998 32.9194 38.0242 27.21 40.72 23.9853C43.1567 21.0191 49.8092 19.7334 54.4374 20.1868C54.5049 20.2089 54.5723 20.2313 54.6398 20.2538C55.3538 20.3167 56.0343 20.6319 56.7489 20.7783C56.2359 20.3973 55.6538 20.1436 55.0543 19.9279C53.8599 19.2039 52.4905 18.8122 51.1676 18.5359C50.8936 18.4691 50.6157 18.4324 50.3333 18.4264ZM36.1706 39.0221C36.3565 38.922 36.3352 39.0186 36.378 38.9906C37.7154 38.8825 39.1575 40.0428 39.905 41.01C39.846 41.0708 39.6863 40.8907 39.6582 40.8622C39.6545 40.866 39.6499 40.869 39.6454 40.8705L39.6662 40.8996C39.9692 41.3305 39.3685 40.8235 39.3123 40.719C39.3024 40.7242 39.2926 40.7272 39.2812 40.725C39.3289 40.7712 39.4743 40.8919 39.4993 40.9778L39.5378 41.0096C39.9014 41.3181 39.8712 41.5501 39.4585 41.112C39.4682 41.1323 39.472 41.151 39.4652 41.166L39.4794 41.1754C39.6824 41.316 39.8493 41.7078 39.4251 41.3056C39.4692 41.5993 39.0047 41.0315 38.9898 41.0355C38.186 40.4103 37.0025 39.8022 35.9942 39.7205L35.9595 39.7165C35.7744 39.693 35.687 39.6386 35.7519 39.5187C35.524 39.465 35.5774 39.3538 35.6853 39.3574C35.5246 39.2527 35.6692 39.1525 35.7625 39.1916C35.6984 39.0157 35.9556 39.1329 35.979 39.1084C36.1125 38.9044 36.1485 39.0745 36.1706 39.0221ZM33.3672 28.1185C34.0096 27.8853 35.907 28.5833 35.7552 29.5076C35.6648 29.7198 35.367 29.8414 35.1576 29.7216L34.8844 29.5398C34.409 29.2243 33.9802 28.9476 33.4697 28.6725C33.1919 28.5359 33.0723 28.2458 33.3672 28.1185ZM37.0219 26.7448L36.7738 26.5849C35.435 25.7166 33.5425 24.4011 36.8988 25.7622C37.2814 25.9247 37.7896 26.0209 37.9984 26.3819C38.3262 27.0472 37.4634 27.0919 37.0219 26.7448ZM37.1723 22.8493C37.0649 22.4453 38.4016 22.9194 38.7907 23.0443L38.85 23.0665C39.2285 23.2063 39.6624 23.3359 39.8888 23.6596C40.1541 24.1069 39.6172 24.1995 39.2846 23.9975C38.6027 23.556 37.8551 23.2228 37.1723 22.8493ZM40.5714 20.9675C39.819 20.1533 41.8327 20.9333 42.1343 21.1498L42.1429 21.1562C42.368 21.3132 42.3223 21.6514 42.1109 21.7507C41.5093 21.762 41.0665 21.2651 40.5714 20.9675ZM43.9952 20.0755C42.7991 19.2237 44.3747 19.6288 44.922 19.9627C45.295 20.2886 44.9108 20.8389 43.9952 20.0755Z" fill="black"/>
<path fill-rule="evenodd" clip-rule="evenodd" d="M48.2659 41.4448C49.5636 41.2887 50.8215 41.6824 52.0902 41.8809C52.76 41.9856 53.4307 42.0638 54.1085 42.0928C54.2448 42.0987 54.3813 42.1022 54.5177 42.1049C54.5304 41.9859 54.5976 41.8767 54.7433 41.8112C55.0418 41.6771 55.2807 41.6166 55.6085 41.6296C55.9086 41.6413 56.2097 41.6719 56.5051 41.7255C57.0416 41.8229 57.5805 42.0441 57.973 42.4284C58.8812 43.3176 58.743 44.7458 58.0412 45.7143C56.5913 47.7155 53.945 47.8084 51.6786 47.7823L51.4695 47.7796C49.4058 47.7504 46.4533 48.0553 45.5158 45.7287C45.171 44.8732 45.2189 43.8815 45.641 43.0609C46.1445 42.0822 47.2044 41.5725 48.2659 41.4448ZM54.712 44.7769L54.6935 44.7776C53.742 44.814 52.7907 44.8395 51.8388 44.8562C51.8673 45.0985 51.8963 45.3408 51.9296 45.5825C51.9556 45.7727 51.9836 45.9627 52.0127 46.1525C52.025 46.2329 52.0702 46.3576 52.0574 46.4372L52.0528 46.4687C52.1017 46.4906 52.146 46.5259 52.179 46.5771C52.1905 46.5948 52.1988 46.6127 52.2071 46.6304C52.9462 46.6362 53.7416 46.622 54.495 46.4889L54.4966 46.4727C54.5102 46.3773 54.5503 46.3131 54.6034 46.2691C54.6564 45.9649 54.6516 45.6408 54.672 45.3391C54.6848 45.1516 54.6986 44.9643 54.712 44.7769ZM51.1117 44.8691C50.4259 44.8806 49.7398 44.8895 49.0542 44.8812L48.7429 44.8765C48.8087 45.2259 48.8802 45.5741 48.9396 45.9259C49.0017 46.2925 48.676 46.5256 48.3942 46.5162C48.4258 46.5213 48.4574 46.5266 48.489 46.531C49.3696 46.6544 50.284 46.6217 51.1776 46.6207C51.1296 46.3427 51.149 46.0289 51.1418 45.7968L51.1405 45.7609C51.1268 45.4634 51.1172 45.1662 51.1117 44.8691ZM46.4535 44.8049C46.4773 44.9866 46.5236 45.1645 46.5929 45.33C46.8856 46.0295 47.5567 46.3559 48.2668 46.4934C48.1436 46.4512 48.0458 46.3499 48.0211 46.1764C47.9595 45.7451 47.9374 45.3065 47.9357 44.8685C47.4408 44.864 46.9426 44.8535 46.4535 44.8049ZM57.2927 44.6556C56.9404 44.738 56.531 44.7002 56.1853 44.7158C55.8614 44.7303 55.5374 44.743 55.2136 44.756C55.2289 44.9751 55.2437 45.1941 55.2599 45.4131C55.2808 45.696 55.2827 45.9951 55.3374 46.2769C55.9892 46.0565 56.5732 45.703 57.0113 45.1378C57.1205 44.9969 57.2182 44.8317 57.2927 44.6556ZM48.117 42.5924C47.5305 42.73 46.9754 43.0207 46.6771 43.5526C46.5 43.8681 46.4221 44.2422 46.4371 44.6107C46.9328 44.5536 47.437 44.5319 47.9389 44.5139C47.9405 44.4244 47.9427 44.3349 47.9454 44.2457L47.9531 44.0169C47.9668 43.5806 47.9737 43.0327 48.117 42.5924ZM51.1527 42.6457L50.8945 42.6169C50.1774 42.536 49.4606 42.451 48.7435 42.4997C48.6397 42.5068 48.5343 42.518 48.4287 42.5333C48.5554 42.9866 48.5448 43.5189 48.5977 43.9676C48.6182 44.1411 48.6441 44.3132 48.6727 44.4846L48.7971 44.4788C49.5666 44.4375 50.3369 44.4121 51.1071 44.3818C51.107 44.2385 51.1078 44.0951 51.1101 43.9517L51.113 43.8083C51.1217 43.4419 51.0979 43.0293 51.1527 42.6457ZM54.7539 42.5875C54.0028 42.7076 53.2265 42.7332 52.4887 42.7341C52.194 42.7345 51.8995 42.7165 51.6051 42.6907C51.6243 42.846 51.6343 43.0031 51.6487 43.1562C51.6778 43.4658 51.711 43.7748 51.7471 44.0835L51.7793 44.3537C52.7259 44.3112 53.6725 44.2652 54.6189 44.2176L54.7524 44.2105L54.7898 43.6913C54.8153 43.3451 54.8434 42.999 54.8829 42.6543L54.8533 42.6437C54.8184 42.6295 54.7853 42.6099 54.7539 42.5875ZM55.0801 42.7164C55.1215 43.2059 55.1444 43.6974 55.1748 44.1877L55.7987 44.1547C55.9027 44.1491 56.0067 44.1434 56.1106 44.1374C56.5149 44.1143 57.0344 43.993 57.4341 44.1062C57.4647 43.7461 57.3608 43.3954 57.0329 43.1535C56.4572 42.7286 55.7241 42.8799 55.0801 42.7164ZM52.9485 38.3404C53.8776 37.8132 56.2086 37.2743 56.3562 38.9311C56.4241 39.6935 55.8521 40.3252 55.1842 40.607L55.1591 40.6174C54.5326 40.8727 53.4223 41.1609 52.8802 40.6075C52.429 40.1469 53.0274 39.321 53.5881 39.6983C53.8762 39.8922 54.4827 39.7494 54.8042 39.6571L54.8243 39.6513C55.1713 39.5503 55.6338 39.2269 55.4904 38.8036C55.3634 38.4291 54.8232 38.3607 54.4849 38.3485C53.9798 38.3306 53.4884 38.4468 52.988 38.4846C52.9087 38.4906 52.8842 38.3769 52.9485 38.3404ZM56.7969 35.6764C58.0579 35.6179 58.8422 36.9821 58.5523 38.0999C58.5022 38.2928 58.2844 38.4821 58.0743 38.4605L58.0213 38.4556C57.9944 38.4531 57.9674 38.4497 57.9426 38.4429C57.743 38.3881 57.5641 38.1824 57.5787 37.9692L57.5825 37.9071C57.6119 37.3791 57.5542 36.7707 56.9209 36.6428C56.3837 36.5343 56.0839 37.0466 56.0775 37.5182C56.0763 37.6019 55.9814 37.6603 55.9067 37.6153C55.5184 37.3812 55.4511 36.9154 55.5994 36.5143C55.7874 36.0061 56.2578 35.7014 56.7969 35.6764ZM47.4397 35.969C48.3573 35.6656 49.3473 36.1503 49.7916 36.9542C49.9474 36.9989 50.1031 37.1179 50.0814 37.3002C50.0502 37.5625 50.0031 37.7278 49.8196 37.9267C49.5326 38.2378 48.995 38.0787 48.8757 37.6957L48.8706 37.6784C48.7351 37.1834 48.1852 36.8568 47.6843 37.0301C47.0991 37.2325 47.116 37.8449 46.7056 38.2017C46.6573 38.2436 46.5995 38.2503 46.5417 38.2226C46.1057 38.0138 46.184 37.3855 46.3395 37.0259C46.5433 36.5539 46.9396 36.1342 47.4397 35.969ZM46.19 33.2078C46.9335 32.456 48.8725 31.7285 49.3811 33.1168C49.478 33.3813 49.2717 33.7378 48.9939 33.7926C48.5389 33.8824 48.1353 33.6866 47.6833 33.7218C47.3174 33.7503 46.9358 33.8715 46.6433 34.0961C45.8331 34.7181 45.6549 35.7702 45.0904 36.5619C45.0629 36.6005 45.0095 36.5843 45.0045 36.5388C44.8759 35.3862 45.3756 34.0312 46.19 33.2078ZM55.8873 32.4677C56.3808 32.295 56.9395 32.3098 57.4356 32.463C57.9352 32.6174 58.3939 32.9105 58.7473 33.2936C58.9076 33.4675 59.056 33.6593 59.175 33.8636C59.2382 33.9719 59.3047 34.1955 59.3765 34.3286C59.7652 34.551 59.9314 35.0578 59.5834 35.4183L59.5677 35.4341L59.5211 35.4798C59.3341 35.6633 59.052 35.7429 58.7966 35.6696C58.2252 35.5057 58.1558 35.0598 57.958 34.5864C57.8273 34.2737 57.6035 33.9971 57.3321 33.7939C56.6906 33.3137 55.6389 33.1608 54.8666 33.387C54.8255 33.3991 54.7772 33.3472 54.8065 33.3095C54.9528 33.1217 55.0372 32.9675 55.2331 32.816C55.432 32.6622 55.649 32.5511 55.8873 32.4677Z" fill="black"/>
<path fill-rule="evenodd" clip-rule="evenodd" d="M47.3849 45.9994C47.9978 44.5766 49.3356 43.5309 50.8758 43.1485C52.0068 42.8685 53.1938 42.8774 54.3467 42.9886C54.9508 43.0464 55.5987 43.0938 56.168 43.3161C56.6542 43.506 57.0503 43.865 57.3482 44.2863C57.7028 44.7856 57.944 45.3571 58.1133 45.9429C58.1374 46.0262 58.16 46.11 58.1811 46.1944C58.1074 46.6363 57.9511 47.0125 57.538 47.2903C57.1349 47.5617 56.6539 47.6727 56.1744 47.7121C56.1274 47.6897 56.0819 47.6667 56.0403 47.6431C55.2931 47.2193 54.7672 46.2177 53.8241 46.3532C52.9825 46.4743 52.4284 47.5236 51.9279 48.1389C50.3214 48.3244 48.716 47.8461 47.4088 46.9357C47.3424 46.6242 47.3386 46.31 47.3849 45.9994ZM59.273 44.9201C59.1445 44.5627 58.9826 44.2166 58.7907 43.8905C58.1564 42.8122 57.1826 41.953 56.0267 41.4619C53.2921 40.3016 49.7538 41.1195 47.5454 43.0224C46.791 43.6729 46.0283 44.6288 45.7976 45.657C45.7287 45.6705 45.6637 45.706 45.6102 45.756C44.0147 44.7606 42.3716 43.8029 41.0858 42.4231C40.1521 41.4206 39.5027 40.2341 39.105 38.9304C39.0725 38.8231 38.8979 38.8387 38.9032 38.9575C38.9047 38.9853 38.9062 39.013 38.9077 39.0408C38.8911 38.9897 38.8124 39.016 38.8064 39.0655C38.5924 40.6493 38.3248 42.3285 38.5713 43.9205C38.7187 44.8705 39.1542 45.566 39.7363 46.3169C40.36 47.1219 41.0662 47.8706 41.7882 48.5886C42.2464 49.0444 42.7249 49.57 43.2859 49.9042C43.9384 50.2925 44.6785 50.5877 45.3748 50.8872C46.0832 51.1929 46.8022 51.4752 47.5348 51.7201C48.9993 52.2112 50.5129 52.5506 52.0529 52.6993C53.286 52.818 54.6953 52.9472 55.877 52.4875C56.7827 52.1353 57.5138 51.4986 58.0937 50.7325C58.725 49.8982 59.224 48.9479 59.4999 47.9457C59.7866 46.9047 59.3334 45.0879 59.273 44.9201Z" fill="black"/>
<path fill-rule="evenodd" clip-rule="evenodd" d="M62.1755 36.3293C61.4537 41.1671 56.4153 41.7021 55.5201 36.8994C55.6638 36.8371 55.7671 36.7143 55.7456 36.4761C55.7405 35.4295 56.0684 34.3233 57.0212 33.7412C58.0058 33.1406 59.1581 33.0811 60.2975 33.0962C62.4719 33.0449 62.4262 34.8458 62.1755 36.3293ZM54.7313 34.2254C54.049 34.1969 53.1856 34.2207 52.5743 34.6327C52.4062 34.1843 51.9696 33.7054 51.5284 33.4494C53.1683 33.497 54.8563 33.337 56.5085 33.2129C56.113 33.48 55.7451 33.8813 55.506 34.3453C55.2841 34.2281 54.9663 34.239 54.7313 34.2254ZM51.7235 36.8422C49.8312 43.2963 45.108 40.4832 44.593 39.6561C43.6642 38.2874 43.4895 34.9601 44.2985 34.0705C45.4567 33.266 47.0962 33.473 48.4643 33.4533C50.9778 33.4869 52.7629 34.232 51.7235 36.8422ZM64.4098 33.8738C63.8956 33.8072 63.3463 33.7937 62.8683 34.018C62.7211 33.3982 62.2591 32.8799 61.7374 32.6519C61.6743 32.5734 61.6837 32.5313 61.468 32.5431C60.1436 32.1486 58.6615 32.3573 57.3888 32.7618C55.3787 32.9295 53.2698 33.0618 51.2428 33.2929C49.344 32.4479 43.6137 32.3241 43.2576 34.4068C42.8097 34.3404 42.0468 33.991 41.6704 34.4649C38.9094 34.0011 36.0565 34.6457 33.2835 34.9328C32.5855 35.0601 32.226 36.4328 33.0183 36.414C33.4638 36.2942 33.0046 35.5593 33.6044 35.504C36.2799 35.2145 38.8968 34.8037 41.5997 34.7556C41.5057 35.2181 43.3874 35.2481 43.4152 34.9781C43.4192 34.9801 43.4234 34.9815 43.4275 34.9833C42.9625 36.7004 43.3822 39.1716 44.2225 40.2363C45.3999 41.6306 48.3558 42.0306 49.6664 41.1335C51.3571 40.3056 53.116 36.1495 52.6219 34.7688C53.5186 34.4872 54.405 34.5717 55.3355 34.7151C55.1225 35.3115 54.7547 36.7794 55.2838 36.9067C55.1867 39.8211 57.8634 41.6395 60.3309 40.444C62.4666 39.4506 63.2135 36.306 62.9521 34.3974C63.218 34.9064 65.4504 34.3522 64.4098 33.8738Z" fill="black"/>
</g>
<defs>
<clipPath id="clip0_2324_2884">
<rect width="88" height="88" fill="white"/>
</clipPath>
</defs>
</svg>
