<svg width="104" height="108" viewBox="0 0 104 108" fill="none" xmlns="http://www.w3.org/2000/svg">
<path d="M91.3703 39.7875C93.2241 39.7875 94.7269 38.2833 94.7269 36.4279C94.7269 34.5724 93.2241 33.0682 91.3703 33.0682C89.5165 33.0682 88.0137 34.5724 88.0137 36.4279C88.0137 38.2833 89.5165 39.7875 91.3703 39.7875Z" fill="#EAEEF9"/>
<path d="M2.2083 57.9557C3.42792 57.9557 4.41661 56.9661 4.41661 55.7454C4.41661 54.5247 3.42792 53.5352 2.2083 53.5352C0.988691 53.5352 0 54.5247 0 55.7454C0 56.9661 0.988691 57.9557 2.2083 57.9557Z" fill="#EAEEF9"/>
<path d="M12.3587 97.6923C13.5783 97.6923 14.567 96.7028 14.567 95.4821C14.567 94.2614 13.5783 93.2718 12.3587 93.2718C11.1391 93.2718 10.1504 94.2614 10.1504 95.4821C10.1504 96.7028 11.1391 97.6923 12.3587 97.6923Z" fill="#EAEEF9"/>
<path d="M24.1641 97.6925L55.1527 87.9824V48.171L24.1641 57.8064V97.6925Z" fill="#B7BFCD"/>
<path opacity="0.4" d="M86.141 97.6925L55.1523 87.9824V48.171L86.141 57.8064V97.6925Z" fill="#6D7C9A"/>
<g opacity="0.13">
<path d="M24.1641 97.6925L55.1527 87.9824V48.171L24.1641 57.8064V97.6925Z" fill="url(#paint0_linear_302_2740)"/>
<path d="M86.1414 97.6925L55.1527 87.9824V48.171L86.1414 57.8064V97.6925Z" fill="url(#paint1_linear_302_2740)"/>
</g>
<path d="M55.1527 107.477L24.1641 97.7671V57.9557L55.1527 67.6658V107.477Z" fill="#EDF1F9"/>
<path d="M55.1523 107.477L86.141 97.7671V57.9557L55.1523 67.6658V107.477Z" fill="#DAE1ED"/>
<path opacity="0.09" d="M48.1316 100.456L24.1641 97.7671V57.9557L55.1527 67.6658L48.1316 100.456Z" fill="url(#paint2_linear_302_2740)"/>
<path opacity="0.2" d="M62.1735 93.4349L86.141 97.7671V57.9557L55.1523 67.6658L62.1735 93.4349Z" fill="url(#paint3_linear_302_2740)"/>
<path d="M55.1524 48.171L40.5826 37.2659L9.07617 47.8723L24.1637 57.8064L55.1524 48.171Z" fill="#DAE1ED"/>
<path d="M55.1523 48.171L69.7222 37.2659L101.229 47.8723L86.141 57.8064L55.1523 48.171Z" fill="#DAE1ED"/>
<path d="M24.1637 57.9557L55.1524 67.6658L39.6951 77.5253L9.07617 67.3671L24.1637 57.9557Z" fill="#EFF4FD"/>
<path d="M86.141 57.9557L55.1523 67.6658L70.6097 77.5253L101.229 67.3671L86.141 57.9557Z" fill="#EDF1F9"/>
<path d="M63.7996 9.95074C68.1409 21.7326 69.4349 24.3505 69.8596 35.9598C69.6963 38.6099 69.595 41.4915 68.3456 43.8119C66.6771 47.3615 62.596 49.8197 58.7403 49.8595C54.7682 49.9305 50.874 47.4985 49.1212 43.7482C47.888 41.4722 47.9272 38.359 49.6188 36.2925C51.4577 34.3107 54.6929 33.8165 57.0202 35.0548C59.5801 36.2308 61.1081 38.6761 61.6741 41.2549C62.24 43.8337 61.9914 46.6307 61.3005 49.1738C59.8557 55.359 58.6591 55.6582 55.1157 66.13" stroke="#ABB5CC" stroke-width="0.714779" stroke-miterlimit="10" stroke-dasharray="1.43 1.43"/>
<path d="M69.0814 3.71456C69.0714 5.44701 67.4592 6.50781 65.4147 5.95464C63.262 5.58769 61.7385 5.20949 61.6404 3.66326C61.6898 2.07754 63.4199 1.45692 65.4449 0.757305C67.873 -0.207505 68.9441 2.02161 69.0814 3.71456Z" fill="#DAE2EB"/>
<path d="M55.1735 9.01236C56.2644 10.1354 58.5645 10.4629 59.6854 8.74745C60.9143 6.8458 61.9663 5.4633 60.8361 4.19351C59.7452 3.07045 58.6835 3.82656 56.2554 4.79137C54.309 5.78443 53.8958 7.78207 55.1735 9.01236Z" fill="#DAE2EB"/>
<path d="M60.2051 1.84612C61.198 1.42295 62.3873 1.7334 62.918 2.53477C63.144 2.78872 63.4094 3.18941 63.488 3.48286C64.333 5.45802 64.0674 7.41617 62.9271 7.87883C61.6786 8.5277 59.9586 7.41588 59.3002 5.54796C59.1431 4.96106 59.0645 4.66761 58.9466 4.22744C58.8189 3.16087 59.2123 2.26928 60.2051 1.84612C60.3526 1.80662 60.2051 1.84612 60.2051 1.84612Z" fill="#989FB0"/>
<path d="M14.5678 33.6413H12.6457V31.7192H10.9982V33.6413H9.07617V35.3437H10.9982V37.2658H12.6457V35.3437H14.5678V33.6413Z" fill="url(#paint4_linear_302_2740)"/>
<path d="M18.7905 81.8653H16.8684V79.9432H15.2209V81.8653H13.2988V83.5677H15.2209V85.4897H16.8684V83.5677H18.7905V81.8653Z" fill="url(#paint5_linear_302_2740)"/>
<path d="M102.813 81.974L100.461 80.7867L101.649 78.435L99.6329 77.4173L98.4456 79.769L96.0939 78.5817L95.0423 80.6646L97.394 81.8519L96.2066 84.2036L98.2224 85.2213L99.4097 82.8696L101.761 84.057L102.813 81.974Z" fill="url(#paint6_linear_302_2740)"/>
<defs>
<linearGradient id="paint0_linear_302_2740" x1="45.3703" y1="51.0544" x2="41.1436" y2="68.6509" gradientUnits="userSpaceOnUse">
<stop offset="0.00289017" stop-color="#606673" stop-opacity="0"/>
<stop offset="1" stop-color="#373C47"/>
</linearGradient>
<linearGradient id="paint1_linear_302_2740" x1="45.3703" y1="51.0544" x2="41.1436" y2="68.6509" gradientUnits="userSpaceOnUse">
<stop offset="0.00289017" stop-color="#606673" stop-opacity="0"/>
<stop offset="1" stop-color="#373C47"/>
</linearGradient>
<linearGradient id="paint2_linear_302_2740" x1="31.1115" y1="85.2024" x2="38.5562" y2="64.1757" gradientUnits="userSpaceOnUse">
<stop offset="0.00289017" stop-color="#6C80AA" stop-opacity="0"/>
<stop offset="1" stop-color="#5D6A86"/>
</linearGradient>
<linearGradient id="paint3_linear_302_2740" x1="71.8765" y1="90.9461" x2="72.462" y2="64.2635" gradientUnits="userSpaceOnUse">
<stop offset="0.00289017" stop-color="#314F91" stop-opacity="0"/>
<stop offset="1" stop-color="#324264"/>
</linearGradient>
<linearGradient id="paint4_linear_302_2740" x1="11.8224" y1="31.9119" x2="11.8224" y2="35.0251" gradientUnits="userSpaceOnUse">
<stop stop-color="#B0BACC"/>
<stop offset="1" stop-color="#969EAE"/>
</linearGradient>
<linearGradient id="paint5_linear_302_2740" x1="16.0451" y1="80.1359" x2="16.0451" y2="83.2491" gradientUnits="userSpaceOnUse">
<stop stop-color="#B0BACC"/>
<stop offset="1" stop-color="#969EAE"/>
</linearGradient>
<linearGradient id="paint6_linear_302_2740" x1="100.522" y1="78.1622" x2="98.5992" y2="81.9713" gradientUnits="userSpaceOnUse">
<stop stop-color="#B0BACC"/>
<stop offset="1" stop-color="#969EAE"/>
</linearGradient>
</defs>
</svg>
