<svg width="48" height="48" viewBox="0 0 48 48" fill="none" xmlns="http://www.w3.org/2000/svg">
<rect x="0.5" y="0.5" width="47" height="47" rx="11.5" fill="black"/>
<rect x="0.5" y="0.5" width="47" height="47" rx="11.5" stroke="#EFF2F5"/>
<g clip-path="url(#clip0_11666_10640)">
<path d="M20.0001 17.3333H28.0001M20.0001 22.6667H28.0001M25.3334 28H28.0001M14.6667 36V14.6667C14.6667 13.9594 14.9477 13.2811 15.4478 12.781C15.9479 12.281 16.6262 12 17.3334 12H30.6667C31.374 12 32.0523 12.281 32.5524 12.781C33.0525 13.2811 33.3334 13.9594 33.3334 14.6667V36L29.3334 33.3333L26.6667 36L24.0001 33.3333L21.3334 36L18.6667 33.3333L14.6667 36Z" stroke="white" stroke-width="2" stroke-linecap="round" stroke-linejoin="round"/>
</g>
<defs>
<clipPath id="clip0_11666_10640">
<rect width="32" height="32" fill="white" transform="translate(8 8)"/>
</clipPath>
</defs>
</svg>
