<svg width="137" height="136" viewBox="0 0 137 136" fill="none" xmlns="http://www.w3.org/2000/svg">
<path d="M47.3254 22.4341C16.6374 30.9301 -1.35288 62.6951 7.14312 93.3832C15.6391 124.071 47.4041 142.062 78.0922 133.566C108.78 125.069 126.771 93.3045 118.275 62.6164C109.779 31.9283 78.0135 13.9381 47.3254 22.4341Z" fill="#EAEEF9"/>
<path d="M82.9364 39.1985L84.0306 38.6461C84.0885 38.6301 84.1883 38.5401 84.1562 38.4243L84.0672 37.2018C84.077 37.012 84.1608 36.8641 84.3346 36.816C84.5083 36.7679 84.7141 36.8356 84.7622 37.0094L85.3146 38.1036C85.3306 38.1615 85.4206 38.2613 85.5364 38.2292L86.7589 38.1402C86.9487 38.15 87.0966 38.2338 87.1447 38.4075C87.1928 38.5813 87.1251 38.7871 86.9513 38.8352L85.8571 39.3876C85.7992 39.4036 85.6994 39.4936 85.7315 39.6094L85.8205 40.8319C85.8107 41.0217 85.7269 41.1696 85.5532 41.2177C85.3794 41.2658 85.1736 41.1981 85.1255 41.0243L84.5731 39.9301C84.5571 39.8722 84.4671 39.7724 84.3513 39.8045L83.1288 39.8935C82.939 39.8837 82.7911 39.7999 82.743 39.6262C82.7109 39.5103 82.7787 39.3045 82.9364 39.1985Z" fill="#D6DCE8"/>
<path d="M30.401 45.4908L31.4442 44.9643C31.4994 44.949 31.5945 44.8632 31.564 44.7528L31.4791 43.5873C31.4885 43.4064 31.5683 43.2654 31.7339 43.2195C31.8996 43.1737 32.0958 43.2383 32.1417 43.4039L32.6682 44.447C32.6835 44.5023 32.7693 44.5974 32.8797 44.5668L34.0452 44.482C34.2261 44.4913 34.3671 44.5712 34.413 44.7368C34.4588 44.9025 34.3943 45.0987 34.2286 45.1445L33.1855 45.6711C33.1303 45.6864 33.0351 45.7722 33.0657 45.8826L33.1505 47.048C33.1412 47.229 33.0613 47.37 32.8957 47.4158C32.73 47.4617 32.5338 47.3971 32.488 47.2315L31.9614 46.1883C31.9461 46.1331 31.8603 46.038 31.7499 46.0685L30.5845 46.1534C30.4035 46.1441 30.2625 46.0642 30.2167 45.8986C30.1708 45.7329 30.2354 45.5367 30.401 45.4908Z" fill="#D6DCE8"/>
<path d="M67.7701 56.9134L68.6126 56.4881C68.6572 56.4758 68.734 56.4065 68.7093 56.3173L68.6408 55.376C68.6483 55.2299 68.7128 55.116 68.8466 55.0789C68.9804 55.0419 69.1389 55.094 69.1759 55.2278L69.6012 56.0704C69.6136 56.115 69.6829 56.1918 69.7721 56.1671L70.7133 56.0986C70.8595 56.1061 70.9734 56.1706 71.0104 56.3044C71.0474 56.4382 70.9953 56.5967 70.8615 56.6337L70.019 57.059C69.9744 57.0714 69.8975 57.1406 69.9222 57.2298L69.9908 58.1711C69.9832 58.3173 69.9187 58.4311 69.7849 58.4682C69.6511 58.5052 69.4927 58.4531 69.4556 58.3193L69.0303 57.4768C69.018 57.4322 68.9487 57.3553 68.8595 57.38L67.9182 57.4486C67.7721 57.441 67.6582 57.3765 67.6212 57.2427C67.5519 57.1659 67.6486 56.995 67.7701 56.9134Z" fill="#D6DCE8"/>
<path d="M34.5772 116.25L36.0898 115.487C36.1699 115.464 36.3079 115.34 36.2635 115.18L36.1405 113.49C36.1541 113.228 36.2698 113.023 36.51 112.957C36.7502 112.89 37.0348 112.984 37.1012 113.224L37.8648 114.737C37.887 114.817 38.0114 114.955 38.1715 114.91L39.8614 114.787C40.1238 114.801 40.3282 114.917 40.3947 115.157C40.4612 115.397 40.3676 115.682 40.1274 115.748L38.6148 116.512C38.5347 116.534 38.3968 116.658 38.4411 116.818L38.5642 118.508C38.5506 118.771 38.4348 118.975 38.1946 119.042C37.9544 119.108 37.6699 119.014 37.6034 118.774L36.8398 117.262C36.8177 117.182 36.6933 117.044 36.5332 117.088L34.8432 117.211C34.5809 117.197 34.3764 117.082 34.3099 116.841C34.2434 116.601 34.3592 116.397 34.5772 116.25Z" fill="#D6DCE8"/>
<path d="M111.32 76.2245L112.113 75.0358C112.162 74.9863 112.212 74.8377 112.113 74.7386L111.32 73.5499C111.221 73.3518 111.221 73.1537 111.37 73.0051C111.518 72.8565 111.766 72.807 111.915 72.9556L113.103 73.748C113.153 73.7976 113.301 73.8471 113.401 73.748L114.589 72.9556C114.787 72.8565 114.985 72.8565 115.134 73.0051C115.283 73.1537 115.332 73.4013 115.184 73.5499L114.391 74.7386C114.342 74.7882 114.292 74.9367 114.391 75.0358L115.184 76.2245C115.283 76.4226 115.283 76.6207 115.134 76.7693C114.985 76.9179 114.738 76.9674 114.589 76.8188L113.401 76.0264C113.351 75.9768 113.202 75.9273 113.103 76.0264L111.915 76.8188C111.717 76.9179 111.518 76.9179 111.37 76.7693C111.221 76.6207 111.172 76.3731 111.32 76.2245Z" fill="#D6DCE8"/>
<path d="M34.7182 67.7452L35.7323 65.7112C35.8006 65.6232 35.8492 65.3788 35.6731 65.2422L34.1857 63.5238C33.9899 63.2309 33.9505 62.9182 34.1554 62.6541C34.3603 62.39 34.7414 62.2625 35.0055 62.4674L37.0394 63.4815C37.1274 63.5498 37.3718 63.5984 37.5084 63.4224L39.2268 61.9349C39.5198 61.7391 39.8325 61.6997 40.0966 61.9046C40.3607 62.1096 40.4882 62.4906 40.2832 62.7547L39.2691 64.7886C39.2008 64.8766 39.1522 65.121 39.3283 65.2576L40.8157 66.976C41.0115 67.269 41.0509 67.5817 40.846 67.8458C40.6411 68.1099 40.2601 68.2374 39.996 68.0324L37.962 67.0183C37.874 66.95 37.6296 66.9014 37.493 67.0775L35.7746 68.5649C35.4817 68.7607 35.169 68.8001 34.9049 68.5952C34.6408 68.3903 34.5133 68.0093 34.7182 67.7452Z" fill="#D6DCE8"/>
<path d="M54.9176 127.825L56.3384 127.107C56.4136 127.087 56.5432 126.97 56.5015 126.819L56.3859 125.232C56.3987 124.986 56.5074 124.794 56.733 124.731C56.9586 124.669 57.2259 124.757 57.2883 124.982L58.0055 126.403C58.0263 126.478 58.1432 126.608 58.2936 126.566L59.8809 126.451C60.1273 126.463 60.3193 126.572 60.3818 126.798C60.4442 127.023 60.3563 127.291 60.1307 127.353L58.71 128.07C58.6348 128.091 58.5052 128.208 58.5468 128.358L58.6624 129.945C58.6497 130.192 58.5409 130.384 58.3153 130.446C58.0897 130.509 57.8225 130.421 57.76 130.195L57.0428 128.775C57.022 128.699 56.9052 128.57 56.7548 128.611L55.1675 128.727C54.9211 128.714 54.729 128.606 54.6666 128.38C54.6041 128.154 54.692 127.887 54.9176 127.825Z" fill="#D6DCE8"/>
<path d="M27.6069 91.4805L28.5952 89.7279C28.6596 89.6532 28.7135 89.4393 28.564 89.3105L27.3264 87.7242C27.1665 87.4564 27.1457 87.1781 27.3388 86.9539C27.5319 86.7296 27.8745 86.6341 28.0988 86.8272L29.8513 87.8154C29.9261 87.8798 30.14 87.9338 30.2687 87.7843L31.855 86.5466C32.1229 86.3867 32.4011 86.3659 32.6254 86.559C32.8496 86.7521 32.9452 87.0947 32.7521 87.319L31.7638 89.0716C31.6994 89.1463 31.6455 89.3602 31.795 89.4889L33.0326 91.0752C33.1925 91.3431 33.2133 91.6213 33.0202 91.8456C32.8271 92.0699 32.4845 92.1654 32.2602 91.9723L30.5077 90.984C30.4329 90.9197 30.219 90.8657 30.0903 91.0152L28.504 92.2529C28.2362 92.4128 27.9579 92.4335 27.7336 92.2404C27.5094 92.0473 27.4138 91.7047 27.6069 91.4805Z" fill="#D6DCE8"/>
<path d="M52.3964 36.8115L54.2513 35.9156C54.4289 35.8664 54.4685 35.6643 54.4439 35.5755L54.2583 33.524C54.2734 33.2331 54.466 32.893 54.7323 32.8192C54.9987 32.7455 55.3142 32.8493 55.5013 33.1799L56.3971 35.0348C56.4463 35.2123 56.6484 35.252 56.7372 35.2274L58.7888 35.0418C59.0797 35.0568 59.4198 35.2494 59.4935 35.5157C59.5672 35.7821 59.4634 36.0976 59.1329 36.2847L57.278 37.1806C57.1004 37.2297 57.0608 37.4319 57.0854 37.5207L57.271 39.5722C57.2559 39.8631 57.0633 40.2032 56.797 40.277C56.5306 40.3507 56.2151 40.2469 56.028 39.9163L55.1321 38.0614C55.083 37.8839 54.8808 37.8442 54.7921 37.8688L52.7405 38.0544C52.4496 38.0394 52.1095 37.8468 52.0358 37.5804C51.9375 37.2253 52.0413 36.9098 52.3964 36.8115Z" fill="#D6DCE8"/>
<path d="M95.7322 56.8062L96.6639 56.3562C96.7531 56.3315 96.773 56.2299 96.7607 56.1853L96.6674 55.1549C96.675 55.0087 96.7717 54.8379 96.9055 54.8009C97.0393 54.7638 97.1978 54.816 97.2918 54.982L97.7418 55.9137C97.7665 56.0029 97.868 56.0228 97.9126 56.0105L98.9431 55.9172C99.0892 55.9248 99.26 56.0215 99.2971 56.1553C99.3341 56.2891 99.282 56.4476 99.1159 56.5416L98.1842 56.9916C98.095 57.0163 98.0751 57.1178 98.0875 57.1624L98.1807 58.1929C98.1731 58.339 98.0764 58.5098 97.9426 58.5469C97.8088 58.5839 97.6503 58.5318 97.5564 58.3657L97.1064 57.434C97.0817 57.3448 96.9801 57.3249 96.9355 57.3373L95.9051 57.4305C95.7589 57.4229 95.5881 57.3262 95.5511 57.1924C95.514 57.0586 95.6108 56.8878 95.7322 56.8062Z" fill="#D6DCE8"/>
<path d="M87.4531 114.677L89.5527 113.663C89.7537 113.607 89.7985 113.378 89.7707 113.278L89.5606 110.956C89.5776 110.627 89.7956 110.242 90.0971 110.158C90.3986 110.075 90.7557 110.192 90.9675 110.566L91.9816 112.666C92.0372 112.867 92.266 112.912 92.3665 112.884L94.6887 112.674C95.018 112.691 95.403 112.909 95.4864 113.21C95.5699 113.512 95.4524 113.869 95.0782 114.081L92.9786 115.095C92.7776 115.15 92.7328 115.379 92.7606 115.48L92.9707 117.802C92.9537 118.131 92.7357 118.516 92.4342 118.6C92.1327 118.683 91.7756 118.566 91.5638 118.191L90.5497 116.092C90.4941 115.891 90.2653 115.846 90.1648 115.874L87.8426 116.084C87.5133 116.067 87.1283 115.849 87.0449 115.547C86.9614 115.246 87.0789 114.889 87.4531 114.677Z" fill="#D6DCE8"/>
<path d="M97.292 93.1852L98.8009 92.4564C98.9454 92.4164 98.9776 92.252 98.9576 92.1798L98.8066 90.5109C98.8189 90.2742 98.9755 89.9975 99.1922 89.9375C99.4089 89.8776 99.6655 89.962 99.8178 90.2309L100.547 91.7399C100.587 91.8843 100.751 91.9165 100.823 91.8966L102.492 91.7456C102.729 91.7578 103.005 91.9145 103.065 92.1312C103.125 92.3478 103.041 92.6045 102.772 92.7567L101.263 93.4855C101.119 93.5255 101.086 93.6899 101.106 93.7621L101.257 95.431C101.245 95.6677 101.088 95.9444 100.872 96.0043C100.655 96.0643 100.398 95.9799 100.246 95.711L99.5175 94.202C99.4775 94.0576 99.3131 94.0253 99.2408 94.0453L97.5719 94.1963C97.3353 94.1841 97.0586 94.0274 96.9986 93.8107C96.9386 93.5941 97.0953 93.3174 97.292 93.1852Z" fill="#D6DCE8"/>
<path d="M13.3584 71.0842L15.5961 70.8817C15.7898 70.8281 15.9402 70.995 15.967 71.0918L16.9442 73.1149C17.1214 73.3786 17.4924 73.5887 17.7829 73.5083C18.0734 73.4279 18.3103 73.1538 18.2999 72.7396L18.0974 70.502C18.0438 70.3083 18.2107 70.1579 18.3075 70.131L20.3307 69.1539C20.5944 68.9766 20.8045 68.6057 20.724 68.3152C20.6436 68.0247 20.3695 67.7878 19.9553 67.7982L17.7177 68.0007C17.524 68.0543 17.3736 67.8874 17.3468 67.7906L16.3696 65.7674C16.1924 65.5037 15.8214 65.2936 15.5309 65.374C15.2404 65.4545 15.0035 65.7286 15.0139 66.1427L15.2164 68.3804C15.27 68.574 15.1031 68.7245 15.0063 68.7513L12.9831 69.7285C12.7194 69.9057 12.5093 70.2767 12.5898 70.5672C12.697 70.9545 13.0679 71.1646 13.3584 71.0842Z" fill="#D6DCE8"/>
<path d="M1.39625 115.617L4.56008 115.331C4.83392 115.255 5.04663 115.491 5.08454 115.628L6.46615 118.489C6.71678 118.861 7.24125 119.158 7.65201 119.045C8.06276 118.931 8.3977 118.543 8.38299 117.958L8.09675 114.794C8.02094 114.52 8.25685 114.307 8.39377 114.27L11.2544 112.888C11.6272 112.637 11.9242 112.113 11.8105 111.702C11.6968 111.291 11.3093 110.956 10.7237 110.971L7.55984 111.257C7.28601 111.333 7.07329 111.097 7.03539 110.96L5.65378 108.1C5.40314 107.727 4.87867 107.43 4.46792 107.544C4.05716 107.657 3.72223 108.045 3.73693 108.63L4.02317 111.794C4.09899 112.068 3.86307 112.281 3.72616 112.319L0.865563 113.7C0.492715 113.951 0.195696 114.475 0.309413 114.886C0.461036 115.434 0.985493 115.731 1.39625 115.617Z" fill="#EAEEF9"/>
<path d="M6.64966 35.3032L9.56681 35.0393C9.81929 34.9694 10.0154 35.1869 10.0504 35.3132L11.3243 37.9507C11.5553 38.2945 12.0389 38.5684 12.4176 38.4635C12.7964 38.3587 13.1052 38.0013 13.0916 37.4614L12.8277 34.5443C12.7578 34.2918 12.9753 34.0956 13.1016 34.0607L15.7391 32.7868C16.0829 32.5557 16.3568 32.0722 16.2519 31.6934C16.1471 31.3147 15.7897 31.0059 15.2498 31.0194L12.3327 31.2834C12.0802 31.3533 11.8841 31.1357 11.8491 31.0095L10.5752 28.372C10.3441 28.0282 9.86056 27.7543 9.48183 27.8592C9.1031 27.964 8.79428 28.3213 8.80784 28.8613L9.07176 31.7784C9.14166 32.0309 8.92414 32.227 8.7979 32.262L6.16036 33.5358C5.81658 33.7669 5.54272 34.2505 5.64757 34.6292C5.78737 35.1342 6.27094 35.4081 6.64966 35.3032Z" fill="#EAEEF9"/>
<path d="M122.213 89.9412L126.189 91.3583C126.562 91.4193 126.687 91.8225 126.657 92.0088L126.73 96.2294C126.824 96.8188 127.292 97.4693 127.851 97.561C128.409 97.6526 129.029 97.3716 129.338 96.657L130.755 92.6807C130.816 92.3081 131.219 92.1829 131.406 92.2135L135.626 92.1402C136.216 92.0456 136.866 91.5783 136.958 91.0194C137.049 90.4606 136.768 89.8406 136.054 89.5321L132.077 88.115C131.705 88.0539 131.58 87.6508 131.61 87.4645L131.537 83.2439C131.442 82.6545 130.975 82.0039 130.416 81.9123C129.857 81.8207 129.237 82.1017 128.929 82.8163L127.512 86.7926C127.451 87.1651 127.048 87.2904 126.861 87.2598L122.641 87.333C122.051 87.4277 121.401 87.895 121.309 88.4539C121.187 89.199 121.654 89.8495 122.213 89.9412Z" fill="#EAEEF9"/>
<path d="M38.8184 49.8044C38.449 49.9066 38.2324 50.289 38.3347 50.6585C38.437 51.0279 38.8194 51.2445 39.1888 51.1422C39.5583 51.0399 39.7748 50.6575 39.6726 50.2881C39.5703 49.9187 39.1879 49.7021 38.8184 49.8044Z" fill="#D6DCE8"/>
<path d="M62.7083 67.2448C62.3388 67.3471 62.1223 67.7295 62.2245 68.0989C62.3268 68.4684 62.7092 68.6849 63.0787 68.5827C63.4481 68.4804 63.6647 68.098 63.5624 67.7285C63.4601 67.3591 63.0777 67.1425 62.7083 67.2448Z" fill="#D6DCE8"/>
<path d="M78.2271 39.1094C78.0314 39.439 78.14 39.8649 78.4696 40.0605C78.7992 40.2562 79.2251 40.1476 79.4208 39.818C79.6165 39.4884 79.5079 39.0626 79.1783 38.8669C78.8486 38.6712 78.4228 38.7798 78.2271 39.1094Z" fill="#D6DCE8"/>
<path d="M55.8319 25.8071C55.6362 26.1368 55.7448 26.5626 56.0744 26.7583C56.404 26.954 56.8299 26.8454 57.0256 26.5158C57.2212 26.1862 57.1127 25.7603 56.7831 25.5646C56.4534 25.3689 56.0276 25.4775 55.8319 25.8071Z" fill="#D6DCE8"/>
<path d="M15.8804 56.3638C15.6847 56.6934 15.7933 57.1192 16.1229 57.3149C16.4526 57.5106 16.8784 57.402 17.0741 57.0724C17.2698 56.7428 17.1612 56.317 16.8316 56.1213C16.502 55.9256 16.0761 56.0342 15.8804 56.3638Z" fill="#D6DCE8"/>
<path d="M18.7888 83.6582C18.5932 83.9878 18.7017 84.4137 19.0314 84.6094C19.361 84.805 19.7868 84.6965 19.9825 84.3669C20.1782 84.0372 20.0696 83.6114 19.74 83.4157C19.4104 83.22 18.9845 83.3286 18.7888 83.6582Z" fill="#D6DCE8"/>
<path d="M26.3602 110.938C26.1645 111.267 26.2731 111.693 26.6027 111.889C26.9323 112.084 27.3581 111.976 27.5538 111.646C27.7495 111.317 27.6409 110.891 27.3113 110.695C26.9817 110.499 26.5558 110.608 26.3602 110.938Z" fill="#D6DCE8"/>
<path d="M44.6697 124.878C44.474 125.208 44.5826 125.634 44.9122 125.83C45.2418 126.025 45.6676 125.917 45.8633 125.587C46.059 125.257 45.9504 124.832 45.6208 124.636C45.2912 124.44 44.8654 124.549 44.6697 124.878Z" fill="#D6DCE8"/>
<path d="M78.1645 125.102C77.9689 125.431 78.0774 125.857 78.4071 126.053C78.7367 126.248 79.1625 126.14 79.3582 125.81C79.5539 125.481 79.4453 125.055 79.1157 124.859C78.7861 124.663 78.3602 124.772 78.1645 125.102Z" fill="#D6DCE8"/>
<path d="M101.469 104.309C101.274 104.638 101.382 105.064 101.712 105.26C102.041 105.455 102.467 105.347 102.663 105.017C102.859 104.688 102.75 104.262 102.42 104.066C102.091 103.87 101.665 103.979 101.469 104.309Z" fill="#D6DCE8"/>
<path d="M113.89 81.7559C113.694 82.0855 113.803 82.5113 114.133 82.707C114.462 82.9027 114.888 82.7941 115.084 82.4645C115.279 82.1349 115.171 81.709 114.841 81.5134C114.512 81.3177 114.086 81.4262 113.89 81.7559Z" fill="#D6DCE8"/>
<path d="M99.8649 47.1279C99.6692 47.4576 99.7778 47.8834 100.107 48.0791C100.437 48.2748 100.863 48.1662 101.059 47.8366C101.254 47.507 101.146 47.0811 100.816 46.8854C100.486 46.6897 100.061 46.7983 99.8649 47.1279Z" fill="#D6DCE8"/>
<path d="M89.8594 77.1951L95.918 72.5874L93.7627 69.7267L87.7041 74.3343L89.8594 77.1951Z" fill="#989FB0"/>
<path d="M129.643 59.1586L115.844 40.8314L87.748 62.2119L101.547 80.5392L129.643 59.1586Z" fill="white" stroke="#989FB0" stroke-width="2" stroke-miterlimit="10"/>
<path d="M108.85 75.2915L94.6777 56.5684" stroke="#989FB0" stroke-width="2" stroke-miterlimit="10"/>
<path d="M115.781 70.0454L101.608 51.3223" stroke="#989FB0" stroke-width="2" stroke-miterlimit="10"/>
<path d="M122.711 64.7993L108.539 46.0762" stroke="#989FB0" stroke-width="2" stroke-miterlimit="10"/>
<path d="M120.201 47.0808L92.4785 68.0654" stroke="#989FB0" stroke-width="2" stroke-miterlimit="10"/>
<path d="M124.933 53.3317L97.2104 74.3164" stroke="#989FB0" stroke-width="2" stroke-miterlimit="10"/>
<path d="M96.7058 101.014C94.5061 102.679 91.3795 102.243 89.7108 100.039L86.9449 96.3849C86.8078 96.2037 86.8441 95.9387 87.025 95.8018L94.3474 90.2591C94.5282 90.1223 94.7932 90.1592 94.9303 90.3404L97.6962 93.9944C99.3348 96.2218 98.8754 99.372 96.7058 101.014Z" fill="#D5DDEA"/>
<path d="M79.3898 63.4855L65.2572 74.1831L84.6871 99.8519L84.7099 99.8821C84.7099 99.8821 84.7099 99.8821 84.7328 99.9123C85.5401 100.916 89.3213 99.3366 93.2085 96.3942C97.0958 93.4518 99.6125 90.2643 98.8956 89.1919C98.8956 89.1919 98.8956 89.1919 98.8727 89.1617L98.8498 89.1315L79.42 63.4627L79.3898 63.4855Z" fill="white"/>
<path d="M86.3617 72.6961L91.7563 79.8229L91.7792 79.8531L91.8021 79.8833C92.5491 80.9329 90.0023 84.1433 86.115 87.0857C82.2278 90.0281 78.4767 91.5849 77.6393 90.6038L77.6164 90.5736L77.5936 90.5434L72.1989 83.4165C73.0062 84.4204 76.7875 82.8408 80.6747 79.8984C84.5619 76.956 87.0859 73.7154 86.3617 72.6961Z" fill="#989FB0"/>
<path d="M79.9028 51.6162C83.5687 56.482 80.7007 64.8788 73.4857 70.3658C66.2706 75.8528 57.4179 76.3696 53.752 71.5038C53.7298 71.4743 53.7076 71.4448 53.6853 71.4153C53.6631 71.3858 53.6187 71.3269 53.5965 71.2974C52.4239 69.3596 57.1416 63.5452 64.2349 58.1508C71.3282 52.7564 78.2011 49.8025 79.7168 51.433C79.739 51.4625 79.7834 51.5214 79.8057 51.5509C79.8361 51.5278 79.8583 51.5573 79.9028 51.6162Z" fill="#D5DDEA"/>
<path d="M79.6784 51.4516L79.7006 51.481C80.1129 52.0908 79.8883 53.1843 79.1205 54.506C77.5765 57.2017 73.909 61.0028 69.1482 64.6191C64.3874 68.2355 59.7158 70.7687 56.7416 71.505C55.2655 71.8878 54.1558 71.8078 53.6829 71.244L53.6607 71.2147C53.6386 71.1854 53.6165 71.156 53.5943 71.1267C52.4263 69.1988 57.1256 63.4141 64.191 58.0472C71.2564 52.6803 78.1023 49.7415 79.6121 51.3636C79.6342 51.393 79.6563 51.4223 79.6784 51.4516Z" fill="#D5DDEA"/>
<path d="M79.1115 54.5199L79.1336 54.5492C77.5914 57.2405 73.9281 61.0354 69.1727 64.6458C64.4174 68.2563 59.7512 70.7853 56.7804 71.5204L56.7583 71.4912C56.7362 71.4619 56.7141 71.4326 56.7141 71.4326C55.7161 69.7944 59.755 64.7928 65.8128 60.1936C71.9009 55.5713 77.7663 53.0532 79.0672 54.4613C79.0672 54.4613 79.0894 54.4906 79.1115 54.5199Z" fill="#989FB0"/>
<path d="M68.1429 60.3963C68.2474 60.5996 67.7415 61.2197 66.9989 61.7842C66.2254 62.3721 65.4937 62.6927 65.3356 62.483L60.2782 54.5473L61.7324 53.442L68.0977 60.3364L68.1429 60.3963Z" fill="#989FB0"/>
<path d="M61.6125 54.6609C62.56 53.9399 62.7675 52.6109 62.076 51.6925C61.3846 50.7741 60.056 50.6141 59.1085 51.3351C58.161 52.0561 57.9535 53.3851 58.645 54.3035C59.3364 55.2219 60.6651 55.3819 61.6125 54.6609Z" fill="#989FB0"/>
<path d="M47.6673 121.321L33.8682 102.994L61.9643 81.6131L75.7635 99.9404L47.6673 121.321Z" fill="white" stroke="#989FB0" stroke-width="2" stroke-miterlimit="10"/>
<path d="M68.8326 105.583L54.6602 86.8594" stroke="#989FB0" stroke-width="2" stroke-miterlimit="10"/>
<path d="M61.9019 110.828L47.7296 92.105" stroke="#989FB0" stroke-width="2" stroke-miterlimit="10"/>
<path d="M54.9712 116.075L40.7989 97.3516" stroke="#989FB0" stroke-width="2" stroke-miterlimit="10"/>
<path d="M38.6 108.849L66.3229 87.8644" stroke="#989FB0" stroke-width="2" stroke-miterlimit="10"/>
<path d="M43.3321 115.1L71.055 94.1149" stroke="#989FB0" stroke-width="2" stroke-miterlimit="10"/>
<path d="M73.6387 84.9861L67.5801 89.5938L69.7354 92.4545L75.794 87.8468L73.6387 84.9861Z" fill="#989FB0"/>
<path d="M30.3854 34.3281C30.149 35.9039 29.1247 38.9768 27.3125 39.4495C27.2337 39.4495 27.1549 39.4495 27.0761 39.5283C25.3427 39.7647 23.3729 38.5828 22.1123 37.7161C21.482 37.2434 20.8516 36.6918 20.3001 36.1403C20.0637 35.9039 19.7486 35.5887 19.5122 35.3524C17.7 33.3826 16.2817 30.9401 15.415 28.34C15.2575 27.7884 15.0999 27.2369 15.1787 26.6853C15.1787 26.5278 15.2575 26.449 15.2575 26.3702C15.415 25.9762 15.7302 25.5823 16.203 25.5035C16.5969 25.4247 16.9121 25.5823 17.306 25.6611C17.7 25.8186 18.0152 25.9762 18.4091 26.2126C17.5424 25.1883 17.306 23.4549 17.306 22.1943C17.306 22.1155 17.306 21.9579 17.3848 21.9579C17.4636 21.8791 17.7 21.9579 17.7788 22.0367C19.0394 22.9822 19.0394 24.7156 19.591 26.1338C19.591 25.1095 19.6698 24.0852 19.6698 23.061C19.6698 22.3518 19.7486 21.4851 20.3001 21.0124C20.3789 20.9336 20.4577 20.9336 20.5365 20.9336C20.6941 20.9336 20.7728 21.0912 20.8516 21.17C21.7971 22.8246 21.2456 24.8731 21.4032 26.7641C21.482 27.4733 21.5608 28.1824 21.7183 28.8915C21.7971 29.2067 21.9547 29.9158 22.1123 30.6249C22.2699 30.9401 22.4275 31.2552 22.6638 31.5704C22.7426 31.728 22.9002 31.8856 23.0578 31.9643C23.2942 32.2007 23.6093 32.4371 23.9245 32.6735C24.5548 32.9886 25.1851 33.225 25.8943 33.3826C27.1549 33.619 28.4156 33.619 29.6762 33.6978C29.9126 33.6978 30.149 33.7765 30.3066 33.9341C30.3854 34.0917 30.3854 34.1705 30.3854 34.3281Z" fill="#D5DDEA"/>
<path d="M46.9312 60.4077C45.2765 60.4077 43.5431 59.8562 42.2825 59.0682C39.84 57.4924 38.3429 55.1287 36.9247 53.0013L39.6824 51.1891C40.943 53.0801 42.2037 55.1287 44.0159 56.2318C45.4341 57.1773 47.7191 57.4924 48.9797 56.3893C50.5555 54.9711 50.1616 52.2922 49.5313 50.3224C48.7433 47.8799 47.2463 45.7525 45.4341 44.4131L47.4039 41.813C49.8464 43.6252 51.7374 46.3041 52.6829 49.3769C54.0224 53.5529 53.5496 56.8621 51.1859 58.9107C50.004 59.9349 48.4282 60.4077 46.9312 60.4077Z" fill="#AAB2C5"/>
<path d="M50.3196 34.2497C50.3984 35.4316 50.0044 36.6135 49.5317 37.7953C47.7195 42.5228 45.8285 47.2503 43.6223 51.8202C43.1496 52.6869 42.7556 53.6324 42.2829 54.4991C41.6526 55.7597 40.8647 57.178 39.4464 57.4931C38.2645 57.7295 37.1615 57.178 36.1372 56.6264C35.822 56.4688 35.5069 56.2325 35.3493 55.9173C35.1917 55.6021 35.2705 55.2082 35.3493 54.893C36.2948 50.1655 38.107 45.7532 39.9192 41.2621C40.7859 39.056 41.7314 36.7711 42.4405 34.4861C42.992 32.9103 43.386 30.8617 45.4345 30.7041C47.3255 30.6254 50.162 32.1224 50.3196 34.2497Z" fill="#AAB2C5"/>
<path d="M28.3367 48.3528C28.3367 48.5104 28.3367 48.5892 28.3367 48.7468C28.2579 49.7711 28.0215 50.7166 27.47 51.5833C26.8396 52.5288 25.8941 53.3167 24.7911 53.5531C24.5547 53.6318 24.3183 53.6318 24.0819 53.6318C23.0576 53.7106 22.0334 53.3955 21.0879 53.0015C19.906 52.5288 18.7241 51.9772 17.3847 51.8984C16.6756 51.8196 15.9664 51.8984 15.2573 52.056C14.8634 52.1348 14.5482 52.2924 14.1543 52.3712C13.7603 52.5288 13.3663 52.6863 12.9724 52.8439C11.6329 53.4743 10.2935 54.341 8.95404 54.8925C7.85097 55.3652 6.51152 55.6016 5.56602 54.8925C5.09328 54.5773 4.8569 54.0258 4.62053 53.5531C3.28108 51.0317 2.09921 48.5104 0.917348 45.9103C0.838557 45.8315 0.759766 45.6739 0.759766 45.5164C0.759766 45.1224 1.23251 44.8072 1.54768 44.6497C1.62647 44.5709 1.70526 44.5709 1.78405 44.4921C2.65075 44.0981 3.43866 43.783 4.38416 43.6254C5.40844 43.5466 6.51152 43.7042 7.22064 44.4133C7.69338 44.886 8.00855 45.4376 8.32371 46.0679C8.63888 46.777 9.03283 47.4861 9.348 48.1953C10.2935 47.4073 11.239 46.6194 12.2633 45.9103C12.5784 45.6739 12.8936 45.5164 13.2088 45.3588C13.7603 45.0436 14.3906 44.7284 15.021 44.5709C16.0452 44.1769 17.1483 44.0193 18.2514 43.9405C18.8029 43.8617 19.3545 43.783 19.906 43.8617C20.5363 43.8617 21.1667 44.0193 21.7182 44.0981C23.2152 44.4133 24.7911 44.7284 26.2881 45.0436L24.6335 44.886C25.9729 45.2012 27.5487 45.6739 28.1003 46.9346C28.3367 47.3286 28.3367 47.8801 28.3367 48.3528Z" fill="#D5DDEA"/>
<path d="M22.5059 44.5711C21.9544 46.6984 22.4271 48.9834 23.7666 50.7956C23.8454 50.8743 23.9241 51.0319 24.0817 50.9531C24.1605 50.9531 24.1605 50.8743 24.2393 50.7956C24.4757 50.244 24.5545 49.6137 24.6333 49.0621C24.7909 47.7227 25.2636 45.5953 24.7909 44.2559C24.2393 42.9952 22.7423 43.5468 22.5059 44.5711Z" fill="#AAB2C5"/>
<path d="M32.2761 29.4431C31.6458 30.3098 30.8578 31.0189 30.1487 31.8068C25.9728 36.2979 24.003 42.5224 22.8212 48.5893C22.506 50.1652 22.3484 51.8986 23.2939 53.0804C23.7667 53.632 24.397 54.0259 25.0273 54.3411C26.0516 54.8926 26.9971 55.4442 28.0214 55.9957C29.2032 56.626 30.4639 57.3351 31.8033 57.4139C33.3792 57.4927 34.955 56.7048 36.1369 55.6017C37.3187 54.4987 38.1066 53.0804 38.8945 51.6622C40.8643 48.0378 42.6765 44.3346 44.2523 40.5526C44.7251 39.4496 45.1978 38.2677 45.3554 37.0858C45.5918 35.3524 45.1978 33.619 44.8827 31.9644C44.8039 31.5705 44.7251 31.0977 44.4099 30.7825C44.016 30.3886 43.3856 30.3886 42.9129 30.4674C39.4461 30.625 35.9005 30.9401 32.5913 30.1522C31.8821 29.9946 31.0942 29.7583 30.7003 29.1279" fill="#D5DDEA"/>
<path d="M15.2575 52.1347C14.8635 52.2135 14.5483 52.3711 14.1544 52.4499C14.0756 51.3468 13.918 50.0862 13.6028 48.9043C13.2877 47.88 12.8937 46.9345 12.2634 45.989C12.5786 45.7527 12.8937 45.5951 13.2089 45.4375C13.8392 46.4618 14.312 47.4861 14.6271 48.5891C14.9423 49.771 15.1787 51.0317 15.2575 52.1347Z" fill="#AAB2C5"/>
<path d="M25.9725 50.5591C25.6573 51.347 25.8149 50.3227 25.7361 51.2682C25.7361 52.1349 25.9725 53.0016 26.4452 53.7895C27.3907 55.1289 29.0453 55.9169 30.6211 56.4684C32.0394 56.9411 33.5364 57.1775 34.9546 56.4684C36.688 55.6017 38.0275 53.5531 37.8699 51.5833C37.7123 48.9832 34.6395 47.6438 32.3545 47.4074C29.5181 47.0923 28.0998 48.1165 25.8937 49.7711V50.5591H25.9725Z" fill="#AAB2C5"/>
<path d="M47.9554 25.5824C47.9554 25.6612 47.8766 25.8188 47.8766 25.8976C47.4826 27.631 47.0099 29.2856 46.8523 31.0978C46.7735 31.8857 46.9311 33.3039 46.1432 33.8555C45.5128 34.2494 44.4098 34.013 43.7006 34.013C41.4945 33.8555 39.3671 33.4615 37.0822 33.4615C36.9246 33.4615 36.767 33.4615 36.5307 33.4615C35.7427 33.3827 35.0336 33.0676 34.4033 32.6736C33.5366 32.2796 32.7487 31.8069 31.882 31.4917C31.1729 31.2554 30.3849 31.0978 29.991 30.4674C29.5182 29.8371 29.5182 29.0492 29.4395 28.3401C29.2031 25.9764 29.2819 23.455 29.9122 21.1701C30.3062 19.7519 31.0941 18.3336 32.2759 17.3093C34.876 14.9456 39.052 14.4728 42.2824 16.0487C44.6461 17.2305 46.6947 19.2791 47.6402 21.8004C48.0342 22.9035 48.1917 24.2429 47.9554 25.5824Z" fill="#D5DDEA"/>
<path d="M47.9552 25.5823C47.9552 25.6611 47.8764 25.8186 47.8764 25.8974C47.4824 27.6308 47.0097 29.2854 46.8521 31.0976C46.7733 31.8856 46.9309 33.3038 46.143 33.8553C45.5126 34.2493 44.4096 34.0129 43.7004 34.0129C41.4943 33.8553 39.3669 33.4614 37.082 33.4614C36.9244 33.4614 36.7668 33.4614 36.5305 33.4614C37.4759 33.0674 38.5002 33.0674 39.5245 32.9098C42.755 32.3583 45.5914 30.0734 46.8521 27.0793C47.246 26.1338 47.4824 25.1095 47.5612 24.0852C47.64 23.2973 47.64 22.5094 47.4824 21.8003C48.034 22.9034 48.1915 24.2428 47.9552 25.5823Z" fill="white" stroke="#AAB2C5" stroke-width="2" stroke-miterlimit="10" stroke-linecap="round" stroke-linejoin="round"/>
<path d="M40.8643 32.1224C39.9976 32.9103 38.9733 33.4619 37.8702 33.4619C35.9792 33.4619 34.0095 33.0679 32.276 32.2012C31.7245 31.886 31.2518 31.5709 30.779 31.2557C30.5426 31.0193 30.2275 30.783 30.0699 30.5466C29.5184 29.9163 29.2032 29.2071 29.0456 28.3404C28.5729 26.5282 28.888 24.3221 29.5184 22.5887C30.2275 20.7765 31.3306 20.0674 33.2215 19.9886C35.1125 19.831 37.3187 20.4613 39.1309 21.328C39.2097 21.4068 39.2885 21.4068 39.3672 21.4856C40.1552 21.8796 40.8643 22.3523 41.4158 22.9038C44.0947 25.3464 43.3856 29.7587 40.8643 32.1224Z" fill="#989FB0"/>
<path d="M36.6883 52.923C36.6883 53.0018 36.6883 53.0018 36.6883 53.0806C36.6883 53.4745 36.6095 53.7897 36.4519 54.1049C35.9004 55.6019 34.3245 56.5474 32.7487 57.0201C31.1729 57.4929 29.5183 57.5717 28.0213 58.0444C26.7606 58.4384 25.4999 58.9899 24.5544 59.8566C24.3181 60.093 24.0817 60.2506 23.9241 60.487C23.9241 60.5657 23.8453 60.5657 23.8453 60.6445C22.1119 62.7719 21.6392 65.8447 19.5906 67.7357C19.433 67.8933 19.2754 67.9721 19.1179 68.0509C18.9603 68.0509 18.8027 67.9721 18.6451 67.9721C15.7298 66.7114 13.0509 65.1356 10.372 63.481C9.97809 63.2446 9.50535 62.9295 9.26897 62.5355C9.11139 62.2204 9.11139 61.9052 9.26897 61.59C9.66293 60.4082 11.3963 58.9899 12.1842 58.6748C13.0509 58.3596 14.0752 58.4384 14.9419 58.7535C15.8086 59.0687 16.6753 59.6203 17.3845 60.1718C17.542 59.0687 17.8572 57.8868 18.33 56.8626C18.4875 56.5474 18.6451 56.2322 18.8027 55.9171C18.9603 55.6019 19.1967 55.3655 19.3542 55.0504C19.827 54.3412 20.4573 53.7109 21.0876 53.1594C21.9543 52.3715 22.8998 51.6623 23.8453 51.032C25.2636 50.0865 26.7606 49.2198 28.3364 48.8259C28.5728 48.7471 28.8092 48.7471 29.0455 48.6683C30.6214 48.3531 32.3548 48.5895 33.8518 49.2198C34.7185 49.535 35.5064 50.0865 36.0579 50.7956C36.4519 51.3472 36.6883 52.1351 36.6883 52.923Z" fill="#D5DDEA"/>
<path d="M24.4758 59.8565C24.2394 60.0929 24.003 60.2505 23.8455 60.4869C23.8455 60.5657 23.7667 60.5657 23.7667 60.6445C22.8212 59.4626 21.7181 58.5171 20.4574 57.808C19.9059 57.4928 19.2756 57.2564 18.6452 57.0201C18.5665 56.9413 18.4089 56.9413 18.3301 56.8625C18.4877 56.5473 18.6452 56.2322 18.8028 55.917C18.8816 55.917 18.9604 55.9958 19.0392 55.9958C19.6695 56.2322 20.3786 56.4685 21.009 56.8625C22.2696 57.5716 23.5303 58.5959 24.4758 59.8565Z" fill="#AAB2C5"/>
<path d="M60.4043 39.2922C60.4043 39.371 60.4043 39.5285 60.3255 39.6073C60.0891 40.474 59.2224 40.9468 58.3557 41.1044C58.1193 41.1832 57.8042 41.1832 57.5678 41.1832C56.9375 41.2619 56.3859 41.2619 55.7556 41.4195C55.1253 41.5771 54.4949 41.9711 53.8646 42.2862C53.2343 42.6014 52.5252 42.8378 51.8948 42.9954C51.5009 43.0741 51.1069 43.1529 50.713 43.2317C48.9796 43.4681 47.2462 43.3105 45.5916 42.759C44.5673 42.4438 43.7794 41.5771 43.3066 40.474C42.5975 38.7406 42.7551 36.5345 44.4097 35.5102C46.537 34.1707 47.8765 36.0617 49.6099 36.8496C49.9251 37.0072 50.2402 37.086 50.5554 37.1648C50.9493 37.2436 51.3433 37.2436 51.7373 37.2436C52.604 37.1648 53.4707 36.9284 54.2586 36.5345C55.6768 35.8254 56.9375 34.7223 58.1981 33.698C58.4345 33.5404 58.6709 33.304 58.986 33.3828C59.3012 33.4616 59.4588 33.8556 59.4588 34.2495V34.3283C59.38 34.6435 59.2224 34.9587 59.1436 35.2738C58.986 36.6921 60.5619 37.9527 60.4043 39.2922Z" fill="#D5DDEA"/>
<path d="M59.7744 42.6802L53.9439 14.0003C53.8651 13.6851 54.1015 13.4487 54.3378 13.3699C54.653 13.2912 54.8894 13.5275 54.9682 13.7639L60.7987 42.4439C60.8775 42.759 60.6411 42.9954 60.4048 43.0742C60.1684 43.153 59.8532 42.9166 59.7744 42.6802Z" fill="white" stroke="#AAB2C5" stroke-width="2" stroke-miterlimit="10" stroke-linecap="round" stroke-linejoin="round"/>
<path d="M61.5863 38.8193C61.5075 38.5829 61.2712 38.4253 61.0348 38.4253L61.2712 38.3465C61.6651 38.1889 61.8227 37.7162 61.6651 37.3222C61.5075 37.0071 61.1136 36.8495 60.7984 36.9283L60.956 36.8495C61.35 36.6919 61.5075 36.2192 61.35 35.8252C61.2712 35.5888 61.1136 35.5101 60.8772 35.4313C61.1924 35.1949 61.35 34.8009 61.1924 34.407C61.0348 34.013 60.562 33.8554 60.1681 34.013L57.4892 35.2737C57.0952 35.4313 56.9377 35.904 57.0952 36.298C57.174 36.5343 57.3316 36.6131 57.568 36.6919C57.2528 36.9283 57.0952 37.3222 57.2528 37.7162C57.4104 38.0314 57.8044 38.189 58.1195 38.1102L57.8831 38.189C57.4892 38.3465 57.3316 38.8193 57.4892 39.2132C57.568 39.4496 57.8044 39.6072 58.0407 39.6072C57.7256 39.8436 57.6468 40.2375 57.8044 40.5527C57.9619 40.9466 58.4347 41.1042 58.8286 40.9466L61.1924 39.8436C61.5863 39.686 61.7439 39.292 61.5863 38.8193Z" fill="#D1D9E7"/>
<path opacity="0.4" d="M37.9491 24.4794C37.634 24.9522 37.0036 25.1098 36.5309 24.8734C36.3733 24.7946 36.1369 24.7158 35.9793 24.637C33.7732 23.7703 31.4095 24.3219 30.7791 25.9765C30.6215 26.3704 30.07 26.2916 30.07 25.8977C29.9912 25.3461 30.07 24.7158 30.3064 24.1643C31.0943 22.0369 33.6944 21.0914 36.1369 22.0369C36.7673 22.2733 37.3188 22.6672 37.7915 23.0612C38.1855 23.4552 38.1855 24.0067 37.9491 24.4794Z" fill="white"/>
<path opacity="0.4" d="M30.3854 36.5345C31.9612 37.3224 35.1916 38.3467 37.1614 38.5043C37.5554 38.583 37.7129 38.8982 37.6341 39.2922C36.2947 42.4438 35.1916 45.5955 34.7977 46.7773C34.7189 47.0925 34.4037 47.2501 34.1673 47.1713C32.7491 46.7773 28.8095 45.6742 27.2337 45.0439C26.9186 44.9651 26.8398 44.65 26.9186 44.3348C28.258 41.0256 29.2035 38.1103 29.5975 36.8496C29.755 36.5345 30.149 36.3769 30.3854 36.5345Z" fill="#AAB2C5"/>
<path d="M51.9742 42.9163C51.5802 42.9951 51.1863 43.0739 50.7923 43.1527C50.162 42.2072 49.7681 40.9465 49.8468 39.6859C49.9256 38.9767 50.162 37.9525 50.6348 37.1646C51.0287 37.2433 51.4227 37.2433 51.8166 37.2433C51.3439 37.9525 50.9499 38.9767 50.8711 39.7647C50.7923 40.9465 51.2651 42.2072 51.9742 42.9163Z" fill="#AAB2C5"/>
<path d="M24.0035 32.6733C22.5852 33.6188 21.3246 34.8007 20.2215 36.1401C19.9851 35.9037 19.67 35.5886 19.4336 35.3522C20.4579 34.0915 21.7185 32.9885 23.058 32.043L24.0035 32.6733Z" fill="#AAB2C5"/>
<g filter="url(#filter0_d_4707_155605)">
<path d="M75.2174 24.3216C67.8111 21.8791 64.7382 31.1764 57.1743 27.2369L54.4954 14.1576C62.6896 17.6244 65.8413 9.74527 72.5385 11.2423L75.2174 24.3216Z" fill="url(#paint0_linear_4707_155605)"/>
</g>
<defs>
<filter id="filter0_d_4707_155605" x="32.4954" y="0.0507812" width="64.722" height="61.1724" filterUnits="userSpaceOnUse" color-interpolation-filters="sRGB">
<feFlood flood-opacity="0" result="BackgroundImageFix"/>
<feColorMatrix in="SourceAlpha" type="matrix" values="0 0 0 0 0 0 0 0 0 0 0 0 0 0 0 0 0 0 127 0" result="hardAlpha"/>
<feOffset dy="11"/>
<feGaussianBlur stdDeviation="11"/>
<feColorMatrix type="matrix" values="0 0 0 0 0.397708 0 0 0 0 0.47749 0 0 0 0 0.575 0 0 0 0.27 0"/>
<feBlend mode="normal" in2="BackgroundImageFix" result="effect1_dropShadow_4707_155605"/>
<feBlend mode="normal" in="SourceGraphic" in2="effect1_dropShadow_4707_155605" result="shape"/>
</filter>
<linearGradient id="paint0_linear_4707_155605" x1="64.8496" y1="10.6536" x2="64.8496" y2="28.4084" gradientUnits="userSpaceOnUse">
<stop stop-color="#F3F6FB"/>
<stop offset="0.9964" stop-color="#ECF0F5"/>
</linearGradient>
</defs>
</svg>
