<svg width="20" height="20" viewBox="0 0 20 20" fill="none" xmlns="http://www.w3.org/2000/svg">
<path d="M5 11.6667V6.66666C5 6.00362 5.26339 5.36773 5.73223 4.89889C6.20107 4.43005 6.83696 4.16666 7.5 4.16666C8.16304 4.16666 8.79893 4.43005 9.26777 4.89889C9.73661 5.36773 10 6.00362 10 6.66666V13.3333C10 13.9964 10.2634 14.6322 10.7322 15.1011C11.2011 15.5699 11.837 15.8333 12.5 15.8333C13.163 15.8333 13.7989 15.5699 14.2678 15.1011C14.7366 14.6322 15 13.9964 15 13.3333V8.33332" stroke="#4F5E71" stroke-width="1.5" stroke-linecap="round" stroke-linejoin="round"/>
<path d="M13.3333 4.16667C13.3333 3.72464 13.5089 3.30072 13.8215 2.98816C14.134 2.67559 14.558 2.5 15 2.5C15.442 2.5 15.8659 2.67559 16.1785 2.98816C16.4911 3.30072 16.6666 3.72464 16.6666 4.16667V6.66667C16.6666 7.10869 16.4911 7.53262 16.1785 7.84518C15.8659 8.15774 15.442 8.33333 15 8.33333C14.558 8.33333 14.134 8.15774 13.8215 7.84518C13.5089 7.53262 13.3333 7.10869 13.3333 6.66667V4.16667Z" stroke="#4F5E71" stroke-width="1.5" stroke-linecap="round" stroke-linejoin="round"/>
<path d="M3.33331 13.3333C3.33331 12.8913 3.50891 12.4674 3.82147 12.1548C4.13403 11.8423 4.55795 11.6667 4.99998 11.6667C5.44201 11.6667 5.86593 11.8423 6.17849 12.1548C6.49105 12.4674 6.66665 12.8913 6.66665 13.3333V15.8333C6.66665 16.2754 6.49105 16.6993 6.17849 17.0118C5.86593 17.3244 5.44201 17.5 4.99998 17.5C4.55795 17.5 4.13403 17.3244 3.82147 17.0118C3.50891 16.6993 3.33331 16.2754 3.33331 15.8333V13.3333Z" stroke="#4F5E71" stroke-width="1.5" stroke-linecap="round" stroke-linejoin="round"/>
</svg>
