<svg width="48" height="48" viewBox="0 0 48 48" fill="none" xmlns="http://www.w3.org/2000/svg">
<rect width="48" height="48" rx="11" fill="#49C1F8"/>
<path d="M24.0005 38.6299C23.7399 38.6299 23.4899 38.5264 23.3057 38.3421C23.1214 38.1579 23.0179 37.9079 23.0179 37.6473V34.6995C23.0179 34.4389 23.1214 34.189 23.3057 34.0047C23.4899 33.8204 23.7399 33.7169 24.0005 33.7169C24.2611 33.7169 24.511 33.8204 24.6953 34.0047C24.8796 34.189 24.9831 34.4389 24.9831 34.6995V37.6473C24.9831 37.9079 24.8796 38.1579 24.6953 38.3421C24.511 38.5264 24.2611 38.6299 24.0005 38.6299Z" fill="white"/>
<path d="M38.9529 27.7662C38.8723 28.014 38.6966 28.2197 38.4645 28.338C38.2323 28.4563 37.9626 28.4775 37.7148 28.397L34.9075 27.4861C34.7795 27.4508 34.66 27.3899 34.5563 27.3071C34.4525 27.2243 34.3666 27.1213 34.3037 27.0044C34.2408 26.8875 34.2023 26.759 34.1904 26.6268C34.1786 26.4946 34.1936 26.3613 34.2347 26.2351C34.2757 26.1088 34.342 25.9922 34.4293 25.8923C34.5167 25.7923 34.6234 25.7111 34.7431 25.6536C34.8627 25.596 34.9927 25.5633 35.1254 25.5574C35.258 25.5515 35.3904 25.5725 35.5147 25.6192L38.3181 26.5301C38.5662 26.6098 38.7724 26.7849 38.8915 27.0167C39.0105 27.2485 39.0326 27.5181 38.9529 27.7662Z" fill="white"/>
<path d="M33.2419 10.1892C33.3468 10.2651 33.4355 10.361 33.5032 10.4713C33.5709 10.5816 33.6161 10.7041 33.6363 10.832C33.6565 10.9598 33.6512 11.0903 33.6208 11.2161C33.5904 11.3419 33.5354 11.4604 33.4591 11.5649L31.7258 13.9467C31.572 14.1576 31.3408 14.2987 31.083 14.339C30.8252 14.3794 30.5619 14.3157 30.3511 14.1619C30.1403 14.0082 29.9991 13.777 29.9588 13.5192C29.9184 13.2614 29.9821 12.9981 30.1359 12.7873L31.8692 10.4025C32.023 10.1922 32.254 10.0517 32.5114 10.0117C32.7688 9.9717 33.0316 10.0356 33.2419 10.1892Z" fill="white"/>
<path d="M14.7639 10.1892C14.8684 10.1129 14.9869 10.0579 15.1127 10.0275C15.2385 9.99711 15.369 9.99184 15.4969 10.012C15.6247 10.0322 15.7473 10.0774 15.8576 10.1451C15.9679 10.2128 16.0637 10.3016 16.1396 10.4064L17.865 12.7873C18.0183 12.9981 18.0815 13.2612 18.0408 13.5186C18 13.776 17.8587 14.0067 17.6479 14.16C17.4371 14.3132 17.174 14.3764 16.9166 14.3357C16.6591 14.295 16.4284 14.1536 16.2752 13.9428L14.5419 11.558C14.3903 11.3469 14.3286 11.0843 14.3703 10.8278C14.4119 10.5712 14.5534 10.3416 14.7639 10.1892Z" fill="white"/>
<path d="M9.04808 27.7662C8.96757 27.5184 8.9888 27.2487 9.1071 27.0165C9.2254 26.7843 9.43109 26.6086 9.67891 26.5281L12.4823 25.6172C12.6066 25.5705 12.739 25.5495 12.8716 25.5554C13.0043 25.5613 13.1343 25.594 13.254 25.6516C13.3736 25.7092 13.4803 25.7904 13.5677 25.8903C13.6551 25.9903 13.7213 26.1069 13.7623 26.2331C13.8034 26.3594 13.8185 26.4926 13.8066 26.6248C13.7947 26.7571 13.7562 26.8855 13.6933 27.0024C13.6305 27.1194 13.5445 27.2223 13.4408 27.3051C13.337 27.3879 13.2175 27.4488 13.0896 27.4842L10.2862 28.3951C10.0386 28.4757 9.76914 28.4547 9.53701 28.3368C9.30487 28.2189 9.12902 28.0137 9.04808 27.7662Z" fill="white"/>
<path d="M30.074 32.2214C29.9147 32.2213 29.7578 32.1821 29.6171 32.1074L24.0005 29.1595L18.3839 32.1074C18.2217 32.1923 18.039 32.2303 17.8564 32.217C17.6738 32.2037 17.4986 32.1396 17.3505 32.0321C17.2023 31.9245 17.0872 31.7777 17.018 31.6081C16.9489 31.4386 16.9285 31.2532 16.9591 31.0727L18.0321 24.8184L13.4865 20.3907C13.3552 20.2628 13.2622 20.1006 13.2182 19.9226C13.1742 19.7445 13.1809 19.5577 13.2375 19.3833C13.2942 19.2089 13.3985 19.0538 13.5387 18.9356C13.6789 18.8173 13.8494 18.7407 14.0309 18.7144L20.3098 17.8025L23.1181 12.1132C23.2082 11.9597 23.3368 11.8325 23.4913 11.7441C23.6457 11.6557 23.8206 11.6091 23.9985 11.6091C24.1765 11.6091 24.3513 11.6557 24.5058 11.7441C24.6602 11.8325 24.7888 11.9597 24.8789 12.1132L27.6872 17.8025L33.9661 18.7144C34.1476 18.7407 34.3181 18.8173 34.4583 18.9356C34.5985 19.0538 34.7028 19.2089 34.7595 19.3833C34.8161 19.5577 34.8228 19.7445 34.7788 19.9226C34.7348 20.1006 34.6419 20.2628 34.5105 20.3907L29.9669 24.8184L31.0399 31.0727C31.0641 31.2137 31.0572 31.3582 31.0197 31.4963C30.9822 31.6343 30.915 31.7625 30.8229 31.8719C30.7307 31.9813 30.6157 32.0692 30.4861 32.1296C30.3564 32.1899 30.2151 32.2213 30.072 32.2214H30.074Z" fill="white"/>
</svg>
