<svg width="200" height="156" viewBox="0 0 200 156" fill="none" xmlns="http://www.w3.org/2000/svg">
<path d="M48.1405 24.3745C49.6057 23.8954 50.4075 22.3124 49.9312 20.8386C49.455 19.3648 47.8811 18.5584 46.4158 19.0374C44.9505 19.5164 44.1488 21.0995 44.625 22.5733C45.1013 24.0471 46.6752 24.8535 48.1405 24.3745Z" fill="#EAEEF9"/>
<path d="M54.2305 15.219C55.2269 14.8933 55.7721 13.8168 55.4483 12.8146C55.1244 11.8125 54.0542 11.2641 53.0578 11.5898C52.0614 11.9156 51.5162 12.9921 51.84 13.9942C52.1639 14.9964 53.2342 15.5448 54.2305 15.219Z" fill="#EAEEF9"/>
<path d="M145.687 24.8507C147.416 23.2616 147.536 20.5638 145.957 18.8249C144.377 17.086 141.694 16.9645 139.966 18.5536C138.237 20.1427 138.116 22.8406 139.696 24.5795C141.276 26.3184 143.958 26.4398 145.687 24.8507Z" fill="#EAEEF9"/>
<path d="M159.231 17.0742C159.959 16.4051 160.01 15.2692 159.345 14.537C158.68 13.8048 157.55 13.7537 156.822 14.4228C156.094 15.0919 156.044 16.2278 156.709 16.96C157.374 17.6922 158.503 17.7433 159.231 17.0742Z" fill="#EAEEF9"/>
<path d="M53.0424 116.776C53.7704 116.107 53.8212 114.971 53.156 114.239C52.4908 113.507 51.3614 113.456 50.6335 114.125C49.9055 114.794 49.8547 115.93 50.5199 116.662C51.1851 117.394 52.3145 117.446 53.0424 116.776Z" fill="#EAEEF9"/>
<path d="M98.066 122.711C128.696 122.711 153.527 97.7357 153.527 66.927C153.527 36.1184 128.696 11.143 98.066 11.143C67.4356 11.143 42.6047 36.1184 42.6047 66.927C42.6047 97.7357 67.4356 122.711 98.066 122.711Z" fill="#EAEEF9"/>
<g filter="url(#filter0_d_567_20163)">
<path d="M84.2989 14.1305V83.042C84.2989 84.5848 83.0485 85.8338 81.5039 85.8338H24.795C23.2504 85.8338 22 84.5848 22 83.042V14.1305C22 12.5877 23.2504 11.3388 24.795 11.3388H81.5039C83.0485 11.3388 84.2989 12.5877 84.2989 14.1305Z" fill="url(#paint0_linear_567_20163)"/>
</g>
<path d="M84.2989 14.0788V20.5683H22V14.0788C22 12.5646 23.2504 11.3388 24.795 11.3388H81.5039C83.0485 11.3388 84.2989 12.5646 84.2989 14.0788Z" fill="#D5DDEA"/>
<path d="M26.1203 17.6017C26.9395 17.6017 27.6036 16.9376 27.6036 16.1184C27.6036 15.2992 26.9395 14.6351 26.1203 14.6351C25.3011 14.6351 24.637 15.2992 24.637 16.1184C24.637 16.9376 25.3011 17.6017 26.1203 17.6017Z" fill="#A5AEBF"/>
<path d="M30.735 17.6017C31.5542 17.6017 32.2183 16.9376 32.2183 16.1184C32.2183 15.2992 31.5542 14.6351 30.735 14.6351C29.9158 14.6351 29.2517 15.2992 29.2517 16.1184C29.2517 16.9376 29.9158 17.6017 30.735 17.6017Z" fill="#A5AEBF"/>
<path d="M35.3498 17.6017C36.169 17.6017 36.8331 16.9376 36.8331 16.1184C36.8331 15.2992 36.169 14.6351 35.3498 14.6351C34.5306 14.6351 33.8665 15.2992 33.8665 16.1184C33.8665 16.9376 34.5306 17.6017 35.3498 17.6017Z" fill="#A5AEBF"/>
<path opacity="0.3" d="M76.5989 71.6619H69.8474C69.1869 71.6619 68.5999 71.1482 68.5999 70.4144V34.5288C68.5999 33.8683 69.1136 33.2812 69.8474 33.2812H76.5989C77.2594 33.2812 77.8464 33.7949 77.8464 34.5288V70.4144C77.8464 71.0748 77.3327 71.6619 76.5989 71.6619Z" fill="#F1F3F9" stroke="#D6DCE8" stroke-width="2" stroke-miterlimit="10" stroke-linejoin="round"/>
<path opacity="0.3" d="M76.5989 71.6618H69.8474C69.1869 71.6618 68.5999 71.1481 68.5999 70.4143V47.4446C68.5999 46.7841 69.1136 46.197 69.8474 46.197H76.5989C77.2594 46.197 77.8464 46.7107 77.8464 47.4446V70.4143C77.8464 71.0747 77.3327 71.6618 76.5989 71.6618Z" fill="#F1F3F9" stroke="#D6DCE8" stroke-width="2" stroke-miterlimit="10" stroke-linejoin="round"/>
<path d="M63.1694 71.6619H56.418C55.7575 71.6619 55.1704 71.1482 55.1704 70.4144V34.5288C55.1704 33.8683 55.6841 33.2812 56.418 33.2812H63.1694C63.8299 33.2812 64.417 33.7949 64.417 34.5288V70.4144C64.417 71.0748 63.8299 71.6619 63.1694 71.6619Z" fill="#EAEEF9"/>
<path d="M63.1694 71.6618H56.418C55.7575 71.6618 55.1704 71.1481 55.1704 70.4143V57.0581C55.1704 56.3976 55.6841 55.8105 56.418 55.8105H63.1694C63.8299 55.8105 64.417 56.3242 64.417 57.0581V70.4143C64.417 71.0748 63.8299 71.6618 63.1694 71.6618Z" fill="#D6DCE8"/>
<path d="M49.7398 71.6619H42.9883C42.3278 71.6619 41.7407 71.1482 41.7407 70.4144V34.5288C41.7407 33.8683 42.2544 33.2812 42.9883 33.2812H49.7398C50.4002 33.2812 50.9873 33.7949 50.9873 34.5288V70.4144C50.9139 71.0748 50.4002 71.6619 49.7398 71.6619Z" fill="#EAEEF9"/>
<path d="M49.7398 71.6619H42.9883C42.3278 71.6619 41.7407 71.1482 41.7407 70.4143V42.6746C41.7407 42.0141 42.2544 41.427 42.9883 41.427H49.7398C50.4002 41.427 50.9873 41.9407 50.9873 42.6746V70.4143C50.9139 71.0748 50.4002 71.6619 49.7398 71.6619Z" fill="#D6DCE8"/>
<path d="M36.2368 71.6619H29.4853C28.8249 71.6619 28.2378 71.1482 28.2378 70.4144V34.5288C28.2378 33.8683 28.7515 33.2812 29.4853 33.2812H36.2368C36.8973 33.2812 37.4844 33.7949 37.4844 34.5288V70.4144C37.4844 71.0748 36.8973 71.6619 36.2368 71.6619Z" fill="#EAEEF9"/>
<path d="M36.2368 71.6616H29.4853C28.8249 71.6616 28.2378 71.1479 28.2378 70.414V57.9385C28.2378 57.278 28.7515 56.6909 29.4853 56.6909H36.2368C36.8973 56.6909 37.4844 57.2046 37.4844 57.9385V70.414C37.4844 71.0745 36.8973 71.6616 36.2368 71.6616Z" fill="#D6DCE8"/>
<g filter="url(#filter1_d_567_20163)">
<path d="M177.253 56.1V119.523C177.253 120.943 176.108 122.092 174.694 122.092H122.786C121.372 122.092 120.228 120.943 120.228 119.523V56.1C120.228 54.6801 121.372 53.5306 122.786 53.5306H174.694C176.108 53.5306 177.253 54.6801 177.253 56.1Z" fill="url(#paint1_linear_567_20163)"/>
</g>
<path d="M168.753 89.7893H137.742V95.4659H168.753V89.7893Z" fill="white" stroke="#D6DDE8" stroke-width="2" stroke-miterlimit="10"/>
<path d="M137.588 95.4556H129.787V113.512H137.588V95.4556Z" fill="#F1F3F9" stroke="#D6DDE8" stroke-width="2" stroke-miterlimit="10"/>
<path d="M168.743 89.7893H137.588V113.522H168.743V89.7893Z" fill="white" stroke="#D6DDE8" stroke-width="2" stroke-miterlimit="10"/>
<path d="M161.065 113.512H129.787V95.4556H168.753" stroke="#D6DDE8" stroke-width="2" stroke-miterlimit="10"/>
<path d="M168.753 101.646H129.787" stroke="#D6DDE8" stroke-width="2" stroke-miterlimit="10"/>
<path d="M168.753 107.579H129.787" stroke="#D6DDE8" stroke-width="2" stroke-miterlimit="10"/>
<path d="M145.451 89.7893V113.512" stroke="#D6DDE8" stroke-width="2" stroke-miterlimit="10"/>
<path d="M153.232 89.7893V113.512" stroke="#D6DDE8" stroke-width="2" stroke-miterlimit="10"/>
<path d="M161.013 89.7893V113.512" stroke="#D6DDE8" stroke-width="2" stroke-miterlimit="10"/>
<path fill-rule="evenodd" clip-rule="evenodd" d="M168.027 68.9364C168.571 69.6774 168.418 70.7239 167.685 71.2738L155.49 80.4235C154.915 80.8545 154.132 80.863 153.548 80.4446L149.345 77.4298L141.774 82.2259C141.244 82.5616 140.572 82.5662 140.038 82.2378L137.752 80.8328L132.296 84.1711C131.515 84.6489 130.499 84.3963 130.026 83.6069C129.553 82.8175 129.803 81.7902 130.584 81.3124L136.898 77.4491C137.425 77.1266 138.086 77.1273 138.613 77.4509L140.883 78.8466L148.524 74.0062C149.09 73.6477 149.813 73.6687 150.358 74.0593L154.483 77.0176L165.715 68.5905C166.448 68.0405 167.483 68.1954 168.027 68.9364Z" fill="#AAB2C5"/>
<path d="M177.253 56.0749V62.1009H120.228V56.0749C120.228 54.6689 121.372 53.5306 122.786 53.5306H174.694C176.108 53.5306 177.253 54.6689 177.253 56.0749Z" fill="#D5DDEA"/>
<g filter="url(#filter2_d_567_20163)">
<path d="M130.117 36.203V104.81C130.117 106.346 128.866 107.589 127.322 107.589H70.6126C69.068 107.589 67.8176 106.346 67.8176 104.81V36.203C67.8176 34.667 69.068 33.4236 70.6126 33.4236H127.322C128.866 33.4236 130.117 34.667 130.117 36.203Z" fill="url(#paint2_linear_567_20163)"/>
</g>
<path d="M130.117 36.1636V42.6531H67.8176V36.1636C67.8176 34.6494 69.068 33.4236 70.6126 33.4236H127.322C128.866 33.4236 130.117 34.6494 130.117 36.1636Z" fill="#D5DDEA"/>
<path d="M71.9379 39.6865C72.7571 39.6865 73.4212 39.0224 73.4212 38.2032C73.4212 37.3839 72.7571 36.7198 71.9379 36.7198C71.1187 36.7198 70.4546 37.3839 70.4546 38.2032C70.4546 39.0224 71.1187 39.6865 71.9379 39.6865Z" fill="#A5AEBF"/>
<path d="M76.5526 39.6865C77.3719 39.6865 78.036 39.0224 78.036 38.2032C78.036 37.3839 77.3719 36.7198 76.5526 36.7198C75.7334 36.7198 75.0693 37.3839 75.0693 38.2032C75.0693 39.0224 75.7334 39.6865 76.5526 39.6865Z" fill="#A5AEBF"/>
<path d="M81.1674 39.6865C81.9866 39.6865 82.6507 39.0224 82.6507 38.2032C82.6507 37.3839 81.9866 36.7198 81.1674 36.7198C80.3482 36.7198 79.6841 37.3839 79.6841 38.2032C79.6841 39.0224 80.3482 39.6865 81.1674 39.6865Z" fill="#A5AEBF"/>
<path opacity="0.7" d="M107.494 72.9825L104.485 71.5148C103.164 73.0559 101.183 74.0099 99.0548 74.0099C95.092 74.0099 91.863 70.7809 91.863 66.8181C91.863 66.3044 91.9364 65.8641 92.0098 65.3504L89.001 63.8827L82.5431 60.7271C81.8092 62.7819 81.3689 65.0569 81.5157 67.4786C81.8826 76.6518 89.3679 84.0637 98.4677 84.3573C104.999 84.5774 110.797 81.2017 113.952 76.1381L107.494 72.9825ZM98.9814 49.2056C92.6703 49.2056 87.093 52.5079 84.0108 57.5715L90.4687 60.7271L93.4775 62.1948C94.6517 60.8739 96.2662 59.9199 98.1008 59.6997L98.5411 56.3974L99.4218 49.279C99.275 49.2056 99.1282 49.2056 98.9814 49.2056ZM102.944 49.6459L102.064 56.7643L101.623 60.0666C104.265 61.094 106.173 63.7359 106.173 66.7447C106.173 67.2584 106.1 67.7721 106.026 68.2124L109.035 69.6802L115.493 72.8357C116.227 70.9277 116.594 68.8729 116.594 66.7447V66.6713C116.521 58.4522 110.723 51.4805 102.944 49.6459Z" fill="#D6DCE8"/>
<path d="M98.9814 49.2056C92.6702 49.2056 87.0929 52.5079 84.0107 57.5715L90.4687 60.7271L93.4775 62.1948C94.6517 60.8739 96.2661 59.9199 98.1008 59.6997L98.5411 56.3974L99.4217 49.279C99.275 49.2056 99.1282 49.2056 98.9814 49.2056Z" fill="#F1F3F9"/>
<path d="M102.944 49.646L102.064 56.7644L101.624 60.0668C104.265 61.0942 106.173 63.736 106.173 66.7448C106.173 67.2585 106.1 67.7722 106.027 68.2126L109.035 69.6803L115.493 72.8359C116.227 70.9278 116.594 68.873 116.594 66.7448V66.6715C116.521 58.4523 110.723 51.4806 102.944 49.646Z" fill="#AAB2C5"/>
<path opacity="0.1" d="M93.4776 62.1949L90.4688 60.7272C92.3034 58.2321 95.1654 56.5442 98.4678 56.3975L98.0275 59.6998C96.2662 59.92 94.6517 60.8006 93.4776 62.1949Z" fill="#434E67"/>
<path opacity="0.1" d="M104.485 71.5149L107.494 72.9826C105.586 75.6245 102.504 77.3124 98.9814 77.3124C93.184 77.3124 88.4873 72.6157 88.4873 66.8182C88.4873 65.7908 88.6341 64.8368 88.9276 63.8828L91.9364 65.3505C91.863 65.7908 91.7897 66.3045 91.7897 66.8182C91.7897 70.7811 95.0186 74.01 98.9814 74.01C101.183 74.01 103.164 73.056 104.485 71.5149Z" fill="#434E67"/>
<path opacity="0.1" d="M109.476 66.8183C109.476 67.8457 109.329 68.8731 109.035 69.7538L106.027 68.286C106.1 67.7723 106.173 67.332 106.173 66.8183C106.173 63.8095 104.265 61.1676 101.624 60.1402L102.064 56.8379C106.32 58.0854 109.476 62.1217 109.476 66.8183Z" fill="#434E67"/>
<path d="M115.119 89.7892H81.8266C81.0074 89.7892 80.3433 90.4533 80.3433 91.2726C80.3433 92.0918 81.0074 92.7559 81.8266 92.7559H115.119C115.938 92.7559 116.602 92.0918 116.602 91.2726C116.602 90.4533 115.938 89.7892 115.119 89.7892Z" fill="#D6DCE8"/>
<path d="M96.6596 97.041H81.8266C81.0074 97.041 80.3433 97.7051 80.3433 98.5243C80.3433 99.3435 81.0074 100.008 81.8266 100.008H96.6596C97.4788 100.008 98.1429 99.3435 98.1429 98.5243C98.1429 97.7051 97.4788 97.041 96.6596 97.041Z" fill="#D6DCE8"/>
<defs>
<filter id="filter0_d_567_20163" x="0" y="0.338806" width="106.299" height="118.495" filterUnits="userSpaceOnUse" color-interpolation-filters="sRGB">
<feFlood flood-opacity="0" result="BackgroundImageFix"/>
<feColorMatrix in="SourceAlpha" type="matrix" values="0 0 0 0 0 0 0 0 0 0 0 0 0 0 0 0 0 0 127 0" result="hardAlpha"/>
<feOffset dy="11"/>
<feGaussianBlur stdDeviation="11"/>
<feColorMatrix type="matrix" values="0 0 0 0 0.397708 0 0 0 0 0.47749 0 0 0 0 0.575 0 0 0 0.27 0"/>
<feBlend mode="normal" in2="BackgroundImageFix" result="effect1_dropShadow_567_20163"/>
<feBlend mode="normal" in="SourceGraphic" in2="effect1_dropShadow_567_20163" result="shape"/>
</filter>
<filter id="filter1_d_567_20163" x="98.2278" y="42.5306" width="101.025" height="112.562" filterUnits="userSpaceOnUse" color-interpolation-filters="sRGB">
<feFlood flood-opacity="0" result="BackgroundImageFix"/>
<feColorMatrix in="SourceAlpha" type="matrix" values="0 0 0 0 0 0 0 0 0 0 0 0 0 0 0 0 0 0 127 0" result="hardAlpha"/>
<feOffset dy="11"/>
<feGaussianBlur stdDeviation="11"/>
<feColorMatrix type="matrix" values="0 0 0 0 0.397708 0 0 0 0 0.47749 0 0 0 0 0.575 0 0 0 0.27 0"/>
<feBlend mode="normal" in2="BackgroundImageFix" result="effect1_dropShadow_567_20163"/>
<feBlend mode="normal" in="SourceGraphic" in2="effect1_dropShadow_567_20163" result="shape"/>
</filter>
<filter id="filter2_d_567_20163" x="45.8176" y="22.4236" width="106.299" height="118.165" filterUnits="userSpaceOnUse" color-interpolation-filters="sRGB">
<feFlood flood-opacity="0" result="BackgroundImageFix"/>
<feColorMatrix in="SourceAlpha" type="matrix" values="0 0 0 0 0 0 0 0 0 0 0 0 0 0 0 0 0 0 127 0" result="hardAlpha"/>
<feOffset dy="11"/>
<feGaussianBlur stdDeviation="11"/>
<feColorMatrix type="matrix" values="0 0 0 0 0.397708 0 0 0 0 0.47749 0 0 0 0 0.575 0 0 0 0.27 0"/>
<feBlend mode="normal" in2="BackgroundImageFix" result="effect1_dropShadow_567_20163"/>
<feBlend mode="normal" in="SourceGraphic" in2="effect1_dropShadow_567_20163" result="shape"/>
</filter>
<linearGradient id="paint0_linear_567_20163" x1="53.1291" y1="9.61567" x2="53.1291" y2="86.6369" gradientUnits="userSpaceOnUse">
<stop stop-color="#FDFEFF"/>
<stop offset="0.9964" stop-color="#ECF0F5"/>
</linearGradient>
<linearGradient id="paint1_linear_567_20163" x1="148.722" y1="51.9447" x2="148.722" y2="122.832" gradientUnits="userSpaceOnUse">
<stop stop-color="#FDFEFF"/>
<stop offset="0.9964" stop-color="#ECF0F5"/>
</linearGradient>
<linearGradient id="paint2_linear_567_20163" x1="98.9468" y1="31.7081" x2="98.9468" y2="108.388" gradientUnits="userSpaceOnUse">
<stop stop-color="#FDFEFF"/>
<stop offset="0.9964" stop-color="#ECF0F5"/>
</linearGradient>
</defs>
</svg>

