<svg width="263" height="193" viewBox="0 0 263 193" fill="none" xmlns="http://www.w3.org/2000/svg">
<path d="M129.822 166C174.17 166 210.124 130.046 210.124 85.539C210.124 41.0321 174.012 5.07812 129.822 5.07812C85.4734 5.07812 49.5194 41.0321 49.5194 85.539C49.5194 130.046 85.4734 166 129.822 166Z" fill="#EAEEF9"/>
<path d="M220.319 60.0464C223.905 60.0464 226.812 57.139 226.812 53.5525C226.812 49.966 223.905 47.0586 220.319 47.0586C216.732 47.0586 213.825 49.966 213.825 53.5525C213.825 57.139 216.732 60.0464 220.319 60.0464Z" fill="#F1F3F9"/>
<path d="M229.822 34.7047C232.271 34.7047 234.256 32.7191 234.256 30.2698C234.256 27.8205 232.271 25.835 229.822 25.835C227.372 25.835 225.387 27.8205 225.387 30.2698C225.387 32.7191 227.372 34.7047 229.822 34.7047Z" fill="#EAEEF9"/>
<path d="M53.1624 32.7955C55.6117 32.7955 57.5972 30.8099 57.5972 28.3606C57.5972 25.9113 55.6117 23.9258 53.1624 23.9258C50.7131 23.9258 48.7275 25.9113 48.7275 28.3606C48.7275 30.8099 50.7131 32.7955 53.1624 32.7955Z" fill="#EAEEF9"/>
<path d="M26.0781 118.325C30.6268 118.325 34.3142 114.637 34.3142 110.089C34.3142 105.54 30.6268 101.853 26.0781 101.853C21.5294 101.853 17.8419 105.54 17.8419 110.089C17.8419 114.637 21.5294 118.325 26.0781 118.325Z" fill="#EAEEF9"/>
<g filter="url(#filter0_d_8181_33431)">
<path d="M107.795 128.483L44.1436 141.541C43.2131 141.685 42.3596 141.202 42.2152 140.271L22.8047 45.2549C22.6604 44.3244 23.1438 43.4708 24.0743 43.3265L87.7257 30.2688C88.6561 30.1244 89.5097 30.6079 89.654 31.5384L109.168 126.55C109.308 127.377 108.725 128.339 107.795 128.483Z" fill="url(#paint0_linear_8181_33431)"/>
</g>
<path d="M40.3208 91.0627L65.2263 85.9452" stroke="#D5DDEA" stroke-width="2" stroke-miterlimit="10" stroke-linecap="round" stroke-linejoin="round"/>
<path d="M72.6497 84.4418L78.1192 83.3183" stroke="#D5DDEA" stroke-width="2" stroke-miterlimit="10" stroke-linecap="round" stroke-linejoin="round"/>
<path d="M84.7605 81.9467L90.2299 80.8232" stroke="#D5DDEA" stroke-width="2" stroke-miterlimit="10" stroke-linecap="round" stroke-linejoin="round"/>
<path d="M41.696 97.802L66.6014 92.6844" stroke="#D5DDEA" stroke-width="2" stroke-miterlimit="10" stroke-linecap="round" stroke-linejoin="round"/>
<path d="M74.0212 91.0827L79.4949 90.0576" stroke="#D5DDEA" stroke-width="2" stroke-miterlimit="10" stroke-linecap="round" stroke-linejoin="round"/>
<path d="M86.0378 88.6908L91.5073 87.5674" stroke="#D5DDEA" stroke-width="2" stroke-miterlimit="10" stroke-linecap="round" stroke-linejoin="round"/>
<path d="M43.0674 104.444L67.9728 99.326" stroke="#D5DDEA" stroke-width="2" stroke-miterlimit="10" stroke-linecap="round" stroke-linejoin="round"/>
<path d="M75.3966 97.8227L80.866 96.6992" stroke="#D5DDEA" stroke-width="2" stroke-miterlimit="10" stroke-linecap="round" stroke-linejoin="round"/>
<path d="M87.4085 95.3315L92.878 94.208" stroke="#D5DDEA" stroke-width="2" stroke-miterlimit="10" stroke-linecap="round" stroke-linejoin="round"/>
<path d="M44.4389 111.084L69.3486 106.065" stroke="#D5DDEA" stroke-width="2" stroke-miterlimit="10" stroke-linecap="round" stroke-linejoin="round"/>
<path d="M48.3047 129.836L55.3351 128.35" stroke="#D5DDEA" stroke-width="2" stroke-miterlimit="10" stroke-linecap="round" stroke-linejoin="round"/>
<path d="M47.3047 124.952L59.8087 122.441" stroke="#D5DDEA" stroke-width="2" stroke-miterlimit="10" stroke-linecap="round" stroke-linejoin="round"/>
<path d="M85.7232 120.137L98.1288 117.629" stroke="#D5DDEA" stroke-width="2" stroke-miterlimit="10" stroke-linecap="round" stroke-linejoin="round"/>
<path d="M76.768 104.463L82.2375 103.34" stroke="#D5DDEA" stroke-width="2" stroke-miterlimit="10" stroke-linecap="round" stroke-linejoin="round"/>
<path d="M88.7846 102.072L94.2541 100.948" stroke="#D5DDEA" stroke-width="2" stroke-miterlimit="10" stroke-linecap="round" stroke-linejoin="round"/>
<path d="M48.7363 54.9201C46.592 55.371 45.0961 57.2019 44.8489 59.4336C44.7728 59.9234 45.1255 60.3231 45.5925 60.4144C46.0596 60.5058 46.4312 60.1433 46.5073 59.6535C46.6499 58.2019 47.7266 56.933 49.0989 56.6445C50.4713 56.3559 51.9487 56.9929 52.6829 58.3548C52.9499 58.7725 53.436 58.9546 53.8267 58.6829C54.2174 58.4112 54.3793 57.9033 54.1123 57.4856C52.9681 55.4517 50.8806 54.4691 48.7363 54.9201Z" fill="#989FB0"/>
<path d="M68.4154 50.7814C66.2711 51.2323 64.7752 53.0632 64.528 55.2949C64.4518 55.7848 64.8046 56.1844 65.2716 56.2758C65.7387 56.3671 66.1103 56.0046 66.1864 55.5148C66.329 54.0633 67.4056 52.7944 68.778 52.5058C70.1503 52.2172 71.6278 52.8542 72.362 54.2161C72.629 54.6338 73.1151 54.8159 73.5058 54.5442C73.8965 54.2725 74.0584 53.7646 73.7914 53.3469C72.6472 51.3131 70.5597 50.3305 68.4154 50.7814Z" fill="#989FB0"/>
<path d="M55.3434 62.3624L56.583 62.092C58.131 64.1517 61.0833 64.4067 63.0269 62.7842C63.8018 62.2156 64.3983 61.2864 64.5925 60.345L65.8321 60.0747C65.4279 63.2593 62.328 65.5337 59.2179 65.0134C57.7582 64.7324 56.2691 63.8586 55.3434 62.3624Z" fill="#989FB0"/>
<circle opacity="0.4" cx="75.2923" cy="62.5462" r="3.35155" transform="rotate(-11.8756 75.2923 62.5462)" fill="#D5DDEA"/>
<circle opacity="0.4" cx="47.1796" cy="68.4573" r="3.35155" transform="rotate(-11.8756 47.1796 68.4573)" fill="#D5DDEA"/>
<g filter="url(#filter1_d_8181_33431)">
<path d="M168.406 155.455L98.1822 159.567C97.169 159.672 96.3872 158.879 96.2819 157.866L90.1657 53.2058C90.0604 52.1927 90.8534 51.4109 91.8666 51.3056L162.09 47.1938C163.104 47.0886 163.885 47.8816 163.991 48.8947L170.107 153.555C170.1 154.567 169.419 155.35 168.406 155.455Z" fill="url(#paint1_linear_8181_33431)"/>
</g>
<path d="M120.95 107.585L154.675 105.616" stroke="#D5DDEA" stroke-width="2" stroke-miterlimit="10" stroke-linecap="round" stroke-linejoin="round"/>
<path d="M120.61 101.435L154.239 99.4661" stroke="#D5DDEA" stroke-width="2" stroke-miterlimit="10" stroke-linecap="round" stroke-linejoin="round"/>
<path d="M121.291 113.734L155.015 111.766" stroke="#D5DDEA" stroke-width="2" stroke-miterlimit="10" stroke-linecap="round" stroke-linejoin="round"/>
<path d="M105.874 120.731L155.357 117.818" stroke="#D5DDEA" stroke-width="2" stroke-miterlimit="10" stroke-linecap="round" stroke-linejoin="round"/>
<path d="M106.214 126.88L134.503 125.161" stroke="#D5DDEA" stroke-width="2" stroke-miterlimit="10" stroke-linecap="round" stroke-linejoin="round"/>
<path d="M107.432 147.428L114.446 146.998" stroke="#D5DDEA" stroke-width="2" stroke-miterlimit="10" stroke-linecap="round" stroke-linejoin="round"/>
<path d="M107.178 142.625L119.573 141.849" stroke="#D5DDEA" stroke-width="2" stroke-miterlimit="10" stroke-linecap="round" stroke-linejoin="round"/>
<path d="M144.362 140.392L156.66 139.712" stroke="#D5DDEA" stroke-width="2" stroke-miterlimit="10" stroke-linecap="round" stroke-linejoin="round"/>
<path d="M116.202 115.041C116.106 115.04 116.009 115.039 116.01 114.943L114.397 111.476L108.338 111.81L107.162 115.446C107.161 115.542 107.064 115.637 106.968 115.636L105.718 115.722C105.622 115.721 105.526 115.721 105.526 115.625C105.431 115.528 105.431 115.528 105.527 115.433L109.839 102.323C109.839 102.227 109.936 102.132 110.032 102.133L111.763 102.051C111.86 102.052 111.956 102.053 111.955 102.149L117.838 114.67C117.838 114.766 117.837 114.862 117.837 114.862C117.837 114.958 117.741 114.957 117.644 114.956L116.202 115.041ZM108.733 110.182L113.637 109.934L110.792 103.674L108.733 110.182Z" fill="#D5DDEA"/>
<path d="M139.834 70.5115C141.308 70.4174 142.49 69.0737 142.396 67.6001C142.302 66.1265 140.958 64.9441 139.485 65.0382C138.011 65.1322 136.829 66.476 136.923 67.9496C137.024 69.5284 138.255 70.6123 139.834 70.5115Z" fill="#989FB0"/>
<path d="M118.549 71.9041C120.023 71.81 121.205 70.4663 121.111 68.9927C121.017 67.5191 119.673 66.3366 118.2 66.4307C116.726 66.5248 115.544 67.8685 115.638 69.3421C115.844 70.9143 117.075 71.9982 118.549 71.9041Z" fill="#989FB0"/>
<path d="M124.828 76.8213C125.085 79.2552 127.11 81.0873 129.455 80.9551C131.8 80.823 133.606 78.7751 133.589 76.3277L124.828 76.8213Z" fill="#989FB0"/>
<circle opacity="0.4" cx="145.498" cy="79.7159" r="3.62576" transform="rotate(-3.22458 145.498 79.7159)" fill="#D5DDEA"/>
<circle opacity="0.4" cx="114.47" cy="81.4639" r="3.62576" transform="rotate(-3.22458 114.47 81.4639)" fill="#D5DDEA"/>
<g filter="url(#filter2_d_8181_33431)">
<path d="M238.8 109.436L175.802 125.203C174.894 125.452 174.007 124.91 173.758 124.002L150.232 29.9602C149.982 29.0522 150.525 28.165 151.433 27.9158L214.43 12.1485C215.338 11.8992 216.225 12.4416 216.474 13.3496L240.001 107.391C240.25 108.299 239.708 109.186 238.8 109.436Z" fill="url(#paint2_linear_8181_33431)"/>
</g>
<path d="M167.026 68.0788L174.834 99.2373L225.812 86.4618L218.003 55.3033L167.026 68.0788Z" stroke="#D5DDEA" stroke-width="2" stroke-miterlimit="10" stroke-linecap="round" stroke-linejoin="round"/>
<path d="M178.423 113.288L185.599 111.528" stroke="#D5DDEA" stroke-width="2" stroke-miterlimit="10" stroke-linecap="round" stroke-linejoin="round"/>
<path d="M177.112 108.34L189.84 105.137" stroke="#D5DDEA" stroke-width="2" stroke-miterlimit="10" stroke-linecap="round" stroke-linejoin="round"/>
<path d="M216.557 101.622L229.285 98.4193" stroke="#D5DDEA" stroke-width="2" stroke-miterlimit="10" stroke-linecap="round" stroke-linejoin="round"/>
<path d="M179.481 65.0629L187.272 96.2043" stroke="#D5DDEA" stroke-width="2" stroke-miterlimit="10" stroke-linecap="round" stroke-linejoin="round"/>
<path d="M192.493 61.7469L200.379 92.8508" stroke="#D5DDEA" stroke-width="2" stroke-miterlimit="10" stroke-linecap="round" stroke-linejoin="round"/>
<path d="M205.637 58.4886L213.428 89.6301" stroke="#D5DDEA" stroke-width="2" stroke-miterlimit="10" stroke-linecap="round" stroke-linejoin="round"/>
<path d="M169.059 75.9902L219.973 63.1793" stroke="#D5DDEA" stroke-width="2" stroke-miterlimit="10" stroke-linecap="round" stroke-linejoin="round"/>
<path d="M170.95 83.7705L221.902 71.054" stroke="#D5DDEA" stroke-width="2" stroke-miterlimit="10" stroke-linecap="round" stroke-linejoin="round"/>
<path d="M172.973 91.6074L223.888 78.7965" stroke="#D5DDEA" stroke-width="2" stroke-miterlimit="10" stroke-linecap="round" stroke-linejoin="round"/>
<path d="M176.506 34.9616C173.95 35.5796 172.221 37.8294 172.005 40.5152C171.931 41.1055 172.369 41.5722 172.932 41.6649C173.496 41.7577 173.928 41.3096 174.002 40.7193C174.121 38.9731 175.367 37.4124 177.003 37.0169C178.638 36.6214 180.433 37.3324 181.363 38.9396C181.698 39.431 182.288 39.632 182.747 39.292C183.205 38.9521 183.381 38.3371 183.046 37.8456C181.601 35.4472 179.061 34.3437 176.506 34.9616Z" fill="#989FB0"/>
<path d="M193.725 30.7988C191.382 31.3652 189.832 33.5718 189.684 36.2411C189.628 36.8272 190.039 37.3001 190.56 37.4032C191.081 37.5062 191.471 37.0684 191.528 36.4823C191.604 34.7464 192.722 33.2166 194.222 32.8541C195.721 32.4915 197.388 33.2334 198.275 34.8509C198.593 35.3464 199.141 35.5577 199.557 35.228C199.973 34.8984 200.123 34.2895 199.805 33.794C198.428 31.3791 196.067 30.2323 193.725 30.7988Z" fill="#989FB0"/>
<path d="M190.089 50.3958C191.631 50.0229 192.579 48.4705 192.206 46.9284C191.833 45.3862 190.281 44.4383 188.739 44.8112C187.196 45.1841 186.249 46.7365 186.621 48.2786C186.994 49.8208 188.547 50.7687 190.089 50.3958Z" fill="#989FB0"/>
<defs>
<filter id="filter0_d_8181_33431" x="0.779541" y="19.2432" width="130.41" height="155.323" filterUnits="userSpaceOnUse" color-interpolation-filters="sRGB">
<feFlood flood-opacity="0" result="BackgroundImageFix"/>
<feColorMatrix in="SourceAlpha" type="matrix" values="0 0 0 0 0 0 0 0 0 0 0 0 0 0 0 0 0 0 127 0" result="hardAlpha"/>
<feOffset dy="11"/>
<feGaussianBlur stdDeviation="11"/>
<feColorMatrix type="matrix" values="0 0 0 0 0.397708 0 0 0 0 0.47749 0 0 0 0 0.575 0 0 0 0.27 0"/>
<feBlend mode="normal" in2="BackgroundImageFix" result="effect1_dropShadow_8181_33431"/>
<feBlend mode="normal" in="SourceGraphic" in2="effect1_dropShadow_8181_33431" result="shape"/>
</filter>
<filter id="filter1_d_8181_33431" x="68.1562" y="36.1846" width="123.951" height="156.392" filterUnits="userSpaceOnUse" color-interpolation-filters="sRGB">
<feFlood flood-opacity="0" result="BackgroundImageFix"/>
<feColorMatrix in="SourceAlpha" type="matrix" values="0 0 0 0 0 0 0 0 0 0 0 0 0 0 0 0 0 0 127 0" result="hardAlpha"/>
<feOffset dy="11"/>
<feGaussianBlur stdDeviation="11"/>
<feColorMatrix type="matrix" values="0 0 0 0 0.397708 0 0 0 0 0.47749 0 0 0 0 0.575 0 0 0 0.27 0"/>
<feBlend mode="normal" in2="BackgroundImageFix" result="effect1_dropShadow_8181_33431"/>
<feBlend mode="normal" in="SourceGraphic" in2="effect1_dropShadow_8181_33431" result="shape"/>
</filter>
<filter id="filter2_d_8181_33431" x="128.171" y="1.08789" width="133.89" height="157.176" filterUnits="userSpaceOnUse" color-interpolation-filters="sRGB">
<feFlood flood-opacity="0" result="BackgroundImageFix"/>
<feColorMatrix in="SourceAlpha" type="matrix" values="0 0 0 0 0 0 0 0 0 0 0 0 0 0 0 0 0 0 127 0" result="hardAlpha"/>
<feOffset dy="11"/>
<feGaussianBlur stdDeviation="11"/>
<feColorMatrix type="matrix" values="0 0 0 0 0.397708 0 0 0 0 0.47749 0 0 0 0 0.575 0 0 0 0.27 0"/>
<feBlend mode="normal" in2="BackgroundImageFix" result="effect1_dropShadow_8181_33431"/>
<feBlend mode="normal" in="SourceGraphic" in2="effect1_dropShadow_8181_33431" result="shape"/>
</filter>
<linearGradient id="paint0_linear_8181_33431" x1="63.4869" y1="28.7735" x2="68.3722" y2="141.685" gradientUnits="userSpaceOnUse">
<stop stop-color="#FDFEFF"/>
<stop offset="0.9964" stop-color="#ECF0F5"/>
</linearGradient>
<linearGradient id="paint1_linear_8181_33431" x1="130.525" y1="44.3479" x2="129.694" y2="161.019" gradientUnits="userSpaceOnUse">
<stop stop-color="#FDFEFF"/>
<stop offset="0.9964" stop-color="#ECF0F5"/>
</linearGradient>
<linearGradient id="paint2_linear_8181_33431" x1="174.201" y1="16.1584" x2="215.49" y2="119.972" gradientUnits="userSpaceOnUse">
<stop stop-color="#FDFEFF"/>
<stop offset="0.9964" stop-color="#ECF0F5"/>
</linearGradient>
</defs>
</svg>
