<svg xmlns="http://www.w3.org/2000/svg" xmlns:xlink="http://www.w3.org/1999/xlink" width="422px" height="850px" viewBox="0 0 422 850" version="1.1"> <!-- Generator: Sketch 48.1 (47250) - http://www.bohemiancoding.com/sketch --> <title>iPhone</title> <desc>Created with Sketch.</desc> <defs> <path d="M53.4888889,0 L361.511111,0 C391.052209,-4.53449045e-14 415,24.2553427 415,54.1758242 L415,795.824176 C415,825.744657 391.052209,850 361.511111,850 L53.4888889,850 C23.9477913,850 3.2763915e-15,825.744657 0,795.824176 L0,54.1758242 C-3.68594044e-15,24.2553427 23.9477913,5.49630329e-15 53.4888889,0 Z" id="path-1"/> <path d="M101.832692,20 L54.9458128,20 C37.0439453,20 24,33.2322544 24,50.5143838 L24,787.500376 C24,810.034354 44.1552734,830 66.9458128,830 L356.054187,830 C378.007813,830 399,809.879271 399,787.500376 L399,52.5119237 C399,31.7980569 384.830078,20.1231808 368.054187,20 L319.268428,20 C318.806692,20.0821205 317.237128,20.1231808 316.559739,20.1231808 C312.02832,20.1231808 310.578149,24.0614045 310.578149,33.2322544 C310.578149,42.4031044 299.921875,50.1529901 292.128242,50.1529901 L260.453202,50.1529901 L143.175012,50.1529901 L129.582031,50.1529901 C125.877348,50.1529901 112.289529,45.8831632 111.185547,33.2322544 C110.081565,20.5813456 109.924636,20.1231808 103.541381,20.1231808 C102.863991,20.1231808 102.294428,20.0821205 101.832692,20 Z" id="path-2"/> </defs> <g id="Page-1" stroke="none" stroke-width="1" fill="none" fill-rule="evenodd"> <g id="preview-iphone"> <g transform="translate(-0.500000, 0.000000)"> <g id="controls" transform="translate(0.500000, 112.000000)" fill="#EBEBEB"> <rect id="silent" x="0" y="0" width="8" height="34" rx="2"/> <rect id="vol+" x="0" y="60" width="8" height="64" rx="2"/> <rect id="power" x="414" y="40" width="8" height="80" rx="2"/> <rect id="vol-" x="0" y="140" width="8" height="64" rx="2"/> </g> <g id="phone" transform="translate(4.000000, 0.000000)"> <g id="body"> <use fill="white" fill-rule="evenodd" xlink:href="#path-1"/> <path stroke="#F2F2F2" stroke-width="2.5" d="M53.4888889,1.25 C24.6417429,1.25 1.25,24.9421533 1.25,54.1758242 L1.25,795.824176 C1.25,825.057847 24.6417429,848.75 53.4888889,848.75 L361.511111,848.75 C390.358257,848.75 413.75,825.057847 413.75,795.824176 L413.75,54.1758242 C413.75,24.9421533 390.358257,1.25 361.511111,1.25 L53.4888889,1.25 Z"/> </g> <path d="M362.862669,831.108398 L52.1373309,831.108398 C37.0444336,831.764648 24.0317383,837.443848 13.8237305,848.87793 C21.7026945,842.297818 33.9319006,834.723047 52.5112799,834.723047 C250.905405,834.723047 354.231218,834.723047 362.48872,834.723047 C381.068099,834.723047 394.404727,843.419888 402.283691,850 C391.620605,837.710449 378.31543,831.726074 362.862669,831.108398 Z" id="reflect-frame-bottom-2" fill-opacity="0.649999976" fill="#F2F2F2" transform="translate(208.053711, 840.554199) scale(1, -1) translate(-208.053711, -840.554199) "/> <path d="M399.038672,847.233301 C390.20261,840.906031 379.375659,837.181865 367.678883,837.181865 L50.7876462,837.181865 C37.487023,837.181865 25.3111183,841.997357 15.9082736,849.98 C25.773567,839.107453 40.0164866,832.279717 55.8541093,832.279717 L361.76801,832.279717 C376.226385,832.279717 389.355717,837.970024 399.038672,847.233301 Z" id="reflect-frame-bottom" fill="#F2F2F2" transform="translate(207.473473, 841.129858) scale(1, -1) translate(-207.473473, -841.129858) "/> <circle id="oval" fill="#EBEBEB" cx="134" cy="31" r="5.71428571"/> <circle id="oval" fill="#EBEBEB" cx="165" cy="31" r="5.71428571"/> <circle id="oval" fill="#EBEBEB" cx="247" cy="31" r="3.57142857"/> <circle id="oval" fill="#EBEBEB" cx="279" cy="31" r="8"/> <rect id="earpiece" fill="#EBEBEB" transform="translate(207.500000, 31.500000) scale(-1, 1) translate(-207.500000, -31.500000) " x="185" y="28" width="45" height="7" rx="3.5"/> </g> <mask id="mask-3" fill="white"> <use xlink:href="#path-2"/> </mask> <g id="Screen-Mask"> <use fill="#F7F7F7" fill-rule="evenodd" xlink:href="#path-2"/> <path stroke="#EBEBEB" stroke-width="2.5" d="M102.051571,18.7693125 C102.433434,18.8372274 102.932158,18.8731808 103.541381,18.8731808 C110.737427,18.8731808 111.267735,19.7954627 112.430814,33.1235861 C112.889227,38.3766923 115.680199,42.4671332 120.098914,45.394665 C123.36085,47.5557957 127.443389,48.9029901 129.582031,48.9029901 L143.175012,48.9029901 L292.128242,48.9029901 C300.029619,48.9029901 309.328149,41.0214848 309.328149,33.2322544 C309.328149,23.1384766 311.187603,18.8731808 316.559739,18.8731808 C317.407785,18.8731808 318.756699,18.8213963 319.049549,18.7693125 L319.268428,18.75 L368.063365,18.7500337 C386.651581,18.8865219 400.25,32.204949 400.25,52.5119237 L400.25,787.500376 C400.25,810.356097 378.91645,831.25 356.054187,831.25 L66.9458128,831.25 C43.4745341,831.25 22.75,810.73429 22.75,787.500376 L22.75,50.5143838 C22.75,32.4101432 36.4860588,18.75 54.9458128,18.75 L101.832692,18.75 L102.051571,18.7693125 Z"/> </g> <g id="Screen" mask="url(#mask-3)" fill="#E3E3E3"> <g transform="translate(118.000000, 137.000000)">   </g> </g> <g id="status-bar" mask="url(#mask-3)"> <g transform="translate(23.000000, 24.000000)"> <rect id="bounds" fill="none" x="0" y="0" width="375" height="20"/> <g id="battery-fixed" stroke-width="1" fill="none" fill-rule="evenodd" transform="translate(337.000000, 11.500000)"> <rect id="inside" fill="#EBEBEB" x="2" y="2.75" width="18" height="7.5" rx="1"/> <path d="M23,4.56300874 C23.8626136,4.78503014 24.5,5.56808029 24.5,6.5 C24.5,7.43191971 23.8626136,8.21496986 23,8.43699126 L23,4.56300874 Z" id="side" fill="#EBEBEB"/> <path d="M2,0.75 L20,0.75 C21.1045695,0.75 22,1.6454305 22,2.75 L22,10.25 C22,11.3545695 21.1045695,12.25 20,12.25 L2,12.25 C0.8954305,12.25 -8.67738547e-17,11.3545695 -2.22044605e-16,10.25 L-2.22044605e-16,2.75 C-3.57315355e-16,1.6454305 0.8954305,0.75 2,0.75 Z M1.91666667,1.75 C1.36438192,1.75 0.916666667,2.19771525 0.916666667,2.75 L0.916666667,10.25 C0.916666667,10.8022847 1.36438192,11.25 1.91666667,11.25 L20.0833333,11.25 C20.6356181,11.25 21.0833333,10.8022847 21.0833333,10.25 L21.0833333,2.75 C21.0833333,2.19771525 20.6356181,1.75 20.0833333,1.75 L1.91666667,1.75 Z" id="frame" fill="#EBEBEB"/> </g> <path d="M317,16.0755358 C318.900223,14.1753125 321.525357,13 324.425,13 C327.324643,13 329.949777,14.1753125 331.85,16.0755358 L330.677632,17.2479042 C329.077444,15.6477162 326.866805,14.6579794 324.425,14.6579794 C321.983196,14.6579794 319.772556,15.6477162 318.172368,17.2479042 L317,16.0755358 Z M319.344737,18.4202727 C320.64489,17.1201199 322.441034,16.3159587 324.425,16.3159587 C326.408966,16.3159587 328.205111,17.1201199 329.505263,18.4202727 L328.332895,19.5926411 C327.332778,18.5925236 325.951128,17.9739381 324.425,17.9739381 C322.898872,17.9739381 321.517223,18.5925236 320.517105,19.5926411 L319.344737,18.4202727 Z M321.689474,20.7650096 C322.389556,20.0649273 323.356711,19.6319175 324.425,19.6319175 C325.49329,19.6319175 326.460444,20.0649273 327.160527,20.7650096 L324.425,23.500536 L321.689474,20.7650096 Z" id="wifi" fill="#EBEBEB" fill-rule="evenodd"/> <g id="signal" stroke-width="1" fill="none" fill-rule="evenodd" transform="translate(295.000000, 13.250000)"> <rect id="4" fill="#EBEBEB" x="13.5" y="0" width="3" height="10" rx="1"/> <rect id="3" fill="#EBEBEB" x="9" y="2" width="3" height="8" rx="1"/> <rect id="2" fill="#EBEBEB" x="4.5" y="4" width="3" height="6" rx="1"/> <rect id="1" fill="#EBEBEB" x="0" y="6" width="3" height="4" rx="1"/> </g> </g> </g> </g> </g> </g> </svg>
