<svg width="48" height="48" viewBox="0 0 48 48" fill="none" xmlns="http://www.w3.org/2000/svg">
<rect width="48" height="48" rx="11" fill="#3AB0FF"/>
<path d="M27.3535 27.9725C28.2092 29.3698 29.3227 30.397 31.2919 30.397C32.9462 30.397 34.0029 29.5702 34.0029 28.4278C34.0029 27.0587 32.9172 26.5739 31.0963 25.7774L30.0982 25.3491C27.2172 24.1218 25.3032 22.5841 25.3032 19.3335C25.3032 16.3392 27.5847 14.0598 31.1502 14.0598C33.6886 14.0598 35.5135 14.9432 36.8285 17.2564L33.7196 19.2526C33.0351 18.0253 32.2967 17.5417 31.1502 17.5417C29.9808 17.5417 29.2396 18.2836 29.2396 19.2526C29.2396 20.4504 29.9815 20.9353 31.6944 21.6771L32.6925 22.1046C36.0847 23.5593 37.9999 25.0423 37.9999 28.3765C37.9999 31.971 35.1762 33.9402 31.3841 33.9402C27.6763 33.9402 25.2809 32.1733 24.1088 29.8574L27.3535 27.9725ZM13.2499 28.3185C13.8771 29.4313 14.4477 30.372 15.8193 30.372C17.131 30.372 17.9585 29.8588 17.9585 27.8633V14.2878H21.9509V27.9172C21.9509 32.0511 19.5272 33.9328 15.9893 33.9328C12.7927 33.9328 10.9415 32.2784 10 30.286L13.2499 28.3185Z" fill="#F1F5F9"/>
</svg>
