<svg width="97" height="69" viewBox="0 0 97 69" fill="none" xmlns="http://www.w3.org/2000/svg">
<rect x="0.664062" y="0.5" width="96" height="68" rx="6" fill="white"/>
<rect x="1.16406" y="1" width="95" height="67" rx="5.5" fill="white" stroke="#EDF0F5"/>
<rect x="4.66406" y="5.5" width="86" height="8" rx="2" fill="#E3E8ED"/>
<rect x="4.66406" y="15.5" width="22" height="49" rx="1" fill="#E3E8ED"/>
<rect x="29.6641" y="17.2095" width="12" height="12" rx="1.63733" fill="#5E9CEE"/>
<rect x="44.9385" y="17.2095" width="12" height="12" rx="1.63733" fill="#5E9CEE"/>
<rect x="60.2129" y="17.2095" width="12" height="12" rx="1.63733" fill="#5E9CEE"/>
<rect x="75.4883" y="17.2095" width="12" height="12" rx="1.63733" fill="#5E9CEE"/>
<rect x="29.6641" y="33.3027" width="12" height="12" rx="1.63733" fill="#5E9CEE"/>
<rect x="44.9385" y="33.3027" width="12" height="12" rx="1.63733" fill="#5E9CEE"/>
<rect x="60.2129" y="33.3027" width="12" height="12" rx="1.63733" fill="#5E9CEE"/>
<rect x="75.4883" y="33.3027" width="12" height="12" rx="1.63733" fill="#5E9CEE"/>
</svg>
