<svg width="13" height="14" viewBox="0 0 13 14" fill="none" xmlns="http://www.w3.org/2000/svg">
<path d="M9.00009 1.74999C9.00009 2.71649 8.21649 3.49998 7.24999 3.49998C6.28349 3.49998 5.5 2.71649 5.5 1.74999C5.5 0.783488 6.28349 0 7.24999 0C8.21649 0 9.00009 0.783488 9.00009 1.74999Z" fill="#2795EB"/>
<path d="M12.5 3.9995C12.5 4.82789 11.8284 5.49949 11 5.49949C10.1715 5.49949 9.5 4.82789 9.5 3.9995C9.5 3.17111 10.1715 2.49951 11 2.49951C11.8284 2.49951 12.5 3.17111 12.5 3.9995Z" fill="#2795EB"/>
<path d="M13 8.2495C13 8.9399 12.4403 9.49949 11.75 9.49949C11.0596 9.49949 10.5 8.9399 10.5 8.2495C10.5 7.55919 11.0596 6.99951 11.75 6.99951C12.4403 6.99951 13 7.55922 13 8.2495Z" fill="#2795EB"/>
<path d="M10.5 11.9996C10.5 12.5518 10.0522 12.9996 9.49999 12.9996C8.94767 12.9996 8.5 12.5518 8.5 11.9996C8.5 11.4473 8.9477 10.9995 9.49999 10.9995C10.0522 10.9995 10.5 11.4473 10.5 11.9996Z" fill="#2795EB"/>
<path d="M5.99999 12.9995C5.99999 13.5517 5.55228 13.9995 4.99999 13.9995C4.44767 13.9995 4 13.5517 4 12.9995C4 12.4472 4.4477 11.9995 4.99999 11.9995C5.55231 11.9995 5.99999 12.4472 5.99999 12.9995Z" fill="#2795EB"/>
<path d="M1.99999 10.2495C1.99999 10.6638 1.66421 10.9995 1.24999 10.9995C0.835785 10.9995 0.5 10.6638 0.5 10.2495C0.5 9.8353 0.835785 9.49951 1.24999 9.49951C1.66421 9.49951 1.99999 9.8353 1.99999 10.2495Z" fill="#2795EB"/>
<path d="M0.999993 5.99951C0.999993 6.27572 0.776091 6.4995 0.499997 6.4995C0.223784 6.4995 0 6.27572 0 5.99951C0 5.72341 0.223786 5.49951 0.499997 5.49951C0.776091 5.49951 0.999993 5.72341 0.999993 5.99951Z" fill="#2795EB"/>
<path d="M3.49999 2.49951C3.49999 2.7756 3.27621 2.9995 3 2.9995C2.7239 2.9995 2.5 2.7756 2.5 2.49951C2.5 2.2233 2.7239 1.99951 3 1.99951C3.27621 1.99951 3.49999 2.2233 3.49999 2.49951Z" fill="#2795EB"/>
</svg>
