<svg width="48" height="48" viewBox="0 0 48 48" fill="none" xmlns="http://www.w3.org/2000/svg">
<rect x="15.6376" y="11.4761" width="16.7247" height="16.7247" fill="white"/>
<path d="M24 47.5735C23.489 47.5735 22.9779 47.4922 22.4669 47.3296C21.9559 47.167 21.4913 46.9231 21.0732 46.5979C15.266 41.9522 10.9686 37.5155 8.18118 33.2878C5.39373 29.0602 4 24.9022 4 20.814C4 17.469 4.60395 14.519 5.81185 11.9638C7.01974 9.40863 8.57607 7.27158 10.4808 5.55265C12.3856 3.83372 14.5343 2.53291 16.9268 1.65021C19.3194 0.767519 21.6771 0.326172 24 0.326172C26.3229 0.326172 28.6806 0.767519 31.0732 1.65021C33.4657 2.53291 35.6144 3.83372 37.5191 5.55265C39.4239 7.27158 40.9802 9.40863 42.1881 11.9638C43.396 14.519 44 17.469 44 20.814C44 24.9022 42.6062 29.0602 39.8188 33.2878C37.0313 37.5155 32.734 41.9522 26.9268 46.5979C26.5552 46.9231 26.1022 47.167 25.5679 47.3296C25.0337 47.4922 24.511 47.5735 24 47.5735ZM24.0697 26.4586C25.7421 26.4586 27.1591 25.8546 28.3205 24.6467C29.482 23.4388 30.0627 21.9986 30.0627 20.3262C30.0627 18.6537 29.4704 17.2251 28.2857 16.0404C27.101 14.8558 25.6957 14.2634 24.0697 14.2634C22.3972 14.2634 20.957 14.8558 19.7491 16.0404C18.5412 17.2251 17.9373 18.6537 17.9373 20.3262C17.9373 21.9986 18.5412 23.4388 19.7491 24.6467C20.957 25.8546 22.3972 26.4586 24.0697 26.4586Z" fill="#FE4646"/>
</svg>
