<svg width="111" height="113" viewBox="0 0 111 113" fill="none" xmlns="http://www.w3.org/2000/svg">
<path d="M55.0416 112.941C85.4402 112.941 110.083 88.497 110.083 58.3438C110.083 28.1907 85.4402 3.7467 55.0416 3.7467C24.6429 3.7467 0 28.1907 0 58.3438C0 88.497 24.6429 112.941 55.0416 112.941Z" fill="#D5DDEA"/>
<path d="M52.7696 8.70619C47.2752 8.9484 41.9632 10.0648 37.0719 11.9372C36.7686 12.2479 36.4699 12.543 36.1855 12.8239L36.1508 12.8582C30.4568 18.6246 25.8203 26.9502 23.0226 36.8274H52.7696V8.70619Z" fill="white"/>
<path d="M27.2444 17.0216C19.8489 21.9517 13.8242 28.7946 9.9108 36.8274H18.5278C20.5129 29.3687 23.4984 22.6369 27.2444 17.0216Z" fill="white"/>
<path d="M8.05559 41.1464C6.04913 46.5099 4.95044 52.3043 4.95044 58.3431C4.95044 64.4728 6.08246 70.3506 8.14681 75.7816H17.5193C16.381 70.264 15.7739 64.4038 15.7739 58.3438C15.7739 52.3771 16.3801 46.5989 17.508 41.1464H8.05559Z" fill="white"/>
<path d="M10.0295 80.1006C13.9174 87.9722 19.8377 94.6872 27.0873 99.5594C23.4008 94.0427 20.4845 87.4323 18.5366 80.1006H10.0295Z" fill="white"/>
<path d="M37.0538 104.742C41.9501 106.619 47.2685 107.737 52.7696 107.98V80.1006H23.0308C25.8112 89.9286 30.4157 98.1634 36.1414 103.82C36.4434 104.118 36.7486 104.426 37.0538 104.742Z" fill="white"/>
<path d="M57.106 107.989C62.6336 107.767 67.98 106.661 72.903 104.79C73.1713 104.507 73.4451 104.226 73.7244 103.95C79.3955 98.2069 84.0175 89.9254 86.8188 80.1006H57.106V107.989Z" fill="white"/>
<path d="M82.5811 99.8611C90.0626 94.9661 96.135 88.1359 100.086 80.1006H91.3156C89.3217 87.5445 86.3304 94.2609 82.5811 99.8611Z" fill="white"/>
<path d="M101.959 75.7816C104.012 70.3506 105.133 64.4728 105.133 58.3431C105.133 52.3043 104.045 46.5099 102.05 41.1464H92.3764C93.5015 46.6225 94.1017 52.4384 94.1017 58.464C94.1017 64.4745 93.4865 70.2938 92.3425 75.7816H101.959Z" fill="white"/>
<path d="M100.204 36.8274C96.2221 28.6164 90.0309 21.6487 82.3834 16.6964C86.2753 22.3688 89.3433 29.209 91.3623 36.8274H100.204Z" fill="white"/>
<path d="M72.6574 11.8031C72.9836 12.167 73.3153 12.5323 73.6553 12.9056C73.6779 12.9304 73.7011 12.9547 73.7249 12.9785C79.4748 18.7275 84.0909 26.9839 86.8688 36.8274H57.106V8.69745C62.5418 8.91507 67.8024 9.98836 72.6574 11.8031Z" fill="white"/>
<path d="M87.9093 75.7816C89.1083 70.3528 89.7652 64.5309 89.7652 58.464C89.7652 52.3774 89.1245 46.56 87.946 41.1464H57.106V75.7816H87.9093Z" fill="white"/>
<path d="M52.7696 75.7816V41.1464H21.9398C20.7575 46.5409 20.1103 52.3216 20.1103 58.3438C20.1103 64.4677 20.7587 70.3295 21.9503 75.7816H52.7696Z" fill="white"/>
<path d="M86.6197 0C99.3929 0 109.723 10.1207 109.723 22.6349C109.723 32.6189 95.0654 52.3817 89.0627 60.0406C87.8063 61.6818 85.2935 61.6818 84.0371 60.0406C78.0345 52.3817 63.3767 32.6189 63.3767 22.6349C63.5163 10.1207 73.8465 0 86.6197 0Z" fill="url(#paint0_linear_567_19304)"/>
<path d="M86.55 32.2068C91.5391 32.2068 95.5836 27.9865 95.5836 22.7804C95.5836 17.5744 91.5391 13.354 86.55 13.354C81.5608 13.354 77.5164 17.5744 77.5164 22.7804C77.5164 27.9865 81.5608 32.2068 86.55 32.2068Z" fill="white"/>
<defs>
<linearGradient id="paint0_linear_567_19304" x1="63.3555" y1="30.6424" x2="109.732" y2="30.6424" gradientUnits="userSpaceOnUse">
<stop stop-color="#B0BACC"/>
<stop offset="1" stop-color="#969EAE"/>
</linearGradient>
</defs>
</svg>
