<svg width="48" height="49" viewBox="0 0 48 49" fill="none" xmlns="http://www.w3.org/2000/svg">
<rect y="0.5" width="48" height="48" rx="11" fill="#8779FE"/>
<g clip-path="url(#clip0_2298_2261)">
<path d="M26.625 10.5H13.2083C11.435 10.5 10 11.935 10 13.7083V31.7917C10 33.565 11.435 35 13.2083 35H20.8967C20.2667 33.67 19.9167 32.1883 19.9167 30.625C19.9167 29.2833 20.1733 28 20.6517 26.8217C20.605 26.8333 20.5583 26.8333 20.5 26.8333H14.6667C14.025 26.8333 13.5 26.3083 13.5 25.6667C13.5 25.025 14.025 24.5 14.6667 24.5H20.5C20.9433 24.5 21.34 24.7567 21.5267 25.13C22.285 23.9517 23.265 22.9483 24.42 22.1667H14.6667C14.025 22.1667 13.5 21.6417 13.5 21C13.5 20.3583 14.025 19.8333 14.6667 19.8333H25.1667C25.8083 19.8333 26.3333 20.3583 26.3333 21C26.3333 21.0583 26.3333 21.105 26.3217 21.1517C27.4067 20.7083 28.5967 20.4517 29.8333 20.4283V13.7083C29.8333 11.935 28.3983 10.5 26.625 10.5ZM19.3333 17.5H14.6667C14.025 17.5 13.5 16.975 13.5 16.3333C13.5 15.6917 14.025 15.1667 14.6667 15.1667H19.3333C19.975 15.1667 20.5 15.6917 20.5 16.3333C20.5 16.975 19.975 17.5 19.3333 17.5Z" fill="white"/>
<path d="M30.4162 22.7676C26.235 22.7676 22.833 26.1697 22.833 30.351C22.833 34.5322 26.235 37.9344 30.4162 37.9344C34.5977 37.9344 37.9996 34.5322 37.9996 30.351C37.9996 26.1697 34.5977 22.7676 30.4162 22.7676ZM32.991 32.9258C32.7637 33.1533 32.4648 33.2676 32.1662 33.2676C31.8676 33.2676 31.5689 33.1533 31.3414 32.9258L29.5914 31.1758C29.372 30.9577 29.2496 30.6614 29.2496 30.351V27.4344C29.2496 26.7892 29.7723 26.2676 30.4162 26.2676C31.0603 26.2676 31.583 26.7892 31.583 27.4344V29.868L32.991 31.2762C33.4473 31.7323 33.4473 32.4697 32.991 32.9258Z" fill="white"/>
</g>
<defs>
<clipPath id="clip0_2298_2261">
<rect width="28" height="28" fill="white" transform="translate(10 10.5)"/>
</clipPath>
</defs>
</svg>
