<svg width="164" height="161" viewBox="0 0 164 161" fill="none" xmlns="http://www.w3.org/2000/svg">
<path d="M160.575 80.5377C160.575 96.5753 155.832 111.559 147.625 124.058C145.818 126.919 143.86 129.479 141.752 132.039C127.069 149.432 105.084 160.5 80.6129 160.5C56.1424 160.5 34.1565 149.356 19.4741 132.039C17.3659 129.479 15.4082 126.919 13.6012 124.133C11.4929 120.82 9.46 117.281 7.80353 113.592C6.52353 110.655 5.24353 107.644 4.34 104.481C2.75882 99.7377 1.70471 94.9941 1.10235 90.0247C0.876471 88.82 0.801177 87.6153 0.725882 86.26C0.650588 84.3776 0.5 82.3447 0.5 80.3871C0.5 58.0247 9.61059 37.9212 24.3682 23.3894C25.8741 21.8835 27.5306 20.4529 29.1118 19.0224C43.1165 7.57765 61.0365 0.5 80.6129 0.5C96.2741 0.5 110.956 5.01765 123.38 12.8482C123.982 13.1494 124.509 13.5259 125.112 13.9776C125.639 14.3541 126.241 14.6553 126.693 15.1071C129.705 17.2153 132.641 19.5494 135.276 22.1094C136.858 23.6153 138.439 25.1212 139.794 26.7776C141.526 28.7353 143.258 30.6929 144.764 32.8765C145.14 33.4035 145.441 33.8553 145.893 34.3824C146.269 34.9094 146.571 35.3612 147.022 35.8882C151.54 42.5894 155.004 49.9682 157.413 57.7988C157.789 59.2294 158.241 60.5094 158.542 61.94C159.822 67.8129 160.575 74.0624 160.575 80.5377Z" fill="#EAEEF9"/>
<path d="M153.875 124.059V132.04H19.3993C17.2911 129.48 15.3334 126.92 13.5264 124.134H153.875V124.059Z" fill="#D5DDEA"/>
<path d="M157.563 62.6177H92.3584V58.4766H156.434C156.961 59.7566 157.262 61.1872 157.563 62.6177Z" fill="#D5DDEA"/>
<path d="M145.064 34.9846V59.0034H111.784V14.7305H124.132C124.659 15.1069 125.262 15.4081 125.714 15.8599C128.725 17.9681 131.662 20.3022 134.297 22.8622C135.878 24.3681 137.459 25.874 138.815 27.5305C140.547 29.4881 142.278 31.4458 143.784 33.6293C144.311 34.0058 144.763 34.5328 145.064 34.9846Z" fill="white"/>
<path d="M145.065 34.9862C144.688 34.4591 144.387 34.0073 143.935 33.4803V57.9509H112.914V15.7862H125.714C125.187 15.4097 124.735 15.1085 124.133 14.6568C123.606 14.2803 123.004 13.9791 122.401 13.5273H110.58V59.9838H145.968V36.4921C145.742 36.0403 145.441 35.5132 145.065 34.9862Z" fill="#D5DDEA"/>
<path d="M138.965 27.4534V50.9452H117.808V22.7852H134.297C136.029 24.291 137.535 25.7969 138.965 27.4534Z" fill="#EAEEF9"/>
<path d="M54.5615 122.703C54.5615 123.381 54.0344 123.908 53.432 124.134C53.3567 124.134 53.2062 124.134 53.1309 124.134H13.5262C11.4179 120.821 9.38499 117.282 7.72852 113.593C9.53557 110.581 10.5897 107.343 11.0415 104.482C11.2673 103.503 11.3426 102.6 11.4179 101.621H41.3097C41.385 102.525 41.6109 103.428 41.8368 104.482C42.9662 109.903 45.9026 116.68 52.0767 121.273H53.0556C53.9591 121.273 54.5615 121.951 54.5615 122.703Z" fill="#CAD3E2"/>
<path d="M82.6458 22.5601V101.092C82.6458 102.974 81.1399 104.405 79.3328 104.405H4.3399C2.83402 99.8872 1.7799 95.1436 1.17755 90.1742C0.951666 88.9695 0.876372 87.7648 0.801078 86.4095C0.725784 84.4519 0.575195 82.4942 0.575195 80.5366C0.575195 58.1742 9.68578 38.0707 24.4434 23.5389C25.9493 22.0331 27.6058 20.6025 29.187 19.1719H79.1823C81.2152 19.1719 82.6458 20.8283 82.6458 22.5601Z" fill="#DEE5EF"/>
<path d="M82.6458 22.5601V90.1742H1.17755C0.951666 88.9695 0.876372 87.7648 0.801078 86.4095C0.725784 84.4519 0.575195 82.4942 0.575195 80.5366C0.575195 58.1742 9.68578 38.0707 24.4434 23.5389C25.9493 22.0331 27.6058 20.6025 29.187 19.1719H79.1823C81.2152 19.1719 82.6458 20.8283 82.6458 22.5601Z" fill="#D5DDEA"/>
<path d="M78.2786 23.5391V86.4849H0.876273C0.800979 84.5273 0.650391 82.5697 0.650391 80.612C0.650391 58.2497 9.76098 38.1461 24.5186 23.6144H78.2786V23.5391Z" fill="white"/>
<path d="M26.0241 100.413C27.5299 100.413 28.7347 99.2087 28.7347 97.7028C28.7347 96.1969 27.5299 94.9922 26.0241 94.9922C24.5182 94.9922 23.3135 96.1969 23.3135 97.7028C23.3135 99.2087 24.5182 100.413 26.0241 100.413Z" fill="white"/>
<path d="M40.9329 105.686V108.923H38.6741C37.3941 108.923 36.2646 110.053 36.2646 111.333V115.85C36.2646 117.13 37.3941 118.26 38.6741 118.26H40.9329V121.723C40.9329 122.928 41.9117 123.982 43.1917 123.982H53.2058C54.4105 123.982 55.4646 123.003 55.4646 121.723V105.535H40.9329V105.686ZM38.6741 116.603C38.3729 116.603 38.0717 116.302 38.0717 116.001V111.483C38.0717 111.182 38.3729 110.881 38.6741 110.881H40.9329V116.679H38.6741V116.603Z" fill="#989FB0"/>
<path d="M48.3115 86.6367C49.2151 88.8955 49.441 91.1544 48.0857 92.8861C46.8057 94.6932 45.8268 97.1026 47.1821 98.985C48.4621 100.792 48.9139 102.223 48.3868 103.126C47.8598 104.03 48.3868 103.051 50.1186 101.093C51.6245 99.512 48.9139 98.1567 48.8386 96.8767C48.7633 95.672 50.2692 93.112 50.2692 91.4555C50.1939 89.6485 49.3657 87.3144 48.3115 86.6367Z" fill="white"/>
<path d="M44.5473 96.5C44.9237 97.6294 45.0743 98.7588 44.472 99.6624C43.8696 100.566 43.3425 101.771 44.0955 102.674C44.7731 103.578 44.9237 104.255 44.6978 104.782C44.472 105.309 44.6978 104.782 45.6014 103.804C46.279 102.975 44.999 102.298 44.9237 101.695C44.8484 101.093 45.6014 99.8882 45.6014 98.9847C45.5261 98.0059 45.1496 96.8765 44.5473 96.5Z" fill="white"/>
<path d="M84.8291 107.792C85.6573 105.985 88.4432 102.521 91.3044 101.091C91.6809 100.865 92.1326 101.015 92.2832 101.392C93.1115 102.822 95.1444 106.436 94.3915 109.975C93.4126 114.267 84.8291 107.792 84.8291 107.792Z" fill="#989FB0"/>
<path d="M81.2909 108.096C81.2909 108.096 77.6768 104.181 75.3427 102.75C74.7403 102.449 74.0627 102.675 73.7615 103.277C71.2015 108.096 71.2015 113.668 71.8038 116.604C72.4815 119.766 77.9027 111.032 77.9027 111.032L81.2909 108.096Z" fill="#989FB0"/>
<path d="M79.6339 109.374C79.6339 109.374 77.3751 106.965 76.0198 106.061C75.6433 105.91 75.1916 105.986 75.041 106.362C73.5351 109.374 73.4598 112.762 73.9116 114.569C74.3633 116.527 77.6763 111.106 77.6763 111.106L79.6339 109.374Z" fill="#D5DDEA"/>
<path d="M87.1631 108.02C87.6149 106.816 89.4219 104.557 91.1537 103.653C91.3796 103.578 91.6054 103.653 91.8313 103.879C92.2831 104.783 93.5631 107.117 93.1113 109.451C92.509 112.312 87.1631 108.02 87.1631 108.02Z" fill="#D5DDEA"/>
<path d="M157.79 154.627C150.11 151.389 151.239 141.3 151.992 131.963C152.67 131.963 153.272 131.963 153.95 131.963C153.95 129.328 153.95 126.617 153.95 123.982C153.95 123.907 150.411 124.057 150.035 124.057C148.303 124.057 147.399 123.078 145.969 122.476C146.119 122.551 145.592 126.617 145.517 127.069C143.032 137.987 137.987 141.827 142.731 146.871C144.162 148.377 144.839 151.615 141.526 153.045C138.213 154.325 136.256 149.507 135.126 147.172C133.169 143.107 134.825 137.083 136.933 124.735C136.933 124.735 113.517 124.66 106.816 124.735C106.364 126.617 102.599 139.718 102.072 142.429C101.244 146.495 102.599 149.431 102.9 151.615C103.202 153.949 99.2863 155.53 96.3498 152.895C92.5851 149.431 96.5757 144.085 97.1028 132.189C97.1028 131.511 97.3286 124.208 96.8769 124.208C89.1216 124.208 81.4416 124.132 73.6863 124.283C72.7828 124.283 71.4275 124.66 70.9004 123.831C66.6839 117.657 77.3757 103.728 89.2722 107.342C91.2298 107.944 93.3381 109.224 95.4463 109.375C95.4463 109.375 96.651 108.998 102.75 104.556C112.99 98.6831 125.865 99.1348 133.846 101.017C144.613 103.577 146.496 112.236 149.583 116.076C154.025 121.648 158.242 123.078 157.639 136.707C157.413 142.203 157.338 145.14 161.856 148.302C164.867 150.711 162.458 156.584 157.79 154.627Z" fill="white"/>
<path d="M85.9586 122.929C85.1303 123.004 84.0762 123.155 83.0974 123.155C82.7962 123.155 82.4198 123.155 82.1186 123.23C78.8056 123.306 75.6433 122.854 75.1915 120.369C74.8903 118.411 77.6762 115.927 79.1821 115.099C84.3021 112.237 89.5727 116.454 90.175 119.014C90.6268 121.197 88.2927 122.553 85.9586 122.929Z" fill="#D5DDEA"/>
<path d="M82.6465 120.217C83.4747 120.217 84.1524 119.916 84.1524 119.464C84.1524 119.012 83.4747 118.711 82.6465 118.711C81.8183 118.711 81.1406 119.012 81.1406 119.464C81.1406 119.916 81.8183 120.217 82.6465 120.217Z" fill="#989FB0"/>
<path d="M83.3994 120.219V123.155C82.9477 123.155 82.3453 123.231 81.8936 123.231V120.294L83.3994 120.219Z" fill="#989FB0"/>
<path d="M102.825 151.616C103.126 153.95 99.2108 155.531 96.2743 152.896C93.3378 150.185 96.0484 141.075 96.8014 136.256C97.1778 133.696 97.1778 130.609 97.1025 128.199C98.3825 129.78 101.545 133.771 103.804 135.879C103.126 138.515 102.373 140.924 102.072 142.58C101.244 146.42 102.448 149.357 102.825 151.616Z" fill="#D5DDEA"/>
<path d="M142.58 146.945C144.011 148.451 144.689 151.689 141.376 153.119C138.063 154.399 136.105 149.58 134.976 147.246C133.846 144.912 134.072 139.34 134.976 134.823C135.277 133.242 135.653 131.51 135.879 130.004C136.557 130.38 137.31 130.832 137.912 131.284C139.493 132.489 141.074 133.919 142.882 134.898C142.053 137.232 141.376 139.114 140.924 140.018C139.945 142.503 141.15 145.439 142.58 146.945Z" fill="#D5DDEA"/>
<path d="M161.781 154.176C159.522 156.284 155.682 153.875 153.574 151.465C151.465 149.056 151.014 141.526 151.766 134.976C151.842 133.846 151.992 132.868 151.842 131.964H153.875V123.983H147.701C147.625 123.908 147.475 123.757 147.399 123.682C147.475 123.381 147.625 123.004 147.701 122.703C148.228 121.122 147.399 119.541 149.206 116.152C149.734 116.981 150.185 117.432 150.712 117.884C151.691 118.788 152.745 119.465 154.552 122.025C158.091 126.844 157.564 137.009 157.414 140.999C157.338 145.141 160.124 147.701 161.856 148.378C163.362 149.131 163.964 152.068 161.781 154.176Z" fill="#D5DDEA"/>
<path d="M87.9167 111.331H87.8414L85.7332 111.03C85.3567 111.03 85.1309 110.654 85.1309 110.352C85.1309 109.976 85.5073 109.75 85.8085 109.75L87.9167 110.051C88.2932 110.051 88.5191 110.428 88.5191 110.729C88.5191 111.181 88.2179 111.331 87.9167 111.331Z" fill="#AAB2C5"/>
<path d="M77.7518 111.558H77.8271L79.9353 111.257C80.3118 111.257 80.5376 110.88 80.5376 110.579C80.5376 110.202 80.1612 109.977 79.86 109.977L77.7518 110.278C77.3753 110.278 77.1494 110.654 77.1494 110.955C77.3 111.257 77.4506 111.482 77.7518 111.558Z" fill="#AAB2C5"/>
<path d="M94.0641 58.2499L93.4309 54.6166L107.648 52.1389L108.281 55.7722L100.604 69.1551L110.477 67.4344L111.11 71.0677L96.2607 73.6556L95.6275 70.0223L103.305 56.6394L94.0641 58.2499Z" fill="#989FB0"/>
<path d="M88.6201 83.3146L89.2802 81.1544L97.6331 83.7068L96.973 85.867L89.2661 90.9915L95.0267 92.7517L94.3666 94.912L85.5817 92.2275L86.2418 90.0673L93.9487 84.9429L88.6201 83.3146Z" fill="#989FB0"/>
<path d="M146.646 124.208H153.874V124.133V132.114H144.989" fill="#D5DDEA"/>
</svg>
