<svg width="18" height="16" viewBox="0 0 18 16" fill="none" xmlns="http://www.w3.org/2000/svg">
<path d="M14.8341 0.5C15.4718 0.499964 16.0854 0.743604 16.5494 1.18107C17.0133 1.61854 17.2926 2.21676 17.33 2.85333L17.3341 3V13C17.3342 13.6377 17.0905 14.2513 16.6531 14.7152C16.2156 15.1792 15.6174 15.4584 14.9808 15.4958L14.8341 15.5H3.16748C2.5298 15.5 1.91622 15.2564 1.45226 14.8189C0.988308 14.3815 0.709058 13.7832 0.671647 13.1467L0.66748 13V3C0.667445 2.36232 0.911085 1.74874 1.34855 1.28478C1.78602 0.820828 2.38424 0.541577 3.02081 0.504167L3.16748 0.5H14.8341ZM13.1675 10.5H4.83415L4.73665 10.5058C4.53411 10.5299 4.34743 10.6275 4.21199 10.78C4.07655 10.9325 4.00174 11.1294 4.00174 11.3333C4.00174 11.5373 4.07655 11.7342 4.21199 11.8867C4.34743 12.0392 4.53411 12.1367 4.73665 12.1608L4.83415 12.1667H13.1675L13.265 12.1608C13.4675 12.1367 13.6542 12.0392 13.7896 11.8867C13.9251 11.7342 13.9999 11.5373 13.9999 11.3333C13.9999 11.1294 13.9251 10.9325 13.7896 10.78C13.6542 10.6275 13.4675 10.5299 13.265 10.5058L13.1675 10.5ZM13.1675 7.16667H4.83415L4.73665 7.1725C4.53411 7.19659 4.34743 7.29413 4.21199 7.44664C4.07655 7.59915 4.00174 7.79603 4.00174 8C4.00174 8.20397 4.07655 8.40085 4.21199 8.55336C4.34743 8.70587 4.53411 8.80341 4.73665 8.8275L4.83415 8.83333H13.1675L13.265 8.8275C13.4675 8.80341 13.6542 8.70587 13.7896 8.55336C13.9251 8.40085 13.9999 8.20397 13.9999 8C13.9999 7.79603 13.9251 7.59915 13.7896 7.44664C13.6542 7.29413 13.4675 7.19659 13.265 7.1725L13.1675 7.16667ZM13.1675 3.83333H4.83415L4.73665 3.83917C4.53411 3.86326 4.34743 3.9608 4.21199 4.1133C4.07655 4.26581 4.00174 4.4627 4.00174 4.66667C4.00174 4.87064 4.07655 5.06752 4.21199 5.22003C4.34743 5.37254 4.53411 5.47008 4.73665 5.49417L4.83415 5.5H13.1675L13.265 5.49417C13.4675 5.47008 13.6542 5.37254 13.7896 5.22003C13.9251 5.06752 13.9999 4.87064 13.9999 4.66667C13.9999 4.4627 13.9251 4.26581 13.7896 4.1133C13.6542 3.9608 13.4675 3.86326 13.265 3.83917L13.1675 3.83333Z" fill="#0D9488"/>
</svg>
