<svg width="96" height="69" viewBox="0 0 96 69" fill="none" xmlns="http://www.w3.org/2000/svg">
<rect x="-0.00390625" y="0.5" width="96" height="68" rx="6" fill="#0B0B0B"/>
<rect x="0.496094" y="1" width="95" height="67" rx="5.5" fill="white" stroke="#E9EEF4"/>
<rect x="3.99609" y="5.5" width="86" height="8" rx="2" fill="#E3E8ED"/>
<rect x="3.99609" y="15.5" width="22" height="49" rx="1" fill="#E3E8ED"/>
<rect x="28.9961" y="17.2095" width="8" height="8" rx="1.05172" fill="#5E9CEE"/>
<rect x="39.0996" y="17.2095" width="8" height="8" rx="1.05172" fill="#5E9CEE"/>
<rect x="49.2031" y="17.2095" width="8" height="8" rx="1.05172" fill="#5E9CEE"/>
<rect x="59.3066" y="17.2095" width="8" height="8" rx="1.05172" fill="#5E9CEE"/>
<rect x="69.4102" y="17.2095" width="8" height="8" rx="1.05172" fill="#5E9CEE"/>
<rect x="79.5137" y="17.2095" width="8" height="8" rx="1.05172" fill="#5E9CEE"/>
<rect x="28.9961" y="29.9629" width="8" height="8" rx="1.05172" fill="#5E9CEE"/>
<rect x="39.0996" y="29.9629" width="8" height="8" rx="1.05172" fill="#5E9CEE"/>
<rect x="49.2031" y="29.9629" width="8" height="8" rx="1.05172" fill="#5E9CEE"/>
<rect x="59.3066" y="29.9629" width="8" height="8" rx="1.05172" fill="#5E9CEE"/>
<rect x="69.4102" y="29.9629" width="8" height="8" rx="1.05172" fill="#5E9CEE"/>
<rect x="79.5137" y="29.9629" width="8" height="8" rx="1.05172" fill="#5E9CEE"/>
</svg>
