<svg width="4" height="13" viewBox="0 0 4 13" fill="none" xmlns="http://www.w3.org/2000/svg">
<path d="M1.8029 3.86646C0.968989 3.86646 0.292969 3.19488 0.292969 2.36645C0.292969 1.53803 0.96899 0.866455 1.8029 0.866455C2.63682 0.866455 3.31284 1.53803 3.31284 2.36646C3.31284 3.19488 2.63682 3.86646 1.8029 3.86646Z" fill="#5E5E5E"/>
<path d="M1.8029 8.36646C0.968989 8.36646 0.292969 7.69488 0.292969 6.86646C0.292969 6.03803 0.96899 5.36646 1.8029 5.36646C2.63682 5.36646 3.31284 6.03803 3.31284 6.86646C3.31284 7.69488 2.63682 8.36646 1.8029 8.36646Z" fill="#5E5E5E"/>
<path d="M1.8029 12.8665C0.968989 12.8665 0.292969 12.1949 0.292969 11.3665C0.292969 10.538 0.96899 9.86646 1.8029 9.86646C2.63682 9.86646 3.31284 10.538 3.31284 11.3665C3.31284 12.1949 2.63682 12.8665 1.8029 12.8665Z" fill="#5E5E5E"/>
</svg>
