<svg width="48" height="49" viewBox="0 0 48 49" fill="none" xmlns="http://www.w3.org/2000/svg">
<rect y="0.5" width="48" height="48" rx="11" fill="#FBBF24"/>
<path fill-rule="evenodd" clip-rule="evenodd" d="M24 10.5C16.268 10.5 10 16.768 10 24.5C10 32.232 16.268 38.5 24 38.5C31.732 38.5 38 32.232 38 24.5C38 16.768 31.732 10.5 24 10.5ZM19.3808 20.2321C19.042 20.0818 18.6724 20.0141 18.3024 20.0345C17.9323 20.0549 17.5724 20.1629 17.2523 20.3496C16.9322 20.5363 16.6609 20.7963 16.4609 21.1083C16.2609 21.4203 16.1379 21.7754 16.1019 22.1442C16.0617 22.5565 16.3633 22.9233 16.7755 22.9635C17.1878 23.0037 17.5546 22.7021 17.5948 22.2898C17.6077 22.1574 17.6519 22.0299 17.7237 21.9178C17.7955 21.8058 17.893 21.7124 18.0079 21.6454C18.1229 21.5783 18.2521 21.5395 18.385 21.5322C18.5179 21.5249 18.6506 21.5492 18.7723 21.6032C18.8939 21.6572 19.001 21.7393 19.0847 21.8427C19.1684 21.9462 19.2264 22.0681 19.2538 22.1983C19.2812 22.3285 19.2773 22.4634 19.2424 22.5918C19.2075 22.7203 19.1426 22.8386 19.0531 22.937C19.0366 22.9552 19.021 22.9741 19.0063 22.9938L16.2468 26.6997C16.0774 26.9272 16.0508 27.2307 16.1781 27.4842C16.3054 27.7376 16.5647 27.8976 16.8483 27.8976H20.0294C20.4436 27.8976 20.7794 27.5618 20.7794 27.1476C20.7794 26.7334 20.4436 26.3976 20.0294 26.3976H18.3419L20.1896 23.9163C20.4251 23.6483 20.5963 23.3298 20.6899 22.9852C20.7871 22.6275 20.798 22.252 20.7216 21.8893C20.6453 21.5266 20.4839 21.1873 20.2508 20.8992C20.0177 20.6111 19.7195 20.3825 19.3808 20.2321ZM22.4156 20.0348C22.0013 20.0348 21.6656 20.3706 21.6656 20.7848V27.1468C21.6656 27.561 22.0013 27.8968 22.4156 27.8968C22.8298 27.8968 23.1656 27.561 23.1656 27.1468V21.5348H25.5966C26.0108 21.5348 26.3466 21.199 26.3466 20.7848C26.3466 20.3706 26.0108 20.0348 25.5966 20.0348H22.4156ZM24.8022 24.7168H23.2913V23.2168H24.8022C25.2164 23.2168 25.5522 23.5526 25.5522 23.9668C25.5522 24.381 25.2164 24.7168 24.8022 24.7168ZM28.979 21.781C29.1366 21.6233 29.3504 21.5348 29.5733 21.5348C29.7962 21.5348 30.01 21.6233 30.1676 21.781C30.3253 21.9386 30.4138 22.1524 30.4138 22.3753V27.1468C30.4138 27.561 30.7496 27.8968 31.1638 27.8968C31.578 27.8968 31.9138 27.561 31.9138 27.1468V22.3753C31.9138 21.7545 31.6672 21.1592 31.2283 20.7203C30.7894 20.2814 30.194 20.0348 29.5733 20.0348C28.9526 20.0348 28.3572 20.2814 27.9183 20.7203C27.4794 21.1592 27.2328 21.7545 27.2328 22.3753V27.1468C27.2328 27.561 27.5686 27.8968 27.9828 27.8968C28.397 27.8968 28.7328 27.561 28.7328 27.1468V22.3753C28.7328 22.1524 28.8213 21.9386 28.979 21.781ZM30.2868 25.512H28.8605V24.012H30.2868V25.512Z" fill="white"/>
</svg>
