<svg width="25" height="25" viewBox="0 0 25 25" fill="none" xmlns="http://www.w3.org/2000/svg">
<g clip-path="url(#clip0_8694_23194)">
<path d="M6.125 15.0557H4.125C3.85978 15.0557 3.60543 14.9503 3.41789 14.7628C3.23036 14.5752 3.125 14.3209 3.125 14.0557V10.0557C3.125 9.79045 3.23036 9.53609 3.41789 9.34856C3.60543 9.16102 3.85978 9.05566 4.125 9.05566H6.125L9.625 4.55566C9.7124 4.38589 9.85765 4.25299 10.0345 4.18096C10.2113 4.10893 10.4081 4.10252 10.5893 4.16291C10.7704 4.22329 10.924 4.34647 11.0222 4.5102C11.1205 4.67393 11.1569 4.86741 11.125 5.05566V19.0557C11.1569 19.2439 11.1205 19.4374 11.0222 19.6011C10.924 19.7649 10.7704 19.888 10.5893 19.9484C10.4081 20.0088 10.2113 20.0024 10.0345 19.9304C9.85765 19.8583 9.7124 19.7254 9.625 19.5557L6.125 15.0557Z" stroke="#4F5E71" stroke-width="1.5" stroke-linecap="round" stroke-linejoin="round"/>
<path d="M16.125 10.0557L20.125 14.0557M20.125 10.0557L16.125 14.0557" stroke="#4F5E71" stroke-width="1.5" stroke-linecap="round" stroke-linejoin="round"/>
</g>
<defs>
<clipPath id="clip0_8694_23194">
<rect width="24" height="24" fill="white" transform="translate(0.125 0.0556641)"/>
</clipPath>
</defs>
</svg>
