<svg width="164" height="160" viewBox="0 0 164 160" fill="none" xmlns="http://www.w3.org/2000/svg">
<path d="M160.575 80.0377C160.575 96.0753 155.832 111.059 147.625 123.558C145.818 126.419 143.86 128.979 141.752 131.539C127.069 148.932 105.084 160 80.6129 160C56.1424 160 34.1565 148.856 19.4741 131.539C17.3659 128.979 15.4082 126.419 13.6012 123.633C11.4929 120.32 9.46 116.781 7.80353 113.092C6.52353 110.155 5.24353 107.144 4.34 103.981C2.75882 99.2377 1.70471 94.4941 1.10235 89.5247C0.876471 88.32 0.801177 87.1153 0.725882 85.76C0.650588 83.8776 0.5 81.8447 0.5 79.8871C0.5 57.5247 9.61059 37.4212 24.3682 22.8894C25.8741 21.3835 27.5306 19.9529 29.1118 18.5224C43.1165 7.07765 61.0365 0 80.6129 0C96.2741 0 110.956 4.51765 123.38 12.3482C123.982 12.6494 124.509 13.0259 125.112 13.4776C125.639 13.8541 126.241 14.1553 126.693 14.6071C129.705 16.7153 132.641 19.0494 135.276 21.6094C136.858 23.1153 138.439 24.6212 139.794 26.2776C141.526 28.2353 143.258 30.1929 144.764 32.3765C145.14 32.9035 145.441 33.3553 145.893 33.8824C146.269 34.4094 146.571 34.8612 147.022 35.3882C151.54 42.0894 155.004 49.4682 157.413 57.2988C157.789 58.7294 158.241 60.0094 158.542 61.44C159.822 67.3129 160.575 73.5624 160.575 80.0377Z" fill="#EAEEF9"/>
<path d="M153.874 123.558V131.539H19.3989C17.2907 128.979 15.3331 126.419 13.526 123.633H153.874V123.558Z" fill="#D5DDEA"/>
<path d="M157.563 62.1176H92.3585V57.9764H156.434C156.961 59.2564 157.262 60.687 157.563 62.1176Z" fill="#D5DDEA"/>
<path d="M145.064 34.4846V58.5034H111.784V14.2305H124.133C124.66 14.6069 125.262 14.9081 125.714 15.3599C128.725 17.4681 131.662 19.8022 134.297 22.3622C135.878 23.8681 137.46 25.374 138.815 27.0305C140.547 28.9881 142.278 30.9458 143.784 33.1293C144.311 33.5058 144.763 34.0328 145.064 34.4846Z" fill="white"/>
<path d="M145.065 34.4848C144.688 33.9578 144.387 33.506 143.935 32.9789V57.4495H112.914V15.2848H125.714C125.187 14.9084 124.735 14.6072 124.133 14.1554C123.606 13.7789 123.003 13.4778 122.401 13.026H110.58V59.4825H145.968V35.9907C145.742 35.5389 145.441 35.0119 145.065 34.4848Z" fill="#D5DDEA"/>
<path d="M138.965 26.9552V50.447H117.808V22.287H134.297C136.029 23.7929 137.535 25.2988 138.965 26.9552Z" fill="#EAEEF9"/>
<path d="M54.5615 122.202C54.5615 122.88 54.0344 123.407 53.432 123.633C53.3567 123.633 53.2062 123.633 53.1309 123.633H13.5262C11.4179 120.32 9.38499 116.781 7.72852 113.092C9.53557 110.08 10.5897 106.842 11.0415 103.981C11.2673 103.002 11.3426 102.099 11.4179 101.12H41.3097C41.385 102.024 41.6109 102.927 41.8368 103.981C42.9662 109.402 45.9026 116.179 52.0767 120.772H53.0556C53.9591 120.772 54.5615 121.45 54.5615 122.202Z" fill="#CAD3E2"/>
<path d="M82.6459 22.0613V100.593C82.6459 102.475 81.14 103.906 79.333 103.906H4.34002C2.83414 99.3884 1.78002 94.6449 1.17767 89.6755C0.951788 88.4707 0.876494 87.266 0.8012 85.9107C0.725906 83.9531 0.575317 81.9954 0.575317 80.0378C0.575317 57.6754 9.68591 37.5719 24.4436 23.0402C25.9494 21.5343 27.6059 20.1037 29.1871 18.6731H79.1824C81.2153 18.6731 82.6459 20.3296 82.6459 22.0613Z" fill="#DEE5EF"/>
<path d="M82.6459 22.0613V89.6755H1.17767C0.951788 88.4707 0.876494 87.266 0.8012 85.9107C0.725906 83.9531 0.575317 81.9954 0.575317 80.0378C0.575317 57.6754 9.68591 37.5719 24.4436 23.0402C25.9494 21.5343 27.6059 20.1037 29.1871 18.6731H79.1824C81.2153 18.6731 82.6459 20.3296 82.6459 22.0613Z" fill="#D5DDEA"/>
<path d="M78.2787 23.0398V85.9857H0.876395C0.801101 84.028 0.650513 82.0704 0.650513 80.1127C0.650513 57.7504 9.7611 37.6469 24.5187 23.1151H78.2787V23.0398Z" fill="white"/>
<path d="M26.0246 99.9151C27.5304 99.9151 28.7351 98.7104 28.7351 97.2045C28.7351 95.6986 27.5304 94.4939 26.0246 94.4939C24.5187 94.4939 23.314 95.6986 23.314 97.2045C23.314 98.7104 24.5187 99.9151 26.0246 99.9151Z" fill="white"/>
<path d="M40.9329 105.186V108.423H38.6741C37.3941 108.423 36.2646 109.553 36.2646 110.833V115.35C36.2646 116.63 37.3941 117.76 38.6741 117.76H40.9329V121.223C40.9329 122.428 41.9117 123.482 43.1917 123.482H53.2058C54.4105 123.482 55.4646 122.503 55.4646 121.223V105.035H40.9329V105.186ZM38.6741 116.103C38.3729 116.103 38.0717 115.802 38.0717 115.501V110.983C38.0717 110.682 38.3729 110.381 38.6741 110.381H40.9329V116.179H38.6741V116.103Z" fill="#989FB0"/>
<path d="M48.3113 86.1362C49.2148 88.3951 49.4407 90.6539 48.0854 92.3856C46.8054 94.1927 45.8266 96.6021 47.1819 98.4845C48.4619 100.292 48.9137 101.722 48.3866 102.626C47.8595 103.529 48.3866 102.55 50.1184 100.593C51.6242 99.0115 48.9137 97.6562 48.8384 96.3762C48.7631 95.1715 50.2689 92.6115 50.2689 90.9551C50.1937 89.148 49.3654 86.8139 48.3113 86.1362Z" fill="white"/>
<path d="M44.5474 96C44.9238 97.1294 45.0744 98.2588 44.4721 99.1624C43.8697 100.066 43.3427 101.271 44.0956 102.174C44.7733 103.078 44.9238 103.755 44.698 104.282C44.4721 104.809 44.698 104.282 45.6015 103.304C46.2791 102.475 44.9991 101.798 44.9238 101.195C44.8486 100.593 45.6015 99.3882 45.6015 98.4847C45.5262 97.5059 45.1497 96.3765 44.5474 96Z" fill="white"/>
<path d="M84.829 107.294C85.6572 105.487 88.4431 102.023 91.3043 100.592C91.6807 100.367 92.1325 100.517 92.2831 100.894C93.1113 102.324 95.1443 105.938 94.3913 109.477C93.4125 113.769 84.829 107.294 84.829 107.294Z" fill="#989FB0"/>
<path d="M81.2905 107.595C81.2905 107.595 77.6764 103.68 75.3423 102.249C74.7399 101.948 74.0623 102.174 73.7611 102.776C71.2011 107.595 71.2011 113.167 71.8035 116.103C72.4811 119.265 77.9023 110.531 77.9023 110.531L81.2905 107.595Z" fill="#989FB0"/>
<path d="M79.6337 108.876C79.6337 108.876 77.3748 106.466 76.0195 105.563C75.6431 105.412 75.1913 105.488 75.0407 105.864C73.5348 108.876 73.4596 112.264 73.9113 114.071C74.3631 116.029 77.676 110.608 77.676 110.608L79.6337 108.876Z" fill="#D5DDEA"/>
<path d="M87.1632 107.52C87.615 106.315 89.422 104.056 91.1538 103.153C91.3797 103.077 91.6056 103.153 91.8314 103.378C92.2832 104.282 93.5632 106.616 93.1114 108.95C92.5091 111.811 87.1632 107.52 87.1632 107.52Z" fill="#D5DDEA"/>
<path d="M157.79 154.127C150.11 150.89 151.239 140.8 151.992 131.464C152.67 131.464 153.272 131.464 153.95 131.464C153.95 128.828 153.95 126.118 153.95 123.483C153.95 123.407 150.411 123.558 150.034 123.558C148.303 123.558 147.399 122.579 145.968 121.977C146.119 122.052 145.592 126.118 145.517 126.57C143.032 137.487 137.987 141.327 142.731 146.372C144.161 147.878 144.839 151.115 141.526 152.546C138.213 153.826 136.255 149.007 135.126 146.673C133.168 142.607 134.825 136.584 136.933 124.235C136.933 124.235 113.517 124.16 106.815 124.235C106.364 126.118 102.599 139.219 102.072 141.93C101.244 145.995 102.599 148.932 102.9 151.115C103.201 153.45 99.286 155.031 96.3496 152.395C92.5849 148.932 96.5755 143.586 97.1025 131.69C97.1025 131.012 97.3284 123.708 96.8766 123.708C89.1213 123.708 81.4413 123.633 73.686 123.784C72.7825 123.784 71.4272 124.16 70.9002 123.332C66.6837 117.158 77.3755 103.228 89.2719 106.842C91.2296 107.445 93.3378 108.725 95.446 108.875C95.446 108.875 96.6507 108.499 102.75 104.057C112.99 98.1837 125.865 98.6354 133.846 100.518C144.613 103.078 146.495 111.737 149.583 115.577C154.025 121.148 158.241 122.579 157.639 136.207C157.413 141.704 157.338 144.64 161.855 147.803C164.867 150.212 162.458 156.085 157.79 154.127Z" fill="white"/>
<path d="M85.9585 122.428C85.1302 122.503 84.0761 122.654 83.0973 122.654C82.7961 122.654 82.4196 122.654 82.1185 122.729C78.8055 122.804 75.6432 122.353 75.1914 119.868C74.8902 117.91 77.6761 115.426 79.182 114.597C84.302 111.736 89.5726 115.953 90.1749 118.513C90.6267 120.696 88.2926 122.051 85.9585 122.428Z" fill="#D5DDEA"/>
<path d="M82.6463 119.718C83.4745 119.718 84.1521 119.416 84.1521 118.965C84.1521 118.513 83.4745 118.212 82.6463 118.212C81.818 118.212 81.1404 118.513 81.1404 118.965C81.1404 119.416 81.818 119.718 82.6463 119.718Z" fill="#989FB0"/>
<path d="M83.3991 119.718V122.654C82.9473 122.654 82.345 122.73 81.8932 122.73V119.793L83.3991 119.718Z" fill="#989FB0"/>
<path d="M102.825 151.116C103.126 153.45 99.2104 155.031 96.274 152.396C93.3375 149.685 96.0481 140.575 96.801 135.756C97.1775 133.196 97.1775 130.109 97.1022 127.699C98.3822 129.28 101.545 133.271 103.803 135.379C103.126 138.015 102.373 140.424 102.072 142.08C101.243 145.92 102.448 148.857 102.825 151.116Z" fill="#D5DDEA"/>
<path d="M142.581 146.447C144.011 147.953 144.689 151.19 141.376 152.621C138.063 153.901 136.105 149.082 134.976 146.748C133.846 144.414 134.072 138.842 134.976 134.325C135.277 132.743 135.654 131.012 135.879 129.506C136.557 129.882 137.31 130.334 137.912 130.786C139.494 131.99 141.075 133.421 142.882 134.4C142.054 136.734 141.376 138.616 140.924 139.52C139.945 142.005 141.15 144.941 142.581 146.447Z" fill="#D5DDEA"/>
<path d="M161.78 153.675C159.522 155.784 155.682 153.374 153.573 150.965C151.465 148.555 151.013 141.026 151.766 134.475C151.842 133.346 151.992 132.367 151.842 131.464H153.874V123.482H147.7C147.625 123.407 147.474 123.256 147.399 123.181C147.474 122.88 147.625 122.503 147.7 122.202C148.227 120.621 147.399 119.04 149.206 115.652C149.733 116.48 150.185 116.932 150.712 117.383C151.691 118.287 152.745 118.965 154.552 121.525C158.091 126.343 157.564 136.508 157.413 140.499C157.338 144.64 160.124 147.2 161.856 147.878C163.362 148.631 163.964 151.567 161.78 153.675Z" fill="#D5DDEA"/>
<path d="M87.9166 110.833H87.8413L85.7331 110.532C85.3566 110.532 85.1307 110.155 85.1307 109.854C85.1307 109.478 85.5072 109.252 85.8084 109.252L87.9166 109.553C88.2931 109.553 88.519 109.93 88.519 110.231C88.519 110.683 88.2178 110.833 87.9166 110.833Z" fill="#AAB2C5"/>
<path d="M77.7518 111.059H77.8271L79.9353 110.758C80.3118 110.758 80.5376 110.381 80.5376 110.08C80.5376 109.704 80.1612 109.478 79.86 109.478L77.7518 109.779C77.3753 109.779 77.1494 110.155 77.1494 110.457C77.3 110.758 77.4506 110.984 77.7518 111.059Z" fill="#AAB2C5"/>
<path d="M94.0645 57.7486L93.4313 54.1153L107.649 51.6375L108.282 55.2708L100.604 68.6538L110.477 66.9331L111.11 70.5664L96.2611 73.1543L95.6279 69.521L103.306 56.1381L94.0645 57.7486Z" fill="#989FB0"/>
<path d="M88.6206 82.8127L89.2807 80.6525L97.6336 83.2049L96.9735 85.3651L89.2666 90.4895L95.0272 92.2498L94.3671 94.41L85.5822 91.7256L86.2423 89.5654L93.9492 84.4409L88.6206 82.8127Z" fill="#989FB0"/>
<path d="M146.645 123.708H153.874V123.633V131.614H144.989" fill="#D5DDEA"/>
</svg>
