<svg width="141" height="135" viewBox="0 0 141 135" fill="none" xmlns="http://www.w3.org/2000/svg">
<path d="M68.2991 119.635C97.3453 119.635 120.894 96.1005 120.894 66.9668C120.894 37.8331 97.2416 14.2981 68.2991 14.2981C39.2528 14.2981 15.7046 37.8331 15.7046 66.9668C15.7046 96.1005 39.2528 119.635 68.2991 119.635Z" fill="#EAEEF9"/>
<path d="M99.2941 14.2981C88.2675 36.0199 72.0821 44.6613 57.2476 49.8216C53.8047 51.0358 50.0581 52.0983 46.514 51.1876C42.9699 50.277 39.8815 46.6849 40.8435 43.1435C41.7042 39.855 45.9571 38.2361 49.0455 39.5515C52.1846 40.8669 53.906 44.5095 53.6022 47.8992C53.2984 51.2888 51.2226 54.2737 48.5898 56.348C45.9064 58.4223 42.7168 59.6871 39.4764 60.6483C32.3376 62.7732 24.895 63.785 17.9587 66.4664C10.9718 69.1478 4.33927 73.954 1.95966 80.9863C0.23824 85.9949 0.947059 91.6612 3.17478 96.4168C5.40249 101.172 9.19974 105.169 13.4527 108.357C19.9839 113.213 28.0341 116.249 36.1349 116.046C44.2357 115.844 52.4377 112.303 57.4501 105.928C62.4624 99.5535 63.9307 90.2952 60.3866 82.9594C57.9564 77.9002 52.4377 73.7516 46.919 74.9658C42.5649 75.9777 39.3752 80.2274 38.9195 84.7301C38.4638 89.2328 40.4384 93.6848 43.3749 97.0239C46.3115 100.414 50.21 102.791 54.2604 104.866C60.1841 107.851 67.171 110.127 73.2972 107.598C79.1197 105.22 82.5119 99.1994 84.7396 93.3813C86.9673 87.5632 88.6381 81.2392 92.6885 76.433C97.549 70.6655 105.751 67.9841 113.092 69.7043C120.434 71.4244 126.611 77.4954 128.433 84.7807C129.851 90.447 128.129 97.5298 122.813 100.009C118.662 101.982 113.548 100.565 109.953 97.7322C106.359 94.899 103.928 90.8517 101.599 86.9055" stroke="#D6DCE8" stroke-width="2" stroke-miterlimit="10" stroke-dasharray="4 4"/>
<path d="M58.4891 38.5122C67.3533 41.5112 76.9716 36.7606 79.9724 27.9014C82.9731 19.0422 78.2198 9.42926 69.3557 6.43023C60.4915 3.4312 50.8732 8.18178 47.8724 17.041C44.8717 25.9001 49.625 35.5131 58.4891 38.5122Z" fill="url(#paint0_linear_1956_53845)"/>
<path d="M79.4987 27.7412C76.5867 36.3386 67.2523 40.9492 58.6495 38.0386C50.0468 35.128 45.434 25.7986 48.3461 17.2012C51.2581 8.60377 60.5925 3.9932 69.1953 6.9038C77.798 9.8144 82.4108 19.1437 79.4987 27.7412Z" stroke="black" stroke-opacity="0.1"/>
<path d="M63.3465 24.1713C64.286 24.4892 65.3055 23.9857 65.6235 23.0467C65.9416 22.1076 65.4378 21.0887 64.4982 20.7709C63.5587 20.453 62.5392 20.9565 62.2212 21.8955C61.9031 22.8345 62.4069 23.8535 63.3465 24.1713Z" fill="#989FB0"/>
<path fill-rule="evenodd" clip-rule="evenodd" d="M64.3281 21.2731C63.6661 21.0491 62.9478 21.4039 62.7237 22.0656C62.4996 22.7272 62.8546 23.4451 63.5166 23.6691C64.1786 23.8931 64.8969 23.5383 65.121 22.8766C65.3451 22.215 64.9901 21.4971 64.3281 21.2731ZM61.7186 21.7255C62.1306 20.5091 63.4513 19.8568 64.6684 20.2686C65.8854 20.6804 66.5381 22.0003 66.1261 23.2167C65.7141 24.4331 64.3934 25.0854 63.1763 24.6736C61.9592 24.2618 61.3066 22.9419 61.7186 21.7255Z" fill="#989FB0"/>
<path d="M66.2578 15.3169L64.6662 20.6194" stroke="#989FB0" stroke-width="2" stroke-miterlimit="10" stroke-linecap="round" stroke-linejoin="round"/>
<path d="M65.8157 22.4799L69.4413 22.7405" stroke="#989FB0" stroke-width="2" stroke-miterlimit="10" stroke-linecap="round" stroke-linejoin="round"/>
<path d="M67.9289 12.4216C68.2053 12.2899 68.3094 11.9459 68.1613 11.6533C68.0132 11.3607 67.669 11.2303 67.3925 11.3621C67.1161 11.4938 67.0121 11.8378 67.1602 12.1304C67.3083 12.423 67.6524 12.5534 67.9289 12.4216Z" fill="#989FB0"/>
<path fill-rule="evenodd" clip-rule="evenodd" d="M67.6405 11.8518C67.6196 11.8618 67.6118 11.8878 67.6229 11.9098C67.6341 11.9319 67.6601 11.9418 67.681 11.9318C67.7018 11.9219 67.7097 11.8959 67.6985 11.8738C67.6873 11.8517 67.6613 11.8419 67.6405 11.8518ZM66.6974 12.3509C66.4124 11.7878 66.6126 11.1259 67.1446 10.8723C67.6767 10.6188 68.339 10.8698 68.624 11.4328C68.9091 11.9959 68.7088 12.6578 68.1768 12.9113C67.6448 13.1648 66.9824 12.9139 66.6974 12.3509Z" fill="#989FB0"/>
<path d="M60.7581 33.5624C61.0345 33.4307 61.1386 33.0867 60.9905 32.7941C60.8424 32.5015 60.4982 32.3711 60.2217 32.5028C59.9453 32.6346 59.8413 32.9786 59.9894 33.2712C60.1375 33.5638 60.4816 33.6942 60.7581 33.5624Z" fill="#989FB0"/>
<path fill-rule="evenodd" clip-rule="evenodd" d="M60.4697 32.9926C60.4488 33.0026 60.4409 33.0285 60.4521 33.0506C60.4633 33.0727 60.4893 33.0825 60.5101 33.0726C60.531 33.0627 60.5389 33.0367 60.5277 33.0146C60.5165 32.9925 60.4905 32.9827 60.4697 32.9926ZM59.5266 33.4916C59.2416 32.9286 59.4418 32.2666 59.9738 32.0131C60.5058 31.7596 61.1682 32.0105 61.4532 32.5736C61.7382 33.1366 61.538 33.7986 61.006 34.0521C60.474 34.3056 59.8116 34.0547 59.5266 33.4916Z" fill="#989FB0"/>
<path d="M53.7581 19.4343C54.0346 19.3025 54.1386 18.9586 53.9905 18.666C53.8424 18.3734 53.4983 18.243 53.2218 18.3747C52.9454 18.5065 52.8413 18.8505 52.9894 19.143C53.1375 19.4356 53.4817 19.566 53.7581 19.4343Z" fill="#989FB0"/>
<path fill-rule="evenodd" clip-rule="evenodd" d="M53.4697 18.8645C53.4489 18.8745 53.441 18.9004 53.4522 18.9225C53.4634 18.9446 53.4893 18.9545 53.5102 18.9445C53.5311 18.9346 53.5389 18.9086 53.5277 18.8865C53.5166 18.8644 53.4906 18.8546 53.4697 18.8645ZM52.5266 19.3636C52.2416 18.8005 52.4419 18.1386 52.9739 17.885C53.5059 17.6315 54.1683 17.8824 54.4533 18.4455C54.7383 19.0085 54.5381 19.6705 54.006 19.924C53.474 20.1775 52.8117 19.9266 52.5266 19.3636Z" fill="#989FB0"/>
<path d="M74.911 26.601C75.1875 26.4693 75.2915 26.1253 75.1434 25.8327C74.9953 25.5401 74.6511 25.4097 74.3747 25.5415C74.0982 25.6732 73.9942 26.0172 74.1423 26.3098C74.2904 26.6024 74.6346 26.7328 74.911 26.601Z" fill="#989FB0"/>
<path fill-rule="evenodd" clip-rule="evenodd" d="M74.6226 26.0314C74.6018 26.0413 74.5939 26.0673 74.6051 26.0894C74.6163 26.1115 74.6423 26.1213 74.6631 26.1114C74.684 26.1014 74.6918 26.0755 74.6807 26.0534C74.6695 26.0313 74.6435 26.0214 74.6226 26.0314ZM73.6796 26.5305C73.3945 25.9674 73.5948 25.3053 74.1268 25.0518C74.6588 24.7983 75.3212 25.0492 75.6062 25.6123C75.8912 26.1754 75.691 26.8374 75.159 27.091C74.6269 27.3445 73.9646 27.0936 73.6796 26.5305Z" fill="#989FB0"/>
<path d="M12.9911 43.5243L15.7945 42.6798C15.9976 42.6209 15.9976 42.3263 15.7945 42.2674L12.9911 41.4229C12.919 41.4032 12.8666 41.3509 12.847 41.2789L12.002 38.4835C11.9431 38.2806 11.6483 38.2806 11.5894 38.4835L10.7444 41.2789C10.7248 41.3509 10.6724 41.4032 10.6003 41.4229L7.80342 42.2674C7.60037 42.3263 7.60037 42.6209 7.80342 42.6798L10.6069 43.5243C10.6789 43.5439 10.7313 43.5963 10.751 43.6683L11.5959 46.4702C11.6549 46.6731 11.9496 46.6731 12.0086 46.4702L12.8535 43.6683C12.8666 43.5963 12.919 43.5439 12.9911 43.5243Z" fill="#EAEEF9"/>
<path d="M102.394 10.7282L105.261 11.3225C105.468 11.3675 105.608 11.1086 105.458 10.96L103.397 8.8813C103.343 8.82969 103.322 8.75868 103.339 8.68602L103.931 5.82639C103.976 5.61992 103.717 5.4794 103.568 5.62966L101.491 7.68368C101.44 7.7376 101.369 7.75865 101.296 7.74157L98.4347 7.15046C98.2281 7.10545 98.0875 7.36436 98.2378 7.51294L100.299 9.59162C100.353 9.64323 100.374 9.71424 100.357 9.7869L99.7621 12.6523C99.7171 12.8588 99.9761 12.9993 100.125 12.849L102.205 10.7892C102.251 10.7322 102.322 10.7111 102.394 10.7282Z" fill="#EAEEF9"/>
<path d="M100.632 81.6126L102.823 79.6707C102.982 79.5321 102.859 79.2647 102.65 79.2963L99.7505 79.7051C99.6769 79.7175 99.6073 79.6919 99.5592 79.6348L97.619 77.4517C97.4804 77.2922 97.2128 77.4157 97.2445 77.6247L97.6506 80.5163C97.663 80.5899 97.6374 80.6594 97.5802 80.7074L95.3958 82.6466C95.2362 82.7852 95.3598 83.0526 95.5689 83.0209L98.4681 82.6121C98.5418 82.5998 98.6113 82.6253 98.6594 82.6825L100.602 84.8715C100.741 85.031 101.009 84.9074 100.977 84.6985L100.568 81.801C100.55 81.7301 100.575 81.6606 100.632 81.6126Z" fill="#D6DCE8"/>
<path d="M78.3245 61.7947L80.7775 61.0559C80.9552 61.0043 80.9552 60.7466 80.7775 60.695L78.3245 59.9561C78.2614 59.9389 78.2156 59.8931 78.1984 59.8301L77.4591 57.3844C77.4075 57.2068 77.1496 57.2068 77.098 57.3844L76.3586 59.8301C76.3414 59.8931 76.2956 59.9389 76.2326 59.9561L73.7853 60.695C73.6076 60.7466 73.6076 61.0043 73.7853 61.0559L76.2383 61.7947C76.3013 61.8119 76.3472 61.8578 76.3644 61.9208L77.1037 64.3722C77.1553 64.5498 77.4132 64.5498 77.4648 64.3722L78.2041 61.9208C78.2156 61.8578 78.2614 61.8119 78.3245 61.7947Z" fill="#D6DCE8"/>
<path d="M31.2541 96.193L33.7071 95.3485C33.8847 95.2896 33.8847 94.995 33.7071 94.9361L31.2541 94.0916C31.191 94.0719 31.1452 94.0196 31.128 93.9475L30.3886 91.1522C30.3371 90.9493 30.0792 90.9493 30.0276 91.1522L29.2882 93.9475C29.271 94.0196 29.2252 94.0719 29.1621 94.0916L26.7149 94.9361C26.5372 94.995 26.5372 95.2896 26.7149 95.3485L29.1679 96.193C29.2309 96.2126 29.2768 96.265 29.294 96.337L30.0333 99.1388C30.0849 99.3418 30.3428 99.3418 30.3944 99.1388L31.1337 96.337C31.1452 96.265 31.191 96.2126 31.2541 96.193Z" fill="#D6DCE8"/>
<path d="M27.2011 54.7378L28.9533 54.2101C29.0802 54.1732 29.0802 53.9891 28.9533 53.9523L27.2011 53.4245C27.1561 53.4123 27.1234 53.3795 27.1111 53.3345L26.583 51.5876C26.5461 51.4608 26.3619 51.4608 26.3251 51.5876L25.797 53.3345C25.7847 53.3795 25.7519 53.4123 25.7069 53.4245L23.9589 53.9523C23.832 53.9891 23.832 54.1732 23.9589 54.2101L25.711 54.7378C25.756 54.7501 25.7888 54.7828 25.8011 54.8278L26.3292 56.5788C26.366 56.7057 26.5502 56.7057 26.5871 56.5788L27.1152 54.8278C27.1234 54.7828 27.1561 54.7501 27.2011 54.7378Z" fill="#D6DCE8"/>
<path d="M128.153 55.8944L129.905 55.3666C130.032 55.3298 130.032 55.1457 129.905 55.1089L128.153 54.5811C128.108 54.5689 128.075 54.5361 128.063 54.4911L127.535 52.7442C127.498 52.6174 127.314 52.6174 127.277 52.7442L126.749 54.4911C126.736 54.5361 126.704 54.5689 126.659 54.5811L124.91 55.1089C124.784 55.1457 124.784 55.3298 124.91 55.3666L126.663 55.8944C126.708 55.9067 126.74 55.9394 126.753 55.9844L127.281 57.7354C127.318 57.8623 127.502 57.8623 127.539 57.7354L128.067 55.9844C128.075 55.9394 128.108 55.9067 128.153 55.8944Z" fill="#EAEEF9"/>
<path d="M40.1519 30.327L41.9041 29.7993C42.031 29.7625 42.031 29.5784 41.9041 29.5415L40.1519 29.0138C40.1069 29.0015 40.0742 28.9688 40.0619 28.9238L39.5338 27.1768C39.4969 27.05 39.3127 27.05 39.2759 27.1768L38.7478 28.9238C38.7355 28.9688 38.7027 29.0015 38.6577 29.0138L36.9097 29.5415C36.7828 29.5784 36.7828 29.7625 36.9097 29.7993L38.6618 30.327C38.7068 30.3393 38.7396 30.3721 38.7519 30.4171L39.28 32.1681C39.3168 32.2949 39.501 32.2949 39.5379 32.1681L40.066 30.4171C40.0742 30.3721 40.1069 30.3393 40.1519 30.327Z" fill="#D6DCE8"/>
<path d="M14.0587 89.1319L15.8108 88.6041C15.9377 88.5673 15.9377 88.3832 15.8108 88.3464L14.0587 87.8186C14.0137 87.8063 13.9809 87.7736 13.9686 87.7286L13.4405 85.9817C13.4037 85.8549 13.2195 85.8549 13.1826 85.9817L12.6545 87.7286C12.6422 87.7736 12.6095 87.8063 12.5645 87.8186L10.8164 88.3464C10.6895 88.3832 10.6895 88.5673 10.8164 88.6041L12.5686 89.1319C12.6136 89.1442 12.6463 89.1769 12.6586 89.2219L13.1867 90.9729C13.2236 91.0997 13.4078 91.0997 13.4446 90.9729L13.9727 89.2219C13.9809 89.1769 14.0137 89.1442 14.0587 89.1319Z" fill="#EAEEF9"/>
<path d="M79.0287 109.752C79.0287 109.752 68.2966 119.697 67.5758 119.749C67.0988 119.932 62.8768 121.682 60.1873 122.811L59.4755 121.797C59.1197 121.29 58.7638 120.783 58.4382 120.103C58.5699 119.859 58.6305 119.514 58.6911 119.169C60.0676 114.876 64.3455 108.245 73.362 108.581L79.0287 109.752Z" fill="#F1F3F9" stroke="#D6DCE8" stroke-width="1.9781" stroke-miterlimit="10" stroke-linecap="round" stroke-linejoin="round"/>
<path d="M62.2174 62.0756L65.705 67.0443C66.7015 68.464 67.3829 69.6506 67.9024 71.2533C69.8469 76.3962 69.1216 82.0491 66.4458 86.6487C65.9491 87.4508 65.6962 88.3847 65.8188 89.2065C65.8401 90.0995 66.1051 91.1241 66.6745 91.9353C67.8133 93.5578 69.7229 94.3372 71.6416 94.0511C77.8034 92.9084 84.141 94.8198 88.4812 99.4935C89.0097 100.031 89.4368 100.639 89.935 101.349L93.4226 106.318C93.8496 106.926 94.1752 107.606 94.5311 108.113L64.7017 129.027C64.2444 128.591 63.7462 127.881 63.3903 127.374L59.9027 122.405C59.5468 121.898 59.2924 121.32 58.9365 120.813C58.7942 120.61 58.6821 120.235 58.4686 119.931C55.7215 114.291 56.05 107.857 59.1922 102.628C60.1856 101.024 60.0311 98.8627 58.8923 97.2402C58.3941 96.5304 57.6218 95.8615 56.7889 95.5376C56.7177 95.4362 56.6162 95.5073 56.6162 95.5073C55.7833 95.1834 54.8899 95.2046 53.9964 95.2258C49.8547 96.0114 45.61 95.3561 41.7801 93.3507C40.8049 92.8241 39.8297 92.2974 38.9862 91.527C38.7423 91.3953 38.5288 91.0911 38.3865 90.8883C37.4718 90.0166 36.4859 89.0434 35.703 87.928L32.2154 82.9592C32.1442 82.8578 32.0019 82.655 31.8595 82.4522L61.8918 61.396C62.0039 61.7713 62.075 61.8727 62.2174 62.0756Z" fill="url(#paint1_linear_1956_53845)"/>
<path d="M59.9236 82.7485L48.0739 91.9643L41.9529 93.381C40.9777 92.8543 40.0025 92.3276 39.159 91.5573C38.9151 91.4256 38.7016 91.1214 38.5593 90.9186C41.8332 85.4457 44.8452 81.9722 53.6057 80.218C55.0776 79.9425 56.4481 79.7382 58.0927 79.4929C72.7319 77.7023 59.9236 82.7485 59.9236 82.7485Z" fill="#BAC3D1"/>
<path d="M67.9735 71.3547C69.918 76.4976 69.1927 82.1505 66.5169 86.7501C66.0202 87.5522 65.7673 88.486 65.89 89.3079L65.7885 89.379C64.1652 90.5172 63.7412 92.9327 64.88 94.5552L75.4851 109.664L72.5428 111.727L61.8665 96.5167C60.7276 94.8943 58.4122 94.3994 56.6874 95.6087C55.8545 95.2848 54.961 95.306 54.0676 95.3272C49.9258 96.1128 45.6811 95.4575 41.8513 93.4521C40.876 92.9254 39.9008 92.3988 39.0573 91.6284C48.0919 89.8333 51.1326 84.6752 53.4737 80.4616C54.2339 79.1721 54.8927 77.9537 55.6226 76.8368C58.5119 72.5414 62.7748 71.0657 67.9735 71.3547Z" fill="#D5DDEA"/>
<path d="M89.8332 101.42L93.3208 106.389C93.7478 106.997 94.0734 107.677 94.4293 108.184L67.8467 126.821L62.9629 126.765L59.8312 122.304C59.4753 121.797 59.1194 121.29 58.865 120.712C58.7227 120.509 58.6106 120.133 58.3971 119.829C58.4985 119.758 58.5697 119.859 58.6712 119.788C58.8438 119.819 58.9453 119.747 59.0467 119.676C68.9339 117.586 71.5778 111.647 74.081 107.017C74.4762 106.286 74.9729 105.484 75.4394 104.854C78.5013 100.589 82.9368 99.1439 88.3082 99.4632C88.8064 100.173 89.335 100.71 89.8332 101.42Z" fill="#D5DDEA"/>
<path d="M64.6546 61.8798L31.3756 85.2123C30.6654 85.7102 29.6295 85.5286 29.2025 84.9202L26.9249 81.6753C26.4266 80.9654 26.6795 80.0316 27.3898 79.5337L60.7702 56.13C61.4805 55.6321 62.4451 55.7123 62.9433 56.4221L65.1498 59.5656C65.4451 60.4177 65.3648 61.3818 64.6546 61.8798Z" fill="url(#paint2_linear_1956_53845)"/>
<path d="M98.2487 109.743L64.9696 133.075C64.2594 133.573 63.2948 133.493 62.7966 132.783L60.5901 129.64C60.0919 128.93 60.3448 127.996 61.055 127.498L94.4355 104.094C95.1457 103.596 96.1103 103.677 96.6086 104.387L98.815 107.53C99.1103 108.382 98.9589 109.245 98.2487 109.743Z" fill="url(#paint3_linear_1956_53845)"/>
<path d="M99.5063 58.013C99.5063 58.013 92.2586 55.3075 92.0631 54.9794C91.8633 54.7977 90.0342 53.2199 88.8622 52.2183L89.1725 51.6416C89.3276 51.3533 89.4828 51.0649 89.7266 50.7499C89.8731 50.7542 90.0505 50.7009 90.228 50.6476C92.584 50.2781 96.7332 50.7237 98.7148 55.0598L99.5063 58.013Z" fill="#F1F3F9" stroke="#D6DCE8" stroke-width="1.9781" stroke-miterlimit="10" stroke-linecap="round" stroke-linejoin="round"/>
<g filter="url(#filter0_d_1956_53845)">
<path d="M118.048 38.7593L116.527 41.5852C116.093 42.3926 115.694 42.996 115.06 43.6216C113.091 45.7604 110.247 46.7599 107.438 46.5886C106.941 46.5445 106.44 46.6468 106.08 46.8998C105.663 47.1218 105.242 47.4901 104.994 47.9515C104.497 48.8742 104.582 49.9607 105.173 50.7985C107.176 53.4361 107.777 56.8817 106.598 60.04C106.47 60.417 106.284 60.763 106.066 61.1667L104.546 63.9926C104.36 64.3386 104.116 64.6536 103.961 64.942L86.9961 55.8249C87.0935 55.5055 87.3107 55.1018 87.4658 54.8135L88.9862 51.9876C89.1414 51.6993 89.3542 51.4419 89.5093 51.1535C89.5714 51.0382 89.7222 50.8962 89.8153 50.7232C91.8283 48.0877 94.9469 46.7155 98.1642 46.9576C99.1582 47.0457 100.143 46.4597 100.639 45.537C100.857 45.1333 100.989 44.6099 100.945 44.1398C100.976 44.0822 100.918 44.0512 100.918 44.0512C100.873 43.5811 100.651 43.1643 100.429 42.7476C99.0748 40.9789 98.3769 38.8195 98.4155 36.5355C98.4329 35.9501 98.4503 35.3647 98.6141 34.7836C98.6185 34.6373 98.7116 34.4643 98.7736 34.3489C98.9685 33.7102 99.1944 33.0138 99.5357 32.3794L101.056 29.5535C101.087 29.4959 101.149 29.3805 101.211 29.2652L118.291 38.4443C118.141 38.5863 118.11 38.644 118.048 38.7593Z" fill="url(#paint4_linear_1956_53845)"/>
</g>
<path d="M107.733 42.5837L100.565 39.1775L98.4423 36.6242C98.4597 36.0388 98.4771 35.4534 98.641 34.8724C98.6453 34.726 98.7384 34.553 98.8005 34.4377C102.164 34.6841 104.521 35.2814 107.429 39.0005C107.909 39.63 108.331 40.2285 108.837 40.9466C113.158 47.4323 107.733 42.5837 107.733 42.5837Z" fill="#BAC3D1"/>
<path d="M115.029 43.6793C113.06 45.8181 110.216 46.8176 107.407 46.6462C106.91 46.6022 106.409 46.7045 106.049 46.9575L105.992 46.9264C105.068 46.4303 103.826 46.8035 103.33 47.7263L98.7066 56.3193L97.0332 55.42L101.687 46.7693C102.184 45.8466 101.868 44.636 100.887 44.1088C100.842 43.6388 100.62 43.222 100.398 42.8053C99.0438 41.0366 98.3459 38.8772 98.3845 36.5932C98.4019 36.0078 98.4194 35.4224 98.5832 34.8413C101.576 38.6802 104.736 38.8912 107.283 38.9962C108.073 39.0489 108.805 39.0707 109.506 39.1501C112.222 39.4944 113.931 41.1565 115.029 43.6793Z" fill="#D5DDEA"/>
<path d="M106.009 61.1357L104.489 63.9616C104.303 64.3076 104.059 64.6226 103.904 64.911L88.7852 56.7862L87.6524 54.4675L89.0176 51.9299C89.1727 51.6416 89.3279 51.3532 89.5407 51.0959C89.6028 50.9805 89.7536 50.8385 89.8467 50.6655C89.9044 50.6965 89.8733 50.7542 89.931 50.7852C89.9577 50.8739 90.0154 50.9049 90.0731 50.9359C93.408 55.1072 96.8424 54.9455 99.6246 55.0282C100.064 55.0412 100.561 55.0853 100.969 55.156C103.712 55.589 105.448 57.3398 106.572 59.9513C106.355 60.355 106.226 60.732 106.009 61.1357Z" fill="#D5DDEA"/>
<path d="M118.718 39.8632L99.7914 29.6918C99.3875 29.4747 99.2274 28.9426 99.4136 28.5966L100.406 26.7511C100.624 26.3474 101.125 26.2451 101.529 26.4622L120.513 36.6646C120.917 36.8817 121.108 37.3561 120.891 37.7598L119.929 39.5476C119.597 39.8893 119.122 40.0803 118.718 39.8632Z" fill="url(#paint5_linear_1956_53845)"/>
<path d="M104.073 67.0839L85.1465 56.9125C84.7426 56.6954 84.5515 56.221 84.7687 55.8173L85.7306 54.0295C85.9478 53.6258 86.4491 53.5235 86.8531 53.7406L105.838 63.943C106.241 64.1601 106.433 64.6345 106.215 65.0382L105.253 66.826C104.921 67.1677 104.477 67.301 104.073 67.0839Z" fill="url(#paint6_linear_1956_53845)"/>
<defs>
<filter id="filter0_d_1956_53845" x="64.9961" y="18.2652" width="75.2953" height="79.6768" filterUnits="userSpaceOnUse" color-interpolation-filters="sRGB">
<feFlood flood-opacity="0" result="BackgroundImageFix"/>
<feColorMatrix in="SourceAlpha" type="matrix" values="0 0 0 0 0 0 0 0 0 0 0 0 0 0 0 0 0 0 127 0" result="hardAlpha"/>
<feOffset dy="11"/>
<feGaussianBlur stdDeviation="11"/>
<feColorMatrix type="matrix" values="0 0 0 0 0.397708 0 0 0 0 0.47749 0 0 0 0 0.575 0 0 0 0.27 0"/>
<feBlend mode="normal" in2="BackgroundImageFix" result="effect1_dropShadow_1956_53845"/>
<feBlend mode="normal" in="SourceGraphic" in2="effect1_dropShadow_1956_53845" result="shape"/>
</filter>
<linearGradient id="paint0_linear_1956_53845" x1="69.5966" y1="5.6846" x2="58.3728" y2="38.8583" gradientUnits="userSpaceOnUse">
<stop stop-color="#FDFEFF"/>
<stop offset="0.9964" stop-color="#ECF0F5"/>
</linearGradient>
<linearGradient id="paint1_linear_1956_53845" x1="46.1086" y1="70.852" x2="79.9342" y2="119.097" gradientUnits="userSpaceOnUse">
<stop stop-color="#FDFEFF"/>
<stop offset="0.9964" stop-color="#ECF0F5"/>
</linearGradient>
<linearGradient id="paint2_linear_1956_53845" x1="28.0476" y1="83.3099" x2="64.0758" y2="58.0216" gradientUnits="userSpaceOnUse">
<stop stop-color="#B0BACC"/>
<stop offset="1" stop-color="#969EAE"/>
</linearGradient>
<linearGradient id="paint3_linear_1956_53845" x1="61.6773" y1="131.224" x2="97.7054" y2="105.935" gradientUnits="userSpaceOnUse">
<stop stop-color="#B0BACC"/>
<stop offset="1" stop-color="#969EAE"/>
</linearGradient>
<linearGradient id="paint4_linear_1956_53845" x1="110.076" y1="33.2381" x2="95.3319" y2="60.6734" gradientUnits="userSpaceOnUse">
<stop stop-color="#FDFEFF"/>
<stop offset="0.9964" stop-color="#ECF0F5"/>
</linearGradient>
<linearGradient id="paint5_linear_1956_53845" x1="99.9005" y1="27.6692" x2="120.393" y2="38.6945" gradientUnits="userSpaceOnUse">
<stop stop-color="#B0BACC"/>
<stop offset="1" stop-color="#969EAE"/>
</linearGradient>
<linearGradient id="paint6_linear_1956_53845" x1="85.2401" y1="54.9187" x2="105.733" y2="65.9441" gradientUnits="userSpaceOnUse">
<stop stop-color="#B0BACC"/>
<stop offset="1" stop-color="#969EAE"/>
</linearGradient>
</defs>
</svg>
