<svg width="256" height="191" viewBox="0 0 256 191" fill="none" xmlns="http://www.w3.org/2000/svg">
<path d="M132.459 190.355C184.919 190.355 227.449 147.825 227.449 95.1777C227.449 42.5302 184.732 0 132.459 0C79.9989 0 37.4688 42.5302 37.4688 95.1777C37.4688 147.825 79.9989 190.355 132.459 190.355Z" fill="#EAEEF9"/>
<path d="M239.508 65.0215C243.75 65.0215 247.19 61.5823 247.19 57.3399C247.19 53.0974 243.75 49.6582 239.508 49.6582C235.265 49.6582 231.826 53.0974 231.826 57.3399C231.826 61.5823 235.265 65.0215 239.508 65.0215Z" fill="#F1F3F9"/>
<path d="M250.752 35.0467C253.649 35.0467 255.998 32.698 255.998 29.8007C255.998 26.9034 253.649 24.5547 250.752 24.5547C247.855 24.5547 245.506 26.9034 245.506 29.8007C245.506 32.698 247.855 35.0467 250.752 35.0467Z" fill="#F1F3F9"/>
<path d="M41.7812 32.7889C44.6785 32.7889 47.0272 30.4402 47.0272 27.5429C47.0272 24.6456 44.6785 22.2969 41.7812 22.2969C38.8839 22.2969 36.5352 24.6456 36.5352 27.5429C36.5352 30.4402 38.8839 32.7889 41.7812 32.7889Z" fill="#EAEEF9"/>
<path d="M9.7426 133.961C15.1233 133.961 19.4852 129.599 19.4852 124.218C19.4852 118.838 15.1233 114.476 9.7426 114.476C4.36191 114.476 0 118.838 0 124.218C0 129.599 4.36191 133.961 9.7426 133.961Z" fill="#EAEEF9"/>
<path d="M151.753 121.002V157.043C151.753 160.177 149.93 163.311 147.324 164.878L119.711 180.809C118.148 181.853 116.064 182.375 114.24 182.375V137.456L150.451 116.562C151.232 117.868 151.753 119.435 151.753 121.002Z" fill="#F2F5FE"/>
<path d="M114.241 137.456V182.375C112.418 182.375 110.594 181.853 108.771 180.809L81.1571 164.878C78.2916 163.311 76.7285 160.438 76.7285 157.043V121.002C76.7285 119.435 77.2495 117.868 78.031 116.562L114.241 137.456Z" fill="#D5DDEA"/>
<path d="M150.449 116.562L114.238 137.455L77.7676 116.301C78.5491 114.995 79.5911 113.689 81.1542 112.906L109.549 96.4523C112.154 94.8853 115.541 94.8853 118.406 96.1911L147.583 113.167C147.583 113.167 147.583 113.167 147.844 113.167C148.886 114.211 149.928 115.256 150.449 116.562Z" fill="white"/>
<path d="M226.782 121.002V157.043C226.782 160.177 224.959 163.311 222.354 164.878L194.74 180.809C193.177 181.853 191.093 182.375 189.27 182.375V137.456L225.48 116.562C226.261 117.868 226.782 119.435 226.782 121.002Z" fill="#F2F5FE"/>
<path d="M189.271 137.456V182.375C187.447 182.375 185.624 181.853 183.8 180.809L156.186 164.878C153.321 163.311 151.758 160.438 151.758 157.043V121.002C151.758 119.435 152.279 117.868 153.06 116.562L189.271 137.456Z" fill="#D5DDEA"/>
<path d="M225.478 116.562L189.268 137.455L152.797 116.301C153.578 114.995 154.62 113.689 156.183 112.906L184.579 96.4523C187.184 94.8853 190.57 94.8853 193.436 96.1911L222.612 113.167C222.612 113.167 222.612 113.167 222.873 113.167C223.915 114.211 224.957 115.256 225.478 116.562Z" fill="white"/>
<path d="M113.978 52.8382V88.8786C113.978 92.0126 112.154 95.1465 109.549 96.7135L81.9355 112.644C80.3724 113.689 78.2884 114.211 76.4648 114.211V69.2914L112.675 48.3984C113.717 49.7043 113.978 51.2712 113.978 52.8382Z" fill="#F2F5FE"/>
<path d="M76.4659 69.2914V114.211C74.6424 114.211 72.8189 113.689 70.9953 112.644L43.3817 96.7135C40.5162 95.1465 38.9531 92.2738 38.9531 88.8786V52.8382C38.9531 51.2712 39.4741 49.7043 40.2557 48.3984L76.4659 69.2914Z" fill="#D5DDEA"/>
<path d="M112.939 48.3978L76.7286 69.2908L40.2578 48.1366C41.0393 46.8308 42.0814 45.525 43.6444 44.7415L72.0395 28.2882C74.6446 26.7213 78.0311 26.7213 80.8967 28.0271L109.813 45.2638C109.813 45.2638 109.813 45.2638 110.073 45.2638C111.115 46.0473 112.157 47.0919 112.939 48.3978Z" fill="white"/>
<path d="M193.954 52.0514V92.2704C193.954 95.9267 192.13 99.3218 188.744 101.15L157.744 119.17C155.92 120.215 153.836 120.737 151.752 120.737V70.3328L192.651 46.8281C193.433 48.3951 193.954 50.2232 193.954 52.0514Z" fill="#F2F5FE"/>
<path d="M151.753 70.3322V102.194V120.737C149.669 120.737 147.585 120.214 145.762 119.17L132.216 111.335L114.501 101.149C111.375 99.3213 109.552 95.9261 109.291 92.531V51.7897C109.291 49.9615 109.812 48.1334 110.594 46.5664L151.753 70.3322Z" fill="#D5DDEA"/>
<path d="M192.394 46.8285L151.495 70.3331L110.596 46.5674C111.377 45.0004 112.68 43.6946 114.243 42.9111L146.024 24.3685C149.151 22.5404 152.798 22.5404 155.924 24.1074L188.747 43.1722C188.747 43.1722 189.008 43.1722 189.008 43.4334C190.571 44.478 191.613 45.5227 192.394 46.8285Z" fill="white"/>
<path d="M131 64.0007C121.187 64.0007 111.776 67.8987 104.837 74.8374C97.8978 81.776 94 91.1876 94 101C94 110.814 97.8981 120.224 104.837 127.163C111.775 134.102 121.187 138 131 138C140.814 138 150.224 134.102 157.163 127.163C164.102 120.224 168 110.813 168 101C167.991 91.1907 164.09 81.7846 157.153 74.8469C150.215 67.9102 140.81 64.0093 130.999 64L131 64.0007ZM131 67.524C139.286 67.5696 147.255 70.7115 153.341 76.3339L106.334 123.341C100.527 116.923 97.4385 108.502 97.7173 99.851C97.9964 91.2012 101.623 82.9968 107.83 76.967C114.039 70.9363 122.345 67.5518 131 67.524ZM131 134.478C122.739 134.48 114.772 131.402 108.659 125.844L155.842 78.6606C161.663 85.0942 164.752 93.5393 164.457 102.209C164.161 110.879 160.505 119.095 154.261 125.117C148.016 131.139 139.674 134.496 130.999 134.478L131 134.478Z" fill="#A0A9BA"/>
</svg>
