<svg width="144" height="160" viewBox="0 0 144 160" fill="none" xmlns="http://www.w3.org/2000/svg">
<g filter="url(#filter0_d_19267_7313)">
<path d="M114 18.7475V111.252C114 113.323 112.314 115 110.231 115H33.7686C31.686 115 30 113.323 30 111.252V18.7475C30 16.6765 31.686 15 33.7686 15H110.231C112.314 15 114 16.6765 114 18.7475Z" fill="url(#paint0_linear_19267_7313)"/>
</g>
<path d="M114 18.6944V27.4444H30V18.6944C30 16.6528 31.686 15 33.7686 15H110.231C112.314 15 114 16.6528 114 18.6944Z" fill="#D5DDEA"/>
<path d="M35.5547 23.4434C36.6593 23.4434 37.5547 22.5479 37.5547 21.4434C37.5547 20.3388 36.6593 19.4434 35.5547 19.4434C34.4501 19.4434 33.5547 20.3388 33.5547 21.4434C33.5547 22.5479 34.4501 23.4434 35.5547 23.4434Z" fill="#A5AEBF"/>
<path d="M41.7773 23.4434C42.8819 23.4434 43.7773 22.5479 43.7773 21.4434C43.7773 20.3388 42.8819 19.4434 41.7773 19.4434C40.6728 19.4434 39.7773 20.3388 39.7773 21.4434C39.7773 22.5479 40.6728 23.4434 41.7773 23.4434Z" fill="#A5AEBF"/>
<path d="M48 23.4434C49.1046 23.4434 50 22.5479 50 21.4434C50 20.3388 49.1046 19.4434 48 19.4434C46.8954 19.4434 46 20.3388 46 21.4434C46 22.5479 46.8954 23.4434 48 23.4434Z" fill="#A5AEBF"/>
<path opacity="0.7" d="M83.4974 68.3387L79.4405 66.3597C77.6594 68.4376 74.9878 69.7239 72.1183 69.7239C66.7751 69.7239 62.4213 65.3702 62.4213 60.027C62.4213 59.3343 62.5203 58.7406 62.6192 58.048L58.5623 56.069L49.8548 51.8142C48.8654 54.5848 48.2717 57.6522 48.4696 60.9175C48.9643 73.2861 59.0571 83.2799 71.3267 83.6757C80.1331 83.9726 87.9501 79.4209 92.2049 72.5935L83.4974 68.3387ZM72.0193 36.2793C63.5098 36.2793 55.9897 40.732 51.8338 47.5594L60.5413 51.8142L64.5982 53.7932C66.1814 52.0121 68.3582 50.7258 70.832 50.429L71.4256 45.9763L72.613 36.3782C72.4151 36.2793 72.2172 36.2793 72.0193 36.2793ZM77.3626 36.873L76.1752 46.471L75.5815 50.9237C79.1436 52.309 81.7163 55.8711 81.7163 59.928C81.7163 60.6207 81.6174 61.3133 81.5184 61.907L85.5753 63.886L94.2828 68.1408C95.2723 65.5681 95.767 62.7975 95.767 59.928V59.8291C95.6681 48.7468 87.8511 39.3467 77.3626 36.873Z" fill="#D6DCE8"/>
<path d="M72.0195 36.2793C63.5099 36.2793 55.9898 40.732 51.834 47.5594L60.5415 51.8142L64.5984 53.7932C66.1815 52.0121 68.3584 50.7258 70.8321 50.429L71.4258 45.9763L72.6132 36.3782C72.4153 36.2793 72.2174 36.2793 72.0195 36.2793Z" fill="#F1F3F9"/>
<path d="M77.3631 36.873L76.1757 46.4711L75.582 50.9238C79.1442 52.309 81.7168 55.8712 81.7168 59.9281C81.7168 60.6207 81.6179 61.3134 81.5189 61.9071L85.5758 63.886L94.2833 68.1408C95.2728 65.5682 95.7675 62.7976 95.7675 59.9281V59.8291C95.6686 48.7469 87.8517 39.3468 77.3631 36.873Z" fill="#AAB2C5"/>
<path opacity="0.1" d="M64.5979 53.7935L60.541 51.8145C63.0147 48.4503 66.8737 46.1745 71.3264 45.9766L70.7327 50.4293C68.358 50.7261 66.1811 51.9135 64.5979 53.7935Z" fill="#434E67"/>
<path opacity="0.1" d="M79.4399 66.359L83.4968 68.338C80.9242 71.9001 76.7683 74.176 72.0188 74.176C64.2019 74.176 57.8691 67.8432 57.8691 60.0263C57.8691 58.641 58.067 57.3547 58.4628 56.0684L62.5197 58.0473C62.4208 58.641 62.3218 59.3337 62.3218 60.0263C62.3218 65.3695 66.6756 69.7233 72.0188 69.7233C74.9873 69.7233 77.6589 68.4369 79.4399 66.359Z" fill="#434E67"/>
<path opacity="0.1" d="M86.1695 60.0273C86.1695 61.4126 85.9716 62.7979 85.5758 63.9853L81.5189 62.0063C81.6179 61.3137 81.7168 60.72 81.7168 60.0273C81.7168 55.9704 79.1442 52.4083 75.582 51.023L76.1757 46.5703C81.9147 48.2524 86.1695 53.6946 86.1695 60.0273Z" fill="#434E67"/>
<path d="M93.7776 91H48.8887C47.7841 91 46.8887 91.8954 46.8887 93C46.8887 94.1046 47.7841 95 48.8887 95H93.7776C94.8821 95 95.7776 94.1046 95.7776 93C95.7776 91.8954 94.8821 91 93.7776 91Z" fill="#D6DCE8"/>
<path d="M68.8887 100.777H48.8887C47.7841 100.777 46.8887 101.673 46.8887 102.777C46.8887 103.882 47.7841 104.777 48.8887 104.777H68.8887C69.9932 104.777 70.8887 103.882 70.8887 102.777C70.8887 101.673 69.9932 100.777 68.8887 100.777Z" fill="#D6DCE8"/>
<defs>
<filter id="filter0_d_19267_7313" x="0.336554" y="0.168277" width="143.327" height="159.327" filterUnits="userSpaceOnUse" color-interpolation-filters="sRGB">
<feFlood flood-opacity="0" result="BackgroundImageFix"/>
<feColorMatrix in="SourceAlpha" type="matrix" values="0 0 0 0 0 0 0 0 0 0 0 0 0 0 0 0 0 0 127 0" result="hardAlpha"/>
<feOffset dy="14.8317"/>
<feGaussianBlur stdDeviation="14.8317"/>
<feColorMatrix type="matrix" values="0 0 0 0 0.397708 0 0 0 0 0.47749 0 0 0 0 0.575 0 0 0 0.27 0"/>
<feBlend mode="normal" in2="BackgroundImageFix" result="effect1_dropShadow_19267_7313"/>
<feBlend mode="normal" in="SourceGraphic" in2="effect1_dropShadow_19267_7313" result="shape"/>
</filter>
<linearGradient id="paint0_linear_19267_7313" x1="71.9726" y1="12.6869" x2="71.9726" y2="116.078" gradientUnits="userSpaceOnUse">
<stop stop-color="#FDFEFF"/>
<stop offset="0.9964" stop-color="#ECF0F5"/>
</linearGradient>
</defs>
</svg>
