<svg width="250" height="256" viewBox="0 0 250 256" fill="none" xmlns="http://www.w3.org/2000/svg">
<path d="M249.658 124.568C249.658 158.134 236.243 187.97 215.376 210.348C213.886 212.585 211.65 214.077 209.414 215.569C187.057 236.455 157.247 249.135 124.456 249.135C98.3726 249.135 73.7795 240.93 53.6578 226.758C47.6958 223.028 42.4791 217.807 37.2624 213.331C14.1597 190.954 0 159.626 0 124.568C0 55.9435 55.8936 0 124.456 0C193.764 0 249.658 55.9435 249.658 124.568Z" fill="#E9F0F8"/>
<path d="M249.658 124.56C249.658 161.11 234.008 193.184 209.414 216.307C187.057 237.193 157.247 249.874 124.456 249.874C98.3726 249.874 73.7795 241.668 53.6578 227.496C20.867 205.119 0 167.823 0 125.306C0 56.6818 55.8936 0.738281 124.456 0.738281C193.019 0.738281 249.658 55.9359 249.658 124.56Z" fill="#F1F3F9"/>
<path d="M215.372 210.347C213.881 212.585 211.646 214.077 209.41 215.569C187.052 236.454 157.243 249.135 124.452 249.135C98.3681 249.135 73.7749 240.93 53.6533 226.758C47.6913 223.028 42.4745 217.807 37.2578 213.331C40.2388 209.602 44.7103 207.364 54.3985 203.634L58.1247 202.142C65.5772 199.159 76.0107 195.429 89.4251 189.462C91.6608 188.716 93.1514 187.224 94.6419 185.732C95.3871 184.986 96.1323 184.241 96.1323 182.749C96.8776 181.257 97.6228 179.019 97.6228 177.527V152.166C96.8776 151.42 96.8776 151.42 96.1323 150.674C93.8966 147.691 92.4061 143.961 92.4061 139.486L90.9156 138.74C84.2084 140.232 84.9537 133.518 83.4632 120.092C82.7179 114.87 83.4631 113.379 86.4441 112.633L88.6799 109.649C84.2084 99.2063 81.9726 89.5094 81.9726 82.0503C81.9726 69.3697 87.1894 61.1647 94.6419 57.4351C90.1704 48.4841 90.1703 45.5005 90.1703 45.5005C90.1703 45.5005 116.254 49.976 125.197 48.4842C136.376 46.2464 154.262 49.2301 160.969 64.1483C172.147 68.6238 175.874 75.337 177.364 82.7962C178.855 94.7308 172.148 107.411 170.657 112.633V113.379C172.148 114.125 172.893 115.616 172.147 120.838C170.657 133.518 170.657 140.977 164.695 139.486L158.733 149.928C158.733 151.42 158.733 151.42 157.988 152.166C157.988 154.404 157.988 158.134 157.988 178.273C157.988 180.511 158.733 183.495 160.224 184.986C160.969 185.732 160.969 186.478 161.714 186.478C163.205 187.97 164.695 189.462 166.186 189.462C181.09 195.429 191.524 199.905 199.722 202.888C207.174 205.872 212.391 208.11 215.372 210.347Z" fill="white"/>
<path d="M215.372 210.347C213.881 212.584 211.646 214.076 209.41 215.568C187.052 236.454 157.243 249.134 124.452 249.134C98.3681 249.134 73.7749 240.929 53.6533 226.757C47.6913 223.027 42.4745 217.806 37.2578 213.33C40.2388 209.601 44.7103 207.363 54.3985 203.633L58.1247 202.142C65.5772 199.158 76.0107 195.428 89.4251 189.461C91.6608 188.715 93.1514 187.223 94.6419 185.731C102.094 196.174 114.018 202.887 128.178 202.887C141.592 202.887 153.516 196.174 160.969 186.477C162.459 187.969 163.95 189.461 165.44 189.461C180.345 195.428 190.779 199.904 198.976 202.887C207.174 205.871 212.391 208.109 215.372 210.347Z" fill="#D6DCE8"/>
<path d="M169.916 111.887C170.661 108.903 169.17 104.428 167.68 102.19C167.68 101.444 166.935 101.444 166.935 100.698C161.718 90.2553 150.539 86.5258 140.106 85.7799C112.532 84.288 110.296 89.5094 102.098 82.0503C105.079 85.7799 105.079 92.4931 100.608 99.9522C97.6266 105.174 92.4099 108.157 87.1932 109.649C74.524 81.3043 81.2312 63.4024 93.1551 57.4351C88.6837 48.4841 88.6837 45.5005 88.6837 45.5005C88.6837 45.5005 114.767 49.976 123.71 48.4842C134.889 46.2464 152.775 49.2301 159.482 64.1483C170.661 68.6238 174.387 75.337 175.878 82.7962C178.113 93.9849 171.406 106.665 169.916 111.887Z" fill="#AAB2C5"/>
<path d="M98.3577 177.527V152.166C97.6125 151.42 97.6124 151.42 96.8672 150.674V149.182C98.3577 151.42 99.8482 153.658 102.084 155.149L122.206 169.322C126.677 173.051 133.384 173.051 137.856 169.322L156.487 152.912C157.232 152.166 157.977 152.166 158.723 151.42C158.723 153.658 158.723 157.387 158.723 177.527C158.723 179.019 158.723 179.765 159.468 181.256H98.3577C97.6125 179.765 98.3577 179.019 98.3577 177.527Z" fill="url(#paint0_linear_215_1504)"/>
<path d="M190 160C177.27 160 165.06 165.057 156.058 174.059C147.057 183.06 142 195.27 142 208C142 220.731 147.057 232.94 156.058 241.942C165.06 250.943 177.27 256 190 256C202.731 256 214.939 250.943 223.941 241.942C232.943 232.939 238 220.73 238 208C237.988 195.274 232.927 183.072 223.928 174.071C214.928 165.072 202.726 160.012 189.999 160L190 160ZM190 164.571C200.75 164.63 211.087 168.706 218.983 176L158.001 236.982C150.468 228.657 146.461 217.732 146.822 206.509C147.184 195.288 151.889 184.644 159.942 176.822C167.996 168.998 178.772 164.607 190 164.571ZM190 251.431C179.283 251.433 168.948 247.44 161.017 240.229L222.227 179.019C229.778 187.365 233.786 198.321 233.403 209.568C233.02 220.816 228.276 231.474 220.176 239.287C212.075 247.1 201.253 251.455 189.999 251.432L190 251.431Z" fill="#A0A9BA"/>
<defs>
<linearGradient id="paint0_linear_215_1504" x1="128.047" y1="180.258" x2="128.047" y2="163.457" gradientUnits="userSpaceOnUse">
<stop stop-color="white"/>
<stop offset="0.9913" stop-color="#D6DEEA"/>
</linearGradient>
</defs>
</svg>
