<svg width="178" height="145" viewBox="0 0 178 145" fill="none" xmlns="http://www.w3.org/2000/svg">
<path d="M89.5502 110.58C119.976 110.58 144.602 85.8083 144.602 55.2452C144.602 24.6821 119.976 0 89.5502 0C59.2139 0 34.4987 24.7712 34.4987 55.3343C34.4987 85.8974 59.2139 110.58 89.5502 110.58Z" fill="#EAEEF9"/>
<path fill-rule="evenodd" clip-rule="evenodd" d="M12.9911 111.847C12.9911 111.018 13.6627 110.347 14.4911 110.347H165.509C166.337 110.347 167.009 111.018 167.009 111.847C167.009 112.675 166.337 113.347 165.509 113.347H14.4911C13.6627 113.347 12.9911 112.675 12.9911 111.847Z" fill="#EAEEF9"/>
<path d="M27.8963 48.6513C29.9485 48.6513 31.5545 47.0475 31.5545 44.998C31.5545 42.9486 29.9485 41.3447 27.8963 41.3447C25.8442 41.3447 24.2381 42.9486 24.2381 44.998C24.2381 47.0475 25.9334 48.6513 27.8963 48.6513Z" fill="#EAEEF9"/>
<path d="M24.2381 36.8004C25.5764 36.8004 26.7364 35.6421 26.7364 34.3055C26.7364 32.9689 25.5764 31.8105 24.2381 31.8105C22.8997 31.8105 21.7398 32.9689 21.7398 34.3055C21.7398 35.7312 22.8997 36.8004 24.2381 36.8004Z" fill="#EAEEF9"/>
<path d="M155.13 57.8294C157.718 57.8294 159.77 55.78 159.77 53.196C159.77 50.6119 157.718 48.5625 155.13 48.5625C152.543 48.5625 150.491 50.6119 150.491 53.196C150.491 55.78 152.543 57.8294 155.13 57.8294Z" fill="#EAEEF9"/>
<g filter="url(#filter0_d_4947_21881)">
<path d="M144.869 101.56H155.027C155.027 106.543 151.098 110.568 146.403 110.663C146.403 110.663 146.307 110.663 146.211 110.663H115.546V101.655H138.832L144.869 101.56Z" fill="#EAEEF9"/>
</g>
<path d="M142.282 108.46C142.186 108.364 142.09 108.268 141.994 108.076C140.94 106.831 140.174 105.106 140.174 103.381V49.6203C140.078 44.6372 136.341 40.7081 131.549 40.6123C131.549 40.6123 131.453 40.6123 131.357 40.6123H100.788V49.6203H88.3299V102.806C88.4257 104.627 89.1923 106.351 90.2465 107.501C94.2713 111.622 90.6298 110.664 95.2296 110.664H146.978C145.157 110.568 143.528 109.706 142.282 108.46Z" fill="#D5DDEA"/>
<g filter="url(#filter1_d_4947_21881)">
<path d="M131.645 40.6124C129.92 40.6124 128.291 41.6666 127.237 42.9123C126.182 44.254 125.32 46.9372 125.32 48.6621V101.848C125.32 106.927 121.295 110.951 116.408 110.951H73.572V47.3205C73.6678 45.4997 74.4345 43.7748 75.4886 42.6249C76.8302 41.2832 78.076 40.6124 79.9926 40.6124L123.691 40.5166L131.357 40.6124C131.549 40.6124 131.549 40.6124 131.645 40.6124Z" fill="url(#paint0_linear_4947_21881)"/>
</g>
<path d="M100.979 19.9131C99.1586 20.0089 97.5295 20.8714 96.2837 22.0213C96.1879 22.1172 96.092 22.213 95.9962 22.4047C94.9421 23.6504 94.0796 25.4712 94.0796 27.1961V59.2033H42.3316V26.8128C42.4274 24.9921 43.194 23.2671 44.2481 22.1172C45.5898 20.7756 47.3147 19.9131 49.3271 19.9131H100.979Z" fill="#E7EBF0"/>
<path d="M111.137 108.843C109.796 107.501 109.125 105.681 109.125 103.764L109.029 29.1126C109.029 24.1295 105.196 20.1046 100.404 20.0088C100.404 20.0088 100.309 20.0088 100.213 20.0088H99.8295H99.6378H69.5473H67.6307V29.1126H57.0894V52.2076H57.9519V103.764C57.9519 105.776 58.8144 107.693 59.9643 108.843C61.2101 110.28 63.0309 110.951 64.8516 110.951H116.025C114.108 110.951 112.287 109.993 111.137 108.843Z" fill="#D5DDEA"/>
<g filter="url(#filter2_d_4947_21881)">
<path d="M100.309 19.9131C98.392 20.0089 96.6671 20.7756 95.4213 22.1172C95.3255 22.213 95.2297 22.3088 95.038 22.5005C93.888 23.8421 93.1214 25.4712 93.1214 27.3878V101.752C93.1214 106.926 89.0007 111.047 83.9218 111.047H38.8818V26.9087C38.9776 24.9921 39.7443 23.2671 40.9901 22.0213C42.3317 20.7756 44.1524 19.9131 46.1649 19.9131H91.3965H100.021C100.117 19.9131 100.213 19.9131 100.309 19.9131Z" fill="url(#paint1_linear_4947_21881)"/>
</g>
<path d="M83.9216 32.5628H70.5054C70.0263 32.5628 69.643 32.1795 69.643 31.7004C69.643 31.2212 70.0263 30.8379 70.5054 30.8379H83.8258C84.3049 30.8379 84.6882 31.2212 84.6882 31.7004C84.7841 32.1795 84.4007 32.5628 83.9216 32.5628Z" fill="#989FB0"/>
<path d="M64.2766 32.5628H46.8355C46.3564 32.5628 45.9731 32.1795 45.9731 31.7004C45.9731 31.2212 46.3564 30.8379 46.8355 30.8379H64.2766C64.7557 30.8379 65.139 31.2212 65.139 31.7004C65.139 32.1795 64.7557 32.5628 64.2766 32.5628Z" fill="#D6DCE8"/>
<path d="M75.3928 41.2835H58.0476C57.5684 41.2835 57.1851 40.9002 57.1851 40.4211C57.1851 39.9419 57.5684 39.5586 58.0476 39.5586H75.3928C75.8719 39.5586 76.2552 39.9419 76.2552 40.4211C76.3511 40.9002 75.9677 41.2835 75.3928 41.2835Z" fill="#989FB0"/>
<path d="M52.4895 41.2835H46.8355C46.3564 41.2835 45.9731 40.9002 45.9731 40.4211C45.9731 39.9419 46.3564 39.5586 46.8355 39.5586H52.4895C52.9686 39.5586 53.352 39.9419 53.352 40.4211C53.352 40.9002 52.9686 41.2835 52.4895 41.2835Z" fill="#D6DCE8"/>
<path d="M83.9218 50.0033H73.2847C72.8056 50.0033 72.4223 49.6199 72.4223 49.1408C72.4223 48.6616 72.8056 48.2783 73.2847 48.2783H83.9218C84.401 48.2783 84.7843 48.6616 84.7843 49.1408C84.7843 49.6199 84.401 50.0033 83.9218 50.0033Z" fill="#D6DCE8"/>
<path d="M68.1097 50.0033H46.8355C46.3564 50.0033 45.9731 49.6199 45.9731 49.1408C45.9731 48.6616 46.3564 48.2783 46.8355 48.2783H68.1097C68.5889 48.2783 68.9722 48.6616 68.9722 49.1408C68.9722 49.6199 68.6847 50.0033 68.1097 50.0033Z" fill="#989FB0"/>
<path d="M75.3929 58.8197H63.7017C63.2225 58.8197 62.8392 58.4363 62.8392 57.9572C62.8392 57.478 63.2225 57.0947 63.7017 57.0947H75.3929C75.872 57.0947 76.2554 57.478 76.2554 57.9572C76.3512 58.3405 75.9679 58.8197 75.3929 58.8197Z" fill="#989FB0"/>
<path d="M58.6226 58.8197H46.8355C46.3564 58.8197 45.9731 58.4363 45.9731 57.9572C45.9731 57.478 46.3564 57.0947 46.8355 57.0947H58.6226C59.1017 57.0947 59.4851 57.478 59.4851 57.9572C59.4851 58.4363 59.1017 58.8197 58.6226 58.8197Z" fill="#D6DCE8"/>
<path d="M83.9219 67.5404H75.7763C75.2972 67.5404 74.9139 67.157 74.9139 66.6779C74.9139 66.1987 75.2972 65.8154 75.7763 65.8154H83.9219C84.401 65.8154 84.7843 66.1987 84.7843 66.6779C84.7843 67.157 84.401 67.5404 83.9219 67.5404Z" fill="#989FB0"/>
<path d="M70.4097 67.5404H56.7061C56.2269 67.5404 55.8436 67.157 55.8436 66.6779C55.8436 66.1987 56.2269 65.8154 56.7061 65.8154H70.4097C70.8889 65.8154 71.2722 66.1987 71.2722 66.6779C71.2722 67.157 70.8889 67.5404 70.4097 67.5404Z" fill="#D6DCE8"/>
<path d="M51.627 67.5404H46.8355C46.3564 67.5404 45.9731 67.157 45.9731 66.6779C45.9731 66.1987 46.3564 65.8154 46.8355 65.8154H51.627C52.1062 65.8154 52.4895 66.1987 52.4895 66.6779C52.4895 67.157 52.0103 67.5404 51.627 67.5404Z" fill="#989FB0"/>
<path d="M83.9218 85.1732H73.2847C72.8056 85.1732 72.4223 84.7899 72.4223 84.3107C72.4223 83.8316 72.8056 83.4482 73.2847 83.4482H83.9218C84.401 83.4482 84.7843 83.8316 84.7843 84.3107C84.7843 84.7899 84.401 85.1732 83.9218 85.1732Z" fill="#D6DCE8"/>
<path d="M68.1097 85.1732H46.8355C46.3564 85.1732 45.9731 84.7899 45.9731 84.3107C45.9731 83.8316 46.3564 83.4482 46.8355 83.4482H68.1097C68.5889 83.4482 68.9722 83.8316 68.9722 84.3107C68.9722 84.7899 68.6847 85.1732 68.1097 85.1732Z" fill="#989FB0"/>
<path d="M75.3929 93.9896H63.7017C63.2225 93.9896 62.8392 93.6063 62.8392 93.1271C62.8392 92.648 63.2225 92.2646 63.7017 92.2646H75.3929C75.872 92.2646 76.2554 92.648 76.2554 93.1271C76.3512 93.5104 75.9679 93.9896 75.3929 93.9896Z" fill="#989FB0"/>
<path d="M58.6226 93.9896H46.8355C46.3564 93.9896 45.9731 93.6063 45.9731 93.1271C45.9731 92.648 46.3564 92.2646 46.8355 92.2646H58.6226C59.1017 92.2646 59.4851 92.648 59.4851 93.1271C59.4851 93.5104 59.1017 93.9896 58.6226 93.9896Z" fill="#D6DCE8"/>
<path d="M75.3928 76.2611H67.2473C66.7681 76.2611 66.3848 75.8778 66.3848 75.3986C66.3848 74.9195 66.7681 74.5361 67.2473 74.5361H75.3928C75.872 74.5361 76.2553 74.9195 76.2553 75.3986C76.3511 75.8778 75.9678 76.2611 75.3928 76.2611Z" fill="#989FB0"/>
<path d="M61.9766 76.2611H46.8355C46.3564 76.2611 45.9731 75.8778 45.9731 75.3986C45.9731 74.9195 46.3564 74.5361 46.8355 74.5361H61.9766C62.4558 74.5361 62.8391 74.9195 62.8391 75.3986C62.8391 75.8778 62.4558 76.2611 61.9766 76.2611Z" fill="#D6DCE8"/>
<g filter="url(#filter3_d_4947_21881)">
<path d="M63.7976 103.668H75.6804C75.6804 105.68 76.5429 107.501 77.7887 108.843C79.1303 110.184 80.9511 110.951 82.8677 110.951H29.4905C27.4781 110.951 25.6573 110.089 24.4115 108.843C23.0699 107.501 22.2075 105.68 22.2075 103.668H57.377C57.377 103.668 63.9892 103.668 63.7976 103.668Z" fill="url(#paint2_linear_4947_21881)"/>
</g>
<g filter="url(#filter4_d_4947_21881)">
<path d="M85.2506 97.3072C79.7478 87.6187 80.2308 83.7615 81.0359 80.5922C82.4584 81.2621 83.5258 81.8789 83.5258 81.8789C83.2768 81.7502 83.5888 79.6951 83.6237 79.5175C83.8644 77.3603 84.0702 75.3806 84.4885 73.25C86.8637 62.5481 94.1424 52.9459 102.601 45.7138C104.23 44.4041 105.858 43.0944 107.523 42.0643C108.373 41.4605 109.294 40.9588 110.144 40.3549C110.357 40.204 112.695 39.0007 112.553 38.7965C112.802 48.7035 112.999 54.2162 116.175 58.5299C113.374 59.7555 111.992 60.2795 108.513 60.3068C113.745 63.9233 115.375 63.0708 115.375 63.0708C115.375 63.0708 114.804 72.0325 100.829 85.4753C103.249 87.1171 103.994 87.0459 103.994 87.0459C103.994 87.0459 95.5821 97.3008 87.0965 97.2181C85.2506 97.3072 85.2506 97.3072 85.2506 97.3072Z" fill="url(#paint3_linear_4947_21881)"/>
</g>
<path d="M83.6316 111.226C85.1086 97.6505 86.0345 78.9666 96.0192 62.096C106.039 45.048 114.209 36.9516 114.209 36.9516L113.471 38.8512C113.471 38.8512 101.659 51.0622 94.5903 69.3745C87.5566 87.5093 87.1783 100.61 86.4979 108.732C83.6316 111.226 83.6316 111.226 83.6316 111.226Z" fill="#989FB0"/>
<defs>
<filter id="filter0_d_4947_21881" x="93.5456" y="90.5596" width="83.4818" height="53.1035" filterUnits="userSpaceOnUse" color-interpolation-filters="sRGB">
<feFlood flood-opacity="0" result="BackgroundImageFix"/>
<feColorMatrix in="SourceAlpha" type="matrix" values="0 0 0 0 0 0 0 0 0 0 0 0 0 0 0 0 0 0 127 0" result="hardAlpha"/>
<feOffset dy="11"/>
<feGaussianBlur stdDeviation="11"/>
<feColorMatrix type="matrix" values="0 0 0 0 0.397708 0 0 0 0 0.47749 0 0 0 0 0.575 0 0 0 0.27 0"/>
<feBlend mode="normal" in2="BackgroundImageFix" result="effect1_dropShadow_4947_21881"/>
<feBlend mode="normal" in="SourceGraphic" in2="effect1_dropShadow_4947_21881" result="shape"/>
</filter>
<filter id="filter1_d_4947_21881" x="51.572" y="29.5166" width="102.073" height="114.435" filterUnits="userSpaceOnUse" color-interpolation-filters="sRGB">
<feFlood flood-opacity="0" result="BackgroundImageFix"/>
<feColorMatrix in="SourceAlpha" type="matrix" values="0 0 0 0 0 0 0 0 0 0 0 0 0 0 0 0 0 0 127 0" result="hardAlpha"/>
<feOffset dy="11"/>
<feGaussianBlur stdDeviation="11"/>
<feColorMatrix type="matrix" values="0 0 0 0 0.397708 0 0 0 0 0.47749 0 0 0 0 0.575 0 0 0 0.27 0"/>
<feBlend mode="normal" in2="BackgroundImageFix" result="effect1_dropShadow_4947_21881"/>
<feBlend mode="normal" in="SourceGraphic" in2="effect1_dropShadow_4947_21881" result="shape"/>
</filter>
<filter id="filter2_d_4947_21881" x="16.8818" y="8.91309" width="105.427" height="135.134" filterUnits="userSpaceOnUse" color-interpolation-filters="sRGB">
<feFlood flood-opacity="0" result="BackgroundImageFix"/>
<feColorMatrix in="SourceAlpha" type="matrix" values="0 0 0 0 0 0 0 0 0 0 0 0 0 0 0 0 0 0 127 0" result="hardAlpha"/>
<feOffset dy="11"/>
<feGaussianBlur stdDeviation="11"/>
<feColorMatrix type="matrix" values="0 0 0 0 0.397708 0 0 0 0 0.47749 0 0 0 0 0.575 0 0 0 0.27 0"/>
<feBlend mode="normal" in2="BackgroundImageFix" result="effect1_dropShadow_4947_21881"/>
<feBlend mode="normal" in="SourceGraphic" in2="effect1_dropShadow_4947_21881" result="shape"/>
</filter>
<filter id="filter3_d_4947_21881" x="0.207466" y="92.668" width="104.66" height="51.2832" filterUnits="userSpaceOnUse" color-interpolation-filters="sRGB">
<feFlood flood-opacity="0" result="BackgroundImageFix"/>
<feColorMatrix in="SourceAlpha" type="matrix" values="0 0 0 0 0 0 0 0 0 0 0 0 0 0 0 0 0 0 127 0" result="hardAlpha"/>
<feOffset dy="11"/>
<feGaussianBlur stdDeviation="11"/>
<feColorMatrix type="matrix" values="0 0 0 0 0.397708 0 0 0 0 0.47749 0 0 0 0 0.575 0 0 0 0.27 0"/>
<feBlend mode="normal" in2="BackgroundImageFix" result="effect1_dropShadow_4947_21881"/>
<feBlend mode="normal" in="SourceGraphic" in2="effect1_dropShadow_4947_21881" result="shape"/>
</filter>
<filter id="filter4_d_4947_21881" x="58.5474" y="27.7969" width="79.6273" height="102.511" filterUnits="userSpaceOnUse" color-interpolation-filters="sRGB">
<feFlood flood-opacity="0" result="BackgroundImageFix"/>
<feColorMatrix in="SourceAlpha" type="matrix" values="0 0 0 0 0 0 0 0 0 0 0 0 0 0 0 0 0 0 127 0" result="hardAlpha"/>
<feOffset dy="11"/>
<feGaussianBlur stdDeviation="11"/>
<feColorMatrix type="matrix" values="0 0 0 0 0.397708 0 0 0 0 0.47749 0 0 0 0 0.575 0 0 0 0.27 0"/>
<feBlend mode="normal" in2="BackgroundImageFix" result="effect1_dropShadow_4947_21881"/>
<feBlend mode="normal" in="SourceGraphic" in2="effect1_dropShadow_4947_21881" result="shape"/>
</filter>
<linearGradient id="paint0_linear_4947_21881" x1="102.589" y1="38.8874" x2="102.589" y2="111.711" gradientUnits="userSpaceOnUse">
<stop stop-color="#FDFEFF"/>
<stop offset="0.9964" stop-color="#ECF0F5"/>
</linearGradient>
<linearGradient id="paint1_linear_4947_21881" x1="69.5752" y1="17.8051" x2="69.5752" y2="112.03" gradientUnits="userSpaceOnUse">
<stop stop-color="#FDFEFF"/>
<stop offset="0.9964" stop-color="#ECF0F5"/>
</linearGradient>
<linearGradient id="paint2_linear_4947_21881" x1="52.5178" y1="103.5" x2="52.5178" y2="111.03" gradientUnits="userSpaceOnUse">
<stop stop-color="#FDFEFF"/>
<stop offset="0.9964" stop-color="#ECF0F5"/>
</linearGradient>
<linearGradient id="paint3_linear_4947_21881" x1="89.1026" y1="54.0706" x2="110.578" y2="84.2982" gradientUnits="userSpaceOnUse">
<stop stop-color="#FDFEFF"/>
<stop offset="0.9964" stop-color="#ECF0F5"/>
</linearGradient>
</defs>
</svg>
