<svg width="135" height="100" viewBox="0 0 135 100" fill="none" xmlns="http://www.w3.org/2000/svg">
<path d="M70.0871 100C97.6462 100 119.989 77.6575 119.989 50C119.989 22.3425 97.5477 0 70.0871 0C42.5281 0 20.1855 22.3425 20.1855 50C20.1855 77.6575 42.5281 100 70.0871 100Z" fill="#EAEEF9"/>
<path d="M126.323 34.1607C128.551 34.1607 130.358 32.354 130.358 30.1253C130.358 27.8966 128.551 26.0898 126.323 26.0898C124.094 26.0898 122.287 27.8966 122.287 30.1253C122.287 32.354 124.094 34.1607 126.323 34.1607Z" fill="#F1F3F9"/>
<path d="M132.229 18.4083C133.751 18.4083 134.984 17.1744 134.984 15.6524C134.984 14.1303 133.751 12.8965 132.229 12.8965C130.707 12.8965 129.473 14.1303 129.473 15.6524C129.473 17.1744 130.707 18.4083 132.229 18.4083Z" fill="#F1F3F9"/>
<path d="M22.4493 17.2247C23.9713 17.2247 25.2052 15.9908 25.2052 14.4688C25.2052 12.9468 23.9713 11.7129 22.4493 11.7129C20.9272 11.7129 19.6934 12.9468 19.6934 14.4688C19.6934 15.9908 20.9272 17.2247 22.4493 17.2247Z" fill="#EAEEF9"/>
<path d="M5.61811 70.3729C8.44476 70.3729 10.7362 68.0815 10.7362 65.2548C10.7362 62.4282 8.44476 60.1367 5.61811 60.1367C2.79146 60.1367 0.5 62.4282 0.5 65.2548C0.5 68.0815 2.79146 70.3729 5.61811 70.3729Z" fill="#EAEEF9"/>
<path d="M80.2223 63.5667V82.5C80.2223 84.1463 79.2644 85.7927 77.8959 86.6159L63.3895 94.9849C62.5684 95.5337 61.4736 95.8081 60.5156 95.8081V72.2102L79.5381 61.2344C79.9486 61.9204 80.2223 62.7435 80.2223 63.5667Z" fill="#F2F5FE"/>
<path d="M60.5153 72.2102V95.8081C59.5574 95.8081 58.5994 95.5337 57.6414 94.9849L43.1351 86.6159C41.6297 85.7927 40.8086 84.2835 40.8086 82.5V63.5667C40.8086 62.7435 41.0823 61.9204 41.4929 61.2344L60.5153 72.2102Z" fill="#D5DDEA"/>
<path d="M79.5372 61.2351L60.5148 72.2109L41.3555 61.0979C41.766 60.4119 42.3134 59.7259 43.1345 59.3143L58.0514 50.6709C59.42 49.8477 61.199 49.8477 62.7044 50.5337L78.0319 59.4515C78.0319 59.4515 78.0319 59.4515 78.1687 59.4515C78.7161 60.0003 79.2635 60.5491 79.5372 61.2351Z" fill="white"/>
<path d="M119.636 63.5667V82.5C119.636 84.1463 118.678 85.7927 117.31 86.6159L102.804 94.9849C101.982 95.5337 100.888 95.8081 99.9297 95.8081V72.2102L118.952 61.2344C119.363 61.9204 119.636 62.7435 119.636 63.5667Z" fill="#F2F5FE"/>
<path d="M99.9294 72.2102V95.8081C98.9714 95.8081 98.0134 95.5337 97.0555 94.9849L82.5491 86.6159C81.0438 85.7927 80.2227 84.2835 80.2227 82.5V63.5667C80.2227 62.7435 80.4964 61.9204 80.9069 61.2344L99.9294 72.2102Z" fill="#D5DDEA"/>
<path d="M118.951 61.2351L99.9288 72.2109L80.7695 61.0979C81.1801 60.4119 81.7275 59.7259 82.5486 59.3143L97.4655 50.6709C98.834 49.8477 100.613 49.8477 102.118 50.5337L117.446 59.4515C117.446 59.4515 117.446 59.4515 117.583 59.4515C118.13 60.0003 118.678 60.5491 118.951 61.2351Z" fill="white"/>
<path d="M60.3786 27.7542V46.6875C60.3786 48.3338 59.4206 49.9802 58.0521 50.8034L43.5458 59.1724C42.7247 59.7212 41.6298 59.9956 40.6719 59.9956V36.3977L59.6943 25.4219C60.2417 26.1079 60.3786 26.931 60.3786 27.7542Z" fill="#F2F5FE"/>
<path d="M40.6716 36.3977V59.9956C39.7136 59.9956 38.7556 59.7212 37.7977 59.1724L23.2913 50.8034C21.786 49.9802 20.9648 48.471 20.9648 46.6875V27.7542C20.9648 26.931 21.2385 26.1079 21.6491 25.4219L40.6716 36.3977Z" fill="#D5DDEA"/>
<path d="M59.8302 25.4226L40.8077 36.3984L21.6484 25.2854C22.059 24.5994 22.6064 23.9134 23.4275 23.5018L38.3444 14.8584C39.7129 14.0352 41.492 14.0352 42.9974 14.7212L58.188 23.7762C58.188 23.7762 58.188 23.7762 58.3248 23.7762C58.8722 24.1878 59.4197 24.7366 59.8302 25.4226Z" fill="white"/>
<path d="M102.391 27.3416V48.47C102.391 50.3908 101.433 52.1743 99.6537 53.1347L83.3683 62.6013C82.4103 63.1501 81.3155 63.4245 80.2207 63.4245V36.9454L101.707 24.5977C102.117 25.4208 102.391 26.3812 102.391 27.3416Z" fill="#F2F5FE"/>
<path d="M80.221 36.9479V53.6859V63.427C79.1262 63.427 78.0313 63.1526 77.0734 62.6038L69.9571 58.4878L60.6511 53.1371C59.0089 52.1768 58.0509 50.3932 57.9141 48.6096V27.2068C57.9141 26.2465 58.1878 25.2861 58.5983 24.4629L80.221 36.9479Z" fill="#D5DDEA"/>
<path d="M101.569 24.5979L80.0835 36.9457L58.5977 24.4608C59.0082 23.6376 59.6925 22.9516 60.5136 22.54L77.2096 12.799C78.8518 11.8386 80.7677 11.8386 82.4099 12.6618L99.6533 22.6772C99.6533 22.6772 99.7902 22.6772 99.7902 22.8144C100.611 23.3632 101.159 23.912 101.569 24.5979Z" fill="white"/>
<path fill-rule="evenodd" clip-rule="evenodd" d="M101.362 10.9648C101.967 10.9648 102.458 11.4557 102.458 12.0612V18.6392C102.458 19.2447 101.967 19.7356 101.362 19.7356C100.756 19.7356 100.266 19.2447 100.266 18.6392V12.0612C100.266 11.4557 100.756 10.9648 101.362 10.9648Z" fill="#989FB0"/>
<path fill-rule="evenodd" clip-rule="evenodd" d="M116.025 11.286C116.453 11.7141 116.453 12.4083 116.025 12.8364L107.985 20.8762C107.557 21.3044 106.863 21.3044 106.434 20.8762C106.006 20.4481 106.006 19.7539 106.434 19.3258L114.474 11.286C114.902 10.8578 115.597 10.8578 116.025 11.286Z" fill="#989FB0"/>
<path fill-rule="evenodd" clip-rule="evenodd" d="M106.844 26.6803C106.844 26.0748 107.335 25.584 107.94 25.584H115.249C115.855 25.584 116.345 26.0748 116.345 26.6803C116.345 27.2858 115.855 27.7767 115.249 27.7767H107.94C107.335 27.7767 106.844 27.2858 106.844 26.6803Z" fill="#989FB0"/>
<path d="M90.8842 39.8808C90.6602 40.8299 90.3242 41.8348 89.9322 42.6722C88.8681 44.7379 87.188 46.3569 85.1158 47.4176C82.9876 48.4783 80.4675 48.925 77.9473 48.3667C72.0108 47.1385 68.2025 41.3324 69.4346 35.4146C70.6667 29.4968 76.4352 25.6447 82.3716 26.9288C84.4998 27.3754 86.3479 28.4361 87.916 29.8876C90.5482 32.5115 91.6683 36.3078 90.8842 39.8808Z" fill="url(#paint0_linear_18560_37740)"/>
<path d="M83.6083 36.6995H81.1103V34.2015C81.1103 33.7019 80.7217 33.2578 80.1666 33.2578C79.667 33.2578 79.2229 33.6464 79.2229 34.2015V36.6995H76.7249C76.2253 36.6995 75.7812 37.0881 75.7812 37.6432C75.7812 38.1983 76.1698 38.5869 76.7249 38.5869H79.2229V41.0848C79.2229 41.5844 79.6115 42.0285 80.1666 42.0285C80.6662 42.0285 81.1103 41.6399 81.1103 41.0848V38.5869H83.6083C84.1079 38.5869 84.552 38.1983 84.552 37.6432C84.552 37.0881 84.1079 36.6995 83.6083 36.6995Z" fill="white"/>
<defs>
<linearGradient id="paint0_linear_18560_37740" x1="69.1931" y1="37.6474" x2="91.1339" y2="37.6474" gradientUnits="userSpaceOnUse">
<stop stop-color="#B0BACC"/>
<stop offset="1" stop-color="#969EAE"/>
</linearGradient>
</defs>
</svg>
