<svg width="256" height="250" viewBox="0 0 256 250" fill="none" xmlns="http://www.w3.org/2000/svg">
<path d="M127.7 221.502C187.239 221.502 235.752 173.19 235.752 113.851C235.552 54.3126 187.239 6 127.7 6C67.9611 6 19.6484 54.3126 19.6484 113.651C19.6484 173.19 67.9611 221.502 127.7 221.502Z" fill="#EAEEF9"/>
<path d="M238.356 76.162C242.895 76.162 246.575 72.4821 246.575 67.9428C246.575 63.4035 242.895 59.7236 238.356 59.7236C233.817 59.7236 230.137 63.4035 230.137 67.9428C230.137 72.4821 233.817 76.162 238.356 76.162Z" fill="#EAEEF9"/>
<path d="M250.383 44.0895C253.483 44.0895 255.996 41.5764 255.996 38.4764C255.996 35.3763 253.483 32.8633 250.383 32.8633C247.283 32.8633 244.77 35.3763 244.77 38.4764C244.77 41.5764 247.283 44.0895 250.383 44.0895Z" fill="#EAEEF9"/>
<path d="M10.4243 186.02C16.1815 186.02 20.8486 181.353 20.8486 175.596C20.8486 169.839 16.1815 165.172 10.4243 165.172C4.66712 165.172 0 169.839 0 175.596C0 181.353 4.66712 186.02 10.4243 186.02Z" fill="#EAEEF9"/>
<g filter="url(#filter0_d_216_1072)">
<path d="M203.48 68.4843V199.051C203.48 208.565 195.935 216.11 186.421 216.11H68.977C59.4633 216.11 51.918 208.565 51.918 199.051V28.1332C51.918 18.6195 59.4633 11.0742 68.977 11.0742H146.398C150.663 11.0742 154.6 12.7145 157.552 15.667L198.888 57.0023C201.84 60.2828 203.48 64.2195 203.48 68.4843Z" fill="url(#paint0_linear_216_1072)"/>
</g>
<g filter="url(#filter1_d_216_1072)">
<path d="M154.184 13.0957V49.0593C154.184 56.017 160.076 61.5832 166.771 61.5832H201.953C201.194 59.9514 200.165 58.4152 198.892 57.0009L157.557 15.6657C156.54 14.649 155.407 13.7878 154.184 13.0957Z" fill="#D5DDEA"/>
</g>
<path d="M102.589 180.554H75.2319C74.2112 180.554 73.3945 179.469 73.3945 178.167C73.3945 176.865 74.2112 175.78 75.2319 175.78H102.589C103.61 175.78 104.426 176.865 104.426 178.167C104.426 179.686 103.61 180.554 102.589 180.554Z" fill="#D5DDEA"/>
<path d="M137.575 46.8805H76.0517C74.6209 46.8805 73.3945 45.7788 73.3945 44.4935C73.3945 43.2082 74.6209 42.1064 76.0517 42.1064H137.575C139.006 42.1064 140.232 43.2082 140.232 44.4935C140.232 45.7788 139.006 46.8805 137.575 46.8805Z" fill="#D6DCE8"/>
<path d="M99.6013 61.2028H76.0355C74.6135 61.2028 73.3945 60.1011 73.3945 58.8158C73.3945 57.5304 74.6135 56.4287 76.0355 56.4287H99.3981C100.82 56.4287 102.039 57.5304 102.039 58.8158C102.039 60.1011 100.82 61.2028 99.6013 61.2028Z" fill="#D6DCE8"/>
<path d="M181.274 144.75H109.534H101.627H77.7137C76.7494 144.75 75.7852 145.745 75.7852 147.137C75.7852 148.331 76.5566 149.524 77.7137 149.524H101.627H109.534H181.274C182.238 149.524 183.202 148.529 183.202 147.137C183.01 145.745 182.238 144.75 181.274 144.75Z" fill="#D6DCE8"/>
<path d="M181.27 128.039H154.609H145.529H77.7171C76.7511 128.039 75.7852 129.034 75.7852 130.426C75.7852 131.62 76.5579 132.813 77.7171 132.813H145.529H154.609H181.27C182.236 132.813 183.202 131.819 183.202 130.426C183.009 129.034 182.236 128.039 181.27 128.039Z" fill="#D6DCE8"/>
<path d="M181.445 111.33H174.517H167.588H77.7098C76.7475 111.33 75.7852 112.325 75.7852 113.717C75.7852 114.911 76.555 116.104 77.7098 116.104H167.588H175.287H181.253C182.215 116.104 183.178 115.11 183.178 113.717C183.37 112.524 182.408 111.33 181.445 111.33Z" fill="#D6DCE8"/>
<path d="M181.294 94.6211H158.971H153.438H77.6931C76.7391 94.6211 75.7852 95.6157 75.7852 97.0081C75.7852 98.2017 76.5483 99.3952 77.6931 99.3952H153.438H158.971H181.104C182.439 99.3952 183.202 98.4006 183.202 97.0081C183.202 95.8146 182.439 94.6211 181.294 94.6211Z" fill="#D6DCE8"/>
<path d="M188.68 132.001C177.626 132.001 167.024 136.392 159.207 144.208C151.391 152.025 147 162.627 147 173.681C147 184.736 151.391 195.337 159.207 203.153C167.024 210.97 177.626 215.361 188.68 215.361C199.735 215.361 210.336 210.97 218.153 203.153C225.969 195.336 230.36 184.735 230.36 173.681C230.35 162.63 225.955 152.034 218.141 144.219C210.326 136.405 199.731 132.01 188.679 132L188.68 132.001ZM188.68 135.97C198.014 136.021 206.991 139.56 213.847 145.894L160.894 198.847C154.353 191.618 150.873 182.131 151.188 172.386C151.502 162.642 155.587 153.4 162.58 146.607C169.574 139.814 178.931 136.001 188.68 135.97ZM188.68 211.393C179.374 211.395 170.4 207.928 163.513 201.667L216.664 148.515C223.221 155.763 226.701 165.276 226.369 175.042C226.036 184.809 221.917 194.064 214.883 200.848C207.849 207.632 198.451 211.414 188.679 211.394L188.68 211.393Z" fill="#A0A9BA"/>
<defs>
<filter id="filter0_d_216_1072" x="29.918" y="0.0742188" width="195.562" height="249.036" filterUnits="userSpaceOnUse" color-interpolation-filters="sRGB">
<feFlood flood-opacity="0" result="BackgroundImageFix"/>
<feColorMatrix in="SourceAlpha" type="matrix" values="0 0 0 0 0 0 0 0 0 0 0 0 0 0 0 0 0 0 127 0" result="hardAlpha"/>
<feOffset dy="11"/>
<feGaussianBlur stdDeviation="11"/>
<feColorMatrix type="matrix" values="0 0 0 0 0.397708 0 0 0 0 0.47749 0 0 0 0 0.575 0 0 0 0.27 0"/>
<feBlend mode="normal" in2="BackgroundImageFix" result="effect1_dropShadow_216_1072"/>
<feBlend mode="normal" in="SourceGraphic" in2="effect1_dropShadow_216_1072" result="shape"/>
</filter>
<filter id="filter1_d_216_1072" x="132.184" y="2.0957" width="91.7695" height="92.4873" filterUnits="userSpaceOnUse" color-interpolation-filters="sRGB">
<feFlood flood-opacity="0" result="BackgroundImageFix"/>
<feColorMatrix in="SourceAlpha" type="matrix" values="0 0 0 0 0 0 0 0 0 0 0 0 0 0 0 0 0 0 127 0" result="hardAlpha"/>
<feOffset dy="11"/>
<feGaussianBlur stdDeviation="11"/>
<feColorMatrix type="matrix" values="0 0 0 0 0.397708 0 0 0 0 0.47749 0 0 0 0 0.575 0 0 0 0.27 0"/>
<feBlend mode="normal" in2="BackgroundImageFix" result="effect1_dropShadow_216_1072"/>
<feBlend mode="normal" in="SourceGraphic" in2="effect1_dropShadow_216_1072" result="shape"/>
</filter>
<linearGradient id="paint0_linear_216_1072" x1="127.65" y1="6.33154" x2="127.65" y2="218.32" gradientUnits="userSpaceOnUse">
<stop stop-color="#FDFEFF"/>
<stop offset="0.9964" stop-color="#ECF0F5"/>
</linearGradient>
</defs>
</svg>
