<svg width="186" height="136" viewBox="0 0 186 136" fill="none" xmlns="http://www.w3.org/2000/svg">
<path d="M151.67 58.7265C151.67 71.9542 147.241 84.3837 139.859 94.1904C135.77 99.5499 130.887 104.225 125.209 107.874C116.123 113.918 105.108 117.339 93.4103 117.339C61.2711 117.453 35.1509 91.2256 35.1509 58.7265C35.1509 26.3414 61.1575 0 93.4103 0C105.108 0 116.01 3.42096 125.209 9.46466C130.887 13.1137 135.77 17.789 139.859 23.1485C147.241 33.0693 151.67 45.3847 151.67 58.7265Z" fill="#EAEEF9"/>
<path d="M49.0415 50.8744H48.3382C47.8107 50.8744 47.459 50.7103 47.459 50.4641C47.459 50.2179 47.8107 50.0538 48.3382 50.0538H49.0415C49.569 50.0538 49.9206 50.2179 49.9206 50.4641C49.9206 50.7103 49.569 50.8744 49.0415 50.8744Z" fill="#2D5887"/>
<path d="M49.0415 54.1566H48.3382C47.8107 54.1566 47.459 53.9925 47.459 53.7463C47.459 53.5002 47.8107 53.3361 48.3382 53.3361H49.0415C49.569 53.3361 49.9206 53.5002 49.9206 53.7463C49.9206 53.9925 49.569 54.1566 49.0415 54.1566Z" fill="#2D5887"/>
<path d="M49.0415 57.4388H48.3382C47.8107 57.4388 47.459 57.2747 47.459 57.0286C47.459 56.7824 47.8107 56.6183 48.3382 56.6183H49.0415C49.569 56.6183 49.9206 56.7824 49.9206 57.0286C49.9206 57.2747 49.569 57.4388 49.0415 57.4388Z" fill="#2D5887"/>
<path d="M49.0415 60.721H48.3382C47.8107 60.721 47.459 60.5569 47.459 60.3108C47.459 60.0646 47.8107 59.9005 48.3382 59.9005H49.0415C49.569 59.9005 49.9206 60.0646 49.9206 60.3108C49.9206 60.5569 49.569 60.721 49.0415 60.721Z" fill="#2D5887"/>
<path d="M81.1409 50.8744H69.5749C69.106 50.8744 68.7935 50.7103 68.7935 50.4641C68.7935 50.2179 69.106 50.0538 69.5749 50.0538H81.1409C81.6097 50.0538 81.9223 50.2179 81.9223 50.4641C81.9223 50.7103 81.6097 50.8744 81.1409 50.8744Z" fill="white"/>
<path d="M105.784 60.721H69.5484C69.0954 60.721 68.7935 60.5569 68.7935 60.3108C68.7935 60.0646 69.0954 59.9005 69.5484 59.9005H105.784C106.237 59.9005 106.539 60.0646 106.539 60.3108C106.539 60.5569 106.237 60.721 105.784 60.721Z" fill="url(#paint0_linear_499_87010)"/>
<path d="M81.1862 54.1566H65.4273C64.9855 54.1566 64.6909 53.9925 64.6909 53.7463C64.6909 53.5002 64.9855 53.3361 65.4273 53.3361H81.1862C81.628 53.3361 81.9226 53.5002 81.9226 53.7463C81.9226 53.9925 81.628 54.1566 81.1862 54.1566Z" fill="#2D5887"/>
<path d="M93.4961 57.4388H65.4257C64.9848 57.4388 64.6909 57.2747 64.6909 57.0286C64.6909 56.7824 64.9848 56.6183 65.4257 56.6183H93.4961C93.937 56.6183 94.2309 56.7824 94.2309 57.0286C94.0839 57.2747 93.79 57.4388 93.4961 57.4388Z" fill="#2D5887"/>
<path d="M105.74 57.4388H95.0302C94.5506 57.4388 94.231 57.2747 94.231 57.0286C94.231 56.7824 94.5506 56.6183 95.0302 56.6183H105.74C106.22 56.6183 106.539 56.7824 106.539 57.0286C106.539 57.2747 106.22 57.4388 105.74 57.4388Z" fill="white"/>
<path d="M112.328 57.4388H108.136C107.67 57.4388 107.36 57.2747 107.36 57.0286C107.36 56.7824 107.67 56.6183 108.136 56.6183H112.328C112.793 56.6183 113.104 56.7824 113.104 57.0286C113.104 57.2747 112.793 57.4388 112.328 57.4388Z" fill="url(#paint1_linear_499_87010)"/>
<path d="M22.022 102.569H159.875" stroke="#D6DEE8" stroke-width="2" stroke-miterlimit="10" stroke-linecap="round" stroke-linejoin="round"/>
<g filter="url(#filter0_d_499_87010)">
<path d="M118.847 50.0538V102.569H44.3932C41.4562 102.569 39.2534 100.209 39.2534 97.4063V50.0538H118.847Z" fill="white"/>
</g>
<path d="M148.388 50.0538V97.4063C148.388 100.357 145.939 102.569 143.031 102.569H118.848V50.0538H148.388Z" fill="#DAE1ED"/>
<g filter="url(#filter1_d_499_87010)">
<path d="M148.388 50.0538V97.4063C148.388 100.357 145.939 102.569 143.031 102.569H118.848V50.0538H148.388Z" fill="#E7EAF4"/>
</g>
<path d="M67.9731 50.0538L83.6293 25.4372H163.978L147.879 50.0538H67.9731Z" fill="#C5CDDB"/>
<g filter="url(#filter2_d_499_87010)">
<path d="M67.9731 50.0538L83.6293 25.4372H163.978L147.879 50.0538H67.9731Z" fill="url(#paint2_linear_499_87010)"/>
</g>
<path opacity="0.3" d="M148.388 50.1976V77.9527H126.848C124.848 77.9527 123.463 76.6584 123.156 74.7889L118.848 50.0538L148.388 50.1976Z" fill="url(#paint3_linear_499_87010)"/>
<g filter="url(#filter3_d_499_87010)">
<path d="M147.769 50.0538H118.848L133.533 72.312C134.582 73.786 136.23 74.6705 137.879 74.6705H160.356C161.855 74.6705 162.904 72.9016 162.004 71.7224L147.769 50.0538Z" fill="url(#paint4_linear_499_87010)"/>
</g>
<g filter="url(#filter4_d_499_87010)">
<path d="M118.847 50.0538L103.082 25.4372H22.022L38.3826 50.0538H118.847Z" fill="#E7EAF4"/>
</g>
<path d="M78.9763 80.4144H47.9438C47.2187 80.4144 46.6387 79.8673 46.6387 79.1835C46.6387 78.4997 47.2187 77.9527 47.9438 77.9527H78.9763C79.7014 77.9527 80.2814 78.4997 80.2814 79.1835C80.1364 79.8673 79.7014 80.4144 78.9763 80.4144Z" fill="#DAE1ED"/>
<path d="M78.9763 86.1582H47.9438C47.2187 86.1582 46.6387 85.7935 46.6387 85.3377C46.6387 84.8818 47.2187 84.5171 47.9438 84.5171H78.9763C79.7014 84.5171 80.2814 84.8818 80.2814 85.3377C80.1364 85.7935 79.7014 86.1582 78.9763 86.1582Z" fill="#DAE1ED"/>
<path d="M62.5448 92.7227H47.9642C47.2278 92.7227 46.6387 92.358 46.6387 91.9021C46.6387 91.4463 47.2278 91.0816 47.9642 91.0816H62.5448C63.2812 91.0816 63.8703 91.4463 63.8703 91.9021C63.723 92.358 63.1339 92.7227 62.5448 92.7227Z" fill="#DAE1ED"/>
<defs>
<filter id="filter0_d_499_87010" x="17.2534" y="39.0538" width="123.594" height="96.5155" filterUnits="userSpaceOnUse" color-interpolation-filters="sRGB">
<feFlood flood-opacity="0" result="BackgroundImageFix"/>
<feColorMatrix in="SourceAlpha" type="matrix" values="0 0 0 0 0 0 0 0 0 0 0 0 0 0 0 0 0 0 127 0" result="hardAlpha"/>
<feOffset dy="11"/>
<feGaussianBlur stdDeviation="11"/>
<feColorMatrix type="matrix" values="0 0 0 0 0.397708 0 0 0 0 0.47749 0 0 0 0 0.575 0 0 0 0.27 0"/>
<feBlend mode="normal" in2="BackgroundImageFix" result="effect1_dropShadow_499_87010"/>
<feBlend mode="normal" in="SourceGraphic" in2="effect1_dropShadow_499_87010" result="shape"/>
</filter>
<filter id="filter1_d_499_87010" x="96.8477" y="39.0538" width="73.54" height="96.5155" filterUnits="userSpaceOnUse" color-interpolation-filters="sRGB">
<feFlood flood-opacity="0" result="BackgroundImageFix"/>
<feColorMatrix in="SourceAlpha" type="matrix" values="0 0 0 0 0 0 0 0 0 0 0 0 0 0 0 0 0 0 127 0" result="hardAlpha"/>
<feOffset dy="11"/>
<feGaussianBlur stdDeviation="11"/>
<feColorMatrix type="matrix" values="0 0 0 0 0.397708 0 0 0 0 0.47749 0 0 0 0 0.575 0 0 0 0.27 0"/>
<feBlend mode="normal" in2="BackgroundImageFix" result="effect1_dropShadow_499_87010"/>
<feBlend mode="normal" in="SourceGraphic" in2="effect1_dropShadow_499_87010" result="shape"/>
</filter>
<filter id="filter2_d_499_87010" x="45.9731" y="14.4372" width="140.005" height="68.6166" filterUnits="userSpaceOnUse" color-interpolation-filters="sRGB">
<feFlood flood-opacity="0" result="BackgroundImageFix"/>
<feColorMatrix in="SourceAlpha" type="matrix" values="0 0 0 0 0 0 0 0 0 0 0 0 0 0 0 0 0 0 127 0" result="hardAlpha"/>
<feOffset dy="11"/>
<feGaussianBlur stdDeviation="11"/>
<feColorMatrix type="matrix" values="0 0 0 0 0.397708 0 0 0 0 0.47749 0 0 0 0 0.575 0 0 0 0.27 0"/>
<feBlend mode="normal" in2="BackgroundImageFix" result="effect1_dropShadow_499_87010"/>
<feBlend mode="normal" in="SourceGraphic" in2="effect1_dropShadow_499_87010" result="shape"/>
</filter>
<filter id="filter3_d_499_87010" x="96.8477" y="39.0538" width="87.4893" height="68.6166" filterUnits="userSpaceOnUse" color-interpolation-filters="sRGB">
<feFlood flood-opacity="0" result="BackgroundImageFix"/>
<feColorMatrix in="SourceAlpha" type="matrix" values="0 0 0 0 0 0 0 0 0 0 0 0 0 0 0 0 0 0 127 0" result="hardAlpha"/>
<feOffset dy="11"/>
<feGaussianBlur stdDeviation="11"/>
<feColorMatrix type="matrix" values="0 0 0 0 0.397708 0 0 0 0 0.47749 0 0 0 0 0.575 0 0 0 0.27 0"/>
<feBlend mode="normal" in2="BackgroundImageFix" result="effect1_dropShadow_499_87010"/>
<feBlend mode="normal" in="SourceGraphic" in2="effect1_dropShadow_499_87010" result="shape"/>
</filter>
<filter id="filter4_d_499_87010" x="0.0219727" y="14.4372" width="140.826" height="68.6166" filterUnits="userSpaceOnUse" color-interpolation-filters="sRGB">
<feFlood flood-opacity="0" result="BackgroundImageFix"/>
<feColorMatrix in="SourceAlpha" type="matrix" values="0 0 0 0 0 0 0 0 0 0 0 0 0 0 0 0 0 0 127 0" result="hardAlpha"/>
<feOffset dy="11"/>
<feGaussianBlur stdDeviation="11"/>
<feColorMatrix type="matrix" values="0 0 0 0 0.397708 0 0 0 0 0.47749 0 0 0 0 0.575 0 0 0 0.27 0"/>
<feBlend mode="normal" in2="BackgroundImageFix" result="effect1_dropShadow_499_87010"/>
<feBlend mode="normal" in="SourceGraphic" in2="effect1_dropShadow_499_87010" result="shape"/>
</filter>
<linearGradient id="paint0_linear_499_87010" x1="68.963" y1="60.3274" x2="106.583" y2="60.3274" gradientUnits="userSpaceOnUse">
<stop stop-color="#FF66A9"/>
<stop offset="1" stop-color="#F53689"/>
</linearGradient>
<linearGradient id="paint1_linear_499_87010" x1="107.398" y1="57.0035" x2="113.103" y2="57.0035" gradientUnits="userSpaceOnUse">
<stop stop-color="#83A6FF"/>
<stop offset="1" stop-color="#5A78FF"/>
</linearGradient>
<linearGradient id="paint2_linear_499_87010" x1="115.944" y1="24.8678" x2="115.944" y2="50.3192" gradientUnits="userSpaceOnUse">
<stop stop-color="#FDFEFF"/>
<stop offset="0.9964" stop-color="#ECF0F5"/>
</linearGradient>
<linearGradient id="paint3_linear_499_87010" x1="133.624" y1="78.5253" x2="133.624" y2="53.1128" gradientUnits="userSpaceOnUse">
<stop offset="0.00289017" stop-color="#606673" stop-opacity="0"/>
<stop offset="1" stop-color="#AAB2C5"/>
</linearGradient>
<linearGradient id="paint4_linear_499_87010" x1="140.578" y1="49.4844" x2="140.578" y2="74.9359" gradientUnits="userSpaceOnUse">
<stop stop-color="#FDFEFF"/>
<stop offset="0.9964" stop-color="#ECF0F5"/>
</linearGradient>
</defs>
</svg>
