<svg width="186" height="137" viewBox="0 0 186 137" fill="none" xmlns="http://www.w3.org/2000/svg">
<path d="M152 59.5576C152 72.9726 147.515 85.578 140.039 95.5235C135.899 100.959 130.953 105.7 125.203 109.401C116.002 115.53 104.846 119 93 119C60.4522 119.115 34 92.5167 34 59.5576C34 26.7142 60.3372 0 93 0C104.846 0 115.887 3.46938 125.203 9.59861C130.953 13.2993 135.899 18.0408 140.039 23.4761C147.515 33.5373 152 46.0271 152 59.5576Z" fill="#EAEEF9"/>
<path d="M49.0415 51.7043H48.3382C47.8107 51.7043 47.459 51.5402 47.459 51.2941C47.459 51.0479 47.8107 50.8838 48.3382 50.8838H49.0415C49.569 50.8838 49.9206 51.0479 49.9206 51.2941C49.9206 51.5402 49.569 51.7043 49.0415 51.7043Z" fill="#2D5887"/>
<path d="M49.0415 54.9866H48.3382C47.8107 54.9866 47.459 54.8225 47.459 54.5763C47.459 54.3301 47.8107 54.166 48.3382 54.166H49.0415C49.569 54.166 49.9206 54.3301 49.9206 54.5763C49.9206 54.8225 49.569 54.9866 49.0415 54.9866Z" fill="#2D5887"/>
<path d="M49.0415 58.2688H48.3382C47.8107 58.2688 47.459 58.1047 47.459 57.8585C47.459 57.6124 47.8107 57.4482 48.3382 57.4482H49.0415C49.569 57.4482 49.9206 57.6124 49.9206 57.8585C49.9206 58.1047 49.569 58.2688 49.0415 58.2688Z" fill="#2D5887"/>
<path d="M49.0415 61.551H48.3382C47.8107 61.551 47.459 61.3869 47.459 61.1407C47.459 60.8946 47.8107 60.7305 48.3382 60.7305H49.0415C49.569 60.7305 49.9206 60.8946 49.9206 61.1407C49.9206 61.3869 49.569 61.551 49.0415 61.551Z" fill="#2D5887"/>
<path d="M81.1409 51.7043H69.5749C69.106 51.7043 68.7935 51.5402 68.7935 51.2941C68.7935 51.0479 69.106 50.8838 69.5749 50.8838H81.1409C81.6097 50.8838 81.9223 51.0479 81.9223 51.2941C81.9223 51.5402 81.6097 51.7043 81.1409 51.7043Z" fill="white"/>
<path d="M105.784 61.551H69.5484C69.0954 61.551 68.7935 61.3869 68.7935 61.1407C68.7935 60.8946 69.0954 60.7305 69.5484 60.7305H105.784C106.237 60.7305 106.539 60.8946 106.539 61.1407C106.539 61.3869 106.237 61.551 105.784 61.551Z" fill="url(#paint0_linear_6891_52394)"/>
<path d="M81.1862 54.9866H65.4273C64.9855 54.9866 64.6909 54.8225 64.6909 54.5763C64.6909 54.3301 64.9855 54.166 65.4273 54.166H81.1862C81.628 54.166 81.9226 54.3301 81.9226 54.5763C81.9226 54.8225 81.628 54.9866 81.1862 54.9866Z" fill="#2D5887"/>
<path d="M93.4961 58.2688H65.4257C64.9848 58.2688 64.6909 58.1047 64.6909 57.8585C64.6909 57.6124 64.9848 57.4482 65.4257 57.4482H93.4961C93.937 57.4482 94.2309 57.6124 94.2309 57.8585C94.0839 58.1047 93.79 58.2688 93.4961 58.2688Z" fill="#2D5887"/>
<path d="M105.74 58.2688H95.0302C94.5506 58.2688 94.231 58.1047 94.231 57.8585C94.231 57.6124 94.5506 57.4482 95.0302 57.4482H105.74C106.22 57.4482 106.539 57.6124 106.539 57.8585C106.539 58.1047 106.22 58.2688 105.74 58.2688Z" fill="white"/>
<path d="M112.328 58.2688H108.136C107.67 58.2688 107.36 58.1047 107.36 57.8585C107.36 57.6124 107.67 57.4482 108.136 57.4482H112.328C112.793 57.4482 113.104 57.6124 113.104 57.8585C113.104 58.1047 112.793 58.2688 112.328 58.2688Z" fill="url(#paint1_linear_6891_52394)"/>
<path d="M22.022 103.399H159.875" stroke="#D6DEE8" stroke-width="2" stroke-miterlimit="10" stroke-linecap="round" stroke-linejoin="round"/>
<g filter="url(#filter0_d_6891_52394)">
<path d="M118.847 50.8838V103.399H44.3932C41.4562 103.399 39.2534 101.039 39.2534 98.2362V50.8838H118.847Z" fill="white"/>
</g>
<path d="M148.388 50.8838V98.2362C148.388 101.187 145.939 103.399 143.031 103.399H118.848V50.8838H148.388Z" fill="#DAE1ED"/>
<g filter="url(#filter1_d_6891_52394)">
<path d="M148.388 50.8838V98.2362C148.388 101.187 145.939 103.399 143.031 103.399H118.848V50.8838H148.388Z" fill="#E7EAF4"/>
</g>
<path d="M67.9731 50.8842L83.6293 26.2676H163.978L147.879 50.8842H67.9731Z" fill="#C5CDDB"/>
<g filter="url(#filter2_d_6891_52394)">
<path d="M67.9731 50.8842L83.6293 26.2676H163.978L147.879 50.8842H67.9731Z" fill="url(#paint2_linear_6891_52394)"/>
</g>
<path opacity="0.3" d="M148.388 51.0276V78.7826H126.848C124.848 78.7826 123.463 77.4884 123.156 75.6189L118.848 50.8838L148.388 51.0276Z" fill="url(#paint3_linear_6891_52394)"/>
<g filter="url(#filter3_d_6891_52394)">
<path d="M147.769 50.8838H118.848L133.533 73.142C134.582 74.616 136.23 75.5004 137.879 75.5004H160.356C161.855 75.5004 162.904 73.7316 162.004 72.5523L147.769 50.8838Z" fill="url(#paint4_linear_6891_52394)"/>
</g>
<g filter="url(#filter4_d_6891_52394)">
<path d="M118.847 50.8842L103.082 26.2676H22.022L38.3826 50.8842H118.847Z" fill="#E7EAF4"/>
</g>
<path d="M78.9763 81.2449H47.9438C47.2187 81.2449 46.6387 80.6978 46.6387 80.014C46.6387 79.3302 47.2187 78.7832 47.9438 78.7832H78.9763C79.7014 78.7832 80.2814 79.3302 80.2814 80.014C80.1364 80.6978 79.7014 81.2449 78.9763 81.2449Z" fill="#DAE1ED"/>
<path d="M78.9763 86.9888H47.9438C47.2187 86.9888 46.6387 86.6241 46.6387 86.1682C46.6387 85.7123 47.2187 85.3477 47.9438 85.3477H78.9763C79.7014 85.3477 80.2814 85.7123 80.2814 86.1682C80.1364 86.6241 79.7014 86.9888 78.9763 86.9888Z" fill="#DAE1ED"/>
<path d="M62.5448 93.5532H47.9642C47.2278 93.5532 46.6387 93.1885 46.6387 92.7327C46.6387 92.2768 47.2278 91.9121 47.9642 91.9121H62.5448C63.2812 91.9121 63.8703 92.2768 63.8703 92.7327C63.723 93.1885 63.1339 93.5532 62.5448 93.5532Z" fill="#DAE1ED"/>
<defs>
<filter id="filter0_d_6891_52394" x="17.2534" y="39.8838" width="123.594" height="96.5156" filterUnits="userSpaceOnUse" color-interpolation-filters="sRGB">
<feFlood flood-opacity="0" result="BackgroundImageFix"/>
<feColorMatrix in="SourceAlpha" type="matrix" values="0 0 0 0 0 0 0 0 0 0 0 0 0 0 0 0 0 0 127 0" result="hardAlpha"/>
<feOffset dy="11"/>
<feGaussianBlur stdDeviation="11"/>
<feColorMatrix type="matrix" values="0 0 0 0 0.397708 0 0 0 0 0.47749 0 0 0 0 0.575 0 0 0 0.27 0"/>
<feBlend mode="normal" in2="BackgroundImageFix" result="effect1_dropShadow_6891_52394"/>
<feBlend mode="normal" in="SourceGraphic" in2="effect1_dropShadow_6891_52394" result="shape"/>
</filter>
<filter id="filter1_d_6891_52394" x="96.8477" y="39.8838" width="73.54" height="96.5156" filterUnits="userSpaceOnUse" color-interpolation-filters="sRGB">
<feFlood flood-opacity="0" result="BackgroundImageFix"/>
<feColorMatrix in="SourceAlpha" type="matrix" values="0 0 0 0 0 0 0 0 0 0 0 0 0 0 0 0 0 0 127 0" result="hardAlpha"/>
<feOffset dy="11"/>
<feGaussianBlur stdDeviation="11"/>
<feColorMatrix type="matrix" values="0 0 0 0 0.397708 0 0 0 0 0.47749 0 0 0 0 0.575 0 0 0 0.27 0"/>
<feBlend mode="normal" in2="BackgroundImageFix" result="effect1_dropShadow_6891_52394"/>
<feBlend mode="normal" in="SourceGraphic" in2="effect1_dropShadow_6891_52394" result="shape"/>
</filter>
<filter id="filter2_d_6891_52394" x="45.9731" y="15.2676" width="140.005" height="68.6162" filterUnits="userSpaceOnUse" color-interpolation-filters="sRGB">
<feFlood flood-opacity="0" result="BackgroundImageFix"/>
<feColorMatrix in="SourceAlpha" type="matrix" values="0 0 0 0 0 0 0 0 0 0 0 0 0 0 0 0 0 0 127 0" result="hardAlpha"/>
<feOffset dy="11"/>
<feGaussianBlur stdDeviation="11"/>
<feColorMatrix type="matrix" values="0 0 0 0 0.397708 0 0 0 0 0.47749 0 0 0 0 0.575 0 0 0 0.27 0"/>
<feBlend mode="normal" in2="BackgroundImageFix" result="effect1_dropShadow_6891_52394"/>
<feBlend mode="normal" in="SourceGraphic" in2="effect1_dropShadow_6891_52394" result="shape"/>
</filter>
<filter id="filter3_d_6891_52394" x="96.8477" y="39.8838" width="87.4893" height="68.6162" filterUnits="userSpaceOnUse" color-interpolation-filters="sRGB">
<feFlood flood-opacity="0" result="BackgroundImageFix"/>
<feColorMatrix in="SourceAlpha" type="matrix" values="0 0 0 0 0 0 0 0 0 0 0 0 0 0 0 0 0 0 127 0" result="hardAlpha"/>
<feOffset dy="11"/>
<feGaussianBlur stdDeviation="11"/>
<feColorMatrix type="matrix" values="0 0 0 0 0.397708 0 0 0 0 0.47749 0 0 0 0 0.575 0 0 0 0.27 0"/>
<feBlend mode="normal" in2="BackgroundImageFix" result="effect1_dropShadow_6891_52394"/>
<feBlend mode="normal" in="SourceGraphic" in2="effect1_dropShadow_6891_52394" result="shape"/>
</filter>
<filter id="filter4_d_6891_52394" x="0.0219727" y="15.2676" width="140.826" height="68.6162" filterUnits="userSpaceOnUse" color-interpolation-filters="sRGB">
<feFlood flood-opacity="0" result="BackgroundImageFix"/>
<feColorMatrix in="SourceAlpha" type="matrix" values="0 0 0 0 0 0 0 0 0 0 0 0 0 0 0 0 0 0 127 0" result="hardAlpha"/>
<feOffset dy="11"/>
<feGaussianBlur stdDeviation="11"/>
<feColorMatrix type="matrix" values="0 0 0 0 0.397708 0 0 0 0 0.47749 0 0 0 0 0.575 0 0 0 0.27 0"/>
<feBlend mode="normal" in2="BackgroundImageFix" result="effect1_dropShadow_6891_52394"/>
<feBlend mode="normal" in="SourceGraphic" in2="effect1_dropShadow_6891_52394" result="shape"/>
</filter>
<linearGradient id="paint0_linear_6891_52394" x1="68.963" y1="61.1574" x2="106.583" y2="61.1574" gradientUnits="userSpaceOnUse">
<stop stop-color="#FF66A9"/>
<stop offset="1" stop-color="#F53689"/>
</linearGradient>
<linearGradient id="paint1_linear_6891_52394" x1="107.398" y1="57.8334" x2="113.103" y2="57.8334" gradientUnits="userSpaceOnUse">
<stop stop-color="#83A6FF"/>
<stop offset="1" stop-color="#5A78FF"/>
</linearGradient>
<linearGradient id="paint2_linear_6891_52394" x1="115.944" y1="25.6982" x2="115.944" y2="51.1496" gradientUnits="userSpaceOnUse">
<stop stop-color="#FDFEFF"/>
<stop offset="0.9964" stop-color="#ECF0F5"/>
</linearGradient>
<linearGradient id="paint3_linear_6891_52394" x1="133.624" y1="79.3553" x2="133.624" y2="53.9427" gradientUnits="userSpaceOnUse">
<stop offset="0.00289017" stop-color="#606673" stop-opacity="0"/>
<stop offset="1" stop-color="#AAB2C5"/>
</linearGradient>
<linearGradient id="paint4_linear_6891_52394" x1="140.578" y1="50.3144" x2="140.578" y2="75.7658" gradientUnits="userSpaceOnUse">
<stop stop-color="#FDFEFF"/>
<stop offset="0.9964" stop-color="#ECF0F5"/>
</linearGradient>
</defs>
</svg>
