<svg width="48" height="48" viewBox="0 0 48 48" fill="none" xmlns="http://www.w3.org/2000/svg">
<rect width="48" height="48" fill="#F1F5F9"/>
<path d="M37.2913 30.2715L29.4677 19.7553C28.5645 18.5412 26.7369 18.5639 25.8175 19.8006L20.6612 26.7365L19.1694 24.7428C18.259 23.5261 16.4216 23.5602 15.5099 24.8108L11.6433 30.1145C10.5456 31.6203 11.5621 33.7134 13.402 33.7355L26.0115 33.8869L35.3973 33.9556C37.2933 33.9695 38.4167 31.7843 37.2913 30.2715Z" fill="url(#paint0_linear_8700_88115)"/>
<path d="M17.0312 20.0194C19.0905 19.7529 20.5459 18.0273 20.3389 16.0977C20.1318 14.1681 18.351 12.8615 16.2917 13.128C14.2323 13.3946 12.7769 15.1201 12.984 17.0497C13.1911 18.9793 14.9718 20.286 17.0312 20.0194Z" fill="url(#paint1_linear_8700_88115)"/>
<defs>
<linearGradient id="paint0_linear_8700_88115" x1="8.51038" y1="28.9113" x2="39.1527" y2="25.5901" gradientUnits="userSpaceOnUse">
<stop stop-color="#B0BACC"/>
<stop offset="1" stop-color="#969EAE"/>
</linearGradient>
<linearGradient id="paint1_linear_8700_88115" x1="12.9807" y1="17.0509" x2="20.3576" y2="16.2593" gradientUnits="userSpaceOnUse">
<stop stop-color="#B0BACC"/>
<stop offset="1" stop-color="#969EAE"/>
</linearGradient>
</defs>
</svg>
