<svg width="165" height="122" viewBox="0 0 165 122" fill="none" xmlns="http://www.w3.org/2000/svg">
<path d="M86.892 121.627C118.307 121.627 143.775 96.1583 143.775 64.6315C143.775 33.1046 118.194 7.63629 86.892 7.63629C55.4773 7.63629 30.009 33.1046 30.009 64.6315C30.009 96.1583 55.4773 121.627 86.892 121.627Z" fill="#EAEEF9"/>
<path d="M128.719 103.278C118.325 114.566 103.433 121.627 86.8919 121.627C73.691 121.627 61.5401 117.129 51.8878 109.575V16.5549C51.8878 13.4779 54.3655 10.967 57.4564 10.967H112.7L128.719 27.0415V103.278Z" fill="url(#paint0_linear_1960_54364)"/>
<g filter="url(#filter0_d_1960_54364)">
<path d="M112.7 11.6371V23.7115C112.7 25.9207 114.491 27.7115 116.7 27.7115H129.708" fill="#D5DDEA"/>
</g>
<path fill-rule="evenodd" clip-rule="evenodd" d="M118.266 34.1575C119.067 35.2371 118.841 36.762 117.762 37.5633L99.7986 50.895C98.9524 51.5229 97.7984 51.5353 96.939 50.9256L90.7475 46.5329L79.5966 53.5211C78.816 54.0103 77.8261 54.017 77.039 53.5384L73.6722 51.4912L65.6356 56.3554C64.4854 57.0516 62.9885 56.6836 62.2923 55.5333C61.5961 54.3831 61.9642 52.8862 63.1144 52.19L72.4145 46.5611C73.1909 46.0911 74.1643 46.0921 74.9398 46.5636L78.2845 48.5973L89.5384 41.5445C90.3719 41.0222 91.4377 41.0527 92.2399 41.6218L98.3155 45.9322L114.86 33.6534C115.94 32.8521 117.464 33.0778 118.266 34.1575Z" fill="#AAB2C5"/>
<path d="M118.027 71.314H95.1172C94.7374 71.314 94.3999 71.03 94.3999 70.6242V68.7578C94.3999 68.3926 94.6952 68.068 95.1172 68.068H118.027C118.407 68.068 118.745 68.352 118.745 68.7578V70.6242C118.703 71.03 118.407 71.314 118.027 71.314Z" fill="#D6DCE8"/>
<path d="M110.728 76.183H95.1135C94.7357 76.183 94.3999 75.9699 94.3999 75.6656V74.2658C94.3999 73.9919 94.6937 73.7485 95.1135 73.7485H110.728C111.106 73.7485 111.441 73.9615 111.441 74.2658V75.6656C111.441 75.9395 111.106 76.183 110.728 76.183Z" fill="#D6DCE8"/>
<path d="M118.027 85.9209H95.1172C94.7374 85.9209 94.3999 85.5659 94.3999 85.0587V82.7256C94.3999 82.2692 94.6952 81.8634 95.1172 81.8634H118.027C118.407 81.8634 118.745 82.2185 118.745 82.7256V85.0587C118.745 85.5659 118.407 85.9209 118.027 85.9209Z" fill="#D6DCE8"/>
<path d="M110.728 91.6015H95.1134C94.7356 91.6015 94.3998 91.3175 94.3998 90.9117V89.0453C94.3998 88.6801 94.6937 88.3555 95.1134 88.3555H110.728C111.105 88.3555 111.441 88.6395 111.441 89.0453V90.9117C111.441 91.2769 111.105 91.6015 110.728 91.6015Z" fill="#D6DCE8"/>
<path d="M118.027 99.7163H95.1172C94.7374 99.7163 94.3999 99.4323 94.3999 99.0265V97.1601C94.3999 96.7949 94.6952 96.4703 95.1172 96.4703H118.027C118.407 96.4703 118.745 96.7544 118.745 97.1601V99.0265C118.745 99.4323 118.407 99.7163 118.027 99.7163Z" fill="#D6DCE8"/>
<path d="M110.728 105.397H95.1135C94.7357 105.397 94.3999 105.042 94.3999 104.535V102.202C94.3999 101.745 94.6937 101.339 95.1135 101.339H110.728C111.106 101.339 111.441 101.694 111.441 102.202V104.535C111.441 105.042 111.106 105.397 110.728 105.397Z" fill="#D6DCE8"/>
<path d="M86.0648 85.1094H64.5939C63.1062 85.1094 61.9402 83.8922 61.9402 82.4315V70.7459C61.9402 69.2447 63.1464 68.068 64.5939 68.068H86.0648C87.5525 68.068 88.7185 69.2853 88.7185 70.7459V82.4315C88.7588 83.8922 87.5525 85.1094 86.0648 85.1094Z" fill="#D6DCE8"/>
<path d="M86.0647 105.397H64.5938C63.1061 105.397 61.9401 104.18 61.9401 102.719V91.0334C61.9401 89.5322 63.1463 88.3555 64.5938 88.3555H86.0647C87.5524 88.3555 88.7184 89.5727 88.7184 91.0334V102.719C88.7586 104.22 87.5524 105.397 86.0647 105.397Z" fill="#D6DCE8"/>
<path d="M165 58.4985V113.154C165 115.925 162.733 118.141 159.963 118.141H118.102C115.331 118.141 113.064 115.875 113.064 113.154V58.4985C113.064 55.7279 115.331 53.4611 118.102 53.4611H160.013C162.733 53.4611 165 55.7279 165 58.4985Z" fill="white"/>
<path d="M165 58.4985V72.1574C165 72.7096 164.552 73.1574 164 73.1574H114.064C113.512 73.1574 113.064 72.7096 113.064 72.1574V58.4985C113.064 55.7279 115.331 53.4611 118.102 53.4611H160.013C162.733 53.4611 165 55.7279 165 58.4985Z" fill="#BFC8D6"/>
<path d="M124.499 82.8795H118.908C118.102 82.8795 117.447 82.2247 117.447 81.4187V78.9C117.447 78.094 118.102 77.4391 118.908 77.4391H124.499C125.305 77.4391 125.96 78.094 125.96 78.9V81.4187C125.96 82.2247 125.305 82.8795 124.499 82.8795Z" fill="#D6DCE8"/>
<path d="M136.085 82.8795H130.494C129.688 82.8795 129.033 82.2247 129.033 81.4187V78.9C129.033 78.094 129.688 77.4391 130.494 77.4391H136.085C136.891 77.4391 137.546 78.094 137.546 78.9V81.4187C137.546 82.2247 136.891 82.8795 136.085 82.8795Z" fill="#D6DCE8"/>
<path d="M147.722 82.8795H142.08C141.274 82.8795 140.619 82.2247 140.619 81.4187V78.9C140.619 78.094 141.274 77.4391 142.08 77.4391H147.671C148.477 77.4391 149.132 78.094 149.132 78.9V81.4187C149.132 82.2247 148.477 82.8795 147.722 82.8795Z" fill="#D6DCE8"/>
<path d="M159.308 82.8795H153.716C152.91 82.8795 152.255 82.2247 152.255 81.4187V78.9C152.255 78.094 152.91 77.4391 153.716 77.4391H159.308C160.114 77.4391 160.769 78.094 160.769 78.9V81.4187C160.718 82.2247 160.114 82.8795 159.308 82.8795Z" fill="#D6DCE8"/>
<path d="M124.499 91.9972H118.908C118.102 91.9972 117.447 91.3423 117.447 90.5363V88.0176C117.447 87.2117 118.102 86.5568 118.908 86.5568H124.499C125.305 86.5568 125.96 87.2117 125.96 88.0176V90.5363C125.96 91.3423 125.305 91.9972 124.499 91.9972Z" fill="#D6DCE8"/>
<path d="M136.085 91.9972H130.494C129.688 91.9972 129.033 91.3423 129.033 90.5363V88.0176C129.033 87.2117 129.688 86.5568 130.494 86.5568H136.085C136.891 86.5568 137.546 87.2117 137.546 88.0176V90.5363C137.546 91.3423 136.891 91.9972 136.085 91.9972Z" fill="#D6DCE8"/>
<path d="M147.722 91.9972H142.08C141.274 91.9972 140.619 91.3423 140.619 90.5363V88.0176C140.619 87.2117 141.274 86.5568 142.08 86.5568H147.671C148.477 86.5568 149.132 87.2117 149.132 88.0176V90.5363C149.132 91.3423 148.477 91.9972 147.722 91.9972Z" fill="#D6DCE8"/>
<path d="M159.308 91.9972H153.716C152.91 91.9972 152.255 91.3423 152.255 90.5363V88.0176C152.255 87.2117 152.91 86.5568 153.716 86.5568H159.308C160.114 86.5568 160.769 87.2117 160.769 88.0176V90.5363C160.718 91.3423 160.114 91.9972 159.308 91.9972Z" fill="#D6DCE8"/>
<path d="M124.499 101.065H118.908C118.102 101.065 117.447 100.41 117.447 99.6037V97.085C117.447 96.279 118.102 95.6242 118.908 95.6242H124.499C125.305 95.6242 125.96 96.279 125.96 97.085V99.6037C125.96 100.46 125.305 101.065 124.499 101.065Z" fill="#D6DCE8"/>
<path d="M136.085 101.065H130.494C129.688 101.065 129.033 100.41 129.033 99.6037V97.085C129.033 96.279 129.688 95.6242 130.494 95.6242H136.085C136.891 95.6242 137.546 96.279 137.546 97.085V99.6037C137.546 100.46 136.891 101.065 136.085 101.065Z" fill="#D6DCE8"/>
<path d="M147.722 101.065H142.08C141.274 101.065 140.619 100.41 140.619 99.6037V97.085C140.619 96.279 141.274 95.6242 142.08 95.6242H147.671C148.477 95.6242 149.132 96.279 149.132 97.085V99.6037C149.132 100.46 148.477 101.065 147.722 101.065Z" fill="#D6DCE8"/>
<path d="M160.718 97.1354V108.772C160.718 109.578 160.063 110.233 159.308 110.233H153.716C152.91 110.233 152.255 109.578 152.255 108.772V97.1354C152.255 96.3294 152.91 95.6745 153.716 95.6745H159.308C160.114 95.6745 160.718 96.3294 160.718 97.1354Z" fill="#D6DCE8"/>
<path d="M124.499 110.182H118.908C118.102 110.182 117.447 109.527 117.447 108.721V106.203C117.447 105.397 118.102 104.742 118.908 104.742H124.499C125.305 104.742 125.96 105.397 125.96 106.203V108.721C125.96 109.578 125.305 110.182 124.499 110.182Z" fill="#D6DCE8"/>
<path d="M136.085 110.182H130.494C129.688 110.182 129.033 109.527 129.033 108.721V106.203C129.033 105.397 129.688 104.742 130.494 104.742H136.085C136.891 104.742 137.546 105.397 137.546 106.203V108.721C137.546 109.578 136.891 110.182 136.085 110.182Z" fill="#D6DCE8"/>
<path d="M147.722 110.182H142.08C141.274 110.182 140.619 109.527 140.619 108.721V106.203C140.619 105.397 141.274 104.742 142.08 104.742H147.671C148.477 104.742 149.132 105.397 149.132 106.203V108.721C149.132 109.578 148.477 110.182 147.722 110.182Z" fill="#D6DCE8"/>
<path d="M158.351 68.4221H119.865C118.555 68.4221 117.447 67.3642 117.447 66.0041V60.3119C117.447 59.0021 118.505 57.8939 119.865 57.8939H158.351C159.66 57.8939 160.769 58.9518 160.769 60.3119V66.0041C160.718 67.3139 159.66 68.4221 158.351 68.4221Z" fill="white"/>
<path d="M141.878 64.2915H156.285C156.991 64.2915 157.545 63.7374 157.545 63.0322C157.545 62.3269 156.991 61.7728 156.285 61.7728H141.878C141.173 61.7728 140.619 62.3269 140.619 63.0322C140.669 63.7374 141.223 64.2915 141.878 64.2915Z" fill="#D6DCE8"/>
<path d="M28.65 63.2903C28.942 62.3632 28.2594 61.3495 27.3092 61.1857C19.6409 59.5087 12.0724 63.8767 10.6623 71.535C9.50189 77.8219 13.108 84.5897 19.3061 87.4648C27.4802 91.295 36.6393 87.6603 39.097 79.8567C39.243 79.3931 39.3646 79.0068 39.4287 78.5143C39.6387 77.5582 38.9318 76.6218 37.8753 76.5064L26.2204 75.0531C25.5981 75.0051 25.1703 74.339 25.365 73.7209L28.65 63.2903V63.2903Z" fill="#BFC8D6"/>
<path d="M30.5604 62.2009C29.8468 61.8631 29.0204 62.1726 28.8013 62.8683C28.4118 64.1051 27.8276 65.9603 27.8276 65.9603C27.8276 65.9603 27.8276 65.9603 27.8276 65.9603L25.4419 73.5357C25.2228 74.2314 25.7327 74.9268 26.5193 75.0327L38.3434 76.5446C39.13 76.6505 39.7591 76.0995 39.7079 75.3943C39.5311 71.0372 37.3647 66.9224 33.7851 64.1125C32.7346 63.398 31.684 62.6835 30.5604 62.2009Z" fill="#989FB0"/>
<path d="M30.0189 39.3542H68.3229C70.3686 39.3542 72.1417 37.7748 72.1417 35.6737V11.3361C72.1417 9.26232 70.3967 7.51736 68.3229 7.51736H30.0189C27.9451 7.51736 26.2001 9.26232 26.2001 11.3361V35.5354C26.2001 37.6092 27.9451 39.3542 30.0189 39.3542Z" fill="url(#paint1_linear_1960_54364)" stroke="#D1DAF1"/>
<path d="M36.7947 32.7699H33.8908C33.1994 32.7699 32.7845 32.2168 32.7845 31.6636V29.1746C32.7845 28.4832 33.3377 28.0683 33.8908 28.0683H36.7947C37.4861 28.0683 37.901 28.6214 37.901 29.1746V31.6636C37.901 32.2168 37.4861 32.7699 36.7947 32.7699Z" fill="#AAB2C5"/>
<path d="M46.0596 32.7698H43.1557C42.4643 32.7698 42.0494 32.2166 42.0494 31.6635V25.8557C42.0494 25.1643 42.6026 24.7494 43.1557 24.7494H46.0596C46.751 24.7494 47.1659 25.3025 47.1659 25.8557V31.6635C47.1659 32.2166 46.751 32.7698 46.0596 32.7698Z" fill="#AAB2C5"/>
<path d="M55.3244 32.7698H52.4205C51.7291 32.7698 51.3143 32.2167 51.3143 31.6635V19.9096C51.3143 19.2182 51.8674 18.8033 52.4205 18.8033H55.3244C56.0158 18.8033 56.4307 19.3565 56.4307 19.9096V31.5253C56.4307 32.2167 55.8776 32.7698 55.3244 32.7698Z" fill="#AAB2C5"/>
<path d="M64.5893 32.7698H61.6854C60.9939 32.7698 60.5791 32.2167 60.5791 31.6635V15.3463C60.5791 14.6549 61.1322 14.24 61.6854 14.24H64.5893C65.2807 14.24 65.6955 14.7932 65.6955 15.3463V31.6635C65.6955 32.2167 65.1424 32.7698 64.5893 32.7698Z" fill="#AAB2C5"/>
<defs>
<filter id="filter0_d_1960_54364" x="90.7004" y="0.63707" width="61.0078" height="60.0745" filterUnits="userSpaceOnUse" color-interpolation-filters="sRGB">
<feFlood flood-opacity="0" result="BackgroundImageFix"/>
<feColorMatrix in="SourceAlpha" type="matrix" values="0 0 0 0 0 0 0 0 0 0 0 0 0 0 0 0 0 0 127 0" result="hardAlpha"/>
<feOffset dy="11"/>
<feGaussianBlur stdDeviation="11"/>
<feColorMatrix type="matrix" values="0 0 0 0 0.397708 0 0 0 0 0.47749 0 0 0 0 0.575 0 0 0 0.27 0"/>
<feBlend mode="normal" in2="BackgroundImageFix" result="effect1_dropShadow_1960_54364"/>
<feBlend mode="normal" in="SourceGraphic" in2="effect1_dropShadow_1960_54364" result="shape"/>
</filter>
<linearGradient id="paint0_linear_1960_54364" x1="90.2784" y1="8.40738" x2="90.2784" y2="122.82" gradientUnits="userSpaceOnUse">
<stop stop-color="#FDFEFF"/>
<stop offset="0.9964" stop-color="#ECF0F5"/>
</linearGradient>
<linearGradient id="paint1_linear_1960_54364" x1="49.1563" y1="7.30408" x2="49.1563" y2="39.1866" gradientUnits="userSpaceOnUse">
<stop stop-color="#FDFEFF"/>
<stop offset="0.9964" stop-color="#ECF0F5"/>
</linearGradient>
</defs>
</svg>
