<svg width="163" height="160" viewBox="0 0 163 160" fill="none" xmlns="http://www.w3.org/2000/svg">
<path d="M83.6173 123.754C114.076 123.754 138.768 98.9064 138.768 68.2559C138.768 37.6054 114.076 12.7582 83.6173 12.7582C53.1583 12.7582 28.4663 37.6054 28.4663 68.2559C28.4663 98.9064 53.1583 123.754 83.6173 123.754Z" fill="#EAEEF9"/>
<path d="M151.989 73.6119C153.708 72.0309 153.828 69.3469 152.257 67.617C150.686 65.887 148.019 65.7662 146.3 67.3471C144.58 68.928 144.46 71.612 146.031 73.342C147.602 75.072 150.27 75.1928 151.989 73.6119Z" fill="#EAEEF9"/>
<path d="M39.4221 26.0895C40.8792 25.613 41.6765 24.038 41.2029 22.5718C40.7293 21.1055 39.1642 20.3033 37.7071 20.7798C36.25 21.2564 35.4528 22.8313 35.9264 24.2976C36.3999 25.7638 37.965 26.5661 39.4221 26.0895Z" fill="#EAEEF9"/>
<path d="M22.3479 38.1448C23.3387 37.8208 23.8809 36.7498 23.5588 35.7528C23.2368 34.7557 22.1725 34.2102 21.1817 34.5342C20.1909 34.8583 19.6488 35.9293 19.9708 36.9263C20.2928 37.9233 21.3571 38.4689 22.3479 38.1448Z" fill="#EAEEF9"/>
<path d="M148.093 34.7539C148.817 34.0883 148.868 32.9582 148.206 32.2297C147.545 31.5013 146.422 31.4505 145.698 32.1161C144.974 32.7818 144.923 33.9119 145.585 34.6403C146.246 35.3687 147.369 35.4196 148.093 34.7539Z" fill="#EAEEF9"/>
<path d="M103.301 8.64331C103.799 8.18546 103.834 7.40817 103.379 6.90716C102.924 6.40615 102.152 6.37116 101.654 6.829C101.156 7.28684 101.121 8.06414 101.576 8.56515C102.031 9.06615 102.803 9.10115 103.301 8.64331Z" fill="#EAEEF9"/>
<g filter="url(#filter0_d_567_20131)">
<path d="M117.186 116.521C117.186 121.997 112.676 126.346 107.361 126.346H59.6839C54.2075 126.346 49.6975 121.836 49.6975 116.521V21.489C49.6975 16.0126 54.2075 11.6637 59.6839 11.6637H107.361C112.837 11.6637 117.186 16.1736 117.186 21.489V116.521Z" fill="url(#paint0_linear_567_20131)"/>
</g>
<path d="M112.032 102.186C112.032 105.246 109.616 107.501 106.717 107.501H60.6503C57.59 107.501 55.335 105.085 55.335 102.186V23.261C55.335 20.2006 57.751 17.9456 60.6503 17.9456H106.717C109.777 17.9456 112.032 20.3617 112.032 23.261V102.186Z" fill="#D5DDEA" stroke="#D6DCE8" stroke-width="1.9781" stroke-miterlimit="10"/>
<path d="M83.5223 121.837C86.2799 121.837 88.5155 119.601 88.5155 116.843C88.5155 114.086 86.2799 111.85 83.5223 111.85C80.7646 111.85 78.5291 114.086 78.5291 116.843C78.5291 119.601 80.7646 121.837 83.5223 121.837Z" fill="#C4CFDD"/>
<g filter="url(#filter1_d_567_20131)">
<path d="M100.596 70.9379V87.5282C100.596 89.9443 98.5022 91.8771 96.2472 91.8771H27.3088C24.7317 91.8771 22.7988 89.7832 22.7988 87.2061V70.7768C22.7988 68.1997 24.8928 66.1057 27.3088 66.1057H95.9251C98.3412 66.2668 100.596 68.1997 100.596 70.9379Z" fill="url(#paint1_linear_567_20131)"/>
</g>
<path d="M90.932 75.9313C90.932 76.2535 90.7709 76.5756 90.2877 76.5756H54.852C54.5299 76.5756 54.2078 76.2535 54.2078 75.9313V73.8374C54.2078 73.5153 54.5299 73.1931 54.852 73.1931H90.4487C90.7709 73.1931 91.093 73.5153 91.093 73.8374V75.9313H90.932Z" fill="#D6DCE8"/>
<path d="M76.5966 85.2735H54.852C54.5299 85.2735 54.2078 84.9513 54.2078 84.6292V82.6963C54.2078 82.3742 54.5299 82.052 54.852 82.052H76.5966C76.9188 82.052 77.2409 82.3742 77.2409 82.6963V84.7902C77.402 85.1124 77.0799 85.2735 76.5966 85.2735Z" fill="#D6DCE8"/>
<g filter="url(#filter2_d_567_20131)">
<path d="M139.897 48.5491C139.897 50.8041 138.125 52.5759 135.709 52.5759H72.7305C70.3144 52.5759 68.3816 50.6431 68.3816 48.227V34.0528C68.3816 31.7978 70.1534 30.026 72.5694 30.026H135.87C138.125 30.026 140.058 31.7978 140.058 34.0528L139.897 48.5491Z" fill="url(#paint2_linear_567_20131)"/>
</g>
<path d="M108.005 39.2069H76.5964C76.2743 39.2069 75.9521 39.0458 75.9521 38.7237V36.7908C75.9521 36.6298 76.2743 36.3076 76.5964 36.3076H108.005C108.166 36.3076 108.65 36.4687 108.65 36.7908V38.7237C108.65 39.0458 108.327 39.2069 108.005 39.2069Z" fill="#D6DCE8"/>
<path d="M95.925 46.9384H76.5964C76.2743 46.9384 75.9521 46.7773 75.9521 46.4552V44.5223C75.9521 44.3613 76.2743 44.0391 76.5964 44.0391H95.925C96.086 44.0391 96.5692 44.2002 96.5692 44.5223V46.4552C96.4082 46.6163 96.2471 46.9384 95.925 46.9384Z" fill="#D6DCE8"/>
<path d="M143.924 40.6567C143.924 44.6835 142.152 48.2271 139.736 51.1264C139.575 51.2874 139.253 51.6096 139.092 51.7706C136.354 54.3478 132.649 55.7974 128.783 55.7974C125.723 55.7974 122.663 54.831 120.086 53.2203C119.441 52.7371 118.797 52.0928 117.992 51.6096C115.253 49.0324 113.321 45.1667 113.321 40.8178C113.321 32.4421 120.086 25.6771 128.461 25.6771C136.998 25.6771 143.924 32.4421 143.924 40.6567Z" fill="#E9F0F8"/>
<path d="M143.924 40.6565C143.924 45.1665 141.991 49.0322 138.931 51.9315C136.193 54.5086 132.488 55.9583 128.622 55.9583C125.562 55.9583 122.502 54.9918 119.924 53.3811C115.898 50.804 113.321 46.1329 113.321 40.9787C113.321 32.603 120.086 25.838 128.461 25.838C136.998 25.838 143.924 32.4419 143.924 40.6565Z" fill="#F1F3F9"/>
<path d="M139.897 51.2875C139.736 51.4485 139.414 51.7707 139.253 51.9317C136.515 54.5089 132.81 55.9585 128.944 55.9585C125.884 55.9585 122.824 54.9921 120.247 53.3814C119.602 52.8982 118.958 52.2539 118.153 51.7707C118.475 51.2875 119.119 50.9653 120.247 50.4821L120.73 50.321C121.696 49.9989 122.985 49.5157 124.595 48.7103C124.757 48.5493 125.079 48.5493 125.24 48.2271C125.401 48.066 125.401 48.066 125.401 47.905C125.562 47.7439 125.562 47.4218 125.562 47.2607V44.2003C125.401 44.0393 125.401 44.0393 125.401 44.0393C125.24 43.7171 124.918 43.2339 124.918 42.7507L124.757 42.5896C123.951 42.7507 124.112 41.9453 123.79 40.3346C123.629 39.6903 123.79 39.5293 124.112 39.5293L124.273 39.2071C123.629 37.9186 123.468 36.7911 123.468 35.8246C123.468 34.2139 124.112 33.2475 125.079 32.7643C124.434 31.6368 124.434 31.3147 124.434 31.3147C124.434 31.3147 127.495 31.7979 128.622 31.6368C129.911 31.4757 132.166 31.7979 132.971 33.5696C134.26 34.0529 134.743 34.8582 135.065 35.8246C135.226 37.2743 134.421 38.885 134.26 39.5293V39.6903C134.421 39.8514 134.421 39.8514 134.421 40.4957C134.26 42.1064 134.26 42.9118 133.454 42.7507L132.649 44.0393C132.649 44.2003 132.649 44.2003 132.488 44.2003C132.488 44.3614 132.488 45.0057 132.488 47.4218C132.488 47.5828 132.649 48.066 132.649 48.2271C132.81 48.3882 132.81 48.3882 132.81 48.3882C132.971 48.5493 133.132 48.7103 133.454 48.7103C135.226 49.5157 136.515 49.9989 137.642 50.321C138.77 50.8042 139.414 50.9653 139.897 51.2875Z" fill="white"/>
<path d="M139.897 51.2875C139.736 51.4485 139.414 51.7707 139.253 51.9317C136.515 54.5089 132.81 55.9585 128.944 55.9585C125.884 55.9585 122.824 54.9921 120.247 53.3814C119.602 52.8982 118.958 52.2539 118.153 51.7707C118.475 51.2875 119.119 50.9653 120.247 50.4821L120.73 50.321C121.696 49.9989 122.985 49.5157 124.595 48.7103C124.757 48.5493 125.079 48.5493 125.24 48.2271C126.206 49.5157 127.656 50.321 129.428 50.321C131.199 50.321 132.488 49.5157 133.454 48.3882C133.615 48.5493 133.776 48.7103 134.099 48.7103C135.87 49.5157 137.159 49.9989 138.286 50.321C139.414 50.6432 139.575 50.9653 139.897 51.2875Z" fill="#D6DCE8"/>
<path d="M134.099 39.2071C134.26 38.885 133.938 38.4018 133.938 37.9186C133.938 37.7575 133.777 37.7575 133.777 37.7575C133.132 36.4689 131.683 36.1468 130.555 35.9857C127.173 35.8246 126.851 36.4689 125.884 35.5025C126.206 35.9857 126.206 36.7911 125.723 37.7575C125.401 38.4018 124.757 38.7239 123.951 39.0461C122.341 35.6636 123.307 33.4086 124.596 32.7643C123.951 31.6368 123.951 31.3147 123.951 31.3147C123.951 31.3147 127.012 31.7979 128.139 31.6368C129.428 31.4757 131.683 31.7979 132.488 33.5696C133.777 34.0529 134.26 34.8582 134.582 35.8246C135.065 37.1132 134.421 38.7239 134.099 39.2071Z" fill="#AAB2C5"/>
<path d="M47.1203 79.7971C47.1203 84.146 45.3485 88.0117 42.2882 90.7499C41.4828 91.5552 40.5164 92.0385 39.5499 92.6827C37.456 93.9713 34.7178 94.6156 31.9796 94.6156C29.2414 94.6156 26.6643 93.9713 24.4093 92.8438C23.9261 92.6827 23.765 92.3606 23.4428 92.1995C19.5771 89.6224 17 84.9513 17 79.9581C17 71.5824 23.765 65.1396 31.9796 65.1396C40.5164 64.8175 47.1203 71.5824 47.1203 79.7971Z" fill="#F1F3F9"/>
<path d="M28.9192 83.0182C29.2414 83.1793 29.2414 83.5014 29.5635 83.6625C29.8857 83.8236 29.8857 83.8236 30.2078 84.1457C30.3689 84.3068 30.5299 84.3068 30.5299 84.3068C30.5299 84.3068 30.691 84.3068 30.691 84.4678L30.8521 84.6289V85.9175C30.8521 85.9175 30.8521 85.9175 30.691 85.7564C30.5299 85.5953 30.3689 85.5953 30.3689 85.5953C30.0467 85.4343 30.0467 85.4343 29.7246 85.2732C29.5635 85.2732 29.5635 85.1121 29.4024 85.1121C28.7582 84.6289 28.2749 84.1457 28.2749 83.6625C28.2749 83.6625 28.5971 83.3403 28.9192 83.0182ZM41.8049 90.1053C41.1606 88.8168 40.5163 87.8503 39.0667 87.045C38.4224 86.8839 37.7781 86.5618 36.9728 86.5618C36.6506 86.5618 36.4896 86.5618 36.3285 86.5618C36.1674 86.5618 36.0064 86.5618 36.0064 86.5618C35.0399 86.4007 34.8789 86.4007 34.8789 86.4007V84.3068C35.5231 83.8236 36.1674 83.0182 36.6506 82.535C37.1339 82.0518 37.456 81.2464 37.6171 80.28C38.4224 80.1189 38.9056 79.4746 38.9056 78.5082C38.9056 78.1861 38.5835 77.7029 38.5835 77.3807C38.5835 77.2196 38.5835 77.0586 38.5835 76.8975C38.5835 76.7364 38.5835 76.7364 38.5835 76.5754C38.5835 76.4143 38.5835 76.4143 38.5835 76.2532C38.4224 75.6089 38.2613 74.9646 37.9392 74.3204C36.8117 72.3875 34.8789 70.9379 32.4628 70.9379C31.9796 70.9379 31.4964 71.0989 31.1742 71.0989C30.691 71.0989 29.8857 71.4211 29.2414 72.0654C29.0803 72.2264 28.9192 72.2264 28.9192 72.3875L28.7582 72.5486C28.1139 73.3539 27.4696 74.1593 26.9864 75.1257C26.6642 76.0921 26.6642 77.0586 26.8253 78.1861C26.8253 78.1861 26.8253 78.1861 26.8253 78.3471V78.5082C26.8253 78.6693 26.9864 78.6693 26.8253 78.6693C26.8253 78.8304 26.6642 78.8304 26.6642 78.8304C26.3421 78.9914 26.3421 79.4746 26.5032 80.1189C26.8253 80.9243 27.4696 80.9243 28.1139 81.4075C28.1139 81.4075 27.9528 81.4075 27.9528 81.5686L27.3085 81.7296C24.2482 82.535 23.2817 85.1121 24.5703 86.7228C25.0535 86.8839 25.8589 87.3671 26.9864 87.5282C26.6642 87.5282 26.3421 87.6893 26.3421 87.8503C25.0535 88.8168 24.2482 90.4275 23.926 91.8771C23.926 92.0382 23.926 92.0382 23.926 92.0382C24.2482 92.1993 24.5703 92.5214 24.8925 92.6825L39.3888 92.3603C40.3553 91.8771 40.6774 91.3939 41.4828 90.7496C41.4828 90.4275 41.966 90.2664 41.8049 90.1053Z" fill="white"/>
<path d="M42.2882 90.7499C41.4828 91.5552 40.5164 92.0384 39.55 92.6827C37.4561 93.9713 34.7178 94.6156 31.9796 94.6156C29.2414 94.6156 26.6643 93.8102 24.4093 92.6827C23.9261 92.5216 23.765 92.3606 23.4429 92.0384C23.4429 91.8773 23.4429 91.8774 23.4429 91.8774C23.765 90.4277 24.4093 88.817 25.8589 87.8506C26.02 87.5284 26.3422 87.5284 26.5032 87.3674C25.3757 87.2063 24.7314 86.7231 24.0872 86.0788H27.6307C28.5971 87.3674 30.3689 88.3338 32.1407 88.3338C33.7514 88.3338 35.2011 87.6895 36.1675 86.7231C36.3286 86.7231 36.4896 86.7231 36.4896 86.7231C36.8118 86.7231 36.8118 86.7231 37.1339 86.7231C37.7782 86.7231 38.5836 86.8841 39.2278 87.2063C40.5164 87.8506 41.3218 88.817 42.1271 90.2666C42.2882 90.4277 42.2882 90.4277 42.2882 90.7499Z" fill="#D6DCE8"/>
<path d="M39.0666 76.4144C37.9391 76.7366 36.6505 76.8977 35.5231 76.8977C33.5902 76.7366 31.6573 76.0923 30.2077 74.6427C29.7245 75.9312 28.4359 77.0587 27.1474 77.703C26.8252 77.8641 26.8252 77.8641 26.5031 77.8641C26.5031 77.8641 26.5031 77.8641 26.5031 77.703C26.342 76.7366 26.342 75.7702 26.8252 74.6427C27.1474 73.6762 27.7916 72.8709 28.597 72.0655L28.7581 71.9045C28.9191 71.7434 29.0802 71.7434 29.0802 71.5823C29.7245 71.0991 30.5298 70.777 31.4963 70.4548C31.9795 70.2937 32.4627 70.2937 32.7848 70.2937C35.2009 70.2937 37.2948 71.5823 38.2613 73.6762C38.5834 74.4816 38.9055 75.1259 38.9055 75.6091C39.0666 75.9312 39.0666 76.2534 39.0666 76.4144Z" fill="#AAB2C5"/>
<path d="M31.6575 89.9443C31.0132 90.5886 30.2078 90.5886 29.2414 90.5886C30.0468 89.7833 29.5636 87.045 26.5032 87.3672C22.3154 86.5618 22.7986 82.374 26.8254 81.2465L27.4696 81.0854H27.6307C27.9529 81.8908 28.275 82.6961 28.9193 83.1793C27.1475 84.4679 29.5636 84.79 30.6911 86.0786C31.6575 86.5618 32.4628 88.8168 31.6575 89.9443Z" fill="#AAB2C5"/>
<defs>
<filter id="filter0_d_567_20131" x="27.6975" y="0.663651" width="111.489" height="158.683" filterUnits="userSpaceOnUse" color-interpolation-filters="sRGB">
<feFlood flood-opacity="0" result="BackgroundImageFix"/>
<feColorMatrix in="SourceAlpha" type="matrix" values="0 0 0 0 0 0 0 0 0 0 0 0 0 0 0 0 0 0 127 0" result="hardAlpha"/>
<feOffset dy="11"/>
<feGaussianBlur stdDeviation="11"/>
<feColorMatrix type="matrix" values="0 0 0 0 0.397708 0 0 0 0 0.47749 0 0 0 0 0.575 0 0 0 0.27 0"/>
<feBlend mode="normal" in2="BackgroundImageFix" result="effect1_dropShadow_567_20131"/>
<feBlend mode="normal" in="SourceGraphic" in2="effect1_dropShadow_567_20131" result="shape"/>
</filter>
<filter id="filter1_d_567_20131" x="0.798828" y="55.1057" width="121.797" height="69.7714" filterUnits="userSpaceOnUse" color-interpolation-filters="sRGB">
<feFlood flood-opacity="0" result="BackgroundImageFix"/>
<feColorMatrix in="SourceAlpha" type="matrix" values="0 0 0 0 0 0 0 0 0 0 0 0 0 0 0 0 0 0 127 0" result="hardAlpha"/>
<feOffset dy="11"/>
<feGaussianBlur stdDeviation="11"/>
<feColorMatrix type="matrix" values="0 0 0 0 0.397708 0 0 0 0 0.47749 0 0 0 0 0.575 0 0 0 0.27 0"/>
<feBlend mode="normal" in2="BackgroundImageFix" result="effect1_dropShadow_567_20131"/>
<feBlend mode="normal" in="SourceGraphic" in2="effect1_dropShadow_567_20131" result="shape"/>
</filter>
<filter id="filter2_d_567_20131" x="46.3816" y="19.026" width="115.677" height="66.5499" filterUnits="userSpaceOnUse" color-interpolation-filters="sRGB">
<feFlood flood-opacity="0" result="BackgroundImageFix"/>
<feColorMatrix in="SourceAlpha" type="matrix" values="0 0 0 0 0 0 0 0 0 0 0 0 0 0 0 0 0 0 127 0" result="hardAlpha"/>
<feOffset dy="11"/>
<feGaussianBlur stdDeviation="11"/>
<feColorMatrix type="matrix" values="0 0 0 0 0.397708 0 0 0 0 0.47749 0 0 0 0 0.575 0 0 0 0.27 0"/>
<feBlend mode="normal" in2="BackgroundImageFix" result="effect1_dropShadow_567_20131"/>
<feBlend mode="normal" in="SourceGraphic" in2="effect1_dropShadow_567_20131" result="shape"/>
</filter>
<linearGradient id="paint0_linear_567_20131" x1="83.4199" y1="9.01093" x2="83.4199" y2="127.583" gradientUnits="userSpaceOnUse">
<stop stop-color="#FDFEFF"/>
<stop offset="0.9964" stop-color="#ECF0F5"/>
</linearGradient>
<linearGradient id="paint1_linear_567_20131" x1="61.6721" y1="65.5096" x2="61.6721" y2="92.1549" gradientUnits="userSpaceOnUse">
<stop stop-color="#FDFEFF"/>
<stop offset="0.9964" stop-color="#ECF0F5"/>
</linearGradient>
<linearGradient id="paint2_linear_567_20131" x1="104.197" y1="29.5044" x2="104.197" y2="52.819" gradientUnits="userSpaceOnUse">
<stop stop-color="#FDFEFF"/>
<stop offset="0.9964" stop-color="#ECF0F5"/>
</linearGradient>
</defs>
</svg>
