<svg width="256" height="248" viewBox="0 0 256 248" fill="none" xmlns="http://www.w3.org/2000/svg">
<path d="M97.1101 26.8851C43.477 41.7334 12.0356 97.2487 26.884 150.882C41.7323 204.515 97.2476 235.956 150.881 221.108C204.514 206.26 235.955 150.744 221.107 97.1112C206.259 43.478 150.743 12.0367 97.1101 26.8851Z" fill="#EAEEF9"/>
<path d="M67.5357 67.1812L69.3588 66.2609C69.4553 66.2342 69.6216 66.0842 69.5681 65.8913L69.4198 63.8544C69.4362 63.5382 69.5757 63.2918 69.8652 63.2117C70.1547 63.1315 70.4977 63.2444 70.5778 63.5339L71.4981 65.3569C71.5248 65.4534 71.6747 65.6197 71.8677 65.5663L73.9045 65.418C74.2207 65.4343 74.4672 65.5739 74.5473 65.8634C74.6275 66.1529 74.5146 66.4958 74.2251 66.5759L72.402 67.4962C72.3055 67.5229 72.1393 67.6729 72.1927 67.8659L72.341 69.9027C72.3247 70.2189 72.1851 70.4653 71.8956 70.5455C71.6061 70.6256 71.2632 70.5128 71.183 70.2233L70.2627 68.4002C70.236 68.3037 70.0861 68.1374 69.8931 68.1908L67.8563 68.3391C67.5401 68.3228 67.2937 68.1832 67.2135 67.8937C67.1334 67.6042 67.2462 67.2613 67.5357 67.1812Z" fill="#D6DCE8"/>
<path d="M132.837 87.1447L134.31 86.4014C134.388 86.3798 134.522 86.2587 134.479 86.1028L134.359 84.4577C134.372 84.2024 134.485 84.0033 134.719 83.9386C134.953 83.8739 135.23 83.965 135.294 84.1988L136.038 85.6713C136.059 85.7492 136.18 85.8835 136.336 85.8404L137.981 85.7206C138.237 85.7338 138.436 85.8465 138.5 86.0803C138.565 86.3141 138.474 86.5911 138.24 86.6558L136.768 87.3991C136.69 87.4207 136.555 87.5418 136.599 87.6977L136.718 89.3428C136.705 89.5982 136.592 89.7972 136.359 89.8619C136.125 89.9267 135.848 89.8355 135.783 89.6017L135.04 88.1292C135.018 88.0513 134.897 87.917 134.741 87.9602L133.096 88.0799C132.841 88.0667 132.642 87.954 132.577 87.7202C132.456 87.5859 132.625 87.2873 132.837 87.1447Z" fill="#D6DCE8"/>
<path d="M208.959 120.894L210.344 118.816C210.431 118.73 210.518 118.47 210.344 118.297L208.959 116.219C208.786 115.873 208.786 115.527 209.046 115.267C209.306 115.008 209.739 114.921 209.998 115.181L212.076 116.566C212.162 116.652 212.422 116.739 212.595 116.566L214.673 115.181C215.019 115.008 215.365 115.008 215.625 115.267C215.884 115.527 215.971 115.96 215.711 116.219L214.326 118.297C214.24 118.384 214.153 118.643 214.326 118.816L215.711 120.894C215.884 121.24 215.884 121.586 215.625 121.846C215.365 122.106 214.932 122.192 214.673 121.933L212.595 120.548C212.509 120.461 212.249 120.374 212.076 120.548L209.998 121.933C209.652 122.106 209.306 122.106 209.046 121.846C208.786 121.586 208.7 121.153 208.959 120.894Z" fill="#D6DCE8"/>
<path d="M110.38 211.075L112.863 209.822C112.995 209.785 113.221 209.581 113.148 209.318L112.946 206.544C112.969 206.113 113.159 205.778 113.553 205.669C113.947 205.559 114.414 205.713 114.523 206.107L115.777 208.59C115.813 208.722 116.017 208.948 116.28 208.876L119.054 208.674C119.485 208.696 119.821 208.886 119.93 209.28C120.039 209.674 119.885 210.142 119.491 210.251L117.008 211.504C116.877 211.54 116.65 211.745 116.723 212.008L116.925 214.782C116.903 215.212 116.713 215.548 116.318 215.657C115.924 215.766 115.457 215.613 115.348 215.218L114.094 212.735C114.058 212.604 113.854 212.377 113.591 212.45L110.817 212.652C110.386 212.63 110.051 212.44 109.941 212.045C109.832 211.651 109.986 211.184 110.38 211.075Z" fill="#D6DCE8"/>
<path d="M16.8449 189.74L22.3742 189.24C22.8528 189.108 23.2246 189.52 23.2908 189.759L25.7055 194.759C26.1435 195.41 27.0601 195.929 27.778 195.731C28.4958 195.532 29.0812 194.855 29.0555 193.831L28.5552 188.302C28.4227 187.823 28.835 187.451 29.0743 187.385L34.0737 184.971C34.7254 184.533 35.2445 183.616 35.0457 182.898C34.847 182.18 34.1697 181.595 33.1463 181.621L27.6169 182.121C27.1383 182.253 26.7666 181.841 26.7003 181.602L24.2857 176.602C23.8477 175.951 22.931 175.432 22.2132 175.63C21.4953 175.829 20.9099 176.506 20.9356 177.53L21.4359 183.059C21.5684 183.538 21.1561 183.909 20.9168 183.976L15.9174 186.39C15.2658 186.828 14.7467 187.745 14.9454 188.463C15.2104 189.42 16.127 189.939 16.8449 189.74Z" fill="#EAEEF9"/>
<path d="M26.0278 49.3763L31.1261 48.915C31.5674 48.7928 31.9101 49.173 31.9712 49.3936L34.1976 54.0032C34.6014 54.604 35.4466 55.0827 36.1085 54.8994C36.7704 54.7162 37.3101 54.0917 37.2864 53.148L36.8251 48.0498C36.703 47.6086 37.0831 47.2658 37.3038 47.2047L41.9134 44.9784C42.5142 44.5745 42.9928 43.7293 42.8096 43.0675C42.6263 42.4056 42.0018 41.8658 41.0582 41.8895L35.96 42.3508C35.5187 42.4729 35.1759 42.0928 35.1148 41.8721L32.8885 37.2626C32.4846 36.6617 31.6395 36.1831 30.9776 36.3663C30.3157 36.5496 29.776 37.1741 29.7997 38.1177L30.2609 43.2159C30.3831 43.6572 30.0029 44 29.7823 44.0611L25.1727 46.2874C24.5719 46.6913 24.0932 47.5364 24.2765 48.1983C24.5208 49.0809 25.3659 49.5595 26.0278 49.3763Z" fill="#EAEEF9"/>
<path d="M227.988 144.867L234.938 147.343C235.589 147.45 235.808 148.155 235.754 148.48L235.882 155.857C236.048 156.887 236.864 158.024 237.841 158.184C238.818 158.344 239.901 157.853 240.441 156.604L242.917 149.655C243.024 149.004 243.728 148.785 244.054 148.838L251.43 148.71C252.461 148.545 253.597 147.728 253.758 146.751C253.918 145.775 253.427 144.691 252.178 144.152L245.228 141.675C244.577 141.569 244.358 140.864 244.412 140.538L244.284 133.162C244.118 132.132 243.302 130.995 242.325 130.835C241.348 130.675 240.265 131.166 239.726 132.415L237.249 139.364C237.142 140.015 236.438 140.234 236.112 140.181L228.736 140.309C227.706 140.474 226.569 141.291 226.409 142.268C226.195 143.57 227.012 144.707 227.988 144.867Z" fill="#EAEEF9"/>
<path d="M82.2461 74.7199C81.6004 74.8986 81.2219 75.567 81.4007 76.2126C81.5794 76.8583 82.2478 77.2368 82.8934 77.058C83.5391 76.8793 83.9176 76.211 83.7388 75.5653C83.5601 74.9196 82.8918 74.5411 82.2461 74.7199Z" fill="#D6DCE8"/>
<path d="M123.996 105.2C123.35 105.379 122.972 106.047 123.151 106.693C123.329 107.339 123.998 107.717 124.643 107.539C125.289 107.36 125.668 106.691 125.489 106.046C125.31 105.4 124.642 105.022 123.996 105.2Z" fill="#D6DCE8"/>
<path d="M111.982 32.7802C111.64 33.3563 111.83 34.1005 112.406 34.4425C112.982 34.7845 113.726 34.5947 114.068 34.0187C114.41 33.4426 114.22 32.6983 113.644 32.3563C113.068 32.0144 112.324 32.2041 111.982 32.7802Z" fill="#D6DCE8"/>
<path d="M42.154 86.1835C41.812 86.7596 42.0017 87.5038 42.5778 87.8458C43.1539 88.1878 43.8981 87.9981 44.2401 87.422C44.5821 86.8459 44.3924 86.1017 43.8163 85.7597C43.2402 85.4177 42.496 85.6074 42.154 86.1835Z" fill="#D6DCE8"/>
<path d="M47.2399 133.886C46.8979 134.462 47.0877 135.206 47.6638 135.548C48.2398 135.89 48.9841 135.7 49.3261 135.124C49.6681 134.548 49.4783 133.804 48.9022 133.462C48.3262 133.12 47.5819 133.31 47.2399 133.886Z" fill="#D6DCE8"/>
<path d="M60.4665 181.561C60.1245 182.138 60.3142 182.882 60.8903 183.224C61.4664 183.566 62.2106 183.376 62.5526 182.8C62.8946 182.224 62.7049 181.48 62.1288 181.138C61.5527 180.796 60.8085 180.985 60.4665 181.561Z" fill="#D6DCE8"/>
<path d="M92.4665 205.926C92.1245 206.502 92.3142 207.246 92.8903 207.588C93.4664 207.93 94.2106 207.74 94.5526 207.164C94.8946 206.588 94.7049 205.844 94.1288 205.502C93.5527 205.16 92.8085 205.35 92.4665 205.926Z" fill="#D6DCE8"/>
<path d="M151.006 206.316C150.664 206.892 150.853 207.637 151.429 207.979C152.005 208.321 152.75 208.131 153.092 207.555C153.434 206.979 153.244 206.234 152.668 205.892C152.092 205.55 151.348 205.74 151.006 206.316Z" fill="#D6DCE8"/>
<path d="M213.451 130.561C213.109 131.138 213.299 131.882 213.875 132.224C214.451 132.566 215.195 132.376 215.537 131.8C215.879 131.224 215.689 130.48 215.113 130.138C214.537 129.796 213.793 129.985 213.451 130.561Z" fill="#D6DCE8"/>
<path d="M188.935 70.0429C188.593 70.619 188.783 71.3632 189.359 71.7052C189.935 72.0472 190.679 71.8574 191.021 71.2814C191.363 70.7053 191.174 69.961 190.598 69.619C190.021 69.277 189.277 69.4668 188.935 70.0429Z" fill="#D6DCE8"/>
<path d="M148.086 127.654L154.266 122.955L152.067 120.037L145.888 124.736L148.086 127.654Z" fill="#989FB0"/>
<path d="M188.661 109.258L174.587 90.5653L145.93 112.373L160.004 131.066L188.661 109.258Z" fill="white" stroke="#989FB0" stroke-width="2" stroke-miterlimit="10"/>
<path d="M167.447 125.714L152.992 106.617" stroke="#989FB0" stroke-width="2" stroke-miterlimit="10"/>
<path d="M174.526 120.362L160.07 101.265" stroke="#989FB0" stroke-width="2" stroke-miterlimit="10"/>
<path d="M181.588 115.011L167.133 95.9146" stroke="#989FB0" stroke-width="2" stroke-miterlimit="10"/>
<path d="M179.034 96.9388L150.758 118.342" stroke="#989FB0" stroke-width="2" stroke-miterlimit="10"/>
<path d="M183.862 103.316L155.586 124.719" stroke="#989FB0" stroke-width="2" stroke-miterlimit="10"/>
<path d="M155.075 151.95C152.832 153.648 149.643 153.203 147.941 150.955L145.12 147.228C144.98 147.043 145.017 146.773 145.201 146.633L152.67 140.98C152.854 140.84 153.125 140.878 153.265 141.063L156.086 144.79C157.757 147.062 157.288 150.275 155.075 151.95Z" fill="#D5DDEA"/>
<path d="M137.411 113.671L122.996 124.583L142.814 150.764L142.837 150.794C142.837 150.794 142.837 150.794 142.86 150.825C143.684 151.849 147.54 150.238 151.505 147.237C155.47 144.236 158.037 140.985 157.306 139.891C157.306 139.891 157.306 139.891 157.282 139.86L157.259 139.829L137.442 113.648L137.411 113.671Z" fill="white"/>
<path d="M144.52 123.066L150.022 130.335L150.045 130.366L150.069 130.397C150.831 131.467 148.233 134.742 144.268 137.743C140.303 140.744 136.477 142.332 135.623 141.331L135.6 141.3L135.577 141.27L130.074 134C130.898 135.024 134.754 133.413 138.719 130.412C142.684 127.411 145.258 124.106 144.52 123.066Z" fill="#989FB0"/>
<path d="M137.938 101.565C141.677 106.528 138.752 115.093 131.393 120.689C124.034 126.286 115.004 126.813 111.265 121.85C111.243 121.82 111.22 121.79 111.197 121.76C111.175 121.73 111.129 121.669 111.107 121.639C109.911 119.663 114.723 113.732 121.958 108.23C129.192 102.728 136.202 99.7155 137.748 101.379C137.771 101.409 137.816 101.469 137.839 101.499C137.87 101.475 137.893 101.505 137.938 101.565Z" fill="#D5DDEA"/>
<path d="M137.71 101.397L137.732 101.427C138.153 102.049 137.924 103.164 137.14 104.512C135.566 107.262 131.825 111.139 126.969 114.827C122.113 118.516 117.349 121.099 114.315 121.85C112.809 122.241 111.678 122.159 111.195 121.584L111.173 121.554C111.15 121.524 111.127 121.494 111.105 121.464C109.914 119.498 114.707 113.598 121.913 108.124C129.119 102.65 136.102 99.6524 137.642 101.307C137.664 101.337 137.687 101.367 137.71 101.397Z" fill="#D5DDEA"/>
<path d="M137.132 104.527L137.154 104.557C135.581 107.302 131.845 111.173 126.995 114.855C122.144 118.538 117.385 121.117 114.355 121.867L114.332 121.837C114.31 121.807 114.287 121.778 114.287 121.778C113.269 120.107 117.389 115.005 123.568 110.314C129.777 105.6 135.76 103.031 137.087 104.468C137.087 104.468 137.109 104.497 137.132 104.527Z" fill="#989FB0"/>
<path d="M125.938 110.52C126.044 110.728 125.528 111.36 124.771 111.936C123.982 112.535 123.236 112.862 123.074 112.649L117.916 104.555L119.399 103.427L125.892 110.459L125.938 110.52Z" fill="#989FB0"/>
<path d="M119.284 104.67C120.251 103.935 120.462 102.58 119.757 101.643C119.052 100.706 117.697 100.543 116.73 101.278C115.764 102.014 115.552 103.369 116.257 104.306C116.963 105.243 118.318 105.406 119.284 104.67Z" fill="#989FB0"/>
<path d="M105.055 172.662L90.9805 153.969L119.637 132.162L133.712 150.855L105.055 172.662Z" fill="white" stroke="#989FB0" stroke-width="2" stroke-miterlimit="10"/>
<path d="M126.647 156.61L112.191 137.513" stroke="#989FB0" stroke-width="2" stroke-miterlimit="10"/>
<path d="M119.576 161.961L105.121 142.864" stroke="#989FB0" stroke-width="2" stroke-miterlimit="10"/>
<path d="M112.506 167.311L98.0508 148.214" stroke="#989FB0" stroke-width="2" stroke-miterlimit="10"/>
<path d="M95.8086 159.941L124.085 138.537" stroke="#989FB0" stroke-width="2" stroke-miterlimit="10"/>
<path d="M100.637 166.318L128.913 144.914" stroke="#989FB0" stroke-width="2" stroke-miterlimit="10"/>
<path d="M131.543 135.601L125.363 140.3L127.562 143.218L133.741 138.519L131.543 135.601Z" fill="#989FB0"/>
<path d="M184 154.001C174.453 154.001 165.295 157.793 158.544 164.545C151.792 171.296 148 180.453 148 190.001C148 199.549 151.793 208.705 158.544 215.457C165.295 222.208 174.452 226.001 184 226.001C193.548 226.001 202.705 222.208 209.456 215.457C216.207 208.705 220 199.548 220 190.001C219.991 180.456 216.195 171.304 209.446 164.554C202.696 157.805 193.545 154.009 183.999 154L184 154.001ZM184 157.429C192.062 157.473 199.815 160.53 205.737 166.001L160.001 211.737C154.351 205.493 151.346 197.3 151.617 188.882C151.888 180.466 155.417 172.484 161.457 166.617C167.497 160.749 175.579 157.456 184 157.429ZM184 222.574C175.962 222.575 168.211 219.581 162.263 214.173L208.171 168.265C213.834 174.524 216.84 182.741 216.553 191.176C216.265 199.613 212.707 207.606 206.633 213.466C200.556 219.326 192.44 222.592 183.999 222.574L184 222.574Z" fill="#A0A9BA"/>
</svg>
