<svg width="197" height="148" viewBox="0 0 197 148" fill="none" xmlns="http://www.w3.org/2000/svg">
<g filter="url(#filter0_d_6_9016)">
<path d="M81.9821 92.7927L37.4982 101.918C36.8479 102.019 36.2514 101.681 36.1505 101.031L22.5851 34.6271C22.4842 33.9769 22.8221 33.3803 23.4724 33.2795L67.9563 24.1538C68.6066 24.053 69.2031 24.3908 69.304 25.0411L82.942 91.4419C83.0397 92.0196 82.6324 92.6918 81.9821 92.7927Z" fill="url(#paint0_linear_6_9016)"/>
</g>
<path d="M34.8265 66.6414L52.2321 63.0649" stroke="#D5DDEA" stroke-width="2" stroke-miterlimit="10" stroke-linecap="round" stroke-linejoin="round"/>
<path d="M57.4203 62.0141L61.2427 61.229" stroke="#D5DDEA" stroke-width="2" stroke-miterlimit="10" stroke-linecap="round" stroke-linejoin="round"/>
<path d="M65.8842 60.2705L69.7066 59.4853" stroke="#D5DDEA" stroke-width="2" stroke-miterlimit="10" stroke-linecap="round" stroke-linejoin="round"/>
<path d="M35.7875 71.3514L53.1931 67.7748" stroke="#D5DDEA" stroke-width="2" stroke-miterlimit="10" stroke-linecap="round" stroke-linejoin="round"/>
<path d="M58.3793 66.6554L62.2047 65.9389" stroke="#D5DDEA" stroke-width="2" stroke-miterlimit="10" stroke-linecap="round" stroke-linejoin="round"/>
<path d="M66.7768 64.9836L70.5992 64.1984" stroke="#D5DDEA" stroke-width="2" stroke-miterlimit="10" stroke-linecap="round" stroke-linejoin="round"/>
<path d="M36.746 75.9927L54.1516 72.4162" stroke="#D5DDEA" stroke-width="2" stroke-miterlimit="10" stroke-linecap="round" stroke-linejoin="round"/>
<path d="M59.3398 71.3654L63.1622 70.5803" stroke="#D5DDEA" stroke-width="2" stroke-miterlimit="10" stroke-linecap="round" stroke-linejoin="round"/>
<path d="M67.7348 69.6247L71.5572 68.8396" stroke="#D5DDEA" stroke-width="2" stroke-miterlimit="10" stroke-linecap="round" stroke-linejoin="round"/>
<path d="M37.7044 80.6342L55.113 77.1264" stroke="#D5DDEA" stroke-width="2" stroke-miterlimit="10" stroke-linecap="round" stroke-linejoin="round"/>
<path d="M40.4063 93.7386L45.3196 92.6997" stroke="#D5DDEA" stroke-width="2" stroke-miterlimit="10" stroke-linecap="round" stroke-linejoin="round"/>
<path d="M39.7074 90.3261L48.4461 88.5708" stroke="#D5DDEA" stroke-width="2" stroke-miterlimit="10" stroke-linecap="round" stroke-linejoin="round"/>
<path d="M66.557 86.9604L75.227 85.208" stroke="#D5DDEA" stroke-width="2" stroke-miterlimit="10" stroke-linecap="round" stroke-linejoin="round"/>
<path d="M60.2982 76.0063L64.1207 75.2212" stroke="#D5DDEA" stroke-width="2" stroke-miterlimit="10" stroke-linecap="round" stroke-linejoin="round"/>
<path d="M68.6962 74.3352L72.5186 73.55" stroke="#D5DDEA" stroke-width="2" stroke-miterlimit="10" stroke-linecap="round" stroke-linejoin="round"/>
<path d="M40.708 41.3821C39.2094 41.6972 38.164 42.9768 37.9912 44.5365C37.938 44.8788 38.1845 45.1581 38.5109 45.222C38.8373 45.2858 39.097 45.0325 39.1502 44.6901C39.2499 43.6757 40.0023 42.7889 40.9614 42.5872C41.9205 42.3855 42.9531 42.8307 43.4662 43.7825C43.6528 44.0745 43.9925 44.2017 44.2655 44.0118C44.5386 43.8219 44.6517 43.467 44.4651 43.1751C43.6655 41.7537 42.2066 41.067 40.708 41.3821Z" fill="#989FB0"/>
<path d="M54.4609 38.4903C52.9623 38.8054 51.9169 40.0849 51.7441 41.6446C51.6909 41.987 51.9375 42.2663 52.2639 42.3301C52.5903 42.3939 52.85 42.1406 52.9032 41.7983C53.0028 40.7838 53.7552 39.8971 54.7143 39.6954C55.6734 39.4937 56.706 39.9389 57.2191 40.8907C57.4057 41.1826 57.7454 41.3099 58.0185 41.12C58.2915 40.9301 58.4046 40.5751 58.2181 40.2832C57.4184 38.8618 55.9595 38.1751 54.4609 38.4903Z" fill="#989FB0"/>
<path d="M45.3257 46.5837L46.192 46.3948C47.2738 47.8342 49.3371 48.0124 50.6954 46.8785C51.237 46.4811 51.6538 45.8317 51.7896 45.1738L52.6559 44.9849C52.3734 47.2106 50.207 48.8 48.0334 48.4364C47.0133 48.2401 45.9726 47.6294 45.3257 46.5837Z" fill="#989FB0"/>
<circle opacity="0.4" cx="59.2673" cy="46.7115" r="2.34229" transform="rotate(-11.8756 59.2673 46.7115)" fill="#D5DDEA"/>
<circle opacity="0.4" cx="39.6199" cy="50.8434" r="2.34229" transform="rotate(-11.8756 39.6199 50.8434)" fill="#D5DDEA"/>
<g filter="url(#filter1_d_6_9016)">
<path d="M124.341 111.643L75.2639 114.516C74.5558 114.59 74.0095 114.036 73.9359 113.328L69.6615 40.1838C69.5879 39.4757 70.1421 38.9293 70.8502 38.8558L119.927 35.9822C120.635 35.9086 121.182 36.4628 121.255 37.1709L125.53 110.315C125.525 111.022 125.049 111.569 124.341 111.643Z" fill="url(#paint1_linear_6_9016)"/>
</g>
<path d="M91.1755 78.1873L114.745 76.8114" stroke="#D5DDEA" stroke-width="2" stroke-miterlimit="10" stroke-linecap="round" stroke-linejoin="round"/>
<path d="M90.9377 73.8901L114.44 72.5138" stroke="#D5DDEA" stroke-width="2" stroke-miterlimit="10" stroke-linecap="round" stroke-linejoin="round"/>
<path d="M91.4133 82.4846L114.983 81.1088" stroke="#D5DDEA" stroke-width="2" stroke-miterlimit="10" stroke-linecap="round" stroke-linejoin="round"/>
<path d="M80.639 87.3753L115.221 85.3395" stroke="#D5DDEA" stroke-width="2" stroke-miterlimit="10" stroke-linecap="round" stroke-linejoin="round"/>
<path d="M80.8772 91.6721L100.648 90.4709" stroke="#D5DDEA" stroke-width="2" stroke-miterlimit="10" stroke-linecap="round" stroke-linejoin="round"/>
<path d="M81.7276 106.033L86.6296 105.732" stroke="#D5DDEA" stroke-width="2" stroke-miterlimit="10" stroke-linecap="round" stroke-linejoin="round"/>
<path d="M81.5504 102.675L90.2128 102.133" stroke="#D5DDEA" stroke-width="2" stroke-miterlimit="10" stroke-linecap="round" stroke-linejoin="round"/>
<path d="M107.537 101.116L116.132 100.64" stroke="#D5DDEA" stroke-width="2" stroke-miterlimit="10" stroke-linecap="round" stroke-linejoin="round"/>
<path d="M87.8566 83.3978C87.7894 83.3972 87.7222 83.3967 87.7226 83.3296L86.5953 80.9064L82.3608 81.1399L81.5388 83.6812C81.5384 83.7483 81.4708 83.8148 81.4036 83.8142L80.5298 83.8741C80.4626 83.8736 80.3954 83.873 80.3958 83.806C80.329 83.7383 80.329 83.7384 80.3966 83.6718L83.4097 74.51C83.4101 74.443 83.4777 74.3765 83.5449 74.377L84.7547 74.3199C84.8219 74.3204 84.8891 74.321 84.8887 74.388L89.0004 83.139C89 83.206 88.9996 83.2731 88.9996 83.2731C88.9992 83.3401 88.932 83.3396 88.8648 83.339L87.8566 83.3978ZM82.6366 80.0022L86.0645 79.8292L84.0758 75.4542L82.6366 80.0022Z" fill="#D5DDEA"/>
<path d="M104.373 52.2775C105.403 52.2117 106.229 51.2726 106.164 50.2428C106.098 49.213 105.159 48.3866 104.129 48.4523C103.099 48.5181 102.273 49.4572 102.338 50.487C102.409 51.5904 103.27 52.3479 104.373 52.2775Z" fill="#989FB0"/>
<path d="M89.4976 53.2504C90.5275 53.1846 91.3538 52.2455 91.2881 51.2157C91.2223 50.1859 90.2832 49.3595 89.2534 49.4252C88.2235 49.491 87.3972 50.4301 87.4629 51.4599C87.6069 52.5586 88.4678 53.3161 89.4976 53.2504Z" fill="#989FB0"/>
<path d="M93.8853 56.6868C94.0653 58.3877 95.4802 59.6681 97.1192 59.5758C98.7582 59.4834 100.02 58.0522 100.008 56.3418L93.8853 56.6868Z" fill="#989FB0"/>
<circle opacity="0.4" cx="108.331" cy="58.7101" r="2.53393" transform="rotate(-3.22458 108.331 58.7101)" fill="#D5DDEA"/>
<circle opacity="0.4" cx="86.6466" cy="59.9321" r="2.53393" transform="rotate(-3.22458 86.6466 59.9321)" fill="#D5DDEA"/>
<g filter="url(#filter2_d_6_9016)">
<path d="M173.537 79.4812L129.51 90.5005C128.876 90.6747 128.256 90.2956 128.081 89.661L111.64 23.9382C111.465 23.3037 111.845 22.6837 112.479 22.5095L156.506 11.4902C157.14 11.316 157.76 11.6951 157.935 12.3297L174.376 78.0524C174.551 78.687 174.172 79.307 173.537 79.4812Z" fill="url(#paint2_linear_6_9016)"/>
</g>
<path d="M123.376 50.5781L128.833 72.3538L164.46 63.4254L159.003 41.6497L123.376 50.5781Z" stroke="#D5DDEA" stroke-width="2" stroke-miterlimit="10" stroke-linecap="round" stroke-linejoin="round"/>
<path d="M131.342 82.1738L136.357 80.9437" stroke="#D5DDEA" stroke-width="2" stroke-miterlimit="10" stroke-linecap="round" stroke-linejoin="round"/>
<path d="M130.426 78.7156L139.321 76.4773" stroke="#D5DDEA" stroke-width="2" stroke-miterlimit="10" stroke-linecap="round" stroke-linejoin="round"/>
<path d="M157.992 74.0205L166.888 71.7822" stroke="#D5DDEA" stroke-width="2" stroke-miterlimit="10" stroke-linecap="round" stroke-linejoin="round"/>
<path d="M132.081 48.4701L137.526 70.2339" stroke="#D5DDEA" stroke-width="2" stroke-miterlimit="10" stroke-linecap="round" stroke-linejoin="round"/>
<path d="M141.175 46.1531L146.686 67.8906" stroke="#D5DDEA" stroke-width="2" stroke-miterlimit="10" stroke-linecap="round" stroke-linejoin="round"/>
<path d="M150.36 43.8764L155.805 65.6401" stroke="#D5DDEA" stroke-width="2" stroke-miterlimit="10" stroke-linecap="round" stroke-linejoin="round"/>
<path d="M124.797 56.1069L160.38 47.1538" stroke="#D5DDEA" stroke-width="2" stroke-miterlimit="10" stroke-linecap="round" stroke-linejoin="round"/>
<path d="M126.119 61.5452L161.728 52.658" stroke="#D5DDEA" stroke-width="2" stroke-miterlimit="10" stroke-linecap="round" stroke-linejoin="round"/>
<path d="M127.533 67.022L163.116 58.0688" stroke="#D5DDEA" stroke-width="2" stroke-miterlimit="10" stroke-linecap="round" stroke-linejoin="round"/>
<path d="M130.001 27.434C128.215 27.8658 127.007 29.4382 126.856 31.3151C126.804 31.7277 127.11 32.0539 127.504 32.1187C127.898 32.1835 128.2 31.8703 128.252 31.4578C128.335 30.2374 129.205 29.1467 130.349 28.8703C131.492 28.594 132.746 29.0908 133.396 30.214C133.63 30.5575 134.042 30.6979 134.363 30.4603C134.684 30.2228 134.807 29.7929 134.572 29.4495C133.562 27.7733 131.787 27.0021 130.001 27.434Z" fill="#989FB0"/>
<path d="M142.036 24.5246C140.399 24.9204 139.316 26.4626 139.212 28.328C139.172 28.7377 139.46 29.0682 139.824 29.1402C140.188 29.2122 140.461 28.9062 140.501 28.4966C140.554 27.2834 141.335 26.2143 142.383 25.9609C143.431 25.7076 144.596 26.2261 145.216 27.3565C145.439 27.7028 145.821 27.8504 146.112 27.62C146.403 27.3897 146.508 26.9642 146.285 26.6178C145.323 24.9301 143.673 24.1287 142.036 24.5246Z" fill="#989FB0"/>
<path d="M139.495 38.2204C140.572 37.9598 141.235 36.8749 140.974 35.7971C140.714 34.7194 139.629 34.0569 138.551 34.3175C137.473 34.5781 136.811 35.663 137.071 36.7408C137.332 37.8185 138.417 38.481 139.495 38.2204Z" fill="#989FB0"/>
<defs>
<filter id="filter0_d_6_9016" x="0.567383" y="13.1362" width="104.389" height="121.8" filterUnits="userSpaceOnUse" color-interpolation-filters="sRGB">
<feFlood flood-opacity="0" result="BackgroundImageFix"/>
<feColorMatrix in="SourceAlpha" type="matrix" values="0 0 0 0 0 0 0 0 0 0 0 0 0 0 0 0 0 0 127 0" result="hardAlpha"/>
<feOffset dy="11"/>
<feGaussianBlur stdDeviation="11"/>
<feColorMatrix type="matrix" values="0 0 0 0 0.397708 0 0 0 0 0.47749 0 0 0 0 0.575 0 0 0 0.27 0"/>
<feBlend mode="normal" in2="BackgroundImageFix" result="effect1_dropShadow_6_9016"/>
<feBlend mode="normal" in="SourceGraphic" in2="effect1_dropShadow_6_9016" result="shape"/>
</filter>
<filter id="filter1_d_6_9016" x="47.6548" y="24.9756" width="99.875" height="122.547" filterUnits="userSpaceOnUse" color-interpolation-filters="sRGB">
<feFlood flood-opacity="0" result="BackgroundImageFix"/>
<feColorMatrix in="SourceAlpha" type="matrix" values="0 0 0 0 0 0 0 0 0 0 0 0 0 0 0 0 0 0 127 0" result="hardAlpha"/>
<feOffset dy="11"/>
<feGaussianBlur stdDeviation="11"/>
<feColorMatrix type="matrix" values="0 0 0 0 0.397708 0 0 0 0 0.47749 0 0 0 0 0.575 0 0 0 0.27 0"/>
<feBlend mode="normal" in2="BackgroundImageFix" result="effect1_dropShadow_6_9016"/>
<feBlend mode="normal" in="SourceGraphic" in2="effect1_dropShadow_6_9016" result="shape"/>
</filter>
<filter id="filter2_d_6_9016" x="89.5972" y="0.447754" width="106.822" height="123.095" filterUnits="userSpaceOnUse" color-interpolation-filters="sRGB">
<feFlood flood-opacity="0" result="BackgroundImageFix"/>
<feColorMatrix in="SourceAlpha" type="matrix" values="0 0 0 0 0 0 0 0 0 0 0 0 0 0 0 0 0 0 127 0" result="hardAlpha"/>
<feOffset dy="11"/>
<feGaussianBlur stdDeviation="11"/>
<feColorMatrix type="matrix" values="0 0 0 0 0.397708 0 0 0 0 0.47749 0 0 0 0 0.575 0 0 0 0.27 0"/>
<feBlend mode="normal" in2="BackgroundImageFix" result="effect1_dropShadow_6_9016"/>
<feBlend mode="normal" in="SourceGraphic" in2="effect1_dropShadow_6_9016" result="shape"/>
</filter>
<linearGradient id="paint0_linear_6_9016" x1="51.0166" y1="23.1089" x2="54.4308" y2="102.019" gradientUnits="userSpaceOnUse">
<stop stop-color="#FDFEFF"/>
<stop offset="0.9964" stop-color="#ECF0F5"/>
</linearGradient>
<linearGradient id="paint1_linear_6_9016" x1="97.8675" y1="33.9932" x2="97.2865" y2="115.531" gradientUnits="userSpaceOnUse">
<stop stop-color="#FDFEFF"/>
<stop offset="0.9964" stop-color="#ECF0F5"/>
</linearGradient>
<linearGradient id="paint2_linear_6_9016" x1="128.391" y1="14.2926" x2="157.246" y2="86.845" gradientUnits="userSpaceOnUse">
<stop stop-color="#FDFEFF"/>
<stop offset="0.9964" stop-color="#ECF0F5"/>
</linearGradient>
</defs>
</svg>
