<svg width="278" height="213" viewBox="0 0 278 213" fill="none" xmlns="http://www.w3.org/2000/svg">
<path d="M148.788 187.78C196.62 187.78 235.396 148.76 235.396 100.627C235.396 52.4942 196.62 13.4746 148.788 13.4746C100.956 13.4746 62.1797 52.4942 62.1797 100.627C62.1797 148.76 100.956 187.78 148.788 187.78Z" fill="#EAEEF9"/>
<path d="M179.698 7.01216C180.48 6.29317 180.535 5.07251 179.82 4.28574C179.106 3.49897 177.893 3.44402 177.111 4.163C176.329 4.88199 176.275 6.10265 176.989 6.88942C177.704 7.67619 178.917 7.73114 179.698 7.01216Z" fill="#EAEEF9"/>
<path fill-rule="evenodd" clip-rule="evenodd" d="M144.658 187.26C144.776 185.742 145.321 184.291 146.636 182.983C147.923 181.703 149.21 180.423 150.498 178.716C153.551 175.3 156.944 176.273 160.979 177.431C161.479 177.575 161.99 177.721 162.511 177.863C168.54 179.273 170.465 174.27 173.374 166.709C173.984 165.123 174.638 163.424 175.382 161.648C177.988 156.464 174.134 154.172 169.985 151.705C169.352 151.329 168.713 150.949 168.088 150.553C164.429 148.37 164.515 144.944 164.62 140.805C164.638 140.092 164.656 139.358 164.656 138.606C164.255 134.215 167.514 132.251 170.658 130.357C174.237 128.201 177.666 126.135 175.382 120.684C174.823 119.349 174.307 118.065 173.818 116.845C170.55 108.704 168.425 103.412 162.082 104.896C161.521 105.048 160.972 105.206 160.435 105.361C156.45 106.51 153.093 107.477 150.069 104.469C149.23 103.531 148.365 102.72 147.551 101.955C145.031 99.591 142.985 97.6709 143.633 93.8017C146.3 82.435 145.584 82.1706 133.675 77.7731C132.172 77.2181 130.491 76.5973 128.616 75.8801C123.139 73.8371 121.182 77.2282 119.129 80.7857C117.323 83.9156 115.443 87.1742 111.026 86.9744C110.021 86.9744 109.05 87.0231 108.118 87.0699C104.269 87.2628 101.085 87.4224 99.0123 83.9875C92.8863 74.087 92.2271 74.3809 80.2647 79.714C78.8223 80.3571 77.2155 81.0734 75.4149 81.854C69.5207 84.3663 71.0629 89.3438 72.7443 94.7707C72.7764 94.8743 72.8085 94.978 72.8406 95.0818C73.8591 99.1336 71.6539 101.315 68.9885 103.952C68.2855 104.647 67.5504 105.375 66.834 106.176C65.5642 107.619 64.1027 108.224 62.5508 108.376C66.5191 151.318 101.448 185.22 144.658 187.26ZM99.8704 165.061C112.313 169.755 126.471 163.781 131.191 151.407C135.91 139.032 129.904 124.951 117.461 120.257C105.019 115.564 90.8605 121.538 86.141 133.912C81.4215 146.286 87.4282 160.368 99.8704 165.061Z" fill="url(#paint0_linear_216_1080)"/>
<path d="M208.625 71.8192C208.288 66.7208 208.962 63.3218 205.593 62.9819C203.235 62.642 201.551 62.9819 200.54 60.9425C199.529 58.9031 198.182 57.2036 199.529 55.5041C202.898 50.4056 201.887 50.7455 196.161 45.3071C192.455 41.9081 190.771 49.046 187.065 47.3465C185.044 46.3268 183.022 46.3268 182.349 43.9475C181.001 38.1692 181.001 38.849 172.916 39.1889C169.884 39.1889 169.884 41.9081 169.884 44.6273C169.547 47.0066 167.863 47.3465 165.505 48.3662C161.799 50.4056 159.441 43.6076 156.073 47.3465C154.388 49.046 153.041 50.7455 151.693 52.7849C150.683 55.5041 153.041 56.1839 154.388 58.5632C154.388 58.5632 154.388 58.5632 154.388 58.9031C154.725 59.5829 154.388 60.2627 154.388 60.9425C154.388 61.2824 154.051 61.9622 154.051 62.3021C153.378 64.0016 153.378 65.3612 151.356 65.7011C145.629 66.7208 146.303 67.0607 146.64 75.2182C146.977 80.3167 153.041 76.5778 154.725 80.3167C155.399 81.6763 156.746 83.7157 156.073 85.0753C155.736 86.4349 154.388 87.4546 154.051 88.8142C152.367 91.8733 155.399 93.5728 158.431 96.292C162.136 99.691 163.821 92.5531 167.526 94.2526C171.906 95.9521 171.569 94.9324 172.579 100.031C173.253 103.43 177.296 102.41 181.675 102.07C186.728 101.73 183.022 95.6122 186.728 93.9127C187.402 93.5728 188.412 93.2329 189.086 92.893C191.107 91.8733 192.455 93.2329 194.476 94.2526C197.508 96.292 199.192 93.2329 202.561 89.1541C204.582 86.7748 202.561 85.0753 200.877 83.0359C199.529 81.3364 200.54 79.6369 201.214 77.2576C202.561 73.8586 208.962 76.9177 208.625 71.8192ZM185.381 78.2773C181.338 82.696 174.601 83.3758 169.884 79.297C165.505 75.2182 164.831 68.4202 168.874 63.6617C172.916 59.243 179.654 58.5632 184.37 62.642C188.749 66.7208 189.423 73.5187 185.381 78.2773Z" fill="url(#paint1_linear_216_1080)"/>
<path d="M43.6827 98.9374C40.393 100.559 39.0252 104.551 40.6275 107.852C42.2297 111.154 46.1954 112.515 49.485 110.893C52.7746 109.271 54.1425 105.28 52.5402 101.979C50.9379 98.677 46.9723 97.3155 43.6827 98.9374Z" fill="#EAEEF9"/>
<path d="M172.45 195.775C170.043 195.849 168.146 197.87 168.211 200.288C168.276 202.707 170.28 204.608 172.686 204.534C175.092 204.461 176.99 202.44 176.925 200.021C176.86 197.602 174.856 195.701 172.45 195.775Z" fill="#EAEEF9"/>
<path d="M159.295 206.822C157.658 206.872 156.368 208.246 156.412 209.89C156.456 211.535 157.819 212.828 159.455 212.778C161.091 212.728 162.382 211.354 162.338 209.709C162.293 208.064 160.931 206.771 159.295 206.822Z" fill="#EAEEF9"/>
<path d="M34.8771 127.227C33.492 127.91 32.916 129.59 33.5907 130.98C34.2653 132.371 35.9351 132.944 37.3202 132.261C38.7053 131.578 39.2812 129.897 38.6066 128.507C37.9319 127.117 36.2622 126.544 34.8771 127.227Z" fill="#EAEEF9"/>
<path d="M90.8173 186.38C89.8646 186.849 89.4685 188.005 89.9325 188.961C90.3965 189.918 91.545 190.312 92.4977 189.842C93.4504 189.372 93.8465 188.217 93.3825 187.26C92.9184 186.304 91.77 185.91 90.8173 186.38Z" fill="#EAEEF9"/>
<g filter="url(#filter0_d_216_1080)">
<path d="M93.6895 38.0381L88.0436 43.3463C87.3719 43.9628 86.3224 44.1764 85.4197 43.8803L78.7105 41.7904C77.8078 41.4943 77.052 40.6883 76.9511 39.781L75.3463 33.0051C75.1153 32.0923 75.409 31.0728 76.0806 30.4562L81.7266 25.148C82.1296 24.778 82.1547 24.0051 81.7767 23.6021C81.6508 23.4678 81.3947 23.3279 81.1344 23.3169C76.0753 22.5869 71.0711 24.1812 67.4442 27.5108C62.8729 31.8325 61.098 38.3364 62.858 44.3449L24.8389 79.3727C21.6109 82.4612 21.3177 87.4798 24.467 90.838C27.4902 94.0619 32.566 94.2766 35.6598 91.3115L74.0818 55.9137C79.7582 57.7018 85.9295 56.2859 90.2322 52.2109C93.9934 48.758 95.8483 43.8054 95.4866 38.8881C95.5074 38.244 94.8692 37.83 94.3486 37.8079C94.0883 37.7969 93.954 37.9203 93.6895 38.0381ZM29.0425 86.3876C27.9088 85.1786 27.9714 83.2462 29.1804 82.1364C30.3893 81.0265 32.2114 81.1036 33.3452 82.3125C34.4789 83.5215 34.4162 85.4539 33.2072 86.5637C31.9983 87.6736 30.1762 87.5965 29.0425 86.3876C29.0383 86.5164 29.0383 86.5164 29.0425 86.3876Z" fill="#D5DDEA"/>
</g>
<path opacity="0.4" d="M62.6583 51.547L34.5859 77.0078" stroke="#D6DCE8" stroke-miterlimit="10"/>
<path opacity="0.4" d="M67.1549 56.2547L38.9531 81.708" stroke="#D6DCE8" stroke-miterlimit="10"/>
<path d="M251.512 42.5538C250.923 42.1776 250.038 42.1943 249.201 42.5329C247.749 43.4964 245.906 43.047 244.999 41.7406C244.557 41.1679 244.435 40.3632 244.682 39.6483C244.929 38.9335 244.636 38.1644 243.874 37.8236L242.302 36.8203L239.79 40.1603L209.926 21.0974C209.533 20.8465 209.288 20.3993 209.239 20.0774L209.118 19.2727C209.02 18.6289 208.603 18.2171 208.038 18.0018L200.323 15.113L196.333 20.4177L201.978 26.057C202.395 26.4688 202.961 26.6841 203.649 26.542L204.51 26.3644C205.026 26.2578 205.395 26.3477 205.788 26.5985L235.651 45.6614L233.139 49.0014L234.71 50.0047C235.3 50.3809 236.185 50.3643 236.849 50.0612C238.301 49.0977 240.144 49.5471 241.051 50.8535C241.493 51.4262 241.615 52.2309 241.368 52.9457C241.121 53.6605 241.587 54.3942 242.176 54.7704L263.591 68.4405C266.931 70.5726 271.923 69.5423 274.436 66.2023C274.436 66.2023 274.584 66.0058 274.56 65.8449C276.876 62.3795 276.046 58.0696 272.706 55.9376L251.512 42.5538Z" fill="url(#paint2_linear_216_1080)"/>
<path opacity="0.4" d="M246.645 52.4395L262.756 63.1335" stroke="#D6DCE8" stroke-miterlimit="10"/>
<path opacity="0.4" d="M249.395 48.5098L265.506 59.2037" stroke="#D6DCE8" stroke-miterlimit="10"/>
<path d="M212 126.001C202.452 126.001 193.295 129.793 186.544 136.544C179.792 143.296 176 152.453 176 162C176 171.549 179.793 180.705 186.544 187.456C193.295 194.207 202.452 198 212 198C221.548 198 230.704 194.207 237.456 187.456C244.207 180.704 247.999 171.548 247.999 162C247.99 152.456 244.195 143.304 237.446 136.554C230.696 129.804 221.545 126.009 211.999 126L212 126.001ZM212 129.429C220.062 129.473 227.815 132.53 233.737 138.001L188.001 183.737C182.351 177.493 179.346 169.299 179.617 160.882C179.888 152.466 183.417 144.483 189.457 138.617C195.497 132.749 203.579 129.456 212 129.429ZM212 194.573C203.962 194.575 196.211 191.58 190.263 186.172L236.17 140.264C241.834 146.524 244.839 154.741 244.552 163.176C244.264 171.612 240.707 179.606 234.632 185.465C228.556 191.325 220.439 194.591 211.999 194.574L212 194.573Z" fill="#A0A9BA"/>
<defs>
<filter id="filter0_d_216_1080" x="0.253906" y="12.1426" width="117.277" height="114.26" filterUnits="userSpaceOnUse" color-interpolation-filters="sRGB">
<feFlood flood-opacity="0" result="BackgroundImageFix"/>
<feColorMatrix in="SourceAlpha" type="matrix" values="0 0 0 0 0 0 0 0 0 0 0 0 0 0 0 0 0 0 127 0" result="hardAlpha"/>
<feOffset dy="11"/>
<feGaussianBlur stdDeviation="11"/>
<feColorMatrix type="matrix" values="0 0 0 0 0.397708 0 0 0 0 0.47749 0 0 0 0 0.575 0 0 0 0.27 0"/>
<feBlend mode="normal" in2="BackgroundImageFix" result="effect1_dropShadow_216_1080"/>
<feBlend mode="normal" in="SourceGraphic" in2="effect1_dropShadow_216_1080" result="shape"/>
</filter>
<linearGradient id="paint0_linear_216_1080" x1="119.4" y1="79.1538" x2="119.4" y2="142.016" gradientUnits="userSpaceOnUse">
<stop stop-color="#B0BACC"/>
<stop offset="1" stop-color="#969EAE"/>
</linearGradient>
<linearGradient id="paint1_linear_216_1080" x1="177.537" y1="41.1788" x2="177.537" y2="76.8252" gradientUnits="userSpaceOnUse">
<stop stop-color="#B0BACC"/>
<stop offset="1" stop-color="#969EAE"/>
</linearGradient>
<linearGradient id="paint2_linear_216_1080" x1="231.611" y1="11.0352" x2="239.222" y2="47.9135" gradientUnits="userSpaceOnUse">
<stop stop-color="#B0BACC"/>
<stop offset="1" stop-color="#969EAE"/>
</linearGradient>
</defs>
</svg>
