<svg width="163" height="161" viewBox="0 0 163 161" fill="none" xmlns="http://www.w3.org/2000/svg">
<path d="M160.075 80.6182C160.075 96.6559 155.332 111.639 147.125 124.138C145.318 126.999 143.36 129.559 141.252 132.119C126.569 149.512 104.584 160.581 80.1129 160.581C55.6424 160.581 33.6565 149.437 18.9741 132.119C16.8659 129.559 14.9082 126.999 13.1012 124.214C10.9929 120.901 8.96 117.362 7.30353 113.672C6.02353 110.736 4.74353 107.724 3.84 104.562C2.25882 99.8182 1.20471 95.0747 0.602353 90.1053C0.376471 88.9006 0.301177 87.6959 0.225882 86.3406C0.150588 84.4582 0 82.4253 0 80.4676C0 58.1053 9.11059 38.0017 23.8682 23.47C25.3741 21.9641 27.0306 20.5335 28.6118 19.1029C42.6165 7.65821 60.5365 0.580566 80.1129 0.580566C95.7741 0.580566 110.456 5.09821 122.88 12.9288C123.482 13.23 124.009 13.6064 124.612 14.0582C125.139 14.4347 125.741 14.7359 126.193 15.1876C129.205 17.2959 132.141 19.63 134.776 22.19C136.358 23.6959 137.939 25.2017 139.294 26.8582C141.026 28.8159 142.758 30.7735 144.264 32.957C144.64 33.4841 144.941 33.9359 145.393 34.4629C145.769 34.99 146.071 35.4417 146.522 35.9688C151.04 42.67 154.504 50.0488 156.913 57.8794C157.289 59.31 157.741 60.59 158.042 62.0206C159.322 67.8935 160.075 74.1429 160.075 80.6182Z" fill="#EAEEF9"/>
<path d="M153.374 124.138V132.119H18.899C16.7908 129.559 14.8331 126.999 13.0261 124.213H153.374V124.138Z" fill="#D5DDEA"/>
<path d="M157.063 62.6983H91.8585V58.5571H155.934C156.461 59.8371 156.762 61.2677 157.063 62.6983Z" fill="#D5DDEA"/>
<path d="M144.564 35.0652V59.084H111.284V14.811H123.633C124.16 15.1875 124.762 15.4887 125.214 15.9404C128.226 18.0487 131.162 20.3828 133.797 22.9428C135.378 24.4487 136.96 25.9546 138.315 27.611C140.047 29.5687 141.778 31.5263 143.284 33.7099C143.811 34.0863 144.263 34.6134 144.564 35.0652Z" fill="white"/>
<path d="M144.565 35.0653C144.188 34.5382 143.887 34.0864 143.435 33.5594V58.03H112.414V15.8653H125.214C124.687 15.4888 124.235 15.1876 123.633 14.7359C123.106 14.3594 122.503 14.0582 121.901 13.6064H110.08V60.0629H145.468V36.5712C145.242 36.1194 144.941 35.5923 144.565 35.0653Z" fill="#D5DDEA"/>
<path d="M138.465 27.5359V51.0277H117.308V22.8677H133.797C135.529 24.3736 137.035 25.8794 138.465 27.5359Z" fill="#EAEEF9"/>
<path d="M54.0614 122.783C54.0614 123.461 53.5344 123.988 52.932 124.214C52.8567 124.214 52.7061 124.214 52.6308 124.214H13.0261C10.9179 120.901 8.88496 117.362 7.22849 113.672C9.03554 110.661 10.0897 107.423 10.5414 104.562C10.7673 103.583 10.8426 102.68 10.9179 101.701H40.8097C40.885 102.604 41.1108 103.508 41.3367 104.562C42.4661 109.983 45.4026 116.759 51.5767 121.352H52.5555C53.4591 121.352 54.0614 122.03 54.0614 122.783Z" fill="#CAD3E2"/>
<path d="M82.1459 22.6417V101.173C82.1459 103.056 80.64 104.486 78.8329 104.486H3.83999C2.33411 99.9687 1.27999 95.2252 0.67764 90.2558C0.451757 89.0511 0.376463 87.8464 0.301169 86.4911C0.225875 84.5334 0.0752869 82.5758 0.0752869 80.6181C0.0752869 58.2558 9.18588 38.1522 23.9435 23.6205C25.4494 22.1146 27.1059 20.684 28.6871 19.2534H78.6824C80.7153 19.2534 82.1459 20.9099 82.1459 22.6417Z" fill="#DEE5EF"/>
<path d="M82.1459 22.6417V90.2558H0.67764C0.451757 89.0511 0.376463 87.8464 0.301169 86.4911C0.225875 84.5334 0.0752869 82.5758 0.0752869 80.6181C0.0752869 58.2558 9.18588 38.1522 23.9435 23.6205C25.4494 22.1146 27.1059 20.684 28.6871 19.2534H78.6824C80.7153 19.2534 82.1459 20.9099 82.1459 22.6417Z" fill="#D5DDEA"/>
<path d="M77.7788 23.6201V86.566H0.376426C0.301131 84.6084 0.150543 82.6507 0.150543 80.6931C0.150543 58.3307 9.26113 38.2272 24.0188 23.6954H77.7788V23.6201Z" fill="white"/>
<path d="M25.5245 100.495C27.0304 100.495 28.2351 99.2907 28.2351 97.7848C28.2351 96.2789 27.0304 95.0742 25.5245 95.0742C24.0186 95.0742 22.8139 96.2789 22.8139 97.7848C22.8139 99.2907 24.0186 100.495 25.5245 100.495Z" fill="white"/>
<path d="M40.4329 105.766V109.004H38.1741C36.8941 109.004 35.7647 110.133 35.7647 111.413V115.931C35.7647 117.211 36.8941 118.34 38.1741 118.34H40.4329V121.804C40.4329 123.009 41.4117 124.063 42.6917 124.063H52.7059C53.9106 124.063 54.9647 123.084 54.9647 121.804V105.616H40.4329V105.766ZM38.1741 116.684C37.8729 116.684 37.5717 116.383 37.5717 116.082V111.564C37.5717 111.263 37.8729 110.962 38.1741 110.962H40.4329V116.759H38.1741V116.684Z" fill="#989FB0"/>
<path d="M47.8113 86.7168C48.7148 88.9756 48.9407 91.2344 47.5854 92.9662C46.3054 94.7733 45.3266 97.1827 46.6819 99.065C47.9619 100.872 48.4137 102.303 47.8866 103.206C47.3595 104.11 47.8866 103.131 49.6184 101.173C51.1242 99.5921 48.4137 98.2368 48.3384 96.9568C48.2631 95.7521 49.7689 93.1921 49.7689 91.5356C49.6937 89.7286 48.8654 87.3944 47.8113 86.7168Z" fill="white"/>
<path d="M44.0473 96.5806C44.4238 97.71 44.5744 98.8394 43.972 99.7429C43.3697 100.646 42.8426 101.851 43.5956 102.755C44.2732 103.658 44.4238 104.336 44.1979 104.863C43.972 105.39 44.1979 104.863 45.1014 103.884C45.7791 103.056 44.4991 102.378 44.4238 101.776C44.3485 101.174 45.1014 99.9688 45.1014 99.0653C45.0261 98.0865 44.6497 96.957 44.0473 96.5806Z" fill="white"/>
<path d="M84.3289 107.874C85.1572 106.067 87.943 102.604 90.8042 101.173C91.1807 100.947 91.6324 101.098 91.783 101.474C92.6113 102.905 94.6442 106.519 93.8913 110.058C92.9124 114.349 84.3289 107.874 84.3289 107.874Z" fill="#989FB0"/>
<path d="M80.7905 108.175C80.7905 108.175 77.1764 104.26 74.8423 102.83C74.2399 102.528 73.5623 102.754 73.2611 103.357C70.7011 108.175 70.7011 113.747 71.3034 116.684C71.9811 119.846 77.4023 111.112 77.4023 111.112L80.7905 108.175Z" fill="#989FB0"/>
<path d="M79.1336 109.456C79.1336 109.456 76.8748 107.047 75.5195 106.144C75.143 105.993 74.6913 106.068 74.5407 106.445C73.0348 109.456 72.9595 112.845 73.4113 114.652C73.863 116.609 77.176 111.188 77.176 111.188L79.1336 109.456Z" fill="#D5DDEA"/>
<path d="M86.6631 108.1C87.1149 106.896 88.922 104.637 90.6537 103.733C90.8796 103.658 91.1055 103.733 91.3314 103.959C91.7831 104.863 93.0631 107.197 92.6114 109.531C92.009 112.392 86.6631 108.1 86.6631 108.1Z" fill="#D5DDEA"/>
<path d="M157.29 154.708C149.61 151.47 150.739 141.381 151.492 132.044C152.17 132.044 152.772 132.044 153.45 132.044C153.45 129.409 153.45 126.698 153.45 124.063C153.45 123.988 149.911 124.138 149.534 124.138C147.803 124.138 146.899 123.159 145.468 122.557C145.619 122.632 145.092 126.698 145.017 127.15C142.532 138.068 137.487 141.908 142.231 146.952C143.661 148.458 144.339 151.696 141.026 153.126C137.713 154.406 135.755 149.588 134.626 147.254C132.668 143.188 134.325 137.164 136.433 124.816C136.433 124.816 113.017 124.741 106.315 124.816C105.864 126.698 102.099 139.799 101.572 142.51C100.744 146.576 102.099 149.512 102.4 151.696C102.701 154.03 98.786 155.611 95.8496 152.976C92.0849 149.512 96.0755 144.166 96.6025 132.27C96.6025 131.592 96.8284 124.289 96.3766 124.289C88.6213 124.289 80.9413 124.214 73.186 124.364C72.2825 124.364 70.9272 124.741 70.4002 123.912C66.1837 117.738 76.8755 103.809 88.7719 107.423C90.7296 108.025 92.8378 109.305 94.946 109.456C94.946 109.456 96.1507 109.079 102.25 104.637C112.49 98.7641 125.365 99.2159 133.346 101.098C144.113 103.658 145.995 112.317 149.083 116.157C153.525 121.729 157.741 123.159 157.139 136.788C156.913 142.284 156.838 145.221 161.355 148.383C164.367 150.792 161.958 156.665 157.29 154.708Z" fill="white"/>
<path d="M85.4584 123.008C84.6302 123.084 83.576 123.234 82.5972 123.234C82.296 123.234 81.9196 123.234 81.6184 123.31C78.3055 123.385 75.1431 122.933 74.6913 120.448C74.3902 118.491 77.176 116.006 78.6819 115.178C83.8019 112.317 89.0725 116.533 89.6749 119.093C90.1266 121.277 87.7925 122.632 85.4584 123.008Z" fill="#D5DDEA"/>
<path d="M82.1463 120.298C82.9746 120.298 83.6522 119.997 83.6522 119.545C83.6522 119.093 82.9746 118.792 82.1463 118.792C81.3181 118.792 80.6404 119.093 80.6404 119.545C80.6404 119.997 81.3181 120.298 82.1463 120.298Z" fill="#989FB0"/>
<path d="M82.8991 120.299V123.235C82.4473 123.235 81.845 123.31 81.3932 123.31V120.374L82.8991 120.299Z" fill="#989FB0"/>
<path d="M102.324 151.696C102.626 154.03 98.7104 155.612 95.7739 152.976C92.8374 150.266 95.548 141.155 96.3009 136.336C96.6774 133.776 96.6774 130.689 96.6021 128.28C97.8821 129.861 101.044 133.852 103.303 135.96C102.626 138.595 101.873 141.004 101.572 142.661C100.743 146.501 101.948 149.437 102.324 151.696Z" fill="#D5DDEA"/>
<path d="M142.081 147.028C143.511 148.533 144.189 151.771 140.876 153.202C137.563 154.482 135.605 149.663 134.476 147.329C133.346 144.995 133.572 139.423 134.476 134.905C134.777 133.324 135.153 131.592 135.379 130.086C136.057 130.463 136.81 130.915 137.412 131.366C138.993 132.571 140.575 134.002 142.382 134.981C141.553 137.315 140.876 139.197 140.424 140.101C139.445 142.585 140.65 145.522 142.081 147.028Z" fill="#D5DDEA"/>
<path d="M161.28 154.256C159.022 156.364 155.182 153.955 153.073 151.545C150.965 149.136 150.513 141.606 151.266 135.056C151.342 133.926 151.492 132.947 151.342 132.044H153.374V124.063H147.2C147.125 123.987 146.974 123.837 146.899 123.762C146.974 123.46 147.125 123.084 147.2 122.783C147.727 121.202 146.899 119.62 148.706 116.232C149.233 117.06 149.685 117.512 150.212 117.964C151.191 118.867 152.245 119.545 154.052 122.105C157.591 126.924 157.064 137.089 156.913 141.079C156.838 145.22 159.624 147.78 161.356 148.458C162.862 149.211 163.464 152.147 161.28 154.256Z" fill="#D5DDEA"/>
<path d="M87.4166 111.414H87.3413L85.2331 111.113C84.8566 111.113 84.6307 110.736 84.6307 110.435C84.6307 110.058 85.0072 109.833 85.3083 109.833L87.4166 110.134C87.7931 110.134 88.0189 110.51 88.0189 110.811C88.0189 111.263 87.7178 111.414 87.4166 111.414Z" fill="#AAB2C5"/>
<path d="M77.2518 111.64H77.3271L79.4354 111.338C79.8118 111.338 80.0377 110.962 80.0377 110.661C80.0377 110.284 79.6612 110.058 79.3601 110.058L77.2518 110.36C76.8754 110.36 76.6495 110.736 76.6495 111.037C76.8001 111.338 76.9507 111.564 77.2518 111.64Z" fill="#AAB2C5"/>
<path d="M93.5645 58.329L92.9313 54.6957L107.149 52.218L107.782 55.8513L100.104 69.2342L109.977 67.5135L110.61 71.1468L95.761 73.7347L95.1278 70.1014L102.806 56.7185L93.5645 58.329Z" fill="#989FB0"/>
<path d="M88.1205 83.3933L88.7806 81.233L97.1335 83.7854L96.4734 85.9456L88.7665 91.0701L94.5271 92.8303L93.867 94.9906L85.0821 92.3062L85.7422 90.1459L93.4491 85.0215L88.1205 83.3933Z" fill="#989FB0"/>
<path d="M146.145 124.289H153.374V124.213V132.195H144.489" fill="#D5DDEA"/>
</svg>
