<svg width="164" height="160" viewBox="0 0 164 160" fill="none" xmlns="http://www.w3.org/2000/svg">
<path d="M160.575 80.0377C160.575 96.0753 155.832 111.059 147.625 123.558C145.818 126.419 143.86 128.979 141.752 131.539C127.069 148.932 105.084 160 80.6129 160C56.1424 160 34.1565 148.856 19.4741 131.539C17.3659 128.979 15.4082 126.419 13.6012 123.633C11.4929 120.32 9.46 116.781 7.80353 113.092C6.52353 110.155 5.24353 107.144 4.34 103.981C2.75882 99.2377 1.70471 94.4941 1.10235 89.5247C0.876471 88.32 0.801177 87.1153 0.725882 85.76C0.650588 83.8776 0.5 81.8447 0.5 79.8871C0.5 57.5247 9.61059 37.4212 24.3682 22.8894C25.8741 21.3835 27.5306 19.9529 29.1118 18.5224C43.1165 7.07765 61.0365 0 80.6129 0C96.2741 0 110.956 4.51765 123.38 12.3482C123.982 12.6494 124.509 13.0259 125.112 13.4776C125.639 13.8541 126.241 14.1553 126.693 14.6071C129.705 16.7153 132.641 19.0494 135.276 21.6094C136.858 23.1153 138.439 24.6212 139.794 26.2776C141.526 28.2353 143.258 30.1929 144.764 32.3765C145.14 32.9035 145.441 33.3553 145.893 33.8824C146.269 34.4094 146.571 34.8612 147.022 35.3882C151.54 42.0894 155.004 49.4682 157.413 57.2988C157.789 58.7294 158.241 60.0094 158.542 61.44C159.822 67.3129 160.575 73.5624 160.575 80.0377Z" fill="#EAEEF9"/>
<path d="M153.874 123.558V131.539H19.3988C17.2906 128.979 15.3329 126.419 13.5259 123.633H153.874V123.558Z" fill="#D5DDEA"/>
<path d="M157.563 62.1177H92.3584V57.9766H156.434C156.961 59.2566 157.262 60.6872 157.563 62.1177Z" fill="#D5DDEA"/>
<path d="M145.064 34.4846V58.5034H111.784V14.2305H124.132C124.659 14.6069 125.262 14.9081 125.714 15.3599C128.725 17.4681 131.662 19.8022 134.297 22.3622C135.878 23.8681 137.459 25.374 138.815 27.0305C140.547 28.9881 142.278 30.9458 143.784 33.1293C144.311 33.5058 144.763 34.0328 145.064 34.4846Z" fill="white"/>
<path d="M145.065 34.4847C144.688 33.9576 144.387 33.5059 143.935 32.9788V57.4494H112.914V15.2847H125.714C125.187 14.9082 124.735 14.6071 124.133 14.1553C123.606 13.7788 123.004 13.4776 122.401 13.0259H110.58V59.4824H145.968V35.9906C145.742 35.5388 145.441 35.0118 145.065 34.4847Z" fill="#D5DDEA"/>
<path d="M138.965 26.9553V50.4471H117.808V22.2871H134.297C136.029 23.793 137.535 25.2989 138.965 26.9553Z" fill="#EAEEF9"/>
<path d="M54.5615 122.202C54.5615 122.88 54.0344 123.407 53.432 123.633C53.3567 123.633 53.2062 123.633 53.1309 123.633H13.5262C11.4179 120.32 9.38499 116.781 7.72852 113.092C9.53557 110.08 10.5897 106.842 11.0415 103.981C11.2673 103.002 11.3426 102.099 11.4179 101.12H41.3097C41.385 102.024 41.6109 102.927 41.8368 103.981C42.9662 109.402 45.9026 116.179 52.0767 120.772H53.0556C53.9591 120.772 54.5615 121.45 54.5615 122.202Z" fill="#CAD3E2"/>
<path d="M82.6458 22.0611V100.593C82.6458 102.475 81.1399 103.906 79.3328 103.906H4.3399C2.83402 99.3881 1.7799 94.6446 1.17755 89.6752C0.951666 88.4705 0.876372 87.2658 0.801078 85.9105C0.725784 83.9529 0.575195 81.9952 0.575195 80.0376C0.575195 57.6752 9.68578 37.5717 24.4434 23.0399C25.9493 21.534 27.6058 20.1034 29.187 18.6729H79.1823C81.2152 18.6729 82.6458 20.3293 82.6458 22.0611Z" fill="#DEE5EF"/>
<path d="M82.6458 22.0611V89.6752H1.17755C0.951666 88.4705 0.876372 87.2658 0.801078 85.9105C0.725784 83.9529 0.575195 81.9952 0.575195 80.0376C0.575195 57.6752 9.68578 37.5717 24.4434 23.0399C25.9493 21.534 27.6058 20.1034 29.187 18.6729H79.1823C81.2152 18.6729 82.6458 20.3293 82.6458 22.0611Z" fill="#D5DDEA"/>
<path d="M78.2786 23.0396V85.9854H0.876273C0.800979 84.0278 0.650391 82.0701 0.650391 80.1125C0.650391 57.7501 9.76098 37.6466 24.5186 23.1148H78.2786V23.0396Z" fill="white"/>
<path d="M26.0246 99.9148C27.5304 99.9148 28.7351 98.7101 28.7351 97.2042C28.7351 95.6984 27.5304 94.4937 26.0246 94.4937C24.5187 94.4937 23.314 95.6984 23.314 97.2042C23.314 98.7101 24.5187 99.9148 26.0246 99.9148Z" fill="white"/>
<path d="M40.9329 105.186V108.423H38.6741C37.3941 108.423 36.2646 109.553 36.2646 110.833V115.35C36.2646 116.63 37.3941 117.76 38.6741 117.76H40.9329V121.223C40.9329 122.428 41.9117 123.482 43.1917 123.482H53.2058C54.4105 123.482 55.4646 122.503 55.4646 121.223V105.035H40.9329V105.186ZM38.6741 116.103C38.3729 116.103 38.0717 115.802 38.0717 115.501V110.983C38.0717 110.682 38.3729 110.381 38.6741 110.381H40.9329V116.179H38.6741V116.103Z" fill="#989FB0"/>
<path d="M48.3115 86.1362C49.2151 88.3951 49.441 90.6539 48.0857 92.3856C46.8057 94.1927 45.8268 96.6021 47.1821 98.4845C48.4621 100.292 48.9139 101.722 48.3868 102.626C47.8598 103.529 48.3868 102.55 50.1186 100.593C51.6245 99.0115 48.9139 97.6562 48.8386 96.3762C48.7633 95.1715 50.2692 92.6115 50.2692 90.9551C50.1939 89.148 49.3657 86.8139 48.3115 86.1362Z" fill="white"/>
<path d="M44.5473 96C44.9237 97.1294 45.0743 98.2588 44.472 99.1624C43.8696 100.066 43.3425 101.271 44.0955 102.174C44.7731 103.078 44.9237 103.755 44.6978 104.282C44.472 104.809 44.6978 104.282 45.6014 103.304C46.279 102.475 44.999 101.798 44.9237 101.195C44.8484 100.593 45.6014 99.3882 45.6014 98.4847C45.5261 97.5059 45.1496 96.3765 44.5473 96Z" fill="white"/>
<path d="M84.8291 107.294C85.6573 105.487 88.4432 102.023 91.3044 100.592C91.6809 100.367 92.1326 100.517 92.2832 100.894C93.1115 102.324 95.1444 105.938 94.3915 109.477C93.4126 113.769 84.8291 107.294 84.8291 107.294Z" fill="#989FB0"/>
<path d="M81.2904 107.595C81.2904 107.595 77.6763 103.68 75.3422 102.249C74.7398 101.948 74.0622 102.174 73.761 102.776C71.201 107.595 71.201 113.167 71.8034 116.103C72.481 119.265 77.9022 110.531 77.9022 110.531L81.2904 107.595Z" fill="#989FB0"/>
<path d="M79.6334 108.876C79.6334 108.876 77.3746 106.466 76.0193 105.563C75.6428 105.412 75.1911 105.488 75.0405 105.864C73.5346 108.876 73.4593 112.264 73.9111 114.071C74.3628 116.029 77.6758 110.608 77.6758 110.608L79.6334 108.876Z" fill="#D5DDEA"/>
<path d="M87.1631 107.52C87.6149 106.315 89.4219 104.056 91.1537 103.153C91.3796 103.077 91.6054 103.153 91.8313 103.379C92.2831 104.282 93.5631 106.616 93.1113 108.95C92.509 111.812 87.1631 107.52 87.1631 107.52Z" fill="#D5DDEA"/>
<path d="M157.79 154.127C150.11 150.889 151.239 140.8 151.992 131.464C152.67 131.464 153.272 131.464 153.95 131.464C153.95 128.828 153.95 126.118 153.95 123.482C153.95 123.407 150.411 123.558 150.035 123.558C148.303 123.558 147.399 122.579 145.969 121.976C146.119 122.052 145.592 126.118 145.517 126.569C143.032 137.487 137.987 141.327 142.731 146.372C144.162 147.878 144.839 151.115 141.526 152.546C138.213 153.826 136.256 149.007 135.126 146.673C133.169 142.607 134.825 136.584 136.933 124.235C136.933 124.235 113.517 124.16 106.816 124.235C106.364 126.118 102.599 139.219 102.072 141.929C101.244 145.995 102.599 148.932 102.9 151.115C103.202 153.449 99.2863 155.031 96.3498 152.395C92.5851 148.932 96.5757 143.586 97.1028 131.689C97.1028 131.012 97.3286 123.708 96.8769 123.708C89.1216 123.708 81.4416 123.633 73.6863 123.784C72.7828 123.784 71.4275 124.16 70.9004 123.332C66.6839 117.158 77.3757 103.228 89.2722 106.842C91.2298 107.445 93.3381 108.725 95.4463 108.875C95.4463 108.875 96.651 108.499 102.75 104.056C112.99 98.1836 125.865 98.6353 133.846 100.518C144.613 103.078 146.496 111.736 149.583 115.576C154.025 121.148 158.242 122.579 157.639 136.207C157.413 141.704 157.338 144.64 161.856 147.802C164.867 150.212 162.458 156.085 157.79 154.127Z" fill="white"/>
<path d="M85.9586 122.428C85.1303 122.503 84.0762 122.654 83.0974 122.654C82.7962 122.654 82.4198 122.654 82.1186 122.729C78.8056 122.805 75.6433 122.353 75.1915 119.868C74.8903 117.911 77.6762 115.426 79.1821 114.598C84.3021 111.736 89.5727 115.953 90.175 118.513C90.6268 120.696 88.2927 122.052 85.9586 122.428Z" fill="#D5DDEA"/>
<path d="M82.6465 119.718C83.4747 119.718 84.1524 119.417 84.1524 118.965C84.1524 118.513 83.4747 118.212 82.6465 118.212C81.8183 118.212 81.1406 118.513 81.1406 118.965C81.1406 119.417 81.8183 119.718 82.6465 119.718Z" fill="#989FB0"/>
<path d="M83.3989 119.718V122.654C82.9472 122.654 82.3448 122.73 81.8931 122.73V119.793L83.3989 119.718Z" fill="#989FB0"/>
<path d="M102.824 151.116C103.126 153.45 99.2103 155.031 96.2738 152.396C93.3374 149.685 96.0479 140.575 96.8009 135.756C97.1774 133.196 97.1774 130.109 97.1021 127.699C98.3821 129.28 101.544 133.271 103.803 135.379C103.126 138.015 102.373 140.424 102.071 142.08C101.243 145.92 102.448 148.857 102.824 151.116Z" fill="#D5DDEA"/>
<path d="M142.58 146.447C144.011 147.953 144.689 151.191 141.376 152.621C138.063 153.901 136.105 149.082 134.976 146.748C133.846 144.414 134.072 138.842 134.976 134.325C135.277 132.744 135.653 131.012 135.879 129.506C136.557 129.882 137.31 130.334 137.912 130.786C139.493 131.991 141.074 133.421 142.882 134.4C142.053 136.734 141.376 138.616 140.924 139.52C139.945 142.005 141.15 144.941 142.58 146.447Z" fill="#D5DDEA"/>
<path d="M161.78 153.675C159.521 155.784 155.681 153.374 153.573 150.965C151.465 148.555 151.013 141.026 151.766 134.475C151.841 133.346 151.992 132.367 151.841 131.464H153.874V123.482H147.7C147.625 123.407 147.474 123.257 147.399 123.181C147.474 122.88 147.625 122.504 147.7 122.202C148.227 120.621 147.399 119.04 149.206 115.652C149.733 116.48 150.185 116.932 150.712 117.384C151.691 118.287 152.745 118.965 154.552 121.525C158.091 126.344 157.564 136.508 157.413 140.499C157.338 144.64 160.124 147.2 161.855 147.878C163.361 148.631 163.964 151.567 161.78 153.675Z" fill="#D5DDEA"/>
<path d="M87.9167 110.833H87.8414L85.7332 110.532C85.3567 110.532 85.1309 110.155 85.1309 109.854C85.1309 109.478 85.5073 109.252 85.8085 109.252L87.9167 109.553C88.2932 109.553 88.5191 109.93 88.5191 110.231C88.5191 110.683 88.2179 110.833 87.9167 110.833Z" fill="#AAB2C5"/>
<path d="M77.7518 111.059H77.8271L79.9353 110.758C80.3118 110.758 80.5376 110.381 80.5376 110.08C80.5376 109.703 80.1612 109.478 79.86 109.478L77.7518 109.779C77.3753 109.779 77.1494 110.155 77.1494 110.456C77.3 110.758 77.4506 110.983 77.7518 111.059Z" fill="#AAB2C5"/>
<path d="M94.0646 57.7485L93.4314 54.1152L107.649 51.6374L108.282 55.2707L100.604 68.6536L110.477 66.933L111.11 70.5663L96.2612 73.1542L95.628 69.5208L103.306 56.1379L94.0646 57.7485Z" fill="#989FB0"/>
<path d="M88.6206 82.8127L89.2807 80.6525L97.6336 83.2049L96.9735 85.3651L89.2666 90.4895L95.0272 92.2498L94.3671 94.41L85.5822 91.7256L86.2423 89.5654L93.9492 84.4409L88.6206 82.8127Z" fill="#989FB0"/>
<path d="M146.645 123.708H153.873V123.633V131.614H144.989" fill="#D5DDEA"/>
</svg>
