<svg width="223" height="199" viewBox="0 0 223 199" fill="none" xmlns="http://www.w3.org/2000/svg">
<g id="File missing or not found">
<path id="Vector" d="M118.77 0.919189L125.383 2.88929L122.147 31.0335L118.629 29.767L118.77 0.919189Z" fill="#B8BFCD"/>
<path id="Vector_2" d="M118.347 33.0037L121.584 34.2702L121.162 36.9439L117.925 35.8181L118.347 33.0037Z" fill="#B8BFCD"/>
<path id="Vector_3" d="M130.59 15.9763L137.204 17.8057L134.108 35.818L130.449 34.5515L130.59 15.9763Z" fill="#B8BFCD"/>
<path id="Vector_4" d="M130.168 37.6475L133.405 38.914L132.982 41.4469L129.746 40.3212L130.168 37.6475Z" fill="#B8BFCD"/>
<path id="Vector_5" d="M164.645 140.515H78.1011C78.1011 140.515 82.8856 138.967 74.5831 140.515C66.1398 142.062 66.1398 141.781 66.8434 136.434C67.547 131.086 72.613 125.598 76.5532 119.688C76.131 114.059 77.9604 108.149 84.5743 102.661C84.5743 102.52 84.5743 102.379 84.5743 102.238C81.3377 70.0132 98.3649 80.5673 112.578 75.2199L110.748 73.9534L131.575 64.9473C131.575 64.9473 137.485 66.4952 142.974 69.5911C147.055 71.9833 150.854 75.0792 151.417 79.0194C152.12 83.5225 151.417 89.4328 150.432 94.9209C149.587 99.8461 148.602 104.349 148.321 107.304C148.321 107.867 148.18 108.289 148.18 108.712C149.165 113.355 155.638 120.251 154.794 124.754C157.046 127.146 159.86 134.323 160.282 137.419C160.845 140.515 164.645 140.515 164.645 140.515Z" fill="#DDE3EE"/>
<path id="Vector_6" opacity="0.1" d="M150.432 94.9212C149.587 99.8464 148.602 104.349 148.321 107.445C146.21 111.245 142.411 113.637 137.204 116.592C136.078 117.296 134.671 117.859 133.404 118.281C131.575 118.844 129.746 119.407 127.916 119.688C122.287 120.814 116.518 121.095 110.748 119.97C105.964 118.984 101.179 117.437 96.8169 114.904C95.4097 114.059 93.8618 113.074 92.5953 111.948C88.7958 108.712 85.8407 105.897 84.2928 102.52C82.8855 99.7057 82.6041 96.4691 83.3077 92.1067C84.9964 82.8191 87.2479 75.7831 87.2479 75.7831C87.3886 75.0795 88.5144 74.0944 88.9366 73.5315C89.6402 72.8279 90.0623 71.9836 90.7659 71.28C91.8917 69.8728 93.2989 68.3248 94.4247 66.9176C97.2391 64.1032 100.335 61.8517 103.994 60.4445C109.904 58.3336 116.236 58.6151 122.287 59.4594C126.65 60.0223 131.294 61.0073 135.234 63.2589C138.189 64.9475 140.581 67.0584 142.692 69.7321C143.114 70.1542 143.396 70.7171 143.818 71.1393C146.21 74.6573 147.899 78.5975 149.869 82.397C150.01 82.397 150.432 87.6037 150.432 94.9212Z" fill="#AAB2C5"/>
<path id="Vector_7" d="M32.226 140.656H215.304" stroke="#D6DCE8" stroke-width="1.83006" stroke-miterlimit="10" stroke-linecap="round" stroke-linejoin="round"/>
<path id="Vector_8" d="M10.6957 140.656H22.3755" stroke="#D6DCE8" stroke-width="1.83006" stroke-miterlimit="10" stroke-linecap="round" stroke-linejoin="round"/>
<path id="Vector_9" d="M137.907 105.475C136.782 106.179 135.374 106.742 134.108 107.164C132.419 107.727 130.449 108.289 128.62 108.571C122.991 109.697 117.221 109.978 111.452 108.712C106.667 107.727 101.883 106.179 97.5204 103.646C95.9725 102.801 94.5653 101.816 93.2988 100.691C86.122 94.6395 82.3225 90.1364 84.0112 80.8488C85.6999 71.5612 87.8107 64.6659 87.8107 64.6659C87.9514 63.9623 89.0772 62.9772 89.4993 62.4143C90.2029 61.7107 90.6251 60.8664 91.3287 60.1628C92.4545 58.7556 93.721 57.2077 94.9875 55.8004C97.8019 52.986 100.898 50.7345 104.557 49.3273C110.467 47.2164 116.799 47.4979 122.85 48.3422C127.353 48.9051 131.856 49.8902 135.797 52.1417C139.315 54.1118 141.988 56.7855 144.24 60.0221C146.632 63.5401 148.321 67.4803 150.291 71.4205C150.291 71.4205 150.995 78.738 150.713 88.1663C150.713 97.5947 146.069 100.972 137.907 105.475Z" fill="#EAEEF9"/>
<path id="Vector_10" d="M107.512 81.5525C106.105 82.5376 103.994 86.337 98.0835 83.2412C89.781 78.7381 91.8918 67.4804 97.0985 64.3845C106.386 58.8964 114.829 62.8366 115.252 71.4206C115.674 80.5675 110.467 79.7231 107.512 81.5525Z" fill="#BFC8D6"/>
<path id="Vector_11" d="M154.372 135.308C153.246 136.715 153.528 138.826 155.076 139.952C155.92 140.515 156.764 141.078 157.186 142.485C158.171 145.299 167.178 151.913 171.821 150.506C176.606 149.099 181.813 145.581 180.546 139.811C179.42 134.042 174.354 131.227 171.821 131.086C169.288 130.805 160.423 129.82 157.468 132.072C156.342 133.057 155.216 134.323 154.372 135.308Z" fill="#EAEEF9"/>
<path id="Vector_12" d="M80.3526 135.308C81.4784 136.715 81.1969 138.826 79.649 139.952C78.8047 140.515 77.9603 141.078 77.5382 142.485C76.5531 145.299 67.547 151.913 62.9032 150.506C58.2594 149.099 52.912 145.581 54.1784 139.811C55.3042 134.042 60.3702 131.227 62.9032 131.086C65.4361 130.946 74.3016 129.82 77.2567 132.072C78.5232 133.057 79.649 134.323 80.3526 135.308Z" fill="#EAEEF9"/>
<path id="Vector_13" d="M102.727 79.7233C106.386 80.1455 109.623 77.4718 110.045 73.813C110.467 70.1543 107.793 66.9177 104.135 66.4955C100.476 66.0734 97.2392 68.7471 96.817 72.4058C96.3948 76.0646 99.0685 79.3012 102.727 79.7233Z" fill="white"/>
<path id="Vector_14" d="M109.2 74.5162C108.919 77.3307 106.386 79.4415 103.572 79.16C100.757 78.8786 98.6463 76.3456 98.9277 73.5312C99.3499 73.9533 99.9128 74.3755 100.476 74.5162C101.742 74.6569 102.868 73.8126 103.009 72.4054C103.149 71.1389 102.305 70.0131 101.039 69.8724C102.024 69.1688 103.29 68.8874 104.557 69.0281C107.512 69.1688 109.482 71.5611 109.2 74.5162Z" fill="#989FB0"/>
<path id="Vector_15" d="M134.812 83.1003C138.47 83.5224 141.707 80.8487 142.129 77.19C142.551 73.5312 139.878 70.2946 136.219 69.8725C132.56 69.4503 129.324 72.124 128.901 75.7828C128.479 79.5822 131.153 82.8188 134.812 83.1003Z" fill="white"/>
<path id="Vector_16" d="M129.464 76.627C129.183 79.4415 131.294 81.9745 134.108 82.2559C136.923 82.5373 139.455 80.4265 139.737 77.6121C139.315 78.0343 138.611 78.3157 138.048 78.175C136.782 78.0343 135.797 76.9085 135.937 75.642C136.078 74.3755 137.204 73.5312 138.47 73.5312C137.626 72.6868 136.5 72.124 135.234 71.9832C132.419 71.7018 129.886 73.6719 129.464 76.627Z" fill="#989FB0"/>
<path id="Vector_17" d="M106.808 57.3485C104.416 57.7707 102.305 58.1928 100.617 59.3186C98.9279 60.4444 97.2393 62.2738 96.3949 64.3846C96.3949 64.5253 96.2542 64.5253 96.1135 64.5253C95.9728 64.5253 95.9728 64.3846 95.9728 64.3846C96.1135 63.2588 96.6764 61.9923 97.38 61.0073C97.9429 59.8815 98.9279 59.0372 100.054 58.3336C101.179 57.63 102.165 57.0671 103.431 56.6449C104.697 56.5042 105.964 56.3635 107.09 56.9264C106.949 56.9264 107.23 57.2078 106.808 57.3485C106.949 57.3485 106.949 57.3485 106.808 57.3485Z" fill="#989FB0"/>
<path id="Vector_18" d="M135.656 62.4142C137.767 63.2585 139.596 64.1028 141.144 65.5101C142.551 66.9173 143.677 69.0281 144.099 71.1389C144.099 71.2796 144.24 71.2796 144.381 71.2796C144.521 71.2796 144.521 71.1389 144.521 71.1389C144.662 70.0131 144.24 68.7466 143.959 67.7616C143.536 66.6358 142.974 65.5101 141.988 64.6657C141.144 63.8214 140.3 62.9771 139.174 62.4142C138.048 61.992 136.782 61.7106 135.656 61.8513C135.515 61.992 135.515 62.1327 135.656 62.4142C135.656 62.4142 135.375 62.4142 135.656 62.4142Z" fill="#989FB0"/>
<path id="Vector_19" d="M148.18 56.2225C145.647 52.8452 141.988 53.8303 143.396 57.7705C145.647 63.9622 149.869 66.9174 150.995 89.9956C151.276 94.0766 164.926 85.3518 164.926 70.8576C164.926 68.1839 161.689 67.1988 161.689 67.1988C159.719 66.6359 152.261 61.4292 148.18 56.2225Z" fill="#989FB0"/>
<g id="Group">
<path id="Vector_20" d="M32.2258 67.199C32.2258 67.199 17.3094 62.8366 19.7016 67.7619C22.0939 72.6871 28.7078 82.5376 39.2619 84.9298C49.816 87.1814 43.4835 77.8938 43.6242 78.0345L32.2258 67.199Z" fill="#EEEEEE"/>
<g id="Vector_21" filter="url(#filter0_d_569_13418)">
<path d="M16.4652 57.6296C20.2647 61.8513 36.1662 68.043 49.1125 67.4801C50.9419 80.9894 52.3491 85.0703 54.7414 86.7589C48.2682 88.4476 30.8188 87.0404 28.4265 73.9533C16.1838 74.5162 16.4652 57.6296 16.4652 57.6296Z" fill="url(#paint0_linear_569_13418)"/>
</g>
</g>
<g id="Vector_22" filter="url(#filter1_d_569_13418)">
<path d="M184.627 107.586C188.849 104.772 196.448 91.6845 197.573 80.4268C209.535 80.4268 213.193 79.8639 215.164 77.8938C215.726 83.8041 214.601 98.2984 204.469 106.882C193.211 108.008 184.627 107.586 184.627 107.586Z" fill="url(#paint1_linear_569_13418)"/>
</g>
<g id="Group_2">
<g id="Group_3">
<g id="Vector_23" filter="url(#filter2_d_569_13418)">
<path d="M152.965 153.602C133.405 156.838 129.886 157.401 122.428 156.416C114.97 155.431 104.557 154.165 101.039 160.919C99.4907 152.054 95.9727 143.892 89.4995 137.7C89.9217 137.137 90.2031 136.293 90.2031 135.449C90.2031 133.76 89.2181 132.353 87.6701 131.79C87.9516 131.227 88.0923 130.664 88.0923 130.101C88.0923 127.99 86.4036 126.161 84.1521 126.161C82.8856 126.161 81.7598 126.724 81.0562 127.709C81.1969 127.005 81.3377 126.442 81.3377 126.161C81.3377 124.05 79.649 122.221 77.3975 122.221C76.2717 122.221 75.1459 122.784 74.4423 123.628C73.8794 122.784 73.0351 122.221 71.9093 122.221C70.2207 122.221 68.9542 123.487 68.9542 125.176C68.9542 125.457 68.9542 126.161 68.9542 127.005C58.963 123.769 56.8522 123.628 56.8522 123.628C62.9032 111.667 91.6103 94.2173 112.296 97.4539C125.524 99.424 140.441 103.083 148.04 117.577C147.617 117.436 147.195 117.296 146.773 117.296C146.632 117.296 146.351 117.296 146.069 117.436C145.366 116.451 144.24 115.888 142.974 115.888C141.003 115.888 139.456 117.296 139.174 119.125C139.033 119.125 138.47 119.125 138.048 119.125C135.938 119.125 134.249 120.814 134.249 122.924C134.249 124.472 135.234 125.88 136.641 126.442C135.938 127.146 135.515 127.99 135.515 129.116C135.515 131.227 137.204 132.916 139.315 132.916C140.722 132.916 141.848 132.212 142.551 131.227C143.255 132.212 144.381 132.916 145.788 132.916C147.899 132.916 149.587 131.227 149.587 129.116C149.587 128.975 149.587 128.975 149.587 128.835C150.573 128.413 151.417 127.568 151.698 126.583C153.528 133.619 154.231 142.485 152.965 153.602Z" fill="url(#paint2_linear_569_13418)"/>
</g>
<path id="Vector_24" d="M103.853 143.329C109.341 141.64 132.701 136.434 146.069 137.982L103.853 143.329Z" fill="white"/>
<path id="Vector (Stroke)" fill-rule="evenodd" clip-rule="evenodd" d="M122.152 140.345C113.982 141.66 106.814 143.375 104.122 144.204L103.584 142.454C106.381 141.594 113.637 139.862 121.861 138.538C130.07 137.217 139.358 136.283 146.175 137.073L145.964 138.891C139.413 138.132 130.336 139.028 122.152 140.345Z" fill="#D6DCE8"/>
<path id="Vector_25" d="M98.3649 135.871C102.868 133.901 124.539 129.398 135.515 128.975L98.3649 135.871Z" fill="white"/>
<path id="Vector (Stroke)_2" fill-rule="evenodd" clip-rule="evenodd" d="M104.747 134.91C101.906 135.617 99.7776 136.252 98.7317 136.709L97.9982 135.033C99.2038 134.505 101.473 133.839 104.305 133.134C107.16 132.423 110.65 131.659 114.339 130.945C121.703 129.518 129.92 128.275 135.48 128.061L135.551 129.89C130.134 130.098 122.028 131.319 114.687 132.741C111.023 133.451 107.565 134.209 104.747 134.91Z" fill="#D6DCE8"/>
<path id="Vector_26" d="M93.1583 127.568C111.03 117.577 125.102 121.799 136.641 112.933L93.1583 127.568Z" fill="white"/>
<path id="Vector (Stroke)_3" fill-rule="evenodd" clip-rule="evenodd" d="M117.437 120.729C110.247 122.03 102.395 123.452 93.6048 128.367L92.7118 126.769C101.774 121.703 109.88 120.236 117.068 118.936L117.111 118.928C124.336 117.621 130.516 116.485 136.084 112.208L137.199 113.659C131.249 118.23 124.65 119.424 117.516 120.715L117.437 120.729Z" fill="#D6DCE8"/>
<path id="Vector_27" d="M87.3886 121.236C94.9876 116.029 101.461 113.637 110.185 112.933L87.3886 121.236Z" fill="white"/>
<path id="Vector (Stroke)_4" fill-rule="evenodd" clip-rule="evenodd" d="M110.259 113.845C101.705 114.535 95.3833 116.867 87.9057 121.99L86.8713 120.481C94.5916 115.191 101.216 112.738 110.112 112.021L110.259 113.845Z" fill="#D6DCE8"/>
</g>
</g>
<path id="Vector_28" d="M134.53 100.69C134.53 100.831 134.53 101.113 134.53 101.253V101.394C134.53 101.535 134.53 101.675 134.389 101.816C133.545 104.068 129.886 106.741 126.087 107.164C122.287 107.586 118.347 106.038 116.659 99.7053C112.578 103.646 108.637 104.208 105.401 103.364C101.179 102.238 98.3648 98.861 98.2241 97.876C98.2241 97.4538 98.2241 97.0317 98.3648 96.6095C99.3499 87.4626 108.215 80.9894 118.207 82.1152C128.198 83.3817 135.515 91.6842 134.53 100.69Z" fill="#BFC8D6"/>
<path id="Vector_29" d="M118.207 83.5225C117.362 83.3818 116.377 83.3818 115.533 83.5225C114.407 83.804 112.718 84.0854 112.437 85.4926C112.296 87.322 116.236 89.4328 117.362 89.5735C118.488 89.7143 122.85 88.5885 123.132 86.7591C123.273 84.9297 121.725 84.2261 120.317 83.804C119.614 83.6633 118.769 83.3818 118.207 83.5225Z" fill="#989FB0"/>
<path id="Vector 39 (Stroke)" fill-rule="evenodd" clip-rule="evenodd" d="M117.042 92.9463C116.976 91.0703 116.749 89.1085 116.56 87.8788L117.697 87.7039C117.891 88.9672 118.124 90.975 118.192 92.9057C118.226 93.8708 118.219 94.8281 118.143 95.6692C118.069 96.4949 117.923 97.2691 117.643 97.8289L116.614 97.3143C116.794 96.9536 116.926 96.3567 116.997 95.5655C117.068 94.7898 117.075 93.8845 117.042 92.9463Z" fill="#989FB0"/>
<path id="Vector_30" d="M94.7061 55.519L94.5654 57.0669C93.8618 57.7705 93.2989 58.6148 92.5953 59.4592C88.9366 64.3844 85.5592 70.8576 84.5742 79.0194C84.2928 78.0344 81.3376 67.4803 80.7747 65.5102C80.634 65.088 80.4933 64.8066 80.4933 64.8066V61.8514L83.167 55.9411L90.0623 52.4231L94.7061 55.519Z" fill="#6F788D"/>
<path id="Vector_31" d="M100.898 51.1565C98.9277 52.5638 96.6762 54.5339 94.5654 57.0668C93.8618 57.7704 93.2989 58.6148 92.5953 59.4591C92.3138 55.5189 87.67 54.956 87.67 54.956C87.1071 58.474 84.0113 62.4142 80.634 65.5101C77.8195 68.0431 74.7237 69.8725 72.7536 70.0132C72.1907 70.0132 71.7685 69.591 72.05 69.0281C73.4572 65.3694 73.035 60.022 73.4572 57.3483C74.0201 54.3931 82.4633 49.89 86.8257 48.2014C90.203 46.9349 99.0685 48.7643 100.898 51.1565Z" fill="#989FB0"/>
</g>
<defs>
<filter id="filter0_d_569_13418" x="0.355949" y="46.1234" width="61.2892" height="52.7165" filterUnits="userSpaceOnUse" color-interpolation-filters="sRGB">
<feFlood flood-opacity="0" result="BackgroundImageFix"/>
<feColorMatrix in="SourceAlpha" type="matrix" values="0 0 0 0 0 0 0 0 0 0 0 0 0 0 0 0 0 0 127 0" result="hardAlpha"/>
<feOffset dx="-4.60249"/>
<feGaussianBlur stdDeviation="5.75311"/>
<feColorMatrix type="matrix" values="0 0 0 0 0.397708 0 0 0 0 0.47749 0 0 0 0 0.575 0 0 0 0.15 0"/>
<feBlend mode="normal" in2="BackgroundImageFix" result="effect1_dropShadow_569_13418"/>
<feBlend mode="normal" in="SourceGraphic" in2="effect1_dropShadow_569_13418" result="shape"/>
</filter>
<filter id="filter1_d_569_13418" x="168.518" y="66.3876" width="53.6668" height="52.7822" filterUnits="userSpaceOnUse" color-interpolation-filters="sRGB">
<feFlood flood-opacity="0" result="BackgroundImageFix"/>
<feColorMatrix in="SourceAlpha" type="matrix" values="0 0 0 0 0 0 0 0 0 0 0 0 0 0 0 0 0 0 127 0" result="hardAlpha"/>
<feOffset dx="-4.60249"/>
<feGaussianBlur stdDeviation="5.75311"/>
<feColorMatrix type="matrix" values="0 0 0 0 0.397708 0 0 0 0 0.47749 0 0 0 0 0.575 0 0 0 0.15 0"/>
<feBlend mode="normal" in2="BackgroundImageFix" result="effect1_dropShadow_569_13418"/>
<feBlend mode="normal" in="SourceGraphic" in2="effect1_dropShadow_569_13418" result="shape"/>
</filter>
<filter id="filter2_d_569_13418" x="31.5385" y="84.4037" width="147.382" height="114.486" filterUnits="userSpaceOnUse" color-interpolation-filters="sRGB">
<feFlood flood-opacity="0" result="BackgroundImageFix"/>
<feColorMatrix in="SourceAlpha" type="matrix" values="0 0 0 0 0 0 0 0 0 0 0 0 0 0 0 0 0 0 127 0" result="hardAlpha"/>
<feOffset dy="12.6568"/>
<feGaussianBlur stdDeviation="12.6568"/>
<feColorMatrix type="matrix" values="0 0 0 0 0.397708 0 0 0 0 0.47749 0 0 0 0 0.575 0 0 0 0.27 0"/>
<feBlend mode="normal" in2="BackgroundImageFix" result="effect1_dropShadow_569_13418"/>
<feBlend mode="normal" in="SourceGraphic" in2="effect1_dropShadow_569_13418" result="shape"/>
</filter>
<linearGradient id="paint0_linear_569_13418" x1="35.5905" y1="56.9426" x2="35.5905" y2="87.654" gradientUnits="userSpaceOnUse">
<stop stop-color="#FDFEFF"/>
<stop offset="0.9964" stop-color="#ECF0F5"/>
</linearGradient>
<linearGradient id="paint1_linear_569_13418" x1="199.944" y1="77.2052" x2="199.944" y2="107.984" gradientUnits="userSpaceOnUse">
<stop stop-color="#FDFEFF"/>
<stop offset="0.9964" stop-color="#ECF0F5"/>
</linearGradient>
<linearGradient id="paint2_linear_569_13418" x1="105.198" y1="95.5834" x2="105.198" y2="161.608" gradientUnits="userSpaceOnUse">
<stop stop-color="#FDFEFF"/>
<stop offset="0.9964" stop-color="#ECF0F5"/>
</linearGradient>
</defs>
</svg>
