<svg width="150" height="149" viewBox="0 0 150 149" fill="none" xmlns="http://www.w3.org/2000/svg">
<g filter="url(#filter0_d_4531_4696)">
<path d="M74.5577 115.101C103.584 115.101 127.115 91.7975 127.115 63.0507C127.115 34.3039 103.584 11 74.5577 11C45.5309 11 22 34.3039 22 63.0507C22 91.7975 45.5309 115.101 74.5577 115.101Z" fill="#E9EDF8"/>
</g>
<path d="M74.5575 107.328C99.1976 107.328 119.172 87.5042 119.172 63.0508C119.172 38.5974 99.1976 18.7739 74.5575 18.7739C49.9174 18.7739 29.9426 38.5974 29.9426 63.0508C29.9426 87.5042 49.9174 107.328 74.5575 107.328Z" fill="white"/>
<path opacity="0.3" d="M119.341 62.8818C119.341 63.7268 119.341 64.4028 119.172 65.2477C117.989 41.9263 98.5549 23.3368 74.7265 23.3368C50.8981 23.3368 31.4636 41.9263 30.1116 65.2477C30.1116 64.4028 29.9426 63.7268 29.9426 62.8818C29.9426 38.5464 50.0531 18.7739 74.5575 18.7739C99.3998 18.7739 119.341 38.5464 119.341 62.8818Z" fill="#D2DFF8"/>
<path d="M73.5439 60.854L70.1639 64.2339L49.2085 43.6165C48.1945 42.6025 48.1945 41.0815 49.2085 40.2366C50.2225 39.2226 51.7434 39.2226 52.5884 40.2366L73.5439 60.854Z" fill="#AAB2C5"/>
<path d="M78.7825 64.4028L75.4026 61.0229L90.9502 45.6443C91.9642 44.6303 93.4851 44.6303 94.3301 45.6443C95.3441 46.6582 95.3441 48.1792 94.3301 49.0242L78.7825 64.4028Z" fill="#AAB2C5"/>
<path d="M72.5298 62.3748C73.8818 61.0228 75.7407 61.0228 76.9237 62.3748C78.2757 63.7268 78.2757 65.5857 76.9237 66.5997C75.5717 67.6137 73.7128 67.9517 72.5298 66.5997C71.3468 65.4167 71.3468 63.5578 72.5298 62.3748Z" fill="#AAB2C5"/>
<path d="M85.7115 98.3707C85.3735 98.3707 85.0355 98.2017 85.0355 97.8637L74.0508 64.7406C73.8818 64.4026 74.2198 63.8956 74.5578 63.7266C74.8958 63.5576 75.4028 63.8956 75.5718 64.2336L86.5565 97.3567C86.7255 97.6947 86.3875 98.2017 86.0495 98.3707C85.8805 98.3707 85.8805 98.3707 85.7115 98.3707Z" fill="#AAB2C5"/>
<path d="M71.0088 60.854C73.2057 58.826 76.5857 58.826 78.6136 60.854C80.8105 62.8819 80.8105 66.2618 78.6136 68.4588C76.4167 70.6557 73.0367 70.4867 71.0088 68.4588C68.9808 66.4308 68.8119 62.8819 71.0088 60.854Z" fill="white"/>
<path fill-rule="evenodd" clip-rule="evenodd" d="M76.5347 63.0177L76.4923 62.9753C75.6805 62.1635 74.1397 62.0466 73.0436 63.0584C72.2452 63.7954 72.1612 65.3685 73.1301 66.3375C74.0485 67.2558 75.528 67.3018 76.4923 66.3375C77.5668 65.263 77.4397 63.8531 76.5788 63.0584L76.5347 63.0177ZM78.6136 60.854C76.5857 58.826 73.2057 58.826 71.0088 60.854C68.8119 62.8819 68.9808 66.4308 71.0088 68.4588C73.0367 70.4867 76.4167 70.6557 78.6136 68.4588C80.8105 66.2618 80.8105 62.8819 78.6136 60.854Z" fill="#AAB2C5"/>
<path d="M76.2477 22.8296H73.5438C73.0368 22.8296 72.5298 23.3366 72.5298 23.8436V31.7864C72.5298 32.2933 73.0368 32.8003 73.5438 32.8003H76.2477C76.7547 32.8003 77.2617 32.2933 77.2617 31.7864V23.6746C77.0927 23.1676 76.7547 22.8296 76.2477 22.8296Z" fill="#CBD4E2"/>
<path d="M76.2477 92.9629H73.5438C73.0368 92.9629 72.5298 93.4699 72.5298 93.9769V101.92C72.5298 102.427 73.0368 102.934 73.5438 102.934H76.2477C76.7547 102.934 77.2617 102.427 77.2617 101.92V93.9769C77.0927 93.4699 76.7547 92.9629 76.2477 92.9629Z" fill="#CBD4E2"/>
<path d="M43.2934 60.3467H35.3506C34.8437 60.3467 34.3367 60.8537 34.3367 61.3607V64.0646C34.3367 64.5716 34.8437 65.0786 35.3506 65.0786H43.2934C43.8004 65.0786 44.3074 64.5716 44.3074 64.0646V61.3607C44.3074 60.8537 43.8004 60.3467 43.2934 60.3467Z" fill="#CBD4E2"/>
<path d="M114.272 60.5156H106.329C105.822 60.5156 105.315 61.0226 105.315 61.5296V64.2335C105.315 64.7405 105.822 65.2475 106.329 65.2475H114.272C114.779 65.2475 115.286 64.7405 115.286 64.2335V61.5296C115.117 61.0226 114.779 60.5156 114.272 60.5156Z" fill="#CBD4E2"/>
<defs>
<filter id="filter0_d_4531_4696" x="0" y="0" width="149.115" height="148.102" filterUnits="userSpaceOnUse" color-interpolation-filters="sRGB">
<feFlood flood-opacity="0" result="BackgroundImageFix"/>
<feColorMatrix in="SourceAlpha" type="matrix" values="0 0 0 0 0 0 0 0 0 0 0 0 0 0 0 0 0 0 127 0" result="hardAlpha"/>
<feOffset dy="11"/>
<feGaussianBlur stdDeviation="11"/>
<feColorMatrix type="matrix" values="0 0 0 0 0.397708 0 0 0 0 0.47749 0 0 0 0 0.575 0 0 0 0.27 0"/>
<feBlend mode="normal" in2="BackgroundImageFix" result="effect1_dropShadow_4531_4696"/>
<feBlend mode="normal" in="SourceGraphic" in2="effect1_dropShadow_4531_4696" result="shape"/>
</filter>
</defs>
</svg>
