<svg width="175" height="126" viewBox="0 0 175 126" fill="none" xmlns="http://www.w3.org/2000/svg">
<path d="M86.7867 126C118.966 126 145.052 99.825 145.052 67.5364C145.052 35.2478 118.966 9.07278 86.7867 9.07278C54.6078 9.07278 28.5216 35.2478 28.5216 67.5364C28.5216 99.825 54.6078 126 86.7867 126Z" fill="#EAEEF9"/>
<path d="M153.445 38.8335C155.261 37.168 155.388 34.3406 153.728 32.5181C152.069 30.6957 149.251 30.5684 147.435 32.2338C145.618 33.8993 145.491 36.7267 147.151 38.5492C148.811 40.3716 151.629 40.4989 153.445 38.8335Z" fill="#EAEEF9"/>
<path d="M53.1143 14.0902C54.6537 13.5882 55.496 11.929 54.9956 10.3845C54.4953 8.83987 52.8418 7.99471 51.3025 8.49674C49.7631 8.99877 48.9209 10.6579 49.4212 12.2025C49.9215 13.7471 51.575 14.5922 53.1143 14.0902Z" fill="#EAEEF9"/>
<path d="M59.5118 4.49505C60.5585 4.15367 61.1313 3.02548 60.7911 1.97516C60.4508 0.924841 59.3265 0.350131 58.2797 0.69151C57.233 1.03289 56.6602 2.16108 57.0004 3.2114C57.3407 4.26172 58.465 4.83643 59.5118 4.49505Z" fill="#EAEEF9"/>
<path d="M153.782 18.7934C154.547 18.0921 154.6 16.9016 153.901 16.1343C153.202 15.3669 152.016 15.3133 151.251 16.0146C150.486 16.7158 150.433 17.9063 151.132 18.6737C151.831 19.441 153.017 19.4946 153.782 18.7934Z" fill="#EAEEF9"/>
<path d="M107.505 4.76218C108.03 4.28008 108.067 3.4616 107.587 2.93405C107.106 2.4065 106.291 2.36965 105.765 2.85175C105.239 3.33385 105.202 4.15233 105.683 4.67988C106.163 5.20743 106.979 5.24428 107.505 4.76218Z" fill="#EAEEF9"/>
<path d="M0.0338135 115.531H170.609" stroke="#D6DCE8" stroke-width="2" stroke-miterlimit="10"/>
<path d="M119.641 114.445H14.5604L33.7612 25.4042H138.958L119.641 114.445Z" fill="white"/>
<path d="M119.641 114.445H14.5604L33.7612 25.4042H138.958L119.641 114.445Z" fill="#D5DAE8"/>
<path d="M59.0131 114.445H37.2523C33.2957 114.445 30.0374 111.043 30.2702 107.055L33.7612 25.4042H38.9978L59.0131 114.445Z" fill="url(#paint0_linear_1961_54532)"/>
<path d="M161.998 114.445H56.918L39.1137 46.0514L38.9973 45.5821L33.7607 25.4042H138.958L143.496 42.8839L144.194 45.5821L144.31 46.0514L161.998 114.445Z" fill="white"/>
<path d="M144.194 45.5821H38.9973L33.7607 25.4042H138.958L143.496 42.8839L144.194 45.5821Z" fill="#EFF3FB"/>
<path opacity="0.3" d="M61.4566 39.8337C63.5132 39.8337 65.1803 38.1529 65.1803 36.0796C65.1803 34.0063 63.5132 32.3256 61.4566 32.3256C59.4 32.3256 57.7328 34.0063 57.7328 36.0796C57.7328 38.1529 59.4 39.8337 61.4566 39.8337Z" fill="#ADB6C8"/>
<path opacity="0.3" d="M122.899 39.8337C124.955 39.8337 126.623 38.1529 126.623 36.0796C126.623 34.0063 124.955 32.3256 122.899 32.3256C120.842 32.3256 119.175 34.0063 119.175 36.0796C119.175 38.1529 120.842 39.8337 122.899 39.8337Z" fill="#ADB6C8"/>
<path d="M60.5253 37.6049C59.8271 37.6049 59.2453 37.0183 59.2453 36.3144C59.2453 35.6105 59.8271 35.024 60.5253 35.024C63.0854 35.024 65.7619 31.3872 65.7619 25.8735C65.7619 25.7562 65.7619 25.5216 65.7619 25.4042C65.6455 20.0078 62.9691 16.723 60.5253 16.723C58.198 16.723 55.6379 19.8905 55.2888 24.8177H52.6123C52.9614 18.7174 56.3361 14.1421 60.409 14.1421C64.7146 14.1421 68.0893 19.1866 68.322 25.6389C68.322 25.7562 68.322 25.8735 68.322 25.9908C68.4384 32.4431 64.9473 37.6049 60.5253 37.6049Z" fill="#ADB6C8"/>
<path d="M121.619 37.6049C120.921 37.6049 120.339 37.0183 120.339 36.3144C120.339 35.6105 120.921 35.024 121.619 35.024C124.179 35.024 126.856 31.3872 126.856 25.8735C126.856 25.7562 126.856 25.5216 126.856 25.4042C126.739 20.0078 124.063 16.723 121.619 16.723C119.292 16.723 116.732 19.8905 116.382 24.8177H113.706C114.055 18.7174 117.43 14.1421 121.503 14.1421C125.808 14.1421 129.183 19.1866 129.416 25.6389C129.416 25.7562 129.416 25.8735 129.416 25.9908C129.532 32.4431 126.041 37.6049 121.619 37.6049Z" fill="#ADB6C8"/>
<path d="M1.17786 114.328H170.493" stroke="#D5DAE8" stroke-width="2" stroke-miterlimit="10" stroke-linecap="round" stroke-linejoin="round"/>
<path opacity="0.3" d="M123.481 71.9778C122.782 71.9778 122.317 71.3912 122.317 70.8047C122.317 70.1008 122.782 69.6315 123.481 69.6315H127.088C127.786 69.6315 128.252 70.2181 128.252 70.8047C128.252 71.5085 127.67 71.9778 127.088 71.9778H123.481Z" fill="#D5DAE8"/>
<path d="M73.9079 105.06C73.4424 105.06 72.977 104.708 72.7442 104.239L70.8823 97.3174H61.6893C60.9911 97.3174 60.5256 96.7309 60.5256 96.1443C60.5256 95.4404 61.1074 94.9712 61.6893 94.9712H70.1841L67.2749 84.6476H58.431C57.7328 84.6476 57.2673 84.061 57.2673 83.4744C57.2673 82.7705 57.7328 82.3013 58.431 82.3013H66.5767L63.6675 71.9777H55.289C54.5908 71.9777 54.1253 71.3911 54.1253 70.8046C54.1253 70.1007 54.5908 69.6314 55.289 69.6314H63.0857L60.1765 59.3078H52.1471C51.4489 59.3078 50.9834 58.7212 50.9834 58.1347C50.9834 57.4308 51.4489 56.9615 52.1471 56.9615H59.4783L58.3146 52.7382C58.1982 52.1517 58.5473 51.4478 59.1292 51.3305C59.2455 51.3305 59.3619 51.3305 59.4783 51.3305C59.9437 51.3305 60.4092 51.6824 60.642 52.1517L62.0384 56.9615H71.3478C72.046 56.9615 72.5115 57.4308 72.5115 58.1347C72.5115 58.8386 72.046 59.3078 71.3478 59.3078H62.7366L65.6458 69.6314H80.3082L75.6534 52.7382C75.5371 52.1517 75.8862 51.4478 76.468 51.3305C76.5844 51.3305 76.7008 51.3305 76.8171 51.3305C77.2826 51.3305 77.7481 51.6824 77.9808 52.1517L79.3772 56.9615H84.3811C85.0793 56.9615 85.5447 57.4308 85.5447 58.1347C85.5447 58.8386 84.9629 59.3078 84.3811 59.3078H80.0754L82.9846 69.6314H92.8759C93.5741 69.6314 94.0396 70.218 94.0396 70.8046C94.0396 71.5084 93.5741 71.9777 92.8759 71.9777H83.6828L86.592 82.3013H101.371L94.9706 59.3078H91.8286C91.1304 59.3078 90.6649 58.7212 90.6649 58.1347C90.6649 57.4308 91.2468 56.9615 91.8286 56.9615H94.2723L93.1087 52.7382C92.9923 52.3863 93.1087 52.1517 93.225 51.7997C93.3414 51.5651 93.5741 51.3305 93.9232 51.2132C94.0396 51.2132 94.156 51.2132 94.2723 51.2132C94.7378 51.2132 95.2033 51.5651 95.436 52.0344L96.8324 56.8442H99.2762C99.9744 56.8442 100.44 57.3135 100.44 58.0174C100.44 58.7212 99.9744 59.1905 99.2762 59.1905H97.5307L100.44 69.5141H115.219L112.309 59.1905H104.745C104.047 59.1905 103.582 58.6039 103.582 58.0174C103.582 57.3135 104.164 56.8442 104.745 56.8442H111.262L110.098 52.6209C109.982 52.0344 110.331 51.3305 110.913 51.2132C111.029 51.2132 111.146 51.2132 111.262 51.2132C111.728 51.2132 112.193 51.5651 112.426 52.0344L113.822 56.8442H128.601L127.437 52.6209C127.321 52.0344 127.67 51.3305 128.252 51.2132C128.368 51.2132 128.485 51.2132 128.601 51.2132C129.066 51.2132 129.532 51.5651 129.765 52.0344L131.161 56.8442H140.238C140.936 56.8442 141.401 57.3135 141.401 58.0174C141.401 58.7212 140.936 59.1905 140.238 59.1905H131.51L134.419 69.5141H143.147C143.845 69.5141 144.311 70.1007 144.311 70.6872C144.311 71.3911 143.845 71.8604 143.147 71.8604H135.118L138.027 82.184H146.405C147.103 82.184 147.569 82.7705 147.569 83.3571C147.569 84.061 147.103 84.5302 146.405 84.5302H138.725L141.634 94.8539H149.547C150.245 94.8539 150.711 95.4404 150.711 96.027C150.711 96.7309 150.129 97.2001 149.547 97.2001H142.216L143.962 103.418C144.078 104.004 143.729 104.708 143.147 104.826C143.031 104.826 142.914 104.826 142.798 104.826C142.332 104.826 141.867 104.474 141.634 104.004L139.772 97.2001H124.994L126.739 103.3C126.855 103.652 126.739 103.887 126.623 104.239C126.506 104.474 126.274 104.708 125.924 104.826C125.808 104.826 125.692 104.826 125.575 104.826C125.11 104.826 124.644 104.474 124.412 104.004L122.55 97.3174H107.771L109.517 103.418C109.633 104.004 109.284 104.708 108.702 104.826C108.586 104.826 108.469 104.826 108.353 104.826C107.887 104.826 107.422 104.474 107.189 104.004L105.327 97.3174H90.5486L92.2941 103.418C92.4105 104.004 92.0613 104.708 91.4795 104.826C91.3631 104.826 91.2468 104.826 91.1304 104.826C90.6649 104.826 90.1995 104.474 89.9667 104.004L88.1048 97.3174H73.3261L75.0716 103.535C75.188 103.887 75.0716 104.122 74.9552 104.474C74.8389 104.708 74.6061 104.943 74.257 105.06C74.1407 105.06 74.0243 105.06 73.9079 105.06ZM107.073 94.9712H139.074L136.165 84.6476H121.386L122.433 88.4016C122.55 88.7535 122.433 88.9882 122.317 89.3401C122.201 89.5747 121.968 89.8094 121.619 89.9267C121.502 89.9267 121.386 89.9267 121.27 89.9267C120.804 89.9267 120.339 89.5747 120.106 89.1055L118.942 84.7649H114.52C113.822 84.7649 113.357 84.1783 113.357 83.5917C113.357 82.8879 113.822 82.4186 114.52 82.4186H118.244L115.335 72.095H100.673L103.582 82.4186H107.189C107.887 82.4186 108.353 83.0052 108.353 83.5917C108.353 84.2956 107.887 84.7649 107.189 84.7649H104.164L107.073 94.9712ZM89.8503 94.9712H104.629L101.72 84.6476H86.9411L89.8503 94.9712ZM72.6279 94.9712H87.4066L84.4974 84.6476H80.1918C79.4936 84.6476 79.0281 84.061 79.0281 83.4744C79.0281 82.7705 79.61 82.3013 80.1918 82.3013H83.9156L81.0064 71.9777H66.2276L69.1368 82.3013H72.977C73.6752 82.3013 74.1407 82.8879 74.1407 83.4744C74.1407 84.1783 73.5588 84.6476 72.977 84.6476H69.835L72.6279 94.9712ZM120.804 82.3013H135.583L129.183 59.3078H114.288L120.804 82.3013Z" fill="#D5DAE8"/>
<path d="M150.578 78.6591C145.896 78.6591 141.32 80.0474 137.427 82.6483C133.534 85.2492 130.501 88.946 128.709 93.2713C126.917 97.5965 126.449 102.356 127.362 106.947C128.275 111.539 130.53 115.757 133.84 119.067C137.151 122.377 141.368 124.632 145.96 125.545C150.551 126.458 155.311 125.99 159.636 124.198C163.961 122.407 167.658 119.373 170.259 115.48C172.86 111.588 174.248 107.011 174.248 102.33C174.248 99.2211 173.636 96.1431 172.446 93.2713C171.257 90.3994 169.513 87.79 167.315 85.592C165.117 83.394 162.508 81.6505 159.636 80.4609C156.764 79.2714 153.686 78.6591 150.578 78.6591Z" fill="url(#paint1_linear_1961_54532)"/>
<path d="M160.192 104.707H150.566C149.928 104.707 149.316 104.454 148.865 104.002C148.413 103.551 148.16 102.939 148.16 102.301V92.6747C148.16 92.0365 148.413 91.4244 148.865 90.9731C149.316 90.5218 149.928 90.2682 150.566 90.2682C151.205 90.2682 151.817 90.5218 152.268 90.9731C152.719 91.4244 152.973 92.0365 152.973 92.6747V99.8942H160.192C160.831 99.8942 161.443 100.148 161.894 100.599C162.345 101.05 162.599 101.662 162.599 102.301C162.599 102.939 162.345 103.551 161.894 104.002C161.443 104.454 160.831 104.707 160.192 104.707Z" fill="white"/>
<defs>
<linearGradient id="paint0_linear_1961_54532" x1="30.2489" y1="69.9114" x2="59.056" y2="69.9114" gradientUnits="userSpaceOnUse">
<stop stop-color="#D5DAE8"/>
<stop offset="1" stop-color="#9AA3BA"/>
</linearGradient>
<linearGradient id="paint1_linear_1961_54532" x1="126.886" y1="102.335" x2="174.257" y2="102.335" gradientUnits="userSpaceOnUse">
<stop stop-color="#B0BACC"/>
<stop offset="1" stop-color="#969EAE"/>
</linearGradient>
</defs>
</svg>
