<svg width="165" height="155" viewBox="0 0 165 155" fill="none" xmlns="http://www.w3.org/2000/svg">
<path d="M88.0095 124.731C120.571 124.731 146.969 98.3332 146.969 65.6556C146.969 32.978 120.454 6.58008 88.0095 6.58008C55.4482 6.58008 29.0503 32.978 29.0503 65.6556C29.0503 98.3332 55.4482 124.731 88.0095 124.731Z" fill="#EAEEF9"/>
<path d="M154.453 46.9382C157.087 46.9382 159.221 44.8035 159.221 42.1702C159.221 39.537 157.087 37.4023 154.453 37.4023C151.82 37.4023 149.686 39.537 149.686 42.1702C149.686 44.8035 151.82 46.9382 154.453 46.9382Z" fill="#EAEEF9"/>
<path d="M161.431 28.3326C163.229 28.3326 164.687 26.8748 164.687 25.0764C164.687 23.2781 163.229 21.8203 161.431 21.8203C159.633 21.8203 158.175 23.2781 158.175 25.0764C158.175 26.8748 159.633 28.3326 161.431 28.3326Z" fill="#EAEEF9"/>
<path d="M31.7254 26.9302C33.5237 26.9302 34.9815 25.4724 34.9815 23.6741C34.9815 21.8758 33.5237 20.418 31.7254 20.418C29.9271 20.418 28.4692 21.8758 28.4692 23.6741C28.4692 25.4724 29.9271 26.9302 31.7254 26.9302Z" fill="#EAEEF9"/>
<path d="M11.8396 89.727C15.1793 89.727 17.8867 87.0196 17.8867 83.6799C17.8867 80.3402 15.1793 77.6328 11.8396 77.6328C8.49986 77.6328 5.79248 80.3402 5.79248 83.6799C5.79248 87.0196 8.49986 89.727 11.8396 89.727Z" fill="#EAEEF9"/>
<g filter="url(#filter0_d_1059_12226)">
<path d="M136.008 121.438H37.3716C35.4501 121.438 33.8735 119.862 33.8735 117.94V93.8477C33.8735 91.9262 35.4501 90.3496 37.3716 90.3496H136.008C137.929 90.3496 139.506 91.9262 139.506 93.8477V117.94C139.506 119.862 137.929 121.438 136.008 121.438Z" fill="url(#paint0_linear_1059_12226)"/>
</g>
<path d="M119.651 102.027H64.7157C63.5333 102.027 62.5972 101.309 62.5972 100.401C62.5972 99.4938 63.5333 98.7754 64.7157 98.7754H119.651C120.833 98.7754 121.769 99.4938 121.769 100.401C121.769 101.309 120.833 102.027 119.651 102.027Z" fill="#D6DCE8"/>
<path d="M99.943 111.929H64.7157C63.5333 111.929 62.5972 111.211 62.5972 110.304C62.5972 109.396 63.5333 108.678 64.7157 108.678H99.943C101.125 108.678 102.062 109.396 102.062 110.304C102.062 111.211 101.125 111.929 99.943 111.929Z" fill="#D6DCE8"/>
<path d="M48.4574 114.639C53.3008 114.639 57.2272 110.713 57.2272 105.869C57.2272 101.026 53.3008 97.0996 48.4574 97.0996C43.6139 97.0996 39.6875 101.026 39.6875 105.869C39.6875 110.713 43.6139 114.639 48.4574 114.639Z" fill="#989FB0"/>
<path fill-rule="evenodd" clip-rule="evenodd" d="M51.9206 103.87L46.4025 109.339L44.9946 107.918L50.5127 102.449L51.9206 103.87Z" fill="white"/>
<path fill-rule="evenodd" clip-rule="evenodd" d="M46.4025 102.449L51.9206 107.918L50.5127 109.339L44.9946 103.87L46.4025 102.449Z" fill="white"/>
<g filter="url(#filter1_d_1059_12226)">
<path d="M139.322 42.0886H40.6861C38.7646 42.0886 37.188 40.512 37.188 38.5906V14.4981C37.188 12.5766 38.7646 11 40.6861 11H139.322C141.244 11 142.82 12.5766 142.82 14.4981V38.5906C142.82 40.512 141.244 42.0886 139.322 42.0886Z" fill="url(#paint1_linear_1059_12226)"/>
</g>
<path d="M122.965 22.6775H68.0302C66.8477 22.6775 65.9116 21.9591 65.9116 21.0517C65.9116 20.1442 66.8477 19.4258 68.0302 19.4258H122.965C124.147 19.4258 125.084 20.1442 125.084 21.0517C125.084 21.9591 124.147 22.6775 122.965 22.6775Z" fill="#D6DCE8"/>
<path d="M103.257 32.5799H68.0302C66.8477 32.5799 65.9116 31.8615 65.9116 30.954C65.9116 30.0465 66.8477 29.3281 68.0302 29.3281H103.257C104.44 29.3281 105.376 30.0465 105.376 30.954C105.376 31.8615 104.44 32.5799 103.257 32.5799Z" fill="#D6DCE8"/>
<path d="M51.7713 35.2897C56.6148 35.2897 60.5412 31.3633 60.5412 26.5199C60.5412 21.6764 56.6148 17.75 51.7713 17.75C46.9279 17.75 43.0015 21.6764 43.0015 26.5199C43.0015 31.3633 46.9279 35.2897 51.7713 35.2897Z" fill="#989FB0"/>
<path fill-rule="evenodd" clip-rule="evenodd" d="M55.2346 24.5202L49.7165 29.989L48.3086 28.5685L53.8267 23.0996L55.2346 24.5202Z" fill="white"/>
<path fill-rule="evenodd" clip-rule="evenodd" d="M49.7165 23.0996L55.2346 28.5685L53.8267 29.989L48.3086 24.5202L49.7165 23.0996Z" fill="white"/>
<g filter="url(#filter2_d_1059_12226)">
<path d="M124.184 81.5769H25.4981C23.5766 81.5769 22 80.0003 22 78.0788V53.9864C22 52.0649 23.5766 50.4883 25.4981 50.4883H124.134C126.056 50.4883 127.632 52.0649 127.632 53.9864V78.0788C127.682 80.0496 126.105 81.5769 124.184 81.5769Z" fill="url(#paint2_linear_1059_12226)"/>
</g>
<path d="M36.6331 74.8268C41.4766 74.8268 45.403 70.9004 45.403 66.057C45.403 61.2135 41.4766 57.2871 36.6331 57.2871C31.7897 57.2871 27.8633 61.2135 27.8633 66.057C27.8633 70.9004 31.7897 74.8268 36.6331 74.8268Z" fill="#989FB0"/>
<path fill-rule="evenodd" clip-rule="evenodd" d="M40.0964 64.0573L34.5783 69.5261L33.1704 68.1056L38.6885 62.6367L40.0964 64.0573Z" fill="white"/>
<path fill-rule="evenodd" clip-rule="evenodd" d="M34.5783 62.6367L40.0964 68.1056L38.6885 69.5261L33.1704 64.0573L34.5783 62.6367Z" fill="white"/>
<path d="M107.826 62.1658H52.8915C51.7091 62.1658 50.7729 61.4474 50.7729 60.5399C50.7729 59.6325 51.7091 58.9141 52.8915 58.9141H107.826C109.009 58.9141 109.945 59.6325 109.945 60.5399C109.945 61.4474 108.959 62.1658 107.826 62.1658Z" fill="#D6DCE8"/>
<path d="M88.1187 72.117H52.8915C51.7091 72.117 50.7729 71.3986 50.7729 70.4911C50.7729 69.5836 51.7091 68.8652 52.8915 68.8652H88.1187C89.3012 68.8652 90.2373 69.5836 90.2373 70.4911C90.188 71.3986 89.2519 72.117 88.1187 72.117Z" fill="#D6DCE8"/>
<defs>
<filter id="filter0_d_1059_12226" x="11.8735" y="79.3496" width="149.632" height="75.0879" filterUnits="userSpaceOnUse" color-interpolation-filters="sRGB">
<feFlood flood-opacity="0" result="BackgroundImageFix"/>
<feColorMatrix in="SourceAlpha" type="matrix" values="0 0 0 0 0 0 0 0 0 0 0 0 0 0 0 0 0 0 127 0" result="hardAlpha"/>
<feOffset dy="11"/>
<feGaussianBlur stdDeviation="11"/>
<feColorMatrix type="matrix" values="0 0 0 0 0.397708 0 0 0 0 0.47749 0 0 0 0 0.575 0 0 0 0.27 0"/>
<feBlend mode="normal" in2="BackgroundImageFix" result="effect1_dropShadow_1059_12226"/>
<feBlend mode="normal" in="SourceGraphic" in2="effect1_dropShadow_1059_12226" result="shape"/>
</filter>
<filter id="filter1_d_1059_12226" x="15.188" y="0" width="149.632" height="75.0879" filterUnits="userSpaceOnUse" color-interpolation-filters="sRGB">
<feFlood flood-opacity="0" result="BackgroundImageFix"/>
<feColorMatrix in="SourceAlpha" type="matrix" values="0 0 0 0 0 0 0 0 0 0 0 0 0 0 0 0 0 0 127 0" result="hardAlpha"/>
<feOffset dy="11"/>
<feGaussianBlur stdDeviation="11"/>
<feColorMatrix type="matrix" values="0 0 0 0 0.397708 0 0 0 0 0.47749 0 0 0 0 0.575 0 0 0 0.27 0"/>
<feBlend mode="normal" in2="BackgroundImageFix" result="effect1_dropShadow_1059_12226"/>
<feBlend mode="normal" in="SourceGraphic" in2="effect1_dropShadow_1059_12226" result="shape"/>
</filter>
<filter id="filter2_d_1059_12226" x="0" y="39.4883" width="149.634" height="75.0879" filterUnits="userSpaceOnUse" color-interpolation-filters="sRGB">
<feFlood flood-opacity="0" result="BackgroundImageFix"/>
<feColorMatrix in="SourceAlpha" type="matrix" values="0 0 0 0 0 0 0 0 0 0 0 0 0 0 0 0 0 0 127 0" result="hardAlpha"/>
<feOffset dy="11"/>
<feGaussianBlur stdDeviation="11"/>
<feColorMatrix type="matrix" values="0 0 0 0 0.397708 0 0 0 0 0.47749 0 0 0 0 0.575 0 0 0 0.27 0"/>
<feBlend mode="normal" in2="BackgroundImageFix" result="effect1_dropShadow_1059_12226"/>
<feBlend mode="normal" in="SourceGraphic" in2="effect1_dropShadow_1059_12226" result="shape"/>
</filter>
<linearGradient id="paint0_linear_1059_12226" x1="86.6553" y1="89.6305" x2="86.6553" y2="121.773" gradientUnits="userSpaceOnUse">
<stop stop-color="#FDFEFF"/>
<stop offset="0.9964" stop-color="#ECF0F5"/>
</linearGradient>
<linearGradient id="paint1_linear_1059_12226" x1="89.9698" y1="10.2809" x2="89.9698" y2="42.4238" gradientUnits="userSpaceOnUse">
<stop stop-color="#FDFEFF"/>
<stop offset="0.9964" stop-color="#ECF0F5"/>
</linearGradient>
<linearGradient id="paint2_linear_1059_12226" x1="74.7824" y1="49.7692" x2="74.7824" y2="81.9121" gradientUnits="userSpaceOnUse">
<stop stop-color="#FDFEFF"/>
<stop offset="0.9964" stop-color="#ECF0F5"/>
</linearGradient>
</defs>
</svg>
