<svg width="48" height="48" viewBox="0 0 48 48" fill="none" xmlns="http://www.w3.org/2000/svg">
<rect width="48" height="48" rx="11" fill="#DE80FF"/>
<path fill-rule="evenodd" clip-rule="evenodd" d="M20.1867 16.6751C20.0219 16.2313 19.9317 15.751 19.9317 15.25C19.9317 12.9949 21.7532 11.1667 24 11.1667C26.2468 11.1667 28.0682 12.9949 28.0682 15.25C28.0682 15.751 27.9781 16.2313 27.8133 16.6751C28.4943 16.9956 29.1284 17.4044 29.6927 17.8953C31.2324 19.2346 32.1365 21.09 32.1365 23.0667C32.1365 25.5256 32.7412 27.2666 33.4531 28.475L33.465 28.4952C33.9227 29.272 34.2803 29.879 34.52 30.3146C34.6399 30.5323 34.7453 30.7342 34.822 30.907C34.86 30.9927 34.902 31.0956 34.9347 31.2049C34.959 31.2863 35.019 31.4976 34.994 31.7536C34.9804 31.8942 34.9489 32.1734 34.787 32.4583C34.625 32.7433 34.4016 32.9125 34.288 32.9959C34.1029 33.1318 33.9177 33.19 33.8254 33.2157C33.7166 33.2459 33.6108 33.2638 33.5231 33.2756C33.3477 33.2992 33.1435 33.3112 32.9306 33.3186C32.5063 33.3334 31.9131 33.3334 31.1655 33.3334H28.5029C27.9868 35.3461 26.1664 36.8334 24 36.8334C21.8335 36.8334 20.0132 35.3461 19.497 33.3334H16.8346C16.0871 33.3334 15.4937 33.3334 15.0694 33.3186C14.8565 33.3112 14.6523 33.2992 14.4769 33.2756C14.3892 33.2638 14.2834 33.2459 14.1746 33.2157C14.0823 33.19 13.8971 33.1318 13.712 32.9959C13.5984 32.9125 13.375 32.7433 13.213 32.4583C13.0511 32.1734 13.0196 31.8942 13.006 31.7536C12.981 31.4976 13.041 31.2863 13.0653 31.2049C13.098 31.0956 13.14 30.9927 13.178 30.907C13.2547 30.7342 13.3601 30.5323 13.48 30.3146C13.7198 29.879 14.0773 29.2721 14.535 28.4952L14.5469 28.475C15.2588 27.2666 15.8635 25.5256 15.8635 23.0667C15.8635 21.09 16.7676 19.2346 18.3073 17.8953C18.8716 17.4044 19.5056 16.9957 20.1867 16.6751ZM22.2564 15.25C22.2564 14.2835 23.0371 13.5 24 13.5C24.9629 13.5 25.7435 14.2835 25.7435 15.25C25.7435 15.508 25.6884 15.7522 25.5889 15.9723C25.0681 15.8803 24.5359 15.8334 24 15.8334C23.4641 15.8334 22.9319 15.8803 22.4111 15.9723C22.3116 15.7522 22.2564 15.508 22.2564 15.25ZM24 34.5C24.8605 34.5 25.6117 34.0308 26.0137 33.3334H21.9863C22.3882 34.0308 23.1395 34.5 24 34.5Z" fill="white"/>
</svg>
