<svg width="172" height="172" viewBox="0 0 172 172" fill="none" xmlns="http://www.w3.org/2000/svg">
<g clip-path="url(#clip0_1674_6248)">
<rect width="172" height="172" rx="14.0351" fill="#B6E3F4"/>
<path fill-rule="evenodd" clip-rule="evenodd" d="M143.273 197.662C142.871 193.914 142.623 190.14 142.48 186.374C142.338 182.611 142.524 178.803 142.606 175.039C142.772 167.383 143.042 159.708 142.435 152.063C141.86 144.838 140.541 137.663 138.46 130.721C137.447 127.341 136.379 123.824 134.712 120.7C133.036 117.559 130.381 115.467 127.465 113.549C124.361 111.507 121.281 109.426 118.188 107.365C115.592 105.635 110.92 103.621 108.79 101.308C106.549 98.8748 106.128 92.8421 104.635 89.9591C103.182 87.1509 99.067 85.3191 95.8988 85.3191C90.6548 85.3191 86.6814 85.0503 82.3694 89.9153C80.218 92.3427 81.9298 94.7966 79.6748 97.1263C77.6015 99.2683 72.2994 101.47 69.6272 102.713C66.4268 104.201 63.1456 105.515 59.8168 106.686C56.4212 107.88 52.9399 108.77 49.5252 109.898C46.2521 110.978 41.9782 115.431 39.4372 117.787C37.0749 119.978 36.4886 119.733 34.6927 122.394C30.7512 128.234 26.8054 134.142 23.6667 140.465C22.1033 143.615 20.5895 146.928 20.0222 150.426C19.4172 154.157 20.0171 157.763 20.9983 161.375C21.9971 165.052 25.1689 168.552 26.2022 172.219C26.6784 173.909 25.0438 175.753 25.7956 177.345C26.1712 178.141 26.644 178.849 27.1824 179.542C27.5972 180.076 29.2149 179.957 29.4242 180.611C29.6357 181.271 28.4653 182.641 28.4479 183.324C28.4232 184.302 28.3844 185.279 28.3524 186.257L28.1633 192.036C28.0391 195.834 27.9148 199.632 27.7906 203.43C27.75 204.67 27.6908 205.881 27.9872 207.057C27.8802 206.958 27.7785 206.85 27.6856 206.728C27.4138 206.372 26.8372 206.674 27.068 207.09C27.4531 207.785 28.0069 208.274 28.6576 208.625C29.4137 209.743 143.927 212.24 144.491 208.972C144.807 207.138 144.231 205.175 144.001 203.352C143.762 201.455 143.477 199.565 143.273 197.662Z" fill="white"/>
<path fill-rule="evenodd" clip-rule="evenodd" d="M26.9484 150.433C27.2285 149.628 28.5099 149.976 28.2278 150.786C26.7775 154.952 27.8064 159.486 29.3742 163.463C29.6889 164.261 28.4051 164.604 28.0948 163.817C26.4455 159.633 25.4251 154.808 26.9484 150.433ZM36.6726 174.23C40.7627 174.807 44.8561 175.163 48.9744 175.45C49.1585 175.464 49.3177 175.436 49.4554 175.376C49.3326 177.267 49.2331 179.16 49.1552 181.053C48.0323 181.021 46.8862 181.096 45.7733 181.066C44.3187 181.026 42.8658 180.953 41.4145 180.842C38.6048 180.629 35.8001 180.289 33.022 179.82C31.9837 179.646 30.6651 179.539 29.4825 179.193C28.3646 178.866 27.3695 178.323 26.847 177.302C26.4025 176.437 26.3213 175.377 26.3213 174.421C26.3213 173.762 26.434 173.093 26.502 172.43C26.5866 172.37 26.6629 172.298 26.7243 172.219C27.9583 172.609 29.2387 172.884 30.4926 173.15C32.5344 173.586 34.606 173.939 36.6726 174.23ZM34.3658 158.849C34.3883 160.121 34.7391 161.276 35.4216 162.346C35.8834 163.07 34.7345 163.737 34.2759 163.018C33.4725 161.757 33.0654 160.343 33.0389 158.849C33.0236 157.991 34.3505 157.994 34.3658 158.849ZM139.21 172.719C139.764 172.75 140.321 172.769 140.877 172.799C141.367 173.219 142.045 173.434 142.665 173.301C142.686 173.354 142.706 173.415 142.723 173.484C142.833 173.912 142.887 174.371 142.951 174.807C143.014 175.236 143.062 175.669 143.095 176.101C143.111 176.319 143.216 176.811 143.083 177.001C142.964 177.172 142.7 177.157 142.518 177.179C142.027 177.232 141.529 177.257 141.035 177.299C140.101 177.38 139.167 177.461 138.235 177.543C137.321 177.623 136.318 177.598 135.424 177.839C135.271 176.041 135.132 174.243 135.003 172.443C136.387 172.648 137.835 172.643 139.21 172.719ZM23.0887 169.737C23.6459 170.816 24.1601 171.877 25.2266 172.526C25.3659 172.609 25.5218 172.654 25.681 172.666C25.5616 173.18 25.487 173.706 25.4206 174.191C25.2747 175.261 25.2432 176.367 25.5102 177.422C25.7706 178.448 26.2018 179.365 27.0477 180.022C27.4408 180.328 27.8704 180.56 28.3215 180.745C28.2452 180.96 28.2004 181.173 28.2237 181.407C28.1159 181.951 28.0445 182.505 27.9666 183.036C27.7958 184.213 27.6249 185.393 27.4906 186.577C27.2219 188.932 27.0112 191.288 26.8338 193.651C26.6563 196.008 26.5286 198.369 26.4224 200.731C26.3677 201.939 26.3196 203.146 26.2748 204.355C26.23 205.598 26.0293 206.869 26.5767 208.022C27.0179 208.953 28.5089 208.9 28.9667 208.022C29.5472 206.905 29.3764 205.58 29.3913 204.355C29.4062 203.203 29.4262 202.048 29.451 200.896C29.5008 198.535 29.5738 196.176 29.6318 193.816C29.6882 191.512 29.7579 189.21 29.8043 186.906C29.8275 185.7 29.8292 184.494 29.8358 183.288C29.8391 182.62 29.8673 181.906 29.8176 181.209C30.2322 181.307 30.6502 181.39 31.0632 181.475C34.2162 182.124 37.4023 182.596 40.6084 182.889C42.2189 183.036 43.8344 183.139 45.4499 183.197C46.6374 183.24 47.8681 183.323 49.0739 183.279C48.9794 186.166 48.9362 189.055 48.9412 191.945C48.9445 194.029 48.9727 196.113 49.0241 198.198C49.0523 199.294 49.0756 200.39 49.1087 201.486C49.1237 201.979 49.1237 202.476 49.1568 202.966C49.1668 203.12 49.1883 203.268 49.2165 203.414C49.1071 203.725 49.0158 204.033 48.9412 204.321C48.5763 205.718 48.5763 207.06 48.7389 208.484C48.8782 209.692 49.8916 210.811 51.2301 210.387C51.4473 210.319 51.6646 210.247 51.8802 210.174C53.8507 210.399 55.8327 210.45 57.8313 210.488C60.7521 210.545 63.6745 210.563 66.597 210.578C72.3291 210.608 78.0629 210.623 83.7966 210.64C95.3189 210.673 106.841 210.705 118.363 210.738C121.561 210.748 124.759 210.756 127.957 210.766C129.612 210.771 131.264 210.773 132.918 210.836C133.689 210.866 134.462 210.908 135.233 210.919C136.127 210.934 136.918 210.676 137.772 210.442C138.255 210.307 138.446 209.821 138.343 209.411C139.116 209.595 140.053 209.203 140.317 208.329C140.509 207.696 140.438 207.009 140.151 206.421V206.42C139.597 202.912 138.894 199.42 138.341 195.91C137.736 192.066 137.154 188.214 136.641 184.355C136.256 181.44 135.94 183.506 135.666 180.579C136.858 180.672 138.207 180.308 139.388 180.153C140.235 180.043 141.09 179.955 141.939 179.839C141.876 180.697 141.894 181.572 141.871 182.395C141.826 184.03 141.846 185.659 141.887 187.294C141.967 190.449 142.144 188.613 142.428 191.755C142.715 194.921 143.067 198.074 143.493 201.225C143.712 202.847 143.946 204.467 144.193 206.085C144.307 206.841 144.425 207.594 144.546 208.349C144.69 209.239 144.737 210.083 145.402 210.751C145.908 211.259 146.941 211.215 147.276 210.508C147.701 209.615 147.508 208.85 147.351 207.912C147.223 207.158 147.1 206.405 146.979 205.651C146.721 204.036 146.475 202.419 146.244 200.801C145.8 197.682 145.38 194.558 145.006 191.431C144.627 188.279 144.236 190.12 143.864 186.968C143.677 185.378 143.49 183.791 143.271 182.206C143.16 181.39 143.09 180.522 142.944 179.682C142.99 179.676 143.037 179.667 143.083 179.659C144.092 179.474 144.952 178.904 145.206 177.862C145.448 176.866 145.16 175.72 144.956 174.742C144.782 173.909 144.624 172.846 144.089 172.132C145.974 169.725 147.199 166.696 147.981 163.784C148.832 160.612 149.189 157.301 149.264 154.022C149.352 150.225 149.066 146.449 148.417 142.735C148.402 141.948 148.366 141.162 148.308 140.376C147.737 132.665 145.342 123.537 137.749 119.934C137.719 119.919 137.688 119.906 137.656 119.893C137.061 119.179 136.318 118.537 135.717 117.937C134.654 116.872 133.543 115.854 132.365 114.916C130.033 113.058 127.476 111.574 124.817 110.238C122.128 108.886 119.4 107.617 116.773 106.141C114.484 104.854 112.424 103.304 110.469 101.554C108.271 99.5859 106.707 96.9327 106.093 94.0367C106.062 93.8855 105.838 93.9271 105.834 94.0717C105.674 99.3796 109.246 104.07 113.358 107.038C118.274 110.583 124.21 112.261 129.196 115.698C130.435 116.551 131.594 117.514 132.697 118.537C131.007 118.364 129.287 118.474 127.703 118.943C127.079 118.905 126.452 118.893 125.827 118.863C124.397 118.792 122.966 118.725 121.535 118.662C118.617 118.532 115.698 118.414 112.779 118.311C107.052 118.108 101.323 117.955 95.5942 117.854C84.0819 117.649 72.5547 117.609 61.044 117.943C57.9225 118.033 41.509 117.409 39.9898 117.586C42.2239 115.646 44.6753 114.063 47.3705 112.76C50.7424 111.135 54.2272 110.05 57.828 109.059C65.2436 107.018 72.9444 105.05 78.8789 99.8653C80.3534 98.5762 81.6637 97.0942 82.7368 95.4525C83.7618 93.8855 84.9013 91.8793 84.9295 89.9681C84.9494 88.6109 83.0652 88.1167 82.3951 89.2794C81.9788 89.9997 81.7731 90.7898 81.4331 91.545C81.0948 92.2935 80.6934 93.0154 80.2472 93.7059C79.3698 95.0632 78.2818 96.274 77.0976 97.3669C74.5732 99.699 71.5147 101.407 68.3501 102.7C61.1651 105.632 53.3066 106.87 46.4981 110.736C43.5193 112.427 40.6681 114.761 38.8785 117.739C38.5899 117.784 38.303 117.837 38.016 117.897C38.23 117.625 38.4456 117.355 38.6629 117.085C38.8055 116.909 38.5849 116.676 38.4108 116.832C35.0256 119.853 31.9074 123.115 29.0812 126.671C26.3776 130.074 23.8566 133.641 22.0719 137.626C18.8642 144.786 18.1576 152.975 19.8146 160.63C20.2657 162.715 20.9026 164.758 21.7137 166.733C22.1316 167.752 22.5844 168.757 23.0887 169.737Z" fill="black"/>
<path fill-rule="evenodd" clip-rule="evenodd" d="M96.1704 20.4248C105.588 20.4248 117.383 31.1988 120.835 35.7836C123.738 39.6382 123.327 59.4961 123.327 71.2758C123.327 73.7395 122.217 78.4023 121.814 80.7589C120.336 89.3944 113.901 96.6367 101.163 96.6367C90.7913 96.6367 82.8097 93.3421 75.0914 84.9154C73.3305 82.993 64.7309 89.8753 62.9722 87.3968C58.3785 87.3968 54.5373 44.3516 63.5565 31.4405C72.5758 18.5294 86.7528 20.4248 96.1704 20.4248Z" fill="white"/>
<path fill-rule="evenodd" clip-rule="evenodd" d="M67.864 23.4567C73.3059 18.4914 80.5556 16.1028 87.87 16.2791C91.6583 16.3706 95.4332 17.0942 99.0108 18.3334C100.8 18.9555 102.534 19.7673 104.191 20.6855C104.788 21.0156 105.338 21.4024 105.868 21.8132L106 21.9164H106.002C107.423 22.4287 108.692 23.3486 109.843 24.4248C112.15 24.2402 114.476 24.4481 116.706 25.1617C119.811 26.1564 122.686 27.9778 124.704 30.5644C127.055 33.5757 127.837 37.2284 127.558 40.9991L127.507 41.6396C127.231 44.9705 126.737 49.2549 124.011 51.4435C123.804 51.6098 123.575 51.7363 123.337 51.8128C125.094 54.8302 126.535 58.1803 127.398 61.5637C130.69 74.4866 128.159 87.9636 124.2 100.419C123.875 101.445 122.327 102.127 121.54 101.124C120.133 99.3313 118.09 97.964 115.791 97.7078C114.373 97.5498 112.961 97.8359 111.621 97.1905C111.095 96.936 110.588 96.5201 110.223 96.0144C107.961 96.8744 105.524 97.2803 103.108 97.1805C99.1418 97.0175 94.9025 95.6402 92.1741 92.6194C91.7362 92.1345 91.6253 91.5901 91.7261 91.0994C92.0683 90.977 92.4196 90.8858 92.7815 90.8288C96.2413 92.8738 100.055 94.2402 104.154 94.3261C106.522 94.3756 108.832 94.0435 110.753 92.5604C111.168 92.2393 111.55 91.8839 111.903 91.5019C115.918 88.9117 118.749 84.5122 120.095 79.7996C121.349 75.4048 121.195 70.8288 120.763 66.321L120.536 63.9422C120.204 60.4509 119.897 56.9491 119.81 53.4429L119.836 53.4416C120.684 53.3867 120.69 52.0555 119.836 52.1109C117.627 52.2542 115.435 51.8908 113.233 52.0491C113.214 51.005 113.139 49.9656 112.833 48.9585C112.659 48.3832 111.66 48.2697 111.554 48.9585C111.412 49.8801 111.36 50.7964 111.345 51.7221C108.049 51.6782 104.757 51.4001 101.46 51.5144C100.852 50.864 100.659 49.7107 100.374 48.9085C100.333 48.7904 100.291 48.6739 100.248 48.5558C99.9982 49.7022 99.6439 50.8235 99.1778 51.9212L98.3694 51.924C93.7826 51.9455 89.1024 52.083 84.6235 53.0384C84.3122 52.7987 84.1269 52.3805 84.0768 52.0007C83.7519 49.5296 83.2882 47.1242 82.4665 44.7693L82.3489 44.4371C82.3393 44.4095 82.3292 44.3802 82.3185 44.3494C81.713 45.3296 80.9905 46.2434 80.2025 47.0942C79.7381 47.5957 79.2511 48.0753 78.7514 48.5412C78.2659 49.0818 77.7642 49.6143 77.2779 50.1565C77.297 50.2552 77.3136 50.3553 77.327 50.4573C77.4758 51.5826 77.4912 52.7238 77.3822 53.8534C77.1852 55.8956 76.6103 57.8634 75.6868 59.6838L75.6576 59.8661C75.5173 60.7192 75.3178 61.6009 74.8519 62.2433C75.4334 62.8967 75.8814 63.6772 76.1411 64.5443C76.3723 65.3163 75.3073 65.9853 74.755 65.3536C74.3163 64.8517 73.8288 64.4363 73.2934 64.105C73.2596 64.1511 73.1986 64.1737 73.1301 64.1353C71.639 63.3052 69.1063 63.5564 67.6169 64.3382C65.7642 65.3096 65.0411 67.3041 65.2468 69.3251C65.4441 71.2563 66.2867 73.5136 67.9204 74.5033C68.6701 74.9574 69.2539 74.9956 70.0501 74.7777C70.3046 74.7084 70.6202 74.4957 70.7557 74.3901L70.889 74.2829C71.4109 73.8692 71.897 73.586 72.5131 73.5751C73.1432 73.378 73.7765 73.6514 74.0175 74.3141L74.0324 74.3569C74.1451 74.6946 74.3508 75.1187 74.306 75.6344C74.2596 76.1866 74.0075 76.689 73.631 77.0932C73.5663 77.1631 73.4966 77.2329 73.4253 77.2978C79.9104 84.339 80.743 95.3108 77.4175 104.107C77.2733 104.493 77.119 104.874 76.9581 105.251C76.4025 106.545 74.2629 106.145 73.9909 104.862C73.9096 104.478 73.8201 104.095 73.7222 103.716C73.5423 103.015 73.3363 102.321 73.104 101.637L73.0156 101.381C72.8183 100.815 72.6342 100.244 72.4351 99.6789L72.4152 99.6143C72.4078 99.5887 72.3995 99.5592 72.3903 99.5259L72.0536 100.263L71.0303 102.487C70.5514 103.525 69.0299 102.961 68.9733 101.96L68.972 101.926C68.967 101.742 68.9604 101.559 68.9488 101.377C68.8758 100.018 68.6419 98.6975 68.2704 97.405L68.1363 97.5721C66.1404 100.047 63.7979 102.367 60.5844 102.938C59.7784 103.081 58.8661 102.236 59.4201 101.419C59.649 101.081 59.8696 100.735 60.0786 100.384C59.8978 100.299 59.727 100.211 59.5694 100.121C58.3503 99.4344 57.3353 98.4563 56.496 97.3468C54.7163 94.9948 54.0794 92.0339 53.9235 89.1363C53.7577 86.0739 54.0264 82.8453 54.8606 79.891C55.2222 78.6136 55.7115 77.3876 56.2771 76.1983C56.2373 76.0918 56.1991 75.9854 56.161 75.8789C55.5506 74.1723 55.0497 72.4274 54.6334 70.6625C53.7941 67.0995 53.343 63.4233 53.2883 59.7622C53.1888 53.2034 54.3166 46.5398 56.6934 40.4234C59.1481 34.1158 62.8401 28.0394 67.864 23.4567ZM64.8072 80.8009C64.3565 80.0891 63.2287 80.7306 63.6472 81.4473L63.6628 81.4729C64.3777 82.6024 64.7127 83.8865 65.124 85.1457C65.3877 85.9558 66.6698 85.6098 66.4028 84.7914L66.3144 84.5182C65.9051 83.2413 65.5317 81.9436 64.8072 80.8009ZM68.7331 67.2142L69.0326 67.0689C69.9772 66.6168 70.8049 66.3089 71.921 66.7036C73.4154 67.2309 75.0159 68.9092 74.0058 70.5377C73.6343 71.1382 72.9742 71.3777 72.2941 71.2363C71.1477 70.9979 70.8519 69.9625 70.2701 69.1126L70.17 68.9687C69.8153 68.4544 69.3668 67.7435 68.7763 67.5419C68.6419 67.4953 68.5855 67.2857 68.7331 67.2142ZM69.5755 32.6389L69.6719 32.5522C70.3138 31.9833 69.3717 31.0452 68.7331 31.6107C65.8107 34.2006 64.7956 38.2544 63.2797 41.7092C62.9397 42.4861 64.0824 43.1647 64.4258 42.3813C65.8718 39.0845 66.8317 35.1408 69.5755 32.6389ZM104.695 31.5059C103.931 31.1608 103.263 32.2753 103.997 32.6422L104.025 32.6553C106.606 33.8247 107.704 36.4728 108.755 38.9314C109.09 39.7165 110.233 39.0395 109.901 38.261L109.711 37.8199C108.614 35.2863 107.334 32.7038 104.695 31.5059ZM108.74 29.9057C107.931 29.6246 107.584 30.9088 108.387 31.1899C110.575 31.9534 112.076 33.6001 113.341 35.4831C113.815 36.1884 114.965 35.523 114.486 34.8111C113.016 32.6254 111.271 30.7907 108.74 29.9057Z" fill="black"/>
<path fill-rule="evenodd" clip-rule="evenodd" d="M104.299 84.9569C103.184 84.5007 102.189 83.7398 101.462 82.7678C101.209 82.4299 101.143 82.073 101.196 81.7467C101.256 81.3797 101.472 81.0471 101.767 80.824C102.064 80.6002 102.434 80.4898 102.792 80.5461C103.103 80.595 103.413 80.7659 103.658 81.1203L103.71 81.1911C104.142 81.7778 104.705 82.2592 105.347 82.5694C105.966 82.8685 106.658 83.0081 107.375 82.9269C108.739 82.7724 109.679 82.0326 110.678 81.0279C110.802 80.9011 110.926 80.7703 111.05 80.6373C111.129 80.5169 111.238 80.4394 111.359 80.3988C111.494 80.3537 111.646 80.3562 111.785 80.405C111.92 80.4521 112.04 80.5413 112.121 80.6599C112.197 80.7728 112.241 80.9121 112.227 81.0724C112.135 82.1136 111.592 83.0427 110.821 83.7723C109.965 84.5827 108.83 85.1432 107.762 85.3399C106.584 85.5564 105.385 85.4013 104.299 84.9569ZM108.317 68.8951C109.569 69.6586 111.478 71.439 110.13 73.3318C108.545 75.0008 106.261 73.0872 105.136 72.2218C104.092 71.551 102.92 73.2761 103.888 74.0593C112.019 80.0966 115.319 69.0948 108.95 67.9974C108.249 67.8765 107.989 68.6589 108.317 68.8951ZM93.7461 61.8721C93.8844 60.1494 96.5005 59.7582 96.7607 61.4629C96.9938 62.9899 96.7194 64.3927 96.0336 65.7675C95.3783 67.0809 93.7312 66.4681 93.6067 65.2721C93.4397 63.6689 93.66 62.9437 93.7461 61.8721ZM113.66 61.1094C114.025 60.6304 114.551 60.3034 115.182 60.4882C117.153 61.0659 116.572 63.8725 115.88 65.2387C115.504 65.9806 114.288 66.1687 113.738 65.5155C112.843 64.4502 112.414 62.3229 113.552 61.2736C113.583 61.2194 113.618 61.1647 113.66 61.1094ZM96.0058 54.3342L96.3172 54.2796C97.2805 54.1125 98.4782 53.9519 99.1597 54.7286C99.5211 55.1405 99.6455 55.906 99.1597 56.3002C98.3051 56.9938 97.3604 56.725 96.3364 56.7838C95.4925 56.8323 94.6814 56.9724 93.8686 57.2054C92.0852 57.7166 90.6321 58.6498 89.1091 59.6744C88.9092 59.8088 88.7052 59.5525 88.8006 59.365C89.6798 57.6379 91.3837 56.2192 93.0904 55.3544C94.0013 54.8928 94.9981 54.5099 96.0058 54.3342ZM111.863 53.5606L112.101 53.6095C114.695 54.1532 118.064 55.2393 119.293 57.7942C119.339 58.1554 119.29 58.2329 119.25 58.2835L119.236 58.3003C119.203 58.3435 119.177 58.403 119.021 58.4522C118.977 58.4418 118.934 58.4309 118.889 58.4193C118.326 58.2713 117.881 58.0675 117.45 57.8559L116.982 57.6249C116.44 57.3582 115.892 57.1011 115.313 56.9114C114.075 56.5065 112.802 56.2213 111.509 56.069C111.229 56.0361 110.959 55.9412 110.746 55.7787C110.544 55.6244 110.39 55.4108 110.319 55.1268C110.228 54.7594 110.254 54.4812 110.451 54.1497C110.599 53.9007 110.81 53.7282 111.053 53.6291C111.301 53.5281 111.583 53.5043 111.863 53.5606Z" fill="black"/>
<path fill-rule="evenodd" clip-rule="evenodd" d="M122.302 70.3837C121.185 71.8882 119.115 72.3675 117.205 72.202C113.087 71.8044 111.791 67.1134 111.656 63.4674C114.417 64.2466 111.422 58.7284 120.863 58.1216C124.191 57.8435 123.273 59.8592 124.743 61.3319C124.713 64.4229 124.2 67.7815 122.302 70.3837ZM102.685 66.832C100.254 78.2518 86.9389 75.5354 85.5403 65.2413C86.8318 64.3271 86.4916 62.0697 88.0962 61.2518C90.6391 59.6223 93.818 59.692 96.7058 59.7303C100.397 59.9846 101.449 61.5181 103.345 63.1911C103.254 64.3086 102.991 65.633 102.685 66.832ZM127.576 56.2303C127.44 56.2075 127.303 56.186 127.166 56.1659C127.06 56.1052 126.935 56.0585 126.789 56.0303C126.456 55.9457 126.126 55.8886 125.796 55.8579C121.064 54.7898 110.116 56.3063 109.664 60.3564C108.157 60.8609 106.853 60.4091 105.107 60.454C103.777 54.8808 80.7919 55.6674 79.6864 59.0275C79.6823 59.0263 79.6781 59.0253 79.6738 59.024C78.6116 58.6943 77.0458 58.7738 75.83 58.7216C73.2341 58.667 70.6353 58.8991 68.0955 59.4481C63.3394 60.2062 56.8485 61.0936 60.1563 67.0499C60.1569 67.0509 60.1574 67.0521 60.1582 67.0531L60.1587 67.0526C60.7288 67.6386 61.6963 67.1667 61.7323 66.3734C60.6202 63.5516 63.1319 63.2128 65.0645 62.4019C69.8733 60.6692 74.7692 60.4291 79.7426 60.965C80.1168 61.4068 80.6845 61.792 81.2846 61.9937C84.6099 62.5472 82.8575 65.021 84.9594 65.3808C84.5733 74.0043 95.0127 78.7114 101.061 73.0427C103.476 70.6746 104.052 67.1667 104.612 64.0047C104.908 63.938 105.096 63.7757 105.206 63.5607C105.918 62.8478 106.366 62.1894 107.774 61.9937C109.182 61.798 110.266 62.1908 110.412 62.311C110.449 62.3857 110.489 62.4606 110.535 62.5354C110.599 62.647 110.687 62.736 110.786 62.8061C109.396 71.3932 116.043 76.8239 122.754 72.3701C125.67 69.6194 126.286 65.408 126.407 61.649C126.803 61.4098 127.053 60.9462 126.916 60.3633C126.728 59.5599 127.17 58.8643 127.874 58.515C128.789 58.0614 128.627 56.4048 127.576 56.2303Z" fill="black"/>
</g>
<defs>
<clipPath id="clip0_1674_6248">
<rect width="172" height="172" rx="14.0351" fill="white"/>
</clipPath>
</defs>
</svg>
