<svg width="200" height="200" viewBox="0 0 200 200" fill="none" xmlns="http://www.w3.org/2000/svg">
<g clip-path="url(#clip0_1803_4675)">
<rect x="0.423828" y="0.542969" width="199.151" height="199.151" rx="7.94064" fill="#B6E3F4"/>
<path fill-rule="evenodd" clip-rule="evenodd" d="M151.806 208.766C151.439 205.341 151.212 201.891 151.082 198.448C150.953 195.009 151.122 191.529 151.197 188.088C151.349 181.09 151.595 174.076 151.041 167.089C150.516 160.485 149.312 153.927 147.413 147.582C146.488 144.492 145.513 141.278 143.991 138.423C142.461 135.552 140.038 133.64 137.376 131.887C134.541 130.021 131.73 128.119 128.907 126.235C126.537 124.654 122.272 122.813 120.328 120.699C118.282 118.475 117.897 112.961 116.535 110.326C115.208 107.759 111.452 106.085 108.56 106.085C103.772 106.085 100.145 105.839 96.2089 110.286C94.245 112.504 95.8076 114.747 93.7491 116.877C91.8564 118.834 87.0163 120.846 84.577 121.982C81.6554 123.343 78.6601 124.544 75.6213 125.614C72.5215 126.706 69.3436 127.519 66.2264 128.55C63.2385 129.537 59.337 133.607 57.0174 135.761C54.8609 137.763 54.3257 137.539 52.6863 139.971C49.0882 145.309 45.4862 150.709 42.6209 156.488C41.1938 159.367 39.8119 162.395 39.294 165.593C38.7417 169.003 39.2893 172.298 40.1851 175.6C41.0969 178.96 43.9922 182.159 44.9355 185.511C45.3702 187.055 43.8781 188.741 44.5644 190.197C44.9072 190.923 45.3389 191.571 45.8303 192.204C46.209 192.692 47.6858 192.584 47.8768 193.181C48.0699 193.785 47.0015 195.036 46.9856 195.661C46.963 196.554 46.9276 197.448 46.8984 198.341L46.7258 203.624C46.6124 207.095 46.499 210.566 46.3856 214.038C46.3485 215.171 46.2944 216.278 46.565 217.353C46.4673 217.262 46.3745 217.163 46.2897 217.052C46.0416 216.727 45.5153 217.002 45.7259 217.383C46.0774 218.018 46.583 218.465 47.177 218.786C47.8672 219.808 152.403 222.09 152.918 219.103C153.206 217.427 152.681 215.632 152.471 213.967C152.252 212.232 151.992 210.505 151.806 208.766Z" fill="white"/>
<path fill-rule="evenodd" clip-rule="evenodd" d="M45.6166 165.599C45.8724 164.863 47.0422 165.181 46.7846 165.922C45.4607 169.73 46.3999 173.873 47.8311 177.508C48.1184 178.238 46.9465 178.551 46.6632 177.832C45.1576 174.008 44.2261 169.597 45.6166 165.599ZM54.4936 187.349C58.2273 187.876 61.9641 188.202 65.7235 188.465C65.8916 188.477 66.037 188.451 66.1626 188.396C66.0506 190.125 65.9597 191.855 65.8886 193.585C64.8635 193.556 63.8173 193.625 62.8014 193.597C61.4735 193.561 60.1472 193.494 58.8223 193.392C56.2575 193.197 53.6972 192.887 51.1611 192.459C50.2133 192.299 49.0096 192.202 47.93 191.885C46.9095 191.586 46.0011 191.09 45.5241 190.157C45.1184 189.366 45.0442 188.398 45.0442 187.524C45.0442 186.921 45.1471 186.31 45.2092 185.704C45.2864 185.649 45.3561 185.584 45.4121 185.511C46.5386 185.868 47.7074 186.119 48.8521 186.362C50.7159 186.76 52.607 187.083 54.4936 187.349ZM52.3878 173.291C52.4084 174.453 52.7286 175.509 53.3516 176.487C53.7732 177.149 52.7244 177.759 52.3057 177.101C51.5723 175.949 51.2007 174.656 51.1765 173.291C51.1626 172.507 52.3739 172.51 52.3878 173.291ZM148.097 185.968C148.603 185.997 149.112 186.014 149.619 186.041C150.066 186.425 150.685 186.622 151.251 186.5C151.27 186.549 151.288 186.604 151.304 186.668C151.404 187.058 151.454 187.478 151.512 187.876C151.569 188.269 151.613 188.664 151.643 189.059C151.658 189.258 151.754 189.708 151.633 189.882C151.524 190.038 151.283 190.025 151.116 190.044C150.668 190.093 150.214 190.116 149.763 190.154C148.91 190.228 148.058 190.303 147.207 190.377C146.373 190.45 145.457 190.428 144.641 190.648C144.501 189.004 144.374 187.361 144.256 185.716C145.52 185.903 146.842 185.898 148.097 185.968ZM42.0932 183.242C42.602 184.229 43.0713 185.199 44.0449 185.792C44.1721 185.868 44.3144 185.909 44.4597 185.92C44.3507 186.389 44.2826 186.87 44.222 187.314C44.0888 188.291 44.06 189.302 44.3038 190.266C44.5415 191.204 44.9352 192.042 45.7073 192.643C46.0662 192.922 46.4583 193.135 46.8702 193.304C46.8005 193.5 46.7596 193.695 46.7808 193.909C46.6824 194.406 46.6173 194.913 46.5461 195.397C46.3902 196.474 46.2342 197.552 46.1116 198.634C45.8663 200.787 45.674 202.94 45.512 205.1C45.35 207.255 45.2334 209.412 45.1365 211.571C45.0866 212.675 45.0427 213.778 45.0018 214.884C44.9609 216.019 44.7777 217.181 45.2773 218.235C45.6801 219.086 47.0412 219.037 47.4591 218.235C47.9891 217.214 47.8331 216.003 47.8467 214.884C47.8604 213.83 47.8785 212.775 47.9012 211.721C47.9467 209.564 48.0133 207.408 48.0663 205.251C48.1178 203.145 48.1814 201.041 48.2237 198.935C48.2449 197.833 48.2465 196.731 48.2525 195.628C48.2555 195.017 48.2813 194.365 48.2359 193.728C48.6144 193.818 48.9959 193.894 49.3729 193.971C52.2512 194.564 55.1598 194.996 58.0865 195.264C59.5567 195.397 61.0314 195.492 62.5061 195.545C63.5902 195.584 64.7136 195.66 65.8144 195.62C65.7281 198.259 65.6887 200.9 65.6933 203.54C65.6963 205.445 65.722 207.35 65.769 209.255C65.7947 210.257 65.8159 211.259 65.8462 212.261C65.8598 212.711 65.8598 213.166 65.8901 213.614C65.8992 213.754 65.9189 213.889 65.9446 214.023C65.8447 214.308 65.7614 214.589 65.6933 214.852C65.3602 216.129 65.3602 217.356 65.5085 218.657C65.6357 219.761 66.5608 220.784 67.7827 220.397C67.981 220.334 68.1794 220.269 68.3762 220.202C70.1749 220.407 71.9843 220.454 73.8087 220.489C76.475 220.541 79.1429 220.558 81.8107 220.571C87.0434 220.599 92.2775 220.612 97.5117 220.627C108.03 220.658 118.548 220.687 129.067 220.717C131.986 220.726 134.905 220.734 137.824 220.743C139.335 220.748 140.843 220.749 142.353 220.807C143.057 220.834 143.762 220.872 144.467 220.883C145.283 220.897 146.005 220.661 146.785 220.447C147.225 220.323 147.399 219.879 147.305 219.504C148.011 219.673 148.866 219.314 149.107 218.516C149.283 217.936 149.218 217.309 148.956 216.772V216.77C148.45 213.564 147.808 210.373 147.304 207.165C146.751 203.651 146.22 200.13 145.752 196.603C145.401 193.939 145.112 195.828 144.862 193.152C145.95 193.237 147.181 192.904 148.259 192.763C149.033 192.662 149.813 192.582 150.588 192.475C150.53 193.26 150.547 194.059 150.526 194.812C150.485 196.307 150.503 197.795 150.541 199.29C150.614 202.174 150.776 200.495 151.035 203.367C151.297 206.26 151.618 209.143 152.007 212.022C152.207 213.505 152.42 214.985 152.646 216.465C152.75 217.155 152.858 217.844 152.968 218.534C153.1 219.347 153.142 220.118 153.749 220.729C154.211 221.193 155.154 221.154 155.46 220.507C155.848 219.691 155.672 218.992 155.528 218.134C155.412 217.445 155.3 216.757 155.189 216.068C154.953 214.592 154.729 213.114 154.519 211.635C154.113 208.784 153.73 205.929 153.388 203.071C153.042 200.19 152.685 201.873 152.346 198.992C152.175 197.538 152.004 196.088 151.804 194.639C151.702 193.894 151.639 193.1 151.506 192.332C151.548 192.326 151.59 192.319 151.633 192.311C152.553 192.142 153.339 191.621 153.571 190.669C153.792 189.758 153.528 188.711 153.342 187.817C153.183 187.056 153.039 186.084 152.551 185.431C154.271 183.231 155.39 180.463 156.104 177.802C156.881 174.902 157.206 171.876 157.275 168.88C157.355 165.408 157.095 161.957 156.502 158.563C156.488 157.844 156.455 157.125 156.402 156.407C155.881 149.359 153.695 141.016 146.763 137.723C146.736 137.71 146.707 137.697 146.679 137.685C146.135 137.033 145.457 136.446 144.909 135.897C143.938 134.924 142.924 133.994 141.849 133.136C139.72 131.438 137.385 130.082 134.958 128.861C132.504 127.625 130.013 126.465 127.615 125.117C125.525 123.94 123.645 122.523 121.86 120.923C119.854 119.125 118.426 116.7 117.866 114.053C117.837 113.915 117.632 113.953 117.629 114.085C117.483 118.936 120.744 123.224 124.497 125.936C128.985 129.176 134.404 130.71 138.955 133.851C140.086 134.631 141.145 135.511 142.151 136.446C140.609 136.288 139.039 136.388 137.593 136.817C137.023 136.782 136.451 136.772 135.88 136.744C134.575 136.679 133.268 136.618 131.962 136.56C129.298 136.442 126.634 136.334 123.969 136.24C118.741 136.054 113.511 135.914 108.281 135.821C97.7722 135.634 87.2493 135.598 76.7415 135.904C73.892 135.986 58.9086 135.415 57.5217 135.576C59.5612 133.804 61.799 132.357 64.2594 131.166C67.3375 129.681 70.5186 128.689 73.8057 127.783C80.5752 125.918 87.6051 124.119 93.0225 119.38C94.3685 118.202 95.5646 116.848 96.5442 115.347C97.4799 113.915 98.5201 112.081 98.5459 110.334C98.564 109.094 96.844 108.642 96.2323 109.705C95.8523 110.363 95.6646 111.085 95.3542 111.776C95.0453 112.46 94.6789 113.12 94.2716 113.751C93.4706 114.991 92.4774 116.098 91.3964 117.097C89.0919 119.228 86.2999 120.79 83.4111 121.971C76.8521 124.651 69.6783 125.782 63.463 129.316C60.7437 130.862 58.141 132.995 56.5073 135.716C56.2439 135.758 55.9819 135.806 55.72 135.861C55.9153 135.613 56.1121 135.365 56.3105 135.119C56.4407 134.958 56.2393 134.745 56.0803 134.888C52.9901 137.649 50.1436 140.63 47.5636 143.881C45.0956 146.991 42.7942 150.251 41.1651 153.894C38.2368 160.437 37.5918 167.922 39.1044 174.919C39.5162 176.825 40.0977 178.692 40.838 180.497C41.2196 181.428 41.6329 182.347 42.0932 183.242Z" fill="#1F2937"/>
<path fill-rule="evenodd" clip-rule="evenodd" d="M108.806 46.7719C117.404 46.7719 128.171 56.6193 131.322 60.8097C133.972 64.3328 133.597 82.4828 133.597 93.2494C133.597 95.5012 132.583 99.763 132.215 101.917C130.867 109.81 124.992 116.429 113.364 116.429C103.896 116.429 96.6099 113.418 89.564 105.716C87.9566 103.959 80.1063 110.249 78.5008 107.984C74.3073 107.984 70.8009 68.6408 79.0343 56.8402C87.2676 45.0395 100.209 46.7719 108.806 46.7719Z" fill="white"/>
<path fill-rule="evenodd" clip-rule="evenodd" d="M82.9675 49.5427C87.9353 45.0045 94.5533 42.8213 101.23 42.9824C104.689 43.066 108.135 43.7274 111.401 44.8601C113.034 45.4287 114.616 46.1706 116.129 47.0098C116.674 47.3115 117.177 47.6651 117.66 48.0406L117.781 48.1349H117.782C119.08 48.6031 120.238 49.4439 121.289 50.4275C123.395 50.2588 125.518 50.4488 127.554 51.1011C130.389 52.0102 133.013 53.675 134.855 56.0391C137.002 58.7914 137.715 62.13 137.461 65.5763L137.414 66.1618C137.162 69.2062 136.711 73.1221 134.222 75.1225C134.033 75.2745 133.824 75.3901 133.608 75.46C135.211 78.2179 136.527 81.2799 137.314 84.3722C140.32 96.1838 138.009 108.502 134.395 119.886C134.098 120.824 132.686 121.447 131.966 120.531C130.682 118.892 128.817 117.642 126.719 117.408C125.424 117.263 124.136 117.525 122.912 116.935C122.432 116.702 121.969 116.322 121.636 115.86C119.571 116.646 117.346 117.017 115.14 116.926C111.52 116.777 107.65 115.518 105.159 112.757C104.76 112.314 104.658 111.816 104.751 111.368C105.063 111.256 105.384 111.173 105.714 111.12C108.872 112.989 112.354 114.238 116.095 114.317C118.257 114.362 120.366 114.059 122.119 112.703C122.498 112.41 122.847 112.085 123.17 111.736C126.835 109.368 129.419 105.347 130.648 101.04C131.792 97.023 131.651 92.8405 131.258 88.7204L131.05 86.5462C130.747 83.3552 130.466 80.1546 130.388 76.9499L130.412 76.9487C131.186 76.8985 131.191 75.6818 130.412 75.7324C128.395 75.8635 126.394 75.5313 124.383 75.676C124.366 74.7217 124.298 73.7716 124.019 72.8512C123.859 72.3253 122.947 72.2217 122.851 72.8512C122.721 73.6935 122.674 74.5311 122.66 75.3771C119.651 75.337 116.646 75.0828 113.637 75.1872C113.081 74.5928 112.905 73.5387 112.645 72.8055C112.607 72.6975 112.569 72.5911 112.53 72.4832C112.302 73.531 111.978 74.5558 111.553 75.5591L110.815 75.5616C106.628 75.5813 102.355 75.707 98.2668 76.5802C97.9826 76.3611 97.8134 75.9789 97.7677 75.6318C97.4711 73.3732 97.0479 71.1747 96.2977 69.0223L96.1904 68.7186C96.1816 68.6934 96.1723 68.6667 96.1626 68.6385C95.6098 69.5345 94.9503 70.3696 94.231 71.1472C93.807 71.6056 93.3625 72.0439 92.9063 72.4698C92.4631 72.9639 92.0051 73.4506 91.5612 73.9462C91.5786 74.0363 91.5937 74.1279 91.606 74.2211C91.7418 75.2496 91.7559 76.2927 91.6564 77.3251C91.4766 79.1917 90.9518 80.9902 90.1087 82.6541L90.0821 82.8207C89.954 83.6004 89.7719 84.4063 89.3465 84.9934C89.8774 85.5906 90.2863 86.304 90.5234 87.0965C90.7345 87.8021 89.7623 88.4136 89.2581 87.8362C88.8576 87.3775 88.4127 86.9979 87.9239 86.695C87.893 86.7371 87.8373 86.7578 87.7748 86.7227C86.4136 85.964 84.1016 86.1936 82.7419 86.9082C81.0507 87.796 80.3906 89.6189 80.5783 91.4662C80.7585 93.2313 81.5277 95.2944 83.019 96.199C83.7034 96.614 84.2364 96.649 84.9631 96.4498C85.1955 96.3865 85.4836 96.1921 85.6072 96.0955L85.7289 95.9976C86.2054 95.6195 86.6491 95.3606 87.2115 95.3506C87.7868 95.1705 88.3649 95.4204 88.5849 96.026L88.5984 96.0652C88.7014 96.3738 88.8891 96.7615 88.8483 97.2328C88.8059 97.7376 88.5757 98.1967 88.232 98.5662C88.173 98.63 88.1094 98.6939 88.0443 98.7532C93.9643 105.189 94.7244 115.217 91.6887 123.257C91.5569 123.609 91.4161 123.957 91.2693 124.303C90.7621 125.485 88.8089 125.119 88.5606 123.947C88.4864 123.596 88.4046 123.246 88.3153 122.899C88.1511 122.259 87.963 121.624 87.7509 120.999L87.6703 120.765C87.4901 120.248 87.3221 119.726 87.1404 119.209L87.1222 119.15C87.1154 119.127 87.1078 119.1 87.0995 119.069L86.7921 119.743L85.8579 121.776C85.4208 122.724 84.0318 122.209 83.9802 121.295L83.979 121.263C83.9744 121.095 83.9684 120.927 83.9578 120.762C83.8911 119.52 83.6777 118.312 83.3385 117.131L83.2161 117.284C81.3941 119.546 79.2557 121.666 76.3222 122.188C75.5864 122.318 74.7536 121.546 75.2593 120.8C75.4683 120.491 75.6697 120.175 75.8604 119.854C75.6954 119.776 75.5394 119.696 75.3956 119.614C74.2828 118.986 73.3561 118.092 72.59 117.078C70.9654 114.928 70.384 112.222 70.2417 109.573C70.0903 106.774 70.3355 103.823 71.0971 101.123C71.4272 99.9557 71.8739 98.8353 72.3902 97.7482C72.3538 97.6509 72.319 97.5536 72.2842 97.4563C71.727 95.8964 71.2697 94.3016 70.8897 92.6885C70.1236 89.4319 69.7117 86.072 69.6618 82.7257C69.5709 76.731 70.6005 70.6405 72.7702 65.0502C75.011 59.2851 78.3814 53.7313 82.9675 49.5427ZM80.1771 101.955C79.7656 101.304 78.7361 101.891 79.1181 102.546L79.1324 102.569C79.7849 103.602 80.0908 104.775 80.4663 105.926C80.707 106.667 81.8774 106.35 81.6336 105.602L81.5529 105.353C81.1793 104.185 80.8384 102.999 80.1771 101.955ZM83.7609 89.5368L84.0343 89.404C84.8966 88.9908 85.6522 88.7093 86.671 89.0701C88.0352 89.552 89.4963 91.0861 88.5742 92.5745C88.235 93.1233 87.6324 93.3422 87.0117 93.213C85.9651 92.9951 85.6951 92.0488 85.164 91.2719L85.0726 91.1404C84.7488 90.6704 84.3394 90.0206 83.8003 89.8363C83.6777 89.7938 83.6262 89.6022 83.7609 89.5368ZM84.5299 57.9352L84.6179 57.8559C85.2038 57.336 84.3439 56.4785 83.7609 56.9954C81.0931 59.3626 80.1665 63.0677 78.7826 66.2254C78.4722 66.9354 79.5154 67.5557 79.8288 66.8396C81.1489 63.8264 82.0252 60.2219 84.5299 57.9352ZM116.589 56.8996C115.892 56.5842 115.282 57.6028 115.953 57.9382L115.978 57.9502C118.334 59.019 119.336 61.4394 120.296 63.6865C120.602 64.4041 121.645 63.7853 121.342 63.0738L121.169 62.6706C120.167 60.3549 118.999 57.9945 116.589 56.8996ZM120.282 55.4371C119.543 55.1801 119.227 56.3538 119.96 56.6108C121.957 57.3086 123.327 58.8138 124.482 60.5348C124.915 61.1794 125.965 60.5713 125.527 59.9206C124.185 57.9228 122.593 56.2459 120.282 55.4371Z" fill="#1F2937"/>
<path fill-rule="evenodd" clip-rule="evenodd" d="M116.228 105.754C115.211 105.337 114.302 104.641 113.638 103.753C113.408 103.444 113.348 103.118 113.396 102.819C113.451 102.484 113.648 102.18 113.918 101.976C114.188 101.772 114.526 101.671 114.853 101.722C115.137 101.767 115.42 101.923 115.644 102.247L115.691 102.312C116.085 102.848 116.6 103.288 117.186 103.571C117.751 103.845 118.383 103.972 119.036 103.898C120.281 103.757 121.14 103.081 122.052 102.163C122.165 102.047 122.278 101.927 122.392 101.806C122.464 101.695 122.563 101.625 122.674 101.587C122.797 101.546 122.936 101.549 123.063 101.593C123.186 101.636 123.295 101.718 123.369 101.826C123.439 101.929 123.479 102.057 123.466 102.203C123.382 103.155 122.887 104.004 122.183 104.671C121.401 105.412 120.365 105.924 119.39 106.104C118.315 106.302 117.22 106.16 116.228 105.754ZM119.897 91.0732C121.04 91.771 122.782 93.3983 121.552 95.1283C120.104 96.6538 118.02 94.9047 116.993 94.1137C116.04 93.5007 114.97 95.0774 115.854 95.7932C123.276 101.311 126.289 91.2557 120.475 90.2527C119.835 90.1422 119.597 90.8573 119.897 91.0732ZM106.595 84.6542C106.722 83.0797 109.11 82.7222 109.347 84.2802C109.56 85.6759 109.31 86.958 108.684 88.2145C108.085 89.415 106.582 88.8549 106.468 87.7618C106.316 86.2965 106.517 85.6336 106.595 84.6542ZM124.774 83.9571C125.107 83.5193 125.588 83.2204 126.164 83.3893C127.963 83.9173 127.433 86.4826 126.801 87.7312C126.457 88.4093 125.347 88.5813 124.846 87.9842C124.028 87.0106 123.637 85.0662 124.676 84.1072C124.704 84.0576 124.735 84.0076 124.774 83.9571ZM108.658 77.7646L108.942 77.7147C109.822 77.562 110.915 77.4152 111.537 78.1251C111.867 78.5015 111.981 79.2012 111.537 79.5615C110.757 80.1955 109.895 79.9498 108.96 80.0035C108.19 80.0479 107.449 80.1759 106.707 80.3889C105.079 80.8561 103.753 81.709 102.362 82.6455C102.18 82.7684 101.994 82.5341 102.081 82.3628C102.883 80.7842 104.439 79.4875 105.997 78.6971C106.828 78.2752 107.738 77.9252 108.658 77.7646ZM123.134 77.0575L123.351 77.1022C125.719 77.5992 128.795 78.5918 129.916 80.927C129.959 81.2572 129.914 81.328 129.877 81.3742L129.865 81.3896C129.834 81.4291 129.81 81.4835 129.668 81.5284C129.628 81.519 129.588 81.509 129.548 81.4983C129.034 81.3631 128.627 81.1768 128.234 80.9835L127.807 80.7723C127.312 80.5285 126.812 80.2936 126.283 80.1201C125.153 79.7501 123.991 79.4894 122.811 79.3502C122.555 79.3201 122.309 79.2334 122.114 79.0848C121.93 78.9438 121.789 78.7486 121.725 78.4891C121.641 78.1532 121.665 77.899 121.845 77.596C121.98 77.3684 122.173 77.2107 122.394 77.1201C122.62 77.0278 122.878 77.0061 123.134 77.0575Z" fill="#1F2937"/>
<path fill-rule="evenodd" clip-rule="evenodd" d="M132.661 92.434C131.641 93.8092 129.752 94.2472 128.008 94.0959C124.249 93.7325 123.066 89.445 122.942 86.1126C125.463 86.8247 122.729 81.7811 131.347 81.2265C134.385 80.9723 133.548 82.8146 134.89 84.1608C134.862 86.9859 134.394 90.0556 132.661 92.434ZM114.754 89.1878C112.534 99.6254 100.379 97.1427 99.1024 87.7339C100.281 86.8983 99.9709 84.835 101.436 84.0875C103.757 82.5982 106.659 82.6619 109.295 82.6968C112.665 82.9293 113.625 84.3309 115.356 85.86C115.273 86.8814 115.032 88.0919 114.754 89.1878ZM137.476 79.4979C137.351 79.477 137.226 79.4574 137.102 79.439C137.004 79.3835 136.89 79.3408 136.757 79.3151C136.453 79.2377 136.152 79.1856 135.851 79.1575C131.531 78.1813 121.537 79.5674 121.125 83.2691C119.749 83.7302 118.559 83.3173 116.964 83.3583C115.75 78.2644 94.7677 78.9834 93.7586 82.0545C93.7548 82.0534 93.751 82.0525 93.7471 82.0513C92.7775 81.75 91.348 81.8226 90.2382 81.7749C87.8685 81.725 85.4961 81.9371 83.1776 82.439C78.8359 83.1318 72.9105 83.9429 75.9301 89.3869C75.9307 89.3878 75.9311 89.3889 75.9319 89.3898L75.9324 89.3894C76.4528 89.925 77.3359 89.4937 77.3688 88.7686C76.3536 86.1895 78.6465 85.8798 80.4107 85.1386C84.8005 83.5551 89.2698 83.3355 93.8099 83.8254C94.1515 84.2292 94.6698 84.5813 95.2176 84.7656C98.2531 85.2715 96.6534 87.5326 98.5722 87.8614C98.2197 95.7432 107.749 100.045 113.271 94.8643C115.476 92.6999 116.001 89.4937 116.513 86.6036C116.783 86.5427 116.955 86.3943 117.055 86.1979C117.705 85.5462 118.113 84.9445 119.399 84.7656C120.684 84.5868 121.673 84.9457 121.807 85.0556C121.841 85.1239 121.877 85.1923 121.919 85.2607C121.978 85.3627 122.058 85.4441 122.149 85.5081C120.88 93.3567 126.948 98.3203 133.073 94.2496C135.735 91.7354 136.298 87.8862 136.409 84.4505C136.77 84.2319 136.998 83.8082 136.873 83.2755C136.701 82.5411 137.105 81.9053 137.748 81.5861C138.583 81.1715 138.435 79.6574 137.476 79.4979Z" fill="#1F2937"/>
</g>
<defs>
<clipPath id="clip0_1803_4675">
<rect x="0.423828" y="0.542969" width="199.151" height="199.151" rx="7.94064" fill="white"/>
</clipPath>
</defs>
</svg>
