<svg width="80" height="80" viewBox="0 0 80 80" fill="none" xmlns="http://www.w3.org/2000/svg">
<path fill-rule="evenodd" clip-rule="evenodd" d="M65.4786 90.8441C65.3019 89.198 65.193 87.5403 65.1305 85.8859C65.0681 84.2335 65.1497 82.5607 65.1856 80.9076C65.2586 77.5447 65.3774 74.1739 65.1104 70.8162C64.8581 67.6428 64.2789 64.4917 63.3649 61.4426C62.9198 59.9577 62.4507 58.413 61.7186 57.0409C60.9825 55.6614 59.8165 54.7428 58.5357 53.9003C57.172 53.0034 55.8193 52.0895 54.461 51.1842C53.3208 50.4243 51.2689 49.5399 50.3333 48.524C49.3489 47.455 49.1639 44.8054 48.5083 43.5391C47.8699 42.3057 46.0627 41.5012 44.6712 41.5012C42.3679 41.5012 40.6227 41.3831 38.7288 43.5199C37.7839 44.586 38.5357 45.6638 37.5453 46.6871C36.6347 47.6279 34.3059 48.5947 33.1323 49.1406C31.7266 49.7944 30.2854 50.3717 28.8234 50.8859C27.332 51.4104 25.8029 51.8014 24.3031 52.2964C22.8656 52.771 20.9884 54.7268 19.8724 55.7617C18.8348 56.7239 18.5773 56.6161 17.7885 57.785C16.0573 60.3502 14.3243 62.9448 12.9457 65.7222C12.259 67.1056 11.5941 68.5609 11.345 70.0973C11.0792 71.7361 11.3427 73.3197 11.7737 74.9063C12.2124 76.521 13.6055 78.0584 14.0593 79.669C14.2685 80.4112 13.5505 81.2211 13.8808 81.9206C14.0457 82.2699 14.2534 82.5809 14.4898 82.8853C14.672 83.1198 15.3825 83.0678 15.4745 83.3549C15.5674 83.6448 15.0533 84.2464 15.0457 84.5464C15.0348 84.9758 15.0178 85.4052 15.0037 85.8346L14.9207 88.373C14.8661 90.0411 14.8115 91.7093 14.757 93.3773C14.7391 93.9219 14.7131 94.4539 14.8433 94.9706C14.7963 94.9269 14.7517 94.8793 14.7109 94.8259C14.5915 94.6696 14.3382 94.8021 14.4396 94.9849C14.6087 95.2901 14.852 95.5049 15.1378 95.6592C15.4699 96.1502 65.766 97.247 66.0135 95.8114C66.1523 95.0059 65.8996 94.1436 65.7986 93.3433C65.6934 92.5098 65.5684 91.6798 65.4786 90.8441Z" fill="white"/>
<path fill-rule="evenodd" clip-rule="evenodd" d="M14.3884 70.1002C14.5114 69.7467 15.0742 69.8997 14.9503 70.2555C14.3133 72.0854 14.7652 74.0766 15.4538 75.8234C15.592 76.1738 15.0282 76.3244 14.8919 75.9787C14.1675 74.1413 13.7193 72.0219 14.3884 70.1002ZM18.6594 80.5522C20.4558 80.8057 22.2537 80.962 24.0625 81.0884C24.1434 81.0942 24.2133 81.0819 24.2738 81.0555C24.2199 81.8862 24.1762 82.7176 24.1419 83.549C23.6487 83.5352 23.1454 83.568 22.6566 83.5549C22.0177 83.5373 21.3795 83.5052 20.7421 83.4563C19.5081 83.3627 18.2762 83.2137 17.056 83.0077C16.6 82.931 16.0208 82.8842 15.5014 82.7322C15.0104 82.5884 14.5733 82.3501 14.3438 81.9015C14.1486 81.5216 14.1129 81.0563 14.1129 80.6362C14.1129 80.3468 14.1625 80.0531 14.1923 79.7616C14.2295 79.7354 14.263 79.7039 14.2899 79.6689C14.8319 79.8405 15.3943 79.9612 15.945 80.078C16.8418 80.2694 17.7517 80.4244 18.6594 80.5522ZM17.6462 73.7969C17.6561 74.3553 17.8102 74.8626 18.1099 75.3327C18.3128 75.6509 17.8081 75.9436 17.6067 75.6277C17.2538 75.0742 17.0751 74.4528 17.0634 73.7969C17.0567 73.42 17.6395 73.4213 17.6462 73.7969ZM63.6956 79.8888C63.9388 79.9024 64.1836 79.9108 64.4276 79.9238C64.6428 80.1083 64.9407 80.2029 65.2128 80.1442C65.2222 80.1678 65.2307 80.1943 65.2385 80.2248C65.2866 80.4126 65.3106 80.6142 65.3383 80.8057C65.366 80.9941 65.3871 81.1842 65.4017 81.3741C65.409 81.4698 65.4549 81.686 65.3966 81.7694C65.3441 81.8446 65.2283 81.838 65.1482 81.8475C64.9325 81.8709 64.714 81.8819 64.4969 81.9002C64.0868 81.9359 63.6766 81.9717 63.2672 82.0075C62.8658 82.0426 62.4251 82.0317 62.0325 82.1376C61.9654 81.3478 61.9042 80.5581 61.8474 79.7675C62.4557 79.8574 63.0917 79.8552 63.6956 79.8888ZM12.6931 78.5789C12.9379 79.053 13.1637 79.5191 13.6321 79.804C13.6933 79.8405 13.7618 79.8603 13.8317 79.8654C13.7793 80.0911 13.7465 80.322 13.7173 80.5353C13.6532 81.0052 13.6394 81.491 13.7567 81.9542C13.8711 82.4049 14.0605 82.8076 14.432 83.0961C14.6046 83.2306 14.7933 83.3328 14.9915 83.4139C14.958 83.5081 14.9383 83.6017 14.9485 83.7047C14.9011 83.9436 14.8698 84.1869 14.8356 84.4199C14.7605 84.9372 14.6855 85.4552 14.6265 85.9753C14.5085 87.0099 14.416 88.0444 14.338 89.0826C14.2601 90.1178 14.204 91.1546 14.1574 92.192C14.1333 92.7224 14.1122 93.2528 14.0925 93.7839C14.0728 94.3297 13.9847 94.8878 14.2251 95.3942C14.4189 95.8034 15.0738 95.7799 15.2748 95.3942C15.5298 94.9039 15.4548 94.3216 15.4613 93.7839C15.4679 93.2776 15.4766 92.7707 15.4876 92.2643C15.5094 91.2276 15.5415 90.1916 15.567 89.155C15.5917 88.1431 15.6223 87.1319 15.6427 86.12C15.6529 85.5903 15.6537 85.0606 15.6566 84.531C15.658 84.2373 15.6704 83.9239 15.6486 83.6177C15.8307 83.6608 16.0143 83.6973 16.1956 83.7346C17.5805 84.0195 18.9799 84.227 20.3881 84.3556C21.0954 84.4199 21.805 84.4652 22.5145 84.4908C23.0361 84.5098 23.5766 84.5463 24.1062 84.5266C24.0647 85.7949 24.0458 87.0639 24.048 88.333C24.0494 89.2484 24.0618 90.1638 24.0844 91.0793C24.0968 91.5607 24.107 92.0422 24.1215 92.5236C24.1281 92.74 24.1281 92.9583 24.1427 93.1739C24.147 93.2411 24.1565 93.3062 24.1689 93.3705C24.1208 93.5071 24.0807 93.6422 24.048 93.7687C23.8877 94.3823 23.8877 94.9719 23.9591 95.5973C24.0203 96.1277 24.4654 96.6194 25.0533 96.4331C25.1487 96.4031 25.2441 96.3717 25.3388 96.3395C26.2043 96.4382 27.0748 96.4609 27.9526 96.4776C29.2355 96.5025 30.5191 96.5105 31.8026 96.5171C34.3203 96.5303 36.8386 96.5369 39.357 96.5441C44.4178 96.5587 49.4785 96.5726 54.5393 96.5872C55.9438 96.5917 57.3483 96.5952 58.7528 96.5997C59.4799 96.6018 60.2054 96.6026 60.9317 96.6304C61.2705 96.6435 61.6099 96.6618 61.9487 96.6669C62.3413 96.6735 62.6888 96.5602 63.064 96.4572C63.276 96.398 63.3598 96.1847 63.3146 96.0043C63.6541 96.0853 64.0657 95.9129 64.1815 95.5294C64.266 95.251 64.2347 94.9492 64.1086 94.6913V94.6906C63.8653 93.1498 63.5564 91.6162 63.3139 90.0747C63.048 88.3863 62.7923 86.6943 62.5672 84.9993C62.3982 83.7193 62.259 84.6267 62.1388 83.3408C62.6626 83.3817 63.2549 83.2218 63.7735 83.1538C64.1458 83.1056 64.521 83.0668 64.8939 83.0157C64.8663 83.3927 64.8743 83.777 64.8641 84.1386C64.8444 84.8568 64.8531 85.572 64.8714 86.2903C64.9063 87.6762 64.9843 86.8696 65.1088 88.2497C65.2349 89.64 65.3893 91.0252 65.5765 92.409C65.6727 93.1213 65.7754 93.8329 65.8839 94.5437C65.9342 94.8754 65.9859 95.2065 66.0391 95.5381C66.1025 95.9289 66.1229 96.2994 66.415 96.5931C66.6372 96.8159 67.091 96.7969 67.2382 96.4864C67.4247 96.0941 67.3402 95.758 67.271 95.346C67.2149 95.015 67.161 94.684 67.1078 94.3531C66.9942 93.6437 66.8863 92.9335 66.7851 92.2227C66.5898 90.8529 66.4055 89.4807 66.2409 88.1073C66.0748 86.7227 65.9029 87.5315 65.7397 86.1471C65.6574 85.4486 65.5751 84.7516 65.4789 84.0554C65.4301 83.6973 65.3995 83.316 65.3354 82.947C65.3558 82.9442 65.3762 82.9404 65.3966 82.9368C65.8395 82.8557 66.2176 82.6051 66.329 82.1478C66.4354 81.7101 66.3087 81.2068 66.219 80.7772C66.1426 80.4114 66.0734 79.9443 65.8386 79.6308C66.6661 78.5736 67.2044 77.2434 67.5477 75.9645C67.9217 74.5711 68.0783 73.1167 68.1114 71.6769C68.1499 70.0088 68.0245 68.3503 67.7395 66.7194C67.7328 66.3737 67.7169 66.0282 67.6913 65.6831C67.4407 62.2961 66.3888 58.2874 63.0538 56.7048C63.0407 56.6983 63.0268 56.6924 63.013 56.6866C62.7515 56.3731 62.4251 56.0911 62.1614 55.8275C61.6944 55.3598 61.2064 54.9127 60.6891 54.5006C59.6649 53.6846 58.5416 53.0329 57.3738 52.4462C56.193 51.8522 54.9946 51.2949 53.8407 50.6468C52.8354 50.0813 51.9306 49.4004 51.0717 48.6318C50.1065 47.7675 49.4195 46.6022 49.15 45.3302C49.1361 45.2638 49.0378 45.2821 49.0363 45.3456C48.9657 47.6769 50.5348 49.7372 52.3407 51.0405C54.5 52.5975 57.1072 53.3346 59.297 54.8441C59.8412 55.2189 60.3504 55.6419 60.8348 56.0911C60.0925 56.0152 59.3371 56.0634 58.6414 56.2694C58.3675 56.2526 58.0921 56.2476 57.8175 56.2343C57.1895 56.2029 56.5608 56.1738 55.9322 56.1459C54.6508 56.089 53.3686 56.0371 52.0865 55.9918C49.571 55.9026 47.0549 55.8354 44.5387 55.7909C39.4823 55.701 34.4194 55.6835 29.3637 55.8304C27.9927 55.8698 20.7836 55.5959 20.1163 55.6732C21.0976 54.8214 22.1743 54.1259 23.3581 53.5538C24.8391 52.84 26.3696 52.3636 27.9512 51.9282C31.2082 51.0318 34.5905 50.1675 37.1971 47.8902C37.8447 47.324 38.4202 46.6731 38.8915 45.952C39.3417 45.2638 39.8422 44.3826 39.8546 43.5432C39.8633 42.9471 39.0357 42.73 38.7414 43.2407C38.5586 43.5571 38.4683 43.9041 38.3189 44.2358C38.1703 44.5646 37.994 44.8816 37.798 45.1849C37.4127 45.7811 36.9348 46.3129 36.4147 46.7929C35.3059 47.8172 33.9626 48.5675 32.5726 49.1352C29.4169 50.4232 25.9653 50.9668 22.9749 52.6647C21.6665 53.4077 20.4143 54.4328 19.6283 55.7405C19.5015 55.7603 19.3755 55.7836 19.2494 55.8099C19.3434 55.6908 19.4381 55.5718 19.5336 55.4533C19.5962 55.3759 19.4993 55.2737 19.4228 55.3423C17.936 56.669 16.5664 58.1017 15.3251 59.6637C14.1377 61.1585 13.0304 62.725 12.2465 64.4755C10.8377 67.62 10.5273 71.2166 11.2551 74.5789C11.4532 75.495 11.733 76.3921 12.0892 77.2594C12.2728 77.7072 12.4716 78.1485 12.6931 78.5789Z" fill="#1F2937"/>
<path fill-rule="evenodd" clip-rule="evenodd" d="M44.7905 12.9984C48.9268 12.9984 54.1075 17.7306 55.6237 19.7443C56.8985 21.4373 56.7181 30.1592 56.7181 35.333C56.7181 36.4151 56.2304 38.4631 56.0534 39.4981C55.4046 43.291 52.5779 46.4719 46.9832 46.4719C42.4279 46.4719 38.9222 45.0249 35.5322 41.3238C34.7588 40.4794 30.9818 43.5022 30.2093 42.4136C28.1916 42.4136 26.5046 23.5075 30.4659 17.8367C34.4273 12.166 40.6541 12.9984 44.7905 12.9984Z" fill="white"/>
<path fill-rule="evenodd" clip-rule="evenodd" d="M32.3577 14.3303C34.7478 12.1495 37.932 11.1004 41.1446 11.1778C42.8085 11.218 44.4665 11.5358 46.0378 12.0801C46.8239 12.3533 47.5851 12.7099 48.3129 13.1132C48.5751 13.2582 48.8169 13.4281 49.0497 13.6085L49.1077 13.6538H49.1084C49.7327 13.8788 50.29 14.2828 50.7956 14.7555C51.8089 14.6744 52.8302 14.7658 53.81 15.0792C55.1737 15.5161 56.4362 16.3161 57.3228 17.4522C58.3554 18.7748 58.6988 20.3791 58.5763 22.0352L58.5536 22.3166C58.4325 23.7795 58.2155 25.6613 57.0183 26.6226C56.9272 26.6956 56.8267 26.7512 56.7225 26.7848C57.494 28.1101 58.127 29.5815 58.5058 31.0675C59.9519 36.7435 58.8402 42.6628 57.1013 48.1334C56.9585 48.5842 56.2788 48.8838 55.9328 48.4432C55.3151 47.6556 54.4176 47.0551 53.4079 46.9426C52.785 46.8732 52.1651 46.9988 51.5765 46.7154C51.3456 46.6036 51.1227 46.4209 50.9624 46.1988C49.9687 46.5765 48.8986 46.7548 47.8372 46.711C46.0954 46.6394 44.2334 46.0344 43.035 44.7077C42.8427 44.4947 42.794 44.2556 42.8383 44.0401C42.9886 43.9863 43.1429 43.9463 43.3018 43.9212C44.8214 44.8194 46.4965 45.4196 48.2967 45.4573C49.3369 45.479 50.3516 45.3331 51.195 44.6818C51.3775 44.5407 51.5453 44.3846 51.7005 44.2169C53.4639 43.0792 54.7072 41.1468 55.2983 39.077C55.849 37.1468 55.7813 35.1369 55.5919 33.157L55.492 32.1122C55.3463 30.5788 55.2112 29.0407 55.1733 27.5007L55.1847 27.5002C55.5571 27.476 55.5598 26.8914 55.1847 26.9157C54.2145 26.9787 53.2516 26.819 52.2843 26.8886C52.2762 26.43 52.2433 25.9734 52.1089 25.5311C52.0322 25.2784 51.5934 25.2286 51.5469 25.5311C51.4847 25.9359 51.462 26.3384 51.4552 26.7449C50.0076 26.7257 48.5615 26.6035 47.1137 26.6537C46.8466 26.368 46.7616 25.8615 46.6367 25.5091C46.6184 25.4573 46.6002 25.4061 46.5813 25.3543C46.4715 25.8578 46.3159 26.3503 46.1112 26.8324L45.7561 26.8336C43.7415 26.8431 41.6859 26.9035 39.7187 27.3231C39.582 27.2178 39.5006 27.0341 39.4786 26.8673C39.3359 25.782 39.1322 24.7255 38.7713 23.6912L38.7197 23.5452C38.7154 23.5331 38.711 23.5203 38.7063 23.5067C38.4404 23.9373 38.123 24.3386 37.7769 24.7123C37.573 24.9326 37.3591 25.1432 37.1396 25.3478C36.9264 25.5853 36.706 25.8191 36.4924 26.0573C36.5008 26.1006 36.5081 26.1446 36.514 26.1894C36.5793 26.6836 36.5861 27.1849 36.5382 27.6811C36.4517 28.578 36.1992 29.4423 35.7936 30.2419L35.7807 30.3219C35.7191 30.6966 35.6315 31.0839 35.4269 31.366C35.6823 31.653 35.879 31.9958 35.9931 32.3767C36.0946 32.7157 35.6269 33.0096 35.3843 32.7321C35.1916 32.5117 34.9775 32.3292 34.7424 32.1837C34.7275 32.2039 34.7007 32.2139 34.6706 32.197C34.0157 31.8324 32.9033 31.9428 32.2491 32.2861C31.4354 32.7128 31.1178 33.5888 31.2081 34.4765C31.2948 35.3247 31.6649 36.3161 32.3825 36.7508C32.7117 36.9502 32.9682 36.967 33.3178 36.8713C33.4296 36.8409 33.5682 36.7475 33.6277 36.7011L33.6863 36.654C33.9155 36.4723 34.129 36.3479 34.3996 36.3431C34.6764 36.2566 34.9545 36.3766 35.0604 36.6677L35.0669 36.6865C35.1164 36.8348 35.2068 37.0211 35.1871 37.2476C35.1667 37.4902 35.056 37.7108 34.8906 37.8883C34.8622 37.919 34.8316 37.9497 34.8003 37.9782C37.6486 41.0708 38.0143 45.8898 36.5537 49.7532C36.4904 49.9227 36.4226 50.09 36.3519 50.2558C36.1079 50.8242 35.1682 50.6481 35.0487 50.0849C35.013 49.9161 34.9737 49.7481 34.9307 49.5815C34.8517 49.2737 34.7612 48.9687 34.6591 48.6682L34.6203 48.5557C34.5337 48.3073 34.4528 48.0567 34.3654 47.8083L34.3566 47.7799C34.3534 47.7687 34.3497 47.7557 34.3457 47.7411L34.1978 48.0648L33.7484 49.0416C33.538 49.4974 32.8698 49.2497 32.8449 48.8104L32.8443 48.7954C32.8421 48.7143 32.8392 48.6339 32.8341 48.5543C32.8021 47.9574 32.6993 47.3773 32.5362 46.8096L32.4773 46.883C31.6006 47.9699 30.5718 48.9888 29.1604 49.2396C28.8063 49.3024 28.4057 48.9312 28.649 48.5725C28.7495 48.4242 28.8464 48.2723 28.9382 48.1181C28.8588 48.0808 28.7837 48.0421 28.7145 48.0027C28.1791 47.7009 27.7333 47.2713 27.3647 46.784C26.583 45.751 26.3033 44.4505 26.2348 43.1778C26.1619 41.8328 26.28 40.4147 26.6464 39.1172C26.8052 38.5561 27.0201 38.0176 27.2685 37.4953C27.251 37.4485 27.2343 37.4017 27.2175 37.355C26.9494 36.6054 26.7294 35.839 26.5466 35.0639C26.178 33.4989 25.9798 31.8843 25.9558 30.2763C25.9121 27.3955 26.4074 24.4688 27.4514 21.7824C28.5295 19.012 30.1511 16.3431 32.3577 14.3303ZM31.0151 39.5168C30.8171 39.2042 30.3218 39.4859 30.5056 39.8007L30.5124 39.812C30.8264 40.3081 30.9736 40.8721 31.1542 41.4251C31.2701 41.7809 31.8332 41.629 31.7159 41.2695L31.6771 41.1495C31.4973 40.5887 31.3333 40.0187 31.0151 39.5168ZM32.7394 33.5493L32.8709 33.4855C33.2858 33.2869 33.6493 33.1517 34.1395 33.325C34.7959 33.5566 35.4989 34.2938 35.0553 35.009C34.8921 35.2728 34.6021 35.378 34.3035 35.3159C33.7999 35.2112 33.67 34.7564 33.4145 34.3831L33.3705 34.3199C33.2147 34.094 33.0177 33.7818 32.7583 33.6932C32.6993 33.6728 32.6746 33.5807 32.7394 33.5493ZM33.1094 18.3633L33.1517 18.3252C33.4337 18.0754 33.0199 17.6633 32.7394 17.9117C31.4558 19.0492 31.01 20.8297 30.3442 22.3471C30.1948 22.6883 30.6967 22.9864 30.8475 22.6423C31.4827 21.1943 31.9043 19.4622 33.1094 18.3633ZM48.5344 17.8657C48.199 17.7141 47.9055 18.2036 48.228 18.3648L48.24 18.3705C49.3736 18.8841 49.8558 20.0472 50.3177 21.127C50.4648 21.4719 50.9668 21.1745 50.8211 20.8326L50.7377 20.6389C50.2558 19.5261 49.6937 18.3918 48.5344 17.8657ZM50.3111 17.1628C49.9556 17.0394 49.8034 17.6034 50.156 17.7269C51.1168 18.0622 51.7761 18.7855 52.3319 19.6125C52.5403 19.9223 53.0451 19.6301 52.8346 19.3174C52.1891 18.3574 51.4228 17.5515 50.3111 17.1628Z" fill="#1F2937"/>
<path fill-rule="evenodd" clip-rule="evenodd" d="M48.3606 41.3419C47.8709 41.1415 47.4339 40.8073 47.1145 40.3804C47.0034 40.232 46.9746 40.0753 46.9979 39.9319C47.0241 39.7707 47.1192 39.6247 47.2489 39.5267C47.3789 39.4284 47.5417 39.3799 47.699 39.4046C47.8356 39.4261 47.9717 39.5011 48.0794 39.6568L48.1019 39.6879C48.2918 39.9456 48.5393 40.157 48.8213 40.2933C49.0931 40.4247 49.397 40.486 49.7116 40.4503C50.3107 40.3824 50.7236 40.0575 51.1625 39.6162C51.2169 39.5605 51.2713 39.5031 51.326 39.4447C51.3606 39.3918 51.4085 39.3578 51.4617 39.3399C51.5208 39.3201 51.5877 39.3212 51.6489 39.3427C51.708 39.3633 51.7608 39.4025 51.7962 39.4546C51.8298 39.5042 51.8489 39.5654 51.8427 39.6358C51.8025 40.0931 51.5641 40.5012 51.2255 40.8216C50.8495 41.1775 50.3509 41.4238 49.8816 41.5101C49.3645 41.6052 48.8377 41.5371 48.3606 41.3419ZM50.1255 34.2873C50.6756 34.6227 51.5138 35.4046 50.922 36.236C50.2254 36.969 49.2225 36.1286 48.7283 35.7484C48.27 35.4538 47.7551 36.2115 48.1803 36.5555C51.7516 39.2072 53.2009 34.375 50.4038 33.893C50.0958 33.8399 49.9814 34.1836 50.1255 34.2873ZM43.7257 31.2027C43.7865 30.4461 44.9355 30.2743 45.0498 31.023C45.1522 31.6937 45.0317 32.3098 44.7305 32.9136C44.4426 33.4905 43.7192 33.2213 43.6645 32.6961C43.5912 31.9919 43.6879 31.6734 43.7257 31.2027ZM52.4722 30.8677C52.6324 30.6573 52.8636 30.5137 53.1408 30.5949C54.0066 30.8486 53.7514 32.0813 53.4473 32.6814C53.2821 33.0072 52.748 33.0898 52.5067 32.8029C52.1133 32.3351 51.9249 31.4007 52.425 30.9398C52.4386 30.916 52.4537 30.892 52.4722 30.8677ZM44.7183 27.892L44.855 27.8679C45.2781 27.7946 45.8042 27.7241 46.1035 28.0652C46.2622 28.2461 46.3168 28.5823 46.1035 28.7554C45.7282 29.0601 45.3132 28.942 44.8635 28.9678C44.4928 28.9892 44.1366 29.0507 43.7795 29.153C42.9963 29.3775 42.3581 29.7874 41.6891 30.2375C41.6013 30.2965 41.5117 30.1839 41.5536 30.1016C41.9398 29.343 42.6881 28.7199 43.4377 28.34C43.8378 28.1373 44.2756 27.9691 44.7183 27.892ZM51.6829 27.5521L51.7876 27.5736C52.9267 27.8124 54.4068 28.2895 54.9462 29.4116C54.9668 29.5703 54.945 29.6043 54.9274 29.6265L54.9215 29.6339C54.9069 29.6529 54.8953 29.679 54.8267 29.7006C54.8077 29.6961 54.7885 29.6913 54.7691 29.6862C54.5218 29.6212 54.3262 29.5316 54.1368 29.4388L53.9314 29.3373C53.6932 29.2201 53.4528 29.1072 53.1981 29.0239C52.6545 28.8461 52.0953 28.7208 51.5275 28.6539C51.4045 28.6394 51.2859 28.5978 51.1925 28.5264C51.1037 28.4586 51.0359 28.3648 51.005 28.2401C50.9649 28.0787 50.9765 27.9565 51.0628 27.8109C51.1277 27.7016 51.2206 27.6258 51.3273 27.5823C51.436 27.5379 51.5599 27.5274 51.6829 27.5521Z" fill="#1F2937"/>
<path fill-rule="evenodd" clip-rule="evenodd" d="M56.2682 34.9411C55.7777 35.6019 54.8684 35.8124 54.0297 35.7397C52.2208 35.5651 51.6515 33.5048 51.5922 31.9034C52.8052 32.2456 51.4897 29.8219 55.6361 29.5554C57.0978 29.4332 56.6948 30.3186 57.3406 30.9654C57.3273 32.323 57.102 33.7982 56.2682 34.9411ZM47.6524 33.3811C46.5844 38.3969 40.7363 37.2038 40.122 32.6825C40.6892 32.2809 40.5398 31.2894 41.2446 30.9302C42.3615 30.2145 43.7577 30.2451 45.026 30.2619C46.6473 30.3736 47.1093 31.0472 47.9421 31.782C47.902 32.2728 47.7865 32.8545 47.6524 33.3811ZM58.5848 28.7247C58.5249 28.7147 58.4649 28.7053 58.4048 28.6964C58.358 28.6698 58.303 28.6492 58.239 28.6369C58.093 28.5997 57.9479 28.5746 57.8031 28.5611C55.7246 28.092 50.9161 28.7581 50.7177 30.5369C50.0558 30.7585 49.483 30.5601 48.7159 30.5798C48.1319 28.132 38.0364 28.4775 37.5509 29.9533C37.5491 29.9528 37.5472 29.9523 37.5453 29.9517C37.0788 29.8069 36.3911 29.8419 35.8571 29.8189C34.7169 29.7949 33.5755 29.8969 32.46 30.138C30.371 30.471 27.5201 30.8607 28.9729 33.4768C28.9732 33.4773 28.9734 33.4778 28.9738 33.4782L28.974 33.478C29.2244 33.7354 29.6493 33.5281 29.6651 33.1797C29.1767 31.9403 30.2799 31.7915 31.1287 31.4353C33.2408 30.6744 35.3911 30.5689 37.5756 30.8043C37.7399 30.9983 37.9893 31.1675 38.2528 31.2561C39.7134 31.4992 38.9437 32.5857 39.8669 32.7438C39.6973 36.5313 44.2824 38.5987 46.9391 36.109C47.9999 35.0689 48.2527 33.5281 48.4986 32.1393C48.6287 32.1101 48.7114 32.0387 48.7597 31.9444C49.0724 31.6312 49.2689 31.3421 49.8873 31.2561C50.5057 31.1701 50.9818 31.3426 51.0461 31.3955C51.0624 31.4283 51.0798 31.4611 51.1001 31.494C51.1283 31.543 51.1668 31.5821 51.2105 31.6129C50.5998 35.3845 53.5193 37.7697 56.4667 35.8136C57.7474 34.6054 58.018 32.7557 58.0715 31.1047C58.2451 30.9996 58.355 30.796 58.2949 30.54C58.2121 30.1871 58.4063 29.8816 58.7156 29.7282C59.1175 29.5289 59.0464 28.8013 58.5848 28.7247Z" fill="#1F2937"/>
</svg>
