<svg width="31" height="41" viewBox="0 0 31 41" fill="none" xmlns="http://www.w3.org/2000/svg">
<g filter="url(#filter0_d_1_2480)">
<circle cx="15.6953" cy="16.9678" r="12.25" fill="#43A7A1" stroke="white" stroke-width="1.5"/>
<path d="M15.6606 33.7837C15.5806 33.8914 15.4194 33.8914 15.3394 33.7837L11.8398 29.0692C11.7419 28.9372 11.8361 28.75 12.0004 28.75L18.9996 28.75C19.1639 28.75 19.2581 28.9372 19.1602 29.0692L15.6606 33.7837Z" fill="white"/>
</g>
<path d="M21.5975 22.1875H21.0655V10.6094C21.0655 10.2728 20.7797 10 20.4271 10H11.4896C11.137 10 10.8512 10.2728 10.8512 10.6094V22.1875H10.3192C10.1429 22.1875 10 22.3239 10 22.4922V23H21.9167V22.4922C21.9167 22.3239 21.7737 22.1875 21.5975 22.1875ZM13.4048 11.9297C13.4048 11.7614 13.5477 11.625 13.724 11.625H14.7879C14.9642 11.625 15.1071 11.7614 15.1071 11.9297V12.9453C15.1071 13.1136 14.9642 13.25 14.7879 13.25H13.724C13.5477 13.25 13.4048 13.1136 13.4048 12.9453V11.9297ZM13.4048 14.3672C13.4048 14.1989 13.5477 14.0625 13.724 14.0625H14.7879C14.9642 14.0625 15.1071 14.1989 15.1071 14.3672V15.3828C15.1071 15.5511 14.9642 15.6875 14.7879 15.6875H13.724C13.5477 15.6875 13.4048 15.5511 13.4048 15.3828V14.3672ZM14.7879 18.125H13.724C13.5477 18.125 13.4048 17.9886 13.4048 17.8203V16.8047C13.4048 16.6364 13.5477 16.5 13.724 16.5H14.7879C14.9642 16.5 15.1071 16.6364 15.1071 16.8047V17.8203C15.1071 17.9886 14.9642 18.125 14.7879 18.125ZM16.8095 22.1875H15.1071V20.0547C15.1071 19.8864 15.2501 19.75 15.4263 19.75H16.4903C16.6666 19.75 16.8095 19.8864 16.8095 20.0547V22.1875ZM18.5119 17.8203C18.5119 17.9886 18.369 18.125 18.1927 18.125H17.1287C16.9524 18.125 16.8095 17.9886 16.8095 17.8203V16.8047C16.8095 16.6364 16.9524 16.5 17.1287 16.5H18.1927C18.369 16.5 18.5119 16.6364 18.5119 16.8047V17.8203ZM18.5119 15.3828C18.5119 15.5511 18.369 15.6875 18.1927 15.6875H17.1287C16.9524 15.6875 16.8095 15.5511 16.8095 15.3828V14.3672C16.8095 14.1989 16.9524 14.0625 17.1287 14.0625H18.1927C18.369 14.0625 18.5119 14.1989 18.5119 14.3672V15.3828ZM18.5119 12.9453C18.5119 13.1136 18.369 13.25 18.1927 13.25H17.1287C16.9524 13.25 16.8095 13.1136 16.8095 12.9453V11.9297C16.8095 11.7614 16.9524 11.625 17.1287 11.625H18.1927C18.369 11.625 18.5119 11.7614 18.5119 11.9297V12.9453Z" fill="white"/>
<defs>
<filter id="filter0_d_1_2480" x="0.695312" y="2.96777" width="30" height="33.8965" filterUnits="userSpaceOnUse" color-interpolation-filters="sRGB">
<feFlood flood-opacity="0" result="BackgroundImageFix"/>
<feColorMatrix in="SourceAlpha" type="matrix" values="0 0 0 0 0 0 0 0 0 0 0 0 0 0 0 0 0 0 127 0" result="hardAlpha"/>
<feOffset dy="1"/>
<feGaussianBlur stdDeviation="1"/>
<feComposite in2="hardAlpha" operator="out"/>
<feColorMatrix type="matrix" values="0 0 0 0 0 0 0 0 0 0 0 0 0 0 0 0 0 0 0.25 0"/>
<feBlend mode="normal" in2="BackgroundImageFix" result="effect1_dropShadow_1_2480"/>
<feBlend mode="normal" in="SourceGraphic" in2="effect1_dropShadow_1_2480" result="shape"/>
</filter>
</defs>
</svg>
