<svg width="48" height="49" viewBox="0 0 48 49" fill="none" xmlns="http://www.w3.org/2000/svg">
<rect y="0.5" width="48" height="48" rx="11" fill="#3AB0FF"/>
<g clip-path="url(#clip0_2298_2209)">
<path d="M26.625 10.5H13.2083C11.435 10.5 10 11.935 10 13.7083V31.7917C10 33.565 11.435 35 13.2083 35H22.7167C21.7367 33.4483 21.0833 31.6167 21.0833 29.5167V26.67C20.9083 26.775 20.71 26.8333 20.5 26.8333H14.6667C14.025 26.8333 13.5 26.3083 13.5 25.6667C13.5 25.025 14.025 24.5 14.6667 24.5H20.5C20.7217 24.5 20.92 24.5583 21.095 24.6633C21.1417 23.6717 21.6083 22.7617 22.3433 22.1667H14.6667C14.025 22.1667 13.5 21.6417 13.5 21C13.5 20.3583 14.025 19.8333 14.6667 19.8333H25.1667C25.6567 19.8333 26.0767 20.1367 26.2517 20.5683L29.5767 19.4367C29.6583 19.4017 29.74 19.3783 29.8333 19.3667V13.7083C29.8333 11.935 28.3983 10.5 26.625 10.5ZM19.3333 17.5H14.6667C14.025 17.5 13.5 16.975 13.5 16.3333C13.5 15.6917 14.025 15.1667 14.6667 15.1667H19.3333C19.975 15.1667 20.5 15.6917 20.5 16.3333C20.5 16.975 19.975 17.5 19.3333 17.5Z" fill="white"/>
<path d="M37.2085 23.7298L31.0835 21.6461C30.8397 21.5633 30.5749 21.5633 30.331 21.6461L24.206 23.7298C23.7335 23.8908 23.415 24.3353 23.415 24.8346V29.5223C23.415 35.4338 29.9705 38.2898 30.2494 38.4088C30.3964 38.4706 30.5527 38.5009 30.7079 38.5009C30.863 38.5009 31.0194 38.4706 31.1652 38.4076C31.444 38.2886 37.9995 35.4338 37.9995 29.5223V24.8346C37.9995 24.3341 37.6822 23.8908 37.2085 23.7298ZM34.8495 28.1176L31.3495 32.7843C31.1465 33.0549 30.8374 33.2241 30.499 33.2474C30.471 33.2498 30.443 33.2509 30.4162 33.2509C30.107 33.2509 29.8107 33.1296 29.5914 32.9091L27.258 30.5758C26.8019 30.1196 26.8019 29.3823 27.258 28.9261C27.7142 28.4699 28.4515 28.4699 28.9077 28.9261L30.2902 30.3086L32.9829 26.7176C33.369 26.2031 34.1005 26.0969 34.615 26.4843C35.1319 26.8704 35.2369 27.6019 34.8495 28.1176Z" fill="white"/>
</g>
<defs>
<clipPath id="clip0_2298_2209">
<rect width="28" height="28" fill="white" transform="translate(10 10.5)"/>
</clipPath>
</defs>
</svg>
