<svg width="49" height="48" viewBox="0 0 49 48" fill="none" xmlns="http://www.w3.org/2000/svg">
<rect x="0.833008" y="0.5" width="47" height="47" rx="11.5" fill="#FF7941"/>
<rect x="0.833008" y="0.5" width="47" height="47" rx="11.5" stroke="#EFF2F5"/>
<g clip-path="url(#clip0_11666_10618)">
<path d="M16.9995 17.3334H31.6662" stroke="white" stroke-width="2" stroke-linecap="round" stroke-linejoin="round"/>
<path d="M16.9995 30.6666H31.6662" stroke="white" stroke-width="2" stroke-linecap="round" stroke-linejoin="round"/>
<path d="M16.333 34.6667V32C16.333 29.8783 17.1759 27.8434 18.6762 26.3431C20.1764 24.8429 22.2113 24 24.333 24C26.4547 24 28.4896 24.8429 29.9899 26.3431C31.4902 27.8434 32.333 29.8783 32.333 32V34.6667C32.333 35.0203 32.1925 35.3594 31.9425 35.6095C31.6924 35.8595 31.3533 36 30.9997 36H17.6663C17.3127 36 16.9736 35.8595 16.7235 35.6095C16.4735 35.3594 16.333 35.0203 16.333 34.6667Z" stroke="white" stroke-width="2" stroke-linecap="round" stroke-linejoin="round"/>
<path d="M16.333 13.3333V16C16.333 18.1217 17.1759 20.1566 18.6762 21.6569C20.1764 23.1571 22.2113 24 24.333 24C26.4547 24 28.4896 23.1571 29.9899 21.6569C31.4902 20.1566 32.333 18.1217 32.333 16V13.3333C32.333 12.9797 32.1925 12.6406 31.9425 12.3905C31.6924 12.1405 31.3533 12 30.9997 12H17.6663C17.3127 12 16.9736 12.1405 16.7235 12.3905C16.4735 12.6406 16.333 12.9797 16.333 13.3333Z" stroke="white" stroke-width="2" stroke-linecap="round" stroke-linejoin="round"/>
</g>
<defs>
<clipPath id="clip0_11666_10618">
<rect width="32" height="32" fill="white" transform="translate(8.33301 8)"/>
</clipPath>
</defs>
</svg>
