<svg width="160" height="120" viewBox="0 0 160 120" fill="none" xmlns="http://www.w3.org/2000/svg">
<path d="M83.221 119.229C115.825 119.229 142.258 92.7965 142.258 60.0755C142.258 27.3545 115.709 0.92157 83.221 0.92157C50.6164 0.92157 24.1835 27.3545 24.1835 60.0755C24.1835 92.7965 50.6164 119.229 83.221 119.229Z" fill="#EAEEF9"/>
<path d="M149.753 41.3332C152.39 41.3332 154.527 39.1957 154.527 36.559C154.527 33.9223 152.39 31.7848 149.753 31.7848C147.116 31.7848 144.979 33.9223 144.979 36.559C144.979 39.1957 147.116 41.3332 149.753 41.3332Z" fill="#EAEEF9"/>
<path d="M156.74 22.7022C158.54 22.7022 160 21.2425 160 19.4418C160 17.6411 158.54 16.1813 156.74 16.1813C154.939 16.1813 153.479 17.6411 153.479 19.4418C153.479 21.2425 154.939 22.7022 156.74 22.7022Z" fill="#EAEEF9"/>
<path d="M26.8618 21.2992C28.6625 21.2992 30.1222 19.8395 30.1222 18.0388C30.1222 16.2381 28.6625 14.7783 26.8618 14.7783C25.0611 14.7783 23.6013 16.2381 23.6013 18.0388C23.6013 19.8395 25.0611 21.2992 26.8618 21.2992Z" fill="#EAEEF9"/>
<path d="M6.94966 84.1796C10.2938 84.1796 13.0048 81.4687 13.0048 78.1245C13.0048 74.7803 10.2938 72.0694 6.94966 72.0694C3.6055 72.0694 0.894531 74.7803 0.894531 78.1245C0.894531 81.4687 3.6055 84.1796 6.94966 84.1796Z" fill="#EAEEF9"/>
<path d="M131.283 115.932H32.5158C30.5918 115.932 29.0131 114.353 29.0131 112.429V88.3048C29.0131 86.3808 30.5918 84.8021 32.5158 84.8021H131.283C133.207 84.8021 134.786 86.3808 134.786 88.3048V112.429C134.786 114.353 133.207 115.932 131.283 115.932Z" fill="url(#paint0_linear_1960_54464)"/>
<path d="M32.5158 116.432H131.283C133.483 116.432 135.286 114.629 135.286 112.429V88.3048C135.286 86.1046 133.483 84.3021 131.283 84.3021H32.5158C30.3156 84.3021 28.5131 86.1046 28.5131 88.3048V112.429C28.5131 114.629 30.3156 116.432 32.5158 116.432Z" stroke="#BBBBBB" stroke-opacity="0.25"/>
<path d="M114.904 96.4943H59.8965C58.7125 96.4943 57.7751 95.7749 57.7751 94.8662C57.7751 93.9576 58.7125 93.2382 59.8965 93.2382H114.904C116.088 93.2382 117.026 93.9576 117.026 94.8662C117.026 95.7749 116.088 96.4943 114.904 96.4943Z" fill="#D6DCE8"/>
<path d="M95.1705 106.41H59.8965C58.7125 106.41 57.7751 105.691 57.7751 104.782C57.7751 103.874 58.7125 103.154 59.8965 103.154H95.1705C96.3546 103.154 97.2919 103.874 97.2919 104.782C97.2919 105.691 96.3546 106.41 95.1705 106.41Z" fill="#D6DCE8"/>
<path d="M43.6162 109.124C48.4661 109.124 52.3977 105.192 52.3977 100.342C52.3977 95.4924 48.4661 91.5608 43.6162 91.5608C38.7663 91.5608 34.8347 95.4924 34.8347 100.342C34.8347 105.192 38.7663 109.124 43.6162 109.124Z" fill="#989FB0"/>
<path d="M42.7955 105.909V95H43.4943V105.909H42.7955ZM45.1477 98.2727C45.0966 97.8409 44.8892 97.5057 44.5256 97.267C44.1619 97.0284 43.7159 96.9091 43.1875 96.9091C42.8011 96.9091 42.4631 96.9716 42.1733 97.0966C41.8864 97.2216 41.6619 97.3935 41.5 97.6122C41.3409 97.831 41.2614 98.0795 41.2614 98.358C41.2614 98.5909 41.3168 98.7912 41.4276 98.9588C41.5412 99.1236 41.6861 99.2614 41.8622 99.3722C42.0384 99.4801 42.223 99.5696 42.4162 99.6406C42.6094 99.7088 42.7869 99.7642 42.9489 99.8068L43.8352 100.045C44.0625 100.105 44.3153 100.188 44.5938 100.293C44.875 100.398 45.1435 100.541 45.3991 100.723C45.6577 100.902 45.8707 101.132 46.0384 101.413C46.206 101.695 46.2898 102.04 46.2898 102.449C46.2898 102.92 46.1662 103.347 45.919 103.727C45.6747 104.108 45.3168 104.411 44.8452 104.635C44.3764 104.859 43.8068 104.972 43.1364 104.972C42.5114 104.972 41.9702 104.871 41.5128 104.669C41.0582 104.467 40.7003 104.186 40.4389 103.825C40.1804 103.464 40.0341 103.045 40 102.568H41.0909C41.1193 102.898 41.2301 103.17 41.4233 103.386C41.6193 103.599 41.8665 103.759 42.1648 103.864C42.4659 103.966 42.7898 104.017 43.1364 104.017C43.5398 104.017 43.902 103.952 44.223 103.821C44.544 103.688 44.7983 103.503 44.9858 103.267C45.1733 103.028 45.267 102.75 45.267 102.432C45.267 102.142 45.1861 101.906 45.0241 101.724C44.8622 101.543 44.6491 101.395 44.3849 101.281C44.1207 101.168 43.8352 101.068 43.5284 100.983L42.4545 100.676C41.7727 100.48 41.233 100.2 40.8352 99.8366C40.4375 99.473 40.2386 98.9972 40.2386 98.4091C40.2386 97.9205 40.3707 97.4943 40.6349 97.1307C40.902 96.7642 41.2599 96.4801 41.7088 96.2784C42.1605 96.0739 42.6648 95.9716 43.2216 95.9716C43.7841 95.9716 44.2841 96.0724 44.7216 96.2741C45.1591 96.473 45.5057 96.7457 45.7614 97.0923C46.0199 97.4389 46.1563 97.8324 46.1705 98.2727H45.1477Z" fill="white"/>
<path d="M134.602 36.4778H35.8344C33.9104 36.4778 32.3317 34.8991 32.3317 32.975V8.85059C32.3317 6.92655 33.9104 5.34785 35.8344 5.34785H134.602C136.526 5.34785 138.104 6.92655 138.104 8.85059V32.975C138.104 34.8991 136.526 36.4778 134.602 36.4778Z" fill="url(#paint1_linear_1960_54464)"/>
<path d="M35.8344 36.9778H134.602C136.802 36.9778 138.604 35.1752 138.604 32.975V8.85059C138.604 6.65041 136.802 4.84785 134.602 4.84785H35.8344C33.6342 4.84785 31.8317 6.65041 31.8317 8.85059V32.975C31.8317 35.1752 33.6342 36.9778 35.8344 36.9778Z" stroke="#BBBBBB" stroke-opacity="0.25"/>
<path d="M118.223 17.04H63.215C62.031 17.04 61.0936 16.3206 61.0936 15.4119C61.0936 14.5033 62.031 13.7839 63.215 13.7839H118.223C119.407 13.7839 120.344 14.5033 120.344 15.4119C120.344 16.3206 119.407 17.04 118.223 17.04Z" fill="#D6DCE8"/>
<path d="M98.489 26.9562H63.215C62.031 26.9562 61.0936 26.2368 61.0936 25.3282C61.0936 24.4195 62.031 23.7001 63.215 23.7001H98.489C99.673 23.7001 100.61 24.4195 100.61 25.3282C100.61 26.2368 99.673 26.9562 98.489 26.9562Z" fill="#D6DCE8"/>
<path d="M46.9345 29.6696C51.7843 29.6696 55.716 25.738 55.716 20.8881C55.716 16.0382 51.7843 12.1066 46.9345 12.1066C42.0846 12.1066 38.153 16.0382 38.153 20.8881C38.153 25.738 42.0846 29.6696 46.9345 29.6696Z" fill="#989FB0"/>
<path d="M46.4773 26.0909V15.1818H47.1762V26.0909H46.4773ZM48.8296 18.4545C48.7785 18.0227 48.5711 17.6875 48.2075 17.4489C47.8438 17.2102 47.3978 17.0909 46.8694 17.0909C46.483 17.0909 46.145 17.1534 45.8552 17.2784C45.5682 17.4034 45.3438 17.5753 45.1819 17.794C45.0228 18.0128 44.9432 18.2614 44.9432 18.5398C44.9432 18.7727 44.9986 18.973 45.1094 19.1406C45.2231 19.3054 45.368 19.4432 45.5441 19.554C45.7202 19.6619 45.9049 19.7514 46.0981 19.8224C46.2913 19.8906 46.4688 19.946 46.6307 19.9886L47.5171 20.2273C47.7444 20.2869 47.9972 20.3693 48.2756 20.4744C48.5569 20.5795 48.8254 20.723 49.081 20.9048C49.3396 21.0838 49.5526 21.3139 49.7202 21.5952C49.8879 21.8764 49.9717 22.2216 49.9717 22.6307C49.9717 23.1023 49.8481 23.5284 49.6009 23.9091C49.3566 24.2898 48.9986 24.5923 48.5271 24.8168C48.0583 25.0412 47.4887 25.1534 46.8182 25.1534C46.1932 25.1534 45.6521 25.0525 45.1947 24.8508C44.7401 24.6491 44.3822 24.3679 44.1208 24.0071C43.8623 23.6463 43.716 23.2273 43.6819 22.75H44.7728C44.8012 23.0795 44.912 23.3523 45.1052 23.5682C45.3012 23.7812 45.5484 23.9403 45.8467 24.0454C46.1478 24.1477 46.4717 24.1989 46.8182 24.1989C47.2217 24.1989 47.5839 24.1335 47.9049 24.0028C48.2259 23.8693 48.4802 23.6847 48.6677 23.4489C48.8552 23.2102 48.9489 22.9318 48.9489 22.6136C48.9489 22.3239 48.868 22.0881 48.706 21.9062C48.5441 21.7244 48.331 21.5767 48.0668 21.4631C47.8026 21.3494 47.5171 21.25 47.2103 21.1648L46.1364 20.8579C45.4546 20.6619 44.9148 20.3821 44.5171 20.0185C44.1194 19.6548 43.9205 19.179 43.9205 18.5909C43.9205 18.1023 44.0526 17.6761 44.3168 17.3125C44.5839 16.946 44.9418 16.6619 45.3907 16.4602C45.8424 16.2557 46.3467 16.1534 46.9035 16.1534C47.466 16.1534 47.966 16.2543 48.4035 16.456C48.841 16.6548 49.1876 16.9275 49.4432 17.2741C49.7018 17.6207 49.8381 18.0142 49.8523 18.4545H48.8296Z" fill="white"/>
<path d="M119.443 76.0182H20.6263C18.7022 76.0182 17.1235 74.4396 17.1235 72.5155V48.3911C17.1235 46.467 18.7022 44.8883 20.6263 44.8883H119.393C121.318 44.8883 122.896 46.467 122.896 48.3911V72.5155C122.946 74.4889 121.367 76.0182 119.443 76.0182Z" fill="url(#paint2_linear_1960_54464)"/>
<path d="M20.6263 76.5182H119.443C121.634 76.5182 123.449 74.7724 123.396 72.5093V48.3911C123.396 46.1909 121.594 44.3883 119.393 44.3883H20.6263C18.4261 44.3883 16.6235 46.1909 16.6235 48.3911V72.5155C16.6235 74.7157 18.4261 76.5182 20.6263 76.5182Z" stroke="#BBBBBB" stroke-opacity="0.25"/>
<path d="M31.776 69.2595C36.6259 69.2595 40.5575 65.3279 40.5575 60.478C40.5575 55.6282 36.6259 51.6965 31.776 51.6965C26.9261 51.6965 22.9945 55.6282 22.9945 60.478C22.9945 65.3279 26.9261 69.2595 31.776 69.2595Z" fill="#989FB0"/>
<path d="M31.4773 66.0909V55.1818H32.1762V66.0909H31.4773ZM33.8296 58.4545C33.7785 58.0227 33.5711 57.6875 33.2075 57.4489C32.8438 57.2102 32.3978 57.0909 31.8694 57.0909C31.483 57.0909 31.145 57.1534 30.8552 57.2784C30.5682 57.4034 30.3438 57.5753 30.1819 57.794C30.0228 58.0128 29.9432 58.2614 29.9432 58.5398C29.9432 58.7727 29.9986 58.973 30.1094 59.1406C30.2231 59.3054 30.368 59.4432 30.5441 59.554C30.7202 59.6619 30.9049 59.7514 31.0981 59.8224C31.2913 59.8906 31.4688 59.946 31.6307 59.9886L32.5171 60.2273C32.7444 60.2869 32.9972 60.3693 33.2756 60.4744C33.5569 60.5795 33.8254 60.723 34.081 60.9048C34.3396 61.0838 34.5526 61.3139 34.7202 61.5952C34.8879 61.8764 34.9717 62.2216 34.9717 62.6307C34.9717 63.1023 34.8481 63.5284 34.6009 63.9091C34.3566 64.2898 33.9986 64.5923 33.5271 64.8168C33.0583 65.0412 32.4887 65.1534 31.8182 65.1534C31.1932 65.1534 30.6521 65.0525 30.1947 64.8508C29.7401 64.6491 29.3822 64.3679 29.1208 64.0071C28.8623 63.6463 28.716 63.2273 28.6819 62.75H29.7728C29.8012 63.0795 29.912 63.3523 30.1052 63.5682C30.3012 63.7812 30.5484 63.9403 30.8467 64.0454C31.1478 64.1477 31.4717 64.1989 31.8182 64.1989C32.2217 64.1989 32.5839 64.1335 32.9049 64.0028C33.2259 63.8693 33.4802 63.6847 33.6677 63.4489C33.8552 63.2102 33.9489 62.9318 33.9489 62.6136C33.9489 62.3239 33.868 62.0881 33.706 61.9062C33.5441 61.7244 33.331 61.5767 33.0668 61.4631C32.8026 61.3494 32.5171 61.25 32.2103 61.1648L31.1364 60.8579C30.4546 60.6619 29.9148 60.3821 29.5171 60.0185C29.1194 59.6548 28.9205 59.179 28.9205 58.5909C28.9205 58.1023 29.0526 57.6761 29.3168 57.3125C29.5839 56.946 29.9418 56.6619 30.3907 56.4602C30.8424 56.2557 31.3467 56.1534 31.9035 56.1534C32.466 56.1534 32.966 56.2543 33.4035 56.456C33.841 56.6548 34.1876 56.9275 34.4432 57.2741C34.7018 57.6207 34.8381 58.0142 34.8523 58.4545H33.8296Z" fill="white"/>
<path d="M103.064 56.5806H48.0562C46.8722 56.5806 45.9348 55.8613 45.9348 54.9526C45.9348 54.0439 46.8722 53.3246 48.0562 53.3246H103.064C104.248 53.3246 105.185 54.0439 105.185 54.9526C105.185 55.8613 104.199 56.5806 103.064 56.5806Z" fill="#D6DCE8"/>
<path d="M83.3302 66.5461H48.0562C46.8722 66.5461 45.9348 65.8267 45.9348 64.918C45.9348 64.0094 46.8722 63.29 48.0562 63.29H83.3302C84.5142 63.29 85.4516 64.0094 85.4516 64.918C85.4022 65.8267 84.4649 66.5461 83.3302 66.5461Z" fill="#D6DCE8"/>
<defs>
<linearGradient id="paint0_linear_1960_54464" x1="81.8649" y1="84.082" x2="81.8649" y2="116.268" gradientUnits="userSpaceOnUse">
<stop stop-color="#FDFEFF"/>
<stop offset="0.9964" stop-color="#ECF0F5"/>
</linearGradient>
<linearGradient id="paint1_linear_1960_54464" x1="85.1835" y1="4.62779" x2="85.1835" y2="36.8134" gradientUnits="userSpaceOnUse">
<stop stop-color="#FDFEFF"/>
<stop offset="0.9964" stop-color="#ECF0F5"/>
</linearGradient>
<linearGradient id="paint2_linear_1960_54464" x1="69.976" y1="44.1683" x2="69.976" y2="76.3538" gradientUnits="userSpaceOnUse">
<stop stop-color="#FDFEFF"/>
<stop offset="0.9964" stop-color="#ECF0F5"/>
</linearGradient>
</defs>
</svg>
