<svg width="48" height="48" viewBox="0 0 48 48" fill="none" xmlns="http://www.w3.org/2000/svg">
<rect x="0.5" y="0.5" width="47" height="47" rx="11.5" fill="#F472B6"/>
<rect x="0.5" y="0.5" width="47" height="47" rx="11.5" stroke="#EFF2F5"/>
<g clip-path="url(#clip0_11666_10600)">
<path d="M13.3333 14.6667C13.3333 14.3131 13.4737 13.9739 13.7238 13.7239C13.9738 13.4739 14.313 13.3334 14.6666 13.3334H19.9999C20.3535 13.3334 20.6927 13.4739 20.9427 13.7239C21.1928 13.9739 21.3333 14.3131 21.3333 14.6667V20C21.3333 20.3537 21.1928 20.6928 20.9427 20.9428C20.6927 21.1929 20.3535 21.3334 19.9999 21.3334H14.6666C14.313 21.3334 13.9738 21.1929 13.7238 20.9428C13.4737 20.6928 13.3333 20.3537 13.3333 20V14.6667Z" stroke="white" stroke-width="2" stroke-linecap="round" stroke-linejoin="round"/>
<path d="M17.3333 30.6666V30.68" stroke="white" stroke-width="2" stroke-linecap="round" stroke-linejoin="round"/>
<path d="M26.6667 14.6667C26.6667 14.3131 26.8072 13.9739 27.0573 13.7239C27.3073 13.4739 27.6465 13.3334 28.0001 13.3334H33.3334C33.687 13.3334 34.0262 13.4739 34.2762 13.7239C34.5263 13.9739 34.6667 14.3131 34.6667 14.6667V20C34.6667 20.3537 34.5263 20.6928 34.2762 20.9428C34.0262 21.1929 33.687 21.3334 33.3334 21.3334H28.0001C27.6465 21.3334 27.3073 21.1929 27.0573 20.9428C26.8072 20.6928 26.6667 20.3537 26.6667 20V14.6667Z" stroke="white" stroke-width="2" stroke-linecap="round" stroke-linejoin="round"/>
<path d="M17.3333 17.3334V17.3467" stroke="white" stroke-width="2" stroke-linecap="round" stroke-linejoin="round"/>
<path d="M13.3333 28C13.3333 27.6463 13.4737 27.3072 13.7238 27.0572C13.9738 26.8071 14.313 26.6666 14.6666 26.6666H19.9999C20.3535 26.6666 20.6927 26.8071 20.9427 27.0572C21.1928 27.3072 21.3333 27.6463 21.3333 28V33.3333C21.3333 33.6869 21.1928 34.0261 20.9427 34.2761C20.6927 34.5262 20.3535 34.6666 19.9999 34.6666H14.6666C14.313 34.6666 13.9738 34.5262 13.7238 34.2761C13.4737 34.0261 13.3333 33.6869 13.3333 33.3333V28Z" stroke="white" stroke-width="2" stroke-linecap="round" stroke-linejoin="round"/>
<path d="M30.6667 17.3334V17.3467" stroke="white" stroke-width="2" stroke-linecap="round" stroke-linejoin="round"/>
<path d="M26.6667 26.6666H30.6667" stroke="white" stroke-width="2" stroke-linecap="round" stroke-linejoin="round"/>
<path d="M34.6667 26.6666V26.68" stroke="white" stroke-width="2" stroke-linecap="round" stroke-linejoin="round"/>
<path d="M26.6667 26.6666V30.6666" stroke="white" stroke-width="2" stroke-linecap="round" stroke-linejoin="round"/>
<path d="M26.6667 34.6666H30.6667" stroke="white" stroke-width="2" stroke-linecap="round" stroke-linejoin="round"/>
<path d="M30.6667 30.6666H34.6667" stroke="white" stroke-width="2" stroke-linecap="round" stroke-linejoin="round"/>
<path d="M34.6667 30.6666V34.6666" stroke="white" stroke-width="2" stroke-linecap="round" stroke-linejoin="round"/>
</g>
<defs>
<clipPath id="clip0_11666_10600">
<rect width="32" height="32" fill="white" transform="translate(8 8)"/>
</clipPath>
</defs>
</svg>
