<svg width="256" height="250" viewBox="0 0 256 250" fill="none" xmlns="http://www.w3.org/2000/svg">
<path d="M127.7 221.502C187.239 221.502 235.752 173.19 235.752 113.851C235.552 54.3126 187.239 6 127.7 6C67.9611 6 19.6484 54.3126 19.6484 113.651C19.6484 173.19 67.9611 221.502 127.7 221.502Z" fill="#EAEEF9"/>
<path d="M238.356 76.162C242.895 76.162 246.575 72.4821 246.575 67.9428C246.575 63.4035 242.895 59.7236 238.356 59.7236C233.817 59.7236 230.137 63.4035 230.137 67.9428C230.137 72.4821 233.817 76.162 238.356 76.162Z" fill="#EAEEF9"/>
<path d="M250.383 44.0895C253.483 44.0895 255.996 41.5764 255.996 38.4764C255.996 35.3763 253.483 32.8633 250.383 32.8633C247.283 32.8633 244.77 35.3763 244.77 38.4764C244.77 41.5764 247.283 44.0895 250.383 44.0895Z" fill="#EAEEF9"/>
<path d="M10.4243 186.02C16.1815 186.02 20.8486 181.353 20.8486 175.596C20.8486 169.839 16.1815 165.172 10.4243 165.172C4.66712 165.172 0 169.839 0 175.596C0 181.353 4.66712 186.02 10.4243 186.02Z" fill="#EAEEF9"/>
<g filter="url(#filter0_d_215_1630)">
<path d="M203.492 68.4843V199.051C203.492 208.565 195.947 216.11 186.433 216.11H68.9887C59.475 216.11 51.9297 208.565 51.9297 199.051V28.1332C51.9297 18.6195 59.475 11.0742 68.9887 11.0742H146.41C150.675 11.0742 154.612 12.7145 157.564 15.667L198.899 57.0023C201.852 60.2828 203.492 64.2195 203.492 68.4843Z" fill="url(#paint0_linear_215_1630)"/>
</g>
<g filter="url(#filter1_d_215_1630)">
<path d="M154.195 13.0957V49.0593C154.195 56.017 160.087 61.5832 166.783 61.5832H201.965C201.206 59.9514 200.177 58.4152 198.904 57.0009L157.569 15.6657C156.552 14.649 155.419 13.7878 154.195 13.0957Z" fill="#D5DDEA"/>
</g>
<path d="M102.6 180.554H75.2437C74.2229 180.554 73.4062 179.469 73.4062 178.167C73.4062 176.865 74.2229 175.78 75.2437 175.78H102.6C103.621 175.78 104.438 176.865 104.438 178.167C104.438 179.686 103.621 180.554 102.6 180.554Z" fill="#D5DDEA"/>
<path d="M137.586 46.8805H76.0634C74.6326 46.8805 73.4062 45.7788 73.4062 44.4935C73.4062 43.2082 74.6326 42.1064 76.0634 42.1064H137.586C139.017 42.1064 140.244 43.2082 140.244 44.4935C140.244 45.7788 139.017 46.8805 137.586 46.8805Z" fill="#D6DCE8"/>
<path d="M99.613 61.2028H76.0472C74.6252 61.2028 73.4062 60.1011 73.4062 58.8158C73.4062 57.5304 74.6252 56.4287 76.0472 56.4287H99.4099C100.832 56.4287 102.051 57.5304 102.051 58.8158C102.051 60.1011 100.832 61.2028 99.613 61.2028Z" fill="#D6DCE8"/>
<path d="M181.286 144.75H109.546H101.639H77.7254C76.7611 144.75 75.7969 145.745 75.7969 147.137C75.7969 148.331 76.5683 149.524 77.7254 149.524H101.639H109.546H181.286C182.25 149.524 183.214 148.529 183.214 147.137C183.021 145.745 182.25 144.75 181.286 144.75Z" fill="#D6DCE8"/>
<path d="M181.282 128.039H154.621H145.541H77.7288C76.7629 128.039 75.7969 129.034 75.7969 130.426C75.7969 131.62 76.5697 132.813 77.7288 132.813H145.541H154.621H181.282C182.248 132.813 183.214 131.819 183.214 130.426C183.021 129.034 182.248 128.039 181.282 128.039Z" fill="#D6DCE8"/>
<path d="M181.457 111.33H174.529H167.6H77.7215C76.7592 111.33 75.7969 112.325 75.7969 113.717C75.7969 114.911 76.5667 116.104 77.7215 116.104H167.6H175.298H181.265C182.227 116.104 183.189 115.11 183.189 113.717C183.382 112.524 182.419 111.33 181.457 111.33Z" fill="#D6DCE8"/>
<path d="M181.306 94.6211H158.983H153.45H77.7048C76.7508 94.6211 75.7969 95.6157 75.7969 97.0081C75.7969 98.2017 76.5601 99.3952 77.7048 99.3952H153.45H158.983H181.115C182.451 99.3952 183.214 98.4006 183.214 97.0081C183.214 95.8146 182.451 94.6211 181.306 94.6211Z" fill="#D6DCE8"/>
<defs>
<filter id="filter0_d_215_1630" x="29.9297" y="0.0742188" width="195.562" height="249.036" filterUnits="userSpaceOnUse" color-interpolation-filters="sRGB">
<feFlood flood-opacity="0" result="BackgroundImageFix"/>
<feColorMatrix in="SourceAlpha" type="matrix" values="0 0 0 0 0 0 0 0 0 0 0 0 0 0 0 0 0 0 127 0" result="hardAlpha"/>
<feOffset dy="11"/>
<feGaussianBlur stdDeviation="11"/>
<feColorMatrix type="matrix" values="0 0 0 0 0.397708 0 0 0 0 0.47749 0 0 0 0 0.575 0 0 0 0.27 0"/>
<feBlend mode="normal" in2="BackgroundImageFix" result="effect1_dropShadow_215_1630"/>
<feBlend mode="normal" in="SourceGraphic" in2="effect1_dropShadow_215_1630" result="shape"/>
</filter>
<filter id="filter1_d_215_1630" x="132.195" y="2.0957" width="91.7695" height="92.4873" filterUnits="userSpaceOnUse" color-interpolation-filters="sRGB">
<feFlood flood-opacity="0" result="BackgroundImageFix"/>
<feColorMatrix in="SourceAlpha" type="matrix" values="0 0 0 0 0 0 0 0 0 0 0 0 0 0 0 0 0 0 127 0" result="hardAlpha"/>
<feOffset dy="11"/>
<feGaussianBlur stdDeviation="11"/>
<feColorMatrix type="matrix" values="0 0 0 0 0.397708 0 0 0 0 0.47749 0 0 0 0 0.575 0 0 0 0.27 0"/>
<feBlend mode="normal" in2="BackgroundImageFix" result="effect1_dropShadow_215_1630"/>
<feBlend mode="normal" in="SourceGraphic" in2="effect1_dropShadow_215_1630" result="shape"/>
</filter>
<linearGradient id="paint0_linear_215_1630" x1="127.662" y1="6.33154" x2="127.662" y2="218.32" gradientUnits="userSpaceOnUse">
<stop stop-color="#FDFEFF"/>
<stop offset="0.9964" stop-color="#ECF0F5"/>
</linearGradient>
</defs>
</svg>
