<svg width="62" height="22" viewBox="0 0 62 22" fill="none" xmlns="http://www.w3.org/2000/svg">
<rect x="0.666626" y="0.399902" width="17.4582" height="10" rx="1.22912" fill="#FDA4AF"/>
<path d="M2.71928 8.3999V3.03649H4.73056C5.14259 3.03649 5.48828 3.11331 5.76763 3.26695C6.04872 3.42059 6.26084 3.63184 6.40401 3.90071C6.54892 4.16783 6.62137 4.47162 6.62137 4.81207C6.62137 5.15601 6.54892 5.46155 6.40401 5.72867C6.2591 5.99579 6.04522 6.20618 5.76239 6.35981C5.47955 6.51171 5.13124 6.58765 4.71747 6.58765H3.38447V5.7889H4.58652C4.82746 5.7889 5.02474 5.747 5.17838 5.6632C5.33202 5.5794 5.44551 5.46417 5.51883 5.31751C5.59391 5.17085 5.63145 5.00237 5.63145 4.81207C5.63145 4.62177 5.59391 4.45416 5.51883 4.30925C5.44551 4.16434 5.33115 4.05173 5.17576 3.97142C5.02213 3.88936 4.82397 3.84833 4.58128 3.84833H3.69087V8.3999H2.71928ZM9.28278 8.3999H7.4653V3.03649H9.31945C9.85195 3.03649 10.3094 3.14386 10.6917 3.35861C11.0758 3.57161 11.3709 3.87801 11.5769 4.27782C11.7829 4.67764 11.8859 5.15601 11.8859 5.71296C11.8859 6.27165 11.782 6.75177 11.5743 7.15333C11.3683 7.55489 11.0706 7.86304 10.6813 8.07778C10.2937 8.29253 9.82751 8.3999 9.28278 8.3999ZM8.43689 7.55925H9.23564C9.60927 7.55925 9.92091 7.49116 10.1706 7.35498C10.4202 7.21705 10.6079 7.01191 10.7336 6.73955C10.8593 6.46544 10.9222 6.12324 10.9222 5.71296C10.9222 5.30267 10.8593 4.96222 10.7336 4.6916C10.6079 4.41924 10.422 4.21585 10.1758 4.08141C9.93139 3.94523 9.6276 3.87714 9.26445 3.87714H8.43689V7.55925ZM12.8091 8.3999V3.03649H16.245V3.85095H13.7807V5.30703H16.0093V6.1215H13.7807V8.3999H12.8091Z" fill="white"/>
<rect x="0.666626" y="13.3999" width="60.6667" height="2.6" rx="1.3" fill="#D1D5DB"/>
<rect x="0.666626" y="19" width="60.6667" height="2.6" rx="1.3" fill="#D1D5DB"/>
</svg>
