<svg width="62" height="36" viewBox="0 0 62 36" fill="none" xmlns="http://www.w3.org/2000/svg">
<path d="M16.199 7.623L16.307 7.721L20.293 11.707L20.387 11.79C20.5794 11.9391 20.8196 12.013 21.0626 11.9976C21.3056 11.9823 21.5346 11.8789 21.7067 11.7067C21.8789 11.5346 21.9823 11.3056 21.9976 11.0626C22.013 10.8196 21.9391 10.5794 21.79 10.387L21.707 10.293L21.415 10L22.707 8.707L22.813 8.612C23.27 8.232 23.731 8.232 24.199 8.623L24.307 8.721L28.809 13.224C28.5605 13.9955 28.0837 14.6734 27.4416 15.168C26.7995 15.6626 26.0224 15.9506 25.213 15.994L25 16H13C12.1532 15.9999 11.3282 15.7313 10.6437 15.2326C9.95927 14.734 9.45064 14.0311 9.191 13.225L14.707 7.707L14.813 7.612C15.27 7.232 15.731 7.232 16.199 7.623ZM25 0C26.0262 -8.02754e-07 27.0132 0.394435 27.7568 1.10172C28.5004 1.80901 28.9437 2.77504 28.995 3.8L29 4V10.585L25.707 7.293L25.557 7.156C24.301 6.061 22.707 6.059 21.461 7.139L21.307 7.279L20 8.585L17.707 6.293L17.557 6.156C16.301 5.061 14.707 5.059 13.461 6.139L13.307 6.279L9 10.585V4C9 2.97376 9.39444 1.98677 10.1017 1.24319C10.809 0.499605 11.775 0.0563122 12.8 0.00500011L13 0H25ZM22.01 3L21.883 3.007C21.64 3.03591 21.4159 3.15296 21.2534 3.33596C21.0909 3.51897 21.0011 3.75524 21.0011 4C21.0011 4.24476 21.0909 4.48103 21.2534 4.66404C21.4159 4.84704 21.64 4.96409 21.883 4.993L22 5L22.127 4.993C22.37 4.96409 22.5941 4.84704 22.7566 4.66404C22.9191 4.48103 23.0089 4.24476 23.0089 4C23.0089 3.75524 22.9191 3.51897 22.7566 3.33596C22.5941 3.15296 22.37 3.03591 22.127 3.007L22.01 3Z" fill="#A6F4C5"/>
<path d="M40.199 7.623L40.307 7.721L44.293 11.707L44.387 11.79C44.5794 11.9391 44.8196 12.013 45.0626 11.9976C45.3056 11.9823 45.5346 11.8789 45.7067 11.7067C45.8789 11.5346 45.9823 11.3056 45.9976 11.0626C46.013 10.8196 45.9391 10.5794 45.79 10.387L45.707 10.293L45.415 10L46.707 8.707L46.813 8.612C47.27 8.232 47.731 8.232 48.199 8.623L48.307 8.721L52.809 13.224C52.5605 13.9955 52.0837 14.6734 51.4416 15.168C50.7995 15.6626 50.0224 15.9506 49.213 15.994L49 16H37C36.1532 15.9999 35.3282 15.7313 34.6437 15.2326C33.9593 14.734 33.4506 14.0311 33.191 13.225L38.707 7.707L38.813 7.612C39.27 7.232 39.731 7.232 40.199 7.623ZM49 0C50.0262 -8.02754e-07 51.0132 0.394435 51.7568 1.10172C52.5004 1.80901 52.9437 2.77504 52.995 3.8L53 4V10.585L49.707 7.293L49.557 7.156C48.301 6.061 46.707 6.059 45.461 7.139L45.307 7.279L44 8.585L41.707 6.293L41.557 6.156C40.301 5.061 38.707 5.059 37.461 6.139L37.307 6.279L33 10.585V4C33 2.97376 33.3944 1.98677 34.1017 1.24319C34.809 0.499605 35.775 0.0563122 36.8 0.00500011L37 0H49ZM46.01 3L45.883 3.007C45.64 3.03591 45.4159 3.15296 45.2534 3.33596C45.0909 3.51897 45.0011 3.75524 45.0011 4C45.0011 4.24476 45.0909 4.48103 45.2534 4.66404C45.4159 4.84704 45.64 4.96409 45.883 4.993L46 5L46.127 4.993C46.37 4.96409 46.5941 4.84704 46.7566 4.66404C46.9191 4.48103 47.0089 4.24476 47.0089 4C47.0089 3.75524 46.9191 3.51897 46.7566 3.33596C46.5941 3.15296 46.37 3.03591 46.127 3.007L46.01 3Z" fill="#E5E7EB"/>
<path d="M16.199 27.623L16.307 27.721L20.293 31.707L20.387 31.79C20.5794 31.9391 20.8196 32.013 21.0626 31.9976C21.3056 31.9823 21.5346 31.8789 21.7067 31.7067C21.8789 31.5346 21.9823 31.3056 21.9976 31.0626C22.013 30.8196 21.9391 30.5794 21.79 30.387L21.707 30.293L21.415 30L22.707 28.707L22.813 28.612C23.27 28.232 23.731 28.232 24.199 28.623L24.307 28.721L28.809 33.224C28.5605 33.9955 28.0837 34.6734 27.4416 35.168C26.7995 35.6626 26.0224 35.9506 25.213 35.994L25 36H13C12.1532 35.9999 11.3282 35.7313 10.6437 35.2326C9.95927 34.734 9.45064 34.0311 9.191 33.225L14.707 27.707L14.813 27.612C15.27 27.232 15.731 27.232 16.199 27.623ZM25 20C26.0262 20 27.0132 20.3944 27.7568 21.1017C28.5004 21.809 28.9437 22.775 28.995 23.8L29 24V30.585L25.707 27.293L25.557 27.156C24.301 26.061 22.707 26.059 21.461 27.139L21.307 27.279L20 28.585L17.707 26.293L17.557 26.156C16.301 25.061 14.707 25.059 13.461 26.139L13.307 26.279L9 30.585V24C9 22.9738 9.39444 21.9868 10.1017 21.2432C10.809 20.4996 11.775 20.0563 12.8 20.005L13 20H25ZM22.01 23L21.883 23.007C21.64 23.0359 21.4159 23.153 21.2534 23.336C21.0909 23.519 21.0011 23.7552 21.0011 24C21.0011 24.2448 21.0909 24.481 21.2534 24.664C21.4159 24.847 21.64 24.9641 21.883 24.993L22 25L22.127 24.993C22.37 24.9641 22.5941 24.847 22.7566 24.664C22.9191 24.481 23.0089 24.2448 23.0089 24C23.0089 23.7552 22.9191 23.519 22.7566 23.336C22.5941 23.153 22.37 23.0359 22.127 23.007L22.01 23Z" fill="#E5E7EB"/>
<path d="M40.199 27.623L40.307 27.721L44.293 31.707L44.387 31.79C44.5794 31.9391 44.8196 32.013 45.0626 31.9976C45.3056 31.9823 45.5346 31.8789 45.7067 31.7067C45.8789 31.5346 45.9823 31.3056 45.9976 31.0626C46.013 30.8196 45.9391 30.5794 45.79 30.387L45.707 30.293L45.415 30L46.707 28.707L46.813 28.612C47.27 28.232 47.731 28.232 48.199 28.623L48.307 28.721L52.809 33.224C52.5605 33.9955 52.0837 34.6734 51.4416 35.168C50.7995 35.6626 50.0224 35.9506 49.213 35.994L49 36H37C36.1532 35.9999 35.3282 35.7313 34.6437 35.2326C33.9593 34.734 33.4506 34.0311 33.191 33.225L38.707 27.707L38.813 27.612C39.27 27.232 39.731 27.232 40.199 27.623ZM49 20C50.0262 20 51.0132 20.3944 51.7568 21.1017C52.5004 21.809 52.9437 22.775 52.995 23.8L53 24V30.585L49.707 27.293L49.557 27.156C48.301 26.061 46.707 26.059 45.461 27.139L45.307 27.279L44 28.585L41.707 26.293L41.557 26.156C40.301 25.061 38.707 25.059 37.461 26.139L37.307 26.279L33 30.585V24C33 22.9738 33.3944 21.9868 34.1017 21.2432C34.809 20.4996 35.775 20.0563 36.8 20.005L37 20H49ZM46.01 23L45.883 23.007C45.64 23.0359 45.4159 23.153 45.2534 23.336C45.0909 23.519 45.0011 23.7552 45.0011 24C45.0011 24.2448 45.0909 24.481 45.2534 24.664C45.4159 24.847 45.64 24.9641 45.883 24.993L46 25L46.127 24.993C46.37 24.9641 46.5941 24.847 46.7566 24.664C46.9191 24.481 47.0089 24.2448 47.0089 24C47.0089 23.7552 46.9191 23.519 46.7566 23.336C46.5941 23.153 46.37 23.0359 46.127 23.007L46.01 23Z" fill="#E5E7EB"/>
</svg>
