
<svg width="49" height="48" viewBox="0 0 49 48" fill="none" xmlns="http://www.w3.org/2000/svg">
<rect x="0.0864258" width="48" height="48" rx="11" fill="#F472B6"/>
<g clip-path="url(#clip0_1856_79375)">
<path d="M35.2974 16.0703H33.7891L34.6152 13.1264C34.9824 11.8178 34.2193 10.4594 32.9108 10.0922C31.6023 9.72483 30.2438 10.4881 29.8766 11.7967L28.6774 16.0703H23.9458L24.7719 13.1264C25.1391 11.8178 24.3761 10.4594 23.0675 10.0922C21.759 9.72483 20.4005 10.4881 20.0333 11.7967L18.8341 16.0703H15.6099C14.2507 16.0703 13.1489 17.1721 13.1489 18.5313C13.1489 19.8904 14.2507 20.9922 15.6099 20.9922H17.4529L15.7649 27.0078H12.8755C11.5163 27.0078 10.4146 28.1096 10.4146 29.4688C10.4146 30.8279 11.5163 31.9297 12.8755 31.9297H14.3838L13.5577 34.8737C13.1904 36.1822 13.9535 37.5407 15.2621 37.9079C15.4845 37.9703 15.7082 38.0001 15.9283 38.0001C17.0036 38.0001 17.9915 37.2896 18.2963 36.2035L19.4955 31.9297H24.227L23.4009 34.8737C23.0337 36.1822 23.7968 37.5407 25.1054 37.9079C25.3277 37.9703 25.5514 38.0001 25.7716 38.0001C26.8468 38.0001 27.8348 37.2896 28.1395 36.2035L29.3388 31.9297H32.563C33.9221 31.9297 35.0239 30.8279 35.0239 29.4688C35.0239 28.1096 33.9221 27.0078 32.563 27.0078H30.7199L32.4079 20.9922H35.2974C36.6565 20.9922 37.7583 19.8904 37.7583 18.5313C37.7583 17.1721 36.6565 16.0703 35.2974 16.0703ZM25.6082 27.0078H20.8767L22.5647 20.9922H27.2963L25.6082 27.0078Z" fill="white"/>
</g>
<defs>
<clipPath id="clip0_1856_79375">
<rect width="28" height="28" fill="white" transform="translate(10.0864 10)"/>
</clipPath>
</defs>
</svg>
