<svg width="24" height="24" viewBox="0 0 24 24" fill="none" xmlns="http://www.w3.org/2000/svg">
<g clip-path="url(#clip0_1882_106633)">
<circle cx="12" cy="12" r="24" fill="#10B981"/>
<g clip-path="url(#clip1_1882_106633)">
<path d="M10 6C10.1195 5.99997 10.2369 6.03207 10.3397 6.09294C10.4426 6.15381 10.5272 6.24121 10.5847 6.346L10.6187 6.41933L11.952 9.75267C12.0057 9.88677 12.0144 10.0347 11.9768 10.1742C11.9391 10.3136 11.8572 10.4371 11.7433 10.526L11.6767 10.5713L10.5607 11.2407L10.6027 11.3093C11.1338 12.1527 11.8473 12.8662 12.6907 13.3973L12.7587 13.4387L13.4287 12.324C13.5029 12.2001 13.6154 12.1036 13.7492 12.0491C13.8831 11.9947 14.031 11.9851 14.1707 12.022L14.2473 12.048L17.5807 13.3813C17.6917 13.4256 17.7887 13.4989 17.8617 13.5936C17.9346 13.6882 17.9808 13.8007 17.9953 13.9193L18 14V16.6667C18 17.7713 17.1047 18.6667 15.96 18.6653C10.2407 18.318 5.68133 13.7587 5.33333 8C5.3333 7.48986 5.52822 6.99899 5.87819 6.62783C6.22816 6.25666 6.70674 6.03326 7.216 6.00333L7.33333 6H10Z" fill="white"/>
</g>
</g>
<defs>
<clipPath id="clip0_1882_106633">
<rect width="24" height="24" rx="12" fill="white"/>
</clipPath>
<clipPath id="clip1_1882_106633">
<rect width="16" height="16" fill="white" transform="translate(4 4)"/>
</clipPath>
</defs>
</svg>
