<svg width="32" height="32" viewBox="0 0 32 32" fill="none" xmlns="http://www.w3.org/2000/svg">
<path d="M0 16C0 7.16344 7.16344 0 16 0C24.8366 0 32 7.16344 32 16C32 24.8366 24.8366 32 16 32C7.16344 32 0 24.8366 0 16Z" fill="#D0FAE5"/>
<g clip-path="url(#clip0_19881_21386)">
<mask id="mask0_19881_21386" style="mask-type:luminance" maskUnits="userSpaceOnUse" x="6" y="6" width="20" height="20">
<path d="M26 6H6V26H26V6Z" fill="white"/>
</mask>
<g mask="url(#mask0_19881_21386)">
<path d="M20.168 8.78308C21.4248 9.50879 22.4704 10.5502 23.2012 11.8042C23.9319 13.0582 24.3224 14.4812 24.3341 15.9325C24.3459 17.3838 23.9783 18.8131 23.268 20.0787C22.5576 21.3443 21.529 22.4024 20.284 23.1484C19.039 23.8942 17.6208 24.3021 16.1697 24.3315C14.7187 24.3609 13.2851 24.0107 12.0109 23.3158C10.7368 22.6209 9.6662 21.6052 8.9052 20.3693C8.14419 19.1335 7.71915 17.7203 7.67214 16.2698L7.66797 15.9998L7.67214 15.7298C7.71881 14.2906 8.1376 12.888 8.88767 11.6589C9.63775 10.4298 10.6935 9.41596 11.9521 8.71632C13.2106 8.01668 14.6289 7.65508 16.0688 7.66678C17.5087 7.67848 18.921 8.06308 20.168 8.78308ZM19.0905 13.7439C18.947 13.6004 18.7561 13.5142 18.5535 13.5015C18.351 13.4888 18.1508 13.5504 17.9905 13.6747L17.9121 13.7439L15.168 16.4873L14.0905 15.4106L14.0121 15.3414C13.8518 15.2171 13.6516 15.1556 13.4492 15.1684C13.2467 15.1811 13.0558 15.2673 12.9123 15.4108C12.7689 15.5542 12.6827 15.7451 12.6699 15.9476C12.6572 16.15 12.7187 16.3502 12.843 16.5106L12.9121 16.5889L14.5788 18.2556L14.6571 18.3247C14.8033 18.4382 14.983 18.4997 15.168 18.4997C15.353 18.4997 15.5327 18.4382 15.6788 18.3247L15.7571 18.2556L19.0905 14.9222L19.1597 14.8439C19.284 14.6836 19.3456 14.4833 19.3329 14.2809C19.3201 14.0783 19.2339 13.8874 19.0905 13.7439Z" fill="#28A138"/>
</g>
</g>
<defs>
<clipPath id="clip0_19881_21386">
<rect width="20" height="20" fill="white" transform="translate(6 6)"/>
</clipPath>
</defs>
</svg>
