<svg width="24" height="24" viewBox="0 0 24 24" fill="none" xmlns="http://www.w3.org/2000/svg">
<rect width="24" height="24" rx="12" fill="#0172CB"/>
<g clip-path="url(#clip0_6315_49696)">
<path d="M8.5 7.3335V16.6668C8.49997 16.7706 8.52764 16.8725 8.58014 16.9621C8.63264 17.0516 8.70808 17.1255 8.79868 17.1762C8.88928 17.2268 8.99175 17.2524 9.09552 17.2502C9.19929 17.248 9.3006 17.2182 9.389 17.1638L16.9723 12.4972C17.0573 12.445 17.1274 12.3719 17.1761 12.2849C17.2247 12.1979 17.2503 12.0999 17.2503 12.0002C17.2503 11.9005 17.2247 11.8025 17.1761 11.7154C17.1274 11.6284 17.0573 11.5554 16.9723 11.5032L9.389 6.8365C9.3006 6.78211 9.19929 6.75229 9.09552 6.75013C8.99175 6.74796 8.88928 6.77352 8.79868 6.82417C8.70808 6.87481 8.63264 6.94872 8.58014 7.03825C8.52764 7.12778 8.49997 7.22971 8.5 7.3335Z" fill="white"/>
</g>
<defs>
<clipPath id="clip0_6315_49696">
<rect width="14" height="14" fill="white" transform="translate(5 5)"/>
</clipPath>
</defs>
</svg>
