<svg width="16" height="17" viewBox="0 0 16 17" fill="none" xmlns="http://www.w3.org/2000/svg">
<path fill-rule="evenodd" clip-rule="evenodd" d="M8 16.833C12.4183 16.833 16 13.2513 16 8.83301C16 4.41473 12.4183 0.833008 8 0.833008C3.58172 0.833008 0 4.41473 0 8.83301C0 13.2513 3.58172 16.833 8 16.833ZM7.5547 6.00096C7.24784 5.79639 6.8533 5.77732 6.52814 5.95133C6.20298 6.12535 6 6.46421 6 6.83301V10.833C6 11.2018 6.20298 11.5407 6.52814 11.7147C6.8533 11.8887 7.24784 11.8696 7.5547 11.6651L10.5547 9.66506C10.8329 9.47959 11 9.16736 11 8.83301C11 8.49866 10.8329 8.18643 10.5547 8.00096L7.5547 6.00096Z" fill="#10B981"/>
</svg>
