<svg width="98" height="100" viewBox="0 0 98 100" fill="none" xmlns="http://www.w3.org/2000/svg">
<path d="M48.7351 99.9999C75.6506 99.9999 97.4699 78.3567 97.4699 51.6586C97.4699 24.9604 75.6506 3.31726 48.7351 3.31726C21.8196 3.31726 0.000244141 24.9604 0.000244141 51.6586C0.000244141 78.3567 21.8196 99.9999 48.7351 99.9999Z" fill="#D5DDEA"/>
<path d="M46.7233 7.70708C41.8585 7.92154 37.1551 8.91002 32.8242 10.5678C32.5557 10.8429 32.2912 11.1042 32.0394 11.353L32.0087 11.3833C26.9671 16.489 22.8619 23.8607 20.3847 32.6061H46.7233V7.70708Z" fill="white"/>
<path d="M24.1228 15.0697C17.5747 19.4349 12.2403 25.4937 8.77529 32.6061H16.4049C18.1626 26.0021 20.806 20.0416 24.1228 15.0697Z" fill="white"/>
<path d="M7.13266 36.4302C5.35611 41.1792 4.3833 46.3096 4.3833 51.6565C4.3833 57.0838 5.38561 62.2882 7.21342 67.0969H15.512C14.5041 62.2115 13.9666 57.0228 13.9666 51.6571C13.9666 46.3741 14.5033 41.258 15.502 36.4302H7.13266Z" fill="white"/>
<path d="M8.88036 70.921C12.3228 77.8906 17.5648 83.8363 23.9837 88.1502C20.7196 83.2656 18.1374 77.4126 16.4128 70.921H8.88036Z" fill="white"/>
<path d="M32.8082 92.739C37.1435 94.4005 41.8525 95.3912 46.7233 95.6059V70.921H20.392C22.8538 79.6229 26.9307 86.9141 32.0004 91.9227C32.2678 92.1868 32.538 92.459 32.8082 92.739Z" fill="white"/>
<path d="M50.5628 95.6136C55.457 95.4177 60.1908 94.4383 64.5498 92.7818C64.7873 92.5306 65.0297 92.2822 65.277 92.0376C70.2983 86.9527 74.3907 79.62 76.871 70.921H50.5628V95.6136Z" fill="white"/>
<path d="M73.1189 88.4173C79.7432 84.0832 85.1198 78.0356 88.618 70.921H80.8526C79.0871 77.512 76.4386 83.4588 73.1189 88.4173Z" fill="white"/>
<path d="M90.2765 67.0969C92.094 62.2882 93.0869 57.0838 93.0869 51.6565C93.0869 46.3096 92.1232 41.1792 90.3568 36.4302H81.7919C82.7881 41.2789 83.3194 46.4283 83.3194 51.7636C83.3194 57.0854 82.7748 62.2379 81.7619 67.0969H90.2765Z" fill="white"/>
<path d="M88.7226 32.6061C85.1969 25.336 79.7151 19.1666 72.9439 14.7817C76.3899 19.8042 79.1063 25.8606 80.894 32.6061H88.7226Z" fill="white"/>
<path d="M64.3323 10.4492C64.6211 10.7713 64.9148 11.0948 65.2158 11.4253C65.2359 11.4473 65.2564 11.4688 65.2775 11.4899C70.3686 16.5802 74.4557 23.8905 76.9153 32.6061H50.5628V7.69934C55.3758 7.89202 60.0336 8.84234 64.3323 10.4492Z" fill="white"/>
<path d="M77.8366 67.0969C78.8983 62.2902 79.4799 57.1353 79.4799 51.7636C79.4799 46.3743 78.9126 41.2235 77.8691 36.4302H50.5628V67.0969H77.8366Z" fill="white"/>
<path d="M46.7233 67.0969V36.4302H19.426C18.3792 41.2066 17.8061 46.325 17.8061 51.6571C17.8061 57.0793 18.3803 62.2695 19.4353 67.0969H46.7233Z" fill="white"/>
<path d="M76.6953 0C88.0049 0 97.1514 8.96109 97.1514 20.0414C97.1514 28.8813 84.1732 46.3797 78.8583 53.1611C77.7459 54.6142 75.521 54.6142 74.4086 53.1611C69.0937 46.3797 56.1155 28.8813 56.1155 20.0414C56.2391 8.96109 65.3856 0 76.6953 0Z" fill="url(#paint0_linear_20108_66058)"/>
<path d="M76.6333 28.5178C81.0508 28.5178 84.6318 24.781 84.6318 20.1715C84.6318 15.562 81.0508 11.8252 76.6333 11.8252C72.2158 11.8252 68.6348 15.562 68.6348 20.1715C68.6348 24.781 72.2158 28.5178 76.6333 28.5178Z" fill="white"/>
<defs>
<linearGradient id="paint0_linear_20108_66058" x1="56.0967" y1="27.1314" x2="97.1589" y2="27.1314" gradientUnits="userSpaceOnUse">
<stop stop-color="#B0BACC"/>
<stop offset="1" stop-color="#969EAE"/>
</linearGradient>
</defs>
</svg>
