<svg width="147" height="110" viewBox="0 0 147 110" fill="none" xmlns="http://www.w3.org/2000/svg">
<path d="M76.1735 109.589C106.25 109.589 130.634 85.2049 130.634 55.0207C130.634 24.8365 106.143 0.452896 76.1735 0.452896C46.0967 0.452896 21.7131 24.8365 21.7131 55.0207C21.7131 85.2049 46.0967 109.589 76.1735 109.589Z" fill="#EAEEF9"/>
<path d="M137.548 37.7317C139.98 37.7317 141.952 35.7599 141.952 33.3276C141.952 30.8952 139.98 28.9235 137.548 28.9235C135.115 28.9235 133.143 30.8952 133.143 33.3276C133.143 35.7599 135.115 37.7317 137.548 37.7317Z" fill="#EAEEF9"/>
<path d="M143.992 20.5449C145.653 20.5449 147 19.1983 147 17.5372C147 15.8761 145.653 14.5296 143.992 14.5296C142.331 14.5296 140.985 15.8761 140.985 17.5372C140.985 19.1983 142.331 20.5449 143.992 20.5449Z" fill="#EAEEF9"/>
<path d="M24.1836 19.2508C25.8447 19.2508 27.1913 17.9042 27.1913 16.2431C27.1913 14.5821 25.8447 13.2355 24.1836 13.2355C22.5225 13.2355 21.1759 14.5821 21.1759 16.2431C21.1759 17.9042 22.5225 19.2508 24.1836 19.2508Z" fill="#F1F3F9"/>
<path d="M5.81542 77.2562C8.9003 77.2562 11.4011 74.7554 11.4011 71.6705C11.4011 68.5856 8.9003 66.0848 5.81542 66.0848C2.73053 66.0848 0.229736 68.5856 0.229736 71.6705C0.229736 74.7554 2.73053 77.2562 5.81542 77.2562Z" fill="#EAEEF9"/>
<path d="M134.619 18.495V91.5982C134.619 94.7989 132.026 97.4234 128.826 97.4234H23.7478C20.5471 97.4234 17.9225 94.8309 17.9225 91.5982V18.495C17.9225 15.2944 20.5151 12.7018 23.7478 12.7018H128.826C132.026 12.7018 134.619 15.2944 134.619 18.495Z" fill="url(#paint0_linear_1959_54335)"/>
<path d="M135.119 91.5982V18.495C135.119 15.0182 132.302 12.2018 128.826 12.2018H23.7478C20.2407 12.2018 17.4225 15.0164 17.4225 18.495V91.5982C17.4225 95.1088 20.2727 97.9234 23.7478 97.9234H128.826C132.306 97.9234 135.119 95.0714 135.119 91.5982Z" stroke="#787878" stroke-opacity="0.1"/>
<path d="M134.619 18.495V24.5443H17.9225V18.495C17.9225 15.2944 20.5151 12.7018 23.7478 12.7018H128.826C132.026 12.7018 134.619 15.2944 134.619 18.495Z" fill="#D5DDEA"/>
<path d="M24.2281 20.1913C25.1119 20.1913 25.8284 19.4748 25.8284 18.5909C25.8284 17.7071 25.1119 16.9906 24.2281 16.9906C23.3442 16.9906 22.6277 17.7071 22.6277 18.5909C22.6277 19.4748 23.3442 20.1913 24.2281 20.1913Z" fill="#989FB0"/>
<path d="M29.0289 20.1913C29.9128 20.1913 30.6293 19.4748 30.6293 18.5909C30.6293 17.7071 29.9128 16.9906 29.0289 16.9906C28.1451 16.9906 27.4286 17.7071 27.4286 18.5909C27.4286 19.4748 28.1451 20.1913 29.0289 20.1913Z" fill="#989FB0"/>
<path d="M33.798 20.1913C34.6819 20.1913 35.3984 19.4748 35.3984 18.5909C35.3984 17.7071 34.6819 16.9906 33.798 16.9906C32.9142 16.9906 32.1977 17.7071 32.1977 18.5909C32.1977 19.4748 32.9142 20.1913 33.798 20.1913Z" fill="#989FB0"/>
<path d="M59.7554 33.9543H28.1968V65.1552H59.7554V33.9543Z" fill="#D5DDEA"/>
<path d="M102.984 33.7972H124.76" stroke="#D6DCE8" stroke-width="4" stroke-miterlimit="10" stroke-linecap="round" stroke-linejoin="round"/>
<path d="M68.9597 33.7972H93.4575" stroke="#D6DCE8" stroke-width="4" stroke-miterlimit="10" stroke-linecap="round" stroke-linejoin="round"/>
<path d="M68.9597 44.0046H124.76" stroke="#D6DCE8" stroke-width="4" stroke-miterlimit="10" stroke-linecap="round" stroke-linejoin="round"/>
<path d="M91.4159 54.2121H124.76" stroke="#D6DCE8" stroke-width="4" stroke-miterlimit="10" stroke-linecap="round" stroke-linejoin="round"/>
<path d="M68.9597 54.2121H83.2501" stroke="#D6DCE8" stroke-width="4" stroke-miterlimit="10" stroke-linecap="round" stroke-linejoin="round"/>
<path d="M68.9597 64.4195H99.582" stroke="#D6DCE8" stroke-width="4" stroke-miterlimit="10" stroke-linecap="round" stroke-linejoin="round"/>
<path d="M93.4576 74.6269H124.76" stroke="#D6DCE8" stroke-width="4" stroke-miterlimit="10" stroke-linecap="round" stroke-linejoin="round"/>
<path d="M28.1301 74.6269H83.9306" stroke="#D6DCE8" stroke-width="4" stroke-miterlimit="10" stroke-linecap="round" stroke-linejoin="round"/>
<path d="M59.4327 84.8343H100.262" stroke="#D6DCE8" stroke-width="4" stroke-miterlimit="10" stroke-linecap="round" stroke-linejoin="round"/>
<path d="M28.1301 84.8343H49.9059" stroke="#D6DCE8" stroke-width="4" stroke-miterlimit="10" stroke-linecap="round" stroke-linejoin="round"/>
<defs>
<linearGradient id="paint0_linear_1959_54335" x1="76.2326" y1="10.7421" x2="76.2326" y2="98.3368" gradientUnits="userSpaceOnUse">
<stop stop-color="#FDFEFF"/>
<stop offset="0.9964" stop-color="#ECF0F5"/>
</linearGradient>
</defs>
</svg>
