<svg width="175" height="79" viewBox="0 0 175 79" fill="none" xmlns="http://www.w3.org/2000/svg">
<path d="M0 77.4819H163.481" stroke="#D6DCE8" stroke-width="2" stroke-miterlimit="10" stroke-linejoin="round"/>
<path d="M168.177 77.4819H175" stroke="#D6DCE8" stroke-width="2" stroke-miterlimit="10" stroke-linejoin="round"/>
<path d="M136.301 0H29.8814C27.6928 0 25.7778 1.91563 25.7778 4.10492V72.7939C25.7778 74.9832 27.6928 74.1622 29.8814 74.1622H136.028C138.216 74.1622 140.131 74.9832 140.131 72.7939V4.10492C140.405 1.91563 138.49 0 136.301 0Z" fill="#D5DDEA"/>
<path d="M132.725 3.99182H33.6876C31.6508 3.99182 29.8687 5.70677 29.8687 7.66671V69.1599C29.8687 71.1198 31.6508 70.3848 33.6876 70.3848H132.47C134.507 70.3848 136.289 71.1198 136.289 69.1599V7.66671C136.544 5.70677 134.762 3.99182 132.725 3.99182Z" fill="white"/>
<path d="M156.272 70.3309V72.5202C156.272 74.9832 154.084 77.1725 151.622 77.1725H14.5614C12.0992 77.1725 9.91064 74.9832 9.91064 72.5202V70.3309H156.272Z" fill="#D5DDEA"/>
<path d="M95.8126 70.3309V71.1519C95.8126 72.5202 94.7183 73.8885 93.0768 73.8885H72.8324C71.4645 73.8885 70.0967 72.7939 70.0967 71.1519V70.3309H95.8126Z" fill="#E9EFF8"/>
<path d="M116.65 61.5327H49.7553C48.2267 61.5327 47.062 60.2932 47.062 58.8349V15.4972C47.062 13.966 48.2995 12.7994 49.7553 12.7994H116.65C118.179 12.7994 119.343 14.0389 119.343 15.4972V58.8349C119.343 60.2932 118.106 61.5327 116.65 61.5327Z" fill="white" stroke="#D6DCE8" stroke-width="2" stroke-miterlimit="10" stroke-linejoin="round"/>
<path d="M47.062 20.5564H119.343" stroke="#D6DCE8" stroke-width="2" stroke-miterlimit="10" stroke-linejoin="round"/>
<path d="M47.062 34.191H119.343" stroke="#D6DCE8" stroke-width="2" stroke-miterlimit="10" stroke-linejoin="round"/>
<path d="M47.062 47.8253H119.343" stroke="#D6DCE8" stroke-width="2" stroke-miterlimit="10" stroke-linejoin="round"/>
<path d="M91.0278 20.5564V61.5326" stroke="#D6DCE8" stroke-width="2" stroke-miterlimit="10" stroke-linejoin="round"/>
<path d="M105.513 20.5564V61.5326" stroke="#D6DCE8" stroke-width="2" stroke-miterlimit="10" stroke-linejoin="round"/>
<path d="M76.3237 20.5564V61.5326" stroke="#D6DCE8" stroke-width="2" stroke-miterlimit="10" stroke-linejoin="round"/>
<path d="M61.6201 20.5564V61.5326" stroke="#D6DCE8" stroke-width="2" stroke-miterlimit="10" stroke-linejoin="round"/>
</svg>
