<svg width="49" height="48" viewBox="0 0 49 48" fill="none" xmlns="http://www.w3.org/2000/svg">
<rect x="0.333496" width="48" height="48" rx="11" fill="#1AD0A4"/>
<path d="M20.4794 16.719H28.1874C28.1874 16.719 32.2431 12.8189 30.9989 11.8055C29.7539 10.7922 28.517 12.2864 27.4277 11.9324C26.3384 11.5784 27.2684 8.86792 24.3337 8.86792C21.3991 8.86792 22.3284 11.5784 21.2398 11.9324C20.1511 12.2864 18.9136 10.7929 17.6686 11.8055C16.4229 12.8189 20.4794 16.719 20.4794 16.719Z" fill="white"/>
<path d="M36.0222 34.403C33.8819 32.0406 32.7808 30.806 33.1141 25.908C33.4556 20.8832 28.1881 18.1941 28.1881 18.1941H24.3337H20.4794C20.4794 18.1941 15.2111 20.8832 15.5533 25.908C15.886 30.806 14.7856 32.0406 12.6445 34.403C11.0898 36.1192 15.4228 39.1321 24.3337 39.1321C33.2447 39.1321 37.5777 36.1192 36.0222 34.403ZM24.982 32.4832V33.7982H23.5711V32.5731C22.6064 32.5348 21.6705 32.3025 21.1232 32.0193L21.5554 30.511C22.1602 30.8075 23.0106 31.0789 23.9451 31.0789C24.7659 31.0789 25.3279 30.7949 25.3279 30.2794C25.3279 29.7897 24.867 29.4799 23.802 29.1576C22.2605 28.6937 21.2095 28.0498 21.2095 26.7982C21.2095 25.6639 22.1027 24.7744 23.6427 24.5037V23.2787H25.0543V24.4138C26.019 24.4521 26.6673 24.6328 27.1415 24.8393L26.7248 26.296C26.3502 26.1543 25.6886 25.8579 24.6509 25.8579C23.7142 25.8579 23.4125 26.2185 23.4125 26.5799C23.4125 27.0055 23.9163 27.2761 25.1406 27.6884C26.8539 28.229 27.545 28.9386 27.545 30.0987C27.545 31.2463 26.6371 32.2258 24.982 32.4832Z" fill="white"/>
</svg>
