<svg width="14" height="10" viewBox="0 0 14 10" fill="none" xmlns="http://www.w3.org/2000/svg">
<path d="M0.5 8.25001C0.358333 8.25001 0.239583 8.20209 0.14375 8.10626C0.0479167 8.01043 0 7.89168 0 7.75001V2.25001C0 2.10834 0.0479167 1.98959 0.14375 1.89376C0.239583 1.79793 0.358333 1.75001 0.5 1.75001H1.83333C1.975 1.75001 2.09375 1.79793 2.18958 1.89376C2.28542 1.98959 2.33333 2.10834 2.33333 2.25001V7.75001C2.33333 7.89168 2.28542 8.01043 2.18958 8.10626C2.09375 8.20209 1.975 8.25001 1.83333 8.25001H0.5ZM3.83333 9.66668C3.69167 9.66668 3.57292 9.61876 3.47708 9.52293C3.38125 9.42709 3.33333 9.30834 3.33333 9.16668V0.833343C3.33333 0.691677 3.38125 0.572927 3.47708 0.477094C3.57292 0.38126 3.69167 0.333344 3.83333 0.333344H9.5C9.64167 0.333344 9.76042 0.38126 9.85625 0.477094C9.95208 0.572927 10 0.691677 10 0.833343V9.16668C10 9.30834 9.95208 9.42709 9.85625 9.52293C9.76042 9.61876 9.64167 9.66668 9.5 9.66668H3.83333ZM11.5 8.25001C11.3583 8.25001 11.2396 8.20209 11.1437 8.10626C11.0479 8.01043 11 7.89168 11 7.75001V2.25001C11 2.10834 11.0479 1.98959 11.1437 1.89376C11.2396 1.79793 11.3583 1.75001 11.5 1.75001H12.8333C12.975 1.75001 13.0937 1.79793 13.1896 1.89376C13.2854 1.98959 13.3333 2.10834 13.3333 2.25001V7.75001C13.3333 7.89168 13.2854 8.01043 13.1896 8.10626C13.0937 8.20209 12.975 8.25001 12.8333 8.25001H11.5Z" stroke="#0277BD" fill="none"/>
</svg>
