<svg width="57" height="58" viewBox="0 0 57 58" fill="none" xmlns="http://www.w3.org/2000/svg">
<g clip-path="url(#clip0_340_22774)">
<path d="M30.1333 9.9083L16.1333 2.6583C15.9 2.41663 15.4333 2.41663 15.2 2.6583L1.2 9.9083C0.733333 9.9083 0.5 10.3916 0.5 10.875V30.2083C0.5 30.6916 0.733333 31.175 1.2 31.175L8.2 34.8L9.13333 32.625L2.83333 29.4833V12.8083L14.5 18.85V24.1666H16.8333V18.85L28.5 12.8083V19.3333H30.8333V10.875C30.8333 10.3916 30.6 9.9083 30.1333 9.9083ZM15.6667 16.675L4.23333 10.875L15.6667 5.07497L27.1 10.875L15.6667 16.675Z" fill="#1F64E7"/>
<path d="M15.6665 45.9166C15.4332 45.9166 15.4332 45.9166 15.1998 45.6749L14.0332 45.1916C12.8665 44.7083 12.1665 43.4999 12.1665 42.2916C12.1665 41.5666 12.6332 41.0833 13.3332 41.0833C14.0332 41.0833 14.4998 41.5666 14.4998 42.2916C14.4998 42.5333 14.7332 42.7749 15.1998 43.0166L16.1332 43.4999C16.5998 43.7416 17.0665 44.4666 16.5998 45.1916C16.5998 45.6749 16.1332 45.9166 15.6665 45.9166Z" fill="#1F64E7"/>
<path d="M35.5 44.7084V46.4001L23.8333 52.4417V35.7667L27.8 33.5917L26.8667 31.4167L22.6667 33.5917L11.2333 27.7917L22.6667 21.9917L26.8667 24.1667L27.8 21.9917L23.1333 19.575C22.9 19.3334 22.4333 19.3334 22.2 19.575L8.2 26.825C7.73333 26.825 7.5 27.3084 7.5 27.7917V47.125C7.5 47.6084 7.73333 48.0917 8.2 48.0917L22.2 55.3417C22.2 55.5834 22.4333 55.5834 22.6667 55.5834C22.9 55.5834 23.1333 55.5834 23.1333 55.3417L37.1333 48.0917C37.6 47.85 37.8333 47.3667 37.8333 47.125V44.7084H35.5ZM9.83333 29.725L21.5 35.7667V52.4417L9.83333 46.4001V29.725Z" fill="#8BAFF3"/>
<path d="M55.7998 19.5751L41.7998 12.325C41.5665 12.0834 41.0998 12.0834 40.8665 12.325L26.8665 19.5751C26.3998 19.5751 26.1665 20.0584 26.1665 20.5417V39.8751C26.1665 40.3584 26.3998 40.8417 26.8665 40.8417L40.8665 48.0917C41.0998 48.0917 41.0998 48.3334 41.3332 48.3334C41.5665 48.3334 41.7998 48.3334 41.7998 48.0917L55.7998 40.8417C56.2665 40.6 56.4998 40.1167 56.4998 39.8751V20.5417C56.4998 20.0584 56.2665 19.5751 55.7998 19.5751ZM41.3332 14.7417L52.7665 20.5417L41.3332 26.3417L29.8998 20.5417L41.3332 14.7417ZM28.4998 22.475L40.1665 28.5167V45.1917L28.4998 39.1501V22.475ZM42.4998 45.1917V28.5167L54.1665 22.475V39.1501L42.4998 45.1917Z" fill="#1F64E7"/>
<path d="M13.3332 38.6667C13.9775 38.6667 14.4998 38.1257 14.4998 37.4583C14.4998 36.791 13.9775 36.25 13.3332 36.25C12.6888 36.25 12.1665 36.791 12.1665 37.4583C12.1665 38.1257 12.6888 38.6667 13.3332 38.6667Z" fill="#1F64E7"/>
</g>
<defs>
<clipPath id="clip0_340_22774">
<rect width="56" height="58" fill="white" transform="translate(0.5)"/>
</clipPath>
</defs>
</svg>
