<svg width="17" height="16" viewBox="0 0 17 16" fill="none" xmlns="http://www.w3.org/2000/svg">
<path d="M6.42833 6.00016C6.58506 5.55461 6.89443 5.1789 7.30163 4.93958C7.70883 4.70027 8.18759 4.61279 8.65311 4.69264C9.11863 4.77249 9.54087 5.01451 9.84505 5.37585C10.1492 5.73718 10.3157 6.19451 10.315 6.66683C10.315 8.00016 8.31499 8.66683 8.31499 8.66683M8.36833 11.3335H8.37499M15.035 8.00016C15.035 11.6821 12.0502 14.6668 8.36833 14.6668C4.68643 14.6668 1.70166 11.6821 1.70166 8.00016C1.70166 4.31826 4.68643 1.3335 8.36833 1.3335C12.0502 1.3335 15.035 4.31826 15.035 8.00016Z" stroke="#4F5E71" stroke-width="1.33333" stroke-linecap="round" stroke-linejoin="round"/>
</svg>
