<svg width="20" height="21" viewBox="0 0 20 21" fill="none" xmlns="http://www.w3.org/2000/svg">
<path d="M19 10.5C19 11.6819 18.7672 12.8522 18.3149 13.9442C17.8626 15.0361 17.1997 16.0282 16.364 16.864C15.5282 17.6997 14.5361 18.3626 13.4442 18.8149C12.3522 19.2672 11.1819 19.5 10 19.5C8.8181 19.5 7.64778 19.2672 6.55585 18.8149C5.46392 18.3626 4.47177 17.6997 3.63604 16.864C2.80031 16.0282 2.13738 15.0361 1.68508 13.9442C1.23279 12.8522 1 11.6819 1 10.5C1 8.11305 1.94821 5.82387 3.63604 4.13604C5.32387 2.44821 7.61305 1.5 10 1.5C12.3869 1.5 14.6761 2.44821 16.364 4.13604C18.0518 5.82387 19 8.11305 19 10.5Z" fill="#E8EDF1"/>
<path d="M13.9937 10.1708C14.0524 10.2033 14.1014 10.251 14.1355 10.3089C14.1696 10.3668 14.1876 10.4327 14.1876 10.4999C14.1876 10.5671 14.1696 10.633 14.1355 10.6909C14.1014 10.7488 14.0524 10.7965 13.9937 10.829L8.37141 13.9527C8.31412 13.9845 8.24952 14.0008 8.184 14C8.11848 13.9991 8.05431 13.9812 7.99785 13.948C7.94139 13.9147 7.89458 13.8673 7.86208 13.8104C7.82957 13.7535 7.81248 13.6891 7.8125 13.6236V7.3762C7.8125 7.08922 8.12055 6.9086 8.37141 7.04808L13.9937 10.1708Z" fill="#4F5E71" stroke="#4F5E71" stroke-linecap="round" stroke-linejoin="round"/>
</svg>
