<svg width="12" height="16" viewBox="0 0 12 16" fill="none" xmlns="http://www.w3.org/2000/svg">
<path fill-rule="evenodd" clip-rule="evenodd" d="M5.34031 0.71582C4.84201 0.717255 4.36453 0.915826 4.01216 1.26816C3.65979 1.6205 3.46117 2.09796 3.45969 2.59626V8.82862C3.46116 9.32696 3.65976 9.80447 4.01212 10.1569C4.36448 10.5093 4.84197 10.7079 5.34031 10.7095H6.65956C7.15794 10.708 7.63548 10.5094 7.98787 10.157C8.34027 9.80454 8.53888 9.32699 8.54033 8.82862V2.5963C8.53887 2.09797 8.34024 1.62047 7.98784 1.26811C7.63543 0.915763 7.1579 0.717205 6.65956 0.71582H5.34031ZM5.36614 13.7343C3.92007 13.5739 2.58361 12.8869 1.61158 11.8043C0.63956 10.7217 0.0999714 9.31919 0.0957031 7.86426C0.0971406 7.6971 0.164551 7.53728 0.28326 7.41959C0.401968 7.3019 0.562362 7.23586 0.729523 7.23586C0.896685 7.23586 1.05708 7.3019 1.17579 7.41959C1.2945 7.53728 1.36191 7.6971 1.36334 7.86426C1.36725 9.09141 1.85747 10.267 2.72658 11.1333C3.59569 11.9997 4.7728 12.4862 5.99996 12.4862C7.22712 12.4862 8.40423 11.9997 9.27334 11.1333C10.1425 10.267 10.6327 9.09141 10.6366 7.86426C10.6366 7.69613 10.7034 7.53488 10.8223 7.416C10.9411 7.29711 11.1024 7.23032 11.2705 7.23032C11.4386 7.23032 11.5999 7.29711 11.7188 7.416C11.8377 7.53488 11.9045 7.69613 11.9045 7.86426C11.9002 9.31925 11.3606 10.7218 10.3885 11.8044C9.41641 12.887 8.07987 13.574 6.63373 13.7343V15.9502H5.36614V13.7343V13.7343Z" fill="white"/>
</svg>
