<svg width="114" height="120" viewBox="0 0 114 120" fill="none" xmlns="http://www.w3.org/2000/svg">
<path d="M106.387 40.9938C104.609 41.2693 103.858 40.6933 102.831 38.4142C102.33 38.84 101.854 39.2407 101.228 39.7917C100.878 39.0153 100.602 38.3641 100.302 37.713C100.026 37.0618 99.7256 36.9366 99.0995 37.4375C98.6738 37.7881 97.8723 38.1638 97.5217 37.9634C97.121 37.7631 96.9206 36.9616 96.8706 36.3856C96.7954 35.5842 96.8706 35.2336 95.6935 35.2085C94.4162 35.1835 93.1389 34.2819 91.7114 33.7058C91.486 35.1334 91.2606 36.5359 91.0101 37.9634C90.384 38.1137 89.7579 38.2389 89.1318 38.4142C87.1533 38.9402 85.9511 38.5645 84.749 36.8615C83.9476 35.7345 83.2964 34.4822 82.3948 32.9545C84.0477 32.5288 85.4753 32.078 86.9529 31.8275C88.3053 31.6021 90.91 29.5735 91.2606 28.2461C91.2856 28.1209 91.3107 27.9957 91.3107 27.8955C91.0602 26.5682 90.8098 25.2658 90.5343 23.7882C90.3089 23.7882 89.833 23.8633 89.4073 23.7632C88.6059 23.6129 87.9046 23.3374 87.554 22.4358C87.4037 22.0601 86.9028 21.6594 86.5021 21.5592C84.4735 21.0834 84.0227 20.6827 83.8474 18.7042C83.7973 17.9528 83.8223 17.2015 83.8474 16.4501C83.8474 16.2247 83.8724 16.0244 83.8724 15.6988C79.1891 12.9439 74.055 10.8652 68.5953 9.58794C68.1194 10.8903 67.2929 11.6165 65.7903 11.8169C64.9888 11.9171 64.2125 12.7686 63.5863 13.4198C62.3842 14.7221 61.3323 16.1246 60.2053 17.5271C58.5023 16.8258 57.8762 15.4233 57.2751 13.8956C56.5238 11.9922 56.7492 10.2141 57.6758 8.48598C57.751 8.36076 57.8762 8.26058 58.0265 8.1604C57.4003 8.23553 56.7241 8.23553 56.0479 8.23553H55.8726C55.9728 8.31067 56.0479 8.3858 56.098 8.48598C56.2483 8.71138 56.1481 9.31245 55.9478 9.51281C54.971 10.3894 53.9191 11.1657 52.8923 11.9922C51.4648 10.2641 50.4129 9.98865 48.1589 10.6398C47.658 10.7901 46.8065 10.8903 46.556 10.6148C45.6544 9.66307 45.0033 10.2641 44.302 10.74C43.4505 11.316 42.6741 11.9672 41.7725 12.4681C40.4201 13.2194 40.2949 15.7739 40.921 16.7507C41.0963 17.0262 41.7224 17.2516 42.048 17.1514C43.4756 16.8008 44.7528 16.1246 45.5292 14.8223C45.8548 14.2713 46.1553 14.3214 46.7814 14.3715C47.5328 14.4215 48.4344 14.096 49.0605 13.6452C50.438 12.6183 50.6383 12.5432 51.8404 13.7453C52.0658 13.9707 52.2912 14.2713 52.5667 14.4466C53.4683 14.9475 53.4433 15.5986 52.9674 16.375C52.6419 16.901 52.4165 17.477 52.0909 18.1532C52.6168 18.2784 53.0676 18.3786 53.5685 18.4788C53.4934 19.0548 53.4683 19.6308 53.3181 20.1567C52.7921 22.0351 51.4898 23.5628 49.4111 21.8598C48.7099 21.2837 47.8083 21.4591 47.3825 22.2605C46.7314 23.5378 45.5543 23.6379 44.4523 23.5878C41.9478 23.4626 39.6688 24.1889 37.4899 25.3159C37.2395 25.4411 36.9139 25.6665 36.7135 25.6165C35.1858 25.1156 34.2592 26.2676 33.1322 26.8687C32.0302 27.4698 30.9032 28.0458 29.7512 28.5467C29.0249 28.8722 28.5991 29.1978 28.549 30.1495C28.4238 31.8275 27.998 33.4804 27.6725 35.2586C26.295 34.6575 26.0446 33.5055 25.8943 32.5538C25.5186 30.1495 24.3916 29.7488 22.6635 29.4232C19.4829 28.8222 15.3505 30.7756 14.0232 33.6057C13.4972 34.7327 13.4972 36.2103 13.6225 37.4876C13.7226 38.6146 15.1001 39.1906 16.4024 38.7649C17.1788 38.5144 17.9802 38.4894 18.1555 39.2908C18.2557 39.8167 17.7298 40.4929 17.3791 41.069C17.2289 41.3194 16.8532 41.4446 16.6028 41.645C15.8013 42.2961 15.7512 42.9723 16.6028 43.5734C17.2038 43.9992 17.2539 44.3498 17.0786 45.0761C16.3273 48.1315 17.8049 50.5107 20.8603 51.3122C22.0374 51.6127 22.8639 51.0617 23.6152 50.1852C24.1161 49.5841 24.4918 48.7075 25.5186 48.8829C25.7941 48.9329 26.0946 48.983 26.32 49.1083C27.7726 49.8345 29.1751 50.6861 30.6528 51.3372C32.0052 51.9383 33.3325 52.4141 34.2592 53.7165C34.6348 54.2424 35.3862 54.5429 36.0123 54.7683C38.6921 55.7952 40.7207 57.5733 42.1732 60.0026C43.1249 61.6055 44.0015 63.2584 44.8781 64.9114C45.3289 65.7378 45.8798 66.2387 46.8566 66.4641C48.9353 66.9149 50.9138 67.7664 52.4916 69.2691C54.0193 70.7217 54.2197 72.1492 53.0927 73.9524C52.6419 74.7038 51.8905 75.2548 51.3896 75.9811C50.7886 76.8827 50.1124 77.8093 49.8118 78.8361C49.0855 81.1903 47.8333 83.244 46.2305 85.0472C45.5292 85.8486 44.3271 86.4497 43.2752 86.65C41.447 86.9756 40.4452 88.1527 39.5185 89.5051C38.7421 90.6572 37.8155 91.7341 37.2144 92.9613C36.2627 94.8647 34.4094 95.6661 32.8316 96.768C30.4274 98.421 28.6993 100.625 27.9229 103.355C27.5723 104.582 28.1984 106.085 28.3737 107.437C28.4989 108.389 28.6742 109.34 28.8245 110.367C25.9694 109.265 24.1662 107.212 22.8138 104.782C22.2879 103.831 22.2378 102.603 21.9873 101.501C21.812 100.7 21.812 99.8485 21.5115 99.1222C20.685 97.1437 20.9856 95.1401 21.2861 93.1616C21.4614 92.0096 21.4864 90.9327 21.3612 89.7305C21.1609 88.0275 21.6367 86.2493 21.8371 84.4962C21.9372 83.6447 22.1376 82.7932 22.2127 81.9417C22.2879 81.1402 21.9873 80.5141 21.5616 79.7878C21.0857 78.9363 21.0356 77.7592 21.0857 76.7324C21.1358 76.0812 21.1859 75.7557 20.5848 75.3299C18.3559 73.7771 16.3273 71.7235 15.4507 69.3192C14.3738 66.3139 13.4722 62.9328 15.8514 59.8273C16.9534 58.3747 18.0303 56.822 18.6564 55.1189C19.5079 52.8148 18.9569 51.763 17.304 50.7862C16.2521 50.1852 15.5759 49.2836 15.4758 48.0564C15.3756 46.8042 14.7996 45.9025 13.8729 45.1262C13.3219 44.6754 12.9963 44.2246 13.372 43.4231C13.6976 42.6718 13.3971 42.1208 12.5455 41.7201C10.8676 40.9437 9.06435 40.1423 8.66363 38.1137C8.46328 37.137 8.46328 35.8847 8.93912 35.0583C11.1931 31.0261 14.0482 27.3946 17.304 24.1388C18.3308 23.112 19.4077 22.1102 20.5097 21.1585C8.5885 31.3016 1 46.4034 1 63.2835C1 93.6876 25.6438 118.331 56.0479 118.331C68.0693 118.331 79.1891 114.475 88.2302 107.938L88.3053 107.287C88.6309 106.51 88.9314 105.734 89.257 104.958C89.8831 103.58 90.4842 102.178 91.1604 100.85C91.7865 99.6482 91.6112 98.421 91.2355 97.294C90.2838 94.3137 91.486 92.0096 93.3393 89.9058C93.4144 89.8307 93.4895 89.7556 93.5396 89.6554C94.5164 88.5534 95.5933 87.5266 95.5933 85.9488C95.5933 84.6966 95.5182 83.3191 95.0423 82.1921C94.9171 81.8916 94.8169 81.591 94.7167 81.2905C94.2409 79.5123 94.5915 77.8594 95.3679 76.2065C95.3929 76.1313 95.443 76.0562 95.4681 75.9811C95.969 74.804 96.1192 73.6018 95.969 72.3997C95.9439 72.1242 95.8938 71.8487 95.8187 71.5732C95.7436 71.2977 95.2927 70.8469 95.2677 70.8469C93.8151 71.7736 92.8133 70.2709 91.5611 70.1958C89.9082 70.0956 88.2302 69.8201 86.6273 70.0455C84.9243 70.2959 83.3715 69.9704 82.1193 69.0437C79.8152 67.3407 77.6614 65.3872 75.5076 63.4838C75.1068 63.1332 74.9065 62.4069 74.8313 61.8559C74.5809 59.2263 75.2571 56.7218 75.9333 54.2173C76.3591 52.6646 76.6095 51.187 76.3841 49.509C76.1838 47.856 77.4861 46.6539 78.7633 45.7022C79.2392 45.3516 79.8904 45.2013 80.4163 44.9008C80.9673 44.5752 81.6685 44.2997 81.9941 43.7988C83.9726 40.7935 87.0531 40.3927 90.1837 40.4428C92.638 40.4929 95.1675 40.6181 97.4967 41.2693C99.1496 41.7201 100.627 42.9723 102.03 44.0493C103.232 44.9509 104.384 45.6271 105.962 45.4517C106.688 45.3766 107.439 45.5519 108.166 45.6521C107.665 44.0493 107.064 42.4965 106.387 40.9938ZM23.2396 39.2157C23.5902 37.7881 24.8675 37.137 25.7941 37.8382C26.9962 38.7398 28.2986 39.1155 29.7762 39.1656C30.1268 39.1906 30.4524 39.416 30.803 39.5663C30.7529 39.7416 30.7279 39.8919 30.6778 40.0672C28.1984 39.7666 25.744 39.4911 23.2396 39.2157ZM33.7583 43.6986C32.1805 43.5484 30.7028 43.3981 29.1 43.2478C30.6778 42.0206 32.2306 41.2693 34.0588 42.9723C33.9586 43.2228 33.8334 43.5233 33.7583 43.6986ZM69.2214 15.824C69.021 16.3249 68.7706 17.1514 68.4199 17.2265C67.7938 17.3518 67.0675 17.0763 66.4414 16.8008C65.8153 16.5503 65.2894 16.0995 64.7133 15.7239C64.7634 15.5736 64.8386 15.3983 64.8887 15.248C65.9405 14.8473 66.9924 14.3715 68.0693 14.096C68.47 13.9958 69.0961 14.2963 69.4468 14.6219C69.597 14.8223 69.3716 15.4484 69.2214 15.824ZM80.7669 25.1657C80.5415 24.7399 80.3662 24.3392 80.1408 23.9134C81.1676 23.4626 81.6184 22.7614 81.3179 21.6344C81.2928 21.5342 82.1193 21.0583 82.1945 21.1335C83.7472 22.5861 85.7508 23.5378 86.5522 25.8168C86.9529 26.9438 86.427 27.2944 85.8509 27.7452C84.5987 28.6969 83.1962 28.171 82.8706 26.6683C82.7204 26.0422 82.6452 25.3911 82.52 24.5646C81.8689 24.7649 81.3429 24.9403 80.7669 25.1657Z" fill="#D5DDEA"/>
<path fill-rule="evenodd" clip-rule="evenodd" d="M56.8669 6.7355L56.8726 6.73547L57.0609 6.73548C57.728 6.73548 58.4268 6.73548 59.1301 6.76149C62.8582 6.89016 66.4863 7.37883 69.9879 8.20266C94.9941 14.0683 113.596 36.5001 113.596 63.2834C113.596 94.5159 88.2805 119.831 57.0479 119.831C25.8154 119.831 0.5 94.5159 0.5 63.2834C0.5 45.7226 8.49359 30.0355 21.0588 19.6691C21.0796 19.6511 21.1006 19.6339 21.1216 19.6175C21.1599 19.5875 21.1967 19.5617 21.2307 19.5394C30.9207 11.5736 43.3463 6.78681 56.8669 6.7355ZM21.4008 19.442C21.4038 19.4404 21.4048 19.44 21.4024 19.4412C21.4022 19.4413 21.4016 19.4416 21.4008 19.442ZM57.0479 9.73548H56.8755C44.0453 9.78484 32.2664 14.3329 23.0875 21.8965C23.0668 21.9145 23.0458 21.9317 23.0249 21.9481C22.9868 21.9778 22.9504 22.0035 22.9167 22.0256C11.0435 31.8458 3.5 46.678 3.5 63.2834C3.5 92.8591 27.4723 116.831 57.0479 116.831C86.6236 116.831 110.596 92.8591 110.596 63.2834C110.596 37.924 92.9832 16.6781 69.3028 11.1234L69.3018 11.1231C65.9922 10.3444 62.5587 9.88149 59.0249 9.75964L59.021 9.7595C58.3772 9.73566 57.7288 9.73548 57.0479 9.73548Z" fill="#D5DDEA"/>
<path d="M83.1679 0C88.5436 0 92.8912 4.43897 92.8912 9.92771C92.8912 14.3067 86.7224 22.9747 84.1961 26.3339C83.6673 27.0537 82.6098 27.0537 82.0811 26.3339C79.5548 22.9747 73.386 14.3067 73.386 9.92771C73.4447 4.43897 77.7923 0 83.1679 0Z" fill="#989FB0"/>
<path d="M82.9215 13.8704C85.076 13.8704 86.8226 12.1238 86.8226 9.96933C86.8226 7.81485 85.076 6.0683 82.9215 6.0683C80.7671 6.0683 79.0205 7.81485 79.0205 9.96933C79.0205 12.1238 80.7671 13.8704 82.9215 13.8704Z" fill="white"/>
<path fill-rule="evenodd" clip-rule="evenodd" d="M77.6058 30.084C77.6335 31.2806 76.6858 32.273 75.4892 32.3007C75.3564 32.3037 75.2238 32.3074 75.0916 32.3116C73.8953 32.3496 72.8946 31.4106 72.8566 30.2142C72.8186 29.0179 73.7576 28.0173 74.954 27.9793C75.0987 27.9747 75.2438 27.9707 75.3891 27.9673C76.5858 27.9397 77.5782 28.8873 77.6058 30.084ZM80.7797 30.257C80.931 29.0696 82.0163 28.2299 83.2036 28.3812C83.2761 28.3905 83.3487 28.3999 83.4213 28.4095C84.608 28.5656 85.4435 29.6542 85.2873 30.8409C85.1312 32.0276 84.0426 32.863 82.8559 32.7069C82.789 32.6981 82.7221 32.6894 82.6554 32.6809C81.4681 32.5295 80.6283 31.4443 80.7797 30.257ZM69.702 30.5647C69.9305 31.7396 69.1632 32.8773 67.9883 33.1058C67.8577 33.1311 67.7276 33.1571 67.5977 33.1835C66.4249 33.4227 65.2803 32.6658 65.0412 31.493C64.8021 30.3201 65.559 29.1756 66.7318 28.9364C66.8745 28.9074 67.0175 28.8789 67.1609 28.851C68.3359 28.6225 69.4735 29.3898 69.702 30.5647ZM61.9923 32.3792C62.4189 33.4975 61.8581 34.7499 60.7397 35.1765C60.6157 35.2238 60.4921 35.2716 60.3689 35.3199C59.2544 35.7565 57.997 35.2071 57.5604 34.0926C57.1237 32.9782 57.6732 31.7208 58.7876 31.2841C58.9229 31.2311 59.0587 31.1786 59.195 31.1266C60.3133 30.7001 61.5657 31.2608 61.9923 32.3792ZM54.7075 35.4864C55.3166 36.5167 54.9753 37.8458 53.9449 38.455C53.8312 38.5223 53.7179 38.5899 53.6052 38.6579C52.5803 39.2761 51.2482 38.9464 50.6301 37.9214C50.0119 36.8965 50.3416 35.5645 51.3665 34.9463C51.4901 34.8718 51.6142 34.7976 51.7389 34.7239C52.7692 34.1147 54.0983 34.4561 54.7075 35.4864ZM48.0459 39.773C48.8177 40.6878 48.7018 42.0551 47.7869 42.8269C47.6854 42.9126 47.5846 42.9984 47.4843 43.0845C46.5763 43.8644 45.208 43.7605 44.4282 42.8525C43.6483 41.9445 43.7522 40.5762 44.6602 39.7964C44.7701 39.702 44.8807 39.6078 44.992 39.514C45.9068 38.7421 47.2741 38.8581 48.0459 39.773ZM42.1897 45.1078C43.1093 45.874 43.2337 47.2405 42.4676 48.1602C42.3836 48.2611 42.3004 48.3619 42.2181 48.4627C41.4612 49.3899 40.0959 49.5279 39.1687 48.7709C38.2415 48.014 38.1035 46.6487 38.8605 45.7215C38.9518 45.6096 39.0441 45.4977 39.1374 45.3858C39.9035 44.4662 41.2701 44.3417 42.1897 45.1078ZM37.3856 51.4092C38.4563 51.9443 38.8905 53.246 38.3554 54.3167C38.3274 54.3727 38.2998 54.4286 38.2725 54.4842C37.746 55.5592 36.4478 56.0037 35.3729 55.4773C34.298 54.9508 33.8534 53.6526 34.3799 52.5776C34.4122 52.5115 34.445 52.4453 34.4782 52.379C35.0132 51.3083 36.315 50.8741 37.3856 51.4092Z" fill="#AAB2C5"/>
<path d="M34.4201 9.10236C42.5433 9.10236 49.1129 15.546 49.1129 23.5135C49.1129 29.8701 39.7912 42.4527 35.9737 47.329C35.1747 48.3739 33.5767 48.3739 32.7777 47.329C28.9602 42.4527 19.6384 29.8701 19.6384 23.5135C19.7272 15.546 26.2968 9.10236 34.4201 9.10236Z" fill="url(#paint0_linear_567_19675)"/>
<path d="M34.3756 29.4745C37.4876 29.4745 40.0104 26.8547 40.0104 23.623C40.0104 20.3913 37.4876 17.7714 34.3756 17.7714C31.2635 17.7714 28.7407 20.3913 28.7407 23.623C28.7407 26.8547 31.2635 29.4745 34.3756 29.4745Z" fill="white"/>
<defs>
<linearGradient id="paint0_linear_567_19675" x1="19.6249" y1="28.6118" x2="49.1183" y2="28.6118" gradientUnits="userSpaceOnUse">
<stop stop-color="#B0BACC"/>
<stop offset="1" stop-color="#969EAE"/>
</linearGradient>
</defs>
</svg>
