<svg width="28" height="28" viewBox="0 0 28 28" fill="none" xmlns="http://www.w3.org/2000/svg">
<rect width="28" height="28" rx="14" fill="#4A5BF3" fill-opacity="0.15"/>
<path d="M17.5996 16.638V16.8875C17.5998 16.9562 17.6556 17.0117 17.7243 17.0117C17.7931 17.0117 17.8489 16.9562 17.8491 16.8875V16.638C17.8489 16.5692 17.7931 16.5137 17.7243 16.5137C17.6556 16.5137 17.5998 16.5692 17.5996 16.638Z" fill="#4A5BF3"/>
<path d="M12.152 21.501H12.4181C12.4511 21.501 12.4828 21.5142 12.5062 21.5375C12.5297 21.5609 12.5428 21.5926 12.5428 21.6258V21.8752C12.5428 21.9083 12.5297 21.94 12.5062 21.9634C12.4829 21.9868 12.4511 21.9999 12.4181 21.9999H12.1521C12.0832 21.9999 12.0273 21.944 12.0273 21.8751V21.6258C12.0273 21.5926 12.0405 21.5609 12.0639 21.5375C12.0873 21.5142 12.119 21.501 12.152 21.501L12.152 21.501Z" fill="#4A5BF3"/>
<path d="M11.1227 21.501H11.3888C11.4218 21.501 11.4536 21.5142 11.4769 21.5375C11.5004 21.5609 11.5135 21.5926 11.5135 21.6258V21.8752C11.5135 21.9083 11.5004 21.94 11.4769 21.9634C11.4536 21.9868 11.4218 21.9999 11.3888 21.9999H11.1227C11.0539 21.9999 10.998 21.944 10.998 21.8751V21.6258C10.998 21.5926 11.0112 21.5609 11.0346 21.5375C11.058 21.5142 11.0897 21.501 11.1227 21.501L11.1227 21.501Z" fill="#4A5BF3"/>
<path d="M15.6637 16.5137H15.9298C15.9628 16.5137 15.9947 16.5269 16.018 16.5503C16.0414 16.5736 16.0545 16.6054 16.0545 16.6385V16.8879C16.0545 16.921 16.0414 16.9527 16.018 16.9761C15.9947 16.9995 15.9628 17.0126 15.9298 17.0126H15.6639C15.595 17.0126 15.5391 16.9567 15.5391 16.8878V16.6385C15.5391 16.6054 15.5522 16.5736 15.5756 16.5503C15.599 16.5269 15.6307 16.5137 15.6637 16.5137L15.6637 16.5137Z" fill="#4A5BF3"/>
<path d="M14.5588 16.9476C14.5851 17.0116 14.6541 17.0468 14.7214 17.0305C14.7793 17.0186 14.8382 17.0126 14.8972 17.0126H14.9603C14.9951 17.0126 15.0234 16.9568 15.0234 16.8879L15.0235 16.6385C15.0235 16.5696 14.9952 16.5138 14.9604 16.5138L14.8972 16.5137C14.7797 16.5137 14.6627 16.5288 14.5491 16.5588C14.5175 16.5679 14.4913 16.5898 14.4768 16.6193C14.4624 16.6488 14.4609 16.6829 14.473 16.7134L14.5588 16.9476Z" fill="#4A5BF3"/>
<path d="M15.2604 21.9859C15.3864 21.9662 15.5091 21.929 15.6248 21.8753C15.6543 21.8608 15.6762 21.8346 15.6853 21.8031C15.6944 21.7715 15.6898 21.7377 15.6724 21.7098L15.5466 21.4944C15.5093 21.4361 15.4352 21.4137 15.3719 21.4416C15.3257 21.4602 15.278 21.4747 15.2293 21.4849C15.161 21.4968 15.1119 21.5568 15.1133 21.626L15.1287 21.8749C15.1299 21.9077 15.1448 21.9384 15.1699 21.9596C15.195 21.9808 15.2278 21.9903 15.2604 21.9859L15.2604 21.9859Z" fill="#4A5BF3"/>
<path d="M13.1833 21.501H13.4493C13.4824 21.501 13.5141 21.5142 13.5375 21.5375C13.5609 21.5609 13.574 21.5926 13.574 21.6258V21.8752V21.8751C13.574 21.944 13.5182 21.9999 13.4493 21.9999H13.1833C13.1144 21.9999 13.0586 21.944 13.0586 21.8752V21.6258C13.0586 21.5569 13.1144 21.501 13.1833 21.501L13.1833 21.501Z" fill="#4A5BF3"/>
<path d="M16.4081 20.0855C16.4081 19.9853 16.3971 19.8854 16.3752 19.7876C16.3673 19.7557 16.3464 19.7287 16.3176 19.7132C16.2887 19.6976 16.2545 19.6949 16.2236 19.7059L15.9864 19.7827C15.9215 19.8067 15.8837 19.8744 15.8973 19.9421C15.9052 19.9895 15.9091 20.0375 15.9091 20.0855V20.1698C15.9091 20.2163 15.9649 20.254 16.0339 20.254H16.2833C16.3522 20.254 16.408 20.2163 16.408 20.1698L16.4081 20.0855Z" fill="#4A5BF3"/>
<path d="M16.695 16.5137H16.961C16.9941 16.5137 17.0259 16.5269 17.0492 16.5503C17.0726 16.5736 17.0857 16.6054 17.0857 16.6385V16.8879C17.0857 16.921 17.0726 16.9527 17.0492 16.9761C17.0259 16.9995 16.9941 17.0126 16.961 17.0126H16.695C16.6261 17.0126 16.5703 16.9567 16.5703 16.8879V16.6385C16.5703 16.5696 16.6261 16.5137 16.695 16.5137V16.5137Z" fill="#4A5BF3"/>
<path d="M15.4418 19.3227C15.4862 19.3455 15.5286 19.3722 15.5685 19.4023C15.6223 19.4458 15.6998 19.4434 15.751 19.3968L15.9285 19.2216C15.9525 19.1991 15.9659 19.1676 15.9653 19.1348C15.9647 19.102 15.9504 19.071 15.9256 19.0493C15.8282 18.9672 15.7196 18.8991 15.6034 18.847C15.5731 18.8343 15.5389 18.8349 15.5091 18.8487C15.4795 18.8626 15.4569 18.8884 15.4472 18.9196L15.367 19.1559H15.3671C15.3475 19.2223 15.3792 19.293 15.4418 19.3227H15.4418Z" fill="#4A5BF3"/>
<path d="M14.4038 19.1384C14.5225 19.1849 14.6472 19.2142 14.7742 19.2254C14.8069 19.2276 14.8391 19.2159 14.8627 19.1933C14.8865 19.1706 14.8993 19.1389 14.8985 19.1062L14.8977 18.8567C14.8946 18.7876 14.8418 18.7309 14.773 18.7232C14.724 18.7161 14.6756 18.7048 14.6286 18.6892C14.5636 18.6655 14.491 18.6926 14.4575 18.7531L14.3457 18.9761C14.3303 19.0051 14.3278 19.0392 14.3388 19.0701C14.3499 19.101 14.3734 19.1258 14.4038 19.1384L14.4038 19.1384Z" fill="#4A5BF3"/>
<path d="M13.7392 18.5807C13.7569 18.6083 13.7855 18.6272 13.8179 18.6326C13.8503 18.6381 13.8834 18.6296 13.9092 18.6092L14.1089 18.4597C14.1626 18.4161 14.1765 18.3399 14.1416 18.2801C14.1179 18.2363 14.0979 18.1906 14.0821 18.1433C14.0623 18.077 13.9971 18.035 13.9286 18.0443L13.6829 18.0877C13.6504 18.0925 13.6216 18.1109 13.6034 18.1381C13.5852 18.1655 13.5795 18.1992 13.5876 18.231C13.6215 18.3541 13.6726 18.4717 13.7392 18.5807L13.7392 18.5807Z" fill="#4A5BF3"/>
<path d="M13.715 17.5176L13.9541 17.5885V17.5884C14.0212 17.6054 14.0907 17.571 14.1179 17.5074C14.1391 17.4621 14.1641 17.4188 14.1926 17.3778C14.234 17.3223 14.2287 17.245 14.1801 17.1956L13.9983 17.0249C13.975 17.0018 13.9431 16.9896 13.9102 16.9914C13.8775 16.9932 13.8471 17.0086 13.8263 17.0342C13.7479 17.1349 13.684 17.246 13.6365 17.3644C13.6248 17.3951 13.6267 17.4293 13.6417 17.4584C13.6567 17.4875 13.6834 17.509 13.715 17.5176L13.715 17.5176Z" fill="#4A5BF3"/>
<path d="M14.2126 21.501H14.4786C14.5117 21.501 14.5434 21.5142 14.5668 21.5375C14.5902 21.5609 14.6033 21.5926 14.6033 21.6258V21.8752C14.6033 21.9083 14.5902 21.94 14.5668 21.9634C14.5434 21.9868 14.5117 21.9999 14.4786 21.9999H14.2126C14.1437 21.9999 14.0879 21.944 14.0879 21.8751V21.6258C14.0879 21.5926 14.101 21.5609 14.1244 21.5375C14.1478 21.5142 14.1795 21.501 14.2126 21.501L14.2126 21.501Z" fill="#4A5BF3"/>
<path d="M16.2745 20.7869L16.0267 20.7591C15.9576 20.7543 15.8953 20.8005 15.8798 20.8679C15.8673 20.9161 15.8504 20.963 15.8294 21.0082C15.7983 21.07 15.817 21.1453 15.8734 21.1854L16.0823 21.3218C16.1092 21.3404 16.1428 21.3468 16.1748 21.3394C16.2067 21.3319 16.234 21.3113 16.2499 21.2825C16.3093 21.1697 16.3528 21.049 16.3788 20.9241C16.3848 20.8919 16.3769 20.8585 16.3571 20.8324C16.3372 20.8063 16.3072 20.7898 16.2745 20.7869L16.2745 20.7869Z" fill="#4A5BF3"/>
<path d="M10.2285 21.6261V21.8756C10.2287 21.9442 10.2845 21.9998 10.3532 21.9998C10.4219 21.9998 10.4777 21.9442 10.4779 21.8756V21.6261C10.478 21.5929 10.4649 21.5611 10.4416 21.5376C10.4182 21.5141 10.3864 21.501 10.3532 21.501C10.32 21.501 10.2882 21.5141 10.2648 21.5376C10.2415 21.5611 10.2284 21.5929 10.2285 21.6261H10.2285Z" fill="#4A5BF3"/>
<path d="M10.3331 11.333C8.49122 11.333 7 12.8071 7 14.6282C7 16.4493 10.3331 20.6658 10.3331 20.6658C10.3331 20.6658 13.6663 16.4384 13.6663 14.6282C13.6663 12.818 12.1752 11.333 10.3331 11.333V11.333ZM8.6666 14.7042C8.6666 13.7937 9.41215 13.0566 10.3331 13.0566C11.2541 13.0566 11.9997 13.7937 11.9997 14.7042C11.9997 15.6147 11.2541 16.3517 10.3331 16.3517C9.41215 16.3517 8.6666 15.6146 8.6666 14.7042Z" fill="#4A5BF3"/>
<path d="M17.7999 6C15.958 6 14.4668 7.47412 14.4668 9.29518C14.4668 11.1162 17.7999 15.3328 17.7999 15.3328C17.7999 15.3328 21.1331 11.1054 21.1331 9.29518C21.1331 7.48497 19.642 6 17.7999 6ZM16.1334 9.37117C16.1334 8.46066 16.8789 7.7236 17.7999 7.7236C18.7209 7.7236 19.4665 8.46066 19.4665 9.37117C19.4665 10.2817 18.7209 11.0187 17.7999 11.0187C16.8789 11.0187 16.1334 10.2816 16.1334 9.37117Z" fill="#4A5BF3"/>
</svg>
