<svg width="73" height="80" viewBox="0 0 73 80" fill="none" xmlns="http://www.w3.org/2000/svg">
<path fill-rule="evenodd" clip-rule="evenodd" d="M70.7415 54.5606C69.7829 54.6557 68.8242 54.7507 67.8655 54.8458C63.2742 55.2003 58.6847 55.9406 54.1286 56.3849C54.0151 56.1983 53.7931 56.229 53.6583 56.3587C53.2037 56.3184 52.6941 55.9673 52.2823 56.3326C52.2689 56.3307 52.2555 56.3284 52.242 56.3271C51.5088 54.905 51.0019 53.3881 50.51 51.8692C50.196 50.9354 49.7736 50.0314 48.9929 49.4045C47.6607 48.4699 44.6081 46.5749 43.0438 46.6546C43.0178 46.3716 42.8872 46.0798 42.6729 45.8914C43.1454 45.0774 41.2561 44.5462 41.1228 44.6406C41.2082 41.921 39.9422 39.5592 37.1507 39.0176C34.6498 38.491 31.0928 38.4026 29.7478 41.0435C29.5999 41.0267 28.0886 41.0188 27.9424 41.0353C27.715 40.7444 25.2183 43.5015 26.2416 44.4614C17.0928 48.551 11.8908 48.063 9.35851 59.56C9.01618 60.64 8.99124 61.8218 8.62975 62.8778C7.34367 65.9124 6.30053 69.1437 6.04092 72.4456C5.41391 72.608 5.3418 73.7251 6.06807 73.8867C6.34549 73.9485 6.57748 74.0329 6.77976 74.193C6.62163 76.8988 7.26928 83.0801 7.67734 83.061C8.50939 85.7369 12.2208 86.4921 14.8483 85.5517C14.3954 86.4128 14.8483 86.9543 14.8483 87.4143C24.3029 87.7758 34.6405 87.5676 44.0925 88.0633C45.3015 88.046 46.5732 88.3634 47.7658 88.1807C48.4931 88.0045 48.4943 86.849 47.7566 86.7061L50.98 85.9987C50.9079 85.9712 52.3087 85.0297 53.3673 83.2704C54.3527 81.3023 53.6821 78.9267 54.1286 76.7859C57.6159 76.4977 61.1609 76.3745 64.6101 75.7777C65.0804 77.1996 67.1162 75.4991 67.7633 74.8151C67.7625 74.814 67.7617 74.8129 67.7609 74.8119C68.0741 74.7253 68.3252 74.4287 68.3336 74.0775C68.5532 73.7605 68.5993 73.3135 68.3887 73.0071C69.354 67.3785 70.8257 61.6315 71.3576 55.95C71.5456 55.9079 71.7227 55.8246 71.8728 55.6963L71.8607 55.684C72.1151 55.3974 72.1645 54.9028 71.7405 54.6593C71.3984 54.4627 71.1128 54.5237 70.7415 54.5606Z" fill="white"/>
<path fill-rule="evenodd" clip-rule="evenodd" d="M29.9226 40.4303C30.2074 39.7069 31.1704 39.9881 31.063 40.748C30.9988 41.2033 30.7521 41.684 30.5304 42.083C30.35 42.4078 30.1441 42.7247 29.8651 42.9681C30.3619 43.4365 30.8775 43.8878 31.4063 44.3163C31.9833 44.7838 32.59 45.2147 33.2171 45.6107C33.767 45.9581 34.3418 46.2658 34.8601 46.6621C35.3421 47.0306 35.7812 47.4737 36.0046 48.0522C36.2426 48.6682 36.1392 49.3044 35.9639 49.92L35.9438 49.9896C35.7647 50.5995 35.4547 51.3347 35.8845 51.9093C36.1033 52.2018 36.4214 52.409 36.6961 52.6428C36.9402 52.8507 37.1693 53.0768 37.3795 53.3196C37.8377 53.8489 38.2103 54.4444 38.4455 55.108L38.4666 55.1683C38.6681 55.7558 38.8154 56.4755 38.5431 57.0522C38.4649 57.2176 38.2129 57.1638 38.1691 57.0028C38.0702 56.6381 38.0753 56.2562 37.9924 55.8863C37.906 55.5017 37.7623 55.1365 37.5747 54.7911C37.2116 54.1228 36.7199 53.552 36.139 53.0694L35.9651 52.9265C35.5119 52.5506 35.0956 52.152 35.0036 51.53C34.9052 50.8645 35.169 50.2306 35.3387 49.6008C35.4569 49.1619 35.4955 48.7411 35.3677 48.3444C35.2116 48.6019 34.9987 48.8463 34.8302 49.0642C34.4948 49.4985 34.1561 49.9301 33.8184 50.3625C33.4721 50.8059 33.1343 51.2563 32.8127 51.7184C32.6688 51.9251 32.5265 52.133 32.3846 52.3412C32.2779 52.4976 32.1292 52.6539 32.0129 52.8135C32.0411 52.8988 32.039 52.9972 31.9878 53.0671C31.3711 53.909 30.4939 52.1523 30.2651 51.7085C29.7991 50.8046 29.4524 49.8444 28.9849 48.9408C28.5005 48.004 27.9489 47.0922 27.3342 46.237C26.9623 45.7198 26.5455 45.2339 26.2053 44.7002C25.4039 45.4345 24.3493 45.9267 23.3807 46.3731C22.3164 46.8635 21.2108 47.2641 20.1196 47.6895L19.7973 47.816C17.9171 48.5575 15.9911 49.3721 14.4283 50.6891C12.5919 52.2367 11.5055 54.3938 10.6967 56.6275C9.7657 59.1991 8.99545 61.84 8.27743 64.4792C7.90999 65.8295 7.56135 67.186 7.23359 68.5468C6.94477 69.7457 6.70537 70.9565 6.37103 72.1431C7.0491 72.1189 7.82244 72.3841 8.40136 72.4607C11.0397 72.8097 13.6426 73.366 16.1336 74.3291C16.4412 74.4481 16.5303 74.7586 16.4633 75.0103C16.6407 74.9597 16.818 74.9084 16.9955 74.8581C16.8011 74.5571 16.8938 74.0189 16.9091 73.6853L16.9101 73.6624C16.9258 73.2178 16.9735 72.7728 17.0045 72.329C17.0634 71.4831 17.1401 70.6434 17.2421 69.8024L17.2682 69.5921C17.3838 68.677 17.4692 67.7566 17.5954 66.8432L17.6103 66.7386C17.5498 66.5049 17.4794 66.274 17.4055 66.0442C17.2085 65.4319 16.9305 64.8556 16.6868 64.2626C16.6581 64.1928 16.7565 64.1527 16.8025 64.1946C17.2151 64.5697 17.5429 65.0455 17.8062 65.5432C17.8108 65.5197 17.8148 65.4962 17.8196 65.4727L17.8496 65.3233C17.9237 64.9588 18.0138 64.5754 18.2351 64.2798C18.2586 64.2484 18.3052 64.2418 18.3275 64.2798C18.5393 64.6419 18.563 65.1004 18.5955 65.5124C18.6324 65.9785 18.637 66.4504 18.6305 66.9178C18.6178 67.8311 18.5541 68.747 18.5033 69.6589C18.4535 70.555 18.3558 71.4396 18.2297 72.3269L18.2058 72.4933C18.1442 72.9156 18.0938 73.3432 18.0125 73.7626L17.9895 73.8768C17.9461 74.0848 17.9194 74.378 17.8329 74.6217C20.0577 73.9946 22.2859 73.3819 24.5183 72.7799C26.1317 72.3448 27.7469 71.9162 29.3614 71.4848C29.4466 71.3297 29.5527 71.1848 29.6851 71.0553C30.1212 70.6284 30.6993 70.438 31.2295 70.7665C31.2726 70.7933 31.2762 70.8616 31.2295 70.8874C31.1279 70.9435 31.0261 71.0011 30.9261 71.061L31.8956 70.7957C32.6202 70.5973 33.3534 70.3493 34.0951 70.211C35.4611 69.5298 36.9303 69.0367 38.3693 68.5494L38.5389 68.4915C39.2757 68.2376 40.0378 67.9535 40.799 67.8127C41.3563 67.7098 42.0105 67.834 42.2346 68.411C42.5183 68.5999 42.7853 68.8219 43.0429 69.0403C43.2291 69.1981 43.4076 69.3659 43.5892 69.5292L43.6226 69.5589C43.771 69.6891 43.8886 69.7762 43.925 69.9833C43.9438 70.0903 43.8766 70.2349 43.746 70.2207C43.3465 70.1775 43.0216 69.7096 42.7506 69.4301C42.5413 69.2141 42.3303 68.9908 42.1392 68.7534C42.0278 68.8147 41.8752 68.8037 41.8043 68.668C41.4366 67.9646 40.4295 68.452 39.8723 68.6188L39.0741 68.8576C38.675 68.9771 38.276 69.0972 37.8778 69.2195C36.7832 69.5554 35.6939 69.9313 34.5894 70.2397C34.6882 70.3495 34.6746 70.5448 34.4869 70.619C33.6223 70.9618 32.6738 71.1391 31.7756 71.3743C31.2085 71.523 30.6418 71.6725 30.0752 71.8229C29.978 71.9819 29.9082 72.1618 29.8787 72.3712C29.7706 73.1413 29.9792 74.0297 30.1823 74.7745L30.2129 74.8856C30.3798 75.4844 30.6255 76.2184 31.1367 76.5965C31.2616 76.6887 31.4205 76.7529 31.5807 76.7674C32.5814 76.2468 33.5822 75.7264 34.5835 75.2068C34.769 75.1106 34.9404 75.2409 34.982 75.3959C35.3351 75.3373 35.6874 75.245 36.0082 75.135C36.5473 74.95 36.9683 74.5972 37.4737 74.3531C38.4516 73.8811 39.4502 74.4609 40.3258 74.9017L40.5276 75.002C40.9202 75.1945 41.7371 75.5643 41.9255 75.0378C42.1077 74.5284 41.5316 73.9841 41.1595 73.7548C40.716 73.4815 40.1996 73.3353 39.6984 73.2134C39.4122 73.1438 39.1225 73.087 38.831 73.0456C38.5004 72.9986 38.159 73.0056 37.8407 72.8973C37.6825 72.8435 37.6582 72.5897 37.8407 72.5478C38.3307 72.4351 38.9155 72.558 39.4268 72.6836L39.694 72.7501C40.2091 72.8779 40.7292 73.0382 41.1984 73.293C41.5396 73.4783 41.8997 73.7599 42.135 74.1045C42.3393 73.9127 42.5935 73.9192 42.8584 73.9903L43.0022 74.0307C43.2395 74.0972 43.432 74.143 43.6629 74.0969C43.6938 73.9271 43.7251 73.7572 43.7586 73.5873C44.0878 71.9175 44.4488 70.2541 44.8471 68.5995C45.5341 65.7456 46.3292 62.923 47.2254 60.1293L47.3154 59.8501C47.5221 59.2111 47.6885 58.5149 48.0218 57.9279C48.337 57.3728 48.842 57.053 49.442 56.8837C50.1228 56.6916 50.8383 56.591 51.5329 56.4613C51.6879 56.4324 51.8432 56.4049 51.9983 56.3765C51.8672 56.1374 51.7694 55.8659 51.6813 55.6576L51.6658 55.6215C51.4765 55.1854 51.3065 54.7414 51.1423 54.2951L51.0194 53.9595C50.7229 53.1515 50.4169 52.3567 50 51.6009C49.5612 50.8056 48.979 50.1553 48.2534 49.6171C46.7738 48.5198 44.9905 47.96 43.5555 46.7872C43.4966 46.7392 43.572 46.657 43.6317 46.6874C44.6007 47.1794 45.6467 47.5139 46.6546 47.9145L46.8534 47.9937C47.65 48.3128 48.459 48.6602 49.1485 49.1769C49.9172 49.753 50.5226 50.4684 50.9777 51.3192C51.4262 52.1579 51.713 53.0966 52.0294 53.9923L52.1141 54.231C52.2417 54.5889 52.3735 54.9458 52.5246 55.2941C52.6445 55.5706 52.8682 55.8862 52.97 56.2021C53.2482 56.1533 53.5265 56.1044 53.805 56.0574C59.8383 55.0395 65.9391 54.4414 72.0533 54.2665C72.2925 54.2596 72.4163 54.4903 72.381 54.7011C71.7943 58.2072 71.2728 61.7253 70.7007 65.234C70.4509 66.7654 70.1962 68.2956 69.9355 69.8251C69.8035 70.6 69.6508 71.3719 69.5257 72.1479C69.4248 72.7746 69.3514 73.4062 69.1781 74.0184C69.0226 74.5673 68.784 75.0966 68.3921 75.5154C67.9697 75.9668 67.3801 76.1853 66.7866 76.2886C65.28 76.5506 63.7347 76.6576 62.2159 76.8321L54.1295 77.7617C54.2477 78.8471 54.2565 79.9156 54.2023 81.0136L54.1714 81.613C54.1462 82.0951 54.116 82.5779 54.0474 83.0551C53.9615 83.6536 53.6905 84.1605 53.2914 84.6076C52.9249 85.0181 52.4797 85.3685 52.0466 85.7041C51.597 86.0527 51.1325 86.3891 50.6039 86.6046L50.5353 86.6322C50.0716 86.8151 49.2018 87.0984 48.568 86.9949C48.6508 87.4143 48.8111 87.8653 48.669 88.2804C48.6031 88.4731 48.3537 88.5693 48.2009 88.4053C47.8982 88.0803 47.8745 87.651 47.8028 87.227C47.7282 86.7857 47.6639 86.3429 47.6068 85.899C47.4963 85.0408 47.4103 84.1747 47.384 83.3091C47.357 82.4203 47.3674 81.5302 47.4148 80.6423C47.4392 80.1864 47.4694 79.7307 47.5267 79.2776C47.5511 79.0844 47.5761 78.8911 47.6046 78.6983C47.615 78.6281 47.6266 78.5581 47.639 78.4883L46.9132 78.5711C45.8003 78.6966 44.6869 78.81 43.5661 78.8276C43.4334 78.8296 43.3313 78.7686 43.2646 78.6796C43.1935 78.7966 43.0697 78.8804 42.8924 78.8797C41.3272 78.8738 39.8697 78.3566 38.4461 77.7471C37.7286 77.4398 37.0222 77.1071 36.3035 76.8025C35.6328 76.5181 34.9157 76.3152 34.2611 75.9948L32.5411 76.9065C32.5285 76.9513 32.5123 76.9937 32.4951 77.0292C32.3831 77.2602 32.1623 77.3855 31.9368 77.4799C31.7204 77.5706 31.4962 77.5988 31.2778 77.5759C29.9733 78.2667 28.6686 78.9568 27.3629 79.6453L26.057 80.3332C23.455 81.7021 20.8634 83.0935 18.2451 84.4304L18.0523 84.5284C17.1479 84.9866 16.1768 85.4511 15.1732 85.7978C15.1553 86.0545 15.1666 86.3041 15.1879 86.5758L15.193 86.635C15.2229 86.9561 15.2871 87.3584 15.0322 87.587C14.8996 87.7058 14.6627 87.7063 14.5726 87.5271C14.409 87.2021 14.5559 86.6897 14.6077 86.3365C14.6261 86.211 14.6485 86.0819 14.6817 85.9566C13.5311 86.3028 12.3457 86.4706 11.1748 86.2762C10.0348 86.0872 9.15194 85.3615 8.44016 84.4738C7.68898 83.5372 7.15518 82.4455 6.86878 81.2753C6.54283 79.9438 6.52155 78.5686 6.5292 77.2047C6.53732 75.7523 6.5905 74.2927 6.76532 72.8501C6.57378 72.8045 6.36136 72.7652 6.16781 72.7788C6.07194 72.9338 5.88597 72.999 5.71793 72.9789C5.35251 73.3861 6.27939 73.8023 6.57559 73.9065C6.67844 73.9428 6.66743 74.1116 6.5488 74.1065L6.47408 74.1029C6.01639 74.0783 5.54353 73.9993 5.27443 73.5695C5.05879 73.225 5.12357 72.8169 5.38064 72.5359C5.55042 70.9137 5.95633 69.3341 6.3341 67.7516C6.70483 66.1984 7.11711 64.6552 7.5541 63.1197L7.75001 62.4325C8.43804 60.0249 9.1572 57.5979 10.1063 55.286C10.5802 54.1316 11.1261 52.9985 11.8662 51.9919C12.556 51.0536 13.3704 50.2507 14.3066 49.565C16.0518 48.2865 18.0996 47.514 20.1117 46.778L20.2017 46.745C21.2444 46.3639 22.2846 45.9782 23.3154 45.5653C24.227 45.2001 25.1004 44.7371 26.0077 44.3664C25.9783 44.3123 25.9498 44.2576 25.9224 44.2024L25.9056 44.2166C25.9028 44.2189 25.8998 44.2212 25.8968 44.2233C25.8055 44.2872 25.6712 44.2557 25.596 44.184C25.3837 43.9816 25.4556 43.7569 25.5973 43.5469L25.6157 43.5202C25.7891 43.2748 25.9437 43.0154 26.1037 42.7611L26.2039 42.6021C26.4724 42.1773 26.7546 41.7497 27.1127 41.3986C27.2785 41.2359 27.46 41.1142 27.6524 41.0235C27.6359 40.9884 27.7801 40.9166 27.821 40.9527C28.4304 40.7273 29.1315 40.7746 29.7959 40.8367M53.7383 77.8066L52.891 77.904C51.9589 78.0112 51.0264 78.1148 50.0938 78.2174L48.0681 78.4399C48.063 78.5566 48.0489 78.6707 48.0464 78.7588C48.0332 79.2131 48.0233 79.6677 48.014 80.1221C47.9952 81.0331 48.0158 81.9449 48.0751 82.8541C48.1327 83.7351 48.2084 84.6163 48.3261 85.4913L48.3503 85.6662L48.3642 85.7582C48.4603 85.7676 48.5547 85.8137 48.6332 85.9085C48.8045 86.1152 49.4249 85.9142 49.6672 85.8271C50.0657 85.6838 50.4409 85.4418 50.7871 85.1991C51.1252 84.962 51.4297 84.6857 51.7222 84.3945L51.9616 84.1553C52.1997 83.9162 52.4381 83.6615 52.584 83.3607C52.7818 82.9528 52.8074 82.4522 52.8654 82.008C52.9369 81.4616 53.0219 80.9152 53.1118 80.3716M29.1426 72.0712L29.0547 72.0946C25.8623 72.9517 22.6747 73.8342 19.4725 74.6535C17.8878 75.0591 16.2956 75.4351 14.709 75.8329L14.4521 75.8978C13.2004 76.2175 11.9337 76.6022 10.9752 77.5196C10.9398 77.5534 10.8885 77.5015 10.9218 77.4656C11.9548 76.3544 13.424 75.884 14.8347 75.4762C15.0954 75.4008 15.3565 75.3272 15.6174 75.2522C13.6989 74.5611 11.7501 73.9599 9.75637 73.531C9.24298 73.4206 8.72361 73.3395 8.21063 73.2287C7.85286 73.1513 7.50348 73.0395 7.14949 72.9467L6.87106 72.876L6.86736 73.7652C6.86273 75.0247 6.86494 76.2831 6.92853 77.5424L6.94056 77.7757C7.01475 79.1771 7.13056 80.6076 7.62271 81.929C8.02264 83.0028 8.6601 84.0144 9.49373 84.7965C9.91555 85.1922 10.3691 85.5003 10.9296 85.6524C11.4501 85.7935 11.9955 85.8101 12.5306 85.7724C15.0971 85.5915 17.3818 84.1827 19.6112 83.0162C23.2579 81.1083 26.9049 79.2014 30.5552 77.3008C30.4565 77.2326 30.3636 77.1541 30.2791 77.0658C29.7896 76.555 29.5314 75.8557 29.3618 75.1784C29.1813 74.4575 29.0733 73.6849 29.0608 72.9407M33.7873 78.0373C33.8195 78.0198 33.8568 78.0417 33.8583 78.0785C33.8696 78.3602 33.7155 78.6381 33.6004 78.8919L33.5882 78.919C33.4484 79.2333 33.2952 79.5435 33.1369 79.8488C32.8203 80.4588 32.4914 81.0622 32.148 81.6571C31.4576 82.8539 30.6904 84.0002 29.7835 85.0423C29.5787 85.2777 29.2418 84.9759 29.3732 84.7224C30.007 83.5006 30.7458 82.347 31.5063 81.2034C31.8871 80.6308 32.2675 80.0577 32.652 79.4877C32.8124 79.2498 32.9749 79.0128 33.1417 78.7795L33.2423 78.6399M71.649 54.9663C68.4455 55.064 65.2457 55.2751 62.0574 55.606C59.0923 55.9137 56.138 56.3232 53.2004 56.8338C52.5869 56.9404 51.974 57.0514 51.362 57.1668L50.9949 57.2366C50.3827 57.3538 49.6349 57.4022 49.0899 57.7326C48.5153 58.081 48.36 58.809 48.1688 59.4094C47.944 60.1155 47.7249 60.8236 47.5118 61.5335C46.6653 64.3518 45.8921 67.1945 45.2024 70.056C44.86 71.4764 44.5562 72.9047 44.2361 74.3303C43.9517 75.5969 43.6379 76.8491 43.3101 78.103C43.3505 78.0713 43.4 78.0471 43.4599 78.0342C45.0878 77.6843 46.7495 77.5321 48.4017 77.3388L48.5616 77.32C50.2708 77.1168 51.98 76.9152 53.6903 76.7209L65.0134 75.4342C65.6812 75.3583 66.3966 75.348 67.0465 75.167C68.1514 74.8589 68.4104 73.6107 68.5957 72.6166L68.6013 72.5866C69.1602 69.583 69.6052 66.5534 70.1264 63.5423M43.5736 74.6115C43.134 74.5822 42.5323 74.1754 42.1988 74.2046C42.3739 74.5014 42.4529 74.84 42.352 75.2016C42.0711 76.2078 40.8011 75.6872 40.1894 75.3798C39.6878 75.1277 39.2035 74.8191 38.6482 74.701C38.0191 74.5674 37.593 74.8202 37.0615 75.1115C36.625 75.3508 36.1496 75.5226 35.6607 75.6116C35.4008 75.6589 35.1538 75.664 34.9074 75.6455C34.8925 75.6577 34.8758 75.669 34.8568 75.6792L34.7264 75.7483C35.3159 75.7756 35.9164 75.9594 36.465 76.1277C37.0335 76.302 37.5916 76.5122 38.1468 76.7272L38.6929 76.9393C40.04 77.4605 41.4345 77.9556 42.8924 77.9512C42.9972 77.9509 43.083 77.9802 43.1506 78.0281M41.114 71.4587C41.5483 71.405 41.9492 71.4626 42.2962 71.7483C42.7147 72.0927 42.9959 72.6641 43.5976 72.7016C43.773 72.7125 43.8138 72.9618 43.6394 73.0139C43.1915 73.1479 42.8289 72.903 42.5238 72.5851L42.3186 72.3685C42.0171 72.053 41.739 71.8091 41.2273 71.828C40.6794 71.8482 40.1305 71.9761 39.5861 72.0412C38.9693 72.1149 38.3528 72.1777 37.7341 72.2319C37.7054 72.2344 37.7005 72.1887 37.7274 72.182L38.4203 72.0077M40.6948 69.6646L40.7664 69.6573C41.3971 69.5955 41.9738 69.5931 42.5371 69.9359L42.6451 70.0019C43.1529 70.3138 43.7056 70.6812 44.0232 71.1862C44.0752 71.2689 43.9893 71.3661 43.9023 71.3451C43.292 71.197 42.8458 70.7445 42.3326 70.4059C41.7565 70.0258 41.1615 70.0885 40.5047 70.1475C39.8688 70.2047 39.2332 70.2833 38.6036 70.3904C38.0119 70.4909 37.4183 70.6497 36.8207 70.7003L36.8208 70.6991C36.7525 70.6989 36.7136 70.5954 36.7832 70.5602C37.3897 70.2542 38.0922 70.1093 38.7519 69.9695M19.0996 52.3358C19.0988 52.2854 19.169 52.2665 19.1935 52.3101C19.6038 53.0396 19.8183 53.9338 20.0369 54.7375C20.2658 55.5794 20.4507 56.4299 20.6167 57.2866C20.953 59.0213 21.1322 60.7461 21.1443 62.5142C21.146 62.7666 20.739 62.8338 20.6992 62.5751C20.4349 60.8553 20.1817 59.1337 19.9153 57.4143C19.7813 56.5496 19.6254 55.6881 19.4761 54.8259M23.1619 53.6064C23.1317 53.5058 23.2766 53.4721 23.3136 53.5641C24.1371 55.6068 24.416 57.9216 23.8873 60.0766C23.8064 60.4062 23.3286 60.2634 23.3896 59.9379M33.784 51.7914C33.7798 51.7161 33.8766 51.7042 33.913 51.756C34.3032 52.3116 34.4651 53.0556 35.1497 53.3427C35.4915 53.4861 35.8761 53.4611 36.1781 53.7032C36.38 53.8652 36.5348 54.1208 36.3832 54.366C36.3344 54.4453 36.1975 54.4849 36.1312 54.3989C36.0344 54.2734 35.9832 54.1232 35.8517 54.0292C35.6662 53.8966 35.416 53.8884 35.2033 53.826C34.9282 53.7454 34.6857 53.6044 34.4871 53.3948M40.3028 42.5254C40.343 42.5047 40.3816 42.518 40.4073 42.5531C40.4441 42.6032 40.4396 42.6519 40.3946 42.6862C40.4547 42.8103 40.5256 43.1211 40.5358 43.1664C40.5768 43.3498 40.6206 43.5322 40.6663 43.7144C40.7585 44.0819 40.8394 44.4522 40.9317 44.8199C41.0295 45.2096 41.1462 45.5951 41.2759 45.9751C41.2843 45.9997 41.2935 46.0248 41.3032 46.0503L41.318 46.0888L41.3216 46.0829C41.348 46.0408 41.4029 46.0702 41.3964 46.1148C41.3903 46.1553 41.3822 46.1957 41.3754 46.2363L41.389 46.2726C41.4739 46.5035 41.532 46.7466 41.3762 46.9503C41.318 47.0265 41.2538 47.0716 41.174 47.0851C41.0459 47.5118 40.8851 47.9306 40.7131 48.3327L40.6626 48.4502C40.4095 49.037 40.1396 49.6161 39.7366 50.1157C39.2966 50.6612 38.6913 51.0336 38.308 51.6313C38.1297 51.9093 38.0057 52.2016 37.905 52.5156L37.8671 52.6348C37.7956 52.8568 37.7131 53.0721 37.507 53.2024C37.4412 53.2439 37.3426 53.2306 37.2896 53.174C36.8668 52.7221 37.3094 51.8783 37.5643 51.4408C37.9187 50.8324 38.4315 50.4432 38.945 49.9842C39.4986 49.4894 39.8516 48.8276 40.1932 48.1756C40.4024 47.7761 40.6043 47.368 40.8169 46.9668C40.5948 46.7684 40.5237 46.3744 40.4484 46.1004L40.4416 46.0759C40.3172 45.6372 40.2183 45.1872 40.1559 44.7351C40.0958 44.3005 40.0708 43.8721 40.0867 43.4351L40.0912 43.3237M41.1287 44.594C41.0797 44.526 41.1609 44.449 41.2282 44.4632C41.6376 44.5488 42.0379 44.7992 42.4054 45.0017L42.4446 45.0232C42.7379 45.183 43.033 45.3788 43.1871 45.6893C43.3546 46.0268 43.3408 46.4155 43.3179 46.7822L43.3158 46.8166C43.2878 47.2564 43.2833 47.7133 43.1912 48.1452C43.144 48.3662 42.9459 48.4285 42.7765 48.3763C42.575 49.0193 42.0088 49.4931 41.5953 50.0006C41.068 50.6475 41.1672 51.521 41.2223 52.3001C41.2446 52.6156 40.8563 52.7053 40.6563 52.537L40.1954 52.1501C40.1186 52.0855 40.042 52.0208 39.9655 51.9559C39.9001 51.9002 39.8352 51.8441 39.7708 51.7873L39.6747 51.7016C39.6321 51.663 39.444 51.4508 39.389 51.4419C39.2559 51.4205 38.9394 51.7752 38.8312 51.8865L38.8174 51.9003C38.6136 52.1023 38.4295 52.3196 38.2579 52.5501C38.2264 52.5924 38.1647 52.5572 38.1872 52.5083C38.3409 52.1756 38.5196 51.8575 38.7318 51.5598L38.7747 51.5006C38.9159 51.3083 39.1054 50.9688 39.3547 50.912C39.659 50.8428 39.9628 51.1511 40.1842 51.3223L40.1982 51.333C40.3036 51.4128 40.4077 51.4941 40.5116 51.5759C40.5007 50.9958 40.5732 50.4097 40.8697 49.9098C41.0786 49.5572 41.3918 49.2961 41.6597 48.9931C41.958 48.6557 42.1138 48.2411 42.3838 47.8897C42.4186 47.8445 42.4665 47.8202 42.5184 47.8125C42.5288 47.53 42.5699 47.2447 42.6017 46.9653L42.611 46.8817C42.6431 46.5781 42.7191 46.2073 42.572 45.923C42.4331 45.6544 42.1143 45.4648 41.8782 45.2826L41.6854 45.1315M27.8415 41.3839C27.7182 41.456 27.603 41.5456 27.4985 41.6576C27.1695 42.0103 26.9342 42.4492 26.7053 42.8715C26.582 43.0989 26.4632 43.3288 26.3389 43.5556C26.2849 43.6543 26.2293 43.752 26.1731 43.8495C26.1471 43.8944 26.0699 43.9836 26.0316 44.0387C26.0742 44.0989 26.1181 44.1581 26.163 44.2168C26.1801 44.2392 27.3604 45.5384 27.7718 46.0469C28.4018 46.8258 28.965 47.6485 29.4464 48.529C29.9178 49.3914 30.2767 50.3044 30.7135 51.1834C30.9321 51.6235 31.1762 52.0604 31.4873 52.4413C31.4994 52.4561 31.512 52.4702 31.5243 52.4848C31.6431 52.1606 31.9474 51.8135 32.0969 51.6142L32.1108 51.5954C32.4498 51.1337 32.8078 50.6858 33.1735 50.2456C33.5076 49.8436 33.8502 49.4503 34.201 49.0635L34.333 48.9188C34.5774 48.652 34.8879 48.2527 35.2458 48.0621C35.2074 47.993 35.163 47.9247 35.112 47.8573C34.7767 47.4146 34.3028 47.0933 33.8351 46.8034L33.5319 46.617C32.3887 45.913 31.2633 45.1764 30.2708 44.2617C29.7458 43.7777 29.2279 43.2708 28.7866 42.7063L28.6305 42.5067M29.749 41.0354C29.2136 41.0808 28.6355 41.07 28.1408 41.2463C28.5806 41.6664 28.9987 42.1201 29.4281 42.5472C29.4663 42.2583 29.5445 41.9729 29.6107 41.6912" fill="#1F2937"/>
<path fill-rule="evenodd" clip-rule="evenodd" d="M35.2239 14.3169C39.036 14.3169 42.9789 17.3027 44.3762 19.208C45.551 20.8099 46.1836 28.0537 46.1836 32.9491C46.1836 33.9729 46.7427 35.9029 46.5795 36.8823C45.9816 40.471 43.3766 43.4807 38.2206 43.4807C33.0646 43.4807 29.3679 41.4156 25.5356 35.8708C23.6762 35.8708 22.775 34.4299 22.7619 32.1559C22.7488 29.882 24.5567 29.0547 24.5567 29.0547C24.5567 29.0547 23.9121 20.0807 25.5356 17.7443C27.1591 15.408 31.4119 14.3169 35.2239 14.3169Z" fill="white"/>
<path fill-rule="evenodd" clip-rule="evenodd" d="M33.6207 13.0485C36.0276 12.8022 38.386 13.0091 40.758 13.4373C40.9392 13.4704 41.042 13.5906 41.0802 13.735C42.1974 13.7866 43.3159 13.8694 44.4316 13.9311C44.8365 13.9535 45.066 14.3578 44.8814 14.7228C44.8445 14.7954 44.8062 14.8659 44.7673 14.9365L44.8162 14.9202C45.1518 14.8114 45.5144 14.7577 45.8415 14.9304C46.2577 15.1502 46.4209 15.6352 46.3289 16.0816C46.3054 16.1956 46.2658 16.3048 46.2208 16.4114C46.3121 16.4053 46.4041 16.4073 46.4954 16.4195C46.9815 16.4847 47.3427 16.8612 47.3682 17.3625C47.4058 18.1196 46.9231 18.8876 46.3544 19.4296C46.4369 19.6013 46.4686 19.8034 46.4343 20.0083C46.3658 20.4133 46.0705 20.6559 45.7283 20.8141C45.871 21.2721 45.9385 21.7509 45.8987 22.2402C45.8854 22.4036 45.744 22.5385 45.5947 22.5716C46.151 24.1193 46.4326 25.781 46.6351 27.4002C46.7794 28.5522 46.8506 29.7109 46.8592 30.8716C46.8635 31.3956 46.8549 31.9203 46.8332 32.4444L46.8244 32.6409C46.7975 33.2074 46.7962 33.8023 46.6955 34.3628C47.0392 34.9536 47.1775 35.687 47.2359 36.3491C47.3084 37.1686 47.1936 38.0139 46.9378 38.7934C45.9724 41.739 43.0587 43.5979 40.1322 44.081C37.4233 44.528 34.2887 43.9263 32.7057 41.4398C32.6808 41.4005 32.7339 41.368 32.7647 41.3938C33.8973 42.3245 35.2111 42.7397 36.6385 42.9418C39.1064 43.2906 41.8804 42.699 43.8609 41.1306C44.8116 40.3775 45.497 39.2812 45.7986 38.1014C45.9523 37.4984 46.0053 36.8694 45.9448 36.2487C45.8831 35.6192 45.6072 35.0819 45.4333 34.4869C45.3749 34.286 45.4367 34.0995 45.5582 33.9666C45.5924 33.4835 45.673 32.9964 45.7038 32.5148C45.7381 31.9672 45.7589 31.4198 45.7663 30.8716C45.7804 29.7346 45.7334 28.5955 45.6388 27.4633C45.4656 25.3901 45.0057 23.3671 44.7358 21.3115C44.6358 21.402 44.4926 21.4392 44.3425 21.3601L44.3269 21.3515L44.245 21.3041C44.2403 21.3041 44.235 21.3048 44.2302 21.3054C43.6697 21.3604 43.0883 21.2817 42.5512 21.1127C41.9892 20.9364 41.4676 20.665 41.0016 20.3034C40.9131 20.7572 40.8761 21.2158 40.8755 21.6785C40.8748 21.9675 40.572 22.1175 40.3317 21.994C39.2662 21.4472 38.2484 20.817 37.2823 20.1087C37.1695 20.6928 37.0568 21.2769 36.9432 21.8617C36.8997 22.087 36.6156 22.1779 36.4337 22.0707C35.71 21.6452 35.085 21.0883 34.5761 20.4261C34.4745 20.6225 34.3726 20.8188 34.27 21.0146L34.1155 21.3081C33.9631 21.5964 33.759 21.9153 33.4254 22.0075C33.0722 22.1052 32.7774 21.8739 32.6587 21.5509C32.6224 21.4506 32.5888 21.3474 32.558 21.2436C32.2571 21.9377 31.9175 22.6161 31.5335 23.2633C30.9574 24.2341 30.2659 25.099 29.5764 25.9864C29.367 26.2558 29.0085 25.9986 28.9796 25.7368C28.9628 25.5828 28.9487 25.4281 28.9366 25.2741C28.5348 26.0933 28.1156 26.9049 27.6589 27.6929L27.7243 27.9519C27.9127 28.717 28.0692 29.4875 28.2394 30.2567C28.2943 30.5049 28.1638 30.8597 27.8768 30.9019C27.534 30.9524 27.2097 31.1294 26.8586 31.0076C26.4757 30.8748 26.4 30.5404 26.2193 30.2234C26.1832 30.1603 26.1413 30.1023 26.0962 30.0472L26.0847 30.0623C26.0565 30.0996 25.9894 30.0589 26.0061 30.0162L26.0258 29.9668C25.8705 29.8003 25.6847 29.6613 25.5138 29.5119C25.1078 29.4427 24.6511 29.5184 24.3713 29.6851C23.7342 30.065 23.4415 30.8479 23.4355 31.5677C23.4281 32.4103 23.6865 33.3574 24.1229 34.0778C24.315 34.3946 24.5782 34.6809 24.9259 34.8214C25.271 34.961 25.6449 34.9177 25.9961 35.0492C26.2284 35.1368 26.3714 35.3973 26.231 35.6334C26.2216 35.6497 26.2109 35.6646 26.2008 35.6802L26.3052 35.8203C26.377 35.9173 26.4519 36.0212 26.5217 36.1293C26.7003 36.3369 26.8883 36.5371 27.0703 36.7413C27.4065 37.1177 27.7329 37.5045 28.0638 37.8863C28.376 38.2466 28.7064 38.5851 29.0467 38.9182C29.3683 39.2337 29.7698 39.4989 30.0652 39.8355C30.3525 40.1638 30.4304 40.737 29.9577 40.927C29.4348 41.1378 28.9718 40.6439 28.6198 40.3146L28.605 40.3008C27.9597 39.7007 27.3769 39.015 26.9142 38.26C26.4558 38.5753 25.7927 38.6055 25.3363 38.2902C25.096 38.1243 24.9118 37.8456 24.8222 37.5423C24.7377 37.5615 24.6533 37.5726 24.571 37.5714C24.5287 37.5962 24.4862 37.6203 24.4432 37.6429C24.1028 37.8219 23.6846 37.7419 23.5288 37.3613C23.387 37.0157 23.5331 36.6233 23.6609 36.2903L23.6873 36.2215C23.7598 36.0316 23.8397 35.8247 23.939 35.63C23.6624 35.4197 23.426 35.1585 23.226 34.8614C22.554 33.8607 22.2183 32.3973 22.3667 31.2034C22.456 30.4829 22.7909 29.7367 23.3394 29.2509L23.3194 29.198C23.1656 28.8039 23.0259 28.4083 22.9353 27.9918C22.8293 27.5047 22.7775 27 22.7306 26.5041C22.6312 25.4566 22.6581 24.3854 22.7903 23.342C23.0387 21.378 23.6685 19.45 24.7863 17.8157C24.4693 17.4323 24.2183 16.9812 24.3492 16.4623C24.409 16.2241 24.5452 15.9982 24.7507 15.8618C24.8641 15.7866 24.9991 15.775 25.1126 15.7126L25.1467 15.6937C25.1965 15.6643 25.1584 15.6674 25.1287 15.5308C25.0112 14.9853 25.1085 14.4583 25.7027 14.2771C26.2619 14.1068 26.791 14.4684 27.1219 14.8992C27.988 14.2784 29.1293 13.9535 30.133 13.6774C31.2743 13.3646 32.4451 13.1693 33.6207 13.0485ZM24.266 31.3451C24.2619 30.9008 24.6788 30.6267 25.0891 30.6994C25.3646 30.7478 25.5944 30.914 25.8102 31.0857L25.9154 31.1698C26.1782 31.3783 26.4799 31.603 26.6365 31.8981C26.8661 32.3337 26.3808 32.9197 25.9276 32.6145C25.6168 32.4039 25.4175 32.0666 25.2136 31.7533L25.1925 31.721C25.0998 31.5806 25.0186 31.4313 24.8916 31.3187L24.8642 31.2944C24.8225 31.2585 24.7777 31.2257 24.7238 31.2101C24.6198 31.1799 24.4273 31.2222 24.3815 31.3473L24.3774 31.3601C24.3606 31.4232 24.2667 31.4096 24.266 31.3451Z" fill="#1F2937"/>
<path fill-rule="evenodd" clip-rule="evenodd" d="M41.6566 37.4952C41.2009 37.6762 40.6626 37.719 40.1923 37.5647C39.7426 37.4172 39.3342 37.089 39.0871 36.6761C38.8671 36.3084 38.7751 35.8721 38.9052 35.4371C38.9114 35.4163 38.9316 35.4029 38.9511 35.3977C39.0575 35.4956 39.1232 35.5929 39.1889 35.6896C39.2997 35.8527 39.4106 36.0142 39.563 36.1536C39.7847 36.3565 40.0833 36.5213 40.3797 36.5756C40.6699 36.6289 40.9669 36.5818 41.2268 36.4415C41.3848 36.3562 41.5126 36.2421 41.6391 36.1275C41.7769 36.0028 41.9124 35.8761 42.1022 35.8057C42.2542 35.7492 42.414 35.7968 42.5367 35.8913C42.6685 35.9928 42.7634 36.1517 42.7581 36.3178C42.75 36.5752 42.6385 36.7899 42.4767 36.9671C42.258 37.2066 41.9487 37.3791 41.6566 37.4952ZM41.1156 31.0808C41.6226 31.3922 42.395 32.1183 41.8497 32.8903C41.2077 33.571 40.2834 32.7906 39.8279 32.4376C39.4056 32.164 38.9311 32.8676 39.3229 33.187C42.6142 35.6493 43.9498 31.1623 41.372 30.7147C41.0882 30.6654 40.9828 30.9845 41.1156 31.0808ZM35.7832 26.7662C36.4742 26.7329 37.0831 27.0464 37.7416 27.1889C38.3501 27.3206 38.9496 27.2415 39.5414 27.074C40.5019 26.802 40.8989 28.2877 39.9516 28.5772C39.2617 28.7881 38.5353 28.8028 37.8273 28.6941C37.1985 28.5975 36.6713 28.2881 36.0717 28.108C35.5571 27.9535 34.9518 28.0177 34.4084 28.0904L34.1975 28.1191C33.8839 28.1618 33.5687 28.2046 33.2583 28.2665C32.989 28.3203 32.7201 28.4188 32.4452 28.4302C32.4139 28.4315 32.3875 28.3906 32.4072 28.3632C32.7265 27.9202 33.342 27.5706 33.8316 27.3374L33.8648 27.3217C34.4692 27.037 35.1103 26.7987 35.7832 26.7662ZM35.5301 30.0332L35.53 30.0179C35.5309 29.5853 35.7803 28.5975 36.3966 28.5975C36.7816 28.5975 37.0154 29.2697 37.0558 29.9627L37.0573 29.991C37.0751 30.4218 36.9581 31.3635 36.3966 31.3635C35.8291 31.3635 35.5359 30.4716 35.5301 30.0332ZM44.6039 30.0332L44.604 30.0179C44.603 29.5853 44.3537 28.5975 43.7374 28.5975C43.362 28.5975 43.1304 29.2366 43.0815 29.9108L43.0781 29.9627C43.0538 30.379 43.1632 31.3635 43.7374 31.3635C44.3048 31.3635 44.5981 30.4716 44.6039 30.0332ZM44.5944 26.2393L44.6385 26.2403C45.3588 26.2656 46.0996 26.6967 46.2919 27.4209C46.3018 27.4585 46.256 27.4838 46.2288 27.458C45.6366 26.8977 44.8401 27.4331 44.2471 27.7137L44.0293 27.8154C43.2648 28.1748 42.3953 28.5973 41.5464 28.3295C41.1433 28.2023 40.8872 27.7837 41.0022 27.3609C41.1045 26.9847 41.5539 26.6686 41.9431 26.8044L41.9607 26.8109C42.2769 26.9331 42.6657 26.8092 42.9923 26.6872L43.2606 26.5854C43.692 26.4199 44.1254 26.2349 44.5944 26.2393Z" fill="#1F2937"/>
</svg>
