<svg width="114" height="120" viewBox="0 0 114 120" fill="none" xmlns="http://www.w3.org/2000/svg">
<path d="M106.34 40.9938C104.561 41.2693 103.81 40.6933 102.783 38.4142C102.282 38.84 101.807 39.2407 101.18 39.7917C100.83 39.0153 100.554 38.3641 100.254 37.713C99.9783 37.0618 99.6778 36.9366 99.0517 37.4375C98.6259 37.7881 97.8245 38.1638 97.4739 37.9634C97.0732 37.7631 96.8728 36.9616 96.8227 36.3856C96.7476 35.5842 96.8227 35.2336 95.6456 35.2085C94.3683 35.1835 93.0911 34.2819 91.6635 33.7058C91.4381 35.1334 91.2127 36.5359 90.9623 37.9634C90.3362 38.1137 89.71 38.2389 89.0839 38.4142C87.1054 38.9402 85.9033 38.5645 84.7011 36.8615C83.8997 35.7345 83.2486 34.4822 82.3469 32.9545C83.9999 32.5288 85.4274 32.078 86.9051 31.8275C88.2575 31.6021 90.8621 29.5735 91.2127 28.2461C91.2378 28.1209 91.2628 27.9957 91.2628 27.8955C91.0124 26.5682 90.7619 25.2658 90.4864 23.7882C90.261 23.7882 89.7852 23.8633 89.3594 23.7632C88.558 23.6129 87.8568 23.3374 87.5061 22.4358C87.3559 22.0601 86.855 21.6594 86.4543 21.5592C84.4256 21.0834 83.9748 20.6827 83.7995 18.7042C83.7494 17.9528 83.7745 17.2015 83.7995 16.4501C83.7995 16.2247 83.8246 16.0244 83.8246 15.6988C79.1412 12.9439 74.0071 10.8652 68.5474 9.58794C68.0716 10.8903 67.2451 11.6165 65.7424 11.8169C64.941 11.9171 64.1646 12.7686 63.5385 13.4198C62.3363 14.7221 61.2845 16.1246 60.1575 17.5271C58.4544 16.8258 57.8283 15.4233 57.2273 13.8956C56.4759 11.9922 56.7013 10.2141 57.628 8.48598C57.7031 8.36076 57.8283 8.26058 57.9786 8.1604C57.3525 8.23553 56.6763 8.23553 56.0001 8.23553H55.8248C55.9249 8.31067 56.0001 8.3858 56.0502 8.48598C56.2004 8.71138 56.1003 9.31245 55.8999 9.51281C54.9232 10.3894 53.8713 11.1657 52.8445 11.9922C51.4169 10.2641 50.3651 9.98865 48.111 10.6398C47.6102 10.7901 46.7586 10.8903 46.5082 10.6148C45.6066 9.66307 44.9554 10.2641 44.2542 10.74C43.4027 11.316 42.6263 11.9672 41.7247 12.4681C40.3723 13.2194 40.2471 15.7739 40.8732 16.7507C41.0485 17.0262 41.6746 17.2516 42.0002 17.1514C43.4277 16.8008 44.705 16.1246 45.4814 14.8223C45.8069 14.2713 46.1075 14.3214 46.7336 14.3715C47.4849 14.4215 48.3865 14.096 49.0126 13.6452C50.3901 12.6183 50.5905 12.5432 51.7926 13.7453C52.018 13.9707 52.2434 14.2713 52.5189 14.4466C53.4205 14.9475 53.3954 15.5986 52.9196 16.375C52.594 16.901 52.3686 17.477 52.043 18.1532C52.569 18.2784 53.0198 18.3786 53.5207 18.4788C53.4455 19.0548 53.4205 19.6308 53.2702 20.1567C52.7443 22.0351 51.442 23.5628 49.3633 21.8598C48.662 21.2837 47.7604 21.4591 47.3347 22.2605C46.6835 23.5378 45.5064 23.6379 44.4044 23.5878C41.9 23.4626 39.6209 24.1889 37.4421 25.3159C37.1916 25.4411 36.866 25.6665 36.6657 25.6165C35.138 25.1156 34.2113 26.2676 33.0843 26.8687C31.9824 27.4698 30.8553 28.0458 29.7033 28.5467C28.977 28.8722 28.5512 29.1978 28.5012 30.1495C28.3759 31.8275 27.9502 33.4804 27.6246 35.2586C26.2471 34.6575 25.9967 33.5055 25.8464 32.5538C25.4708 30.1495 24.3438 29.7488 22.6157 29.4232C19.435 28.8222 15.3027 30.7756 13.9753 33.6057C13.4494 34.7327 13.4494 36.2103 13.5746 37.4876C13.6748 38.6146 15.0522 39.1906 16.3545 38.7649C17.1309 38.5144 17.9324 38.4894 18.1077 39.2908C18.2078 39.8167 17.6819 40.4929 17.3313 41.069C17.181 41.3194 16.8054 41.4446 16.5549 41.645C15.7535 42.2961 15.7034 42.9723 16.5549 43.5734C17.156 43.9992 17.2061 44.3498 17.0308 45.0761C16.2794 48.1315 17.757 50.5107 20.8125 51.3122C21.9896 51.6127 22.816 51.0617 23.5674 50.1852C24.0683 49.5841 24.4439 48.7075 25.4708 48.8829C25.7463 48.9329 26.0468 48.983 26.2722 49.1083C27.7248 49.8345 29.1273 50.6861 30.6049 51.3372C31.9573 51.9383 33.2847 52.4141 34.2113 53.7165C34.587 54.2424 35.3383 54.5429 35.9644 54.7683C38.6442 55.7952 40.6728 57.5733 42.1254 60.0026C43.0771 61.6055 43.9536 63.2584 44.8302 64.9114C45.281 65.7378 45.832 66.2387 46.8087 66.4641C48.8874 66.9149 50.8659 67.7664 52.4438 69.2691C53.9715 70.7217 54.1718 72.1492 53.0448 73.9524C52.594 74.7038 51.8427 75.2548 51.3418 75.9811C50.7407 76.8827 50.0645 77.8093 49.764 78.8361C49.0377 81.1903 47.7855 83.244 46.1826 85.0472C45.4814 85.8486 44.2792 86.4497 43.2274 86.65C41.3991 86.9756 40.3973 88.1527 39.4707 89.5051C38.6943 90.6572 37.7676 91.7341 37.1666 92.9613C36.2149 94.8647 34.3616 95.6661 32.7838 96.768C30.3795 98.421 28.6514 100.625 27.875 103.355C27.5244 104.582 28.1505 106.085 28.3258 107.437C28.4511 108.389 28.6264 109.34 28.7766 110.367C25.9216 109.265 24.1184 107.212 22.766 104.782C22.24 103.831 22.1899 102.603 21.9395 101.501C21.7642 100.7 21.7642 99.8485 21.4636 99.1222C20.6372 97.1437 20.9377 95.1401 21.2382 93.1616C21.4135 92.0096 21.4386 90.9327 21.3134 89.7305C21.113 88.0275 21.5889 86.2493 21.7892 84.4962C21.8894 83.6447 22.0898 82.7932 22.1649 81.9417C22.24 81.1402 21.9395 80.5141 21.5137 79.7878C21.0379 78.9363 20.9878 77.7592 21.0379 76.7324C21.088 76.0812 21.1381 75.7557 20.537 75.3299C18.308 73.7771 16.2794 71.7235 15.4029 69.3192C14.3259 66.3139 13.4243 62.9328 15.8036 59.8273C16.9055 58.3747 17.9824 56.822 18.6086 55.1189C19.4601 52.8148 18.9091 51.763 17.2562 50.7862C16.2043 50.1852 15.5281 49.2836 15.4279 48.0564C15.3277 46.8042 14.7517 45.9025 13.825 45.1262C13.2741 44.6754 12.9485 44.2246 13.3242 43.4231C13.6497 42.6718 13.3492 42.1208 12.4977 41.7201C10.8197 40.9437 9.01649 40.1423 8.61578 38.1137C8.41543 37.137 8.41543 35.8847 8.89127 35.0583C11.1453 31.0261 14.0004 27.3946 17.2562 24.1388C18.283 23.112 19.3599 22.1102 20.4619 21.1585C8.54065 31.3016 0.952148 46.4034 0.952148 63.2835C0.952148 93.6876 25.596 118.331 56.0001 118.331C68.0215 118.331 79.1412 114.475 88.1823 107.938L88.2575 107.287C88.583 106.51 88.8836 105.734 89.2092 104.958C89.8353 103.58 90.4363 102.178 91.1125 100.85C91.7387 99.6482 91.5633 98.421 91.1877 97.294C90.236 94.3137 91.4381 92.0096 93.2914 89.9058C93.3666 89.8307 93.4417 89.7556 93.4918 89.6554C94.4685 88.5534 95.5454 87.5266 95.5454 85.9488C95.5454 84.6966 95.4703 83.3191 94.9945 82.1921C94.8692 81.8916 94.7691 81.591 94.6689 81.2905C94.193 79.5123 94.5436 77.8594 95.32 76.2065C95.3451 76.1313 95.3952 76.0562 95.4202 75.9811C95.9211 74.804 96.0714 73.6018 95.9211 72.3997C95.8961 72.1242 95.846 71.8487 95.7708 71.5732C95.6957 71.2977 95.2449 70.8469 95.2198 70.8469C93.7673 71.7736 92.7655 70.2709 91.5133 70.1958C89.8603 70.0956 88.1823 69.8201 86.5795 70.0455C84.8764 70.2959 83.3237 69.9704 82.0715 69.0437C79.7674 67.3407 77.6135 65.3872 75.4597 63.4838C75.059 63.1332 74.8586 62.4069 74.7835 61.8559C74.533 59.2263 75.2093 56.7218 75.8855 54.2173C76.3112 52.6646 76.5617 51.187 76.3363 49.509C76.1359 47.856 77.4382 46.6539 78.7155 45.7022C79.1913 45.3516 79.8425 45.2013 80.3684 44.9008C80.9194 44.5752 81.6207 44.2997 81.9462 43.7988C83.9248 40.7935 87.0052 40.3927 90.1358 40.4428C92.5902 40.4929 95.1197 40.6181 97.4488 41.2693C99.1018 41.7201 100.579 42.9723 101.982 44.0493C103.184 44.9509 104.336 45.6271 105.914 45.4517C106.64 45.3766 107.392 45.5519 108.118 45.6521C107.617 44.0493 107.016 42.4965 106.34 40.9938ZM23.1917 39.2157C23.5423 37.7881 24.8196 37.137 25.7463 37.8382C26.9484 38.7398 28.2507 39.1155 29.7283 39.1656C30.079 39.1906 30.4045 39.416 30.7552 39.5663C30.7051 39.7416 30.68 39.8919 30.6299 40.0672C28.1505 39.7666 25.6962 39.4911 23.1917 39.2157ZM33.7104 43.6986C32.1326 43.5484 30.655 43.3981 29.0521 43.2478C30.6299 42.0206 32.1827 41.2693 34.011 42.9723C33.9108 43.2228 33.7856 43.5233 33.7104 43.6986ZM69.1735 15.824C68.9732 16.3249 68.7227 17.1514 68.3721 17.2265C67.746 17.3518 67.0197 17.0763 66.3936 16.8008C65.7675 16.5503 65.2415 16.0995 64.6655 15.7239C64.7156 15.5736 64.7907 15.3983 64.8408 15.248C65.8927 14.8473 66.9445 14.3715 68.0215 14.096C68.4222 13.9958 69.0483 14.2963 69.3989 14.6219C69.5492 14.8223 69.3238 15.4484 69.1735 15.824ZM80.7191 25.1657C80.4937 24.7399 80.3183 24.3392 80.0929 23.9134C81.1198 23.4626 81.5706 22.7614 81.27 21.6344C81.245 21.5342 82.0715 21.0583 82.1466 21.1335C83.6994 22.5861 85.7029 23.5378 86.5043 25.8168C86.9051 26.9438 86.3791 27.2944 85.8031 27.7452C84.5509 28.6969 83.1484 28.171 82.8228 26.6683C82.6725 26.0422 82.5974 25.3911 82.4722 24.5646C81.821 24.7649 81.2951 24.9403 80.7191 25.1657Z" fill="#D5DDEA"/>
<path fill-rule="evenodd" clip-rule="evenodd" d="M56.8191 6.7355L56.8248 6.73547L57.0131 6.73548C57.6801 6.73548 58.3789 6.73548 59.0823 6.76149C62.8104 6.89016 66.4385 7.37883 69.9401 8.20266C94.9463 14.0683 113.548 36.5001 113.548 63.2834C113.548 94.5159 88.2326 119.831 57.0001 119.831C25.7676 119.831 0.452148 94.5159 0.452148 63.2834C0.452148 45.7226 8.44573 30.0355 21.011 19.6691C21.0318 19.6511 21.0527 19.6339 21.0737 19.6175C21.1121 19.5875 21.1488 19.5617 21.1828 19.5394C30.8729 11.5736 43.2984 6.78681 56.8191 6.7355ZM21.3529 19.442C21.356 19.4404 21.3569 19.44 21.3545 19.4412C21.3543 19.4413 21.3537 19.4416 21.3529 19.442ZM57.0001 9.73548H56.8276C43.9974 9.78484 32.2186 14.3329 23.0397 21.8965C23.0189 21.9145 22.998 21.9317 22.977 21.9481C22.939 21.9778 22.9026 22.0035 22.8688 22.0256C10.9957 31.8458 3.45215 46.678 3.45215 63.2834C3.45215 92.8591 27.4244 116.831 57.0001 116.831C86.5758 116.831 110.548 92.8591 110.548 63.2834C110.548 37.924 92.9354 16.6781 69.2549 11.1234L69.2539 11.1231C65.9443 10.3444 62.5108 9.88149 58.977 9.75964L58.9732 9.7595C58.3293 9.73566 57.6809 9.73548 57.0001 9.73548Z" fill="#D5DDEA"/>
<path d="M83.1201 0C88.4958 0 92.8433 4.43897 92.8433 9.92771C92.8433 14.3067 86.6745 22.9747 84.1482 26.3339C83.6195 27.0537 82.562 27.0537 82.0332 26.3339C79.5069 22.9747 73.3381 14.3067 73.3381 9.92771C73.3969 4.43897 77.7444 0 83.1201 0Z" fill="#989FB0"/>
<path d="M82.8737 13.8704C85.0282 13.8704 86.7747 12.1238 86.7747 9.96935C86.7747 7.81487 85.0282 6.06831 82.8737 6.06831C80.7192 6.06831 78.9727 7.81487 78.9727 9.96935C78.9727 12.1238 80.7192 13.8704 82.8737 13.8704Z" fill="white"/>
<path fill-rule="evenodd" clip-rule="evenodd" d="M77.558 30.084C77.5856 31.2806 76.638 32.273 75.4413 32.3007C75.3085 32.3037 75.176 32.3074 75.0438 32.3116C73.8474 32.3496 72.8468 31.4106 72.8088 30.2142C72.7708 29.0179 73.7098 28.0173 74.9061 27.9793C75.0509 27.9747 75.1959 27.9707 75.3413 27.9673C76.5379 27.9397 77.5303 28.8873 77.558 30.084ZM80.7318 30.257C80.8832 29.0696 81.9684 28.2299 83.1558 28.3812C83.2283 28.3905 83.3008 28.3999 83.3735 28.4095C84.5602 28.5656 85.3956 29.6542 85.2395 30.8409C85.0833 32.0276 83.9947 32.863 82.808 32.7069C82.7411 32.6981 82.6743 32.6894 82.6075 32.6809C81.4202 32.5295 80.5804 31.4443 80.7318 30.257ZM69.6542 30.5647C69.8826 31.7396 69.1153 32.8773 67.9404 33.1058C67.8099 33.1311 67.6797 33.1571 67.5499 33.1835C66.3771 33.4227 65.2325 32.6658 64.9934 31.493C64.7542 30.3201 65.5111 29.1756 66.684 28.9364C66.8266 28.9074 66.9697 28.8789 67.1131 28.851C68.288 28.6225 69.4257 29.3898 69.6542 30.5647ZM61.9444 32.3792C62.371 33.4975 61.8102 34.7499 60.6919 35.1765C60.5678 35.2238 60.4442 35.2716 60.321 35.3199C59.2066 35.7565 57.9492 35.2071 57.5125 34.0926C57.0759 32.9782 57.6253 31.7208 58.7398 31.2841C58.8751 31.2311 59.0109 31.1786 59.1471 31.1266C60.2655 30.7001 61.5179 31.2608 61.9444 32.3792ZM54.6596 35.4864C55.2688 36.5167 54.9274 37.8458 53.8971 38.455C53.7833 38.5223 53.6701 38.5899 53.5573 38.6579C52.5324 39.2761 51.2004 38.9464 50.5822 37.9214C49.964 36.8965 50.2937 35.5645 51.3187 34.9463C51.4422 34.8718 51.5664 34.7976 51.691 34.7239C52.7213 34.1147 54.0504 34.4561 54.6596 35.4864ZM47.9981 39.773C48.7699 40.6878 48.6539 42.0551 47.7391 42.8269C47.6376 42.9126 47.5367 42.9984 47.4365 43.0845C46.5285 43.8644 45.1602 43.7605 44.3803 42.8525C43.6005 41.9445 43.7043 40.5762 44.6124 39.7964C44.7222 39.702 44.8328 39.6078 44.9441 39.514C45.859 38.7421 47.2263 38.8581 47.9981 39.773ZM42.1418 45.1078C43.0615 45.874 43.1859 47.2405 42.4198 48.1602C42.3357 48.2611 42.2525 48.3619 42.1703 48.4627C41.4133 49.3899 40.0481 49.5279 39.1209 48.7709C38.1937 48.014 38.0557 46.6487 38.8126 45.7215C38.904 45.6096 38.9963 45.4977 39.0895 45.3858C39.8556 44.4662 41.2222 44.3417 42.1418 45.1078ZM37.3378 51.4092C38.4084 51.9443 38.8426 53.246 38.3076 54.3167C38.2795 54.3727 38.2519 54.4286 38.2246 54.4842C37.6982 55.5592 36.4 56.0037 35.325 55.4773C34.2501 54.9508 33.8055 53.6526 34.332 52.5776C34.3644 52.5115 34.3971 52.4453 34.4303 52.379C34.9654 51.3083 36.2671 50.8741 37.3378 51.4092Z" fill="#AAB2C5"/>
<path d="M34.3722 9.10237C42.4954 9.10237 49.0651 15.546 49.0651 23.5136C49.0651 29.8702 39.7433 42.4527 35.9258 47.329C35.1268 48.3739 33.5288 48.3739 32.7298 47.329C28.9123 42.4527 19.5906 29.8702 19.5906 23.5136C19.6794 15.546 26.249 9.10237 34.3722 9.10237Z" fill="url(#paint0_linear_1557_43395)"/>
<path d="M34.3277 29.4745C37.4397 29.4745 39.9625 26.8547 39.9625 23.623C39.9625 20.3912 37.4397 17.7714 34.3277 17.7714C31.2157 17.7714 28.6929 20.3912 28.6929 23.623C28.6929 26.8547 31.2157 29.4745 34.3277 29.4745Z" fill="white"/>
<defs>
<linearGradient id="paint0_linear_1557_43395" x1="19.5771" y1="28.6118" x2="49.0704" y2="28.6118" gradientUnits="userSpaceOnUse">
<stop stop-color="#B0BACC"/>
<stop offset="1" stop-color="#969EAE"/>
</linearGradient>
</defs>
</svg>
