<svg width="12" height="13" viewBox="0 0 12 13" fill="none" xmlns="http://www.w3.org/2000/svg">
<path d="M3.08366 1.44746C4.18875 0.809478 5.47255 0.551447 6.73832 0.712913C8.0041 0.874379 9.18201 1.44643 10.0915 2.34141C11.0011 3.23639 11.5921 4.40491 11.774 5.66791C11.9558 6.93092 11.7186 8.21871 11.0985 9.33396C10.4784 10.4492 9.50979 11.3304 8.34101 11.8424C7.17222 12.3545 5.86778 12.4692 4.62758 12.1689C3.38738 11.8686 2.27984 11.17 1.47469 10.1801C0.669543 9.19013 0.211202 7.96349 0.169909 6.68813L0.166992 6.49913L0.169909 6.31013C0.202087 5.31873 0.48654 4.35191 0.996383 3.50105C1.50623 2.65019 2.22462 1.9434 3.08366 1.44746Z" fill="#E8EDF1"/>
</svg>
