<svg width="254" height="199" viewBox="0 0 254 199" fill="none" xmlns="http://www.w3.org/2000/svg">
<path d="M129.023 144.915C161.29 144.915 187.447 118.593 187.447 86.1233C187.447 53.6538 161.29 27.332 129.023 27.332C96.7566 27.332 70.5992 53.6538 70.5992 86.1233C70.5992 118.593 96.7566 144.915 129.023 144.915Z" fill="#EAEEF9"/>
<path d="M149.875 22.9725C150.403 22.4875 150.439 21.6641 149.957 21.1333C149.475 20.6026 148.657 20.5655 148.13 21.0505C147.602 21.5355 147.565 22.359 148.047 22.8897C148.529 23.4204 149.348 23.4575 149.875 22.9725Z" fill="#EAEEF9"/>
<path fill-rule="evenodd" clip-rule="evenodd" d="M126.241 144.563C126.321 143.54 126.688 142.561 127.576 141.679C128.444 140.815 129.312 139.951 130.181 138.8C132.24 136.495 134.529 137.152 137.251 137.933C137.589 138.03 137.933 138.129 138.284 138.224C142.351 139.176 143.65 135.801 145.612 130.701C146.024 129.631 146.465 128.484 146.967 127.286C148.725 123.79 146.125 122.243 143.326 120.579C142.9 120.325 142.468 120.069 142.047 119.802C139.578 118.329 139.636 116.018 139.707 113.226C139.719 112.746 139.732 112.25 139.732 111.743C139.461 108.781 141.66 107.456 143.781 106.178C146.194 104.724 148.508 103.33 146.967 99.6531C146.59 98.7526 146.242 97.8864 145.912 97.0633C143.707 91.5719 142.274 88.0015 137.995 89.0028C137.617 89.1055 137.246 89.2122 136.884 89.3167C134.196 90.0913 131.931 90.7441 129.891 88.715C129.325 88.0819 128.742 87.5348 128.193 87.019C126.493 85.4242 125.112 84.1289 125.55 81.5189C127.349 73.8511 126.866 73.6728 118.833 70.7063C117.819 70.3319 116.685 69.9132 115.42 69.4294C111.725 68.0512 110.405 70.3388 109.02 72.7386C107.802 74.8499 106.534 77.0481 103.554 76.9133C102.876 76.9133 102.221 76.9462 101.592 76.9777C98.9957 77.1078 96.8476 77.2155 95.4498 74.8984C91.3173 68.2198 90.8726 68.418 82.8031 72.0156C81.83 72.4494 80.7461 72.9326 79.5315 73.4592C75.5554 75.1539 76.5957 78.5117 77.73 82.1725C77.7516 82.2424 77.7733 82.3123 77.7949 82.3824C78.482 85.1156 76.9944 86.5872 75.1964 88.366C74.7221 88.8352 74.2263 89.3257 73.743 89.8664C72.8864 90.84 71.9005 91.2476 70.8536 91.3502C73.5306 120.318 97.0929 143.188 126.241 144.563ZM96.0286 129.589C104.422 132.755 113.973 128.726 117.157 120.378C120.34 112.03 116.288 102.532 107.895 99.3653C99.5017 96.199 89.9507 100.229 86.7671 108.576C83.5834 116.924 87.6353 126.423 96.0286 129.589Z" fill="url(#paint0_linear_2517_54728)"/>
<path d="M172.088 66.6903C171.857 63.251 172.319 60.9581 170.007 60.7288C168.388 60.4995 167.231 60.7288 166.538 59.3531C165.844 57.9773 164.919 56.8309 165.844 55.6844C168.156 52.2451 167.463 52.4744 163.531 48.8058C160.987 46.5129 159.831 51.328 157.287 50.1815C155.899 49.4936 154.512 49.4936 154.049 47.8886C153.124 43.9907 153.124 44.4493 147.573 44.6786C145.492 44.6786 145.492 46.5129 145.492 48.3472C145.261 49.9522 144.104 50.1815 142.486 50.8694C139.942 52.2451 138.323 47.6593 136.01 50.1815C134.854 51.328 133.929 52.4744 133.004 53.8501C132.31 55.6844 133.929 56.143 134.854 57.748C134.854 57.748 134.854 57.748 134.854 57.9773C135.085 58.4359 134.854 58.8945 134.854 59.3531C134.854 59.5823 134.622 60.0409 134.622 60.2702C134.16 61.4166 134.16 62.3338 132.772 62.5631C128.841 63.251 129.303 63.4802 129.534 68.9832C129.766 72.4225 133.929 69.9003 135.085 72.4225C135.547 73.3397 136.473 74.7154 136.01 75.6325C135.779 76.5497 134.854 77.2376 134.622 78.1547C133.466 80.2183 135.547 81.3648 137.629 83.1991C140.173 85.4919 141.329 80.6769 143.873 81.8233C146.88 82.9698 146.648 82.2819 147.342 85.7212C147.805 88.0141 150.58 87.3263 153.586 87.097C157.056 86.8677 154.512 82.7405 157.056 81.594C157.518 81.3648 158.212 81.1355 158.674 80.9062C160.062 80.2183 160.987 81.1355 162.375 81.8233C164.456 83.1991 165.613 81.1355 167.925 78.384C169.313 76.779 167.925 75.6325 166.769 74.2568C165.844 73.1104 166.538 71.9639 167 70.3589C167.925 68.066 172.319 70.1296 172.088 66.6903ZM156.13 71.0468C153.355 74.0275 148.73 74.4861 145.492 71.7346C142.486 68.9832 142.023 64.3974 144.798 61.1874C147.573 58.2066 152.199 57.748 155.437 60.4995C158.443 63.251 158.906 67.8367 156.13 71.0468Z" fill="url(#paint1_linear_2517_54728)"/>
<path d="M58.1268 84.9833C55.9077 86.0774 54.9849 88.7698 56.0658 90.997C57.1467 93.2241 59.8218 94.1426 62.0409 93.0485C64.26 91.9543 65.1827 89.2619 64.1019 87.0348C63.021 84.8076 60.3459 83.8892 58.1268 84.9833Z" fill="#EAEEF9"/>
<path d="M144.992 150.307C143.369 150.357 142.089 151.72 142.133 153.352C142.177 154.983 143.528 156.266 145.151 156.216C146.775 156.166 148.055 154.803 148.011 153.172C147.967 151.54 146.615 150.258 144.992 150.307Z" fill="#EAEEF9"/>
<path d="M136.12 157.76C135.016 157.793 134.145 158.72 134.175 159.83C134.205 160.939 135.124 161.811 136.228 161.778C137.332 161.744 138.202 160.817 138.173 159.707C138.143 158.598 137.224 157.726 136.12 157.76Z" fill="#EAEEF9"/>
<path d="M52.182 104.067C51.2476 104.528 50.8591 105.662 51.3142 106.599C51.7693 107.537 52.8957 107.924 53.83 107.463C54.7644 107.002 55.1529 105.869 54.6978 104.931C54.2427 103.993 53.1163 103.606 52.182 104.067Z" fill="#EAEEF9"/>
<path d="M89.9229 143.97C89.2802 144.287 89.013 145.067 89.326 145.712C89.6391 146.357 90.4138 146.623 91.0565 146.306C91.6991 145.989 91.9663 145.209 91.6533 144.564C91.3403 143.919 90.5656 143.653 89.9229 143.97Z" fill="#EAEEF9"/>
<path d="M138.266 25.241L124.155 39.6905C119.773 44.1214 112.87 44.7631 108.625 41.0393C104.381 37.3155 104.41 30.7965 108.791 26.3656L122.903 11.916C127.284 7.48512 134.188 6.84348 138.433 10.5673C142.722 14.1747 142.648 20.8101 138.266 25.241Z" fill="url(#paint2_linear_2517_54728)"/>
<path d="M134.627 23.9783C137.503 20.9225 137.551 16.3861 134.733 13.8461C131.915 11.3061 127.298 11.7242 124.422 14.78C121.545 17.8358 121.497 22.3721 124.315 24.9121C127.133 27.4522 131.75 27.0341 134.627 23.9783Z" fill="white"/>
<g filter="url(#filter0_d_2517_54728)">
<path d="M93.2018 44.0205L89.3259 47.5778C88.8647 47.991 88.143 48.1323 87.5216 47.9311L82.9028 46.5107C82.2814 46.3095 81.7602 45.7658 81.6894 45.1554L80.5751 40.5949C80.4147 39.9805 80.6153 39.2955 81.0764 38.8823L84.9524 35.325C85.229 35.077 85.2451 34.5573 84.9845 34.2854C84.8976 34.1948 84.7212 34.1002 84.5422 34.0922C81.0607 33.59 77.6205 34.6511 75.1305 36.8823C71.9923 39.7785 70.7812 44.1486 72.0011 48.1934L45.8997 71.666C43.6837 73.7359 43.4897 77.1104 45.6613 79.3759C47.746 81.5508 51.2382 81.7065 53.362 79.7192L79.7401 55.9987C83.6479 57.2139 87.8913 56.2754 90.845 53.5444C93.4272 51.2306 94.6958 47.904 94.4394 44.5962C94.4528 44.163 94.0131 43.8832 93.6549 43.8672C93.4758 43.8592 93.3836 43.9419 93.2018 44.0205ZM48.8022 76.393C48.0204 75.5774 48.0606 74.278 48.8906 73.5343C49.7206 72.7906 50.9742 72.8464 51.756 73.662C52.5377 74.4776 52.4976 75.777 51.6676 76.5207C50.8376 77.2645 49.584 77.2086 48.8022 76.393C48.7995 76.4796 48.7995 76.4796 48.8022 76.393Z" fill="#D5DDEA"/>
</g>
<path opacity="0.4" d="M71.8749 53.138L52.6028 70.0659" stroke="#D6DCE8" stroke-width="2" stroke-miterlimit="10"/>
<path opacity="0.4" d="M74.9605 56.3141L55.5995 73.2358" stroke="#D6DCE8" stroke-width="2" stroke-miterlimit="10"/>
<path d="M201.626 46.6893C201.222 46.4499 200.608 46.4756 200.025 46.7137C199.008 47.3756 197.735 47.1086 197.12 46.2586C196.82 45.8867 196.744 45.3559 196.922 44.8786C197.101 44.4012 196.905 43.8968 196.381 43.6838L195.302 43.0455L193.525 45.2985L173.024 33.1709C172.754 33.0114 172.589 32.7193 172.559 32.507L172.483 31.9762C172.422 31.5515 172.137 31.2858 171.748 31.1526L166.43 29.3676L163.608 32.9459L167.463 36.5863C167.747 36.852 168.137 36.9852 168.616 36.8798L169.214 36.7479C169.573 36.6688 169.828 36.7222 170.098 36.8818L190.599 49.0093L188.822 51.2623L189.901 51.9006C190.306 52.14 190.92 52.1143 191.383 51.9026C192.4 51.2407 193.673 51.5077 194.288 52.3577C194.588 52.7296 194.664 53.2604 194.485 53.7377C194.307 54.2151 194.622 54.6932 195.027 54.9325L209.728 63.6292C212.021 64.9856 215.492 64.2208 217.269 61.9678C217.269 61.9678 217.374 61.8353 217.359 61.7291C219 59.3964 218.471 56.5565 216.178 55.2001L201.626 46.6893Z" fill="url(#paint3_linear_2517_54728)"/>
<path opacity="0.4" d="M198.187 53.7314L209.247 60.7179" stroke="#D6DCE8" stroke-width="2" stroke-miterlimit="10"/>
<path opacity="0.4" d="M200.074 51.0806L211.135 58.0669" stroke="#D6DCE8" stroke-width="2" stroke-miterlimit="10"/>
<g filter="url(#filter1_d_2517_54728)">
<path d="M188.991 86.2968L163.065 102.104C161.656 102.963 161.228 104.758 162.102 106.142L178.189 131.617C179.063 133.002 180.89 133.422 182.299 132.563L208.225 116.756C209.634 115.897 210.062 114.102 209.188 112.718L193.101 87.2426C192.227 85.8581 190.4 85.4377 188.991 86.2968Z" fill="#D5DDEA"/>
</g>
<path d="M190.882 96.5535L183.062 101.321C181.678 100.056 179.693 99.5402 177.881 100.07C175.092 100.907 173.544 103.864 174.467 106.562L172.001 108.065C171.367 108.452 171.153 109.349 171.546 109.972C171.984 110.664 172.897 110.874 173.531 110.488L175.997 108.985C177.294 110.111 179.077 110.462 180.678 110.062C183.483 109.406 185.189 106.544 184.521 103.787L192.412 98.9764C193.046 98.5898 193.26 97.6924 192.867 97.0694C192.5 96.3341 191.587 96.124 190.882 96.5535ZM181.81 105.057C181.844 105.419 181.764 105.756 181.57 106.066C181.473 106.221 181.446 106.334 181.305 106.419C181.137 106.618 181.04 106.773 180.829 106.902C179.745 107.658 178.305 107.386 177.535 106.321C177.491 106.252 177.491 106.252 177.447 106.183C176.748 105.075 177.139 103.686 178.196 103.042C179.253 102.397 180.623 102.712 181.349 103.708C181.611 104.123 181.803 104.582 181.81 105.057ZM198.619 108.807L196.224 110.267C194.84 109.002 192.855 108.486 191.043 109.015C188.254 109.853 186.777 112.767 187.629 115.507L179.738 120.318C179.034 120.748 178.82 121.645 179.257 122.337C179.694 123.03 180.607 123.24 181.312 122.81L189.203 117.999C190.5 119.126 192.212 119.52 193.883 119.077C196.689 118.421 198.395 115.559 197.727 112.802L200.193 111.299C200.898 110.869 201.111 109.972 200.674 109.279C200.237 108.587 199.324 108.377 198.619 108.807ZM194.572 112.904C194.921 113.458 194.902 114.045 194.768 114.606C194.742 114.718 194.644 114.873 194.618 114.986C194.52 115.141 194.494 115.253 194.396 115.408C194.299 115.563 194.229 115.606 194.132 115.761C194.061 115.804 193.991 115.847 193.92 115.89C193.85 115.933 193.779 115.976 193.709 116.019C193.568 116.105 193.427 116.191 193.243 116.207C193.172 116.25 193.102 116.293 192.987 116.267C192.081 116.532 190.966 116.157 190.398 115.257C189.874 114.426 189.93 113.433 190.459 112.727C190.627 112.529 190.724 112.374 190.935 112.245C191.006 112.202 191.076 112.159 191.147 112.116C192.274 111.429 193.688 111.813 194.343 112.852C194.599 112.792 194.642 112.861 194.572 112.904Z" fill="white"/>
<defs>
<filter id="filter0_d_2517_54728" x="0.131104" y="11.9697" width="138.341" height="135.144" filterUnits="userSpaceOnUse" color-interpolation-filters="sRGB">
<feFlood flood-opacity="0" result="BackgroundImageFix"/>
<feColorMatrix in="SourceAlpha" type="matrix" values="0 0 0 0 0 0 0 0 0 0 0 0 0 0 0 0 0 0 127 0" result="hardAlpha"/>
<feOffset dy="22"/>
<feGaussianBlur stdDeviation="22"/>
<feColorMatrix type="matrix" values="0 0 0 0 0.397708 0 0 0 0 0.47749 0 0 0 0 0.575 0 0 0 0.27 0"/>
<feBlend mode="normal" in2="BackgroundImageFix" result="effect1_dropShadow_2517_54728"/>
<feBlend mode="normal" in="SourceGraphic" in2="effect1_dropShadow_2517_54728" result="shape"/>
</filter>
<filter id="filter1_d_2517_54728" x="117.649" y="63.8516" width="135.992" height="135.157" filterUnits="userSpaceOnUse" color-interpolation-filters="sRGB">
<feFlood flood-opacity="0" result="BackgroundImageFix"/>
<feColorMatrix in="SourceAlpha" type="matrix" values="0 0 0 0 0 0 0 0 0 0 0 0 0 0 0 0 0 0 127 0" result="hardAlpha"/>
<feOffset dy="22"/>
<feGaussianBlur stdDeviation="22"/>
<feColorMatrix type="matrix" values="0 0 0 0 0.397708 0 0 0 0 0.47749 0 0 0 0 0.575 0 0 0 0.27 0"/>
<feBlend mode="normal" in2="BackgroundImageFix" result="effect1_dropShadow_2517_54728"/>
<feBlend mode="normal" in="SourceGraphic" in2="effect1_dropShadow_2517_54728" result="shape"/>
</filter>
<linearGradient id="paint0_linear_2517_54728" x1="109.202" y1="71.6377" x2="109.202" y2="114.043" gradientUnits="userSpaceOnUse">
<stop stop-color="#B0BACC"/>
<stop offset="1" stop-color="#969EAE"/>
</linearGradient>
<linearGradient id="paint1_linear_2517_54728" x1="150.745" y1="46.021" x2="150.745" y2="70.0672" gradientUnits="userSpaceOnUse">
<stop stop-color="#B0BACC"/>
<stop offset="1" stop-color="#969EAE"/>
</linearGradient>
<linearGradient id="paint2_linear_2517_54728" x1="118.033" y1="14.8106" x2="124.909" y2="27.9436" gradientUnits="userSpaceOnUse">
<stop stop-color="#B0BACC"/>
<stop offset="1" stop-color="#969EAE"/>
</linearGradient>
<linearGradient id="paint3_linear_2517_54728" x1="188.161" y1="26.1499" x2="193.492" y2="50.3443" gradientUnits="userSpaceOnUse">
<stop stop-color="#B0BACC"/>
<stop offset="1" stop-color="#969EAE"/>
</linearGradient>
</defs>
</svg>
