<svg width="12" height="13" viewBox="0 0 12 13" fill="none" xmlns="http://www.w3.org/2000/svg">
<path d="M8.91699 1.44762C9.79681 1.95562 10.5287 2.68459 11.0402 3.56238C11.5517 4.44016 11.8251 5.43632 11.8333 6.45223C11.8415 7.46815 11.5843 8.46859 11.087 9.35453C10.5897 10.2405 9.86972 10.9812 8.99822 11.5033C8.12671 12.0255 7.13396 12.3109 6.11822 12.3315C5.10248 12.352 4.09898 12.107 3.20707 11.6205C2.31515 11.1341 1.56575 10.4231 1.03305 9.558C0.500345 8.69292 0.202814 7.7037 0.169909 6.68829L0.166992 6.49929L0.169909 6.31029C0.202577 5.30286 0.495728 4.3211 1.02078 3.4607C1.54584 2.6003 2.28487 1.89063 3.16585 1.40088C4.04682 0.911135 5.03966 0.658018 6.04758 0.666208C7.0555 0.674399 8.04409 0.943618 8.91699 1.44762ZM8.16274 4.9202C8.06229 4.81977 7.92865 4.75943 7.78689 4.75052C7.64512 4.7416 7.50498 4.78472 7.39274 4.87179L7.33791 4.9202L5.41699 6.84054L4.66274 6.08687L4.60791 6.03845C4.49567 5.95145 4.35554 5.90838 4.21381 5.91733C4.07208 5.92627 3.93848 5.9866 3.83806 6.08702C3.73764 6.18744 3.67731 6.32104 3.66836 6.46277C3.65942 6.6045 3.70249 6.74463 3.78949 6.85687L3.83791 6.9117L5.00457 8.07837L5.05941 8.12679C5.16171 8.20616 5.28751 8.24924 5.41699 8.24924C5.54647 8.24924 5.67227 8.20616 5.77457 8.12679L5.82941 8.07837L8.16274 5.74504L8.21116 5.6902C8.29822 5.57797 8.34134 5.43782 8.33243 5.29606C8.32351 5.15429 8.26318 5.02065 8.16274 4.9202Z" fill="#28A138"/>
</svg>
