<svg width="24" height="24" viewBox="0 0 24 24" fill="none" xmlns="http://www.w3.org/2000/svg">
<path fill-rule="evenodd" clip-rule="evenodd" d="M7.67317 2.7612C8.88642 2.25866 10.1868 2 11.5 2C12.8132 2 14.1136 2.25866 15.3268 2.7612C16.5401 3.26375 17.6425 4.00035 18.5711 4.92893C19.4997 5.85752 20.2362 6.95991 20.7388 8.17317C21.2413 9.38642 21.5 10.6868 21.5 12C21.5 12.5523 21.0523 13 20.5 13C19.9477 13 19.5 12.5523 19.5 12C19.5 10.9494 19.2931 9.90914 18.891 8.93853C18.489 7.96793 17.8997 7.08602 17.1569 6.34315C16.414 5.60028 15.5321 5.011 14.5615 4.60896C13.5909 4.20693 12.5506 4 11.5 4C10.4494 4 9.40914 4.20693 8.43853 4.60896C7.46793 5.011 6.58601 5.60028 5.84315 6.34315C5.10028 7.08601 4.511 7.96793 4.10896 8.93853C3.70693 9.90914 3.5 10.9494 3.5 12C3.5 13.0506 3.70693 14.0909 4.10896 15.0615C4.42443 15.8231 4.85518 16.5301 5.38495 17.1581C5.69341 16.7116 6.07446 16.3154 6.51557 15.9875C7.37834 15.346 8.42488 14.9997 9.49997 15H9.50004H9.50026H12.5C13.0523 15 13.5 15.4477 13.5 16C13.5 16.5523 13.0523 17 12.5 17H9.49997H9.49967C8.85456 16.9998 8.22657 17.2076 7.70886 17.5925C7.36827 17.8457 7.08735 18.1667 6.88214 18.5326C7.3663 18.8749 7.88816 19.1631 8.43853 19.391C9.40914 19.7931 10.4494 20 11.5 20C12.0523 20 12.5 20.4477 12.5 21C12.5 21.5523 12.0523 22 11.5 22C10.1868 22 8.88642 21.7413 7.67317 21.2388C6.45991 20.7362 5.35752 19.9997 4.42893 19.0711C3.50035 18.1425 2.76375 17.0401 2.2612 15.8268C1.75866 14.6136 1.5 13.3132 1.5 12C1.5 10.6868 1.75866 9.38642 2.2612 8.17317C2.76375 6.95991 3.50035 5.85752 4.42893 4.92893C5.35752 4.00035 6.45991 3.26375 7.67317 2.7612ZM8.67157 7.17157C9.42172 6.42143 10.4391 6 11.5 6C12.5609 6 13.5783 6.42143 14.3284 7.17157C15.0786 7.92172 15.5 8.93913 15.5 10C15.5 11.0609 15.0786 12.0783 14.3284 12.8284C13.5783 13.5786 12.5609 14 11.5 14C10.4391 14 9.42172 13.5786 8.67157 12.8284C7.92143 12.0783 7.5 11.0609 7.5 10C7.5 8.93913 7.92143 7.92172 8.67157 7.17157ZM11.5 8C10.9696 8 10.4609 8.21071 10.0858 8.58579C9.71071 8.96086 9.5 9.46957 9.5 10C9.5 10.5304 9.71071 11.0391 10.0858 11.4142C10.4609 11.7893 10.9696 12 11.5 12C12.0304 12 12.5391 11.7893 12.9142 11.4142C13.2893 11.0391 13.5 10.5304 13.5 10C13.5 9.46957 13.2893 8.96086 12.9142 8.58579C12.5391 8.21071 12.0304 8 11.5 8ZM20.5 18.4142L17.2071 21.7071C16.8166 22.0976 16.1834 22.0976 15.7929 21.7071C15.4024 21.3166 15.4024 20.6834 15.7929 20.2929L19.0858 17H17C16.4477 17 16 16.5523 16 16C16 15.4477 16.4477 15 17 15H21.4993H21.5C21.501 15 21.502 15 21.503 15C21.6375 15.0004 21.7657 15.0273 21.8828 15.0759C22.0007 15.1247 22.1112 15.197 22.2071 15.2929C22.3902 15.476 22.4874 15.7123 22.4989 15.952C22.4996 15.968 22.5 15.984 22.5 16C22.5 16.0003 22.5 16.0007 22.5 16.001V20.5C22.5 21.0523 22.0523 21.5 21.5 21.5C20.9477 21.5 20.5 21.0523 20.5 20.5V18.4142Z" fill="#4F5E71"/>
</svg>
