<svg width="88" height="75" viewBox="0 0 88 75" fill="none" xmlns="http://www.w3.org/2000/svg">
<path d="M42.917 65.0311C59.4764 65.0311 72.9179 51.7162 72.9179 35.2968C72.9179 18.8774 59.4764 5.5625 42.917 5.5625C26.3575 5.5625 12.916 18.8774 12.916 35.2968C12.916 51.7162 26.3575 65.0311 42.917 65.0311Z" fill="#EAEEF9"/>
<path d="M9.31301 31.7094C10.4216 31.7094 11.3223 30.8815 11.3223 29.7087C11.3223 28.5359 10.4216 27.708 9.31301 27.708C8.20443 27.708 7.30371 28.5359 7.30371 29.7087C7.30371 30.8815 8.27372 31.7094 9.31301 31.7094Z" fill="#EAEEF9"/>
<path d="M7.37288 25.3621C8.13503 25.3621 8.68932 24.7412 8.68932 23.9823C8.68932 23.2924 8.06575 22.6025 7.37288 22.6025C6.68002 22.6025 6.05644 23.2234 6.05644 23.9823C5.91787 24.8102 6.54145 25.3621 7.37288 25.3621Z" fill="#EAEEF9"/>
<path d="M78.6691 36.6775C80.0548 36.6775 81.2327 35.5736 81.2327 34.1249C81.2327 32.6761 80.1241 31.5723 78.6691 31.5723C77.2833 31.5723 76.1055 32.6761 76.1055 34.1249C76.1748 35.5736 77.2833 36.6775 78.6691 36.6775Z" fill="#EAEEF9"/>
<g filter="url(#filter0_d_6518_5907)">
<path d="M70.2161 56.4769H16.0342C13.8171 56.4769 12.0156 54.6832 12.0156 52.4756V19.5678C12.0156 17.3601 13.8171 15.5664 16.0342 15.5664H70.1468C72.364 15.5664 74.1654 17.3601 74.1654 19.5678V52.4756C74.2347 54.6832 72.4332 56.4769 70.2161 56.4769Z" fill="#D5DDEA"/>
</g>
<path d="M16.0342 26.2606V20.8794C16.0342 20.0516 16.6578 19.4307 17.4892 19.4307H68.8303C69.6617 19.4307 70.2853 20.0516 70.2853 20.8794V51.0967C70.2853 51.9245 69.6617 52.5454 68.8303 52.5454H17.4892C16.6578 52.5454 16.0342 51.9245 16.0342 51.0967V37.9887" fill="white"/>
<path d="M67.5225 14.3311C67.5835 14.3918 67.6445 14.3918 67.7056 14.3918C68.0718 14.5134 68.499 14.2703 68.6211 13.8449C70.269 9.83399 73.5037 4.42535 78.0812 2.29835L79.3629 4.36458C79.546 4.66844 79.9732 4.72921 80.3394 4.42535C80.6446 4.18226 80.7666 3.69609 80.5835 3.39224L79.3018 1.32601C78.9967 0.839844 78.4474 0.718301 77.8981 0.961386C72.222 3.20992 69.1704 9.16551 67.4004 13.4803C67.2173 13.8449 67.2783 14.1488 67.5225 14.3311Z" fill="#AAB2C5"/>
<path d="M55.8047 39.1242C56.2319 39.4889 56.476 39.6712 56.5371 39.732C56.5371 39.732 56.5371 39.732 57.3915 40.4004C58.7953 38.7596 61.969 37.9696 63.9221 38.1519C63.861 38.1519 65.1427 34.5664 65.3258 34.2625C66.4244 32.2571 67.9503 30.4947 69.354 28.7324L65.8751 27.3954L67.8892 24.9038L65.8141 27.3954L64.1662 24.7822C62.8845 26.4231 61.7249 28.1246 60.2601 29.5832C59.1005 30.7378 57.6967 31.5886 56.2929 32.3786C57.0253 34.0802 57.0253 37.3619 55.8047 39.1242Z" fill="#D5DDEA"/>
<path d="M62.5234 33.9725C62.8293 33.49 62.6845 32.852 62.1999 32.5474C61.7154 32.2429 61.0746 32.3871 60.7687 32.8696C60.4628 33.352 60.6077 33.9901 61.0922 34.2946C61.5768 34.5992 62.2175 34.455 62.5234 33.9725Z" fill="#D6DCE8"/>
<path fill-rule="evenodd" clip-rule="evenodd" d="M61.231 33.1595C61.0872 33.3864 61.1546 33.6881 61.3846 33.8327C61.6146 33.9772 61.9171 33.9081 62.061 33.6812C62.2048 33.4542 62.1374 33.1526 61.9074 33.008C61.6774 32.8635 61.3749 32.9326 61.231 33.1595ZM60.7997 34.7552C60.0606 34.2906 59.8383 33.3162 60.3062 32.5782C60.7742 31.8402 61.7532 31.6209 62.4923 32.0855C63.2314 32.5501 63.4537 33.5244 62.9858 34.2625C62.5179 35.0005 61.5388 35.2198 60.7997 34.7552Z" fill="#AAB2C5"/>
<path fill-rule="evenodd" clip-rule="evenodd" d="M61.359 34.5419L56.9646 40.0721L56.1094 39.3925L60.5037 33.8623L61.359 34.5419Z" fill="#AAB2C5"/>
<path d="M86.3825 0.171133C86.5656 0.231904 86.6266 0.292676 86.7487 0.414218C88.5797 2.17659 84.4905 9.71223 78.3261 17.8556C73.5045 24.1758 69.9646 28.369 68.5608 29.8883C68.1946 30.2529 67.6453 30.3137 67.1571 30.0706C65.4482 29.0375 65.143 28.7336 63.312 27.0928C62.9458 26.7282 62.8848 26.1205 63.1289 25.6951C64.1665 23.9327 67.2181 19.4356 71.9177 13.0546C78.021 4.91129 84.2463 -1.10506 86.3825 0.171133Z" fill="#989FB0"/>
<path fill-rule="evenodd" clip-rule="evenodd" d="M82.9654 6.11102C83.9315 6.74253 84.7963 7.05866 85.1677 7.10488L85.0328 8.18885C84.4276 8.11352 83.4004 7.7004 82.3677 7.02533C81.32 6.34049 80.1962 5.34112 79.4395 4.03063L80.3854 3.48438C81.0324 4.60474 82.0142 5.48927 82.9654 6.11102Z" fill="#AAB2C5"/>
<path fill-rule="evenodd" clip-rule="evenodd" d="M39.9563 32.9486C40.4897 33.2261 40.6986 33.8824 40.4237 34.4172L40.3994 34.4646C40.1967 34.8588 40.0009 35.2397 39.8117 35.6076C39.3952 36.4522 39.0819 37.2007 38.7647 38.2384C38.2734 39.8457 37.7893 41.723 37.9079 43.1402C37.9087 43.1497 37.9094 43.1592 37.9099 43.1687C37.9725 44.2601 38.2019 44.8831 38.4285 45.2324C38.6384 45.5558 38.8785 45.6972 39.1276 45.7681L39.1312 45.7691C39.5408 45.8872 39.8132 45.8325 40.0236 45.7259C40.263 45.6045 40.5169 45.3646 40.7643 44.9746C41.0392 44.5411 41.2532 44.0067 41.4119 43.4695C41.4591 43.01 41.5409 42.5375 41.7519 41.9597C41.9442 41.4332 42.5038 41.1377 43.0471 41.2758C43.5904 41.4139 43.9409 41.9407 43.8584 42.4952C43.7995 42.8911 43.7071 43.3649 43.5704 43.8655C43.5634 43.9488 43.5565 44.0379 43.5489 44.1349C43.5409 44.2371 43.5323 44.3481 43.5222 44.4702C43.4979 45.157 43.6371 45.5739 43.788 45.8187C43.9357 46.0584 44.1366 46.2035 44.3751 46.2841C44.9137 46.4663 45.5874 46.2987 45.9237 46.0098C46.4638 45.4995 46.7652 45.0778 46.9524 44.7307C47.0768 44.5 47.1606 44.2852 47.2315 44.0627C47.2354 44.0496 47.2393 44.0365 47.2432 44.0235C47.2762 43.9126 47.3082 43.8055 47.3367 43.7016C47.496 43.1197 48.0969 42.7773 48.6787 42.9366C49.2606 43.096 49.6031 43.6969 49.4437 44.2787C49.4329 44.318 49.4218 44.3585 49.4101 44.4C49.3722 44.5358 49.3378 44.6548 49.3069 44.7612C49.1627 45.2594 49.0984 45.4817 49.129 45.8621C49.165 46.0662 49.3182 46.2063 49.5461 46.2198C49.7451 46.2316 50.2367 46.1319 50.6765 45.2819C50.9537 44.7461 51.6128 44.5365 52.1486 44.8137C52.6844 45.0909 52.894 45.75 52.6168 46.2858C51.8787 47.7125 50.6727 48.4751 49.4168 48.4007C48.6844 48.3573 48.0107 48.0204 47.5506 47.4761C47.5037 47.522 47.4556 47.5681 47.4063 47.6145C47.3983 47.622 47.3902 47.6294 47.382 47.6367C46.4675 48.4461 44.9671 48.7905 43.6752 48.3536C43.0032 48.1264 42.3792 47.6839 41.9429 46.9886C41.6764 47.2561 41.368 47.4937 41.0115 47.6744C40.2784 48.0461 39.4342 48.1296 38.528 47.8688C37.8077 47.6635 37.1131 47.2186 36.5959 46.4216C36.1175 45.6844 35.8313 44.7093 35.7404 43.4703C35.4887 43.9442 35.2748 44.3405 35.0905 44.6739C34.6635 45.4462 34.3678 45.9316 34.1077 46.2761C33.8244 46.6513 33.5923 46.8454 33.3716 47.0286C32.8966 47.4437 32.287 47.7167 31.6641 47.8053C31.0407 47.894 30.322 47.8064 29.7036 47.3848C28.8279 46.8221 28.52 45.8187 28.4121 44.9762C28.324 44.2877 28.3444 43.521 28.4225 42.7565C26.397 44.8928 23.875 46.5672 21.1182 47.5694C20.5512 47.7755 19.9245 47.4829 19.7184 46.9159C19.5123 46.349 19.8048 45.7223 20.3718 45.5161C24.4704 44.0262 27.9848 40.8463 29.7995 36.9099C30.0433 36.381 30.6591 36.1364 31.1993 36.3539C31.7396 36.5713 32.0142 37.1744 31.8237 37.7247C31.4904 38.687 30.9241 40.5987 30.669 42.3854C30.5406 43.2843 30.5008 44.0872 30.5791 44.6987C30.663 45.3537 30.8444 45.5218 30.8867 45.5483C30.9017 45.5577 30.9165 45.5675 30.9311 45.5776C31.0007 45.6262 31.1385 45.6734 31.3565 45.6424C31.5761 45.6112 31.7918 45.5095 31.9382 45.3798C31.9469 45.3721 31.9558 45.3646 31.9647 45.3572C32.1561 45.1983 32.2326 45.1339 32.3643 44.9596C32.5242 44.7479 32.7569 44.3796 33.1786 43.6168C33.9566 42.2098 35.2862 39.6316 37.8589 34.628C38.0502 34.2406 38.257 33.8436 38.4855 33.4092C38.7655 32.8771 39.4228 32.6712 39.9563 32.9486Z" fill="#989FB0"/>
<path fill-rule="evenodd" clip-rule="evenodd" d="M54.0718 41.6553C54.6751 41.6553 55.1641 42.1443 55.1641 42.7476V42.8166C55.1641 43.4199 54.6751 43.9089 54.0718 43.9089C53.4685 43.9089 52.9795 43.4199 52.9795 42.8166V42.7476C52.9795 42.1443 53.4685 41.6553 54.0718 41.6553Z" fill="#989FB0"/>
<defs>
<filter id="filter0_d_6518_5907" x="2.09808e-05" y="9.5586" width="86.1826" height="64.9414" filterUnits="userSpaceOnUse" color-interpolation-filters="sRGB">
<feFlood flood-opacity="0" result="BackgroundImageFix"/>
<feColorMatrix in="SourceAlpha" type="matrix" values="0 0 0 0 0 0 0 0 0 0 0 0 0 0 0 0 0 0 127 0" result="hardAlpha"/>
<feOffset dy="6.0078"/>
<feGaussianBlur stdDeviation="6.0078"/>
<feColorMatrix type="matrix" values="0 0 0 0 0.397708 0 0 0 0 0.47749 0 0 0 0 0.575 0 0 0 0.27 0"/>
<feBlend mode="normal" in2="BackgroundImageFix" result="effect1_dropShadow_6518_5907"/>
<feBlend mode="normal" in="SourceGraphic" in2="effect1_dropShadow_6518_5907" result="shape"/>
</filter>
</defs>
</svg>
