<svg width="48" height="48" viewBox="0 0 48 48" fill="none" xmlns="http://www.w3.org/2000/svg">
<rect width="48" height="48" rx="11" fill="#AC78ED"/>
<g clip-path="url(#clip0_10562_39206)">
<path d="M29 14C29.7652 14 30.5015 14.2923 31.0583 14.8173C31.615 15.3422 31.9501 16.0601 31.995 16.824L32 17C32.7956 17 33.5587 17.3161 34.1213 17.8787C34.6839 18.4413 35 19.2044 35 20C35.0001 21.5524 34.3984 23.0444 33.3215 24.1625C32.2446 25.2806 30.7763 25.9378 29.225 25.996L29 26H25L25.15 26.005C25.6262 26.0408 26.0738 26.2458 26.412 26.5829C26.7502 26.92 26.9567 27.3669 26.994 27.843L27 28V32C27.0002 32.5046 26.8096 32.9906 26.4665 33.3605C26.1234 33.7305 25.6532 33.9572 25.15 33.995L25 34H23C22.4954 34.0002 22.0094 33.8096 21.6395 33.4665C21.2695 33.1234 21.0428 32.6532 21.005 32.15L21 32V28C20.9998 27.4954 21.1904 27.0094 21.5335 26.6395C21.8766 26.2695 22.3468 26.0428 22.85 26.005L23 26V25C23 24.7551 23.09 24.5187 23.2527 24.3356C23.4155 24.1526 23.6397 24.0357 23.883 24.007L24 24H29C30.0609 24 31.0783 23.5786 31.8284 22.8284C32.5786 22.0783 33 21.0609 33 20C33 19.7551 32.91 19.5187 32.7473 19.3356C32.5845 19.1526 32.3603 19.0357 32.117 19.007L32 19L31.995 19.176C31.9519 19.9096 31.6411 20.6019 31.1215 21.1215C30.6019 21.6411 29.9096 21.9519 29.176 21.995L29 22H19C18.2348 22 17.4985 21.7077 16.9417 21.1827C16.385 20.6578 16.0499 19.9399 16.005 19.176L16 19V17C16 16.2348 16.2923 15.4985 16.8173 14.9417C17.3422 14.385 18.0601 14.0499 18.824 14.005L19 14H29Z" fill="white"/>
</g>
<defs>
<clipPath id="clip0_10562_39206">
<rect width="24" height="24" fill="white" transform="translate(12 12)"/>
</clipPath>
</defs>
</svg>
