<svg width="97" height="69" viewBox="0 0 97 69" fill="none" xmlns="http://www.w3.org/2000/svg">
<rect x="0.332031" y="0.5" width="96" height="68" rx="6" fill="#F9FAFB"/>
<rect x="0.832031" y="1" width="95" height="67" rx="5.5" fill="white" stroke="#E2E8F0"/>
<rect x="4.33203" y="5.5" width="86" height="8" rx="2" fill="#E3E8ED"/>
<rect x="4.33203" y="15.5" width="22" height="49" rx="1" fill="#E3E8ED"/>
<rect x="29.332" y="17.5" width="6" height="6" rx="0.782051" fill="#5E9CEE"/>
<rect x="36.8965" y="17.5" width="6" height="6" rx="0.782051" fill="#5E9CEE"/>
<rect x="44.46" y="17.5" width="6" height="6" rx="0.782051" fill="#5E9CEE"/>
<rect x="52.0244" y="17.5" width="6" height="6" rx="0.782051" fill="#5E9CEE"/>
<rect x="59.5889" y="17.5" width="6" height="6" rx="0.782051" fill="#5E9CEE"/>
<rect x="67.1523" y="17.5" width="6" height="6" rx="0.782051" fill="#5E9CEE"/>
<rect x="74.7168" y="17.5" width="6" height="6" rx="0.782051" fill="#5E9CEE"/>
<rect x="82.2803" y="17.5" width="6" height="6" rx="0.782051" fill="#5E9CEE"/>
<rect x="29.332" y="28.1924" width="6" height="6" rx="0.782051" fill="#5E9CEE"/>
<rect x="36.8965" y="28.1924" width="6" height="6" rx="0.782051" fill="#5E9CEE"/>
<rect x="44.46" y="28.1924" width="6" height="6" rx="0.782051" fill="#5E9CEE"/>
<rect x="52.0244" y="28.1924" width="6" height="6" rx="0.782051" fill="#5E9CEE"/>
<rect x="59.5889" y="28.1924" width="6" height="6" rx="0.782051" fill="#5E9CEE"/>
<rect x="67.1523" y="28.1924" width="6" height="6" rx="0.782051" fill="#5E9CEE"/>
<rect x="74.7168" y="28.1924" width="6" height="6" rx="0.782051" fill="#5E9CEE"/>
<rect x="82.2803" y="28.1924" width="6" height="6" rx="0.782051" fill="#5E9CEE"/>
</svg>
