<svg width="25" height="25" viewBox="0 0 25 25" fill="none" xmlns="http://www.w3.org/2000/svg">
<path d="M15.25 8.05566C16.509 8.99994 17.25 10.4819 17.25 12.0557C17.25 13.6295 16.509 15.1114 15.25 16.0557" stroke="#4F5E71" stroke-width="1.5" stroke-linecap="round" stroke-linejoin="round"/>
<path d="M17.9492 5.05566C20.0636 6.76434 21.2924 9.33717 21.2924 12.0557C21.2924 14.7742 20.0636 17.347 17.9492 19.0557" stroke="#4F5E71" stroke-width="1.5" stroke-linecap="round" stroke-linejoin="round"/>
<path d="M6.25 15.0557H4.25C3.69772 15.0557 3.25 14.6079 3.25 14.0557L3.25 10.0557C3.25 9.50338 3.69772 9.05566 4.25 9.05566H6.25L9.75 4.55566C9.9306 4.20488 10.34 4.03814 10.7143 4.1629C11.0885 4.28767 11.316 4.66668 11.25 5.05566L11.25 19.0557C11.316 19.4446 11.0885 19.8237 10.7143 19.9484C10.34 20.0732 9.9306 19.9064 9.75 19.5557L6.25 15.0557" stroke="#4F5E71" stroke-width="1.5" stroke-linecap="round" stroke-linejoin="round"/>
</svg>
