<svg width="48" height="49" viewBox="0 0 48 49" fill="none" xmlns="http://www.w3.org/2000/svg">
<rect y="0.5" width="48" height="48" rx="11" fill="#F472B6"/>
<path fill-rule="evenodd" clip-rule="evenodd" d="M18.75 12.25C15.8529 12.25 13.5 14.6029 13.5 17.5C13.5 20.3971 15.8529 22.75 18.75 22.75C20.6916 22.75 22.3874 21.6939 23.2956 20.125H24.875C25.0106 20.125 25.1445 20.0944 25.2661 20.0331L26.625 19.3524L27.9839 20.0331C28.1055 20.0944 28.2394 20.125 28.375 20.125H31.875C32.1069 20.125 32.33 20.0331 32.4936 19.8686L34.2436 18.1186C34.5858 17.7774 34.5858 17.2226 34.2436 16.8814L32.4936 15.1314C32.33 14.9669 32.1069 14.875 31.875 14.875H23.2956C22.3882 13.3061 20.6916 12.25 18.75 12.25ZM18.75 14.875C20.199 14.875 21.375 16.051 21.375 17.5C21.375 18.949 20.199 20.125 18.75 20.125C17.301 20.125 16.125 18.949 16.125 17.5C16.125 16.051 17.301 14.875 18.75 14.875ZM18.75 16.625C18.267 16.625 17.875 17.017 17.875 17.5C17.875 17.983 18.267 18.375 18.75 18.375C19.233 18.375 19.625 17.983 19.625 17.5C19.625 17.017 19.233 16.625 18.75 16.625ZM15.25 24.5C13.318 24.5 11.75 26.068 11.75 28V33.25C11.75 35.182 13.318 36.75 15.25 36.75H32.75C34.682 36.75 36.25 35.182 36.25 33.25V28C36.25 26.068 34.682 24.5 32.75 24.5H15.25ZM16.125 28.5128C16.349 28.5128 16.573 28.5985 16.7436 28.7691L17.3622 29.3878L17.9809 28.7691C18.3221 28.4279 18.8769 28.4279 19.2181 28.7691C19.5594 29.1104 19.5594 29.6651 19.2181 30.0064L18.5995 30.625L19.2181 31.2436C19.5594 31.5849 19.5594 32.1396 19.2181 32.4809C18.8769 32.8221 18.3221 32.8221 17.9809 32.4809L17.3622 31.8622L16.7436 32.4809C16.4024 32.8221 15.8476 32.8221 15.5064 32.4809C15.1651 32.1396 15.1651 31.5849 15.5064 31.2436L16.125 30.625L15.5064 30.0064C15.1651 29.6651 15.1651 29.1104 15.5064 28.7691C15.677 28.5985 15.901 28.5128 16.125 28.5128ZM22.7628 28.5128C22.9868 28.5128 23.2108 28.5985 23.3814 28.7691L24 29.3878L24.6186 28.7691C24.9599 28.4279 25.5146 28.4279 25.8559 28.7691C26.1971 29.1104 26.1971 29.6651 25.8559 30.0064L25.2372 30.625L25.8559 31.2436C26.1971 31.5849 26.1971 32.1396 25.8559 32.4809C25.5146 32.8221 24.9599 32.8221 24.6186 32.4809L24 31.8622L23.3814 32.4809C23.0401 32.8221 22.4854 32.8221 22.1441 32.4809C21.8029 32.1396 21.8029 31.5849 22.1441 31.2436L22.7628 30.625L22.1441 30.0064C21.8029 29.6651 21.8029 29.1104 22.1441 28.7691C22.3147 28.5985 22.5388 28.5128 22.7628 28.5128ZM29.4005 28.5128C29.6245 28.5128 29.8485 28.5985 30.0191 28.7691L30.6378 29.3878L31.2564 28.7691C31.5976 28.4279 32.1524 28.4279 32.4936 28.7691C32.8349 29.1104 32.8349 29.6651 32.4936 30.0064L31.875 30.625L32.4936 31.2436C32.8349 31.5849 32.8349 32.1396 32.4936 32.4809C32.1524 32.8221 31.5976 32.8221 31.2564 32.4809L30.6378 31.8622L30.0191 32.4809C29.6779 32.8221 29.1231 32.8221 28.7819 32.4809C28.4406 32.1396 28.4406 31.5849 28.7819 31.2436L29.4005 30.625L28.7819 30.0064C28.4406 29.6651 28.4406 29.1104 28.7819 28.7691C28.9525 28.5985 29.1765 28.5128 29.4005 28.5128Z" fill="white"/>
</svg>
