<svg width="375" height="257" viewBox="0 0 375 257" fill="none" xmlns="http://www.w3.org/2000/svg">
<g clip-path="url(#clip0_1587_250273)">
<rect width="375" height="257" rx="6" fill="#EDEEF1"/>
<mask id="mask0_1587_250273" style="mask-type:luminance" maskUnits="userSpaceOnUse" x="-223" y="-16" width="617" height="286">
<path d="M-222.336 -15.5728H393.396V269.63H-222.336V-15.5728Z" fill="white"/>
</mask>
<g mask="url(#mask0_1587_250273)">
<path d="M-222.336 -15.5728H393.396V269.63H-222.336V-15.5728Z" fill="white"/>
<mask id="mask1_1587_250273" style="mask-type:luminance" maskUnits="userSpaceOnUse" x="-223" y="-16" width="617" height="286">
<path d="M-222.336 -15.5728H393.396V269.63H-222.336V-15.5728Z" fill="white"/>
</mask>
<g mask="url(#mask1_1587_250273)">
<path d="M393.396 -15.5728H-222.336V269.63H393.396V-15.5728Z" fill="#F8D8A8"/>
<path d="M63.2199 54.1479H307.512C308.67 54.1479 309.607 54.9962 309.607 56.0411V219.811C309.607 220.856 308.67 221.704 307.512 221.704H63.2199C62.6667 221.706 62.1356 221.507 61.7432 221.152C61.3507 220.797 61.1291 220.315 61.127 219.811V56.0411C61.127 54.9962 62.0641 54.1479 63.2199 54.1479Z" fill="#F1A346"/>
<path d="M61.127 190.386V188.025H309.607V190.386H61.127ZM61.127 156.705V154.347H309.607V156.707L61.127 156.705ZM61.127 122.185V119.825H309.607V122.185H61.127Z" fill="#F4CF9F"/>
<path d="M145.627 33.1011H154.377C156.842 33.1011 158.841 34.9106 158.841 37.1406C158.841 39.3731 156.842 41.1802 154.377 41.1802H145.627C145.042 41.1821 144.463 41.0791 143.922 40.8772C143.381 40.6752 142.889 40.3781 142.474 40.003C142.059 39.6278 141.73 39.182 141.504 38.6908C141.279 38.1997 141.162 37.6729 141.16 37.1406C141.16 34.9106 143.159 33.1011 145.627 33.1011Z" fill="#DF6800"/>
<path d="M150 78.5681C149.086 78.5707 148.181 78.4093 147.335 78.0933C146.49 77.7772 145.721 77.3126 145.073 76.7261C144.425 76.1395 143.911 75.4425 143.559 74.6748C143.206 73.9071 143.024 73.0837 143.021 72.2518C143.024 71.4201 143.207 70.597 143.559 69.8296C143.912 69.0622 144.426 68.3654 145.074 67.7791C145.722 67.1928 146.491 66.7285 147.336 66.4126C148.181 66.0967 149.086 65.9354 150 65.938C151.845 65.9328 153.617 66.595 154.926 67.779C156.235 68.963 156.974 70.5718 156.981 72.2518C156.978 73.0839 156.795 73.9073 156.443 74.675C156.09 75.4427 155.575 76.1397 154.927 76.7262C154.279 77.3128 153.51 77.7773 152.665 78.0933C151.819 78.4093 150.914 78.5707 150 78.5681ZM150 145.084C149.086 145.087 148.181 144.925 147.336 144.61C146.491 144.294 145.722 143.829 145.074 143.243C144.426 142.657 143.912 141.96 143.559 141.193C143.207 140.425 143.024 139.602 143.021 138.77C143.024 137.938 143.206 137.115 143.559 136.347C143.911 135.58 144.425 134.883 145.073 134.296C145.721 133.71 146.49 133.245 147.335 132.929C148.181 132.613 149.086 132.452 150 132.454C150.914 132.452 151.819 132.613 152.665 132.929C153.51 133.245 154.279 133.709 154.927 134.296C155.575 134.882 156.09 135.579 156.443 136.347C156.795 137.115 156.978 137.938 156.981 138.77C156.974 140.45 156.235 142.059 154.926 143.243C153.617 144.427 151.845 145.089 150 145.084ZM150 212.441C149.086 212.444 148.181 212.282 147.336 211.967C146.491 211.651 145.722 211.186 145.074 210.6C144.426 210.014 143.912 209.317 143.559 208.55C143.207 207.782 143.024 206.959 143.021 206.127C143.024 205.296 143.207 204.473 143.559 203.705C143.912 202.938 144.426 202.241 145.074 201.655C145.722 201.068 146.491 200.604 147.336 200.288C148.181 199.972 149.086 199.811 150 199.814C151.845 199.808 153.617 200.47 154.926 201.654C156.235 202.838 156.974 204.447 156.981 206.127C156.978 206.959 156.795 207.783 156.443 208.55C156.09 209.318 155.575 210.015 154.927 210.602C154.279 211.188 153.51 211.653 152.665 211.969C151.819 212.285 150.914 212.444 150 212.441ZM150 112.247C149.086 112.249 148.181 112.088 147.336 111.772C146.491 111.456 145.722 110.992 145.074 110.405C144.426 109.819 143.912 109.122 143.559 108.355C143.207 107.588 143.024 106.764 143.021 105.933C143.024 105.101 143.207 104.278 143.559 103.511C143.912 102.743 144.426 102.046 145.074 101.46C145.722 100.874 146.491 100.409 147.336 100.094C148.181 99.7776 149.086 99.6164 150 99.619C151.845 99.6137 153.617 100.276 154.926 101.46C156.235 102.644 156.974 104.253 156.981 105.933C156.974 107.613 156.235 109.222 154.926 110.406C153.617 111.59 151.845 112.252 150 112.247ZM150 178.765C149.086 178.768 148.181 178.606 147.335 178.29C146.49 177.974 145.721 177.51 145.073 176.923C144.425 176.337 143.911 175.64 143.559 174.872C143.206 174.104 143.024 173.281 143.021 172.449C143.024 171.617 143.207 170.794 143.559 170.027C143.912 169.259 144.426 168.562 145.074 167.976C145.722 167.39 146.491 166.926 147.336 166.61C148.181 166.294 149.086 166.132 150 166.135C151.845 166.13 153.617 166.792 154.926 167.976C156.235 169.16 156.974 170.769 156.981 172.449C156.978 173.281 156.795 174.104 156.443 174.872C156.09 175.64 155.575 176.337 154.927 176.923C154.279 177.51 153.51 177.974 152.665 178.29C151.819 178.606 150.914 178.768 150 178.765Z" fill="#C95E00"/>
<path d="M185.235 175.159H280.422C282.148 175.159 283.547 173.893 283.547 172.332C283.547 170.768 282.148 169.504 280.422 169.504H185.235C183.506 169.504 182.107 170.768 182.107 172.332C182.107 173.893 183.506 175.159 185.235 175.159Z" fill="white"/>
<path fill-rule="evenodd" clip-rule="evenodd" d="M-40.4297 138.159L61.1256 122.183V154.347L-37.7912 168.471L-40.4297 138.159Z" fill="white" fill-opacity="0.4"/>
<path d="M80.0687 175.159H113.834C115.56 175.159 116.961 173.893 116.961 172.332C116.961 170.768 115.56 169.504 113.834 169.504H80.0687C78.343 169.504 76.9441 170.768 76.9441 172.332C76.9441 173.893 78.343 175.159 80.0687 175.159ZM185.229 208.838H280.417C282.142 208.838 283.541 207.571 283.541 206.01C283.541 204.449 282.142 203.183 280.417 203.183H185.229C183.501 203.183 182.102 204.449 182.102 206.01C182.102 207.571 183.501 208.838 185.229 208.838ZM80.066 208.838H108.249C109.975 208.838 111.374 207.571 111.374 206.01C111.374 204.449 109.975 203.183 108.249 203.183H80.066C78.3403 203.183 76.9414 204.449 76.9414 206.01C76.9414 207.571 78.3403 208.838 80.066 208.838ZM185.229 106.959H290.655C292.38 106.959 293.779 105.693 293.779 104.131C293.779 102.568 292.38 101.304 290.655 101.304H185.229C183.504 101.304 182.105 102.568 182.105 104.131C182.105 105.693 183.504 106.959 185.229 106.959ZM80.0687 106.959H113.834C115.56 106.959 116.961 105.693 116.961 104.131C116.961 102.568 115.56 101.304 113.834 101.304H80.0687C78.343 101.304 76.9441 102.568 76.9441 104.131C76.9441 105.693 78.343 106.959 80.0687 106.959ZM185.229 73.2804H262.736C264.462 73.2804 265.86 72.0142 265.86 70.4529C265.86 68.8892 264.462 67.6255 262.736 67.6255H185.229C183.504 67.6255 182.105 68.8892 182.105 70.4529C182.105 72.0142 183.504 73.2804 185.229 73.2804ZM80.066 73.2804H108.249C109.975 73.2804 111.374 72.0142 111.374 70.4529C111.374 68.8892 109.975 67.6255 108.249 67.6255H80.066C78.3403 67.6255 76.9414 68.8892 76.9414 70.4529C76.9414 72.0142 78.3403 73.2804 80.066 73.2804ZM185.232 141.478H236.678C238.406 141.478 239.805 140.212 239.805 138.651C239.805 137.09 238.406 135.823 236.678 135.823H185.232C183.506 135.823 182.105 137.09 182.105 138.651C182.105 140.212 183.506 141.478 185.232 141.478ZM80.0687 141.478H101.735C103.461 141.478 104.86 140.212 104.86 138.651C104.86 137.09 103.461 135.823 101.735 135.823H80.0687C78.3403 135.823 76.9414 137.09 76.9414 138.651C76.9414 140.212 78.3403 141.478 80.0687 141.478Z" fill="white"/>
<path d="M61.127 88.5033V86.1455H309.607V88.5033H61.127Z" fill="#F4CF9F"/>
<path d="M224.172 33.1011H186.571C184.106 33.1011 182.107 34.9106 182.107 37.1406C182.107 39.3731 184.106 41.1802 186.571 41.1802H224.172C226.64 41.1802 228.638 39.3731 228.638 37.1406C228.638 34.9106 226.64 33.1011 224.172 33.1011ZM100.744 33.1011H81.4082C78.9425 33.1011 76.9414 34.9106 76.9414 37.1406C76.9414 39.3731 78.9425 41.1802 81.4082 41.1802H100.744C103.21 41.1802 105.211 39.3731 105.211 37.1406C105.211 34.9106 103.21 33.1011 100.744 33.1011Z" fill="#DF6800"/>
<path fill-rule="evenodd" clip-rule="evenodd" d="M-37.7894 204.406L61.1275 156.703V188.026L-40.2793 234.775L-37.7894 204.406ZM-24.1811 50.067L61.1248 86.005V54.1508L-26.401 19.7544L-24.1811 50.067ZM-29.9577 116.148L61.1302 119.824V88.5005L-24.1784 86.0025L-29.9577 116.148Z" fill="white" fill-opacity="0.4"/>
</g>
</g>
</g>
<defs>
<clipPath id="clip0_1587_250273">
<rect width="375" height="257" rx="6" fill="white"/>
</clipPath>
</defs>
</svg>
