<svg width="25" height="25" viewBox="0 0 25 25" fill="none" xmlns="http://www.w3.org/2000/svg">
<path d="M18.5436 2.03603C20.366 3.08831 21.8821 4.59833 22.9417 6.4166C24.0012 8.23487 24.5675 10.2983 24.5845 12.4027C24.6015 14.5071 24.0686 16.5795 23.0386 18.4146C22.0085 20.2498 20.5171 21.7841 18.7118 22.8657C16.9066 23.9473 14.8501 24.5386 12.7461 24.5812C10.6421 24.6238 8.56339 24.1161 6.71585 23.1084C4.86832 22.1008 3.31598 20.6281 2.21253 18.8361C1.10907 17.0441 0.492759 14.9951 0.424598 12.8917L0.418556 12.5002L0.424598 12.1087C0.492268 10.0219 1.09951 7.98823 2.18712 6.20598C3.27473 4.42373 4.8056 2.9537 6.63047 1.93922C8.45534 0.92474 10.5119 0.400425 12.5998 0.417391C14.6876 0.434357 16.7354 0.992026 18.5436 2.03603ZM16.9812 9.22924C16.7731 9.02119 16.4963 8.89621 16.2026 8.87775C15.909 8.85928 15.6187 8.9486 15.3862 9.12895L15.2726 9.22924L11.2936 13.2071L9.73118 11.6459L9.6176 11.5456C9.3851 11.3654 9.09484 11.2762 8.80125 11.2947C8.50767 11.3132 8.23092 11.4382 8.02292 11.6462C7.81491 11.8542 7.68992 12.131 7.6714 12.4246C7.65288 12.7181 7.74209 13.0084 7.92231 13.2409L8.0226 13.3545L10.4393 15.7712L10.5528 15.8714C10.7648 16.0359 11.0253 16.1251 11.2936 16.1251C11.5618 16.1251 11.8224 16.0359 12.0343 15.8714L12.1478 15.7712L16.9812 10.9378L17.0815 10.8242C17.2618 10.5917 17.3511 10.3014 17.3327 10.0078C17.3142 9.71413 17.1892 9.4373 16.9812 9.22924Z" fill="#28A138"/>
</svg>
