<svg width="240" height="240" viewBox="0 0 240 240" fill="none" xmlns="http://www.w3.org/2000/svg">
<rect x="0.333008" width="239.333" height="240" rx="6" fill="#9AB2EA"/>
<path d="M118.892 188.42C154.837 188.42 183.975 159.105 183.975 122.961C183.975 86.8165 154.837 57.502 118.892 57.502C82.9471 57.502 53.8086 86.8165 53.8086 122.961C53.8086 159.105 82.9471 188.42 118.892 188.42Z" fill="#3B5B93"/>
<path d="M60.099 71.549C61.824 70.9857 62.7629 69.1316 62.1996 67.3948C61.6363 65.6697 59.7938 64.7191 58.0688 65.2824C56.3437 65.8457 55.4049 67.6999 55.9682 69.4367C56.5315 71.1618 58.3739 72.1123 60.099 71.549Z" fill="#EFEBFF"/>
<path d="M67.2448 60.7996C68.4183 60.4123 69.052 59.1567 68.6765 57.9832C68.3009 56.8096 67.0453 56.1642 65.8718 56.5515C64.6982 56.9387 64.0645 58.1944 64.4401 59.3679C64.8156 60.5414 66.0712 61.1869 67.2448 60.7996Z" fill="#EFEBFF"/>
<path d="M174.576 72.1124C176.606 70.2465 176.747 67.078 174.893 65.0361C173.039 62.9942 169.893 62.8534 167.863 64.7193C165.833 66.5852 165.692 69.7537 167.546 71.7956C169.401 73.8375 172.546 73.9783 174.576 72.1124Z" fill="#EFEBFF"/>
<path d="M190.465 62.9822C191.322 62.196 191.38 60.8582 190.594 60.0015C189.82 59.1448 188.493 59.0862 187.637 59.8724C186.78 60.6587 186.721 61.9965 187.508 62.8532C188.294 63.7098 189.608 63.7685 190.465 62.9822Z" fill="#EFEBFF"/>
<path d="M65.8604 179.983C66.7171 179.196 66.7758 177.859 65.9895 177.002C65.2033 176.145 63.8889 176.087 63.0323 176.873C62.1756 177.659 62.1169 178.997 62.9032 179.854C63.6894 180.71 65.0038 180.769 65.8604 179.983Z" fill="#EFEBFF"/>
<path d="M102.31 59.2741V139.566C102.31 141.374 100.843 142.841 99.0359 142.841H32.8376C31.0304 142.841 29.5518 141.374 29.5518 139.555V59.2741C29.5518 57.4669 31.0187 56 32.8259 56H99.0359C100.843 56 102.31 57.4669 102.31 59.2741Z" fill="url(#paint0_linear_7213_52835)"/>
<path d="M102.31 59.1333V66.5617H29.5518V59.1333C29.5518 57.3965 31.0069 56 32.8141 56H99.0477C100.855 56 102.31 57.4082 102.31 59.1333Z" fill="#CDDEF7"/>
<path d="M34.2583 63.6045C35.2206 63.6045 35.9951 62.83 35.9951 61.8677C35.9951 60.9054 35.2206 60.1309 34.2583 60.1309C33.296 60.1309 32.5215 60.9054 32.5215 61.8677C32.5215 62.83 33.296 63.6045 34.2583 63.6045Z" fill="#93AEE1"/>
<path d="M39.6802 63.6045C40.6425 63.6045 41.417 62.83 41.417 61.8677C41.417 60.9054 40.6425 60.1309 39.6802 60.1309C38.7179 60.1309 37.9434 60.9054 37.9434 61.8677C37.9434 62.83 38.7179 63.6045 39.6802 63.6045Z" fill="#93AEE1"/>
<path d="M45.0893 63.6045C46.0516 63.6045 46.8262 62.83 46.8262 61.8677C46.8262 60.9054 46.0516 60.1309 45.0893 60.1309C44.127 60.1309 43.3525 60.9054 43.3525 61.8677C43.3525 62.83 44.127 63.6045 45.0893 63.6045Z" fill="#93AEE1"/>
<path opacity="0.3" d="M93.8487 126.412H86.1387C85.3876 126.412 84.7188 125.813 84.7188 124.957V83.2613C84.7188 82.4985 85.3055 81.8062 86.1387 81.8062H93.8487C94.5998 81.8062 95.2687 82.4046 95.2687 83.2613V124.957C95.2687 125.719 94.6819 126.412 93.8487 126.412Z" fill="#F4F1FF" stroke="#CEDCF8" stroke-width="2" stroke-linejoin="round"/>
<path opacity="0.3" d="M93.8487 126.411H86.1387C85.3876 126.411 84.7188 125.824 84.7188 124.979V98.5162C84.7188 97.7534 85.3055 97.0845 86.1387 97.0845H93.8487C94.5998 97.0845 95.2687 97.6712 95.2687 98.5162V124.979C95.2687 125.742 94.6819 126.411 93.8487 126.411Z" fill="#F4F1FF" stroke="#CEDCF8" stroke-width="2" stroke-linejoin="round"/>
<path d="M78.84 124.945C78.84 125.755 78.1828 126.412 77.3731 126.412H69.6983C68.9472 126.412 68.2783 125.813 68.2783 124.957V83.2613C68.2783 82.4985 68.8651 81.8062 69.6983 81.8062H77.4083C78.1594 81.8062 78.8283 82.4046 78.8283 83.2613V124.945H78.84Z" fill="#EFEBFF"/>
<path d="M78.84 126.118C78.84 126.928 78.1828 127.585 77.3731 127.585H69.6983C68.9472 127.585 68.2783 126.975 68.2783 126.106V110.287C68.2783 109.501 68.8651 108.809 69.6983 108.809H77.4083C78.1594 108.809 78.8283 109.419 78.8283 110.287V126.118H78.84Z" fill="#CEDCF8"/>
<path d="M62.1632 126.412H54.4532C53.7021 126.412 53.0332 125.813 53.0332 124.957V83.2613C53.0332 82.4985 53.62 81.8062 54.4532 81.8062H62.1632C62.9142 81.8062 63.5831 82.4046 63.5831 83.2613V124.957C63.501 125.719 62.9142 126.412 62.1632 126.412Z" fill="#EFEBFF"/>
<path d="M62.1632 126.411H54.4532C53.7021 126.411 53.0332 125.813 53.0332 124.956V92.6607C53.0332 91.8862 53.62 91.2056 54.4532 91.2056H62.1632C62.9142 91.2056 63.5831 91.8041 63.5831 92.6607V124.956C63.501 125.731 62.9142 126.411 62.1632 126.411Z" fill="#CEDCF8"/>
<path d="M47.1545 124.945C47.1545 125.755 46.4973 126.412 45.6876 126.412H38.0127C37.2617 126.412 36.5928 125.813 36.5928 124.957V83.2613C36.5928 82.4985 37.1795 81.8062 38.0127 81.8062H45.7228C46.4738 81.8062 47.1427 82.4046 47.1427 83.2613V124.945H47.1545Z" fill="#EFEBFF"/>
<path d="M47.1545 126.118C47.1545 126.928 46.4973 127.585 45.6876 127.585H38.0127C37.2617 127.585 36.5928 126.986 36.5928 126.118V111.449C36.5928 110.674 37.1795 109.982 38.0127 109.982H45.7228C46.4738 109.982 47.1427 110.58 47.1427 111.449V126.118H47.1545Z" fill="#CEDCF8"/>
<path d="M211.447 108.292V183.245C211.447 184.911 210.098 186.261 208.431 186.261H147.561C145.906 186.261 144.557 184.911 144.557 183.257V108.292C144.557 106.638 145.906 105.288 147.561 105.288H208.443C210.098 105.288 211.447 106.638 211.447 108.292Z" fill="url(#paint1_linear_7213_52835)"/>
<path d="M202.059 148.708H165.68V155.749H202.059V148.708Z" fill="white" stroke="#CDDEF7" stroke-width="2" stroke-miterlimit="10"/>
<path d="M165.68 154.576H156.292V175.699H165.68V154.576Z" fill="#F4F1FF" stroke="#CDDEF7" stroke-width="2" stroke-miterlimit="10"/>
<path d="M202.059 148.708H165.68V176.192H202.059V148.708Z" fill="white" stroke="#CDDEF7" stroke-width="2" stroke-miterlimit="10"/>
<path d="M192.671 176.192H156.292V154.576H202.059" stroke="#CDDEF7" stroke-width="2" stroke-miterlimit="10"/>
<path d="M202.059 161.617H156.292" stroke="#CDDEF7" stroke-width="2" stroke-miterlimit="10"/>
<path d="M202.059 168.658H156.292" stroke="#CDDEF7" stroke-width="2" stroke-miterlimit="10"/>
<path d="M173.895 148.708V175.699" stroke="#CDDEF7" stroke-width="2" stroke-miterlimit="10"/>
<path d="M183.283 148.708V175.699" stroke="#CDDEF7" stroke-width="2" stroke-miterlimit="10"/>
<path d="M192.671 148.708V175.699" stroke="#CDDEF7" stroke-width="2" stroke-miterlimit="10"/>
<path fill-rule="evenodd" clip-rule="evenodd" d="M200.792 123.841C201.426 124.71 201.25 125.942 200.393 126.587L186.076 137.325C185.407 137.83 184.48 137.842 183.799 137.349L178.871 133.816L169.987 139.449C169.365 139.848 168.579 139.848 167.945 139.461L165.258 137.818L158.85 141.738C157.935 142.301 156.738 142.008 156.187 141.08C155.635 140.153 155.928 138.945 156.844 138.393L164.249 133.863C164.871 133.488 165.645 133.488 166.255 133.863L168.919 135.506L177.885 129.826C178.554 129.404 179.399 129.427 180.032 129.885L184.867 133.359L198.046 123.466C198.903 122.82 200.123 122.996 200.757 123.877L200.792 123.841Z" fill="#9AB2EA"/>
<path d="M211.447 108.292V115.85H144.557V108.269C144.557 106.614 145.894 105.288 147.537 105.288H208.443C210.098 105.288 211.447 106.638 211.447 108.292Z" fill="#CDDEF7"/>
<path d="M156.292 85.0915V165.372C156.292 167.179 154.826 168.658 153.007 168.658H86.8083C85.0011 168.658 83.5342 167.179 83.5342 165.384V85.0915C83.5342 83.2843 85.0011 81.8174 86.8083 81.8174H153.007C154.814 81.8174 156.292 83.2843 156.292 85.1032V85.0915Z" fill="url(#paint2_linear_7213_52835)"/>
<path d="M156.292 84.9507V92.3791H83.5342V84.9507C83.5342 83.2139 84.9893 81.8174 86.7966 81.8174H153.03C154.837 81.8174 156.292 83.2256 156.292 84.9507Z" fill="#CDDEF7"/>
<path d="M88.0278 89.5161C88.9901 89.5161 89.7646 88.7416 89.7646 87.7793C89.7646 86.817 88.9901 86.0425 88.0278 86.0425C87.0655 86.0425 86.291 86.817 86.291 87.7793C86.291 88.7416 87.0655 89.5161 88.0278 89.5161Z" fill="#93AEE1"/>
<path d="M93.4497 89.5161C94.412 89.5161 95.1865 88.7416 95.1865 87.7793C95.1865 86.817 94.412 86.0425 93.4497 86.0425C92.4874 86.0425 91.7129 86.817 91.7129 87.7793C91.7129 88.7416 92.4874 89.5161 93.4497 89.5161Z" fill="#93AEE1"/>
<path d="M98.8599 89.5161C99.8222 89.5161 100.597 88.7416 100.597 87.7793C100.597 86.817 99.8222 86.0425 98.8599 86.0425C97.8976 86.0425 97.123 86.817 97.123 87.7793C97.123 88.7416 97.8976 89.5161 98.8599 89.5161Z" fill="#93AEE1"/>
<path opacity="0.7" d="M129.759 128.594L126.226 126.869C124.677 128.676 122.354 129.803 119.854 129.803C115.207 129.803 111.417 126.013 111.417 121.365C111.417 120.767 111.499 120.251 111.593 119.64L108.06 117.915L100.479 114.207C99.6227 116.613 99.1063 119.288 99.2706 122.128C99.7048 132.889 108.483 141.597 119.162 141.937C126.825 142.195 133.631 138.229 137.328 132.291L129.747 128.583L129.759 128.594ZM119.76 100.688C112.355 100.688 105.807 104.561 102.193 110.51L109.774 114.219L113.306 115.944C114.679 114.395 116.58 113.268 118.728 113.01L119.244 109.137L120.277 100.782C120.101 100.7 119.936 100.7 119.76 100.7V100.688ZM123.844 101.204L122.811 109.56L122.295 113.432C125.393 114.641 127.635 117.739 127.635 121.272C127.635 121.87 127.552 122.48 127.459 122.997L130.991 124.722L138.572 128.43C139.428 126.189 139.863 123.783 139.863 121.283V121.201C139.781 111.555 132.974 103.375 123.844 101.216V101.204Z" fill="#CEDCF8"/>
<path d="M119.761 100.688C112.356 100.688 105.808 104.561 102.193 110.51L109.774 114.219L113.307 115.944C114.68 114.395 116.581 113.268 118.728 113.01L119.245 109.137L120.277 100.782C120.101 100.7 119.937 100.7 119.761 100.7V100.688Z" fill="#F4F1FF"/>
<path d="M123.845 101.204L122.812 109.56L122.296 113.432C125.394 114.641 127.635 117.739 127.635 121.271C127.635 121.87 127.553 122.48 127.459 122.996L130.992 124.721L138.573 128.43C139.429 126.188 139.864 123.783 139.864 121.283V121.201C139.781 111.555 132.975 103.375 123.845 101.216V101.204Z" fill="#9AB2EA"/>
<path opacity="0.1" d="M113.307 115.932L109.774 114.207C111.922 111.273 115.29 109.302 119.163 109.125L118.646 112.998C116.581 113.256 114.68 114.289 113.307 115.932Z" fill="#30469F"/>
<path opacity="0.1" d="M126.226 126.869L129.758 128.594C127.516 131.692 123.902 133.675 119.771 133.675C112.965 133.675 107.461 128.159 107.461 121.365C107.461 120.156 107.637 119.041 107.977 117.915L111.51 119.64C111.427 120.156 111.334 120.754 111.334 121.365C111.334 126.012 115.124 129.802 119.771 129.802C122.353 129.802 124.676 128.687 126.226 126.869Z" fill="#30469F"/>
<path opacity="0.1" d="M132.081 121.353C132.081 122.562 131.905 123.759 131.565 124.803L128.033 123.078C128.115 122.48 128.209 121.964 128.209 121.353C128.209 117.821 125.967 114.723 122.869 113.514L123.385 109.642C128.385 111.109 132.081 115.838 132.081 121.353Z" fill="#30469F"/>
<path d="M138.924 148.708H99.4116C98.4376 148.708 97.6514 149.494 97.6514 150.468C97.6514 151.442 98.4376 152.229 99.4116 152.229H138.924C139.898 152.229 140.684 151.442 140.684 150.468C140.684 149.494 139.898 148.708 138.924 148.708Z" fill="#CEDCF8"/>
<path d="M117.143 156.923H99.5406C98.5665 156.923 97.7803 157.709 97.7803 158.683C97.7803 159.657 98.5665 160.443 99.5406 160.443H117.143C118.117 160.443 118.904 159.657 118.904 158.683C118.904 157.709 118.117 156.923 117.143 156.923Z" fill="#CEDCF8"/>
<defs>
<linearGradient id="paint0_linear_7213_52835" x1="65.9309" y1="53.9933" x2="65.9309" y2="143.779" gradientUnits="userSpaceOnUse">
<stop stop-color="#FDFEFF"/>
<stop offset="1" stop-color="#ECECFC"/>
</linearGradient>
<linearGradient id="paint1_linear_7213_52835" x1="178.002" y1="103.41" x2="178.002" y2="187.129" gradientUnits="userSpaceOnUse">
<stop stop-color="#FDFEFF"/>
<stop offset="1" stop-color="#ECECFC"/>
</linearGradient>
<linearGradient id="paint2_linear_7213_52835" x1="119.913" y1="79.8107" x2="119.913" y2="169.597" gradientUnits="userSpaceOnUse">
<stop stop-color="#FDFEFF"/>
<stop offset="1" stop-color="#ECECFC"/>
</linearGradient>
</defs>
</svg>
