<svg width="48" height="48" viewBox="0 0 48 48" fill="none" xmlns="http://www.w3.org/2000/svg">
<rect x="0.000976562" width="48" height="48" rx="12" fill="#8779FE"/>
<g clip-path="url(#clip0_11666_10588)">
<path d="M19.3171 36H28.6851C29.5253 36 30.3536 35.8014 31.1025 35.4205C31.8514 35.0397 32.4998 34.4872 32.9947 33.8083C33.4896 33.1293 33.8172 32.343 33.9506 31.5134C34.084 30.6839 34.0195 29.8346 33.7624 29.0346L31.4877 21.96C31.0558 20.6162 30.2086 19.4443 29.068 18.6128C27.9275 17.7814 26.5525 17.3334 25.1411 17.3333H22.8611C21.4496 17.3334 20.0746 17.7814 18.9341 18.6128C17.7935 19.4443 16.9463 20.6162 16.5144 21.96L14.2397 29.0346C13.9826 29.8346 13.9181 30.6839 14.0515 31.5134C14.1849 32.343 14.5125 33.1293 15.0074 33.8083C15.5023 34.4872 16.1507 35.0397 16.8996 35.4205C17.6485 35.8014 18.4768 36 19.3171 36Z" stroke="white" stroke-width="2" stroke-linecap="round" stroke-linejoin="round"/>
<path d="M28.001 12C27.1121 15.5556 25.7788 17.3333 24.001 17.3333C22.2232 17.3333 20.8899 15.5556 20.001 12H28.001Z" stroke="white" stroke-width="2" stroke-linecap="round" stroke-linejoin="round"/>
<path d="M26.6678 22.6667H23.3345C22.804 22.6667 22.2953 22.8774 21.9203 23.2525C21.5452 23.6275 21.3345 24.1363 21.3345 24.6667C21.3345 25.1971 21.5452 25.7058 21.9203 26.0809C22.2953 26.456 22.804 26.6667 23.3345 26.6667H24.6678C25.1982 26.6667 25.7069 26.8774 26.082 27.2525C26.4571 27.6275 26.6678 28.1363 26.6678 28.6667C26.6678 29.1971 26.4571 29.7058 26.082 30.0809C25.7069 30.456 25.1982 30.6667 24.6678 30.6667H21.3345" stroke="white" stroke-width="2" stroke-linecap="round" stroke-linejoin="round"/>
<path d="M24.001 21.3333V22.6666" stroke="white" stroke-width="2" stroke-linecap="round" stroke-linejoin="round"/>
<path d="M24.001 30.6667V32" stroke="white" stroke-width="2" stroke-linecap="round" stroke-linejoin="round"/>
</g>
<defs>
<clipPath id="clip0_11666_10588">
<rect width="32" height="32" fill="white" transform="translate(8.00098 8)"/>
</clipPath>
</defs>
</svg>
