<svg width="48" height="48" viewBox="0 0 48 48" fill="none" xmlns="http://www.w3.org/2000/svg">
<rect width="48" height="48" rx="11" fill="#E56CF9"/>
<path fill-rule="evenodd" clip-rule="evenodd" d="M32.0421 27.8355C32.2257 27.1224 32.9526 26.6931 33.6657 26.8766C36.5408 27.6166 38.6667 30.2249 38.6667 33.3332V35.9998C38.6667 36.7362 38.0698 37.3332 37.3334 37.3332C36.597 37.3332 36 36.7362 36 35.9998V33.3332C36 31.4712 34.7265 29.9032 33.001 29.4591C32.2879 29.2756 31.8586 28.5487 32.0421 27.8355Z" fill="white"/>
<path fill-rule="evenodd" clip-rule="evenodd" d="M27.4308 11.8872C27.7071 11.2047 28.4844 10.8753 29.167 11.1516C31.6077 12.1396 33.3334 14.5333 33.3334 17.3332C33.3334 20.1331 31.6077 22.5268 29.167 23.5147C28.4844 23.791 27.7071 23.4617 27.4308 22.7791C27.1545 22.0965 27.4839 21.3192 28.1664 21.0429C29.6348 20.4485 30.6667 19.0098 30.6667 17.3332C30.6667 15.6566 29.6348 14.2178 28.1664 13.6234C27.4839 13.3471 27.1545 12.5698 27.4308 11.8872Z" fill="white"/>
<path fill-rule="evenodd" clip-rule="evenodd" d="M17.572 26.6665C19.6351 26.6671 21.6983 26.6671 23.7615 26.6665C25.2156 26.666 26.2079 26.6657 27.0588 26.8937C29.3595 27.5101 31.1564 29.3071 31.7729 31.6077C32.0799 32.7535 31.991 33.978 32.0003 35.152C32.0014 35.2945 32.0037 35.5828 31.9319 35.8508C31.747 36.541 31.2079 37.0801 30.5177 37.265C30.2497 37.3368 29.9614 37.3345 29.8188 37.3334C23.7188 37.2847 17.6146 37.2847 11.5146 37.3334C11.372 37.3345 11.0838 37.3368 10.8157 37.265C10.1256 37.0801 9.58647 36.541 9.40153 35.8508C9.32972 35.5828 9.33201 35.2945 9.33315 35.152C9.34249 33.9809 9.25403 32.7516 9.56054 31.6077C10.177 29.3071 11.974 27.5101 14.2746 26.8937C15.1255 26.6657 16.1178 26.666 17.572 26.6665Z" fill="white"/>
<path fill-rule="evenodd" clip-rule="evenodd" d="M14 17.3332C14 13.6513 16.9848 10.6665 20.6667 10.6665C24.3486 10.6665 27.3334 13.6513 27.3334 17.3332C27.3334 21.0151 24.3486 23.9998 20.6667 23.9998C16.9848 23.9998 14 21.0151 14 17.3332Z" fill="white"/>
</svg>
