<svg width="223" height="199" viewBox="0 0 223 199" fill="none" xmlns="http://www.w3.org/2000/svg">
<path d="M118.77 0.919189L125.384 2.88929L122.147 31.0335L118.629 29.767L118.77 0.919189Z" fill="#B8BFCD"/>
<path d="M118.347 33.0037L121.584 34.2702L121.161 36.9439L117.925 35.8181L118.347 33.0037Z" fill="#B8BFCD"/>
<path d="M130.59 15.9763L137.204 17.8057L134.108 35.818L130.449 34.5515L130.59 15.9763Z" fill="#B8BFCD"/>
<path d="M130.167 37.6475L133.404 38.914L132.982 41.4469L129.745 40.3212L130.167 37.6475Z" fill="#B8BFCD"/>
<path d="M164.645 140.515H78.1011C78.1011 140.515 82.8856 138.967 74.5831 140.515C66.1398 142.062 66.1398 141.781 66.8434 136.434C67.547 131.086 72.613 125.598 76.5532 119.688C76.131 114.059 77.9604 108.149 84.5743 102.661C84.5743 102.52 84.5743 102.379 84.5743 102.238C81.3377 70.0132 98.3649 80.5673 112.578 75.2199L110.748 73.9534L131.575 64.9473C131.575 64.9473 137.485 66.4952 142.974 69.5911C147.055 71.9833 150.854 75.0792 151.417 79.0194C152.12 83.5225 151.417 89.4328 150.432 94.9209C149.587 99.8461 148.602 104.349 148.321 107.304C148.321 107.867 148.18 108.289 148.18 108.712C149.165 113.355 155.638 120.251 154.794 124.754C157.046 127.146 159.86 134.323 160.282 137.419C160.845 140.515 164.645 140.515 164.645 140.515Z" fill="#DDE3EE"/>
<path opacity="0.1" d="M150.431 94.9212C149.587 99.8464 148.602 104.349 148.32 107.445C146.21 111.245 142.41 113.637 137.204 116.592C136.078 117.296 134.671 117.859 133.404 118.281C131.575 118.844 129.745 119.407 127.916 119.688C122.287 120.814 116.517 121.095 110.748 119.97C105.963 118.984 101.179 117.437 96.8165 114.904C95.4093 114.059 93.8614 113.074 92.5949 111.948C88.7954 108.712 85.8403 105.897 84.2923 102.52C82.8851 99.7057 82.6037 96.4691 83.3073 92.1067C84.9959 82.8191 87.2475 75.7831 87.2475 75.7831C87.3882 75.0795 88.514 74.0944 88.9361 73.5315C89.6397 72.8279 90.0619 71.9836 90.7655 71.28C91.8913 69.8728 93.2985 68.3248 94.4243 66.9176C97.2387 64.1032 100.335 61.8517 103.993 60.4445C109.904 58.3336 116.236 58.6151 122.287 59.4594C126.649 60.0223 131.293 61.0073 135.233 63.2589C138.189 64.9475 140.581 67.0584 142.692 69.7321C143.114 70.1542 143.395 70.7171 143.817 71.1393C146.21 74.6573 147.898 78.5975 149.868 82.397C150.009 82.397 150.431 87.6037 150.431 94.9212Z" fill="#AAB2C5"/>
<path d="M32.2256 140.656H215.304" stroke="#D6DCE8" stroke-width="1.83006" stroke-miterlimit="10" stroke-linecap="round" stroke-linejoin="round"/>
<path d="M10.6953 140.656H22.3752" stroke="#D6DCE8" stroke-width="1.83006" stroke-miterlimit="10" stroke-linecap="round" stroke-linejoin="round"/>
<path d="M137.907 105.475C136.781 106.179 135.374 106.742 134.108 107.164C132.419 107.727 130.449 108.289 128.62 108.571C122.991 109.697 117.221 109.978 111.452 108.712C106.667 107.727 101.883 106.179 97.5203 103.646C95.9723 102.801 94.5651 101.816 93.2986 100.691C86.1218 94.6395 82.3224 90.1364 84.011 80.8488C85.6997 71.5612 87.8105 64.6659 87.8105 64.6659C87.9512 63.9623 89.077 62.9772 89.4991 62.4143C90.2028 61.7107 90.6249 60.8664 91.3285 60.1628C92.4543 58.7556 93.7208 57.2077 94.9873 55.8004C97.8017 52.986 100.898 50.7345 104.556 49.3273C110.467 47.2164 116.799 47.4979 122.85 48.3422C127.353 48.9051 131.856 49.8902 135.796 52.1417C139.314 54.1118 141.988 56.7855 144.24 60.0221C146.632 63.5401 148.321 67.4803 150.291 71.4205C150.291 71.4205 150.994 78.738 150.713 88.1663C150.713 97.5947 146.069 100.972 137.907 105.475Z" fill="#EAEEF9"/>
<path d="M107.511 81.5525C106.104 82.5376 103.993 86.337 98.0828 83.2412C89.7803 78.7381 91.8911 67.4804 97.0978 64.3845C106.385 58.8964 114.829 62.8366 115.251 71.4206C115.673 80.5675 110.466 79.7231 107.511 81.5525Z" fill="#BFC8D6"/>
<path d="M154.371 135.308C153.246 136.715 153.527 138.826 155.075 139.952C155.919 140.515 156.764 141.078 157.186 142.485C158.171 145.299 167.177 151.913 171.821 150.506C176.605 149.099 181.812 145.581 180.545 139.811C179.42 134.042 174.354 131.227 171.821 131.086C169.288 130.805 160.422 129.82 157.467 132.072C156.341 133.057 155.216 134.323 154.371 135.308Z" fill="#EAEEF9"/>
<path d="M80.3523 135.308C81.4781 136.715 81.1966 138.826 79.6487 139.952C78.8044 140.515 77.96 141.078 77.5379 142.485C76.5528 145.299 67.5467 151.913 62.9029 150.506C58.2591 149.099 52.9117 145.581 54.1781 139.811C55.3039 134.042 60.3699 131.227 62.9029 131.086C65.4358 130.946 74.3013 129.82 77.2564 132.072C78.5229 133.057 79.6487 134.323 80.3523 135.308Z" fill="#EAEEF9"/>
<path d="M102.727 79.7233C106.385 80.1455 109.622 77.4718 110.044 73.813C110.466 70.1543 107.793 66.9177 104.134 66.4955C100.475 66.0734 97.2385 68.7471 96.8163 72.4058C96.3942 76.0646 99.0679 79.3012 102.727 79.7233Z" fill="white"/>
<path d="M109.2 74.5162C108.919 77.3307 106.386 79.4415 103.571 79.16C100.757 78.8786 98.6461 76.3456 98.9275 73.5312C99.3497 73.9533 99.9126 74.3755 100.475 74.5162C101.742 74.6569 102.868 73.8126 103.008 72.4054C103.149 71.1389 102.305 70.0131 101.038 69.8724C102.023 69.1688 103.29 68.8874 104.556 69.0281C107.512 69.1688 109.482 71.5611 109.2 74.5162Z" fill="#989FB0"/>
<path d="M134.812 83.1003C138.47 83.5224 141.707 80.8487 142.129 77.19C142.551 73.5312 139.878 70.2946 136.219 69.8725C132.56 69.4503 129.323 72.124 128.901 75.7828C128.479 79.5822 131.153 82.8188 134.812 83.1003Z" fill="white"/>
<path d="M129.464 76.627C129.182 79.4415 131.293 81.9745 134.107 82.2559C136.922 82.5373 139.455 80.4265 139.736 77.6121C139.314 78.0343 138.611 78.3157 138.048 78.175C136.781 78.0343 135.796 76.9085 135.937 75.642C136.078 74.3755 137.203 73.5312 138.47 73.5312C137.625 72.6868 136.5 72.124 135.233 71.9832C132.419 71.7018 129.886 73.6719 129.464 76.627Z" fill="#989FB0"/>
<path d="M106.808 57.3485C104.416 57.7707 102.305 58.1928 100.616 59.3186C98.9278 60.4444 97.2391 62.2738 96.3948 64.3846C96.3948 64.5253 96.2541 64.5253 96.1134 64.5253C95.9727 64.5253 95.9727 64.3846 95.9727 64.3846C96.1134 63.2588 96.6763 61.9923 97.3799 61.0073C97.9428 59.8815 98.9278 59.0372 100.054 58.3336C101.179 57.63 102.164 57.0671 103.431 56.6449C104.697 56.5042 105.964 56.3635 107.09 56.9264C106.949 56.9264 107.23 57.2078 106.808 57.3485C106.949 57.3485 106.949 57.3485 106.808 57.3485Z" fill="#989FB0"/>
<path d="M135.655 62.4142C137.766 63.2585 139.596 64.1028 141.143 65.5101C142.551 66.9173 143.676 69.0281 144.099 71.1389C144.099 71.2796 144.239 71.2796 144.38 71.2796C144.521 71.2796 144.521 71.1389 144.521 71.1389C144.662 70.0131 144.239 68.7466 143.958 67.7616C143.536 66.6358 142.973 65.5101 141.988 64.6657C141.143 63.8214 140.299 62.9771 139.173 62.4142C138.048 61.992 136.781 61.7106 135.655 61.8513C135.515 61.992 135.515 62.1327 135.655 62.4142C135.655 62.4142 135.374 62.4142 135.655 62.4142Z" fill="#989FB0"/>
<path d="M148.18 56.2225C145.647 52.8452 141.988 53.8303 143.395 57.7705C145.647 63.9622 149.869 66.9174 150.994 89.9956C151.276 94.0766 164.926 85.3518 164.926 70.8576C164.926 68.1839 161.689 67.1988 161.689 67.1988C159.719 66.6359 152.261 61.4292 148.18 56.2225Z" fill="#989FB0"/>
<path d="M32.2254 67.199C32.2254 67.199 17.3089 62.8366 19.7012 67.7619C22.0935 72.6871 28.7074 82.5376 39.2615 84.9298C49.8155 87.1814 43.4831 77.8938 43.6238 78.0345L32.2254 67.199Z" fill="#EEEEEE"/>
<g filter="url(#filter0_d_2932_69665)">
<path d="M16.4644 57.6296C20.2639 61.8513 36.1654 68.043 49.1117 67.4801C50.9411 80.9894 52.3483 85.0703 54.7406 86.7589C48.2674 88.4476 30.818 87.0404 28.4257 73.9533C16.183 74.5162 16.4644 57.6296 16.4644 57.6296Z" fill="url(#paint0_linear_2932_69665)"/>
</g>
<g filter="url(#filter1_d_2932_69665)">
<path d="M184.627 107.586C188.849 104.772 196.448 91.6845 197.573 80.4268C209.535 80.4268 213.193 79.8639 215.163 77.8938C215.726 83.8041 214.601 98.2984 204.469 106.882C193.211 108.008 184.627 107.586 184.627 107.586Z" fill="url(#paint1_linear_2932_69665)"/>
</g>
<g filter="url(#filter2_d_2932_69665)">
<path d="M152.964 153.602C133.404 156.838 129.886 157.401 122.428 156.416C114.969 155.431 104.556 154.165 101.038 160.919C99.4901 152.054 95.9721 143.892 89.4989 137.7C89.9211 137.137 90.2025 136.293 90.2025 135.449C90.2025 133.76 89.2174 132.353 87.6695 131.79C87.951 131.227 88.0917 130.664 88.0917 130.101C88.0917 127.99 86.403 126.161 84.1515 126.161C82.885 126.161 81.7592 126.724 81.0556 127.709C81.1963 127.005 81.3371 126.442 81.3371 126.161C81.3371 124.05 79.6484 122.221 77.3969 122.221C76.2711 122.221 75.1453 122.784 74.4417 123.628C73.8788 122.784 73.0345 122.221 71.9087 122.221C70.2201 122.221 68.9536 123.487 68.9536 125.176C68.9536 125.457 68.9536 126.161 68.9536 127.005C58.9624 123.769 56.8516 123.628 56.8516 123.628C62.9026 111.667 91.6097 94.2173 112.296 97.4539C125.524 99.424 140.44 103.083 148.039 117.577C147.617 117.436 147.195 117.296 146.772 117.296C146.632 117.296 146.35 117.296 146.069 117.436C145.365 116.451 144.239 115.888 142.973 115.888C141.003 115.888 139.455 117.296 139.173 119.125C139.033 119.125 138.47 119.125 138.048 119.125C135.937 119.125 134.248 120.814 134.248 122.924C134.248 124.472 135.233 125.88 136.641 126.442C135.937 127.146 135.515 127.99 135.515 129.116C135.515 131.227 137.203 132.916 139.314 132.916C140.721 132.916 141.847 132.212 142.551 131.227C143.254 132.212 144.38 132.916 145.787 132.916C147.898 132.916 149.587 131.227 149.587 129.116C149.587 128.975 149.587 128.975 149.587 128.835C150.572 128.413 151.416 127.568 151.698 126.583C153.527 133.619 154.231 142.485 152.964 153.602Z" fill="url(#paint2_linear_2932_69665)"/>
</g>
<path d="M103.853 143.329C109.341 141.64 132.7 136.434 146.069 137.982L103.853 143.329Z" fill="white"/>
<path fill-rule="evenodd" clip-rule="evenodd" d="M122.151 140.345C113.981 141.66 106.813 143.375 104.121 144.204L103.583 142.454C106.38 141.594 113.636 139.862 121.86 138.538C130.069 137.217 139.357 136.283 146.174 137.073L145.963 138.891C139.412 138.132 130.335 139.028 122.151 140.345Z" fill="#D6DCE8"/>
<path d="M98.3643 135.871C102.867 133.901 124.538 129.398 135.515 128.975L98.3643 135.871Z" fill="white"/>
<path fill-rule="evenodd" clip-rule="evenodd" d="M104.746 134.91C101.905 135.617 99.7765 136.252 98.7306 136.709L97.9971 135.033C99.2027 134.505 101.472 133.839 104.304 133.134C107.159 132.423 110.649 131.659 114.338 130.945C121.702 129.518 129.919 128.275 135.479 128.061L135.549 129.89C130.133 130.098 122.027 131.319 114.686 132.741C111.022 133.451 107.564 134.209 104.746 134.91Z" fill="#D6DCE8"/>
<path d="M93.1572 127.568C111.029 117.577 125.101 121.799 136.64 112.933L93.1572 127.568Z" fill="white"/>
<path fill-rule="evenodd" clip-rule="evenodd" d="M117.436 120.729C110.246 122.03 102.395 123.452 93.604 128.367L92.7109 126.769C101.774 121.703 109.88 120.236 117.067 118.936L117.111 118.928C124.335 117.621 130.516 116.485 136.083 112.208L137.198 113.659C131.248 118.23 124.649 119.424 117.515 120.715L117.436 120.729Z" fill="#D6DCE8"/>
<path d="M87.3877 121.236C94.9866 116.029 101.46 113.637 110.185 112.933L87.3877 121.236Z" fill="white"/>
<path fill-rule="evenodd" clip-rule="evenodd" d="M110.259 113.845C101.705 114.535 95.3831 116.867 87.9055 121.99L86.8711 120.481C94.5914 115.191 101.216 112.738 110.112 112.021L110.259 113.845Z" fill="#D6DCE8"/>
<path d="M134.53 100.69C134.53 100.831 134.53 101.113 134.53 101.253V101.394C134.53 101.535 134.53 101.675 134.389 101.816C133.545 104.068 129.886 106.741 126.086 107.164C122.287 107.586 118.347 106.038 116.658 99.7053C112.577 103.646 108.637 104.208 105.4 103.364C101.179 102.238 98.3644 98.861 98.2236 97.876C98.2236 97.4538 98.2236 97.0317 98.3644 96.6095C99.3494 87.4626 108.215 80.9894 118.206 82.1152C128.197 83.3817 135.515 91.6842 134.53 100.69Z" fill="#BFC8D6"/>
<path d="M118.206 83.5225C117.362 83.3818 116.376 83.3818 115.532 83.5225C114.406 83.804 112.718 84.0854 112.436 85.4926C112.296 87.322 116.236 89.4328 117.362 89.5735C118.487 89.7143 122.85 88.5885 123.131 86.7591C123.272 84.9297 121.724 84.2261 120.317 83.804C119.613 83.6633 118.769 83.3818 118.206 83.5225Z" fill="#989FB0"/>
<path fill-rule="evenodd" clip-rule="evenodd" d="M117.042 92.9463C116.976 91.0703 116.749 89.1085 116.56 87.8788L117.697 87.7039C117.891 88.9672 118.124 90.975 118.192 92.9057C118.226 93.8708 118.219 94.8281 118.143 95.6692C118.069 96.4949 117.923 97.2691 117.643 97.8289L116.614 97.3143C116.794 96.9536 116.926 96.3567 116.997 95.5655C117.068 94.7898 117.075 93.8845 117.042 92.9463Z" fill="#989FB0"/>
<path d="M94.706 55.519L94.5653 57.0669C93.8617 57.7705 93.2988 58.6148 92.5952 59.4592C88.9364 64.3844 85.5591 70.8576 84.5741 79.0194C84.2926 78.0344 81.3375 67.4803 80.7746 65.5102C80.6339 65.088 80.4932 64.8066 80.4932 64.8066V61.8514L83.1669 55.9411L90.0622 52.4231L94.706 55.519Z" fill="#6F788D"/>
<path d="M100.897 51.1565C98.9273 52.5638 96.6758 54.5339 94.5649 57.0668C93.8613 57.7704 93.2985 58.6148 92.5948 59.4591C92.3134 55.5189 87.6696 54.956 87.6696 54.956C87.1067 58.474 84.0108 62.4142 80.6335 65.5101C77.8191 68.0431 74.7232 69.8725 72.7532 70.0132C72.1903 70.0132 71.7681 69.591 72.0495 69.0281C73.4568 65.3694 73.0346 60.022 73.4568 57.3483C74.0196 54.3931 82.4629 49.89 86.8253 48.2014C90.2026 46.9349 99.068 48.7643 100.897 51.1565Z" fill="#989FB0"/>
<defs>
<filter id="filter0_d_2932_69665" x="0.355155" y="46.1234" width="61.2888" height="52.7165" filterUnits="userSpaceOnUse" color-interpolation-filters="sRGB">
<feFlood flood-opacity="0" result="BackgroundImageFix"/>
<feColorMatrix in="SourceAlpha" type="matrix" values="0 0 0 0 0 0 0 0 0 0 0 0 0 0 0 0 0 0 127 0" result="hardAlpha"/>
<feOffset dx="-4.60249"/>
<feGaussianBlur stdDeviation="5.75311"/>
<feColorMatrix type="matrix" values="0 0 0 0 0.397708 0 0 0 0 0.47749 0 0 0 0 0.575 0 0 0 0.15 0"/>
<feBlend mode="normal" in2="BackgroundImageFix" result="effect1_dropShadow_2932_69665"/>
<feBlend mode="normal" in="SourceGraphic" in2="effect1_dropShadow_2932_69665" result="shape"/>
</filter>
<filter id="filter1_d_2932_69665" x="168.518" y="66.3876" width="53.6667" height="52.7822" filterUnits="userSpaceOnUse" color-interpolation-filters="sRGB">
<feFlood flood-opacity="0" result="BackgroundImageFix"/>
<feColorMatrix in="SourceAlpha" type="matrix" values="0 0 0 0 0 0 0 0 0 0 0 0 0 0 0 0 0 0 127 0" result="hardAlpha"/>
<feOffset dx="-4.60249"/>
<feGaussianBlur stdDeviation="5.75311"/>
<feColorMatrix type="matrix" values="0 0 0 0 0.397708 0 0 0 0 0.47749 0 0 0 0 0.575 0 0 0 0.15 0"/>
<feBlend mode="normal" in2="BackgroundImageFix" result="effect1_dropShadow_2932_69665"/>
<feBlend mode="normal" in="SourceGraphic" in2="effect1_dropShadow_2932_69665" result="shape"/>
</filter>
<filter id="filter2_d_2932_69665" x="31.5379" y="84.4037" width="147.382" height="114.486" filterUnits="userSpaceOnUse" color-interpolation-filters="sRGB">
<feFlood flood-opacity="0" result="BackgroundImageFix"/>
<feColorMatrix in="SourceAlpha" type="matrix" values="0 0 0 0 0 0 0 0 0 0 0 0 0 0 0 0 0 0 127 0" result="hardAlpha"/>
<feOffset dy="12.6568"/>
<feGaussianBlur stdDeviation="12.6568"/>
<feColorMatrix type="matrix" values="0 0 0 0 0.397708 0 0 0 0 0.47749 0 0 0 0 0.575 0 0 0 0.27 0"/>
<feBlend mode="normal" in2="BackgroundImageFix" result="effect1_dropShadow_2932_69665"/>
<feBlend mode="normal" in="SourceGraphic" in2="effect1_dropShadow_2932_69665" result="shape"/>
</filter>
<linearGradient id="paint0_linear_2932_69665" x1="35.5898" y1="56.9426" x2="35.5898" y2="87.654" gradientUnits="userSpaceOnUse">
<stop stop-color="#FDFEFF"/>
<stop offset="0.9964" stop-color="#ECF0F5"/>
</linearGradient>
<linearGradient id="paint1_linear_2932_69665" x1="199.944" y1="77.2052" x2="199.944" y2="107.984" gradientUnits="userSpaceOnUse">
<stop stop-color="#FDFEFF"/>
<stop offset="0.9964" stop-color="#ECF0F5"/>
</linearGradient>
<linearGradient id="paint2_linear_2932_69665" x1="105.197" y1="95.5834" x2="105.197" y2="161.608" gradientUnits="userSpaceOnUse">
<stop stop-color="#FDFEFF"/>
<stop offset="0.9964" stop-color="#ECF0F5"/>
</linearGradient>
</defs>
</svg>
