<svg width="49" height="48" viewBox="0 0 49 48" fill="none" xmlns="http://www.w3.org/2000/svg">
<rect x="0.0864258" width="48" height="48" rx="11" fill="#49AC82"/>
<g clip-path="url(#clip0_1856_79397)">
<mask id="mask0_1856_79397" style="mask-type:luminance" maskUnits="userSpaceOnUse" x="10" y="10" width="29" height="28">
<path d="M10.0864 10H38.0864V38H10.0864V10Z" fill="white"/>
</mask>
<g mask="url(#mask0_1856_79397)">
<path fill-rule="evenodd" clip-rule="evenodd" d="M24.0821 10.0928C26.175 10.0916 28.2412 10.5628 30.1266 11.4712C32.0122 12.3797 33.6684 13.7021 34.9718 15.3398C36.275 16.9774 37.192 18.8881 37.654 20.9295C38.1162 22.9708 38.1114 25.0902 37.6406 27.1295C37.1696 29.1688 36.2444 31.0755 34.9338 32.7075C33.6234 34.3395 31.9614 35.6545 30.072 36.5549C28.1825 37.4551 26.1142 37.9173 24.0212 37.9069C22.0394 37.8971 20.0838 37.4639 18.2852 36.6377L11.3532 37.8911C10.9991 37.9551 10.6378 37.8239 10.4073 37.5475C10.1768 37.2711 10.1126 36.8921 10.2392 36.5553L12.2277 31.2649C11.007 29.2722 10.3066 27.0015 10.1951 24.6618C10.0754 22.149 10.6394 19.6509 11.8272 17.4333C13.015 15.2158 14.7821 13.362 16.9402 12.0693C19.0981 10.7767 21.5666 10.0936 24.0821 10.0928ZM17.6389 23.9968L17.6398 23.9999L17.6389 24.003L17.6377 24.005L17.6358 24.0061L17.6327 24.007L17.6296 24.0061L17.6276 24.005L17.6265 24.003L17.6256 23.9999L17.6265 23.9968L17.6276 23.9949L17.6296 23.9937L17.6327 23.9928L17.6358 23.9937L17.6377 23.9949L17.6389 23.9968ZM17.6327 22.007C16.5321 22.007 15.6398 22.8993 15.6398 23.9999C15.6398 25.1005 16.5321 25.9928 17.6327 25.9928C18.7333 25.9928 19.6255 25.1005 19.6255 23.9999C19.6255 22.8993 18.7333 22.007 17.6327 22.007ZM24.0933 23.9999L24.0924 23.9968L24.0913 23.9949L24.0893 23.9937L24.0863 23.9928L24.0832 23.9937L24.0812 23.9949L24.0801 23.9968L24.0792 23.9999L24.0801 24.003L24.0812 24.005L24.0832 24.0061L24.0863 24.007L24.0893 24.0061L24.0913 24.005L24.0924 24.003L24.0933 23.9999ZM22.0934 23.9999C22.0934 22.8993 22.9856 22.007 24.0863 22.007C25.1869 22.007 26.0791 22.8993 26.0791 23.9999C26.0791 25.1005 25.1869 25.9928 24.0863 25.9928C22.9856 25.9928 22.0934 25.1005 22.0934 23.9999ZM30.546 23.9968L30.547 23.9999L30.546 24.003L30.5448 24.005L30.543 24.0061L30.5398 24.007L30.5368 24.0061L30.5348 24.005L30.5336 24.003L30.5328 23.9999L30.5336 23.9968L30.5348 23.9949L30.5368 23.9937L30.5398 23.9928L30.543 23.9937L30.5448 23.9949L30.546 23.9968ZM30.5398 22.007C29.4392 22.007 28.547 22.8993 28.547 23.9999C28.547 25.1005 29.4392 25.9928 30.5398 25.9928C31.6404 25.9928 32.5326 25.1005 32.5326 23.9999C32.5326 22.8993 31.6404 22.007 30.5398 22.007Z" fill="white"/>
</g>
</g>
<defs>
<clipPath id="clip0_1856_79397">
<rect width="28" height="28" fill="white" transform="translate(10.0864 10)"/>
</clipPath>
</defs>
</svg>
