 <svg  width="18" height="18"
                                        xmlns="http://www.w3.org/2000/svg" viewBox="0 0 20 20">
                                        <path fill-rule="evenodd"
                                            d="M7.69643 10.875C7.84152 11.0312 8.07366 11.0312 8.18973 10.875L8.77009 10.25C8.91518 10.125 8.91518 9.875 8.77009 9.71875L5.95536 6.78125L13.1518 6.78125C13.3549 6.78125 13.5 6.625 13.5 6.40625L13.5 5.53125C13.5 5.34375 13.3549 5.15625 13.1518 5.15625L5.95536 5.15625L8.77009 2.25C8.91518 2.09375 8.91518 1.84375 8.77009 1.71875L8.18973 1.09375C8.07366 0.9375 7.84152 0.9375 7.69643 1.09375L3.40179 5.71875C3.2567 5.875 3.2567 6.09375 3.40179 6.25L7.69643 10.875ZM2.00893 11.625L2.00893 0.374999C2.00893 0.156249 1.86384 -1.01727e-06 1.66072 -1.03502e-06L0.848215 -1.10605e-06C0.674108 -1.12128e-06 0.500001 0.156249 0.500001 0.374999L0.5 11.625C0.5 11.8125 0.674107 12 0.848214 12L1.66071 12C1.86384 12 2.00893 11.8125 2.00893 11.625Z"
                                            clip-rule="evenodd" />
                                    </svg>