<svg width="18" height="18"
                                        xmlns="http://www.w3.org/2000/svg" viewBox="0 0 20 20">
                                        <path
                                            d="M6.30357 10.875C6.15848 11.0312 5.92634 11.0312 5.81027 10.875L5.22991 10.25C5.08482 10.125 5.08482 9.875 5.22991 9.71875L8.04464 6.78125L0.848215 6.78125C0.645103 6.78125 0.500001 6.625 0.500001 6.40625L0.5 5.53125C0.5 5.34375 0.645103 5.15625 0.848215 5.15625L8.04464 5.15625L5.22991 2.25C5.08482 2.09375 5.08482 1.84375 5.22991 1.71875L5.81027 1.09375C5.92634 0.9375 6.15848 0.9375 6.30357 1.09375L10.5982 5.71875C10.7433 5.875 10.7433 6.09375 10.5982 6.25L6.30357 10.875ZM11.9911 11.625L11.9911 0.374999C11.9911 0.156249 12.1362 -1.01727e-06 12.3393 -1.03502e-06L13.1518 -1.10605e-06C13.3259 -1.12128e-06 13.5 0.156249 13.5 0.374999L13.5 11.625C13.5 11.8125 13.3259 12 13.1518 12L12.3393 12C12.1362 12 11.9911 11.8125 11.9911 11.625Z"
                                            fill-rule="evenodd" clip-rule="evenodd" />
                                    </svg>