<svg width="48" height="48" viewBox="0 0 48 48" fill="none" xmlns="http://www.w3.org/2000/svg">
<rect width="48" height="48" rx="11" fill="#6C9CF9"/>
<path fill-rule="evenodd" clip-rule="evenodd" d="M19.7151 27.3331C22.572 27.3338 25.4289 27.3338 28.2858 27.3331C29.2547 27.3329 29.9149 27.3328 30.4914 27.4344C33.2515 27.9211 35.4125 30.0821 35.8991 32.8422C36.0008 33.4187 36.0007 34.0789 36.0005 35.0478C36.0004 35.259 36.0069 35.4716 35.97 35.6805C35.824 36.5085 35.1758 37.1568 34.3477 37.3028C34.1662 37.3348 33.9749 37.3338 33.8797 37.3333C27.2942 37.298 20.7066 37.298 14.1211 37.3333C14.026 37.3338 13.8347 37.3348 13.6531 37.3028C12.8251 37.1568 12.1768 36.5085 12.0308 35.6805C11.994 35.4716 12.0005 35.259 12.0004 35.0478C12.0002 34.0789 12.0001 33.4187 12.1017 32.8422C12.5884 30.0821 14.7494 27.9211 17.5094 27.4344C18.086 27.3328 18.7462 27.3329 19.7151 27.3331Z" fill="white"/>
<path fill-rule="evenodd" clip-rule="evenodd" d="M16.6671 17.9998C16.6671 13.9497 19.9503 10.6665 24.0004 10.6665C28.0505 10.6665 31.3338 13.9497 31.3338 17.9998C31.3338 22.0499 28.0505 25.3332 24.0004 25.3332C19.9503 25.3332 16.6671 22.0499 16.6671 17.9998Z" fill="white"/>
</svg>
