<svg width="258" height="149" viewBox="0 0 258 149" fill="none" xmlns="http://www.w3.org/2000/svg">
<g clip-path="url(#clip0_6468_1311)">
<rect width="258" height="149" fill="#FEF2F2"/>
<g opacity="0.5">
<rect x="30.4937" y="61.8281" width="196.848" height="93.3245" rx="8.60097" fill="#FEE5E2"/>
<rect x="30.4937" y="61.8281" width="196.848" height="93.3245" rx="8.60097" stroke="black"/>
<path d="M30.4937 66.743C30.4937 64.0286 32.6941 61.8281 35.4085 61.8281H222.427C225.141 61.8281 227.342 64.0286 227.342 66.743V85.0573H30.4937V66.743Z" fill="#FF988D"/>
<path d="M30.4937 66.743C30.4937 64.0286 32.6941 61.8281 35.4085 61.8281H222.427C225.141 61.8281 227.342 64.0286 227.342 66.743V85.0573H30.4937V66.743Z" stroke="black"/>
<rect x="38.8281" y="72.0459" width="34.0474" height="5.12559" rx="2.56279" fill="white"/>
<rect x="38.8281" y="94.4316" width="34.0474" height="5.12559" rx="2.56279" fill="#FDCFCA"/>
<rect x="38.8281" y="118.712" width="34.0474" height="5.12559" rx="2.56279" fill="#FDCFCA"/>
<rect x="38.8281" y="141.418" width="34.0474" height="5.12559" rx="2.56279" fill="#FDCFCA"/>
<rect x="87.1746" y="72.0459" width="27.1005" height="5.12559" rx="2.56279" fill="white"/>
<rect x="87.1746" y="94.4316" width="31.3424" height="5.12559" rx="2.56279" fill="#FDCFCA"/>
<rect x="87.1746" y="118.712" width="31.3424" height="5.12559" rx="2.56279" fill="#FDCFCA"/>
<rect x="87.1746" y="141.418" width="31.3424" height="5.12559" rx="2.56279" fill="#FDCFCA"/>
<rect x="135.085" y="72.0459" width="33.0505" height="5.12559" rx="2.56279" fill="white"/>
<rect x="135.085" y="94.4316" width="33.0505" height="5.12559" rx="2.56279" fill="#FDCFCA"/>
<rect x="135.085" y="118.712" width="33.0505" height="5.12559" rx="2.56279" fill="#FDCFCA"/>
<rect x="135.085" y="141.418" width="33.0505" height="5.12559" rx="2.56279" fill="#FDCFCA"/>
<rect x="186.632" y="72.0459" width="20.3681" height="5.12559" rx="2.56279" fill="white"/>
<rect x="186.632" y="94.4316" width="29.8265" height="5.12559" rx="2.56279" fill="#FDCFCA"/>
<rect x="186.632" y="118.712" width="29.8265" height="5.12559" rx="2.56279" fill="#FDCFCA"/>
<rect x="186.632" y="141.418" width="29.8265" height="5.12559" rx="2.56279" fill="#FDCFCA"/>
<rect x="30.5261" y="121.53" width="197.008" height="44" fill="url(#paint0_linear_6468_1311)"/>
</g>
<g filter="url(#filter0_d_6468_1311)">
<rect x="97" y="40" width="64" height="64" rx="12" fill="white" shape-rendering="crispEdges"/>
<path d="M116.5 62.625C116.5 60.8016 117.224 59.053 118.514 57.7636C119.803 56.4743 121.552 55.75 123.375 55.75C125.198 55.75 126.947 56.4743 128.236 57.7636C129.526 59.053 130.25 60.8016 130.25 62.625C130.25 64.4484 129.526 66.1971 128.236 67.4864C126.947 68.7757 125.198 69.5 123.375 69.5C121.552 69.5 119.803 68.7757 118.514 67.4864C117.224 66.1971 116.5 64.4484 116.5 62.625ZM132.75 66.375C132.75 65.6363 132.895 64.9049 133.178 64.2224C133.461 63.54 133.875 62.9199 134.398 62.3975C134.92 61.8752 135.54 61.4609 136.222 61.1782C136.905 60.8955 137.636 60.75 138.375 60.75C139.114 60.75 139.845 60.8955 140.528 61.1782C141.21 61.4609 141.83 61.8752 142.352 62.3975C142.875 62.9199 143.289 63.54 143.572 64.2224C143.855 64.9049 144 65.6363 144 66.375C144 67.8668 143.407 69.2976 142.352 70.3525C141.298 71.4074 139.867 72 138.375 72C136.883 72 135.452 71.4074 134.398 70.3525C133.343 69.2976 132.75 67.8668 132.75 66.375ZM111.5 83.875C111.5 80.7256 112.751 77.7051 114.978 75.4781C117.205 73.2511 120.226 72 123.375 72C126.524 72 129.545 73.2511 131.772 75.4781C133.999 77.7051 135.25 80.7256 135.25 83.875V83.88L135.248 84.0783C135.245 84.2903 135.187 84.4979 135.082 84.6816C134.976 84.8652 134.825 85.019 134.643 85.1283C131.242 87.1766 127.345 88.2561 123.375 88.25C119.255 88.25 115.398 87.11 112.108 85.1283C111.926 85.0192 111.775 84.8655 111.669 84.6818C111.563 84.4981 111.505 84.2905 111.502 84.0783L111.5 83.875ZM137.75 83.88L137.748 84.12C137.739 84.6755 137.606 85.222 137.36 85.72C140.27 85.8995 143.176 85.3194 145.793 84.0367C145.996 83.9377 146.168 83.7859 146.291 83.5972C146.414 83.4086 146.484 83.1901 146.493 82.965C146.552 81.5671 146.249 80.1776 145.613 78.9313C144.977 77.6849 144.031 76.6238 142.864 75.8508C141.698 75.0779 140.352 74.6191 138.956 74.5191C137.561 74.4191 136.163 74.6812 134.898 75.28C136.754 77.761 137.754 80.777 137.748 83.875L137.75 83.88Z" fill="#FF7941"/>
</g>
</g>
<defs>
<filter id="filter0_d_6468_1311" x="93" y="40" width="72" height="72" filterUnits="userSpaceOnUse" color-interpolation-filters="sRGB">
<feFlood flood-opacity="0" result="BackgroundImageFix"/>
<feColorMatrix in="SourceAlpha" type="matrix" values="0 0 0 0 0 0 0 0 0 0 0 0 0 0 0 0 0 0 127 0" result="hardAlpha"/>
<feOffset dy="4"/>
<feGaussianBlur stdDeviation="2"/>
<feComposite in2="hardAlpha" operator="out"/>
<feColorMatrix type="matrix" values="0 0 0 0 1 0 0 0 0 0.47451 0 0 0 0 0.254902 0 0 0 0.1 0"/>
<feBlend mode="normal" in2="BackgroundImageFix" result="effect1_dropShadow_6468_1311"/>
<feBlend mode="normal" in="SourceGraphic" in2="effect1_dropShadow_6468_1311" result="shape"/>
</filter>
<linearGradient id="paint0_linear_6468_1311" x1="129.122" y1="183.196" x2="134.071" y2="121.671" gradientUnits="userSpaceOnUse">
<stop offset="0.215" stop-color="#FFF7ED"/>
<stop offset="1" stop-color="white" stop-opacity="0"/>
</linearGradient>
<clipPath id="clip0_6468_1311">
<rect width="258" height="149" fill="white"/>
</clipPath>
</defs>
</svg>
