<svg width="18" height="19" viewBox="0 0 18 19" fill="none" xmlns="http://www.w3.org/2000/svg">
<g clip-path="url(#clip0_8553_21300)">
<path d="M9 0.500488C4.02996 0.500488 0 4.52965 0 9.50009C0 14.4705 4.02956 18.4997 9 18.4997C13.9708 18.4997 18 14.4705 18 9.50009C18 4.52965 13.9708 0.500488 9 0.500488ZM9 3.19147C10.6446 3.19147 11.9772 4.52451 11.9772 6.16828C11.9772 7.81244 10.6446 9.14509 9 9.14509C7.35623 9.14509 6.02359 7.81244 6.02359 6.16828C6.02359 4.52451 7.35623 3.19147 9 3.19147ZM8.99802 16.1467C7.35781 16.1467 5.85557 15.5494 4.69687 14.5607C4.41461 14.3199 4.25173 13.9669 4.25173 13.5965C4.25173 11.9294 5.60098 10.5951 7.26847 10.5951H10.7323C12.4002 10.5951 13.7443 11.9294 13.7443 13.5965C13.7443 13.9673 13.5822 14.3195 13.2996 14.5603C12.1413 15.5494 10.6386 16.1467 8.99802 16.1467Z" fill="#BAC7D5"/>
</g>
<defs>
<clipPath id="clip0_8553_21300">
<rect width="18" height="18" fill="white" transform="translate(0 0.5)"/>
</clipPath>
</defs>
</svg>
