<svg width="172" height="172" viewBox="0 0 172 172" fill="none" xmlns="http://www.w3.org/2000/svg">
<path fill-rule="evenodd" clip-rule="evenodd" d="M149.854 198.143C149.587 193.214 149.26 188.289 148.868 183.367C148.086 173.565 147.064 163.755 145.361 154.065C143.682 144.504 141.332 135.208 137.946 126.098C136.375 121.871 134.674 118.265 132.206 114.466C129.873 110.873 126.895 108.439 123.185 106.27C119.843 104.316 115.96 100.926 112.754 98.7384C111.416 97.825 108.662 97.8859 107.744 96.5347C106.542 94.7653 107.322 92.0571 106.11 90.2936C104.725 88.2772 102.785 86.7108 100.597 85.5728C98.2097 83.9633 95.3973 83.2348 92.5774 83.3351C88.4191 83.084 84.2311 84.4018 81.5614 87.7709C80.2292 89.4522 79.4513 91.3921 79.3437 93.54C79.3156 94.0988 79.4959 94.5393 79.7927 94.8573C79.6167 95.0915 79.4416 95.3259 79.2676 95.5616C78.7215 94.7565 77.4452 94.3287 76.5946 94.9363C73.8119 96.9246 70.8045 98.5055 67.6303 99.6644C66.8877 99.3146 65.9887 99.4766 65.3525 100.048C65.0943 100.279 64.8204 100.477 64.5342 100.645C63.3572 100.963 62.1621 101.228 60.9492 101.433C60.5696 101.497 60.2479 101.712 60.0039 102.001C59.6424 101.665 59.1456 101.503 58.5908 101.714C52.1848 104.145 46.1352 107.921 41.5369 113.037C36.4425 118.705 33.7668 125.755 31.7298 132.978C29.5246 140.797 28.1154 148.811 26.9318 156.838C25.7325 164.972 24.5512 173.137 23.726 181.318C23.2616 185.921 23.0845 190.567 23.2947 195.191C23.3995 197.502 23.6115 199.805 23.9493 202.094C24.028 202.629 24.1104 203.246 24.243 203.862C23.8398 203.784 23.3595 204.123 23.4413 204.666C24.0104 208.449 28.6049 209.551 31.7735 209.986C36.9567 210.699 42.1668 211.094 47.3997 211.124C52.5421 211.154 57.6836 210.825 62.8153 210.531C68.0765 210.23 73.3375 209.926 78.5985 209.619C99.6772 208.389 120.757 207.173 141.836 205.942C143.762 205.83 145.961 205.677 147.61 204.566C149.871 203.041 149.988 200.619 149.854 198.143Z" fill="white"/>
<path fill-rule="evenodd" clip-rule="evenodd" d="M47.0956 155.834C47.0224 155.697 47.1922 155.575 47.3048 155.673C49.8637 157.908 51.2034 161.498 51.4843 164.816C51.7819 168.335 51.36 171.978 51.1987 175.495C51.0193 179.413 50.858 183.332 50.6389 187.248C50.4165 191.22 50.1769 195.192 49.9715 199.166L49.5095 208.104C49.4603 209.057 49.5668 210.229 49.1995 211.118C48.6303 212.496 46.9396 212.283 46.5843 211.131L46.5732 211.093L46.5408 211.118C46.2273 210.08 46.4619 208.847 46.5151 207.773L46.9992 198.007C47.3412 191.104 47.6462 184.201 48.0136 177.299L48.1385 174.998C48.3103 171.901 48.442 168.812 48.5477 165.716L48.582 164.684C48.6824 161.575 48.6027 158.64 47.0956 155.834ZM109.127 98.527C110.553 98.3923 111.629 98.8628 112.924 99.3585C113.487 99.5743 114.021 99.8236 114.562 100.082C115.239 100.405 115.675 100.976 116.092 101.581L116.315 101.906C118.051 104.439 119.219 107.36 120.537 110.117C122.079 113.342 123.636 116.561 125.145 119.801L125.89 121.398C126.262 122.196 126.633 122.995 126.999 123.796L127.63 125.191C128.265 126.605 128.834 128.101 127.929 129.56C127.088 130.917 125.597 131.967 124.417 133.016C123.432 133.891 122.447 134.767 121.461 135.642C123.498 137.672 124.865 140.228 125.669 142.97C126.811 142.496 128.205 142.406 129.386 142.201C131.039 141.914 131.241 144.405 129.681 144.374C128.529 144.352 127.178 144.469 125.996 144.227C126.201 145.128 126.35 146.043 126.445 146.96C126.942 151.766 125.857 156.601 124.725 161.251L124.632 161.633C123.403 166.666 122.237 171.713 121.195 176.788C120.15 181.874 119.21 186.982 118.375 192.106C117.526 197.322 116.925 202.567 116.279 207.81C116.182 208.604 115.68 209.284 114.799 209.284C114.065 209.284 113.226 208.602 113.318 207.81C113.985 202.1 114.93 196.42 115.869 190.749C117.486 180.983 119.522 171.301 121.863 161.683L122.273 160.009C123.326 155.665 124.282 151.189 123.753 146.708C123.323 143.059 121.79 139.169 118.761 136.903L118.669 136.835C117.962 136.318 117.69 135.331 118.386 134.651C118.83 134.218 119.274 133.785 119.718 133.353L122.384 130.762L122.922 130.239C123.37 129.803 123.821 129.37 124.284 128.95C124.565 128.697 125.326 128.212 125.382 127.795C125.418 127.522 125.094 127.044 124.963 126.793L124.361 125.584C124.019 124.894 123.688 124.2 123.354 123.506C122.663 122.07 121.961 120.637 121.285 119.194L117.22 110.525C116.074 108.08 115.053 105.498 113.554 103.237L113.258 102.797C113.011 102.426 112.793 102.068 112.638 101.614C112.488 101.178 112.299 100.698 112.022 100.326C111.373 99.4514 110.132 98.9553 109.094 98.7722C108.944 98.7456 108.998 98.5393 109.127 98.527ZM77.8694 96.2502C77.9596 96.2502 77.9733 96.3785 77.8901 96.4034C76.6375 96.7784 75.4405 97.3834 74.4639 98.2566C73.9967 98.6745 73.5263 99.1487 73.2378 99.7113C73.1274 99.9266 73.0663 100.154 73.0216 100.39L73.0072 100.469C72.9328 100.895 72.8263 101.132 72.6089 101.473L72.5716 101.531C71.3305 103.438 70.4607 105.557 69.6654 107.679L67.9336 112.305L66.2028 116.932C65.6452 118.423 65.0872 119.914 64.5294 121.404C64.2213 122.227 63.9044 123.047 63.5878 123.867C63.4507 124.222 63.3033 124.574 63.178 124.934C63.1608 124.983 63.106 125.279 63.0649 125.351L63.0789 125.375C63.428 125.959 64.359 126.448 64.8867 126.873L66.7038 128.335C67.9994 129.378 69.3282 130.391 70.5849 131.481C71.3743 132.164 70.8831 133.389 70.0028 133.675C68.5276 134.153 67.0823 134.726 65.6291 135.267C65.0421 135.486 64.4309 135.676 63.8508 135.917L63.4976 136.069C63.3597 136.131 63.426 136.13 63.4315 136.384C63.437 136.649 63.5127 136.926 63.5562 137.187C64.0456 140.133 64.5645 143.074 65.1121 146.01C67.0492 156.391 69.3635 166.697 72.0029 176.924C73.3361 182.088 74.7659 187.227 76.1283 192.384C77.4874 197.526 79.2756 202.596 80.9831 207.633C81.4648 209.053 79.202 209.665 78.7321 208.25C76.7643 202.326 74.9641 196.35 73.105 190.393C69.802 179.807 67.1991 168.991 64.897 158.149C63.756 152.776 62.7125 147.382 61.7673 141.971C61.5883 140.946 61.4128 139.921 61.241 138.896L60.9904 137.387C60.8187 136.312 60.7209 135.192 61.5606 134.341C62.3805 133.51 63.788 133.216 64.8668 132.826L64.9452 132.798C65.6316 132.543 66.3231 132.297 67.0119 132.044C65.9973 131.248 64.9951 130.436 63.983 129.641C63.1665 129 62.3371 128.372 61.5323 127.716C60.8688 127.175 60.3277 126.481 60.2585 125.601C60.1879 124.702 60.5749 123.868 60.8871 123.043L60.9171 122.964C61.2235 122.14 61.5308 121.318 61.846 120.498L63.7961 115.421C65.0354 112.195 66.2224 108.943 67.5258 105.743C68.0415 104.476 68.6035 103.229 69.2675 102.032C69.5877 101.455 69.9311 100.889 70.3043 100.345C70.7224 99.7334 71.1019 99.4355 71.7498 99.0983C72.7856 98.5592 73.5986 97.6553 74.6389 97.0996C75.6599 96.554 76.7103 96.2629 77.8694 96.2502ZM81.2323 90.4951C81.2719 90.4274 81.3769 90.4576 81.3782 90.5345C81.4053 92.1377 81.0226 93.776 80.7871 95.3612C80.5507 96.9521 80.4748 98.6313 80.1327 100.205C80.1257 100.279 80.1114 100.351 80.0913 100.422L80.0749 100.476C79.9305 100.917 79.555 101.29 79.0943 101.407C79.2392 102.206 79.3757 103.007 79.4905 103.812C79.6877 105.195 79.8677 106.58 80.0447 107.966L80.2566 109.629C80.4566 111.196 80.6511 112.764 80.8434 114.332C81.3326 114.536 81.8317 114.704 82.3429 114.849C83.5202 115.185 84.726 115.321 85.9409 115.44C88.415 115.681 90.908 115.793 93.3908 115.93L93.9227 115.96C96.7141 116.119 99.5206 116.147 102.305 115.862C103.686 115.721 105.055 115.484 106.402 115.148C107.086 114.977 107.751 114.722 108.434 114.555C108.66 114.499 108.862 114.371 109.089 114.235C109.19 114.108 109.331 114.012 109.516 113.975L109.566 113.967L109.615 113.959L109.632 113.952L109.631 113.957C109.77 113.938 109.903 113.938 110.028 113.955C110.078 112.733 110.132 111.51 110.2 110.288C110.381 107.005 110.883 103.58 110.213 100.326C110.191 100.217 110.34 100.178 110.379 100.281C111.693 103.726 111.545 107.493 111.612 111.119C111.676 114.665 111.637 118.213 111.62 121.76C111.875 121.868 112.102 122.014 112.283 122.22C112.643 122.631 112.746 123.345 112.283 123.742C112.077 123.917 111.85 124.04 111.608 124.124C111.595 127.205 111.574 130.287 111.542 133.368C112.131 133.821 112.186 134.895 111.52 135.342C111.409 145.32 111.227 155.299 111.076 165.276L110.76 186.208C110.718 188.997 110.648 191.786 110.623 194.574L110.643 194.582L110.713 194.614C110.831 194.669 111.006 194.759 111.042 194.85C111.052 194.874 111.055 194.89 111.053 194.902C111.247 194.929 111.438 195.02 111.603 195.177C112.012 195.563 111.929 196.146 111.603 196.54L111.516 196.645C111.313 196.89 110.928 196.985 110.613 196.935C110.616 198.675 110.627 200.416 110.622 202.156C110.62 202.688 110.612 203.22 110.603 203.751L110.581 205.026C110.566 205.753 110.501 206.678 109.753 207.004C108.909 207.373 108.151 207.071 107.809 206.217C107.717 205.986 107.737 205.771 107.771 205.542C107.76 205.199 107.706 204.801 107.713 204.482L107.741 203.153C107.745 202.948 107.753 202.743 107.759 202.538L107.735 202.541C104.734 202.686 101.713 202.615 98.7079 202.613L97.3713 202.615C96.2561 202.616 95.1386 202.61 94.025 202.568L93.6076 202.55C92.7739 202.511 91.8971 202.499 91.0328 202.425C91.1429 203.308 91.2458 204.192 91.3376 205.076C91.4245 205.915 90.5547 206.628 89.7788 206.628C88.8574 206.628 88.3303 205.907 88.22 205.076C87.6993 201.158 87.4863 197.203 86.9888 193.282C86.5432 189.77 86.1568 186.251 85.7641 182.732L85.6329 181.559C84.1957 168.755 82.8004 155.946 81.4658 143.131L80.8443 137.14C80.2167 131.102 79.5854 125.063 79.0531 119.016C78.7486 115.559 78.468 112.101 78.204 108.641C78.0103 106.098 77.8887 103.57 77.8095 101.033C77.4971 100.713 77.3405 100.246 77.4789 99.7633C77.5598 99.4818 77.6539 99.2019 77.7531 98.9224C77.747 98.6478 77.7404 98.3733 77.7351 98.0984C77.7301 97.8382 77.9954 97.7043 78.2078 97.7474C78.5939 96.8171 79.019 95.8947 79.3737 94.9733C79.9479 93.4819 80.4212 91.8749 81.2323 90.4951ZM49.1653 106.614C55.1676 102.869 62.3124 100.175 69.4685 100.465C69.6312 100.472 69.677 100.719 69.5081 100.756C65.691 101.604 61.832 102.638 58.2183 104.142C54.5941 105.65 51.148 107.681 48.0788 110.122C42.4159 114.625 38.0143 120.482 35.116 127.085C33.4183 130.953 32.2284 135.036 31.1893 139.121C30.0897 143.444 29.1835 147.813 28.43 152.209C26.9418 160.892 26.0753 169.671 25.6143 178.465C25.1452 187.41 25.3386 196.362 25.004 205.309C24.9462 206.859 22.7203 206.829 22.6072 205.309C21.8492 195.137 22.2691 184.803 22.9702 174.638C23.6005 165.5 24.7012 156.382 26.4737 147.391L26.6281 146.612C28.2851 138.294 30.2838 129.774 34.2896 122.241C37.7096 115.81 42.9896 110.467 49.1653 106.614ZM132.516 146.369C132.548 146.279 132.666 146.281 132.698 146.369C133.382 148.275 133.406 150.427 133.588 152.436L133.603 152.591C133.777 154.424 133.908 156.259 134.03 158.096L134.076 158.785C134.566 166.279 135.179 173.764 136.102 181.218C137.022 188.644 138.266 196.019 139.611 203.379C139.76 204.198 139.396 205.033 138.533 205.269C137.772 205.477 136.795 205.01 136.634 204.196C135.799 199.971 135.123 195.741 134.521 191.48C133.461 183.977 132.669 176.439 132.16 168.879C131.905 165.082 131.748 161.287 131.685 157.481C131.656 155.716 131.702 153.946 131.797 152.182L131.82 151.776C131.924 149.973 131.913 148.088 132.516 146.369ZM67.6577 194.099C67.738 194.056 67.8372 194.144 67.7864 194.227C66.6242 196.107 65.0519 197.728 63.5322 199.326C61.9435 200.996 60.3941 202.717 58.7733 204.354C57.6023 205.537 55.7185 203.629 56.9544 202.544C58.6921 201.018 60.5084 199.568 62.2771 198.077L63.0505 197.424C64.5007 196.204 65.9939 194.996 67.6577 194.099ZM122.86 193.157C122.773 192.993 122.971 192.859 123.106 192.968C124.044 193.727 124.884 194.632 125.789 195.433C126.686 196.226 127.616 196.966 128.571 197.688C129.53 198.412 130.511 199.108 131.517 199.766C132.352 200.312 133.213 200.749 134.087 201.203C134.492 201.255 134.867 201.452 135.167 201.827C135.642 202.421 135.692 203.539 135.034 204.054L134.916 204.146C134.148 204.747 133.236 204.821 132.48 204.146C131.635 203.394 130.837 202.566 130.026 201.77L129.783 201.533C128.911 200.69 128.061 199.819 127.26 198.91L126.534 198.089C125.188 196.561 123.787 194.914 122.86 193.157ZM118.542 105.074C118.386 104.971 118.482 104.695 118.674 104.761L119.027 104.882C120.503 105.392 122.021 105.958 123.36 106.744C124.8 107.588 126.129 108.594 127.398 109.673C130.026 111.906 132.262 114.652 134.162 117.514C137.975 123.258 140.333 129.836 142.237 136.417C144.267 143.435 145.829 150.603 147.105 157.792C148.402 165.098 149.402 172.47 150.06 179.86C150.383 183.501 150.601 187.143 150.71 190.796C150.766 192.676 150.765 194.554 150.749 196.434C150.745 196.917 150.748 197.4 150.754 197.884L150.772 199.334C150.782 200.25 150.892 201.214 150.673 202.109C150.321 203.551 147.926 203.282 148.005 201.808C147.933 201.318 147.93 200.812 147.949 200.304C147.938 200.238 147.925 200.172 147.911 200.104C147.872 199.909 147.906 199.729 147.982 199.574C147.995 199.33 148.006 199.088 148.01 198.85C148.026 197.882 148.025 196.918 147.998 195.951C147.941 193.91 147.86 191.87 147.777 189.831C147.613 185.755 147.384 181.678 147.052 177.613C145.897 163.462 143.459 149.231 139.363 135.617C137.461 129.295 134.839 123.089 131.078 117.626C129.409 115.201 127.525 112.961 125.437 110.882C123.336 108.79 121.02 106.708 118.542 105.074ZM90.2024 196.295L90.4862 198.339C90.6281 199.361 90.7686 200.383 90.9019 201.406C91.8078 201.282 92.7346 201.231 93.6076 201.154C95.1358 201.019 96.6745 200.954 98.2072 200.891C101.377 200.761 104.562 200.535 107.735 200.551C107.767 200.551 107.798 200.553 107.829 200.555L107.986 196.524L105.757 196.52C103.868 196.517 101.98 196.501 100.091 196.485C98.3905 196.47 96.6889 196.468 94.9882 196.433L94.2595 196.416C92.9697 196.381 91.5456 196.452 90.2024 196.295ZM108.173 190.443C108.082 190.454 107.99 190.463 107.891 190.467C107.45 190.485 107.005 190.472 106.563 190.476C105.622 190.484 104.682 190.491 103.741 190.49C101.859 190.49 99.9775 190.502 98.0962 190.524C96.1594 190.547 94.224 190.581 92.2871 190.585C91.3486 190.586 90.4131 190.562 89.475 190.535C89.6267 191.863 89.7853 193.189 89.9604 194.511C91.4173 194.316 92.9842 194.414 94.4079 194.401L94.5928 194.398C96.5361 194.365 98.4811 194.39 100.425 194.392C102.424 194.394 104.424 194.401 106.424 194.417L108.066 194.431L108.07 194.348C108.118 193.048 108.149 191.746 108.173 190.443ZM88.7523 184.094C88.9344 185.661 89.1054 187.23 89.2797 188.799C89.3955 188.781 89.5128 188.765 89.6323 188.753C90.5721 188.655 91.5099 188.571 92.453 188.513C94.3331 188.397 96.2131 188.336 98.0962 188.286C100.033 188.234 101.969 188.194 103.907 188.167C104.848 188.154 105.788 188.155 106.729 188.162C107.171 188.165 107.617 188.151 108.057 188.18C108.11 188.184 108.16 188.189 108.21 188.195L108.243 185.84C108.249 185.448 108.255 185.055 108.261 184.663C106.806 184.752 105.328 184.718 103.874 184.718L103.539 184.719C101.713 184.728 99.8859 184.703 98.06 184.665C96.1762 184.626 94.2962 184.564 92.4158 184.444C91.6539 184.396 90.8976 184.331 90.1399 184.248L89.7609 184.205C89.4312 184.166 89.0917 184.135 88.7523 184.094ZM108.411 177.448C104.908 177.725 101.424 177.841 97.9112 177.875L97.3842 177.88C94.2803 177.903 91.1509 178.031 88.0397 177.949C88.2257 179.554 88.4112 181.16 88.5982 182.765C89.0437 182.744 89.4914 182.744 89.9269 182.728C90.8127 182.696 91.6955 182.688 92.5819 182.686C94.4078 182.682 96.2338 182.698 98.06 182.694C99.9419 182.69 101.824 182.659 103.705 182.623C105.231 182.595 106.772 182.481 108.302 182.485L108.411 177.448ZM108.559 170.6C108.153 170.734 107.674 170.742 107.149 170.766L105.793 170.834C105.164 170.864 104.535 170.893 103.907 170.916C101.811 170.992 99.7151 171.064 97.6191 171.13C95.4713 171.198 93.3131 171.237 91.165 171.17C90.1127 171.137 89.0693 171.082 88.0202 170.995C87.7608 170.973 87.4965 170.959 87.2316 170.94C87.4757 173.067 87.7209 175.194 87.9669 177.321C91.0632 176.942 94.1834 176.707 97.2759 176.316L100.072 175.96C102.867 175.605 105.66 175.257 108.465 174.963L108.559 170.6ZM108.709 163.675C108.113 163.821 107.434 163.814 106.862 163.85L106.756 163.857C105.673 163.939 104.586 163.98 103.5 164.007C101.371 164.059 99.2406 164.085 97.111 164.098L95.8303 164.106C94.1232 164.116 92.417 164.12 90.7093 164.08C89.6139 164.055 88.521 164.002 87.4264 163.947C87.0986 163.931 86.7634 163.92 86.4271 163.903C86.6559 165.917 86.887 167.93 87.1176 169.944C87.4772 169.887 87.8385 169.843 88.1829 169.785C89.0651 169.637 89.9456 169.519 90.8341 169.413C92.7585 169.183 94.6929 169.018 96.6263 168.879C98.6112 168.735 100.598 168.614 102.583 168.476L103.989 168.377C104.458 168.345 104.926 168.313 105.395 168.285C106.196 168.236 107.127 168.291 107.921 168.118C108.136 168.028 108.375 168.008 108.614 168.059L108.709 163.675ZM108.889 155.57C108.683 155.83 108.375 155.967 108.008 156.014C106.096 156.261 104.136 156.3 102.208 156.417L101.868 156.438C99.8777 156.569 97.8862 156.671 95.8942 156.776C93.848 156.885 91.8021 156.973 89.7542 157.044C88.8848 157.074 88.0111 157.077 87.1403 157.066L86.7674 157.061C86.4098 157.055 86.0353 157.056 85.66 157.043C85.8677 158.926 86.0774 160.809 86.2901 162.692C86.6728 162.65 87.0553 162.619 87.4264 162.579C88.5203 162.464 89.6129 162.351 90.7093 162.265C92.7867 162.102 94.8657 162.004 96.947 161.901C99.0765 161.796 101.207 161.726 103.337 161.627C104.369 161.579 105.402 161.52 106.431 161.425C107.153 161.359 108.01 161.114 108.763 161.204C108.804 159.326 108.847 157.448 108.889 155.57ZM109.057 148.309C109.024 148.359 108.986 148.408 108.94 148.453C108.098 149.281 107.061 149.217 105.946 149.304L105.877 149.309C104.784 149.401 103.691 149.488 102.597 149.566C100.409 149.723 98.2177 149.833 96.0273 149.931C93.7855 150.032 91.5294 150.101 89.2855 150.055C87.8486 150.026 86.3436 150.031 84.8779 149.891C85.103 151.965 85.3294 154.039 85.5575 156.112C85.9696 156.035 86.3844 155.976 86.7772 155.914C87.7673 155.759 88.7585 155.603 89.7542 155.489C91.7442 155.261 93.7346 155.048 95.7283 154.855C97.4334 154.691 99.1378 154.524 100.844 154.373L101.868 154.285C103.904 154.115 105.966 153.834 108.008 153.792C108.345 153.785 108.725 153.968 108.918 154.255C108.963 152.273 109.01 150.291 109.057 148.309ZM109.198 142.431C108.678 142.494 108.118 142.458 107.638 142.474C106.425 142.513 105.212 142.55 103.999 142.585L96.7196 142.799C94.2412 142.872 91.7542 142.926 89.2748 142.892C88.1841 142.876 87.0887 142.874 85.9984 142.815L85.6352 142.794C85.1865 142.764 84.6359 142.76 84.0982 142.705L84.733 148.558C86.1916 148.349 87.6948 148.27 89.1409 148.147L89.4499 148.12C91.5829 147.927 93.726 147.799 95.8628 147.655C98.0548 147.507 100.244 147.328 102.432 147.144C103.527 147.053 104.62 146.961 105.714 146.861L105.849 146.848C106.881 146.741 107.852 146.512 108.767 147.118C108.901 147.207 109.006 147.325 109.077 147.458C109.117 145.782 109.156 144.106 109.198 142.431ZM109.368 135.6C104.935 135.778 100.501 135.913 96.0642 135.972C93.5669 136.005 91.0729 135.982 88.576 135.93C87.4933 135.907 86.4016 135.856 85.3197 135.773L84.9145 135.741C84.4001 135.697 83.8597 135.666 83.3216 135.615C83.5441 137.627 83.7646 139.64 83.9835 141.653C84.5128 141.555 85.066 141.51 85.5298 141.451L85.6352 141.437C86.7878 141.279 87.9512 141.187 89.1094 141.085C91.3646 140.888 93.6311 140.76 95.8924 140.652C98.208 140.541 100.525 140.447 102.841 140.345L105.157 140.241C105.543 140.224 105.929 140.208 106.315 140.191C106.866 140.168 107.418 140.146 107.969 140.123C108.241 140.112 108.524 140.075 108.797 140.089L108.874 140.079C108.91 140.074 108.941 140.071 108.97 140.068C109.044 140.012 109.124 139.965 109.209 139.93L109.26 139.91L109.368 135.6ZM82.5947 129.127C82.8006 130.938 83.0041 132.751 83.205 134.563C83.8373 134.491 84.4772 134.451 85.0809 134.397C86.2983 134.289 87.5214 134.193 88.7424 134.138L91.1828 134.025C92.8096 133.95 94.4362 133.877 96.0642 133.818C100.52 133.656 104.975 133.471 109.428 133.245C109.459 132.016 109.491 130.786 109.524 129.557C109.311 129.785 109.002 129.935 108.596 129.934C103.922 129.922 99.2432 129.949 94.5691 129.872C92.2294 129.834 89.8924 129.777 87.5555 129.658C86.4119 129.599 85.2621 129.48 84.1273 129.324C83.6433 129.257 83.1138 129.21 82.5947 129.127ZM81.8466 122.671C82.0663 124.527 82.2819 126.383 82.494 128.24C83.0745 128.137 83.6742 128.082 84.2158 128.009C85.3796 127.851 86.5505 127.726 87.7226 127.66C90.0032 127.531 92.2852 127.467 94.5691 127.419C99.2429 127.32 103.921 127.32 108.596 127.284C109.035 127.28 109.361 127.453 109.575 127.711C109.608 126.552 109.642 125.394 109.677 124.234C109.226 124.187 108.778 124.12 108.364 124.091C107.091 124.003 105.817 123.922 104.543 123.849C101.884 123.697 99.2223 123.568 96.5615 123.452C93.9 123.337 91.2376 123.224 88.5753 123.126L87.4109 123.084C85.5595 123.015 83.6766 122.929 81.8466 122.671ZM81.0094 115.682C81.2381 117.562 81.4634 119.442 81.6882 121.322L81.7565 121.904C83.9832 121.473 86.3299 121.346 88.5753 121.251C91.2382 121.139 93.8963 121.081 96.5615 121.089C99.224 121.097 101.883 121.159 104.543 121.269C105.872 121.324 107.201 121.387 108.53 121.459C108.895 121.478 109.323 121.468 109.764 121.474C109.774 121.179 109.782 120.883 109.792 120.588C109.833 119.391 109.872 118.195 109.914 116.998C109.015 117.458 107.847 117.643 106.944 117.839L106.841 117.861C105.349 118.195 103.827 118.411 102.305 118.543C99.3161 118.802 96.2961 118.705 93.3101 118.454L92.787 118.409C90.1649 118.183 87.4465 117.896 84.9045 117.25C83.6936 116.943 82.4418 116.512 81.3568 115.888C81.244 115.823 81.1275 115.755 81.0094 115.682ZM106.257 93.3467C106.283 93.2451 106.436 93.222 106.486 93.317C106.839 93.9846 106.971 94.7861 107.216 95.5015C107.48 96.2707 107.726 97.0455 108.017 97.8053C108.625 99.3929 109.342 100.918 110.198 102.389C111.045 103.845 108.673 104.885 108.05 103.29C107.406 101.645 106.877 99.9443 106.557 98.2059C106.401 97.3577 106.262 96.4979 106.217 95.6361C106.178 94.8959 106.073 94.0688 106.257 93.3467Z" fill="black"/>
<path fill-rule="evenodd" clip-rule="evenodd" d="M123.568 61.0478C123.502 57.3215 123.428 53.5206 122.872 49.8305C122.328 46.2229 120.831 42.962 118.259 40.3423C112.796 34.7777 104.876 33.4185 97.5051 32.1729L84.902 30.0433C81.0571 29.3937 76.9551 28.3554 73.0704 29.2766C71.1562 29.7306 69.5306 30.7852 68.0448 32.0329C66.6127 33.2355 65.073 34.527 64.1026 36.145C63.1305 37.7653 62.7962 39.6594 62.4802 41.492C62.1237 43.5581 61.8468 45.6404 61.6501 47.7276C61.2559 51.9094 61.2021 56.1227 61.488 60.3131C61.6266 62.3456 61.847 64.3723 62.1284 66.39C62.2679 67.3906 62.4257 68.3886 62.6038 69.3832C62.6563 69.6764 62.6962 70.0011 62.75 70.3291C62.3525 71.4546 62.1266 72.6201 62.1448 73.7807C62.1984 77.1993 65.0972 79.3516 68.0196 80.5072C69.714 81.1772 71.4855 81.6325 73.1504 82.381C74.9019 83.1683 76.094 84.4446 77.2915 85.9006C79.5754 88.6775 82.1526 91.1733 85.0956 93.2555C91.335 97.6704 99.2378 99.7584 106.808 98.1735C108.625 97.7933 110.457 97.2028 112.09 96.313C113.814 95.3737 115.11 94.0125 116.199 92.4032C118.22 89.4155 119.669 86.0513 120.766 82.6279C121.884 79.1357 122.678 75.6372 123.111 71.9959C123.543 68.3663 123.634 64.6998 123.568 61.0478Z" fill="white"/>
<path fill-rule="evenodd" clip-rule="evenodd" d="M83.3516 17.0627C88.567 16.3486 95.7654 18.6695 98.3628 23.3494C110.763 20.4394 126.403 20.3441 136.624 30.0313C147.288 41.5224 133.893 56.6735 125.011 60.0895C125.657 63.2178 124.649 83.2594 117.514 92.199C111.852 99.7735 98.6662 103.269 92.5647 94.2221L92.5171 94.1474C91.8634 93.1026 92.4264 93.1361 93.0974 93.9133C99.0721 99.1434 107.196 99.2327 113.456 93.7132C125.188 83.6247 123.978 58.8882 118.396 44.5777C102.499 42.8398 85.4782 47.6359 74.4984 59.5474L75.2409 63.9967C75.3674 64.7547 75.5111 65.512 75.6207 66.2727C75.6909 66.7601 75.6987 67.2448 75.3595 67.6393C74.2394 68.9418 72.3516 66.9846 70.7983 66.2062C70.3398 66.1419 69.8804 66.1172 69.4299 66.1488C61.9672 67.1056 63.4376 81.5156 71.6395 78.9898C72.3287 78.5624 72.9207 78.6928 73.1881 79.313C75.1431 81.0955 76.4322 84.2746 79.6802 87.3366C80.8262 88.4851 81.8692 89.4461 83.1582 90.3675C83.9154 91.1296 86.2001 91.9068 85.4758 93.211C84.1062 96.1789 76.0298 86.8563 74.6018 84.2782C70.1279 86.0368 65.1698 85.4394 60.5335 85.0096C36.074 83.7438 39.3393 58.0791 59.3881 41.8757C63.162 39.1101 67.3258 36.854 71.6541 35.1179C72.245 34.8809 71.9868 33.9151 71.3875 34.1555C68.5237 35.3044 65.7318 36.6719 63.0705 38.2546L63.0664 37.3084C63.0625 35.7146 63.0877 34.0554 63.3657 32.5992C63.5048 31.5902 63.7386 30.5125 64.0985 29.7017C64.5435 27.2161 71.5144 18.6842 83.3516 17.0627ZM69.1035 69.4571C69.4811 69.0999 70.1861 69.5257 70.5224 69.5151C71.3821 69.6322 72.1989 69.9937 72.836 70.4398C73.2566 70.6743 73.5513 70.8946 73.7977 71.0972L73.8043 71.0953C73.8025 71.0953 73.8002 71.0972 73.7982 71.0977L73.8213 71.1133C74.18 71.3669 75.4929 72.7957 74.6634 72.4114C74.6016 72.3314 74.5383 72.2546 74.4744 72.1792C74.4676 72.1895 74.4581 72.1997 74.4467 72.2095L74.4933 72.2783C75.1983 73.334 73.9811 72.2218 73.7938 71.9264C73.785 71.9335 73.7749 71.9384 73.7651 71.9435L74.009 72.239C74.043 72.2809 74.0699 72.3144 74.0921 72.3427L74.1435 72.3921C74.9587 73.1897 74.9841 73.9075 74.0371 72.7283C74.0744 72.7839 74.1043 72.8427 74.1085 72.895L74.1646 72.9662C74.9082 73.92 74.3034 73.5812 73.9339 73.1739L73.903 73.1388L73.9093 73.1484C74.253 73.6755 73.571 73.3056 73.4505 73.0237L73.4454 73.0109C73.3141 72.9043 73.2333 72.7846 73.2055 72.7543L73.2004 72.7493C72.5611 72.0972 71.6343 71.5455 70.8471 71.2948C70.7329 71.2732 70.6174 71.2559 70.5008 71.2435C70.0274 71.1384 69.5488 71.0664 69.0652 71.0275C69.006 71.0205 68.946 70.9772 68.9013 70.9213C68.17 70.8968 68.3957 70.5984 68.6991 70.543L68.7044 70.5421L68.6442 70.5371C68.1749 70.4915 67.8544 70.3239 68.3289 70.221L68.3891 70.2091C68.3817 70.1976 68.3752 70.1861 68.3689 70.1746C67.9625 70.1302 68.2277 69.737 68.4532 69.8321C68.3583 69.5233 68.7921 69.6775 68.8463 69.6315C68.8876 69.586 68.9389 69.5457 68.9684 69.5435C69.0991 69.4517 69.0358 69.46 69.1035 69.4571ZM71.5901 64.4559L71.4948 64.5113C71.4178 64.5561 71.3386 64.5858 71.259 64.6033C71.3713 64.6509 71.4823 64.7023 71.5921 64.7572C71.5903 64.6901 71.589 64.6231 71.589 64.5562L71.5901 64.4559Z" fill="black"/>
<path fill-rule="evenodd" clip-rule="evenodd" d="M108.772 84.8291C107.541 85.184 106.22 85.2158 104.965 84.8492C103.827 84.5167 102.658 83.7851 101.821 82.8169C101.077 81.9569 100.595 80.9117 100.614 79.796C100.616 79.6686 100.662 79.5622 100.732 79.4797C100.808 79.3908 100.914 79.3298 101.027 79.3033C101.144 79.276 101.267 79.2857 101.372 79.3332C101.467 79.3762 101.549 79.4491 101.599 79.5558C101.728 79.7242 101.856 79.89 101.985 80.0512C103.02 81.3235 104.023 82.2742 105.579 82.6152C106.423 82.8003 107.267 82.7182 108.041 82.4359C108.869 82.1336 109.618 81.6022 110.205 80.9222C110.47 80.6149 110.783 80.4894 111.089 80.4873C111.436 80.4849 111.779 80.6454 112.037 80.9019C112.291 81.154 112.461 81.4966 112.477 81.8549C112.49 82.1694 112.387 82.498 112.113 82.7911C111.21 83.7566 110.039 84.4639 108.772 84.8291ZM108.734 68.8951C109.996 69.6586 111.919 71.4389 110.561 73.3318C108.964 75.0008 106.663 73.0872 105.529 72.2217C104.478 71.551 103.297 73.276 104.272 74.0592C112.464 80.0966 115.789 69.0947 109.373 67.9974C108.666 67.8765 108.404 68.6589 108.734 68.8951ZM96.93 65.5355C96.5244 65.2773 96.0473 65.1887 95.5186 65.4281C95.1054 65.6152 94.3807 66.2387 93.8763 67.0584C93.5313 67.6192 93.2866 68.277 93.3375 68.9622C93.3494 69.1214 93.2903 69.2387 93.1971 69.3255C93.1235 69.394 93.0172 69.4444 92.8924 69.4601C92.7864 69.4735 92.6677 69.4614 92.5713 69.4314C92.3877 69.3744 92.2906 69.2559 92.254 69.1592C91.9009 68.2257 92.053 67.1839 92.4488 66.2441C92.9829 64.9757 93.9529 63.9133 94.5884 63.5707C95.6759 62.9844 96.9588 62.9574 98.0478 63.5547C98.9748 64.0632 99.5545 64.884 100.131 65.7207C100.254 65.8985 100.375 66.0751 100.501 66.2485C100.753 66.5961 100.778 66.9408 100.68 67.2364C100.572 67.5639 100.297 67.8402 99.952 67.9848C99.6335 68.1185 99.2638 68.1373 98.9367 68C98.6603 67.8839 98.4067 67.6578 98.2462 67.274C97.9759 66.6277 97.5256 65.9147 96.93 65.5355ZM117.529 66.9734C117.251 67.1174 117.033 67.1609 116.725 67.069C116.555 67.018 116.387 66.9204 116.255 66.7892C116.124 66.6591 116.03 66.4973 115.993 66.3179C115.903 65.8751 115.66 65.4605 115.313 65.1903C115.016 64.9593 114.642 64.8369 114.227 64.9059C113.779 64.9804 113.352 65.2663 113.058 65.6035C112.96 65.7163 112.883 65.8444 112.806 65.9716C112.661 66.2096 112.52 66.4308 112.32 66.6056C112.245 66.6721 112.131 66.7182 112.02 66.7182C111.975 66.7182 111.93 66.7109 111.886 66.6974C111.44 66.252 111.355 65.9141 111.369 65.579C111.384 65.2275 111.523 64.8717 111.748 64.5397C112.276 63.7609 113.278 63.1223 113.954 62.9777C114.88 62.7797 115.799 63.0174 116.536 63.5321C117.295 64.0618 117.857 64.8841 118.032 65.8108C118.074 66.034 118.056 66.2749 117.971 66.4838C117.888 66.6879 117.742 66.8627 117.529 66.9734ZM98.9719 57.2322C98.4163 57.7711 97.7587 57.8545 97.0934 57.9288C96.7237 57.9704 96.4286 58.004 96.1383 58.0692C95.3401 58.2485 94.5511 58.5186 93.8313 58.9076C93.0789 59.3143 92.2589 59.8047 91.669 60.433C91.5288 60.5825 91.3965 60.7394 91.2641 60.8966C91.1434 61.04 91.0271 61.178 90.9045 61.3111C90.7637 61.464 90.63 61.6242 90.497 61.784C90.4148 61.9188 90.3986 61.952 90.382 61.9865C90.3571 62.0383 90.3281 62.0964 90.295 62.1587C90.2497 62.244 90.1966 62.3373 90.1409 62.422C90.0484 62.5767 89.9988 62.6193 89.9559 62.6384C89.8847 62.6699 89.8171 62.6855 89.7516 62.6771C89.6902 62.6692 89.6324 62.6398 89.5752 62.5917C89.29 62.3518 89.2058 61.9581 89.2145 61.5402C89.2275 60.906 89.4625 60.2038 89.6792 59.7721C90.1829 58.7691 90.8815 57.7265 91.7215 56.9779C92.68 56.1234 93.7287 55.4765 94.9332 55.0308C95.6817 54.7537 96.5484 54.4993 97.3639 54.5314C97.9509 54.5546 98.5112 54.7282 98.974 55.162C99.2582 55.4282 99.3946 55.807 99.3946 56.1854C99.3946 56.5714 99.2529 56.9597 98.9719 57.2322ZM118.659 62.1667C118.623 62.2243 118.574 62.264 118.52 62.2879C118.463 62.3129 118.399 62.3201 118.338 62.3099C118.277 62.2997 118.219 62.2722 118.174 62.2303C118.13 62.19 118.096 62.1367 118.081 62.0714C117.712 60.4586 116.996 59.2587 115.467 58.4849C114.715 58.1043 113.85 57.8624 113.032 57.6696C112.794 57.6135 112.542 57.5772 112.289 57.5404C111.496 57.4251 110.697 57.2931 110.179 56.6547C109.868 56.2702 109.737 55.7784 109.811 55.3286C109.88 54.9052 110.129 54.5169 110.581 54.2842C111.706 53.7052 113.104 54.2733 114.24 54.7573C114.324 54.7932 114.407 54.8285 114.488 54.8625C115.599 55.3293 116.613 55.9455 117.445 56.8267C118.106 57.5258 118.719 58.5594 118.965 59.6225C119.171 60.5071 119.122 61.4101 118.659 62.1667Z" fill="black"/>
<path fill-rule="evenodd" clip-rule="evenodd" d="M108.919 75.3756C107.061 74.5424 103.723 75.2695 102.512 75.5586C99.6954 76.2309 96.8619 77.6839 95.9863 79.9603C94.9995 82.5257 96.9683 83.3333 97.2579 83.2014C99.2077 83.3381 101.53 82.118 103.573 81.8032C105.232 81.5453 106.981 81.3203 108.535 80.443C109.67 81.0643 112.233 81.4001 114.301 81.9434C116.063 82.4058 116.826 83.4087 118.459 83.1954C120.416 82.9399 119.615 78.8425 117.434 77.1825C115.046 75.3659 111.009 74.6292 108.919 75.3756ZM112.599 92.8955C110.973 93.29 110.864 89.7428 110.681 88.4896C110.539 87.5105 109.737 84.9856 107.702 85.0946C105.667 85.2035 104.902 87.3189 105.006 88.6346C105.073 89.4878 105.862 93.8097 103.341 94.3564C101.734 94.3508 99.8743 94.2428 98.1842 93.9326C96.1949 93.4841 93.6083 91.914 92.925 95.0061C92.6791 96.119 101.442 99.4253 105.33 99.7244C109.274 100.52 113.887 99.2967 116.695 96.2938C117.334 95.6107 119.133 92.7751 119.261 92.0804C119.53 90.6207 118.907 89.6814 117.092 90.1959C115.811 90.8772 113.644 92.6417 112.599 92.8955Z" fill="black"/>
<path fill-rule="evenodd" clip-rule="evenodd" d="M120.461 71.7272C117.953 72.9295 114.454 71.1561 112.768 69.2986C112.154 68.6223 111.68 66.6872 111.916 65.46C112.556 62.1363 114.959 60.1416 117.496 59.4604C121.012 58.5159 124.551 60.9086 124.139 63.732C123.748 66.4079 123.155 70.2895 120.461 71.7272ZM103.391 65.3427C103.19 68.9648 100.267 72.135 96.7748 73.0744C91.1477 74.6373 88.3667 70.6999 87.107 66.458C86.9819 66.0365 86.6876 64.75 87.4772 63.6465C90.5825 59.3059 98.1379 60.0457 101.912 61.2374C103.016 62.2888 103.468 63.8064 103.391 65.3427ZM123.186 59.0954C123.184 59.0976 123.182 59.0994 123.18 59.1016C123.167 59.0938 123.155 59.0858 123.141 59.0781C123.156 59.0841 123.171 59.0893 123.186 59.0954ZM127.894 59.5141C127.567 55.8264 115.942 57.2384 114.583 57.5407C110.874 58.6265 107.671 61.5807 103.524 60.2821C99.2268 55.5143 84.7572 56.8816 81.7238 59.3104C81.1497 59.0861 80.4515 59.2064 79.7117 59.418C75.9127 59.2814 58.5697 60.585 62.117 65.4114C62.6555 65.7832 63.1934 65.4049 63.2082 64.6391C81.7008 57.9943 79.9082 64.2182 82.1013 63.4913C82.4362 63.5873 82.7856 63.648 83.0913 63.7119C84.7887 64.2555 85.3651 64.0875 85.5887 65.9843C87.1249 80.6307 106.719 75.5756 105.112 63.5619C106.703 63.4747 108.095 62.7899 109.778 63.4586C110.946 74.7759 120.095 75.2326 122.848 71.3095C124.925 68.5865 124.101 64.4772 126.955 62.3351C128.082 63.2736 128.155 60.1061 127.894 59.5141Z" fill="black"/>
</svg>
