<svg width="36" height="37" viewBox="0 0 36 37" fill="none" xmlns="http://www.w3.org/2000/svg">
<rect y="0.5" width="36" height="36" rx="18" fill="#0172CB"/>
<path d="M13 21.5C12.606 21.5 12.2159 21.4224 11.8519 21.2716C11.488 21.1209 11.1573 20.8999 10.8787 20.6213C10.6001 20.3427 10.3791 20.012 10.2284 19.6481C10.0776 19.2841 10 18.894 10 18.5C10 18.106 10.0776 17.7159 10.2284 17.3519C10.3791 16.988 10.6001 16.6573 10.8787 16.3787C11.1573 16.1001 11.488 15.8791 11.8519 15.7284C12.2159 15.5776 12.606 15.5 13 15.5C13.394 15.5 13.7841 15.5776 14.1481 15.7284C14.512 15.8791 14.8427 16.1001 15.1213 16.3787C15.3999 16.6573 15.6209 16.988 15.7716 17.3519C15.9224 17.7159 16 18.106 16 18.5C16 18.894 15.9224 19.2841 15.7716 19.6481C15.6209 20.012 15.3999 20.3427 15.1213 20.6213C14.8427 20.8999 14.512 21.1209 14.1481 21.2716C13.7841 21.4224 13.394 21.5 13 21.5ZM13 21.5H23M23 21.5C22.2044 21.5 21.4413 21.1839 20.8787 20.6213C20.3161 20.0587 20 19.2956 20 18.5C20 17.7044 20.3161 16.9413 20.8787 16.3787C21.4413 15.8161 22.2044 15.5 23 15.5C23.7956 15.5 24.5587 15.8161 25.1213 16.3787C25.6839 16.9413 26 17.7044 26 18.5C26 19.2956 25.6839 20.0587 25.1213 20.6213C24.5587 21.1839 23.7956 21.5 23 21.5Z" stroke="white" stroke-width="2" stroke-linecap="round" stroke-linejoin="round"/>
</svg>
