<svg width="150" height="149" viewBox="0 0 150 149" fill="none" xmlns="http://www.w3.org/2000/svg">
<g filter="url(#filter0_d_567_20117)">
<path d="M74.5577 115.101C103.584 115.101 127.115 91.7975 127.115 63.0507C127.115 34.3039 103.584 11 74.5577 11C45.5309 11 22 34.3039 22 63.0507C22 91.7975 45.5309 115.101 74.5577 115.101Z" fill="#E9EDF8"/>
</g>
<path d="M74.5575 107.328C99.1976 107.328 119.172 87.5043 119.172 63.0508C119.172 38.5974 99.1976 18.774 74.5575 18.774C49.9174 18.774 29.9426 38.5974 29.9426 63.0508C29.9426 87.5043 49.9174 107.328 74.5575 107.328Z" fill="white"/>
<path opacity="0.3" d="M119.341 62.8819C119.341 63.7268 119.341 64.4028 119.172 65.2478C117.989 41.9264 98.5549 23.3369 74.7265 23.3369C50.8981 23.3369 31.4636 41.9264 30.1116 65.2478C30.1116 64.4028 29.9426 63.7268 29.9426 62.8819C29.9426 38.5465 50.0531 18.774 74.5575 18.774C99.3998 18.774 119.341 38.5465 119.341 62.8819Z" fill="#D2DFF8"/>
<path d="M73.5439 60.8539L70.1639 64.2338L49.2085 43.6163C48.1945 42.6023 48.1945 41.0814 49.2085 40.2364C50.2225 39.2224 51.7434 39.2224 52.5884 40.2364L73.5439 60.8539Z" fill="#AAB2C5"/>
<path d="M78.7825 64.4027L75.4026 61.0228L90.9502 45.6442C91.9642 44.6302 93.4851 44.6302 94.3301 45.6442C95.3441 46.6582 95.3441 48.1791 94.3301 49.0241L78.7825 64.4027Z" fill="#AAB2C5"/>
<path d="M72.5298 62.3748C73.8818 61.0228 75.7407 61.0228 76.9237 62.3748C78.2757 63.7267 78.2757 65.5857 76.9237 66.5996C75.5717 67.6136 73.7128 67.9516 72.5298 66.5996C71.3468 65.4167 71.3468 63.5577 72.5298 62.3748Z" fill="#AAB2C5"/>
<path d="M85.7115 98.3706C85.3735 98.3706 85.0355 98.2016 85.0355 97.8637L74.0508 64.7405C73.8818 64.4025 74.2198 63.8955 74.5578 63.7265C74.8958 63.5575 75.4028 63.8955 75.5718 64.2335L86.5565 97.3567C86.7255 97.6947 86.3875 98.2016 86.0495 98.3706C85.8805 98.3706 85.8805 98.3706 85.7115 98.3706Z" fill="#AAB2C5"/>
<path d="M71.0088 60.8539C73.2057 58.8259 76.5857 58.8259 78.6136 60.8539C80.8105 62.8818 80.8105 66.2617 78.6136 68.4587C76.4167 70.6556 73.0367 70.4866 71.0088 68.4587C68.9808 66.4307 68.8119 62.8818 71.0088 60.8539Z" fill="white"/>
<path fill-rule="evenodd" clip-rule="evenodd" d="M76.5347 63.0176L76.4923 62.9752C75.6805 62.1634 74.1397 62.0465 73.0436 63.0583C72.2452 63.7953 72.1612 65.3684 73.1301 66.3374C74.0485 67.2557 75.528 67.3017 76.4923 66.3374C77.5668 65.2629 77.4397 63.853 76.5788 63.0583L76.5347 63.0176ZM78.6136 60.8539C76.5857 58.8259 73.2057 58.8259 71.0088 60.8539C68.8119 62.8818 68.9808 66.4307 71.0088 68.4587C73.0367 70.4866 76.4167 70.6556 78.6136 68.4587C80.8105 66.2617 80.8105 62.8818 78.6136 60.8539Z" fill="#AAB2C5"/>
<path d="M76.2477 22.8296H73.5438C73.0368 22.8296 72.5298 23.3366 72.5298 23.8436V31.7864C72.5298 32.2933 73.0368 32.8003 73.5438 32.8003H76.2477C76.7547 32.8003 77.2617 32.2933 77.2617 31.7864V23.6746C77.0927 23.1676 76.7547 22.8296 76.2477 22.8296Z" fill="#CBD4E2"/>
<path d="M76.2477 92.9629H73.5438C73.0368 92.9629 72.5298 93.4699 72.5298 93.9769V101.92C72.5298 102.427 73.0368 102.934 73.5438 102.934H76.2477C76.7547 102.934 77.2617 102.427 77.2617 101.92V93.9769C77.0927 93.4699 76.7547 92.9629 76.2477 92.9629Z" fill="#CBD4E2"/>
<path d="M43.2934 60.3467H35.3506C34.8437 60.3467 34.3367 60.8537 34.3367 61.3607V64.0646C34.3367 64.5716 34.8437 65.0786 35.3506 65.0786H43.2934C43.8004 65.0786 44.3074 64.5716 44.3074 64.0646V61.3607C44.3074 60.8537 43.8004 60.3467 43.2934 60.3467Z" fill="#CBD4E2"/>
<path d="M114.272 60.5156H106.329C105.822 60.5156 105.315 61.0226 105.315 61.5296V64.2335C105.315 64.7405 105.822 65.2475 106.329 65.2475H114.272C114.779 65.2475 115.286 64.7405 115.286 64.2335V61.5296C115.117 61.0226 114.779 60.5156 114.272 60.5156Z" fill="#CBD4E2"/>
<defs>
<filter id="filter0_d_567_20117" x="0" y="0" width="149.115" height="148.101" filterUnits="userSpaceOnUse" color-interpolation-filters="sRGB">
<feFlood flood-opacity="0" result="BackgroundImageFix"/>
<feColorMatrix in="SourceAlpha" type="matrix" values="0 0 0 0 0 0 0 0 0 0 0 0 0 0 0 0 0 0 127 0" result="hardAlpha"/>
<feOffset dy="11"/>
<feGaussianBlur stdDeviation="11"/>
<feColorMatrix type="matrix" values="0 0 0 0 0.397708 0 0 0 0 0.47749 0 0 0 0 0.575 0 0 0 0.27 0"/>
<feBlend mode="normal" in2="BackgroundImageFix" result="effect1_dropShadow_567_20117"/>
<feBlend mode="normal" in="SourceGraphic" in2="effect1_dropShadow_567_20117" result="shape"/>
</filter>
</defs>
</svg>
