<svg width="17" height="17" viewBox="0 0 17 17" fill="none" xmlns="http://www.w3.org/2000/svg">
<path d="M11.2305 6.31904C11.2341 5.35653 11.2592 5.19395 11.254 3.95066C11.2487 2.70738 11.4387 2.53395 11.332 1.65544C11.29 1.30693 11.0229 1.02707 10.6785 0.962813C10.6634 0.959016 10.6484 0.955218 10.6329 0.953566C10.326 0.894236 10.0111 1.02009 9.8284 1.27298C9.29016 2.01128 9.35283 2.25999 8.7686 3.33369C8.18437 4.40738 8.11628 4.57737 7.65933 5.42754C7.39983 5.91214 6.89174 6.21516 6.34206 6.21316C5.34951 6.21105 5.19928 6.1822 3.94206 6.18852C2.68485 6.19484 2.53069 6.02801 1.63712 6.1491C1.31062 6.1944 1.04211 6.43472 0.961276 6.75445C0.960733 6.75659 0.960191 6.75874 0.959648 6.76088C0.879352 7.07847 1.00246 7.41323 1.26605 7.60772C1.99629 8.14165 2.2428 8.09668 3.31003 8.67928C4.44372 9.29696 4.55091 9.36059 5.4852 9.87305C5.94242 10.1233 6.22457 10.6056 6.21834 11.1269C6.20668 12.0759 6.1488 12.2416 6.15355 13.4779C6.1583 14.7143 6.00161 14.8915 6.12696 15.7953C6.17227 16.1127 6.40025 16.3758 6.70976 16.4609C6.72907 16.4658 6.74624 16.4701 6.7634 16.4745C7.09168 16.5666 7.44469 16.4435 7.64084 16.1644C8.15114 15.4373 8.07297 15.1595 8.64965 14.0976C9.26355 12.9698 9.35883 12.8729 9.86695 11.9558C10.1151 11.5071 10.5871 11.2292 11.1003 11.2311C12.0633 11.2326 12.2233 11.2502 13.4687 11.2455C14.7141 11.2407 14.8869 11.442 15.7745 11.3353C16.1091 11.2944 16.3835 11.0487 16.4617 10.7214C16.4693 10.6914 16.4769 10.6614 16.4845 10.6313C16.561 10.3105 16.4358 9.9752 16.1668 9.78391C15.4344 9.26769 15.155 9.3523 14.0921 8.77078C12.9686 8.15797 12.8701 8.06001 11.9594 7.55351C11.5113 7.30324 11.2507 6.9885 11.2531 6.47316L11.2305 6.31904Z" fill="#FF6737"/>
</svg>
