<svg width="82" height="30" viewBox="0 0 82 30" fill="none" xmlns="http://www.w3.org/2000/svg">
<path d="M74.4963 6.31062C74.1538 5.4111 74.1188 5.25035 73.6671 4.09201C73.2154 2.93367 73.3304 2.70357 72.9152 1.92206C72.7507 1.61193 72.4009 1.44676 72.0563 1.51058C72.041 1.51243 72.0256 1.51429 72.0105 1.51834C71.7027 1.57326 71.4541 1.80387 71.3745 2.1055C71.1376 2.98791 71.2854 3.19748 71.1261 4.4094C70.9667 5.62132 70.9643 5.80442 70.8434 6.76201C70.7753 7.30749 70.4101 7.77286 69.8964 7.96853C68.9694 8.32325 68.8188 8.35031 67.6479 8.808C66.4769 9.2657 66.2731 9.16541 65.4827 9.59953C65.1943 9.75913 65.0301 10.0799 65.0696 10.4073C65.0698 10.4095 65.0701 10.4117 65.0704 10.4139C65.1096 10.7391 65.3448 11.0073 65.6606 11.0941C66.534 11.3299 66.7478 11.1993 67.9531 11.3595C69.2331 11.5285 69.356 11.5494 70.412 11.6919C70.9286 11.7611 71.3652 12.1098 71.5467 12.5984C71.8769 13.4883 71.8825 13.6637 72.3312 14.8158C72.7799 15.9678 72.6974 16.1895 73.1391 16.9879C73.2955 17.2678 73.6028 17.4314 73.9222 17.3996C73.942 17.3972 73.9596 17.3951 73.9771 17.393C74.3166 17.361 74.6018 17.1193 74.6845 16.7883C74.8994 15.9263 74.7267 15.6952 74.8832 14.497C75.0508 13.2239 75.1049 13.0993 75.2495 12.0608C75.3198 11.5529 75.6605 11.124 76.1401 10.9413C77.0393 10.5966 77.1949 10.5556 78.3554 10.1036C79.5159 9.65165 79.7495 9.77733 80.5395 9.35886C80.837 9.20039 81.0048 8.87252 80.9601 8.53903C80.9564 8.50827 80.9527 8.4775 80.949 8.44674C80.9051 8.11985 80.6678 7.85195 80.348 7.7701C79.479 7.55157 79.2487 7.73093 78.0478 7.57023C76.7791 7.4021 76.652 7.34608 75.6201 7.20069C75.112 7.12816 74.7558 6.9281 74.5728 6.4463L74.4963 6.31062Z" fill="#FFB800"/>
<path opacity="0.2" d="M5.22121 27.6903C4.14925 27.9567 3.05793 27.3155 2.7814 26.2462L1.21742 20.1979C0.940887 19.1285 1.58348 18.036 2.65529 17.769C5.91303 16.9573 7.84287 16.5656 9.75093 16.1795C11.9486 15.7382 14.1462 15.2969 18.5105 14.1684C22.8747 13.0399 25.2452 12.5116 27.5039 12.0546C29.6913 11.5736 31.9195 11.1245 36.2532 10.0038C40.5869 8.8832 42.9166 8.32312 45.1548 7.78671C47.3624 7.25818 49.5701 6.72961 53.9648 5.5932C58.3596 4.45678 60.8829 4.016 63.1621 3.63832C65.0416 3.32925 66.8358 3.04224 69.869 2.31123C70.9428 2.05244 72.0343 2.69238 72.3109 3.76178L73.8749 9.81004C74.1514 10.8794 73.5086 11.9728 72.4353 12.234C69.1055 13.0444 67.109 13.3813 65.1782 13.7012C62.9295 14.071 60.8029 14.4092 56.5302 15.5141C52.2575 16.6189 49.8668 17.1948 47.6286 17.7313C45.421 18.2598 43.2133 18.7883 38.8186 19.9247C34.4238 21.0611 32.0838 21.5815 29.8252 22.0386C27.6378 22.5195 25.4096 22.9687 21.0759 24.0893C16.7421 25.2099 14.3003 25.7143 12.0416 26.1714C10.196 26.542 8.3503 26.9126 5.22121 27.6903Z" fill="#B9FDE9"/>
</svg>
