<svg width="48" height="48" viewBox="0 0 48 48" fill="none" xmlns="http://www.w3.org/2000/svg">
<path d="M0 11C0 4.92487 4.92487 0 11 0H37C43.0751 0 48 4.92487 48 11V37C48 43.0751 43.0751 48 37 48H11C4.92487 48 0 43.0751 0 37V11Z" fill="#8779FE"/>
<path d="M22.2501 30.9998C22.018 30.9998 21.7955 31.0919 21.6314 31.256C21.4673 31.4201 21.3751 31.6427 21.3751 31.8748C21.3751 32.1068 21.4673 32.3294 21.6314 32.4935C21.7955 32.6576 22.018 32.7498 22.2501 32.7498H25.7501C25.9822 32.7498 26.2047 32.6576 26.3688 32.4935C26.5329 32.3294 26.6251 32.1068 26.6251 31.8748C26.6251 31.6427 26.5329 31.4201 26.3688 31.256C26.2047 31.0919 25.9822 30.9998 25.7501 30.9998H22.2501Z" fill="white"/>
<path fill-rule="evenodd" clip-rule="evenodd" d="M18.3126 11.7498C17.2683 11.7498 16.2668 12.1646 15.5284 12.903C14.7899 13.6414 14.3751 14.643 14.3751 15.6873V32.3123C14.3751 33.3565 14.7899 34.3581 15.5284 35.0965C16.2668 35.8349 17.2683 36.2498 18.3126 36.2498H29.6876C30.7319 36.2498 31.7334 35.8349 32.4718 35.0965C33.2102 34.3581 33.6251 33.3565 33.6251 32.3123V15.6873C33.6251 14.643 33.2102 13.6414 32.4718 12.903C31.7334 12.1646 30.7319 11.7498 29.6876 11.7498H18.3126ZM17.0001 15.6873C17.0001 14.9628 17.5881 14.3748 18.3126 14.3748H29.6876C30.4121 14.3748 31.0001 14.9628 31.0001 15.6873V32.3123C31.0001 33.0368 30.4121 33.6248 29.6876 33.6248H18.3126C17.9645 33.6248 17.6307 33.4865 17.3845 33.2403C17.1384 32.9942 17.0001 32.6604 17.0001 32.3123V15.6873Z" fill="white"/>
</svg>
