<svg width="20" height="20" viewBox="0 0 20 20" fill="none" xmlns="http://www.w3.org/2000/svg">
<path d="M5.88538 7.493L5.06033 8.67281H6.5H11.1286H11.1291L11.0315 8.81491H9.76351H5.41216H5.02329L4.79921 9.13272L2.38705 12.5538L1.55349 13.736H3H6.02497L4.08349 16.5768L3.28173 17.75H4.7027H10.8041H11.2038L11.4267 17.4182L14.1226 13.4041L14.9072 12.236H13.5H8.86692H8.85992L8.89439 12.1851H10.1419H14.5878H14.9826L15.2061 11.8597L17.6182 8.3474L18.4249 7.17281H17H13.9795L15.8681 4.42479L16.6755 3.25H15.25H9.24324H8.85253L8.62862 3.57019L5.88538 7.493Z" stroke="#4F5E71" stroke-width="1.5"/>
</svg>
