<svg width="48" height="48" viewBox="0 0 48 48" fill="none" xmlns="http://www.w3.org/2000/svg">
<rect width="48" height="48" rx="11" fill="#FBBF24"/>
<path fill-rule="evenodd" clip-rule="evenodd" d="M31.7991 32.2798C32.9296 31.2176 33.8302 29.9347 34.4453 28.5106C35.0603 27.0864 35.3767 25.5513 35.3749 24C35.3749 17.7175 30.2824 12.625 23.9999 12.625C17.7174 12.625 12.6249 17.7175 12.6249 24C12.6231 25.5513 12.9395 27.0864 13.5546 28.5106C14.1696 29.9347 15.0702 31.2176 16.2007 32.2798C18.3088 34.2712 21.1 35.3789 23.9999 35.375C26.8998 35.3789 29.691 34.2712 31.7991 32.2798ZM17.1691 30.7807C17.9882 29.7559 19.0276 28.9289 20.2102 28.3609C21.3927 27.7929 22.688 27.4987 23.9999 27.5C25.3118 27.4987 26.6071 27.7929 27.7897 28.3609C28.9722 28.9289 30.0117 29.7559 30.8307 30.7807C29.9371 31.6833 28.8731 32.3995 27.7006 32.8878C26.528 33.3761 25.2701 33.6266 23.9999 33.625C22.7297 33.6266 21.4719 33.3761 20.2993 32.8878C19.1267 32.3995 18.0627 31.6833 17.1691 30.7807ZM28.3749 20.5C28.3749 21.6603 27.914 22.7731 27.0935 23.5936C26.273 24.4141 25.1602 24.875 23.9999 24.875C22.8396 24.875 21.7268 24.4141 20.9063 23.5936C20.0859 22.7731 19.6249 21.6603 19.6249 20.5C19.6249 19.3397 20.0859 18.2269 20.9063 17.4064C21.7268 16.5859 22.8396 16.125 23.9999 16.125C25.1602 16.125 26.273 16.5859 27.0935 17.4064C27.914 18.2269 28.3749 19.3397 28.3749 20.5Z" fill="white"/>
</svg>
