<svg width="38" height="38" viewBox="0 0 38 38" fill="none" xmlns="http://www.w3.org/2000/svg">
<rect x="1" y="1" width="36" height="36" rx="8" fill="#D4CFFC"/>
<rect x="1" y="1" width="36" height="36" rx="8" stroke="#BCB4FB" stroke-width="1.8"/>
<g clip-path="url(#clip0_1001_335)">
<path d="M11.8706 20.0605C11.3177 20.407 10.8647 20.8918 10.5565 21.4669C10.2483 22.042 10.0955 22.6876 10.1132 23.3398C10.1309 23.9921 10.3184 24.6284 10.6574 25.186C10.9963 25.7436 11.4748 26.2031 12.0457 26.5191C12.6165 26.8351 13.26 26.9967 13.9124 26.9879C14.5648 26.9791 15.2037 26.8002 15.7658 26.4689C16.3279 26.1376 16.7939 25.6654 17.1177 25.0989C17.4414 24.5323 17.6117 23.8912 17.6118 23.2387H23.2368" stroke="#8779FE" stroke-width="1.8" stroke-linecap="round" stroke-linejoin="round"/>
<path d="M21.4237 26.5214C21.9246 26.7979 22.4821 26.956 23.0535 26.9839C23.6249 27.0117 24.1951 26.9083 24.7205 26.6818C25.2459 26.4553 25.7124 26.1116 26.0845 25.677C26.4565 25.2424 26.7242 24.7284 26.867 24.1744C27.0099 23.6204 27.024 23.0411 26.9085 22.4808C26.7929 21.9205 26.5507 21.394 26.2003 20.9417C25.8499 20.4895 25.4007 20.1234 24.8871 19.8714C24.3734 19.6195 23.8089 19.4884 23.2368 19.4883C22.5749 19.4883 21.9018 19.6561 21.3618 19.957L18.5493 14.8008" stroke="#8779FE" stroke-width="1.8" stroke-linecap="round" stroke-linejoin="round"/>
<path d="M22.3003 14.7988C22.3003 13.8043 21.9052 12.8504 21.2019 12.1472C20.4987 11.4439 19.5449 11.0488 18.5503 11.0488C17.5557 11.0488 16.6019 11.4439 15.8986 12.1472C15.1954 12.8504 14.8003 13.8043 14.8003 14.7988C14.8003 16.2107 15.5222 17.4407 16.6753 18.0801L13.8628 23.2363" stroke="#8779FE" stroke-width="1.8" stroke-linecap="round" stroke-linejoin="round"/>
</g>
<defs>
<clipPath id="clip0_1001_335">
<rect width="22.5" height="22.5" fill="white" transform="translate(7.29956 7.30078)"/>
</clipPath>
</defs>
</svg>
