<svg width="80" height="16" viewBox="0 0 80 16" fill="#26c8d1" xmlns="http://www.w3.org/2000/svg">
<mask id="mask0_2759_8257" style="mask-type:alpha" maskUnits="userSpaceOnUse" x="19" y="1" width="61" height="11">
<path fill-rule="evenodd" clip-rule="evenodd" d="M32.3697 1.42142C32.1403 1.64301 32.0249 1.93845 32.0249 2.23353C31.9865 2.56628 32.1403 2.82479 32.3697 3.04638C32.5998 3.26796 32.9453 3.37839 33.2904 3.37839C33.6356 3.37839 33.9423 3.26796 34.2108 3.04638C34.4409 2.82479 34.5556 2.52935 34.5556 2.19697C34.5947 1.90152 34.4409 1.60608 34.2108 1.42142C33.9807 1.23677 33.6356 1.12598 33.2904 1.12598C32.9453 1.12598 32.5998 1.23677 32.3697 1.42142ZM71.9844 1.71687V11.3189H74.0937V9.54618L75.0917 8.58599L77.3922 11.3189H79.9234L76.6634 7.29344L79.6551 4.33933H77.162L74.0937 7.14535V1.71687H71.9844ZM51.1229 2.82479V4.48668H50.0107V6.03775H51.1229V8.91838C51.0463 9.62008 51.3151 10.2848 51.8127 10.7649C52.3502 11.2081 53.0785 11.4297 53.8073 11.3931C54.1527 11.3931 54.4595 11.3562 54.7659 11.282C55.0346 11.2081 55.3029 11.0973 55.5332 10.9492L54.958 9.50962C54.7273 9.69432 54.421 9.76778 54.1141 9.76778C53.8839 9.80473 53.6541 9.73049 53.4624 9.54618C53.3088 9.36153 53.2317 9.13998 53.2317 8.88144V6.0747H55.0346V4.52361H53.2317V2.82479H51.1229ZM36.9336 4.48668C36.4734 4.67133 36.0899 4.92985 35.7835 5.29879C35.5147 5.63154 35.3996 6.0747 35.3996 6.48095C35.3613 6.92449 35.5147 7.3669 35.8211 7.69964C36.0899 7.95819 36.4351 8.17979 36.8185 8.29093C37.2787 8.43829 37.7773 8.51214 38.2759 8.58599C38.6589 8.62294 39.0428 8.69679 39.388 8.8072C39.5797 8.84453 39.7331 8.99224 39.7331 9.21417C39.7331 9.62008 39.2729 9.84163 38.3909 9.84163C37.9307 9.84163 37.4701 9.76778 37.0486 9.65698C36.6268 9.54618 36.2429 9.39848 35.8981 9.17688L35.2079 10.6176C35.6297 10.8761 36.0899 11.0607 36.5884 11.1712C37.1637 11.3189 37.7773 11.3931 38.3525 11.3931C39.0045 11.4297 39.6177 11.3189 40.27 11.0234C40.7302 10.8761 41.152 10.6176 41.4588 10.2479C41.7273 9.91553 41.842 9.50962 41.842 9.10303C41.8803 8.65989 41.7273 8.25364 41.4205 7.92124C41.1521 7.62618 40.8069 7.44114 40.423 7.33034C39.9249 7.21954 39.4643 7.10875 38.9661 7.0349C38.5826 6.96105 38.1987 6.88681 37.8157 6.7764C37.6239 6.73945 37.4701 6.5548 37.4701 6.3332C37.4701 6.14855 37.5856 5.96429 37.7773 5.89005C38.0841 5.7427 38.4288 5.66847 38.7744 5.7054C39.503 5.7054 40.1933 5.89005 40.8456 6.22206L41.5356 4.78213C41.1521 4.56017 40.6919 4.41282 40.27 4.33933C39.7715 4.22817 39.2346 4.19124 38.736 4.19124C38.1224 4.19124 37.5088 4.30203 36.9336 4.48668ZM57.6424 4.56017C57.1054 4.67133 56.6449 4.89292 56.1854 5.18837L56.9522 6.59175C57.259 6.37015 57.5654 6.22206 57.9107 6.11165C58.2941 6.00119 58.6776 5.927 59.0615 5.927C59.4829 5.89005 59.9434 6.03775 60.2878 6.2963C60.5951 6.5548 60.7488 6.92449 60.7102 7.29344H59.0615C58.0259 7.29344 57.22 7.47809 56.722 7.84773C56.2234 8.17974 55.9171 8.77103 55.9546 9.36153C55.9171 9.73049 56.0317 10.1002 56.2619 10.4329C56.4917 10.7649 56.7985 11.0234 57.1819 11.1712C57.6424 11.3562 58.141 11.4297 58.639 11.4297C59.7132 11.4297 60.442 11.1339 60.8254 10.4695V11.3189H62.8195V7.33034C62.781 6.2963 62.4741 5.52037 61.899 5.00371C61.3239 4.48668 60.4419 4.22817 59.3293 4.22817C58.7546 4.22817 58.179 4.30203 57.6424 4.56017ZM58.2176 9.84163C58.0259 9.69432 57.9107 9.47199 57.9107 9.21417C57.9107 8.65989 58.3707 8.40134 59.2146 8.40134H60.6717V9.10303C60.5951 9.39848 60.3649 9.65698 60.0961 9.80473C59.7893 9.95282 59.4829 10.0263 59.1376 10.0263C59.0917 10.0326 59.0444 10.0355 58.9961 10.0355C58.7629 10.0355 58.5034 9.96426 58.2176 9.84163ZM44.1049 4.70827C43.5301 5.00371 43.0699 5.44688 42.7244 6.00119C42.3792 6.5548 42.2258 7.18299 42.2258 7.84773C42.1875 8.51214 42.3792 9.13998 42.7244 9.69432C43.0699 10.2106 43.568 10.6538 44.1817 10.9492C44.8336 11.245 45.6006 11.3931 46.3292 11.3931C47.6331 11.3931 48.6306 11.0234 49.3205 10.2848L48.208 9.13998C47.9782 9.36153 47.7094 9.54618 47.403 9.65698C47.0962 9.76778 46.7507 9.80473 46.4063 9.80473C45.9074 9.80473 45.4476 9.69432 45.025 9.43543C44.6802 9.17688 44.4118 8.8072 44.335 8.40134H49.7805C49.819 8.0686 49.819 7.88468 49.819 7.84773C49.819 7.18299 49.6659 6.5179 49.2819 5.927C48.9751 5.40995 48.5151 4.96678 47.9782 4.67133C47.3835 4.38512 46.7441 4.24626 46.1037 4.24626C45.4215 4.24626 44.7373 4.40359 44.1049 4.70827ZM44.872 6.14855C45.2171 5.89005 45.6389 5.77926 46.0608 5.77926C46.521 5.7427 46.9424 5.89005 47.288 6.14855C47.5947 6.44366 47.8248 6.81335 47.8632 7.21954H44.2967C44.335 6.81335 44.5264 6.4071 44.872 6.14855ZM65.8488 4.7452C64.6224 5.29879 63.8551 6.5179 63.8932 7.84773C63.8932 8.51214 64.0849 9.13998 64.4307 9.69432C64.7751 10.2106 65.2737 10.6537 65.8488 10.9492C66.501 11.245 67.1912 11.3931 67.92 11.3931C68.6488 11.4297 69.339 11.245 69.9527 10.9865C70.4898 10.6914 70.9112 10.2479 71.1795 9.69432L69.5688 8.84454C69.3 9.43543 68.6488 9.80473 67.9585 9.80473C67.46 9.80473 66.961 9.62008 66.6156 9.28734C66.2327 8.88144 66.041 8.36405 66.079 7.84773C66.041 7.33034 66.2327 6.81335 66.6156 6.44366C66.961 6.11165 67.46 5.927 67.9585 5.927C68.6488 5.927 69.2619 6.2963 69.5688 6.88681L71.1795 6.03775C70.9112 5.48381 70.4898 5.04101 69.9141 4.7452C69.3 4.44975 68.6102 4.30203 67.92 4.30203C67.858 4.29907 67.7966 4.29686 67.7351 4.29686C67.0741 4.29686 66.4459 4.47486 65.8488 4.7452ZM32.2166 11.282H34.3255V4.33933H32.2166V11.282ZM29.7235 4.33933L27.9599 9.02952L26.2341 4.33933H24.47L22.7063 9.02952L20.9806 4.33933H19.024L21.6322 11.282H23.6263L25.3517 6.96105L26.9627 11.282H28.9565L31.5647 4.33933H29.7235Z" fill="#26c8d1"/>
</mask>
<g mask="url(#mask0_2759_8257)">
<path fill-rule="evenodd" clip-rule="evenodd" d="M17.107 13.2391H81.841V-0.720703H17.107V13.2391Z" fill="#26c8d1"/>
</g>
<mask id="mask1_2759_8257" style="mask-type:alpha" maskUnits="userSpaceOnUse" x="0" y="1" width="19" height="14">
<path fill-rule="evenodd" clip-rule="evenodd" d="M13.1301 1.92025L10.272 5.13902L0.733383 7.63763C0.501676 7.75159 0.501676 7.75159 0.386206 7.97879C0.347588 8.09236 0.347588 8.24381 0.424824 8.35704C0.501676 8.471 0.617915 8.5467 0.733383 8.58497L7.02848 10.402L4.75003 13.999C4.67318 14.1123 4.67318 14.2641 4.71141 14.4156C4.75003 14.5291 4.86588 14.6431 4.98174 14.6806C5.09721 14.7185 5.25204 14.7185 5.36755 14.6806L12.8598 11.8408C12.976 11.803 13.0915 11.6894 13.1301 11.5758L15.8334 4.64679L17.8029 4.1167C17.9574 4.07922 18.1115 3.96525 18.1504 3.81342C18.2276 3.58699 18.1115 3.28371 17.8419 3.20798L13.6704 1.76917C13.619 1.74873 13.5673 1.73926 13.5159 1.73926C13.3769 1.73926 13.2429 1.81007 13.1301 1.92025ZM13.6704 2.79149L15.9878 3.62448L15.061 3.85204L12.0106 4.64679L13.6704 2.79149ZM8.61145 9.83448L8.18701 9.72046L7.64638 9.56941L2.7029 8.13062L10.7358 6.00986L14.6358 4.98756L12.3191 10.9321L8.61145 9.83448ZM8.03252 10.705L10.8903 11.5758L6.41057 13.2797L8.03252 10.705Z" fill="#26c8d1"/>
</mask>
<g mask="url(#mask1_2759_8257)">
<path fill-rule="evenodd" clip-rule="evenodd" d="M-1.54462 16.6114H20.12V-0.162109H-1.54462V16.6114Z" fill="#26c8d1"/>
</g>
</svg>
